<svg xmlns="http://www.w3.org/2000/svg" width="14.527" height="14.445" viewBox="0 0 14.527 14.445">
  <g id="_039-fork" data-name="039-fork" transform="translate(0 -0.499)">
    <path id="Path_797" data-name="Path 797" d="M65.373,12.127l.854-.054h0a2.01,2.01,0,0,0,1.5-.874l.675-.99a4,4,0,0,0,.64-2.931.9.9,0,0,0-.846-.75,3.994,3.994,0,0,0-2.833.987l-.9.789A2.01,2.01,0,0,0,63.776,9.9v0l.049.854a1.2,1.2,0,0,1-.334.9l-7.046,7.239a1.024,1.024,0,0,0-.274.76A1.177,1.177,0,0,0,57.363,20.8q.047,0,.094,0a1.024,1.024,0,0,0,.723-.365l6.34-7.862a1.2,1.2,0,0,1,.854-.44Zm-1.193.166-6.34,7.861a.593.593,0,0,1-.419.205.744.744,0,0,1-.817-.724.592.592,0,0,1,.152-.44L63.8,11.957a1.639,1.639,0,0,0,.456-1.228l-.049-.852a1.576,1.576,0,0,1,.54-1.246l.9-.789a3.563,3.563,0,0,1,2.526-.88.466.466,0,0,1,.437.387,3.561,3.561,0,0,1-.571,2.613l-.675.99a1.576,1.576,0,0,1-1.173.686l-.851.054a1.639,1.639,0,0,0-1.165.6Zm0,0" transform="translate(-54.575 -5.853)" fill="#fff"/>
    <path id="Path_798" data-name="Path 798" d="M295.594,291.26l-4.725-4.3a.218.218,0,1,0-.293.322l4.723,4.3a.593.593,0,0,1,.18.431.744.744,0,0,1-.772.772.592.592,0,0,1-.43-.178l-4.21-4.622a.218.218,0,1,0-.322.293l4.211,4.623a1.024,1.024,0,0,0,.742.319h.023A1.179,1.179,0,0,0,295.914,292,1.025,1.025,0,0,0,295.594,291.26Zm0,0" transform="translate(-281.469 -278.275)" fill="#fff"/>
    <path id="Path_799" data-name="Path 799" d="M2.628,6.233a2.016,2.016,0,0,0,1.319.533h0l.855,0a1.2,1.2,0,0,1,.879.388l.377.414a.218.218,0,1,0,.322-.293l-.377-.414a1.639,1.639,0,0,0-1.2-.529l-.853,0a1.582,1.582,0,0,1-1.022-.409L.454,2.975a.075.075,0,0,1,.111-.1L2.821,5.13a.573.573,0,0,0,.809,0l.265-.265h0l.471-.471h0l.265-.265a.573.573,0,0,0,0-.809L2.375,1.064a.075.075,0,0,1,.1-.111L5.423,3.431a1.581,1.581,0,0,1,.409,1.022l0,.853a1.64,1.64,0,0,0,.53,1.2l.4.368a.218.218,0,1,0,.293-.322l-.4-.367A1.2,1.2,0,0,1,6.27,5.3l0-.855s0,0,0,0a2.017,2.017,0,0,0-.533-1.319l-.02-.019L2.757.62a.511.511,0,0,0-.69.752L4.323,3.628a.137.137,0,0,1,0,.193l-.111.111L1.7,1.418a.218.218,0,0,0-.308.308L3.9,4.24,3.741,4.4,1.227,1.888A.218.218,0,0,0,.919,2.2L3.433,4.71l-.111.111a.137.137,0,0,1-.193,0L.873,2.566a.511.511,0,0,0-.752.69L2.609,6.213l.019.02Zm0,0" transform="translate(0)" fill="#fff"/>
  </g>
</svg>
