<svg xmlns="http://www.w3.org/2000/svg" width="144" height="129" viewBox="0 0 144 129">
  <g id="horoscopes-img" transform="translate(-285 -867)">
    <g id="Rectangle_69" data-name="Rectangle 69" transform="translate(285 867)" fill="none" stroke="#fff" stroke-width="1">
      <rect width="144" height="129" rx="10" stroke="none"/>
      <rect x="0.5" y="0.5" width="143" height="128" rx="9.5" fill="none"/>
    </g>
    <g id="Group_40" data-name="Group 40" transform="translate(541.472 708.873)">
      <path id="Path_3" data-name="Path 3" d="M-208.455,212.959h0l-.01.005Z" transform="translate(2.73 3.132)" fill="#fefefe"/>
      <path id="Path_4" data-name="Path 4" d="M-214.689,218.109h0l0,.006Z" transform="translate(2.077 3.673)" fill="#fefefe"/>
      <path id="Path_5" data-name="Path 5" d="M-222.322,210.943h0l0,0Z" transform="translate(1.275 2.921)" fill="#fefefe"/>
      <path id="Path_6" data-name="Path 6" d="M-167.022,188.209l0,0,.007.006Z" transform="translate(7.082 0.534)" fill="#fefefe"/>
      <path id="Path_7" data-name="Path 7" d="M-171.042,189.6v0l-.005-.011Z" transform="translate(6.66 0.678)" fill="#fefefe"/>
      <path id="Path_8" data-name="Path 8" d="M-166.6,188.1c-.082-.133-.246-.1-.356-.181l.017.008a2.91,2.91,0,0,0-1.713-.009l.01-.007c-.2.179-.509-.042-.7.192l.017-.011c-.113.072-.266.053-.365.159h0c-.1.1-.255.067-.349.171h0c-.091.1-.261.066-.339.192l.012-.01c-.459.27-.815.586-.519,1.185a2.745,2.745,0,0,1,.125.256c-.1.2.022.446-.128.628l.008-.006a.618.618,0,0,0-.187.172c-.1.087-.253.06-.349.156a.091.091,0,0,1-.114.027c-.128.065-.294.046-.4.166h0l-.027-.01a.378.378,0,0,0-.02-.134.119.119,0,0,1-.1-.005.318.318,0,0,0-.013.133h0l-.035.009c-.1.006-.2.01-.306.018a.341.341,0,0,0,0,.138.3.3,0,0,1-.15.053c-.057.288.2.5.177.782a.391.391,0,0,1,.16.348.215.215,0,0,1,.118.031l.008.006c-.013,0-.023,0-.038,0a.272.272,0,0,0,.069.33l-.008-.012c.082.1.06.256.183.325a.355.355,0,0,0,.161.2c.122.171.188.381.374.5l-.02-.017a.307.307,0,0,0,.179.2l-.015-.014a.408.408,0,0,0,.181.19l-.013-.011a.57.57,0,0,0,.18.187l-.009-.013a.42.42,0,0,0,.175.115c0,.019.006.039.008.059a.225.225,0,0,1,.177.166c.06.056.12.112.179.166a.223.223,0,0,1,.186.155.888.888,0,0,1,.492.37.887.887,0,0,1,.523.337.4.4,0,0,1,.337.182.407.407,0,0,1,.348.166,2.259,2.259,0,0,0,1,.006.226.226,0,0,1,.181-.159.221.221,0,0,1,.145-.194.446.446,0,0,1,.18-.337.676.676,0,0,1,.188-.5.624.624,0,0,1,.183-.507.4.4,0,0,1,.139-.371.623.623,0,0,1,.2-.493.358.358,0,0,1,.166-.347.383.383,0,0,1,.179-.339c.008-.071.014-.141.022-.212a1.2,1.2,0,0,0,.143-.148l0,.014c.167-.156.048-.4.169-.564a.09.09,0,0,1,.013-.123,2.141,2.141,0,0,0-.014-1.376l.007.013c-.17-.207.02-.5-.167-.7l0,0c-.155-.141-.017-.381-.172-.52v0c-.159-.127-.008-.382-.2-.5-.059-.111-.045-.256-.169-.333l0,0c0-.006-.008-.007-.01-.012a.379.379,0,0,0-.156-.189.487.487,0,0,0-.182-.169Z" transform="translate(6.498 0.49)" fill="#fefefe"/>
      <path id="Path_9" data-name="Path 9" d="M-183.985,245.4c0-.008.015-.005.021-.012v0Z" transform="translate(5.301 6.537)" fill="#fefefe"/>
      <path id="Path_10" data-name="Path 10" d="M-174.329,183.23h0l.006,0Z" transform="translate(6.315 0.01)" fill="#fefefe"/>
      <path id="Path_11" data-name="Path 11" d="M-194.27,230.438l.006-.006,0,0Z" transform="translate(4.221 4.967)" fill="#fefefe"/>
      <path id="Path_12" data-name="Path 12" d="M-189.854,232.026c-.2-.257.035-.606-.171-.865-.073-.411-.2-.782-.689-.857h0c-.212-.188-.508-.007-.726-.165a.143.143,0,0,1-.13-.007,3.361,3.361,0,0,0-1.729,0,.145.145,0,0,1-.128,0c-.161.128-.4.008-.547.169a.8.8,0,0,0-.171.168.3.3,0,0,0-.061.335c.009,0,.013.011.022.015-.109.39-.22.778-.329,1.168a.474.474,0,0,0-.15.032.989.989,0,0,1-.165.691c-.008.158-.017.317-.023.475a.124.124,0,0,0-.154.057.3.3,0,0,1-.017.147c-.17.212.014.5-.159.709a.3.3,0,0,1-.012.152c-.176.2.022.492-.166.687a.221.221,0,0,0,.008.334.216.216,0,0,0,.334.007l0,0c.14-.156.371-.021.517-.161l.076-.019h.078a.177.177,0,0,0,.077-.15l.273-.029a1.275,1.275,0,0,1,.028-.129v-.019c.031.017.051.051.091.055.052-.02.1-.045.152-.066h.261a.6.6,0,0,1,.512-.179.608.608,0,0,1,.5-.188.413.413,0,0,1,.364-.148c.007-.036.012-.073.017-.11a.769.769,0,0,0,.124,0l.215-.074.146,0,.012-.049.061-.021a.378.378,0,0,0,.171-.1l.114.017a.392.392,0,0,1,.345-.173c.12-.169.309-.176.487-.208l.206-.135c.007-.028.015-.055.023-.082a.469.469,0,0,0,.3-.3.183.183,0,0,1,.017-.136.971.971,0,0,0-.012-.857Z" transform="translate(4.1 4.924)" fill="#fefefe"/>
      <path id="Path_13" data-name="Path 13" d="M-194.115,230.284l.006,0,0,0Z" transform="translate(4.238 4.951)" fill="#fefefe"/>
      <path id="Path_14" data-name="Path 14" d="M-183.671,247.74l0,0c.006,0,.006-.01.011-.013Z" transform="translate(5.334 6.783)" fill="#fefefe"/>
      <path id="Path_15" data-name="Path 15" d="M-179.85,251.406c-.2-.4.064-.856-.162-1.254a.11.11,0,0,1-.009-.123c-.155-.221.023-.518-.167-.732l0,.007c-.152-.136-.011-.381-.183-.509a.431.431,0,0,0-.179-.177l.013.015c-.08-.134-.246-.1-.353-.186l.012.009c-.086-.126-.246-.1-.355-.178-.124-.175-.371-.025-.5-.189h0c-.1-.1-.254-.075-.36-.16-.134-.162-.371-.029-.512-.176l.007,0c-.092-.112-.251-.087-.357-.172l.011.009a.364.364,0,0,0-.507-.013.708.708,0,0,0-.165.183c-.134.122-.078.291-.1.442v0a.1.1,0,0,0-.083.055v0c-.186.2.008.5-.166.7l.007-.01c-.25.386.034.846-.176,1.238a.153.153,0,0,1,0,.134c-.17.225-.06.485-.092.729a2,2,0,0,0,.176.106c-.025.013-.05.018-.076.034a.194.194,0,0,0,0,.157c0,.116,0,.229,0,.343a.909.909,0,0,0,.165.014.188.188,0,0,1,.021.148c.173.055.324.133.352.338.16.125.4.14.5.353a.519.519,0,0,1,.336.179.178.178,0,0,1,.2.147c.157.074.315.145.473.218a.964.964,0,0,0,.022.15.7.7,0,0,1,.516.343l.325.031h.017a.222.222,0,0,0-.025.168l.013.008c.074.036.119.109.193.148l-.011-.012c.075.123.249.081.329.194l.007.007a1.834,1.834,0,0,0,.191.156l-.012-.012c.082.122.25.086.34.19.322.165.43-.025.419-.3a13.379,13.379,0,0,0-.09-2.635A.1.1,0,0,1-179.85,251.406Z" transform="translate(5.276 6.758)" fill="#fefefe"/>
      <path id="Path_16" data-name="Path 16" d="M-183.521,247.572h0l0,0Z" transform="translate(5.35 6.766)" fill="#fefefe"/>
      <path id="Path_17" data-name="Path 17" d="M-180.741,248.661l.008.01.005.005Z" transform="translate(5.642 6.881)" fill="#fefefe"/>
      <path id="Path_18" data-name="Path 18" d="M-199.723,215.567l.017.017a.449.449,0,0,0-.165-.2c-.088-.094-.062-.257-.188-.333-.062-.117-.05-.264-.155-.361-.191-.262.032-.6-.164-.863-.108-.088-.071-.259-.192-.337a.46.46,0,0,0-.165-.155c-.083-.128-.245-.1-.357-.178l.019.009a8.389,8.389,0,0,0-2.925-.014.063.063,0,0,1-.1.006c-.222.147-.524-.031-.729.176-.115.07-.277.044-.358.181l.018-.018a.577.577,0,0,0-.2.164v0c-.063.052-.114.117-.176.172h0c-.018,0-.032.019-.048.059s.014.055.04.081c-.062.06-.113.13-.175.189l-.006.012a1.345,1.345,0,0,0-.149.2l.014-.017a3.484,3.484,0,0,0-.367.512v0a.588.588,0,0,0-.162.2l.017-.018a1.968,1.968,0,0,0-.359.513.361.361,0,0,0-.162.195c-.125.065-.1.232-.2.312h0a.743.743,0,0,0-.158.2l.015-.017a2.041,2.041,0,0,0-.359.527l.009-.011a2.532,2.532,0,0,0-.355.525l.009-.01a.371.371,0,0,0-.128.33l0,0-.222.189a.681.681,0,0,1-.364.5c-.006.052-.009.1-.01.155l-.01.008c-.049.006-.1.01-.146.017a.208.208,0,0,1-.171.171.205.205,0,0,1-.178.167l-.011.078c-.008,0-.01.006-.019.007a.77.77,0,0,0-.46.309l.017-.021a.278.278,0,0,0-.2.167.729.729,0,0,0-.187.151h0c-.081.1-.249.072-.311.2a.321.321,0,0,0-.2.165.669.669,0,0,0-.323.3c-.008.032-.032.051-.043.08l-.293.162-.162.17c-.02.082-.04.162-.061.243-.012.014-.024.029-.035.044a.992.992,0,0,0-.114.024l.006.294c0,.008,0,.017,0,.024l.007.335a.537.537,0,0,0,.065.019c.015.033.028.065.044.1a.413.413,0,0,0,.038.424.069.069,0,0,1,.024.1c.006.06.032.083.067.092a.719.719,0,0,0,.035.192c.028.08.051.16.076.24v.035l.012.006c.013.042.031.084.041.127.019.136-.028.291.1.4.134.15.008.385.166.529l0-.007c.151.144.014.383.171.524v0c.2.189-.041.507.2.683l-.013-.018c.12.16,0,.393.166.536.129.149.008.379.166.517s.013.38.169.522l0,0c.2.188-.043.51.207.681l-.013-.015c.117.159,0,.388.164.53.131.15.007.383.166.529l0-.008c.191.194-.042.51.2.689l-.011-.018c.124.158,0,.4.17.538l-.006-.017a.313.313,0,0,0,.117.075.472.472,0,0,0,.039.46.093.093,0,0,1,.022.122c.116.172.006.407.157.569a.068.068,0,0,1,.017.1c.139.236-.027.535.162.762,0,.109,0,.222,0,.334a.369.369,0,0,0-.039.428.845.845,0,0,1-.147.265h0c-.1.09-.061.255-.178.335l-.006.008a1.827,1.827,0,0,0-.141.189.314.314,0,0,0-.161.187.243.243,0,0,0-.178.189l.024-.02c-.3.428.152.35.314.47.127.178.371.04.509.183.089.109.245.084.344.176l-.006,0c.083.113.25.076.336.185h0a.534.534,0,0,0,.2.148c.073.122.232.1.323.187a.365.365,0,0,0,.2.154c.066.127.23.1.317.194l0,0a.458.458,0,0,0,.2.162v-.014c.117.164.233.325.456.144l-.027.041a.475.475,0,0,0,.029-.664l.01.013c-.221-.507.083-1.071-.172-1.572a.065.065,0,0,1,0-.107c-.189-.4.066-.865-.17-1.262l.007.01c-.214-.385.063-.838-.17-1.221a.075.075,0,0,1-.014-.112,1.06,1.06,0,0,0-.107-.192,1.7,1.7,0,0,0-.063-1.067l.008.011c-.2-.325.054-.726-.167-1.049a.087.087,0,0,1-.009-.124c-.188-.341.053-.744-.161-1.083a.092.092,0,0,1-.012-.124.1.1,0,0,0-.082-.08.756.756,0,0,0,.01-.115c-.04-.294.088-.607-.092-.888a.065.065,0,0,1-.011-.1c-.175-.348.05-.754-.156-1.1a.086.086,0,0,1-.012-.123c-.185-.341.046-.744-.157-1.082a.1.1,0,0,1-.014-.132.925.925,0,0,1-.006-.752l-.014.011c.14-.068.1-.244.2-.336h0c.093-.1.26-.066.343-.187l-.009.007c.137-.144.386,0,.507-.188.118-.061.271-.043.361-.166l-.011.009c.107-.084.271-.056.356-.18l-.015.006a.148.148,0,0,0,.065-.161l.257-.049a1.022,1.022,0,0,1,.646-.346.346.346,0,0,0,.283-.262l.282-.075c.073-.1.146-.191.218-.288a.23.23,0,0,0,.233-.158h0a.773.773,0,0,0,.236-.067,13.22,13.22,0,0,0,1.743-1.349c.049-.165.183-.183.323-.2a.443.443,0,0,1,.35-.341.2.2,0,0,1,.19-.15l.194-.286.008-.014c0,.008,0,.012,0,.02.125.049.238.055.3-.1l-.017.021a.271.271,0,0,0,.2-.177.4.4,0,0,0,.179-.164l-.013.009a.514.514,0,0,0,.188-.174l-.007.008a1.115,1.115,0,0,0,.183-.17h0c.06-.054.118-.113.175-.171a1.876,1.876,0,0,0,.17-.181l-.009.006a.543.543,0,0,0,.157-.176A.771.771,0,0,0-199.723,215.567Z" transform="translate(2.406 3.14)" fill="#fefefe"/>
      <path id="Path_19" data-name="Path 19" d="M-201.614,213.45h0l.012.011Z" transform="translate(3.45 3.184)" fill="#fefefe"/>
      <path id="Path_20" data-name="Path 20" d="M-200.671,216.225c0,.007-.012.01-.015.017v0Z" transform="translate(3.547 3.475)" fill="#fefefe"/>
      <path id="Path_21" data-name="Path 21" d="M-200.975,216.558h0Z" transform="translate(3.517 3.51)" fill="#fefefe"/>
      <path id="Path_22" data-name="Path 22" d="M-201.775,213.3c.005,0,.008.009.013.012h0Z" transform="translate(3.433 3.168)" fill="#fefefe"/>
      <path id="Path_23" data-name="Path 23" d="M-179.65,235.183l.012.014c-.085-.126-.249-.1-.352-.183l.011.009c-.135-.179-.379-.036-.526-.183l.01.009c-.131-.145-.306-.086-.465-.1,0-.036-.027-.061-.083-.074a.21.21,0,0,1-.139-.024c-.21-.165-.5.022-.7-.157a.276.276,0,0,1-.161-.018c-.288-.067-.582-.189-.848.066v1.3c.238,1.034-.085,2.1.169,3.127l0,.315a2.37,2.37,0,0,1,.076,1.011c.051,1.513-.063,3.025.059,4.535,0,.057,0,.115-.008.172-.039.073-.078.141-.117.214a.141.141,0,0,1-.021.122c-.1.1-.072.254-.16.356l.006-.009c-.116.087-.091.246-.178.35a.751.751,0,0,0-.175.17c-.1.09-.253.066-.352.161h0c-.082.1-.231.084-.315.18.252.442.253.445-.114.862-.093.107-.168.228-.259.337h0a2.411,2.411,0,0,0-.168.183l.009-.009c-.112.125-.125.239.038.329l.049-.013.046.016c.156-.138.388-.014.543-.159l.061-.024.066,0c.123-.067.281-.052.389-.157h0a.677.677,0,0,1,.7,0l-.006,0c.09.107.252.074.343.179h0a.873.873,0,0,0,.192.162l-.011-.016c.082.13.246.1.352.185l-.01-.008c.083.124.25.094.349.186a.517.517,0,0,0,.18.169l-.01-.011a.26.26,0,0,0,.313.074c.006.042.011.08.017.123l.186.156c.1-.061.206-.119.308-.181q.025-.4.044-.806v-.008a.113.113,0,0,0,.139-.066c.006-.1.011-.2.017-.3.233-.859-.063-1.748.164-2.608a.19.19,0,0,1,0-.144c.181-.282.052-.594.092-.89,0-.064-.041-.149-.067-.137l-.052.016.017-.022.043-1.143a.228.228,0,0,0,.136-.1c0-.1.007-.209.009-.309.182-.389.043-.8.088-1.2a.37.37,0,0,0-.088-.185.3.3,0,0,0,.055-.334c-.013-.014-.022-.029-.035-.043.137-.206-.017-.477.147-.676a.158.158,0,0,1,.01-.147,6.855,6.855,0,0,0,.02-2.2l0-.014a.119.119,0,0,0,.14-.063q.008-.152.017-.308a4.255,4.255,0,0,0-.018-1.888A.613.613,0,0,0-179.65,235.183Z" transform="translate(5.245 5.382)" fill="#fefefe"/>
      <path id="Path_24" data-name="Path 24" d="M-179.954,235.258v0l.01.009Z" transform="translate(5.724 5.474)" fill="#fefefe"/>
      <path id="Path_25" data-name="Path 25" d="M-220.621,213.406l-.01.009s-.006.009-.011.012Z" transform="translate(1.452 3.179)" fill="#fefefe"/>
      <path id="Path_26" data-name="Path 26" d="M-188.815,229.818l.007,0,0-.006Z" transform="translate(4.794 4.902)" fill="#fefefe"/>
      <path id="Path_27" data-name="Path 27" d="M-206.125,237.724c0,.006-.01.008-.013.013l0,.008Z" transform="translate(2.975 5.733)" fill="#fefefe"/>
      <path id="Path_28" data-name="Path 28" d="M-205.681,237.426a.071.071,0,0,1-.006-.112c-.177-.283.057-.644-.178-.913l.008.014c-.129-.156-.013-.38-.148-.534a.088.088,0,0,1-.029-.118c-.116-.168,0-.41-.175-.561-.12-.154.008-.39-.173-.522l.007.019a.2.2,0,0,0-.145-.08c0-.1-.008-.193-.012-.288a.755.755,0,0,1-.225-.472c-.16-.122-.322-.245-.483-.366a.41.41,0,0,1-.345-.171.416.416,0,0,1-.358-.156.637.637,0,0,1-.484-.21.393.393,0,0,1-.362-.149c-.146-.021-.292-.041-.436-.063a1.017,1.017,0,0,0-.057-.14.576.576,0,0,0-.5.19,1,1,0,0,1-.178.683c-.008.227-.018.452-.027.678-.049.059-.1.122-.148.18a.557.557,0,0,1-.144.54c-.019.161-.108.315-.043.484a.684.684,0,0,0,.471.887c.032.092.064.181.1.275l.291.063,0,0a.16.16,0,0,1,.033,0c-.084.154.036.236.157.319h0a.506.506,0,0,0,.2.164l-.015-.018a4.551,4.551,0,0,0,.68.546l0,0c.119.228.385.3.532.5a.462.462,0,0,0,.171.186l-.012-.014c.124.145.336.122.46.319.343.538.738.8,1.15.035.046-.086.2-.085.271-.181l-.011.012a.448.448,0,0,0,.164-.179A.816.816,0,0,0-205.681,237.426Z" transform="translate(2.532 5.195)" fill="#fefefe"/>
      <path id="Path_29" data-name="Path 29" d="M-149.868,188.682l.009,0h0Z" transform="translate(8.883 0.583)" fill="#fefefe"/>
      <path id="Path_30" data-name="Path 30" d="M-147.227,189.607v0l0,0Z" transform="translate(9.161 0.68)" fill="#fefefe"/>
      <path id="Path_31" data-name="Path 31" d="M-149.244,191.474l0,0h0Z" transform="translate(8.949 0.876)" fill="#fefefe"/>
      <path id="Path_32" data-name="Path 32" d="M-147.381,191l0,0h0Z" transform="translate(9.144 0.827)" fill="#fefefe"/>
      <path id="Path_33" data-name="Path 33" d="M-148.158,191.62l-.009,0h0Z" transform="translate(9.062 0.892)" fill="#fefefe"/>
      <path id="Path_34" data-name="Path 34" d="M-149.063,191.617c-.008,0-.011-.012-.019-.015h0Z" transform="translate(8.966 0.89)" fill="#fefefe"/>
      <path id="Path_35" data-name="Path 35" d="M-183.668,227.809l.007,0,0-.022Z" transform="translate(5.334 4.689)" fill="#fefefe"/>
      <path id="Path_36" data-name="Path 36" d="M-180.733,229.809l.006.006,0,0Z" transform="translate(5.643 4.902)" fill="#fefefe"/>
      <path id="Path_37" data-name="Path 37" d="M-183.515,230.581v0l0,0Z" transform="translate(5.35 4.982)" fill="#fefefe"/>
      <path id="Path_38" data-name="Path 38" d="M-183.663,229.852a.151.151,0,0,1,.007.136c.185.274-.04.622.167.89.092.1.129.3.335.164l-.008.005a21.85,21.85,0,0,1,2.821-.086c.235-.013.67.116.439-.415l.013.012a.583.583,0,0,0-.181-.182l.009.01a.56.56,0,0,0-.181-.182l.01.009a.619.619,0,0,0-.175-.177.591.591,0,0,0-.179-.176l.009.009a.53.53,0,0,0-.183-.18l.011.009a.524.524,0,0,0-.183-.181l.011.01a.465.465,0,0,0-.187-.18l.01.015a5.689,5.689,0,0,0-.68-.539h0a.906.906,0,0,0-.187-.169l.009.011a.459.459,0,0,0-.188-.177l.012.015c-.072-.135-.246-.094-.33-.2l0,0a1.269,1.269,0,0,0-.191-.16l.012.01c-.083-.122-.25-.09-.348-.183l.007,0c-.092-.113-.252-.087-.358-.171l.01.011c-.109-.124-.215-.126-.318,0A4.484,4.484,0,0,0-183.663,229.852Z" transform="translate(5.323 4.682)" fill="#fefefe"/>
      <path id="Path_39" data-name="Path 39" d="M-167.634,187.1l-.006,0,0,0Z" transform="translate(7.017 0.417)" fill="#fefefe"/>
      <path id="Path_40" data-name="Path 40" d="M-219.353,198.34l0-.006v0Z" transform="translate(1.588 1.597)" fill="#fefefe"/>
      <path id="Path_41" data-name="Path 41" d="M-182.744,186.336h0Z" transform="translate(5.431 0.337)" fill="#fefefe"/>
      <path id="Path_42" data-name="Path 42" d="M-182.113,186.8l0,0h0Z" transform="translate(5.497 0.385)" fill="#fefefe"/>
      <path id="Path_43" data-name="Path 43" d="M-182.564,187.012h0c.14.155.374.024.519.168.264.211.614-.02.883.17l.072-.009.072.015c.395.22.851-.038,1.246.161l.069-.006.065.022c.1.1.254.072.356.159l-.005-.008a.277.277,0,0,0,.139.063c0,.008-.009.007-.012.018a.106.106,0,0,0,.036.111c.171.007.341.011.513.014a.505.505,0,0,0,.172.126,2.892,2.892,0,0,0-.333.221l.007-.009a4.168,4.168,0,0,1-1.772,0l-.067,0c-.195.081-.175.193-.05.324l-.012-.011a.669.669,0,0,0,.179.182c.227.26.578.217.86.343l-.009,0a2.755,2.755,0,0,0,1.546,0l-.008,0c.571-.218,1.183.017,1.759-.146l.057.012c.136.067.31.012.424.141l.006,0a.712.712,0,0,0,.2.152l-.013-.014a.344.344,0,0,0,.187.187l-.012-.011a.553.553,0,0,0,.149.2.108.108,0,0,1,.024.125.366.366,0,0,1,0,.406c-.3.482-.859.076-1.222.345a.111.111,0,0,1-.129,0,.778.778,0,0,1-.4.076c-.129.008-.315-.03-.33.148-.019.23.252.156.354.272l-.006,0c.2.2.494-.009.694.175h-.006c.161.155.4.048.57.159l.061-.01.055.028c.2.185.5-.005.705.162l-.012-.008c.233.2.509.062.765.1.028.007.049,0,.075.007.009.027,0,.062.035.076l.08,0,.078.021a1.948,1.948,0,0,0,1.2-.015l0,.006a2.254,2.254,0,0,1,.179-.161l.007-.01c.045-.064.109-.115.152-.183a.538.538,0,0,0,.172-.183l-.009.011a.678.678,0,0,0,.189-.17l-.005,0c.1-.094.253-.069.352-.161h.005c.084-.111.244-.08.335-.178a.148.148,0,0,0,.032-.168c.067.023.113,0,.124-.082a.055.055,0,0,1,.01-.091.226.226,0,0,0,0-.348.668.668,0,0,1,.008-.516.507.507,0,0,0,.046-.47c-.029-.025-.057-.051-.086-.072l.006-.017c.03.038.05.084.1.1.036-.015.073-.034.11-.053l0-.006c.045-.072.124-.117.15-.2l-.017.013c.164-.192.35-.361.528-.541l-.015.019a.351.351,0,0,0,.2-.162c.1-.084.261-.06.334-.189.116-.062.277-.04.355-.179l-.013.011c.115-.064.264-.051.364-.154a6.3,6.3,0,0,1,1.587-.084.3.3,0,0,0,.14-.087h0c.111.117.275.092.406.156l.052-.027.052.027a.853.853,0,0,0,.856.009c.493-.414-.071-.568-.208-.827l.021.018a.265.265,0,0,0-.175-.192.349.349,0,0,0-.171-.182l.015.014a.485.485,0,0,0-.179-.19l.011.011a.623.623,0,0,0-.181-.183l.009.01a.656.656,0,0,0-.177-.185l.007.007a.886.886,0,0,0-.179-.179l.007.008a.745.745,0,0,0-.18-.178l.008.007a.645.645,0,0,0-.186-.177l.011.009a.452.452,0,0,0-.18-.164.3.3,0,0,0-.193-.176l.017.019a.474.474,0,0,0-.443-.224c0-.009,0-.006,0-.018a.188.188,0,0,0-.057-.143h0a.717.717,0,0,0-.2-.161l.017.017c-.07-.132-.248-.09-.328-.2l-.006,0a.855.855,0,0,0-.2-.149h0c-.08-.112-.235-.092-.329-.177l.008,0c-.09-.115-.251-.084-.352-.177l.008.006c-.092-.115-.249-.092-.359-.169-.154-.166-.391-.057-.561-.168a.078.078,0,0,1-.109-.022c-.165-.141-.4-.041-.57-.152a.084.084,0,0,1-.116-.015,4.191,4.191,0,0,0-1.888.01c-.072.047-.147.087-.214.139a.648.648,0,0,0-.651.033l.008-.006c-.26.2-.614-.05-.867.18l.01-.006c-.263.2-.614-.046-.871.176l.008-.006c-.32.212-.724-.061-1.042.177l.01,0a1.326,1.326,0,0,1-.291.131,1.524,1.524,0,0,0-.926.028c-.1,0-.2.011-.306.019-.4.2-.856-.067-1.248.166a.165.165,0,0,1-.137,0c-.235.157-.526.008-.767.135l-.012.013a.422.422,0,0,0-.455.008.566.566,0,0,1-.156.01.2.2,0,0,0,0,.334h.075l.073.013.337-.028a.279.279,0,0,0,.069.091c.444.074.9-.085,1.343.094l.318.008c.387.218.84-.05,1.227.165.151,0,.3,0,.455-.009a.39.39,0,0,0,.179-.118.34.34,0,0,0,.2.01.469.469,0,0,1,.084-.05l.091.024a.2.2,0,0,1,.147-.03c.009-.025.019-.05.029-.074.024,0,.046-.009.072-.007.15-.011.311.036.435-.091a.438.438,0,0,1,.526,0,.46.46,0,0,1,.007.531.581.581,0,0,0-.176.18l.011-.009a2.148,2.148,0,0,0-.188.147.118.118,0,0,1-.119.035.659.659,0,0,0-.277.133c-.011.012-.025.01-.036.02l-.087-.022a.261.261,0,0,1-.164.025l-.034.083c-.024,0-.049,0-.074,0a.862.862,0,0,0-.3.047c-.1-.055-.223-.054-.319-.126a.156.156,0,0,1-.135-.006.658.658,0,0,0-.655-.023c0-.011.009-.01.01-.028,0-.048-.024-.085-.081-.115a.186.186,0,0,1-.137-.014,3.77,3.77,0,0,0-1.721,0,.221.221,0,0,1-.148.012c-.153.139-.389.013-.536.17-.1.091-.257.065-.348.175l.007,0c-.1.1-.256.066-.351.169h0c-.092.1-.246.07-.344.158a.186.186,0,0,1-.134.029c-.12.073-.281.053-.385.165l.006,0c-.1.094-.253.07-.349.168C-182.854,186.873-182.661,186.918-182.564,187.012Z" transform="translate(5.428)" fill="#fefefe"/>
      <path id="Path_44" data-name="Path 44" d="M-189.74,232.759l-.01-.011h0Z" transform="translate(4.696 5.21)" fill="#fefefe"/>
      <path id="Path_45" data-name="Path 45" d="M-176.353,223.533l.052-.019a1,1,0,0,1,.173-.682c0-.168,0-.336.006-.5h-.506a.4.4,0,0,1-.343.175.39.39,0,0,1-.341.173l-.011.051c-.119.025-.248.025-.334.136l.011-.008c-.126.073-.264.124-.389.2a1.361,1.361,0,0,0-.161.148c-.025.029-.051.055-.074.083a1.345,1.345,0,0,0-.126.179.728.728,0,0,0-.024.08c-.29.274-.294.3-.136.607a.739.739,0,0,0,.077.1.808.808,0,0,0,.044.162c.041.094.083.189.125.282.027.063.052.127.08.19.049.136.083.275.133.41.2.282.185.822.77.623l0,.012c.112-.089.086-.248.175-.349.108-.094.087-.249.166-.356l-.008.011c.133-.1.112-.265.176-.4a.108.108,0,0,1,.03-.115c.093-.1.061-.255.158-.349l0,0c.107-.1.086-.251.164-.361C-176.322,223.891-176.4,223.7-176.353,223.533Z" transform="translate(5.86 4.116)" fill="#fefefe"/>
      <path id="Path_46" data-name="Path 46" d="M-180.707,188.2h0l-.008-.006Z" transform="translate(5.644 0.532)" fill="#fefefe"/>
      <path id="Path_47" data-name="Path 47" d="M-181.854,192.474c.019.062.015.136.051.165.738.628,1.481,1.246,2.223,1.87a9.435,9.435,0,0,1,.783.89,3.448,3.448,0,0,0,1.365,1.116,5.122,5.122,0,0,1,1.114.614c.176.154.291.1.391-.1a1.491,1.491,0,0,0,.17-.653c.272-.191.452-.509.809-.578l.014-.076a.35.35,0,0,0-.165-.119c-.01-.078-.019-.157-.029-.235-.05-.063-.1-.125-.151-.188s-.107-.119-.162-.18a.238.238,0,0,1-.167-.177.235.235,0,0,1-.173-.169c-.061-.057-.122-.112-.181-.165s-.132-.1-.2-.144a.481.481,0,0,1-.32-.2c-.231-.05-.5.066-.692-.165a.7.7,0,0,1-.509-.181.592.592,0,0,1-.524-.164l-.457-.043a.822.822,0,0,1-.049-.141c-.114,0-.229,0-.341,0h0c-.007,0-.012,0-.019,0s.011-.007.017-.022a.117.117,0,0,0-.042-.13.192.192,0,0,1-.129-.035.109.109,0,0,0-.165.013l-.018.027h-.009c.031-.035.07-.065.074-.119a.955.955,0,0,0-.1-.059.173.173,0,0,1-.125-.032.65.65,0,0,0-.219-.14.16.16,0,0,1-.127-.033c-.094-.085-.25-.048-.334-.157l0,0c-.1-.092-.251-.07-.351-.16-.139-.158-.377-.021-.518-.174v0C-181.364,192.453-181.623,192.3-181.854,192.474Z" transform="translate(5.525 0.973)" fill="#fefefe"/>
      <path id="Path_48" data-name="Path 48" d="M-172.462,189.914l0,0h0Z" transform="translate(6.511 0.713)" fill="#fefefe"/>
      <path id="Path_49" data-name="Path 49" d="M-195.352,234.786l0-.007-.005,0Z" transform="translate(4.107 5.423)" fill="#fefefe"/>
      <path id="Path_50" data-name="Path 50" d="M-143.088,215.524h-.009q0-1.361-.007-2.724a2.359,2.359,0,0,1-.161-1.04,1.051,1.051,0,0,1-.19-.675.755.755,0,0,1-.179-.509.443.443,0,0,1-.151-.361.407.407,0,0,1-.186-.333.948.948,0,0,1-.328-.528.827.827,0,0,1-.349-.513.227.227,0,0,1-.148-.192.419.419,0,0,1-.209-.315.219.219,0,0,1-.144-.2.805.805,0,0,1-.367-.494.217.217,0,0,1-.146-.2.385.385,0,0,1-.22-.3.983.983,0,0,1-.148-.043,1.5,1.5,0,0,0,0-.157c-.05-.009-.1-.015-.147-.025q0-.085,0-.169a.769.769,0,0,1-.375-.491.228.228,0,0,1-.145-.2.808.808,0,0,1-.376-.487.232.232,0,0,1-.147-.193c-.027-.006-.055-.008-.083-.011a.775.775,0,0,0-.3-.493l.021.017a.333.333,0,0,0-.177-.2l.013.013a.68.68,0,0,0-.162-.2h0c-.139-.158-.2-.373-.376-.5l.017.017a.45.45,0,0,0-.166-.2l0,0c-.129-.168-.192-.383-.377-.508l.02.016a.365.365,0,0,0-.172-.2l.011.01a1.033,1.033,0,0,0-.165-.19c-.143-.154-.2-.373-.379-.5l.018.015a.38.38,0,0,0-.172-.194l.01.008a1.867,1.867,0,0,0-.159-.191l0,0c-.149-.147-.2-.367-.378-.5l.018.015a.471.471,0,0,0-.172-.2l.009.009c-.045-.069-.11-.122-.157-.187l0-.009c-.109-.071-.083-.234-.2-.3l0,0-.006-.007a.6.6,0,0,0-.151-.2c-.1-.084-.074-.245-.19-.316-.023-.087-.1-.136-.146-.2l0-.006c-.113-.083-.075-.25-.187-.333l.006.007c-.1-.1-.064-.262-.179-.35l.006.009c-.092-.1-.064-.264-.173-.356l0,.008c-.154-.135-.008-.385-.189-.507-.063-.113-.054-.26-.152-.359-.19-.194.025-.5-.185-.689l.006.011c-.208-.326.06-.73-.173-1.052a.072.072,0,0,1-.006-.114,1.916,1.916,0,0,1,0-1.134.085.085,0,0,1,.006-.122c.229-.324-.034-.726.171-1.051l-.007.011c.212-.189-.006-.5.187-.69v0a.465.465,0,0,0,.1-.294c0-.023.007-.048.011-.071l.033-.01c.011-.1.023-.2.034-.3a.615.615,0,0,1,.044-.132c.007-.013.007-.029.012-.042a.614.614,0,0,0,.107-.021.391.391,0,0,1,.161-.35.412.412,0,0,1,.173-.343.391.391,0,0,1,.181-.338.4.4,0,0,1,.18-.34c.041-.071.082-.14.123-.212a.379.379,0,0,1,.223-.3.223.223,0,0,1,.173-.169.4.4,0,0,1,.3-.215c.008-.032.013-.064.02-.1a.456.456,0,0,0,.08-.042l.113.009c.008-.027.01-.055.015-.084.032-.02.064-.042.1-.062l.03-.011.2-.017c.011-.025.02-.051.03-.076l.013,0a1.1,1.1,0,0,0,.2-.056l.007,0a.242.242,0,0,0,.267-.025l.062-.033.07.009a.092.092,0,0,0,.075-.07.672.672,0,0,1,.331.064.453.453,0,0,0,.169.187l0-.01c.012,0,.024.022.033.067a.121.121,0,0,1-.045.122h0a.608.608,0,0,0-.158.2l.014-.014a.332.332,0,0,0-.186.189l.017-.015a.283.283,0,0,0-.169.182c-.148.078-.119.251-.189.371,0,.072,0,.14,0,.212a.4.4,0,0,0,.155.25v0c.055.059.112.118.171.172a.667.667,0,0,0,.18.144,1.1,1.1,0,0,0,1.011.023c.1-.09.265-.061.35-.181l-.011.006a1.149,1.149,0,0,0,.525-.507,1.648,1.648,0,0,0,.176-1.543c-.1-.093-.062-.265-.2-.335l.018.019a.343.343,0,0,0-.183-.193l.015.017a.316.316,0,0,0-.18-.161c-.065-.145-.24-.109-.336-.2l.008.007c-.093-.115-.251-.09-.359-.17l.015.006a3.062,3.062,0,0,0-1.707-.011c-.139.151-.4-.01-.516.2l.025-.007a.668.668,0,0,0-.181.131l-.039.043-.117.022c-.069.042-.137.087-.206.13l-.188.157a.419.419,0,0,0-.029.147h0c-.09.027-.178.055-.265.082-.074.106-.145.211-.215.316-.408-.461-.408-.461-.837-.177a.38.38,0,0,1-.164.352c-.02.213-.041.429-.061.641-.38.1-.359.4-.344.7a1.563,1.563,0,0,0-.177.607.418.418,0,0,0-.147.077c-.078.212-.152.425-.236.634a9.241,9.241,0,0,0-.44,6.009,1.852,1.852,0,0,0,.308.78,3.826,3.826,0,0,0,.872,1.723,7.291,7.291,0,0,0,1.025,1.581c.075.155.141.312.228.457q.784,1.331,1.581,2.655c.072.118.17.224.255.337a.885.885,0,0,0,.368.645h0a2.356,2.356,0,0,0,.528,1.018q.413.955.825,1.914c-.018.082-.072.176-.05.244.223.644.267,1.327.425,1.982,0,.062,0,.118,0,.176a.137.137,0,0,0-.028.151,1.136,1.136,0,0,0-.16.7c-.182.411-.378.816-.545,1.233a6.771,6.771,0,0,0-.6,1.315c.212.029.381.045.547.073a7.45,7.45,0,0,1,2.661.876,2.974,2.974,0,0,1,1.232,1.139c.127.179.132.692.5.181l0,.008c.164-.137.021-.378.177-.518v0c.186-.206,0-.5.165-.7l-.008.014C-143.011,216.366-143.309,215.906-143.088,215.524Z" transform="translate(8.462 0.572)" fill="#fefefe"/>
      <path id="Path_51" data-name="Path 51" d="M-163.689,200.7a10.631,10.631,0,0,1,1.217-1.2,8.679,8.679,0,0,1,1.178-1.24,44.243,44.243,0,0,1,4.916-4.287,9.37,9.37,0,0,1,2.93-1.586,1.036,1.036,0,0,0,.639-.4.266.266,0,0,0,.182-.19.215.215,0,0,0,.172-.188l.008.006.42-.389a.689.689,0,0,1,.027-.081c.333-.659.352-.8-.485-.754a.072.072,0,0,1-.1.017.174.174,0,0,0-.129.154c-.092,0-.183.007-.275.01a.4.4,0,0,1-.351.16.611.611,0,0,0-.019.137l-.16.066a.833.833,0,0,0-.157-.02c-.012.05-.025.1-.04.147l-.274.061a.23.23,0,0,1-.209.128.388.388,0,0,1-.311.211.221.221,0,0,1-.2.136.884.884,0,0,1-.5.361.213.213,0,0,1-.192.149.868.868,0,0,1-.487.377.235.235,0,0,1-.189.155.214.214,0,0,1-.189.154.875.875,0,0,1-.467.4l-.187.15a.229.229,0,0,1-.186.16.219.219,0,0,1-.182.16.218.218,0,0,1-.18.165,2.611,2.611,0,0,1-.818.737.225.225,0,0,1-.179.161c-.06.054-.122.107-.182.162a.223.223,0,0,1-.178.166.225.225,0,0,1-.181.164.217.217,0,0,1-.178.167.218.218,0,0,1-.176.168.217.217,0,0,1-.176.168.218.218,0,0,1-.175.169c-.68.694-1.356,1.395-2.041,2.083-.4.4-.819.793-1.229,1.19a.217.217,0,0,1-.17.172.211.211,0,0,1-.169.177.217.217,0,0,1-.169.176.22.22,0,0,1-.166.179.22.22,0,0,1-.17.173.223.223,0,0,1-.167.178.232.232,0,0,1-.167.178l-.141.186C-164.019,200.991-163.991,201-163.689,200.7Z" transform="translate(7.367 0.762)" fill="#fefefe"/>
      <path id="Path_52" data-name="Path 52" d="M-145.279,220a.682.682,0,0,1-.37-.292h.009a3.34,3.34,0,0,0-.513-.365l0,0a.76.76,0,0,0-.186-.171l.01.01a.48.48,0,0,0-.19-.177l.013.013a.405.405,0,0,0-.186-.187l.014.015a.433.433,0,0,0-.18-.185.636.636,0,0,0-.162-.181l.006,0c-.05-.064-.112-.116-.161-.183l0-.007c-.148-.147-.209-.36-.37-.5l.013.014a1.169,1.169,0,0,0-.157-.2c-.254-.2-.331-.523-.507-.776-.12-.175-.136-.519-.392-.475-.2.033-.29.319-.343.544a7.557,7.557,0,0,0-.834,1.385,6.355,6.355,0,0,0-.857,1.042,2.835,2.835,0,0,0-.677.7l-.007.006a.174.174,0,0,0-.161.165l-.01.01a.207.207,0,0,0-.191.144.2.2,0,0,0-.181.166.209.209,0,0,0-.173.16c-.135.022-.267.045-.325.2q-.26.167-.518.327a2.382,2.382,0,0,1-.751-.088,1.813,1.813,0,0,0-1.169-.043,5.777,5.777,0,0,1-1.522.174h0c-.649-.092-1.3-.1-1.956-.149-1.964-.141-3.913-.394-5.862-.651a3.192,3.192,0,0,0-1.683.072,7.561,7.561,0,0,0-4.449,1.722c-.272.183-.543.365-.815.547a.628.628,0,0,0-.2.178l.007,0c-.056.06-.114.116-.171.175l-.165.179c-.056.061-.112.118-.166.179s-.109.119-.164.179a.733.733,0,0,1-.372.491q-.075.093-.149.192a.43.43,0,0,1-.2.316c-.045.067-.091.137-.137.2a.442.442,0,0,1-.183.334.471.471,0,0,1-.17.348.482.482,0,0,1-.166.349c-.007.1-.014.2-.022.307a.593.593,0,0,0-.172.2l0-.01c-.17.139-.034.379-.172.53l.008-.013c-.25.322.024.732-.18,1.064,0,.145,0,.29,0,.436.15.223-.011.514.155.735v0c.17.127,0,.387.2.506l-.014-.015a.687.687,0,0,0,.162.194h0a1.385,1.385,0,0,0,.519.513h0a.666.666,0,0,0,.192.167l-.013-.015c.083.13.246.1.355.182l-.013-.009a1.716,1.716,0,0,0,1.2.033l.048-.031.06,0a.384.384,0,0,0,.235-.162l-.008.007a1.287,1.287,0,0,0,.182-.173l0,0a1.009,1.009,0,0,0,.17-.186l-.01.01c.118-.081.081-.251.19-.337h0c.146-.147.018-.378.164-.528l-.006.008a.374.374,0,0,0,0-.512l.006.009c-.151-.143,0-.391-.183-.523l.011.012a.917.917,0,0,0-.17-.188l0,0a.912.912,0,0,0-.188-.169l.01.013a.256.256,0,0,0-.326-.078c-.009.007-.014.014-.022.021a.146.146,0,0,0-.157-.137l-.007,0c-.05-.172-.193-.139-.319-.145-.01.1-.02.2-.03.3-.107.182-.212.364-.318.548-.006.042-.01.085-.015.127a.115.115,0,0,0-.159.087.117.117,0,0,1-.032.116c-.148.165-.337.04-.5.073l-.017-.228c-.043-.012-.085-.024-.129-.04,0-.615-.006-1.235-.008-1.853a.493.493,0,0,0,.155-.021.363.363,0,0,1,.168-.348c.044-.067.088-.138.134-.206a.44.44,0,0,1,.211-.311c.048-.067.1-.131.143-.2a.422.422,0,0,1,.21-.312c.053-.061.106-.125.16-.185l.154-.191c.052-.061.1-.122.157-.18a1.213,1.213,0,0,1,.693-.7c.06-.054.119-.107.178-.161s.123-.1.185-.161.129-.1.193-.148c.009-.05.017-.1.027-.154h0a.271.271,0,0,0,.148-.072.336.336,0,0,0,.136.015c.012-.044.023-.09.031-.135a1.43,1.43,0,0,1,.168-.011.419.419,0,0,1,.314-.2,1.012,1.012,0,0,1,.039-.134c.35-.088.634-.369,1.022-.359a.617.617,0,0,1,.516-.168c.015-.049.032-.094.05-.14h.071l.065-.03c.165-.007.33-.011.5-.015a.838.838,0,0,1,.227-.1,14.276,14.276,0,0,1,3.192.013.692.692,0,0,1,.222.106h-.006c.134.129.3.086.46.081.025-.02.045-.044.069-.066.036.1.132.117.219.147l.056-.017.052.027c.2.2.5-.009.7.177l0,0a.657.657,0,0,0,.644.032h0l0,.01a.143.143,0,0,0,.057.132l-.01,0c.209.2.507.006.723.169l.071-.006.066.027c.206.17.492-.019.7.159.136.127.3.085.461.075.01-.034.028-.06.039-.092l.01.011c.022.122.133.132.221.168l.063-.012.06.029c.2.181.5-.011.7.162l-.009-.006c.251.229.607-.024.863.185l0,0c.182.151.4.065.6.089l.043,0c0,.039.029.063.093.073l.063-.011.059.025c.213.186.509,0,.727.164l.072-.009.066.029a.614.614,0,0,0,.488.05.215.215,0,0,0,.027-.06l.35.165c.267.014.537.027.807.038h.008l0,.011a.133.133,0,0,0,.064.126l.081-.006.077.027c.192.123.4.054.61.063a.675.675,0,0,0,.093-.069c.209.158.493-.009.7.152h.445a.13.13,0,0,0,.083-.141l.056,0,.071-.024c.059-.006.116-.008.175-.009h.5a.841.841,0,0,1,.062-.136h0c.153-.011.3-.022.456-.036a.674.674,0,0,1,.512-.176.415.415,0,0,1,.359-.152.755.755,0,0,1,.472-.225c.073-.039.145-.08.215-.12a.413.413,0,0,1,.331-.187c.007-.041.014-.084.023-.126.1-.024.2-.044.3-.07l.2-.137a1.417,1.417,0,0,0,.02-.151l.3-.059c.063-.05.127-.1.19-.147s.126-.1.188-.155c.012-.053.023-.1.033-.159h0l.45-.219q.013-.073.02-.146a1.383,1.383,0,0,1,.162-.017c.006-.035.009-.071.012-.106.027-.014.052-.031.078-.048h.012l.083-.006.008-.059a.759.759,0,0,0,.168-.116l-.006.006a1.48,1.48,0,0,0,.18-.172l0,0a1.758,1.758,0,0,0,.175-.177l0,0a.857.857,0,0,0,.173-.185l-.009.009a.553.553,0,0,0,.177-.191h-.013a.943.943,0,0,1,.336-.515A.524.524,0,0,0-145.279,220Z" transform="translate(6.365 3.489)" fill="#fefefe"/>
      <path id="Path_53" data-name="Path 53" d="M-171.837,216.562h0Z" transform="translate(6.577 3.51)" fill="#fefefe"/>
      <path id="Path_54" data-name="Path 54" d="M-171.788,223.424a3.428,3.428,0,0,0,.876-2.185c0-.143.061-.28.074-.423a13.786,13.786,0,0,0,.26-1.869,15.07,15.07,0,0,0,.508-2.578,5.877,5.877,0,0,0,.323-1.555c.014-.1.029-.2.042-.3a.644.644,0,0,0,.147-.551c.084-.391.167-.782.252-1.173.341-1.566.709-3.122,1.023-4.692a13.2,13.2,0,0,1,.627-2.4c.115-.167.1-.317-.094-.394a.357.357,0,0,0-.428.159c-.152.186-.02.439-.147.628a.124.124,0,0,1-.027.126c-.1.116-.082.27-.147.393a.12.12,0,0,1-.027.125c-.093.1-.069.25-.148.357-.167.137-.041.37-.17.519-.167.13-.044.364-.173.508-.171.134-.036.376-.176.52l.008-.01c-.177.148-.051.394-.176.56a.125.125,0,0,1-.025.128c-.094.112-.077.265-.146.388a.132.132,0,0,1-.027.128c-.092.115-.082.269-.145.4a.1.1,0,0,1-.022.117c-.147.146-.008.381-.167.519v0c-.152.144-.024.379-.166.526-.159.14-.033.376-.167.523l.009-.011c-.224.183,0,.5-.193.687v0c-.125.138-.073.308-.091.466a.091.091,0,0,0-.077.061l0-.01c-.161.157-.043.392-.167.559a.136.136,0,0,1-.022.129c-.143.149-.012.378-.159.526l0-.009c-.2.194.008.5-.179.692l0,0c-.158.145-.025.379-.17.527l.007-.01a.381.381,0,0,0-.042.464c-.046.078-.085.161-.136.236h.008a1,1,0,0,1-.17.688,1.235,1.235,0,0,1-.189.849c-.183.2.012.5-.168.7l0-.008c-.162.187-.066.418-.093.627,0,.029-.01.055-.012.083l-.052.028a.13.13,0,0,1-.021.122l.008.244c-.025.092-.052.183-.072.277a1.532,1.532,0,0,0-.019.309.084.084,0,0,0-.075.082.1.1,0,0,1-.008.119,26.293,26.293,0,0,0,.01,2.737l-.01,0c.088.1.064.254.175.34A.209.209,0,0,0-171.788,223.424Z" transform="translate(6.525 2.325)" fill="#fefefe"/>
      <path id="Path_55" data-name="Path 55" d="M-172.13,221.7l-.007-.012-.006,0Z" transform="translate(6.545 4.048)" fill="#fefefe"/>
      <path id="Path_56" data-name="Path 56" d="M-175.13,202.7l0,0,.01.008Z" transform="translate(6.231 2.056)" fill="#fefefe"/>
      <path id="Path_57" data-name="Path 57" d="M-188.339,194.056a.408.408,0,0,1,.01.146,2.133,2.133,0,0,0,.156.2l0,.007a.165.165,0,0,0,.186.022.754.754,0,0,1,.2.452,1.606,1.606,0,0,1,.434.483c.113.148.186.335.372.421h-.007c.02.1.038.2.056.3a.225.225,0,0,1,.162.18l1.715,1.55a.964.964,0,0,1,.528.33l.262.071a.221.221,0,0,0,.227.109.242.242,0,0,0,.14.046c.01.051.022.1.034.148a.424.424,0,0,1,.358.152c.1.017.2.03.3.044.011.048.02.1.031.147a.43.43,0,0,1,.351.158.479.479,0,0,1,.355.16.617.617,0,0,1,.49.209.379.379,0,0,1,.346.168.381.381,0,0,1,.351.164c.108.01.218.024.327.035a1.16,1.16,0,0,1,.029.126,1.389,1.389,0,0,1,.851.352.393.393,0,0,1,.351.165.422.422,0,0,1,.351.161.632.632,0,0,1,.494.2.4.4,0,0,1,.354.159c.108.008.217.014.326.019.012.048.024.092.038.138a.632.632,0,0,1,.487.2.425.425,0,0,1,.364.147.632.632,0,0,1,.5.2.42.42,0,0,1,.366.146.646.646,0,0,1,.5.188c.113,0,.227,0,.34,0,.057.06.115.115.173.173a.42.42,0,0,1,.369.138,1.084,1.084,0,0,1,.662.208.378.378,0,0,1,.354.161.379.379,0,0,1,.332.187l.2.139c.089.019.178.04.269.062.072.1.146.208.22.315a.232.232,0,0,1,.181.165c.06.053.12.106.181.162s.115.115.171.171a.231.231,0,0,1,.161.183c.054.06.107.12.162.182a.425.425,0,0,1,.2.315c.054.063.107.122.159.185l.158.183a1.345,1.345,0,0,1,.559.653l.156.182c.054.063.107.123.161.185l.165.178c.049,0,.1.01.147.018.007.054.011.109.017.164a.223.223,0,0,1,.172.171.232.232,0,0,1,.168.177l.64.537c-.006.033-.014.057-.019.094.4.677,1.018.506,1.616.412a.1.1,0,0,1,.108-.035c.089,0,.124-.05.112-.136-.018-.006-.034-.013-.052-.02.1-.07.229-.106.339-.166h0a.917.917,0,0,0,.194-.091.815.815,0,0,1,.094-.082l.062-.006c0-.017.006-.034.007-.051.06-.021.119-.039.179-.054a.854.854,0,0,0,.164-.1c.023-.023.046-.042.068-.065.046-.041.093-.081.138-.123l.147-.107a.813.813,0,0,0,.234-.149c.069-.106.21-.144.251-.275.07-.08.137-.162.2-.243.064-.011.127-.019.19-.025.254,0,.308.182.347.38h0a.841.841,0,0,0,.535.72c.257.124.527.22.79.338q1.641.738,3.281,1.483l1.4.829.014.011a.407.407,0,0,0,.291.246,8.549,8.549,0,0,0,3.334,2.763,15.5,15.5,0,0,1,1.571.882c1.583,1.033,3.1,2.162,4.623,3.28.415.3.83.61,1.255.9.331.225.473.189.694-.162.1-.168.186-.354.281-.53a10.6,10.6,0,0,1,.844-1.393c.26-.34.265-.374-.014-.65-.738-.717-1.473-1.444-2.246-2.119a14.106,14.106,0,0,0-2.16-1.684,18.816,18.816,0,0,0-5.559-3.781,14.025,14.025,0,0,1-2.192-2.029c-.9-1.035-1.795-2.073-2.679-3.121a6.992,6.992,0,0,1-.509-.787,2.921,2.921,0,0,1-.705-.883.218.218,0,0,1-.16-.179c-.056-.056-.112-.116-.168-.177a.215.215,0,0,1-.177-.164,1.24,1.24,0,0,1-.516-.339l-.454-.053a.107.107,0,0,0-.084-.143.086.086,0,0,1-.117-.018c-.221-.154-.473-.056-.712-.082-.074-.033-.136.03-.2.076l-.21-.023a.223.223,0,0,0-.1-.134l.011,0c-.251-.228-.606.032-.859-.183h0c-.1-.1-.25-.082-.36-.156-.088-.117-.242-.1-.351-.171l.014.012c-.08-.137-.246-.107-.354-.19l.012.008c-.08-.124-.249-.091-.341-.189h0a2.9,2.9,0,0,0-.527-.324c-.078-.13-.247-.1-.347-.187l0,.009c-.034.044-.1.1-.092.127a12.947,12.947,0,0,1,.559,2.757,1.487,1.487,0,0,0,.478.884,10.631,10.631,0,0,0,1.4,1.123,14.092,14.092,0,0,1,1.148.891,1.217,1.217,0,0,1,.331,1.613l-.056-.035a.391.391,0,0,1-.136-.345.336.336,0,0,0-.192-.314c-.15-.134-.3-.27-.451-.4a12.443,12.443,0,0,0-2.956-1.863,1.108,1.108,0,0,0-.7-.337,5.337,5.337,0,0,0-1.548-.372h0a15.541,15.541,0,0,1-3.227-2.032c-.7-.527-1.423-1.029-2.137-1.541a1.986,1.986,0,0,0-.682-.515l-.006-.006a.843.843,0,0,0-.16-.154c-.691-.581-1.332-1.222-2.077-1.738a.2.2,0,0,0-.175-.151l-.013-.012a.322.322,0,0,0-.306-.21l.006.007a.367.367,0,0,1-.179-.172l.007.006a.423.423,0,0,1-.182-.172h0q-.941-.963-1.881-1.927v0a2.149,2.149,0,0,0-.7-.651.871.871,0,0,0-.012-.161l-.192-.149a.438.438,0,0,1-.322-.2c-.065-.049-.129-.1-.193-.147a.444.444,0,0,1-.339-.176.639.639,0,0,1-.5-.189q-.946,0-1.892,0a.17.17,0,0,1-.139.013c-.172.12-.38.046-.564.106-.034.006-.062.017-.094.024a.43.43,0,0,0-.407.021.257.257,0,0,1-.147.022c-.126.194-.508.171-.446.523.065.38-.2.307-.418.316-.143-.14-.307-.165-.41.014a1.268,1.268,0,0,0-.291.665.473.473,0,0,0,.125.393C-188.361,193.733-188.35,193.9-188.339,194.056Z" transform="translate(4.827 0.876)" fill="#fefefe"/>
      <path id="Path_58" data-name="Path 58" d="M-226.551,209.686h0v0Z" transform="translate(0.832 2.788)" fill="#fefefe"/>
      <path id="Path_59" data-name="Path 59" d="M-167.16,211.453c.055-.057.111-.117.167-.178a.222.222,0,0,1,.171-.171.221.221,0,0,1,.173-.17l.017-.16c.052,0,.106-.01.158-.012a.224.224,0,0,1,.181-.16,1.35,1.35,0,0,1,.649-.561l.182-.159.195-.15a.221.221,0,0,1,.18-.16c.1-.114.2-.225.3-.337a.126.126,0,0,0,.013.02.133.133,0,0,0,.192-.052l-.008.013a1.131,1.131,0,0,0,.186-.17l0,0c.091-.1.264-.064.336-.2l-.012.012a.448.448,0,0,0,.19-.172l-.011.01a.22.22,0,0,0,.02-.339h0a1.261,1.261,0,0,0-.188-.162l.011.01c-.088-.119-.248-.094-.355-.177-.131-.165-.372-.025-.507-.182l0,0c-.108-.108-.269-.094-.394-.16a.131.131,0,0,1-.125-.03.433.433,0,0,0-.334-.052c-.006-.033-.011-.065-.019-.1-.111,0-.222-.007-.333-.01a.765.765,0,0,1-.042-.129.644.644,0,0,1-.472-.219c-.056,0-.114,0-.17,0q-.012-.076-.023-.149c-.1-.013-.2-.025-.3-.035-.006-.054-.012-.108-.02-.16a1.64,1.64,0,0,1-.167-.011c0-.052-.006-.106-.007-.16-.052,0-.1,0-.155-.009,0-.055-.006-.112-.012-.167a.7.7,0,0,0-.152-.021c-.016-.1-.031-.2-.046-.3a.431.431,0,0,1-.17-.344,1.1,1.1,0,0,1-.143-.041c-.009-.1-.018-.2-.026-.309a.394.394,0,0,1-.158-.356.614.614,0,0,1-.191-.5.406.406,0,0,1-.157-.352c-.038-.008-.075-.013-.112-.019a.269.269,0,0,0-.08-.323l.014.012a.428.428,0,0,0-.179-.178c-.127-.171-.372-.031-.506-.183l.006,0c-.141-.161-.379-.025-.525-.171l.008,0c-.154-.165-.393-.044-.56-.168a.135.135,0,0,1-.127-.018c-.139-.118-.307-.07-.465-.082,0-.036-.025-.065-.078-.078a.225.225,0,0,1-.15-.029c-.15-.123-.373,0-.515-.149h0c-.151-.155-.388-.032-.545-.166a.229.229,0,0,1-.146-.017c-.146-.141-.375-.015-.522-.159-.14-.159-.376-.029-.52-.17l.009.007a.287.287,0,0,0-.337-.065.665.665,0,0,0-.033.06c-.106-.061-.212-.118-.319-.178a.882.882,0,0,0-.995.365.659.659,0,0,1-.2.494.633.633,0,0,1-.174.518.672.672,0,0,1-.158.525.935.935,0,0,1-.178.685.948.948,0,0,1-.177.683.944.944,0,0,1-.157.7c-.01.165-.019.333-.028.5-.056.059-.11.117-.166.176a.655.655,0,0,1-.148.533c-.012.187-.014.378-.195.5a.221.221,0,0,1-.157.187c-.009.05-.016.1-.021.155v.01l-.018-.031a.242.242,0,0,0-.325.022.2.2,0,0,1-.145.012c-.151.15-.359.118-.541.17a.36.36,0,0,0-.139-.092,10.908,10.908,0,0,1-1.965-.078c-.1,0-.207-.01-.309-.012-.263-.2-.608.029-.87-.166l.007.006c-.153-.166-.391-.044-.555-.169a.186.186,0,0,1-.132-.017c-.109-.1-.267-.083-.388-.156a.162.162,0,0,1-.128-.015c-.091-.1-.255-.061-.34-.175l0,0c-.063-.052-.117-.113-.181-.165l0,0a.783.783,0,0,0-.185-.172l.009.012c-.076-.12-.25-.081-.33-.195l-.006,0c-.065-.05-.117-.115-.187-.159l.009.011c-.083-.118-.251-.083-.339-.19h0a1.248,1.248,0,0,0-.187-.162l.009.01c-.084-.119-.249-.086-.344-.188l0,.006c-.088-.109-.253-.072-.341-.18h0a1.2,1.2,0,0,0-.189-.161l.009.011c-.087-.117-.206-.1-.328-.074l-.011.025-.025-.115a.441.441,0,0,1-.332-.181.4.4,0,0,1-.339-.177.393.393,0,0,1-.34-.18.369.369,0,0,1-.338-.179l-.208-.131a.457.457,0,0,1-.326-.192.4.4,0,0,1-.327-.193.4.4,0,0,1-.341-.176c-.064-.049-.13-.1-.2-.143-.1-.018-.2-.038-.3-.051a.4.4,0,0,1-.041-.133.771.771,0,0,1-.517-.346l-.2-.138a.422.422,0,0,1-.3-.219.22.22,0,0,1-.2-.146c-.1-.019-.2-.04-.292-.06v0a.219.219,0,0,0-.192-.162.622.622,0,0,1-.025-.138.2.2,0,0,1-.193-.144,8.537,8.537,0,0,1-1.469-1.265c-.025-.1-.051-.2-.075-.3a.218.218,0,0,1-.164-.177.237.237,0,0,1-.164-.182.225.225,0,0,1-.164-.18q-.489-.447-.98-.891h0l-.735-.836a.228.228,0,0,1-.178-.166c-.061-.053-.122-.108-.181-.161a.227.227,0,0,1-.182-.165c-.061-.052-.12-.106-.181-.158a.89.89,0,0,1-.48-.386c-.06-.052-.12-.107-.181-.164-.036,0-.073,0-.108-.007a.208.208,0,0,0-.076-.164l.012.009a.47.47,0,0,0-.191-.175l.012.018c-.066-.116-.176-.113-.286-.1-.013.009-.011.027-.021.036V197.3c-.009-.044-.015-.09-.023-.133a.224.224,0,0,1-.2-.144.434.434,0,0,1-.317-.2l-.194-.146a.391.391,0,0,1-.326-.2c-.071-.04-.141-.082-.211-.124-.083-.014-.165-.03-.246-.043a.161.161,0,0,0-.082-.161l.017.006c-.1-.13-.263-.106-.388-.176a.132.132,0,0,1-.127-.035.563.563,0,0,0-.309-.071c-.008-.029,0-.063-.031-.083-.157-.145-.39-.033-.552-.16a.145.145,0,0,1-.136-.013c-.2-.178-.494.011-.7-.162l.009.006c-.376-.25-.832.045-1.213-.18l.009.006a6.382,6.382,0,0,0-2.41-.006.147.147,0,0,1-.134.008.126.126,0,0,0-.055.13h-.02c-.1.012-.2.028-.307.041a.562.562,0,0,0-.527.145l0-.006a.234.234,0,0,0-.138-.039c-.08-.139-.16-.278-.24-.417-.054-.059-.109-.115-.164-.176s-.112-.116-.167-.176-.117-.113-.175-.169-.113-.118-.167-.179-.119-.1-.178-.159l-.45-.235h0a.477.477,0,0,0-.021-.157.863.863,0,0,0-.169,0,1.5,1.5,0,0,0-.014-.158,1.2,1.2,0,0,0-.167,0,.487.487,0,0,1-.043-.136.417.417,0,0,1-.308-.209.413.413,0,0,1-.336-.181l-.306-.018c-.019-.044-.038-.093-.053-.138a22.8,22.8,0,0,0-3.409.007c-.01.024-.023.048-.035.072-.022,0-.042-.014-.065-.017-.2.042-.423-.056-.606.1h.006c-.2.189-.5-.03-.691.189l.012-.01c-.107.083-.257.06-.36.151a.082.082,0,0,1-.106.033c-.136.055-.3.041-.406.171l.013-.009c-.108.082-.272.056-.357.182l.012-.01c-.107.082-.273.052-.355.186l.017-.017a1.12,1.12,0,0,0-.2.151l-.008.006c-.077.114-.246.077-.322.2l.01-.009-.012.01a.964.964,0,0,0-.182.151h0a.421.421,0,0,0-.2.308c-.029.01-.059.021-.088.03l-.009.007-.17.053c-.059.053-.116.1-.176.156v.012c-.02.01-.036.023-.056.032a.283.283,0,0,0-.141.125l.013-.019a.306.306,0,0,0-.182.192l.02-.017c-.187.117-.229.349-.389.486l-.006.01c-.044.066-.109.119-.156.187l.006-.008a.453.453,0,0,0-.155.189c0,.006-.008.007-.01.012l.006-.006c-.122.076-.1.236-.189.327l0-.007a2.164,2.164,0,0,0-.327.533c-.134.077-.108.239-.181.348l.011-.015c-.143.1-.125.272-.18.409a.069.069,0,0,1-.029.1c-.1.1-.073.25-.15.357-.168.129-.036.367-.179.506-.244.5.049,1.061-.169,1.562l.01-.014c-.207.3-.069.639-.1.958a.342.342,0,0,0,.084.038l-.023.038c-.178.262-.075.628-.32.864a.545.545,0,0,1-.17.519.663.663,0,0,1-.158.528.327.327,0,0,1-.157.359.455.455,0,0,1-.169.344,1.323,1.323,0,0,1-.875,1.063c-.235.1-.471.2-.7.3-.069.158-.211.157-.353.165a.333.333,0,0,1-.338.178l-.361.2a1.044,1.044,0,0,0-.166-.042.327.327,0,0,0-.032.141h0c0,.007-.012.009-.017.017,0-.01,0-.014,0-.023a.456.456,0,0,0-.472.03.083.083,0,0,1-.116.023c-.172.115-.414,0-.57.171l.011-.008c-.15.14-.385.01-.53.16a.07.07,0,0,1-.107.022,1.6,1.6,0,0,0-.408.143.086.086,0,0,1-.115.03c-.13.057-.287.05-.4.147a.064.064,0,0,1-.1.027c-.14.053-.3.045-.413.169l.011-.009c-.1.084-.259.065-.351.17-.1.086-.252.068-.334.182a1.694,1.694,0,0,0-.523.356l.014-.016a.377.377,0,0,0-.189.181l.012-.014a.414.414,0,0,0-.182.189l.014-.013a.344.344,0,0,0-.185.189l.015-.015a.276.276,0,0,0-.178.2l.023-.018c-.116.036-.128.136-.139.235-.006.025-.028.041-.039.064-.015.006-.033.009-.049.016,0,.024,0,.05,0,.074-.021.029-.032.065-.056.093a1.02,1.02,0,0,0-.1.013.231.231,0,0,1-.14.2.432.432,0,0,1-.206.317l-.135.2a.443.443,0,0,1-.192.326.429.429,0,0,1-.173.343c.009.129-.035.286.156.334a.226.226,0,0,1,.172-.172.226.226,0,0,1,.174-.17.754.754,0,0,1,.474-.387c.008-.034.012-.069.018-.1a.4.4,0,0,0,.084-.042l.106.008a.568.568,0,0,0,.014-.075l.113-.067c.021-.009.043-.015.063-.024l.145-.018.011-.04c.023-.008.044-.018.066-.024a.415.415,0,0,0,.28-.093l.048-.035.059.014a.678.678,0,0,1,.6,0l-.011-.01c.074.116.2.1.315.13a.3.3,0,0,0,.031,0l.009.052a.2.2,0,0,1,.163.18A.743.743,0,0,1-225,210.77a.2.2,0,0,1-.16.182.207.207,0,0,1-.186.159.362.362,0,0,1-.337.182.642.642,0,0,0-.032.144h0v0c-.023-.013-.034-.042-.061-.052-.2.006-.418-.082-.6.085l.008-.007c-.385.219-.84-.067-1.221.173a.068.068,0,0,1-.1.01c-.228.14-.523-.021-.741.162-.2.181-.507-.041-.693.189l.021-.007c-.031.021-.061.041-.092.064l.016.056a.377.377,0,0,0-.456.048c-.107.076-.256.055-.355.151a.069.069,0,0,1-.1.027c-.139.057-.309.039-.409.182l.014-.013c-.112.076-.278.045-.357.185l.015-.009a2.417,2.417,0,0,0-.539.331l.006,0c-.088.091-.248.067-.32.186v0l0,0a.388.388,0,0,0-.2.168l.011-.012a1.687,1.687,0,0,0-.19.162h0a3.417,3.417,0,0,0-.862.858l-.006,0c-.048.067-.113.12-.155.19a.355.355,0,0,0-.158.189c-.122.066-.092.232-.2.308v0a.862.862,0,0,0-.156.2l.015-.013c-.131.064-.086.246-.206.319l-.008.01c-.042.071-.111.123-.15.2l.012-.011a.374.374,0,0,0-.11.143l-.022.034-.042.006c0,.017.007.031.007.046a1.055,1.055,0,0,0-.1.144c-.009.042-.014.083-.021.125-.027,0-.053,0-.08.01,0,.113,0,.225,0,.34-.056,0-.113,0-.169,0,.056.055.112.11.168.168,0-.054.008-.108.009-.162h.174a.19.19,0,0,0,0-.126.288.288,0,0,0,.17,0c.035-.024.076-.038.114-.06l.051.006.007-.035a.422.422,0,0,1,.085-.045c.1-.009.192-.023.24-.127l-.012.014c.117-.067.28-.042.364-.178l-.014.011c.113-.074.265-.053.361-.162.147-.144.376-.013.522-.158l.063-.032.071.013a1.878,1.878,0,0,1,1.125,0l.062-.019.056.03c.2.19.5,0,.707.166l-.011-.009c.192.218.5.008.7.181l-.01-.007c.215.2.519.025.748.171l.055-.021.051.033a6.419,6.419,0,0,0,2.417,0l.055-.031.057.022a.109.109,0,0,0,.083-.062l.091-.009c.361-.044.739.1,1.09-.088l.049-.034.057.019c.1,0,.119-.047.071-.13.023-.025.042-.051.064-.076.015.046.041.09.053.137.242-.038.513.1.731-.108l-.015.01c.15-.127.383,0,.52-.169.108-.081.262-.057.355-.167.1-.089.263-.062.344-.186l-.013.013a.988.988,0,0,0,.192-.16l0,0a1.567,1.567,0,0,0,.514-.518v0a.618.618,0,0,0,.154-.2l0,0h0c.116-.081.1-.225.161-.334.192-.117.039-.373.2-.5l0,0c.1-.1.085-.253.162-.362l-.011.013c.193-.124.038-.376.195-.516a1.136,1.136,0,0,0,.152-.406.082.082,0,0,1,.032-.107c.094-.094.06-.25.16-.343a.526.526,0,0,0,.147-.192.36.36,0,0,0,.189-.177l-.017.008a.118.118,0,0,0,.05-.138c.1.086.24.065.34.14a.537.537,0,0,0,.162.179,1.553,1.553,0,0,1,.006,1.06l.008-.011c-.123.09-.1.244-.165.362-.13.076-.112.229-.172.341-.131.072-.1.239-.192.333l0,0a.432.432,0,0,0-.161.2l0,0h0c-.116.066-.088.231-.2.3l-.006.007a1.759,1.759,0,0,1-.157.181.761.761,0,0,0-.168.185l.01-.01a.512.512,0,0,0-.18.187l.013-.012a.431.431,0,0,0-.185.185l.013-.012a.433.433,0,0,0-.187.183l.012-.011a.482.482,0,0,0-.187.181l.011-.011a.631.631,0,0,0-.187.172l.005,0a7.616,7.616,0,0,0-.692.527l.009-.009c-.1.088-.256.063-.329.188a.429.429,0,0,0-.2.161l.013-.008c.527.515,1.129.2,1.707.157l.052-.03.059.019c.175-.111.41-.006.572-.161l-.006,0c.136-.156.386-.006.511-.189.106-.067.255-.053.333-.172l0,.006s.007-.008.012-.01a.645.645,0,0,0,.189-.147h0c.151-.14.367-.2.487-.377.178-.118.228-.337.379-.476l0-.007a1.248,1.248,0,0,0,.154-.2l-.013.014c.128-.083.1-.246.185-.351l-.008.01c.12-.09.1-.244.167-.359.185-.116.031-.371.2-.5h0c.1-.1.066-.252.169-.346a.289.289,0,0,0,.056-.325.186.186,0,0,0,.118-.174.135.135,0,0,0,.159-.035l-.006.01a.593.593,0,0,0,.17-.174.993.993,0,0,0,.19-.161h0c.082-.1.246-.075.315-.2a.346.346,0,0,0,.183-.159h0l.007-.007a.678.678,0,0,0,.181-.165l0,0a1.182,1.182,0,0,0,.5-.5.835.835,0,0,1,.029-.1l.338-.252a.223.223,0,0,1,.164-.182.227.227,0,0,1,.159-.183c.051-.064.1-.128.148-.19a.416.416,0,0,1,.221-.3.229.229,0,0,1,.144-.2.841.841,0,0,1,.34-.517.867.867,0,0,1,.354-.51.4.4,0,0,1,.193-.326c.01-.1.02-.208.031-.313a.614.614,0,0,0,.14-.032c.006-.111.012-.222.018-.331h0v-.009a.215.215,0,0,0,.143-.024l0,.014c.17-.136.044-.368.17-.519.2-.21.02-.514.172-.736a.086.086,0,0,1,.011-.117,1.454,1.454,0,0,0,.019-1.031c-.012-.1-.021-.192-.032-.29a.1.1,0,0,0-.135-.1.127.127,0,0,0-.013-.129l-.077-.07a.929.929,0,0,0,.157-.082c-.043-.35.091-.716-.086-1.054,0-.1-.01-.2-.013-.3a2.557,2.557,0,0,1,0-1.307.075.075,0,0,1,0-.113c.225-.263-.013-.617.174-.885l-.011.013c.149-.116.1-.272.092-.423a.389.389,0,0,0-.077-.05l.025-.023v.006c.046-.013.092-.028.136-.042A.452.452,0,0,1-213,200.4a.437.437,0,0,1,.188-.329.4.4,0,0,1,.2-.323.225.225,0,0,1,.141-.2.866.866,0,0,1,.368-.5.221.221,0,0,1,.148-.193c.083-.156.165-.312.248-.469.045,0,.089-.01.135-.013a.224.224,0,0,1,.153-.189c0-.035.007-.07.011-.1a.172.172,0,0,0,.172-.07l-.009.011a.629.629,0,0,0,.18-.182l-.01.011a.552.552,0,0,0,.181-.187l-.012.011a.491.491,0,0,0,.185-.183l-.011.011a.564.564,0,0,0,.186-.179l-.01.008a.8.8,0,0,0,.186-.17h0a2.62,2.62,0,0,0,.5-.369l-.01.011a6.624,6.624,0,0,1,1.056-.5l.054-.03.061.008c.091-.007.12-.055.1-.138.3,0,.593-.017.89-.009a.872.872,0,0,1,.625.156c.1.006.2.013.305.022l-.162.3h0l-.621.424a3.861,3.861,0,0,1-.74.982.238.238,0,0,1-.12.215l-.2.652c-.059.061-.116.119-.173.18q-.023.162-.046.322a.361.361,0,0,0-.128.023c-.011.165-.02.332-.03.5h0l0,.033a.2.2,0,0,0-.146-.006l0-.015c-.172.141-.04.379-.172.534l.011-.015c-.229.188-.008.5-.19.7l.007-.011c-.206.2-.007.5-.175.705l.01-.014c-.257.315.025.723-.185,1.044l.01-.011c-.267.511.036,1.081-.177,1.6a.078.078,0,0,1,0,.115c-.253.5.051,1.061-.178,1.564l.005-.007c-.179.225-.06.491-.1.736.006.035.025.061.032.1-.039.008-.075.019-.114.03,0,.1,0,.2-.007.3l0,0c-.093-.021-.141.013-.141.112a.079.079,0,0,1-.036.1c-.091.1-.053.253-.162.341h0a.56.56,0,0,0-.149.2c-.122.076-.1.233-.182.333l.009-.012c-.123.077-.083.249-.194.333l0,0a.859.859,0,0,0-.151.2l0,0h0c-.112.075-.083.236-.19.314l0,.006a1.57,1.57,0,0,0-.158.192l.011-.011a.352.352,0,0,0-.17.2l.02-.014c-.139.066-.123.187-.1.306-.04,0-.077.007-.117.013a.215.215,0,0,1-.159.186.211.211,0,0,1-.161.182.222.222,0,0,1-.161.183.212.212,0,0,1-.165.176,1.536,1.536,0,0,1-.031.164c-.049,0-.1.008-.144.013a.233.233,0,0,1-.171.171l-.178.168-.18.162a.222.222,0,0,1-.183.16c0,.025-.011.051-.015.076a.672.672,0,0,0-.171.073l-.01.006c-.071.113-.235.082-.306.194-.083.028-.133.1-.2.147l-.007,0c-.083.115-.245.076-.334.179s-.248.067-.344.16a.083.083,0,0,1-.116.028c-.694.084-.441.622-.487,1.017a1.123,1.123,0,0,0,.049.271,1.939,1.939,0,0,0-.044.735c-.007,1.917.01,3.833-.009,5.746a15.9,15.9,0,0,1-.071,2.733l.009-.014c-.215.2-.013.5-.176.707-.168.156-.064.392-.168.57a.062.062,0,0,1-.024.1c-.1.1-.077.258-.152.368l.01-.013c-.12.081-.108.207-.118.325,0,.009.013.014.018.023l-.068.017a.423.423,0,0,1-.175.338.382.382,0,0,1-.2.322.233.233,0,0,1-.139.2c-.03.1-.059.19-.087.284a.2.2,0,0,0-.131.186l-.159.02a.211.211,0,0,1-.168.176.213.213,0,0,1-.171.172.212.212,0,0,1-.177.167.788.788,0,0,1-.472.4l-.188.147c-.109.307.225.31.326.473a2.752,2.752,0,0,1,1.054.491.433.433,0,0,1,.347.169l.308.044a.461.461,0,0,1,.041.129l.306.043c.011.045.021.093.032.137.1.015.2.03.307.043l0,0,.011,0a.211.211,0,0,0,.022.149l-.019-.007c.08.131.246.1.35.187l-.01-.007c.615.266.308-.365.5-.513l-.008.011c.235-.251-.018-.608.185-.869l-.007.01c.192-.223.025-.524.166-.756a.061.061,0,0,1,.014-.1c.193-.2-.011-.5.171-.7l0,.007c.2-.2-.006-.494.176-.7l0,.008c.156-.167.059-.4.159-.585a.067.067,0,0,1,.021-.1c.15-.145.03-.371.158-.526.166-.161.061-.4.166-.579a.064.064,0,0,1,.022-.1c.151-.146.015-.382.167-.528l0,.008c.16-.143.036-.373.166-.524.168-.138.042-.372.172-.52.171-.126.024-.375.186-.5h0c.1-.1.085-.246.154-.359.148-.135.108-.293.065-.451a.328.328,0,0,0,.122-.059c.1-.094.082-.248.169-.348l-.006.009c.116-.088.084-.253.181-.35l0,.006c.108-.087.074-.25.181-.339h0c.145-.151.027-.38.158-.534l-.009.013c.242-.253-.014-.61.186-.871l-.007.01c.241-.316-.031-.722.179-1.044l-.009.012c.227-.26-.009-.61.173-.878l-.012.014c.156-.28.152-.622.343-.887l-.012.01a3.82,3.82,0,0,1,.386-.319l.059-.035.064.017a8.651,8.651,0,0,1,1.765-.071,19.492,19.492,0,0,0,3.1-.1c.083-.044.17-.08.253-.124.14-.011.263.088.406.055.352-.051.727.109,1.066-.1l-.018.006c.043-.027.054-.075.074-.118a1.623,1.623,0,0,0,.98-.042l.054-.034.062.015c.091-.03.194-.041.227-.155v-.006a.432.432,0,0,0,.059.082c.155,0,.317.046.448-.081.145-.146.383-.009.524-.175.147-.139.377-.012.519-.164l.056-.032.061.015a8.469,8.469,0,0,1,2.479.008l-.008,0c.093.116.251.094.361.17l-.011-.011a.227.227,0,0,0,.316.073h0c.06.052.119.1.178.16.076.292.359.487.381.806a.316.316,0,0,1,.19.33.905.905,0,0,1,.333.526.757.757,0,0,1,.324.531.573.573,0,0,1,.123.024c.022.1.044.2.066.3.049.01.1.02.148.025h0c0,.059-.007.117-.01.178a.562.562,0,0,0,.154.046l.066.256a.2.2,0,0,1,.135.2c.043.007.086.015.127.023h0l.073.3a.222.222,0,0,1,.141.2.375.375,0,0,1,.214.307.222.222,0,0,1,.14.2.8.8,0,0,1,.357.506.217.217,0,0,1,.145.2.392.392,0,0,1,.22.3.214.214,0,0,1,.148.191.914.914,0,0,1,.369.5.224.224,0,0,1,.141.2.212.212,0,0,1,.158.186.857.857,0,0,1,.375.491.217.217,0,0,1,.15.192.916.916,0,0,1,.389.477.226.226,0,0,1,.149.189.222.222,0,0,1,.158.185.66.66,0,0,1,.14.029,1.341,1.341,0,0,0,.01.164,1.426,1.426,0,0,1,.562.651l.161.178.167.178a.236.236,0,0,1,.17.175.225.225,0,0,1,.165.18.216.216,0,0,1,.169.172.774.774,0,0,1,.141.025c0,.054.009.112.015.165a1.187,1.187,0,0,0,.166.008l-.006,0,.01,0a.226.226,0,0,0,0,.161h0c.065.05.115.114.174.168s.115.116.175.172v0a1.765,1.765,0,0,0,.179.172l-.006,0a.848.848,0,0,0,.182.174l-.008-.007a.686.686,0,0,0,.181.18l-.009-.01a.513.513,0,0,0,.183.124c0,.015,0,.031,0,.046.06.051.12.1.18.154a.437.437,0,0,1,.313.21c.062.054.124.106.185.16l.189.151a.42.42,0,0,1,.319.2q.066,0,.133-.007a.983.983,0,0,0,.4.343l-.01-.006c.08.12.251.082.337.191h0a1.552,1.552,0,0,0,.189.161l-.01-.012c.078.124.25.084.333.2l.006,0a1.592,1.592,0,0,0,.189.156l-.01-.01c.083.123.248.092.346.185a3.977,3.977,0,0,0,.524.34l-.01-.006c.085.118.25.088.35.181l-.008,0c.088.112.251.081.347.179l0,0c.089.107.252.074.344.179h0c.1.1.254.073.351.169l0-.006c.1.113.264.094.386.165l.066,0,.063.023c.158.143.39.029.554.155l.067-.009.065.021a3.568,3.568,0,0,0,1.724,0l.067-.021.069.01a.806.806,0,0,1,.734.007l-.006-.007a.282.282,0,0,0,.323.06c.006.042.012.083.018.125l.2.14a.409.409,0,0,1,.325.192.435.435,0,0,1,.332.187c.063.053.128.1.191.152a.4.4,0,0,1,.329.189l.2.139a.427.427,0,0,1,.315.208l.192.148a.388.388,0,0,1,.327.195c.063.051.126.1.189.151a.685.685,0,0,1,.507.356c.064.05.129.1.194.147a.74.74,0,0,1,.5.364c.062.051.124.1.187.155.1.027.194.059.292.087h0c.065.1.13.193.194.291a.234.234,0,0,1,.194.15l.187.152a.786.786,0,0,1,.478.389.227.227,0,0,1,.185.158.232.232,0,0,1,.185.161l.181.162c.057.057.116.114.173.169s.118.113.176.17.112.116.165.173c.05.008.1.016.148.021a1.619,1.619,0,0,1,.013.167,1.387,1.387,0,0,1,.138.022l.007.007c-.108.176-.1.423-.329.524l.007-.007c-.141.155-.392-.018-.522.175l0,0c-.265.194-.61-.035-.873.165a.146.146,0,0,1-.135.014c-.088.014-.1.059-.051.129l.007.013a.808.808,0,0,0-.215-.068,4.362,4.362,0,0,0-1.328.084c-.16,0-.32.008-.481.013a22.307,22.307,0,0,1-2.888.074.521.521,0,0,0-.255.075c-.087-.1-.243-.061-.336-.155-.141-.162-.378-.03-.524-.17-.129-.166-.375-.019-.5-.183h0c-.1-.1-.253-.067-.345-.171h0a.719.719,0,0,0-.193-.158l.012.011c-.078-.13-.248-.1-.348-.187l.008.007c-.081-.118-.25-.08-.331-.191l-.006,0c-.065-.049-.118-.112-.185-.161l.007.008a.553.553,0,0,0-.189-.172l.013.011c-.081-.128-.251-.09-.346-.188l.006,0a.1.1,0,0,0-.155,0,.292.292,0,0,0-.071.137.09.09,0,0,0-.109.04l.009-.013c-.291.155.219.959-.572.7a.177.177,0,0,1-.135-.029.585.585,0,0,0-.224-.143.139.139,0,0,1-.12-.029c-.5.287-.206.686-.156,1.051a.144.144,0,0,1,0,.129c.191.336-.048.738.158,1.071a.181.181,0,0,1,.01.134.528.528,0,0,0,.169.193,3.98,3.98,0,0,0,1.874.013,1.12,1.12,0,0,0,.138.085,7.361,7.361,0,0,1,1.634.077l.068-.014.064.022c.232.167.5.057.745.089a.661.661,0,0,1,.124.013c.008.02.016.041.024.062l.073,0,.071.02a.416.416,0,0,0,.43.023l.006,0a.237.237,0,0,0,.218-.014.113.113,0,0,0,.071.144l.072,0,.065.022c.157.141.386.022.543.158l.076,0,.071.022c.2.169.492-.02.692.16h0c.155.154.39.039.556.162l.068-.006.063.025c.149.144.38.015.528.16l-.01-.008c.191.208.5-.007.689.187v0c.144.151.378.023.527.166l-.01-.008c.154.171.395.051.562.171l.063-.006.061.024a.476.476,0,0,0,.459.048.647.647,0,0,0-.014-.091.25.25,0,0,1,.049.066l0,0a.9.9,0,0,0,.023.139l.182,0c.033.016.064.038.1.053.083.038.168.07.249.114l-.013-.006c.189.217.5,0,.693.188l-.006,0c.143.16.378.03.528.17l-.01-.008a.287.287,0,0,0,.333.07.478.478,0,0,0,.028-.072c.049.013.1.025.144.041a.844.844,0,0,0,.022.137.667.667,0,0,1,.518.165l.328.022c.018-.046.034-.093.051-.14l.273-.055a.23.23,0,0,1,.189-.154.226.226,0,0,1,.175-.169l.16-.185a.225.225,0,0,1,.164-.178c0-.056.009-.114.012-.17.048,0,.1-.012.143-.021a.821.821,0,0,1,.388-.475l.155-.186c0-.06,0-.116.008-.172.046-.009.093-.017.139-.028a.415.415,0,0,1,.208-.307c.048-.07.094-.135.139-.2.021-.1.043-.195.064-.294.044-.01.091-.021.135-.029,0-.278,0-.561,0-.841a.7.7,0,0,1-.17-.517.64.64,0,0,1-.189-.5l-.175-.2c.01-.059.021-.113.032-.172a.928.928,0,0,0-.145-.025c-.021-.156-.042-.308-.061-.464a.439.439,0,0,1-.165-.349.422.422,0,0,1-.16-.356.39.39,0,0,1-.172-.344.386.386,0,0,1-.157-.354.415.415,0,0,1-.17-.348.375.375,0,0,1-.177-.341.378.378,0,0,1-.171-.341.4.4,0,0,1-.171-.348.4.4,0,0,1-.185-.33c-.049-.011-.1-.02-.149-.027h0c-.009-.107-.018-.212-.025-.32a.4.4,0,0,1-.182-.335.451.451,0,0,1-.182-.339.487.487,0,0,1-.176-.343c-.423-.477-.577-1.116-.97-1.613h0a4.932,4.932,0,0,0-.475-1.007,1.417,1.417,0,0,1-.213-.573c.833,0,1.147-.74,1.681-1.164l-.01.013a.4.4,0,0,0,.186-.18l-.011.011a.452.452,0,0,0,.185-.182l-.011.01a.53.53,0,0,0,.186-.178l-.009.01a.619.619,0,0,0,.182-.181l-.011.008a.444.444,0,0,0,.117-.169l.063-.006.168-.176.17-.172.169-.177.173-.169.168-.173c0-.02,0-.04,0-.059a.277.277,0,0,0,.175-.127l-.01.021c.13-.067.086-.246.2-.323l.007-.01a.6.6,0,0,0,.141-.236.1.1,0,0,1,.024-.112.775.775,0,0,0,.027-.645c.046-.018.1-.028.125-.081a.13.13,0,0,1,.015-.134c.214-.459-.041-.967.154-1.43,0-.1.008-.191.009-.286.178-.294.074-.617.089-.926a31.426,31.426,0,0,1,.076-3.258c0-.1,0-.194,0-.292a5.2,5.2,0,0,0,.1-1.537l-.02-.164c.032-.012.063-.025.1-.036a.543.543,0,0,1,.179-.51.382.382,0,0,1,.178-.339l.129-.21a.417.417,0,0,1,.213-.308c.048-.066.1-.132.144-.2s.1-.124.152-.185a.746.746,0,0,1,.394-.472.238.238,0,0,1,.17-.178A.22.22,0,0,1-167.16,211.453Z" transform="translate(0 1.036)" fill="#fefefe"/>
      <path id="Path_60" data-name="Path 60" d="M-169.879,196.514a.4.4,0,0,1,.161-.357c.008-.221.017-.446.027-.672a.453.453,0,0,1-.2-.311c-.05-.009-.1-.015-.149-.02l-.007-.01a1.027,1.027,0,0,0-.006-.155.894.894,0,0,0-.155-.012l0-.007a1.091,1.091,0,0,0-.009-.159l-.156-.012h0a1.01,1.01,0,0,1-.028-.151.213.213,0,0,1-.178-.162c-.061-.052-.119-.1-.18-.159a.918.918,0,0,1-.475-.392,1.241,1.241,0,0,1-.143-.011c-.011-.054-.022-.1-.032-.158a1.2,1.2,0,0,0-.167,0h0c-.007-.051-.012-.1-.02-.154a1.513,1.513,0,0,0-.158-.008l-.006,0a1.335,1.335,0,0,0-.011-.161.213.213,0,0,1-.169-.173.219.219,0,0,1-.155-.188.384.384,0,0,1-.194-.326c-.1-.048-.191-.092-.285-.138l-.071.234-.148.055c0,.061.006.119.009.178h0c-.046.012-.091.025-.136.036-.013.1-.025.2-.036.308h0a1.086,1.086,0,0,0-.146.025.563.563,0,0,0,.022.146l-.054.165c-.049.009-.1.015-.145.029a.658.658,0,0,0,.025.148c-.023.055-.045.111-.067.168-.046.006-.092.011-.137.019a.4.4,0,0,1-.179.34.379.379,0,0,1-.181.337.23.23,0,0,1-.132.206.394.394,0,0,1-.2.317.23.23,0,0,1-.155.192.229.229,0,0,1-.168.177.224.224,0,0,1-.189.154.608.608,0,0,1-.025.118.316.316,0,0,0-.33.029.18.18,0,0,1-.14.028c-.8.429-.937.255-.246,1.186a.735.735,0,0,0,.4.312l.021.019a.8.8,0,0,0,.472.374l.008-.008c.4.4.807.8,1.21,1.2a.229.229,0,0,0,.167.177,2.756,2.756,0,0,0,1,.9,3.628,3.628,0,0,0,1.412.568.678.678,0,0,0,.862-.683,2.242,2.242,0,0,0-.164-1.327,1.941,1.941,0,0,0-.139-.657,1.139,1.139,0,0,1,.106-1.051A.619.619,0,0,1-169.879,196.514Z" transform="translate(6.154 0.996)" fill="#fefefe"/>
      <path id="Path_61" data-name="Path 61" d="M-216.969,227.383c0-.219-.008-.442-.014-.663l-.141-.2a.224.224,0,0,1-.17-.173.22.22,0,0,1-.178-.166.226.226,0,0,1-.185-.156.737.737,0,0,0-.164,0,.987.987,0,0,1-.04-.146.4.4,0,0,1-.3-.219.223.223,0,0,1-.2-.138.409.409,0,0,1-.32-.2.222.222,0,0,1-.2-.134l-.444-.19a.276.276,0,0,0-.4.129,1.206,1.206,0,0,1-.15.188.4.4,0,0,1-.143.366.7.7,0,0,1-.179.514.71.71,0,0,1-.166.52.727.727,0,0,1-.17.518.5.5,0,0,1-.115.4.981.981,0,0,0-.227,1.1c.062.051.125.1.186.155s.115.109.172.165a.461.461,0,0,0,.14.01,2.951,2.951,0,0,0,1.53,1.075.315.315,0,0,0,.34.185.505.505,0,0,0,.018.151c.067.045.138.088.206.132a.427.427,0,0,1,.319.2.477.477,0,0,1,.351.158l.057-.015.059.01c.056-.053.114-.109.17-.164a1.278,1.278,0,0,1,.2-.665c.01-.331.02-.663.03-.992v-.022a.123.123,0,0,0,.137-.06c.01-.1.018-.2.025-.3-.008-.4-.015-.8-.025-1.2C-216.969,227.5-216.969,227.441-216.969,227.383Z" transform="translate(1.42 4.393)" fill="#fefefe"/>
      <path id="Path_62" data-name="Path 62" d="M-144.314,215.785c-.044,0-.087,0-.13,0,0-.011.007-.019,0-.03a.587.587,0,0,0-.265-.172c-.032-.013-.064-.024-.1-.039l-.025-.01c-.009-.032-.015-.063-.025-.094a.894.894,0,0,0-.139.029,3.344,3.344,0,0,0-1.313-.585.467.467,0,0,0-.41-.156h0a5.065,5.065,0,0,0-2.2-.533,1.759,1.759,0,0,0-.822.178,1.027,1.027,0,0,0-.649,1.069,2.378,2.378,0,0,0,.533,1.5c.139.176.256.37.382.558a5.649,5.649,0,0,0,1.207,1.2h0a1.229,1.229,0,0,0,.187.169l-.01-.009a.5.5,0,0,0,.186.164.282.282,0,0,0,.189.168c.063.127.229.1.312.2l0,0a.587.587,0,0,0,.19.147c.006,0,.008.008.013.01l-.006,0c.077.12.235.1.331.186l-.009-.009c.088.12.251.092.355.18l-.01-.006a.253.253,0,0,0,.338.059.371.371,0,0,0,.014-.041.662.662,0,0,0,.466-.116c.176-.087.356-.171.533-.256.283-.287.564-.577.845-.866a.769.769,0,0,1,.341-.517.366.366,0,0,1,.168-.346c.019-.148.04-.3.061-.443a.648.648,0,0,0,.144-.049c0-.277-.008-.555-.011-.833Q-143.978,216.132-144.314,215.785Z" transform="translate(8.829 3.262)" fill="#fefefe"/>
    </g>
  </g>
</svg>
