<svg xmlns="http://www.w3.org/2000/svg" width="165.409" height="129.467" viewBox="0 0 165.409 129.467">
  <g id="horoscopes-bg" transform="translate(0)" opacity="0.15">
    <path id="Path_3" data-name="Path 3" d="M-208.467,212.959h0l.017.009Z" transform="translate(326.252 -158.348)" fill="#fefefe"/>
    <path id="Path_4" data-name="Path 4" d="M-214.692,218.109h0l.006.01Z" transform="translate(343.887 -154.07)" fill="#fefefe"/>
    <path id="Path_5" data-name="Path 5" d="M-222.325,210.943h0l0,.008Z" transform="translate(365.493 -160.023)" fill="#fefefe"/>
    <path id="Path_6" data-name="Path 6" d="M-167.008,188.209l0,0-.011.01Z" transform="translate(208.944 -178.906)" fill="#fefefe"/>
    <path id="Path_7" data-name="Path 7" d="M-171.048,189.614l0-.007.009-.018Z" transform="translate(220.343 -177.76)" fill="#fefefe"/>
    <path id="Path_8" data-name="Path 8" d="M-170.688,188.3c.135-.22.408-.172.589-.3l-.027.013a4.821,4.821,0,0,1,2.837-.015l-.016-.011c.331.3.844-.07,1.153.318l-.027-.018c.187.119.441.088.6.264l-.005,0c.161.163.423.112.578.284l0,0c.15.17.432.11.562.318l-.02-.016c.76.447,1.351.97.86,1.962a4.549,4.549,0,0,0-.207.425c.17.324-.037.74.212,1.04l-.013-.009a1.024,1.024,0,0,1,.309.286c.165.145.419.1.578.258a.151.151,0,0,0,.189.044c.212.108.487.077.659.275v0l.044-.016a.627.627,0,0,1,.033-.222.2.2,0,0,0,.167-.009.527.527,0,0,1,.022.22h0l.059.015c.168.009.339.016.507.029a.566.566,0,0,1,0,.229.5.5,0,0,0,.249.088c.1.478-.329.835-.293,1.3a.647.647,0,0,0-.265.577.357.357,0,0,0-.2.051l-.013.009c.022.007.038,0,.062.007a.45.45,0,0,1-.113.547l.013-.02c-.135.157-.1.425-.3.538a.588.588,0,0,1-.267.335c-.2.284-.311.632-.619.831l.033-.027a.508.508,0,0,1-.3.328l.026-.024a.677.677,0,0,1-.3.315l.022-.018a.944.944,0,0,1-.3.309l.015-.022a.7.7,0,0,1-.289.19c0,.031-.009.064-.013.1a.373.373,0,0,0-.293.275c-.1.093-.2.185-.3.275a.369.369,0,0,0-.308.256,1.471,1.471,0,0,0-.815.613,1.469,1.469,0,0,0-.866.558.671.671,0,0,0-.558.3.674.674,0,0,0-.577.275,3.744,3.744,0,0,1-1.649.009.374.374,0,0,0-.3-.264.367.367,0,0,0-.24-.322.739.739,0,0,0-.3-.558,1.12,1.12,0,0,0-.311-.833,1.033,1.033,0,0,0-.3-.84.66.66,0,0,0-.231-.615,1.032,1.032,0,0,0-.337-.816.593.593,0,0,0-.275-.575.634.634,0,0,0-.3-.562c-.013-.117-.024-.234-.037-.351a1.99,1.99,0,0,1-.236-.245l.007.024c-.276-.258-.079-.655-.28-.934a.149.149,0,0,0-.022-.2,3.546,3.546,0,0,1,.024-2.279l-.011.022c.282-.342-.033-.826.276-1.164l0,.007c.256-.234.027-.632.286-.862v0c.264-.211.013-.633.326-.827.1-.183.075-.425.28-.551l-.007.007c0-.009.013-.011.017-.02a.628.628,0,0,1,.258-.313.807.807,0,0,1,.3-.28Z" transform="translate(212.899 -179.25)" fill="#fefefe"/>
    <path id="Path_9" data-name="Path 9" d="M-183.95,245.411c-.007-.013-.026-.009-.035-.02l0,0Z" transform="translate(256.938 -131.414)" fill="#fefefe"/>
    <path id="Path_10" data-name="Path 10" d="M-174.312,183.233h-.007l-.01-.006Z" transform="translate(229.624 -183.045)" fill="#fefefe"/>
    <path id="Path_11" data-name="Path 11" d="M-194.257,230.445l-.01-.01,0-.006Z" transform="translate(286.073 -143.838)" fill="#fefefe"/>
    <path id="Path_12" data-name="Path 12" d="M-195.258,233.342c.331-.427-.059-1,.284-1.433.121-.681.328-1.3,1.142-1.421l-.007,0c.352-.311.842-.011,1.2-.273a.237.237,0,0,0,.216-.011,5.568,5.568,0,0,1,2.865,0,.241.241,0,0,0,.212.007c.267.212.661.013.906.28a1.319,1.319,0,0,1,.284.278.5.5,0,0,1,.1.555c-.015.007-.022.018-.037.026.181.646.364,1.289.546,1.935a.786.786,0,0,1,.249.053,1.638,1.638,0,0,0,.273,1.144c.013.262.027.525.038.787a.205.205,0,0,1,.254.1.5.5,0,0,0,.027.243c.282.351-.024.829.264,1.175a.494.494,0,0,0,.02.253c.291.333-.037.815.275,1.139a.366.366,0,0,1-.013.553.358.358,0,0,1-.553.011l0,0c-.232-.258-.615-.035-.857-.267l-.126-.031-.13,0a.293.293,0,0,1-.128-.249c-.15-.015-.3-.033-.452-.048a2.118,2.118,0,0,0-.046-.214l0-.031c-.051.027-.084.084-.15.092-.086-.033-.168-.075-.253-.11l-.432,0a1,1,0,0,0-.848-.3,1.007,1.007,0,0,0-.835-.311.684.684,0,0,0-.6-.245c-.011-.06-.02-.121-.027-.183a1.274,1.274,0,0,1-.205,0l-.357-.123c-.081,0-.161,0-.242-.007l-.02-.081c-.033-.013-.068-.022-.1-.035a.626.626,0,0,1-.284-.168l-.189.027a.65.65,0,0,0-.571-.287c-.2-.28-.513-.291-.807-.344l-.34-.223c-.011-.046-.026-.092-.038-.135a.776.776,0,0,1-.5-.505.3.3,0,0,0-.027-.225,1.608,1.608,0,0,1,.02-1.421Z" transform="translate(279.96 -144.177)" fill="#fefefe"/>
    <path id="Path_13" data-name="Path 13" d="M-194.1,230.289l-.009-.006-.007-.007Z" transform="translate(285.63 -143.965)" fill="#fefefe"/>
    <path id="Path_14" data-name="Path 14" d="M-183.649,247.751l0,0c-.009-.007-.009-.016-.018-.022Z" transform="translate(256.062 -129.472)" fill="#fefefe"/>
    <path id="Path_15" data-name="Path 15" d="M-184.039,253.981c.328-.661-.106-1.419.269-2.078a.183.183,0,0,0,.015-.2c.256-.366-.039-.859.276-1.212l-.007.011c.253-.225.018-.632.3-.844a.715.715,0,0,1,.3-.293l-.022.026c.132-.221.408-.17.584-.307l-.02.015c.143-.209.408-.163.588-.295.205-.289.615-.042.826-.313l0,0c.168-.161.421-.124.6-.265.222-.269.615-.048.848-.291l-.011.007c.152-.185.416-.145.591-.286l-.018.015a.6.6,0,0,1,.84-.022,1.172,1.172,0,0,1,.273.3c.222.2.13.481.161.732v.007a.167.167,0,0,1,.137.092v-.005c.308.337-.013.82.275,1.161l-.011-.016c.414.639-.057,1.4.291,2.05a.254.254,0,0,0,.007.221c.282.373.1.8.152,1.208a3.3,3.3,0,0,1-.291.176c.042.022.082.029.126.057a.322.322,0,0,1,.006.26c0,.192,0,.379,0,.567a1.5,1.5,0,0,1-.273.024.311.311,0,0,0-.035.245c-.287.092-.536.22-.584.56-.265.207-.663.233-.829.584a.86.86,0,0,0-.557.3.3.3,0,0,0-.326.243c-.26.123-.522.24-.784.361a1.6,1.6,0,0,1-.037.249,1.167,1.167,0,0,0-.855.567c-.178.018-.359.035-.538.051l0,0-.029,0a.368.368,0,0,1,.042.278l-.022.013c-.123.06-.2.181-.32.245l.018-.02c-.124.2-.412.134-.546.322l-.011.011a3.033,3.033,0,0,1-.317.258l.02-.02c-.135.2-.414.143-.564.315-.533.273-.712-.042-.694-.489a22.162,22.162,0,0,1,.148-4.366A.173.173,0,0,0-184.039,253.981Z" transform="translate(250.218 -129.672)" fill="#fefefe"/>
    <path id="Path_16" data-name="Path 16" d="M-183.512,247.575h0l-.007-.008Z" transform="translate(255.651 -129.603)" fill="#fefefe"/>
    <path id="Path_17" data-name="Path 17" d="M-180.72,248.661l-.013.016-.009.009Z" transform="translate(247.769 -128.694)" fill="#fefefe"/>
    <path id="Path_18" data-name="Path 18" d="M-211.066,217.23l-.027.027a.744.744,0,0,1,.273-.324c.146-.156.1-.427.311-.551.1-.194.082-.437.256-.6.317-.434-.053-1,.271-1.43.179-.146.117-.428.319-.558a.762.762,0,0,1,.273-.256c.137-.212.406-.172.591-.295l-.031.015a13.9,13.9,0,0,1,4.846-.024.1.1,0,0,0,.172.009c.368.243.868-.051,1.208.291.19.115.459.073.593.3l-.029-.029a.955.955,0,0,1,.326.271l0,0c.1.086.189.194.291.286l-.006,0c.029,0,.053.031.079.1.018.048-.024.092-.066.134.1.1.187.216.289.313l.009.02a2.225,2.225,0,0,1,.247.331l-.024-.027a5.775,5.775,0,0,1,.608.848l0-.006a.975.975,0,0,1,.269.333l-.027-.029a3.26,3.26,0,0,1,.595.849.6.6,0,0,1,.269.322c.207.108.157.384.33.516l0,0a1.232,1.232,0,0,1,.262.33l-.026-.027a3.38,3.38,0,0,1,.6.873l-.015-.018a4.193,4.193,0,0,1,.588.87l-.015-.016a.615.615,0,0,1,.212.547l-.006.007c.123.1.243.209.368.313a1.128,1.128,0,0,0,.6.827c.009.086.015.172.016.256l.017.013c.081.009.163.016.242.027a.344.344,0,0,0,.284.284.34.34,0,0,0,.295.276l.018.13c.013,0,.017.009.031.011a1.275,1.275,0,0,1,.762.513l-.027-.035a.46.46,0,0,1,.331.277,1.208,1.208,0,0,1,.309.251l0,0c.134.167.412.119.514.331a.532.532,0,0,1,.329.273,1.108,1.108,0,0,1,.535.5c.013.053.053.084.071.132l.485.269.269.282c.033.135.066.269.1.4.02.024.04.048.059.073a1.638,1.638,0,0,1,.189.04l-.009.487c0,.013,0,.027,0,.04l-.011.555a.891.891,0,0,1-.108.031c-.026.055-.046.108-.073.161a.684.684,0,0,1-.062.7.114.114,0,0,0-.04.17c-.009.1-.053.137-.112.152a1.191,1.191,0,0,1-.059.319c-.046.132-.084.265-.126.4v.059l-.02.009c-.022.07-.051.139-.068.21-.031.225.046.481-.17.659-.222.249-.013.637-.275.877l0-.011c-.251.238-.024.635-.284.868l0-.006c-.329.313.068.84-.337,1.131l.022-.029c-.2.265,0,.652-.275.888-.214.247-.013.628-.275.857-.24.242-.022.63-.28.864l.006,0c-.33.311.071.846-.342,1.128l.022-.026c-.194.264,0,.643-.271.879-.218.249-.011.635-.275.877l0-.013c-.317.322.07.846-.328,1.142l.018-.029c-.2.262.007.657-.282.892l.009-.027a.519.519,0,0,1-.194.124.781.781,0,0,1-.064.762.154.154,0,0,0-.037.2c-.192.286-.009.674-.26.943a.112.112,0,0,0-.027.172c-.231.392.044.886-.269,1.263,0,.181,0,.368-.006.553a.611.611,0,0,1,.064.708,1.4,1.4,0,0,0,.243.439v0c.165.148.1.423.295.555l.009.013a3.021,3.021,0,0,1,.234.313.519.519,0,0,1,.267.309.4.4,0,0,1,.295.313l-.04-.033c.491.708-.253.58-.52.778-.211.295-.615.066-.844.3-.148.181-.406.139-.569.291l.009-.007c-.137.187-.414.126-.557.306l-.005,0a.884.884,0,0,1-.335.245c-.121.2-.384.165-.535.309a.605.605,0,0,1-.328.254c-.11.21-.381.167-.525.322l.006-.005a.758.758,0,0,1-.335.269l0-.024c-.194.271-.386.538-.756.238l.044.068a.787.787,0,0,1-.048-1.1l-.016.022c.366-.84-.137-1.774.286-2.6a.108.108,0,0,0,.007-.178c.313-.666-.11-1.433.282-2.091l-.011.017c.355-.637-.1-1.388.282-2.023a.124.124,0,0,0,.024-.185,1.753,1.753,0,0,1,.178-.319,2.817,2.817,0,0,1,.1-1.768l-.013.018c.333-.538-.09-1.2.276-1.737a.145.145,0,0,0,.015-.205c.311-.566-.088-1.232.267-1.794a.152.152,0,0,0,.02-.205.165.165,0,0,1,.135-.132,1.249,1.249,0,0,1-.017-.19c.066-.487-.146-1.005.152-1.472a.107.107,0,0,0,.018-.174c.289-.577-.082-1.249.258-1.818a.142.142,0,0,0,.02-.2c.306-.566-.077-1.232.26-1.792a.16.16,0,0,0,.024-.218,1.533,1.533,0,0,0,.009-1.247l.024.018c-.232-.113-.167-.4-.335-.556h0c-.154-.165-.43-.11-.568-.309l.015.011c-.227-.238-.639,0-.84-.311-.2-.1-.449-.071-.6-.275l.018.015c-.178-.139-.449-.093-.589-.3l.026.009a.245.245,0,0,1-.108-.267c-.143-.026-.284-.053-.427-.081a1.693,1.693,0,0,0-1.071-.573.574.574,0,0,1-.469-.434l-.467-.124c-.121-.157-.242-.317-.361-.478a.38.38,0,0,1-.386-.262h0a1.28,1.28,0,0,1-.392-.112A21.9,21.9,0,0,1-207.1,222.6c-.081-.273-.3-.3-.535-.324a.735.735,0,0,0-.58-.566.33.33,0,0,0-.315-.249l-.322-.474-.013-.024c0,.013,0,.02,0,.033-.207.081-.394.092-.5-.157l.027.035a.45.45,0,0,1-.328-.293.655.655,0,0,1-.3-.271l.022.015a.851.851,0,0,1-.311-.287l.011.013a1.848,1.848,0,0,1-.3-.282l0,0c-.1-.09-.2-.187-.289-.284a3.106,3.106,0,0,1-.282-.3l.015.009a.9.9,0,0,1-.26-.291A1.278,1.278,0,0,1-211.066,217.23Z" transform="translate(314.923 -158.286)" fill="#fefefe"/>
    <path id="Path_19" data-name="Path 19" d="M-201.594,213.45h0l-.02.018Z" transform="translate(306.853 -157.941)" fill="#fefefe"/>
    <path id="Path_20" data-name="Path 20" d="M-200.688,216.225c.006.011.02.017.026.028l0,0Z" transform="translate(304.225 -155.636)" fill="#fefefe"/>
    <path id="Path_21" data-name="Path 21" d="M-200.976,216.558h0l0,0Z" transform="translate(305.064 -155.359)" fill="#fefefe"/>
    <path id="Path_22" data-name="Path 22" d="M-201.749,213.3c-.009,0-.013.015-.022.02l0,0Z" transform="translate(307.303 -158.066)" fill="#fefefe"/>
    <path id="Path_23" data-name="Path 23" d="M-184.04,235.706l-.02.024c.141-.209.412-.159.584-.3l-.018.015c.223-.3.628-.06.871-.3l-.016.015c.218-.24.507-.143.771-.167,0-.06.044-.1.137-.123a.347.347,0,0,0,.231-.04c.348-.273.822.037,1.162-.26a.458.458,0,0,0,.267-.029c.478-.112.965-.313,1.4.11v2.149c-.394,1.713.141,3.473-.28,5.181q0,.261-.006.522a3.928,3.928,0,0,0-.126,1.675c-.084,2.506.1,5.012-.1,7.513.005.1.005.19.013.286.064.121.13.234.194.355a.233.233,0,0,0,.035.2c.168.161.119.421.265.589l-.009-.015c.192.145.15.408.295.58a1.243,1.243,0,0,1,.289.282c.167.148.419.11.584.267l0,0c.136.17.383.139.522.3-.417.732-.419.738.189,1.428.154.178.278.377.428.558h0a3.987,3.987,0,0,1,.278.3l-.015-.015c.185.207.207.4-.062.545l-.08-.022-.077.026c-.258-.229-.643-.024-.9-.264l-.1-.04-.11.005c-.2-.112-.465-.086-.644-.26h0a1.121,1.121,0,0,0-1.159,0l.009-.005c-.148.178-.417.123-.567.3h0a1.446,1.446,0,0,1-.319.269l.018-.026c-.135.216-.408.167-.584.306l.016-.013c-.137.205-.414.156-.578.308a.857.857,0,0,1-.3.28l.016-.018a.43.43,0,0,1-.518.123c-.009.07-.018.132-.027.2-.1.088-.207.172-.308.258-.17-.1-.34-.2-.511-.3q-.041-.665-.073-1.335v-.013a.186.186,0,0,1-.231-.11c-.009-.17-.018-.335-.027-.5-.386-1.422.1-2.9-.271-4.32a.315.315,0,0,0,0-.238c-.3-.467-.086-.985-.152-1.474.006-.106.068-.247.112-.227l.086.026-.027-.037q-.036-.947-.071-1.893a.378.378,0,0,1-.225-.163c-.006-.172-.011-.346-.015-.513-.3-.644-.071-1.327-.146-1.988a.612.612,0,0,1,.146-.306.5.5,0,0,1-.092-.553c.022-.024.037-.048.059-.071-.227-.341.027-.791-.244-1.12a.262.262,0,0,0-.016-.243,11.354,11.354,0,0,1-.033-3.641l0-.024a.2.2,0,0,1-.232-.1q-.014-.253-.027-.511a7.05,7.05,0,0,1,.029-3.129A1.016,1.016,0,0,1-184.04,235.706Z" transform="translate(249.939 -140.551)" fill="#fefefe"/>
    <path id="Path_24" data-name="Path 24" d="M-179.937,235.258v0l-.016.016Z" transform="translate(245.544 -139.827)" fill="#fefefe"/>
    <path id="Path_25" data-name="Path 25" d="M-220.642,213.406l.017.015c.007.005.009.015.018.02Z" transform="translate(360.699 -157.977)" fill="#fefefe"/>
    <path id="Path_26" data-name="Path 26" d="M-188.8,229.825l-.011-.007,0-.009Z" transform="translate(270.627 -144.353)" fill="#fefefe"/>
    <path id="Path_27" data-name="Path 27" d="M-206.142,237.724c.006.009.017.013.022.022l.006.013Z" transform="translate(319.663 -137.779)" fill="#fefefe"/>
    <path id="Path_28" data-name="Path 28" d="M-210.172,240.594a.118.118,0,0,0,.009-.185c.293-.469-.1-1.067.295-1.512l-.013.024c.214-.258.022-.63.245-.884a.147.147,0,0,0,.048-.2c.192-.278-.005-.679.289-.93.2-.255-.013-.646.287-.864l-.011.031a.329.329,0,0,1,.24-.132c.007-.161.013-.32.02-.478a1.251,1.251,0,0,0,.373-.782c.265-.2.533-.406.8-.606a.679.679,0,0,0,.571-.284.689.689,0,0,0,.593-.258,1.055,1.055,0,0,0,.8-.348.651.651,0,0,0,.6-.247c.242-.035.483-.068.723-.1a1.681,1.681,0,0,1,.1-.232.955.955,0,0,1,.829.315,1.659,1.659,0,0,0,.295,1.131c.013.375.029.749.044,1.124.081.1.163.2.245.3a.923.923,0,0,0,.238.9c.031.267.179.522.071.8a1.132,1.132,0,0,1-.78,1.47c-.053.152-.106.3-.159.456l-.481.1,0,0a.266.266,0,0,0-.055.005c.139.254-.06.392-.26.529l.007,0a.839.839,0,0,1-.331.271l.026-.029a7.539,7.539,0,0,1-1.126.9l0,0c-.2.377-.637.5-.881.833a.766.766,0,0,1-.284.308l.02-.024c-.205.24-.556.2-.762.529-.567.891-1.223,1.331-1.906.059-.077-.143-.333-.141-.449-.3l.018.02a.742.742,0,0,1-.271-.3A1.352,1.352,0,0,1-210.172,240.594Z" transform="translate(323.689 -142.034)" fill="#fefefe"/>
    <path id="Path_29" data-name="Path 29" d="M-149.852,188.683l-.015,0h0Z" transform="translate(160.385 -178.515)" fill="#fefefe"/>
    <path id="Path_30" data-name="Path 30" d="M-147.223,189.607v0l0,0Z" transform="translate(152.921 -177.744)" fill="#fefefe"/>
    <path id="Path_31" data-name="Path 31" d="M-149.246,191.475l0,0h0Z" transform="translate(158.637 -176.196)" fill="#fefefe"/>
    <path id="Path_32" data-name="Path 32" d="M-147.385,191l.006.008h0Z" transform="translate(153.367 -176.588)" fill="#fefefe"/>
    <path id="Path_33" data-name="Path 33" d="M-148.168,191.62l.015,0h0Z" transform="translate(155.573 -176.073)" fill="#fefefe"/>
    <path id="Path_34" data-name="Path 34" d="M-149.083,191.628c.013-.005.018-.02.031-.026h0Z" transform="translate(158.146 -176.088)" fill="#fefefe"/>
    <path id="Path_35" data-name="Path 35" d="M-183.65,227.826l-.011-.007-.007-.037Z" transform="translate(256.057 -146.036)" fill="#fefefe"/>
    <path id="Path_36" data-name="Path 36" d="M-180.719,229.809l-.01.01,0,0Z" transform="translate(247.754 -144.353)" fill="#fefefe"/>
    <path id="Path_37" data-name="Path 37" d="M-183.519,230.585l0-.005,0-.005Z" transform="translate(255.647 -143.717)" fill="#fefefe"/>
    <path id="Path_38" data-name="Path 38" d="M-177.436,231.256a.251.251,0,0,0-.011.225c-.306.454.066,1.031-.276,1.474-.152.159-.214.494-.555.271l.013.009a36.2,36.2,0,0,0-4.674-.143c-.39-.022-1.109.192-.727-.688l-.022.02a.966.966,0,0,1,.3-.3l-.015.016a.927.927,0,0,1,.3-.3l-.016.015a1.025,1.025,0,0,1,.289-.293.979.979,0,0,1,.3-.291l-.015.015a.878.878,0,0,1,.3-.3l-.018.015a.868.868,0,0,1,.3-.3l-.018.016a.77.77,0,0,1,.309-.3l-.016.026a9.424,9.424,0,0,1,1.126-.893h0a1.5,1.5,0,0,1,.309-.28l-.015.018a.761.761,0,0,1,.311-.293l-.02.026c.119-.223.408-.156.547-.335l0,0a2.1,2.1,0,0,1,.317-.265l-.02.016c.137-.2.414-.148.577-.3l-.011.007c.152-.187.417-.145.593-.284l-.017.018c.181-.205.357-.209.527.006A7.428,7.428,0,0,1-177.436,231.256Z" transform="translate(249.855 -146.092)" fill="#fefefe"/>
    <path id="Path_39" data-name="Path 39" d="M-167.644,187.1l.01,0,0,0Z" transform="translate(210.702 -179.827)" fill="#fefefe"/>
    <path id="Path_40" data-name="Path 40" d="M-219.347,198.345l-.005-.01v0Z" transform="translate(357.079 -170.498)" fill="#fefefe"/>
    <path id="Path_41" data-name="Path 41" d="M-182.741,186.337h0v0Z" transform="translate(253.457 -180.463)" fill="#fefefe"/>
    <path id="Path_42" data-name="Path 42" d="M-182.12,186.8l.007,0,0,0Z" transform="translate(251.682 -180.082)" fill="#fefefe"/>
    <path id="Path_43" data-name="Path 43" d="M-155.091,189.563l.006,0c-.233.256-.619.04-.86.278-.438.35-1.018-.033-1.463.282l-.119-.015-.119.026c-.654.364-1.41-.062-2.065.267l-.113-.009-.108.037c-.159.165-.421.119-.589.264l.009-.013a.458.458,0,0,1-.231.1c.007.013.015.011.02.029a.175.175,0,0,1-.06.183c-.284.011-.566.018-.849.024a.837.837,0,0,1-.286.209,4.793,4.793,0,0,1,.551.366l-.011-.015a6.9,6.9,0,0,0,2.936.006l.112.006c.322.134.289.32.082.536l.02-.018a1.108,1.108,0,0,1-.3.3c-.375.43-.957.359-1.424.568l.015-.007a4.565,4.565,0,0,1-2.561,0l.013.007c-.946-.361-1.961.027-2.914-.242l-.1.02c-.225.112-.514.02-.7.234l-.009,0a1.181,1.181,0,0,1-.331.253l.022-.024a.569.569,0,0,1-.309.309l.02-.018a.916.916,0,0,1-.247.324.179.179,0,0,0-.04.207.606.606,0,0,0,.007.672c.5.8,1.422.126,2.025.571a.184.184,0,0,0,.214,0,1.288,1.288,0,0,0,.661.126c.214.013.522-.049.547.245.031.381-.417.258-.586.45l.009,0c-.328.324-.818-.015-1.15.289l.009,0c-.267.256-.657.079-.945.264l-.1-.016-.092.046c-.339.306-.822-.009-1.168.269l.02-.013c-.386.324-.844.1-1.267.17-.046.011-.081,0-.125.011-.015.044,0,.1-.059.126l-.132-.007-.13.035a3.228,3.228,0,0,1-1.99-.026l.007.009a3.732,3.732,0,0,0-.3-.267l-.011-.016c-.075-.106-.181-.19-.253-.3a.892.892,0,0,1-.286-.3l.015.018a1.122,1.122,0,0,1-.313-.282l.009,0c-.165-.156-.419-.114-.584-.267h-.009c-.139-.183-.4-.132-.555-.295a.246.246,0,0,1-.053-.278c-.112.038-.187.007-.205-.135a.091.091,0,0,0-.016-.15.374.374,0,0,1-.007-.577,1.107,1.107,0,0,0-.013-.855.839.839,0,0,1-.077-.778c.048-.042.1-.084.143-.119l-.009-.027c-.049.062-.082.139-.163.172-.06-.026-.121-.057-.183-.088l0-.009c-.075-.119-.205-.194-.249-.337l.027.022c-.271-.319-.58-.6-.875-.9l.026.031a.581.581,0,0,1-.324-.269c-.163-.139-.432-.1-.553-.313-.192-.1-.46-.066-.588-.3l.022.018c-.19-.106-.437-.084-.6-.254a10.442,10.442,0,0,0-2.629-.139.5.5,0,0,1-.232-.145l0,0c-.183.194-.456.152-.672.258l-.086-.044-.086.044a1.414,1.414,0,0,1-1.419.015c-.816-.687.117-.941.344-1.369l-.035.029a.439.439,0,0,1,.289-.318.578.578,0,0,1,.284-.3l-.026.024a.8.8,0,0,1,.3-.315l-.018.018a1.032,1.032,0,0,1,.3-.3l-.015.016a1.086,1.086,0,0,1,.293-.306l-.011.011a1.467,1.467,0,0,1,.3-.3l-.011.013a1.235,1.235,0,0,1,.3-.295l-.013.011a1.068,1.068,0,0,1,.308-.293l-.018.015a.749.749,0,0,1,.3-.271.488.488,0,0,1,.32-.291l-.027.031a.785.785,0,0,1,.734-.372c0-.015-.005-.009-.007-.029a.312.312,0,0,1,.1-.236h0a1.188,1.188,0,0,1,.328-.267l-.027.027c.115-.218.41-.148.544-.337l.009-.007a1.417,1.417,0,0,1,.326-.247l.006,0h0c.132-.185.39-.152.545-.293l-.013,0c.148-.19.416-.139.584-.293l-.013.009c.152-.19.412-.152.595-.28.254-.275.648-.1.93-.278a.129.129,0,0,0,.181-.037c.273-.234.657-.068.945-.253a.139.139,0,0,0,.192-.026,6.944,6.944,0,0,1,3.129.017c.119.079.243.145.355.231a1.073,1.073,0,0,1,1.078.055l-.013-.009c.43.339,1.018-.082,1.437.3l-.016-.009c.436.324,1.018-.077,1.442.291l-.013-.009c.531.351,1.2-.1,1.726.293l-.016,0a2.2,2.2,0,0,0,.481.218,2.525,2.525,0,0,1,1.534.046c.168.007.339.018.507.031.657.333,1.419-.112,2.067.275a.273.273,0,0,0,.227,0c.39.26.871.013,1.27.223l.02.022a.7.7,0,0,1,.754.013.938.938,0,0,0,.258.016.325.325,0,0,1-.007.553l-.125,0-.121.022-.558-.046a.462.462,0,0,1-.114.15c-.736.123-1.5-.141-2.224.156-.176.005-.351.007-.527.013-.641.361-1.391-.082-2.032.273-.251,0-.5-.005-.754-.015a.646.646,0,0,1-.3-.2.564.564,0,0,1-.339.016.775.775,0,0,0-.139-.082c-.049.013-.1.026-.15.04a.336.336,0,0,0-.243-.049c-.015-.042-.031-.082-.048-.123-.04,0-.077-.015-.119-.011-.249-.018-.514.06-.721-.15a.725.725,0,0,0-.871.006.762.762,0,0,0-.011.881.963.963,0,0,1,.291.3l-.018-.015a3.562,3.562,0,0,1,.311.243.2.2,0,0,0,.2.059,1.092,1.092,0,0,1,.459.22c.018.02.042.016.06.033l.145-.037a.433.433,0,0,0,.271.042l.057.137c.04,0,.081.007.123.007a1.428,1.428,0,0,1,.5.079c.167-.092.37-.09.529-.209a.258.258,0,0,0,.223-.009,1.09,1.09,0,0,1,1.086-.038c-.005-.018-.015-.016-.016-.046-.005-.079.04-.141.134-.19a.307.307,0,0,0,.227-.024,6.246,6.246,0,0,1,2.85,0,.367.367,0,0,0,.245.02c.253.231.644.022.888.282.163.15.427.108.577.289l-.011-.005c.165.157.425.11.582.28l0,0c.152.168.408.115.569.262a.309.309,0,0,0,.221.048c.2.121.465.088.637.273l-.009-.005c.163.156.419.115.579.278C-154.611,189.333-154.93,189.408-155.091,189.563Z" transform="translate(225.514 -183.127)" fill="#fefefe"/>
    <path id="Path_44" data-name="Path 44" d="M-189.753,232.767l.017-.018.006,0Z" transform="translate(273.278 -141.912)" fill="#fefefe"/>
    <path id="Path_45" data-name="Path 45" d="M-178.278,224.324c-.029-.009-.057-.022-.086-.031a1.651,1.651,0,0,0-.287-1.129c0-.278-.007-.556-.009-.833l.838,0a.662.662,0,0,0,.567.289.646.646,0,0,0,.566.287l.018.084c.2.042.41.042.553.225l-.018-.013c.209.121.438.205.644.339a2.254,2.254,0,0,1,.267.245c.042.048.084.092.123.137a2.228,2.228,0,0,1,.209.3,1.218,1.218,0,0,1,.04.132c.48.454.487.5.225,1.005a1.221,1.221,0,0,1-.128.167,1.34,1.34,0,0,1-.073.269c-.068.156-.137.313-.207.467-.044.1-.086.211-.132.315-.081.225-.137.456-.22.679-.328.467-.306,1.362-1.276,1.032l.007.02c-.185-.148-.143-.41-.289-.578-.179-.156-.145-.412-.275-.589l.013.018c-.22-.161-.185-.439-.291-.655a.18.18,0,0,0-.049-.19c-.154-.163-.1-.423-.262-.578l.005.007c-.178-.159-.143-.416-.271-.6C-178.329,224.917-178.2,224.6-178.278,224.324Z" transform="translate(237.695 -150.566)" fill="#fefefe"/>
    <path id="Path_46" data-name="Path 46" d="M-180.715,188.2h0l.013-.01Z" transform="translate(247.704 -178.92)" fill="#fefefe"/>
    <path id="Path_47" data-name="Path 47" d="M-170.389,192.529c-.031.1-.026.225-.084.273-1.223,1.04-2.453,2.065-3.683,3.1a15.639,15.639,0,0,0-1.3,1.474,5.712,5.712,0,0,1-2.261,1.849,8.483,8.483,0,0,0-1.845,1.018c-.291.254-.481.172-.648-.161A2.471,2.471,0,0,1-180.49,199c-.45-.317-.749-.844-1.34-.957l-.024-.126a.581.581,0,0,1,.273-.2c.016-.13.031-.26.048-.39.082-.1.165-.207.251-.311s.178-.2.269-.3a.394.394,0,0,0,.276-.293.389.389,0,0,0,.287-.28c.1-.1.2-.185.3-.273s.218-.157.324-.238a.8.8,0,0,0,.531-.335c.383-.082.835.11,1.146-.273a1.153,1.153,0,0,0,.844-.3.981.981,0,0,0,.868-.271c.253-.024.5-.046.758-.071a1.359,1.359,0,0,0,.081-.234c.189,0,.379-.006.566-.006h.006c.011,0,.02-.005.031-.005-.009-.015-.018-.011-.027-.037a.194.194,0,0,1,.07-.216.318.318,0,0,0,.214-.059.181.181,0,0,1,.273.022l.029.044.015,0c-.051-.059-.115-.108-.123-.2a1.587,1.587,0,0,1,.168-.1.287.287,0,0,0,.207-.053,1.076,1.076,0,0,1,.362-.232.266.266,0,0,0,.211-.055c.156-.141.414-.079.553-.26l.007-.005c.165-.152.416-.115.582-.265.231-.262.624-.035.859-.287l0,.007C-171.2,192.494-170.772,192.244-170.389,192.529Z" transform="translate(239.476 -175.433)" fill="#fefefe"/>
    <path id="Path_48" data-name="Path 48" d="M-172.465,189.914l.006,0h0Z" transform="translate(224.359 -177.49)" fill="#fefefe"/>
    <path id="Path_49" data-name="Path 49" d="M-195.361,234.792l.006-.012.008,0Z" transform="translate(289.159 -140.227)" fill="#fefefe"/>
    <path id="Path_50" data-name="Path 50" d="M-153.884,233.22l.015,0q0-2.254.011-4.512a3.908,3.908,0,0,0,.267-1.723,1.742,1.742,0,0,0,.315-1.118,1.251,1.251,0,0,0,.3-.844.733.733,0,0,0,.251-.6.674.674,0,0,0,.308-.551,1.57,1.57,0,0,0,.544-.875,1.371,1.371,0,0,0,.578-.849.376.376,0,0,0,.245-.318.694.694,0,0,0,.346-.522.363.363,0,0,0,.238-.326,1.334,1.334,0,0,0,.608-.818.359.359,0,0,0,.242-.326.638.638,0,0,0,.364-.492,1.625,1.625,0,0,0,.245-.071,2.473,2.473,0,0,1-.007-.26c.082-.015.165-.026.243-.042q0-.14.006-.28a1.274,1.274,0,0,0,.621-.813.377.377,0,0,0,.24-.324,1.339,1.339,0,0,0,.622-.807.385.385,0,0,0,.243-.32c.044-.009.092-.013.137-.018a1.283,1.283,0,0,1,.489-.816l-.035.028a.552.552,0,0,1,.293-.328l-.022.022a1.126,1.126,0,0,1,.269-.324h0c.231-.262.333-.619.622-.835l-.027.027a.746.746,0,0,1,.275-.326l-.006.007c.214-.278.319-.635.624-.842l-.033.026a.605.605,0,0,1,.286-.328l-.018.016a1.714,1.714,0,0,1,.273-.315c.236-.254.33-.619.628-.831l-.029.026a.63.63,0,0,1,.286-.322l-.016.013a3.1,3.1,0,0,1,.264-.317l.005-.006c.247-.243.337-.608.626-.824l-.029.026a.78.78,0,0,1,.286-.326l-.015.015c.075-.113.183-.2.26-.309l.007-.015c.181-.117.137-.388.326-.5l0,0,.009-.011a.986.986,0,0,1,.251-.326c.165-.139.123-.406.315-.524.038-.145.161-.225.242-.337l.005-.009c.187-.137.125-.414.309-.551l-.009.011c.157-.165.106-.434.3-.58l-.009.015c.152-.172.106-.437.287-.589l0,.013c.254-.223.013-.637.313-.84.1-.187.09-.43.253-.6.315-.322-.042-.827.306-1.142l-.009.018c.344-.54-.1-1.21.287-1.743a.12.12,0,0,0,.009-.189,3.174,3.174,0,0,0,0-1.878.14.14,0,0,0-.009-.2c-.379-.536.057-1.2-.284-1.741l.011.018c-.351-.313.009-.82-.309-1.142l0,0a.77.77,0,0,1-.163-.487c-.007-.038-.011-.079-.018-.117l-.055-.016c-.018-.165-.038-.329-.057-.492a1.019,1.019,0,0,0-.073-.218c-.011-.022-.011-.048-.02-.07a1.02,1.02,0,0,1-.178-.035.648.648,0,0,0-.267-.58.683.683,0,0,0-.287-.567.648.648,0,0,0-.3-.56.666.666,0,0,0-.3-.564c-.068-.117-.135-.232-.2-.351a.627.627,0,0,0-.37-.5.37.37,0,0,0-.287-.28.665.665,0,0,0-.5-.357c-.013-.053-.022-.106-.033-.161a.755.755,0,0,1-.132-.07l-.187.015c-.013-.044-.016-.092-.026-.139-.053-.033-.106-.07-.161-.1l-.049-.018-.335-.027c-.018-.042-.033-.084-.049-.126l-.022-.007a1.823,1.823,0,0,1-.324-.093l-.011-.006a.4.4,0,0,1-.443-.042l-.1-.055-.115.015a.153.153,0,0,1-.124-.115,1.114,1.114,0,0,0-.549.106.751.751,0,0,1-.28.309l.007-.017c-.02,0-.04.037-.055.112a.2.2,0,0,0,.075.2h0a1.008,1.008,0,0,1,.262.333l-.024-.024a.55.55,0,0,1,.308.313l-.027-.026a.47.47,0,0,1,.28.3c.245.13.2.416.313.615,0,.119,0,.232,0,.351a.667.667,0,0,1-.256.414v0c-.092.1-.185.2-.284.286a1.106,1.106,0,0,1-.3.238,1.823,1.823,0,0,1-1.675.038c-.168-.148-.439-.1-.58-.3l.018.009a1.9,1.9,0,0,1-.87-.84,2.73,2.73,0,0,1-.291-2.556c.163-.154.1-.439.333-.555l-.029.031a.568.568,0,0,1,.3-.32l-.026.027a.523.523,0,0,1,.3-.267c.108-.24.4-.181.556-.337l-.013.011c.154-.19.416-.148.595-.282l-.026.009a5.072,5.072,0,0,1,2.828-.018c.231.251.663-.016.855.326l-.042-.011a1.107,1.107,0,0,1,.3.218c.02.024.044.048.064.071l.194.037c.114.07.227.145.341.216l.311.26a.693.693,0,0,1,.048.244h0c.148.044.295.092.439.135.123.176.24.35.357.524.676-.763.676-.763,1.386-.293a.63.63,0,0,0,.271.584c.033.353.068.71.1,1.062.63.168.595.67.569,1.162a2.589,2.589,0,0,1,.293,1,.693.693,0,0,1,.243.128c.13.352.253.7.392,1.051a15.31,15.31,0,0,1,.729,9.955,3.069,3.069,0,0,1-.511,1.292,6.338,6.338,0,0,1-1.444,2.854,12.078,12.078,0,0,1-1.7,2.62c-.125.256-.234.516-.377.758q-1.3,2.2-2.62,4.4c-.119.2-.282.372-.423.558a1.467,1.467,0,0,1-.61,1.069v0a3.9,3.9,0,0,1-.875,1.686q-.684,1.582-1.367,3.171c.029.135.119.291.082.4-.37,1.067-.443,2.2-.7,3.284,0,.1,0,.2,0,.291a.227.227,0,0,1,.046.251,1.882,1.882,0,0,1,.265,1.162c.3.681.626,1.351.9,2.043a11.219,11.219,0,0,1,1,2.178c-.351.048-.632.075-.906.121a12.342,12.342,0,0,0-4.408,1.452,4.927,4.927,0,0,0-2.041,1.887c-.211.3-.218,1.146-.837.3l.006.013c-.271-.227-.035-.626-.293-.859l0,.007c-.308-.34,0-.824-.273-1.168l.013.024C-154.013,234.615-153.518,233.853-153.884,233.22Z" transform="translate(153.884 -178.602)" fill="#fefefe"/>
    <path id="Path_51" data-name="Path 51" d="M-144.589,207.477a17.61,17.61,0,0,0-2.015-1.982,14.38,14.38,0,0,0-1.951-2.054,73.3,73.3,0,0,0-8.144-7.1,15.524,15.524,0,0,0-4.855-2.627,1.716,1.716,0,0,1-1.058-.67.441.441,0,0,1-.3-.315.356.356,0,0,1-.286-.311l-.013.009c-.231-.212-.463-.43-.7-.644a1.15,1.15,0,0,0-.044-.134c-.551-1.091-.584-1.331.8-1.248a.12.12,0,0,0,.168.027.289.289,0,0,1,.214.254c.152.007.3.011.456.016a.661.661,0,0,0,.582.265,1.013,1.013,0,0,1,.031.227l.265.11a1.378,1.378,0,0,1,.26-.033c.02.082.042.165.066.243l.454.1a.381.381,0,0,0,.346.212.643.643,0,0,0,.514.35.367.367,0,0,0,.335.225,1.464,1.464,0,0,0,.833.6.353.353,0,0,0,.319.247,1.437,1.437,0,0,0,.807.624.39.39,0,0,0,.313.256.355.355,0,0,0,.313.254,1.449,1.449,0,0,0,.774.663l.309.249a.379.379,0,0,0,.308.265.363.363,0,0,0,.3.265.362.362,0,0,0,.3.273,4.326,4.326,0,0,0,1.355,1.221.373.373,0,0,0,.3.267c.1.09.2.178.3.269a.369.369,0,0,0,.295.275.372.372,0,0,0,.3.271.359.359,0,0,0,.295.276.362.362,0,0,0,.291.278.36.36,0,0,0,.291.278.362.362,0,0,0,.289.28c1.126,1.15,2.246,2.31,3.381,3.451.666.67,1.356,1.314,2.036,1.972a.36.36,0,0,0,.282.286.35.35,0,0,0,.28.293.359.359,0,0,0,.28.291.364.364,0,0,0,.275.3.364.364,0,0,0,.282.287.369.369,0,0,0,.276.295.384.384,0,0,0,.276.295c.079.1.157.205.234.308C-144.044,207.957-144.089,207.966-144.589,207.477Z" transform="translate(180.531 -177.1)" fill="#fefefe"/>
    <path id="Path_52" data-name="Path 52" d="M-173.347,222.384a1.13,1.13,0,0,0,.613-.483h-.015a5.536,5.536,0,0,1,.849-.6l0,0a1.259,1.259,0,0,1,.308-.284l-.017.016a.8.8,0,0,1,.315-.293l-.022.022a.672.672,0,0,1,.308-.309l-.024.026a.717.717,0,0,1,.3-.306,1.054,1.054,0,0,1,.269-.3l-.009.007c.082-.106.185-.192.267-.3l.007-.011c.245-.243.346-.6.613-.827l-.022.024a1.935,1.935,0,0,1,.26-.324c.421-.339.549-.866.84-1.285.2-.289.225-.86.65-.787.326.055.48.529.568.9a12.519,12.519,0,0,1,1.382,2.294,10.531,10.531,0,0,1,1.421,1.726,4.7,4.7,0,0,1,1.122,1.153l.011.009a.288.288,0,0,1,.267.273l.016.016a.342.342,0,0,1,.317.238.338.338,0,0,1,.3.275.346.346,0,0,1,.287.265c.223.037.443.075.538.329q.431.277.859.542a3.946,3.946,0,0,0,1.245-.146,3,3,0,0,1,1.937-.071,9.572,9.572,0,0,0,2.521.287l0,0v0c1.075-.152,2.162-.168,3.24-.247,3.253-.234,6.482-.654,9.711-1.078a5.288,5.288,0,0,1,2.788.119,12.525,12.525,0,0,1,7.37,2.852c.45.3.9.6,1.351.906a1.04,1.04,0,0,1,.331.295l-.011-.007c.093.1.189.192.284.289s.183.2.273.3.185.2.275.3.181.2.271.3a1.215,1.215,0,0,0,.617.813q.124.154.247.318a.712.712,0,0,0,.337.524c.075.112.15.227.227.333a.733.733,0,0,0,.3.553.78.78,0,0,0,.282.577.8.8,0,0,0,.275.578c.011.168.024.337.037.509a.982.982,0,0,1,.286.326l-.007-.016c.282.231.057.628.286.879l-.013-.022c.414.533-.04,1.212.3,1.763,0,.24,0,.48,0,.723-.249.37.018.851-.256,1.217l0,0c-.282.211-.005.641-.331.838l.024-.026a1.138,1.138,0,0,1-.269.322v0a2.294,2.294,0,0,1-.86.849h.005a1.1,1.1,0,0,1-.318.276l.022-.026c-.137.216-.408.17-.588.3l.022-.015a2.843,2.843,0,0,1-1.983.055l-.079-.051-.1,0a.637.637,0,0,1-.39-.269l.013.011a2.135,2.135,0,0,1-.3-.287l0,.006a1.671,1.671,0,0,1-.282-.308l.016.016c-.2-.134-.134-.416-.315-.558v0c-.242-.244-.029-.626-.271-.875l.009.013a.62.62,0,0,1,0-.848l-.009.015c.251-.236.007-.648.3-.866l-.018.02a1.518,1.518,0,0,1,.282-.311l-.006.007a1.512,1.512,0,0,1,.311-.28l-.016.022a.424.424,0,0,1,.54-.13c.015.011.024.024.037.035a.241.241,0,0,1,.26-.227l.011,0c.082-.286.32-.231.529-.24.016.167.033.331.049.5.178.3.352.6.527.908.009.07.016.141.026.211a.191.191,0,0,1,.264.145.194.194,0,0,0,.053.192c.245.273.558.066.837.121l.027-.377c.071-.02.141-.04.214-.066.005-1.02.009-2.047.013-3.07a.817.817,0,0,1-.256-.035.6.6,0,0,0-.278-.577c-.073-.112-.146-.229-.221-.34a.729.729,0,0,0-.35-.514c-.079-.112-.159-.218-.236-.328a.7.7,0,0,0-.348-.516c-.088-.1-.176-.207-.265-.306l-.254-.317c-.086-.1-.172-.2-.26-.3a2.01,2.01,0,0,0-1.148-1.155c-.1-.09-.2-.178-.295-.267s-.2-.174-.306-.267-.214-.165-.32-.245c-.015-.082-.027-.167-.044-.254v0a.449.449,0,0,1-.245-.119.556.556,0,0,1-.225.026c-.02-.073-.038-.148-.051-.223a2.372,2.372,0,0,0-.278-.018.7.7,0,0,0-.52-.333,1.674,1.674,0,0,0-.064-.221c-.58-.146-1.051-.611-1.693-.595a1.022,1.022,0,0,0-.855-.278c-.026-.081-.053-.156-.082-.232h-.117l-.108-.049c-.273-.011-.547-.018-.822-.026a1.389,1.389,0,0,0-.375-.168,23.648,23.648,0,0,0-5.289.022,1.146,1.146,0,0,0-.368.176l.009,0c-.221.214-.5.143-.762.134-.042-.033-.075-.073-.113-.11-.06.167-.218.194-.362.243l-.093-.027-.086.044c-.328.329-.826-.015-1.159.293l.007-.006a1.088,1.088,0,0,1-1.067.053h0l.005.016a.237.237,0,0,1-.1.218l.016-.007c-.346.328-.84.009-1.2.28l-.117-.009-.11.044c-.34.282-.815-.031-1.151.264-.225.211-.5.141-.763.124-.016-.057-.046-.1-.064-.152l-.016.018c-.037.2-.22.218-.366.278l-.1-.02-.1.048c-.337.3-.82-.018-1.161.269l.015-.009c-.416.379-1.005-.04-1.43.306l.007-.005c-.3.251-.661.108-.994.148l-.071,0c0,.064-.048.1-.154.121l-.1-.018-.1.042c-.353.307-.844,0-1.2.271l-.119-.015-.11.048a1.017,1.017,0,0,1-.809.082.357.357,0,0,1-.044-.1c-.192.092-.386.183-.58.273-.443.024-.89.044-1.336.062l-.013,0,.007.018a.221.221,0,0,1-.106.209l-.134-.009-.128.044c-.319.2-.67.09-1.01.1a1.121,1.121,0,0,1-.154-.114c-.346.262-.816-.015-1.164.253h-.738a.216.216,0,0,1-.137-.234l-.093.005-.117-.04c-.1-.009-.192-.013-.289-.015h-.835a1.392,1.392,0,0,0-.1-.225v0c-.253-.018-.505-.037-.756-.06a1.117,1.117,0,0,0-.848-.291.688.688,0,0,0-.595-.253,1.251,1.251,0,0,0-.782-.373c-.121-.064-.24-.132-.357-.2a.684.684,0,0,0-.549-.309c-.011-.068-.024-.139-.038-.209-.168-.04-.337-.073-.5-.115l-.331-.227a2.345,2.345,0,0,1-.033-.251l-.489-.1c-.1-.082-.211-.161-.315-.243s-.209-.17-.311-.256c-.02-.088-.038-.174-.055-.264h0l-.745-.362q-.022-.121-.033-.242a2.3,2.3,0,0,0-.269-.027c-.009-.059-.015-.117-.02-.176-.044-.024-.086-.051-.13-.079h-.02l-.137-.009-.013-.1a1.259,1.259,0,0,1-.278-.192l.009.009a2.45,2.45,0,0,1-.3-.286l.007,0a2.911,2.911,0,0,1-.289-.293l.007.007a1.42,1.42,0,0,1-.287-.306l.015.015a.915.915,0,0,1-.293-.317l.022,0a1.563,1.563,0,0,0-.557-.853A.869.869,0,0,1-173.347,222.384Z" transform="translate(180.449 -155.525)" fill="#fefefe"/>
    <path id="Path_53" data-name="Path 53" d="M-171.835,216.563v0Z" transform="translate(222.584 -155.358)" fill="#fefefe"/>
    <path id="Path_54" data-name="Path 54" d="M-165.363,235.342a5.678,5.678,0,0,1-1.452-3.619c0-.236-.1-.463-.123-.7a22.841,22.841,0,0,1-.43-3.1,24.966,24.966,0,0,1-.842-4.271,9.735,9.735,0,0,1-.535-2.576c-.024-.168-.048-.333-.07-.5a1.067,1.067,0,0,1-.243-.914c-.139-.648-.276-1.3-.417-1.944-.566-2.594-1.175-5.172-1.7-7.773a21.861,21.861,0,0,0-1.038-3.978c-.19-.276-.159-.525.156-.654a.592.592,0,0,1,.708.264c.253.308.033.727.243,1.04a.206.206,0,0,0,.044.209c.157.192.135.447.243.652a.2.2,0,0,0,.044.207c.154.165.114.414.245.591.276.227.068.613.282.86.276.216.073.6.287.842.284.221.06.622.291.862l-.013-.017c.293.245.084.654.291.928a.207.207,0,0,0,.042.212c.156.185.128.439.242.642a.219.219,0,0,0,.044.212c.152.19.135.445.24.655a.173.173,0,0,0,.037.194c.243.242.013.632.276.86l0,0c.253.238.04.628.275.871.264.232.055.622.276.866l-.015-.018c.372.3,0,.82.32,1.139l0-.005c.207.229.121.511.15.772a.15.15,0,0,1,.128.1l-.005-.016c.267.26.071.65.276.926a.225.225,0,0,0,.037.214c.236.247.02.626.264.871l-.007-.015c.333.322-.013.82.3,1.146l0-.005c.262.24.042.628.282.873l-.011-.016a.632.632,0,0,1,.07.769c.077.13.141.267.225.392l-.013,0a1.651,1.651,0,0,0,.282,1.141,2.046,2.046,0,0,0,.313,1.406c.3.335-.02.822.278,1.157l-.005-.013c.269.309.11.692.154,1.038,0,.048.017.092.02.137l.086.046a.215.215,0,0,0,.035.2l-.013.4c.042.152.086.3.119.459a2.538,2.538,0,0,1,.031.513.139.139,0,0,1,.125.135.174.174,0,0,0,.013.2,43.56,43.56,0,0,1-.016,4.534l.016.006c-.146.163-.106.421-.289.564A.347.347,0,0,1-165.363,235.342Z" transform="translate(216.117 -164.732)" fill="#fefefe"/>
    <path id="Path_55" data-name="Path 55" d="M-172.143,221.706l.012-.019.01-.006Z" transform="translate(223.431 -151.104)" fill="#fefefe"/>
    <path id="Path_56" data-name="Path 56" d="M-175.107,202.7l-.007.007-.016.013Z" transform="translate(231.884 -166.866)" fill="#fefefe"/>
    <path id="Path_57" data-name="Path 57" d="M-118.285,195.752a.676.676,0,0,0-.017.242,3.521,3.521,0,0,1-.258.335l-.007.011a.273.273,0,0,1-.308.037,1.248,1.248,0,0,0-.337.749,2.661,2.661,0,0,0-.719.8c-.187.245-.308.555-.617.7l.011,0c-.033.167-.062.331-.093.5a.372.372,0,0,0-.269.3q-1.42,1.285-2.841,2.568a1.6,1.6,0,0,0-.875.547c-.145.038-.289.077-.434.117a.366.366,0,0,1-.375.181.4.4,0,0,1-.232.077c-.016.084-.037.167-.057.245a.7.7,0,0,0-.593.253c-.167.027-.335.049-.5.073-.018.079-.033.161-.051.243a.712.712,0,0,0-.582.262.793.793,0,0,0-.588.265,1.022,1.022,0,0,0-.811.346.627.627,0,0,0-.573.278.631.631,0,0,0-.582.271c-.179.016-.361.04-.542.059a1.929,1.929,0,0,0-.048.209,2.3,2.3,0,0,0-1.41.584.652.652,0,0,0-.582.273.7.7,0,0,0-.582.267,1.047,1.047,0,0,0-.818.335.663.663,0,0,0-.586.264c-.179.013-.359.024-.54.031-.02.079-.04.152-.062.229a1.047,1.047,0,0,0-.807.333.7.7,0,0,0-.6.243,1.047,1.047,0,0,0-.822.33.7.7,0,0,0-.606.242,1.071,1.071,0,0,0-.833.311c-.187,0-.375.006-.564.006-.1.1-.19.19-.287.287a.7.7,0,0,0-.611.229,1.8,1.8,0,0,0-1.1.344.626.626,0,0,0-.586.267.628.628,0,0,0-.549.309l-.335.231c-.148.031-.295.066-.445.1-.119.17-.242.344-.364.522a.384.384,0,0,0-.3.273c-.1.088-.2.176-.3.269s-.19.19-.284.284a.382.382,0,0,0-.267.3c-.09.1-.178.2-.269.3a.7.7,0,0,0-.337.522c-.09.1-.178.2-.264.306s-.176.205-.262.3a2.228,2.228,0,0,0-.926,1.082l-.258.3c-.09.1-.178.2-.267.306l-.273.295c-.081.007-.165.016-.243.029-.011.09-.018.181-.027.271a.369.369,0,0,0-.286.284.385.385,0,0,0-.278.293l-1.06.89c.009.055.024.1.031.156-.663,1.122-1.686.838-2.676.683a.173.173,0,0,0-.179-.059c-.148,0-.205-.082-.185-.225.029-.009.057-.022.086-.033-.174-.115-.379-.176-.562-.275h-.006a1.52,1.52,0,0,1-.322-.15,1.357,1.357,0,0,0-.156-.135l-.1-.009c0-.027-.009-.057-.011-.084-.1-.035-.2-.064-.3-.09a1.412,1.412,0,0,1-.271-.157c-.038-.038-.077-.07-.114-.108-.077-.068-.154-.134-.229-.2l-.243-.178a1.346,1.346,0,0,1-.388-.247c-.114-.176-.348-.238-.416-.456-.115-.132-.227-.269-.339-.4-.106-.018-.211-.031-.315-.042-.421,0-.511.3-.575.63l0,0v0a1.394,1.394,0,0,1-.886,1.194c-.427.205-.873.364-1.309.56q-2.718,1.222-5.435,2.457l-2.323,1.373-.024.018a.674.674,0,0,1-.481.408,14.162,14.162,0,0,1-5.523,4.577,25.687,25.687,0,0,0-2.6,1.461c-2.623,1.712-5.135,3.582-7.659,5.433-.688.5-1.375,1.011-2.08,1.49-.549.373-.783.313-1.15-.269-.174-.278-.308-.586-.465-.879a17.555,17.555,0,0,0-1.4-2.308c-.43-.564-.439-.619.024-1.076,1.223-1.188,2.44-2.393,3.722-3.511a23.368,23.368,0,0,1,3.579-2.79,31.173,31.173,0,0,1,9.21-6.264,23.235,23.235,0,0,0,3.632-3.361c1.486-1.715,2.973-3.434,4.437-5.17a11.588,11.588,0,0,0,.844-1.3,4.839,4.839,0,0,0,1.168-1.463.361.361,0,0,0,.265-.3c.093-.093.185-.192.278-.293a.356.356,0,0,0,.293-.271,2.054,2.054,0,0,0,.855-.562l.752-.088a.178.178,0,0,1,.139-.236.143.143,0,0,0,.194-.029c.366-.254.784-.093,1.179-.135.123-.055.225.049.329.126l.348-.038a.369.369,0,0,1,.165-.222l-.018,0c.416-.377,1,.053,1.422-.3h0c.165-.167.414-.135.6-.258.147-.194.4-.165.582-.284l-.024.02c.132-.227.408-.178.586-.315l-.02.013c.132-.205.412-.15.566-.313l0,0a4.8,4.8,0,0,1,.873-.536c.13-.216.41-.157.575-.309l-.005.015c.057.073.168.161.152.211a21.449,21.449,0,0,0-.926,4.567,2.463,2.463,0,0,1-.793,1.464,17.608,17.608,0,0,1-2.325,1.86,23.347,23.347,0,0,0-1.9,1.476,2.016,2.016,0,0,0-.549,2.673l.093-.059a.647.647,0,0,0,.225-.571.557.557,0,0,1,.319-.52c.249-.222.491-.447.747-.655a20.614,20.614,0,0,1,4.9-3.086,1.835,1.835,0,0,1,1.159-.558,8.842,8.842,0,0,1,2.565-.617h0a25.745,25.745,0,0,0,5.345-3.367c1.161-.873,2.358-1.7,3.54-2.554a3.29,3.29,0,0,1,1.13-.853l.009-.009a1.4,1.4,0,0,1,.265-.254c1.144-.963,2.206-2.025,3.441-2.88a.323.323,0,0,1,.289-.251l.022-.02a.534.534,0,0,1,.507-.348l-.009.011a.608.608,0,0,0,.3-.286l-.011.009a.7.7,0,0,0,.3-.286l-.007,0q1.56-1.6,3.116-3.193v0a3.56,3.56,0,0,1,1.162-1.078,1.441,1.441,0,0,1,.02-.267c.106-.082.214-.165.318-.247a.725.725,0,0,0,.533-.328c.108-.081.214-.165.32-.243a.736.736,0,0,0,.562-.291,1.059,1.059,0,0,0,.837-.313q1.568,0,3.134-.006a.282.282,0,0,0,.231.022c.286.2.63.077.934.176.057.009.1.027.156.04a.713.713,0,0,1,.674.035.426.426,0,0,0,.243.037c.209.322.842.284.74.866-.108.63.339.509.692.524.236-.232.509-.273.679.024a2.1,2.1,0,0,1,.481,1.1.783.783,0,0,1-.207.652C-118.248,195.216-118.267,195.485-118.285,195.752Z" transform="translate(199.272 -176.194)" fill="#fefefe"/>
    <path id="Path_58" data-name="Path 58" d="M-226.55,209.687h0v0Z" transform="translate(377.459 -161.069)" fill="#fefefe"/>
    <path id="Path_59" data-name="Path 59" d="M-228.926,223.577c-.092-.1-.183-.194-.276-.295a.367.367,0,0,0-.284-.284.367.367,0,0,0-.287-.282l-.027-.265c-.086-.006-.176-.017-.262-.02a.371.371,0,0,0-.3-.265,2.236,2.236,0,0,0-1.075-.93l-.3-.264c-.108-.082-.214-.167-.322-.249a.366.366,0,0,0-.3-.265c-.167-.189-.331-.373-.5-.558a.213.213,0,0,1-.022.033.22.22,0,0,1-.319-.086l.013.022a1.874,1.874,0,0,1-.308-.282l0,0c-.15-.17-.437-.106-.557-.328l.02.02a.742.742,0,0,1-.315-.286l.018.016a.364.364,0,0,1-.033-.562l0,0a2.091,2.091,0,0,1,.311-.269l-.018.016c.146-.2.41-.156.588-.293.218-.273.617-.042.84-.3l-.007.006c.179-.179.445-.156.654-.265a.217.217,0,0,0,.207-.049.718.718,0,0,1,.553-.086c.009-.055.018-.108.031-.159.183,0,.368-.011.551-.016a1.27,1.27,0,0,0,.07-.214,1.066,1.066,0,0,0,.782-.362c.093,0,.189,0,.282,0q.019-.126.038-.247c.168-.022.335-.042.5-.059.009-.09.02-.179.033-.265a2.724,2.724,0,0,0,.276-.018c.006-.086.009-.176.011-.265.086,0,.17-.007.256-.015,0-.092.009-.185.02-.276a1.167,1.167,0,0,1,.253-.035c.026-.167.051-.335.077-.5a.713.713,0,0,0,.282-.569,1.819,1.819,0,0,0,.236-.068c.015-.172.029-.339.044-.513a.653.653,0,0,0,.262-.589,1.017,1.017,0,0,0,.317-.831.672.672,0,0,0,.26-.584c.062-.013.124-.022.185-.031a.445.445,0,0,1,.132-.535l-.024.02a.708.708,0,0,1,.3-.295c.211-.284.617-.051.838-.3l-.009,0c.234-.267.628-.042.87-.284l-.013.005c.254-.273.652-.073.928-.278a.224.224,0,0,0,.211-.029c.231-.2.509-.115.771-.135,0-.06.042-.108.13-.13a.373.373,0,0,0,.249-.048c.249-.2.619,0,.853-.247l-.006,0c.251-.256.643-.053.9-.275a.38.38,0,0,0,.242-.027c.242-.234.621-.026.864-.264.232-.264.622-.048.862-.282l-.015.011a.475.475,0,0,1,.558-.108,1.1,1.1,0,0,1,.055.1c.176-.1.352-.2.529-.295a1.462,1.462,0,0,1,1.648.6,1.092,1.092,0,0,0,.331.818,1.049,1.049,0,0,0,.287.859,1.114,1.114,0,0,0,.262.869,1.55,1.55,0,0,0,.295,1.135,1.571,1.571,0,0,0,.293,1.131,1.563,1.563,0,0,0,.26,1.164c.016.273.031.551.046.824.093.1.183.194.275.291a1.084,1.084,0,0,0,.245.882c.02.309.024.626.322.829a.366.366,0,0,0,.26.309c.015.082.026.17.035.256v.016l.029-.051a.4.4,0,0,1,.538.037.33.33,0,0,0,.24.02c.251.249.595.2.9.282a.6.6,0,0,1,.231-.152,18.071,18.071,0,0,0,3.255-.13c.17-.007.342-.016.513-.02.436-.33,1.007.048,1.441-.275l-.011.009c.253-.275.648-.073.919-.28a.309.309,0,0,0,.218-.027c.181-.174.443-.137.643-.258a.268.268,0,0,0,.212-.026c.15-.168.423-.1.564-.289l.006,0c.1-.086.194-.187.3-.273l-.007.005a1.3,1.3,0,0,1,.306-.286l-.015.02c.126-.2.414-.134.547-.322l.009-.005c.108-.082.194-.19.309-.264l-.015.018c.137-.2.416-.137.562-.315l0,0a2.066,2.066,0,0,1,.309-.269l-.015.016c.139-.2.412-.143.569-.311l-.006.009c.147-.181.419-.119.566-.3l0,0a1.989,1.989,0,0,1,.313-.267l-.015.018c.145-.194.341-.172.544-.123l.018.042.042-.19a.731.731,0,0,0,.549-.3.667.667,0,0,0,.562-.293.651.651,0,0,0,.564-.3.612.612,0,0,0,.56-.3c.114-.071.231-.145.344-.218a.757.757,0,0,0,.54-.319.662.662,0,0,0,.542-.32.667.667,0,0,0,.566-.291c.106-.081.216-.159.324-.236.161-.029.326-.062.491-.084a.667.667,0,0,0,.068-.22,1.278,1.278,0,0,0,.857-.573c.108-.077.218-.154.328-.229a.7.7,0,0,0,.505-.362.365.365,0,0,0,.324-.242c.161-.031.324-.066.483-.1v.006a.364.364,0,0,1,.318-.269,1.03,1.03,0,0,0,.042-.229.338.338,0,0,0,.32-.238,14.142,14.142,0,0,0,2.433-2.1c.042-.163.084-.328.125-.494a.361.361,0,0,0,.271-.293.393.393,0,0,0,.271-.3.372.372,0,0,0,.271-.3q.81-.741,1.624-1.475v0q.61-.692,1.217-1.386a.377.377,0,0,0,.295-.275c.1-.088.2-.179.3-.267a.376.376,0,0,0,.3-.273c.1-.086.2-.176.3-.262a1.475,1.475,0,0,0,.794-.639c.1-.086.2-.178.3-.271.06,0,.121-.005.179-.011a.344.344,0,0,1,.126-.271l-.02.015a.778.778,0,0,1,.317-.289l-.02.029c.11-.192.291-.187.474-.172.022.015.018.044.035.06v-.009c.015-.073.026-.148.038-.22a.371.371,0,0,0,.326-.238.719.719,0,0,0,.525-.335l.322-.242a.648.648,0,0,0,.54-.324c.117-.066.234-.135.35-.205.137-.024.273-.049.408-.071a.267.267,0,0,1,.135-.267l-.027.009c.159-.216.436-.176.642-.291a.218.218,0,0,0,.211-.059.933.933,0,0,1,.513-.117c.013-.048,0-.1.051-.137.26-.24.646-.055.915-.265a.24.24,0,0,0,.225-.022c.339-.295.818.018,1.159-.269l-.015.009c.622-.414,1.378.075,2.01-.3l-.015.009a10.572,10.572,0,0,1,3.993-.009.243.243,0,0,0,.221.013.208.208,0,0,1,.091.216h.033c.17.02.339.046.509.068a.931.931,0,0,1,.873.24l.005-.009a.387.387,0,0,1,.229-.064c.132-.231.265-.461.4-.69.09-.1.181-.19.271-.291s.185-.192.276-.291.194-.187.289-.28.187-.2.276-.3.2-.174.295-.264l.745-.39.005,0a.789.789,0,0,1,.035-.26,1.428,1.428,0,0,1,.28,0,2.483,2.483,0,0,1,.024-.262,1.994,1.994,0,0,1,.276.006.807.807,0,0,0,.071-.225.69.69,0,0,0,.511-.346.684.684,0,0,0,.557-.3c.168-.009.337-.018.507-.029.031-.073.062-.154.088-.229a37.773,37.773,0,0,1,5.647.011c.016.04.038.079.059.119.037-.005.07-.024.108-.027.33.07.7-.093,1,.163l-.009,0c.324.313.835-.049,1.144.313l-.02-.016c.178.137.427.1.6.251a.136.136,0,0,0,.176.055c.225.091.5.068.672.284l-.022-.015c.179.135.45.093.591.3l-.02-.017c.178.135.452.086.588.308l-.027-.027a1.858,1.858,0,0,1,.331.251l.013.009c.128.188.408.128.533.324l-.017-.015.02.016a1.6,1.6,0,0,1,.3.251h0a.7.7,0,0,1,.335.511c.048.016.1.035.146.049l.015.011.282.088c.1.088.192.172.291.258l0,.02c.033.016.06.038.093.053a.469.469,0,0,1,.234.207l-.022-.031a.506.506,0,0,1,.3.318l-.033-.027c.309.194.379.579.644.805l.009.016c.073.11.181.2.258.309l-.009-.013a.751.751,0,0,1,.256.313c0,.009.013.011.016.02l-.009-.009c.2.126.163.392.313.542l-.007-.011a3.585,3.585,0,0,1,.542.882c.222.128.179.4.3.577l-.018-.026c.236.17.207.45.3.677a.114.114,0,0,0,.048.167c.157.165.121.414.249.591.278.214.06.608.3.838.4.827-.081,1.757.28,2.588l-.017-.024c.342.5.113,1.058.159,1.587a.567.567,0,0,1-.139.062l.038.062c.295.434.124,1.04.531,1.432a.9.9,0,0,0,.282.86,1.1,1.1,0,0,0,.262.875.541.541,0,0,0,.26.595.754.754,0,0,0,.28.569,2.191,2.191,0,0,0,1.45,1.761c.39.165.78.326,1.168.491.114.262.35.26.584.273a.552.552,0,0,0,.56.295c.2.113.4.225.6.337a1.727,1.727,0,0,1,.275-.07.542.542,0,0,1,.053.234h0c.007.011.02.015.027.028,0-.017-.005-.024,0-.039a.756.756,0,0,1,.782.049.137.137,0,0,0,.192.038c.286.19.686,0,.945.284l-.018-.013c.249.232.637.016.879.265a.117.117,0,0,0,.178.037,2.648,2.648,0,0,1,.676.236.142.142,0,0,0,.19.049c.216.1.476.082.668.243a.106.106,0,0,0,.163.044c.232.088.5.075.685.28l-.018-.015c.172.139.428.108.582.282.161.143.417.113.553.3a2.806,2.806,0,0,1,.866.59l-.024-.026a.625.625,0,0,1,.313.3l-.02-.024a.685.685,0,0,1,.3.313l-.024-.022a.57.57,0,0,1,.306.313l-.026-.026a.457.457,0,0,1,.295.331l-.038-.029c.192.06.212.225.231.39.009.042.046.068.064.106.026.009.055.015.081.026.007.04,0,.082.007.123.035.048.053.108.093.154a1.691,1.691,0,0,1,.168.022.384.384,0,0,0,.232.328.715.715,0,0,0,.34.525l.223.339a.733.733,0,0,0,.319.54.71.71,0,0,0,.287.568c-.015.214.059.474-.258.553a.374.374,0,0,0-.286-.286.374.374,0,0,0-.287-.282,1.249,1.249,0,0,0-.785-.641c-.013-.057-.02-.114-.029-.17a.657.657,0,0,1-.139-.07c-.06,0-.119.007-.176.013a.942.942,0,0,1-.024-.124l-.187-.112c-.035-.015-.071-.026-.1-.04-.081-.009-.159-.018-.24-.029l-.018-.066c-.038-.013-.073-.029-.11-.04a.688.688,0,0,1-.463-.154l-.079-.059-.1.024a1.122,1.122,0,0,0-1,.007l.018-.017c-.123.192-.335.174-.522.216a.485.485,0,0,1-.051,0l-.015.086a.332.332,0,0,0-.271.3,1.23,1.23,0,0,0,.02,1.726.327.327,0,0,0,.265.3.343.343,0,0,0,.308.264.6.6,0,0,0,.558.3,1.064,1.064,0,0,1,.053.238h0v.006c.038-.022.057-.07.1-.086.335.009.692-.135.987.141l-.013-.011c.637.362,1.391-.112,2.023.287a.113.113,0,0,0,.174.016c.377.232.866-.035,1.228.269.328.3.84-.068,1.148.313l-.035-.011c.051.035.1.068.152.106l-.026.093a.625.625,0,0,1,.756.079c.178.126.425.092.588.251a.115.115,0,0,0,.165.044c.231.1.513.064.677.3l-.024-.022c.185.126.461.075.591.306l-.026-.015a4.006,4.006,0,0,1,.893.549l-.009,0c.146.15.41.112.531.308l0,0,.007.007a.642.642,0,0,1,.324.278l-.018-.02a2.8,2.8,0,0,1,.315.269l0,0a5.66,5.66,0,0,1,1.428,1.421l.009,0c.079.112.187.2.256.315a.588.588,0,0,1,.262.313c.2.11.152.384.33.511l0,.007a1.428,1.428,0,0,1,.258.326l-.026-.022c.218.106.143.408.34.529l.013.016c.07.117.183.2.249.324l-.02-.018a.62.62,0,0,1,.183.236l.037.057.07.009c0,.027-.011.051-.011.077a1.746,1.746,0,0,1,.161.238c.015.07.024.137.035.207.044.006.088.007.132.016,0,.187,0,.373.006.564.093.006.187.006.28.006-.093.091-.185.183-.278.278-.007-.09-.013-.179-.015-.269h-.287a.314.314,0,0,1,0-.209.478.478,0,0,1-.282,0c-.059-.04-.126-.062-.189-.1l-.084.009-.011-.059a.7.7,0,0,0-.141-.075c-.163-.015-.319-.038-.4-.211l.02.024c-.194-.112-.463-.07-.6-.295l.024.018c-.187-.123-.439-.088-.6-.269-.243-.238-.622-.022-.864-.262l-.1-.053-.117.022a3.112,3.112,0,0,0-1.864-.006l-.1-.031-.093.049c-.337.315-.826-.007-1.172.275l.018-.015c-.318.361-.82.013-1.155.3l.016-.011c-.357.337-.86.042-1.239.284l-.092-.035-.084.055a10.633,10.633,0,0,1-4-.006l-.091-.051-.1.037a.18.18,0,0,1-.137-.1c-.049,0-.1-.011-.15-.015-.6-.073-1.225.163-1.8-.146l-.081-.057-.1.031c-.157,0-.2-.079-.117-.216-.038-.042-.07-.084-.106-.126-.026.077-.068.148-.088.227-.4-.062-.849.163-1.212-.179l.026.016c-.249-.211-.635-.005-.862-.28-.179-.134-.434-.1-.588-.276-.165-.148-.436-.1-.569-.308l.022.022a1.637,1.637,0,0,1-.318-.265l0,0a2.6,2.6,0,0,1-.851-.859v0a1.023,1.023,0,0,1-.254-.333l0-.006,0,0c-.192-.134-.172-.373-.267-.553-.319-.194-.064-.619-.328-.831l0,0c-.174-.163-.141-.419-.269-.6l.018.022c-.32-.205-.062-.622-.322-.855a1.883,1.883,0,0,1-.253-.672.136.136,0,0,0-.053-.178c-.156-.156-.1-.414-.265-.567a.872.872,0,0,1-.243-.319.6.6,0,0,1-.313-.293l.027.013a.2.2,0,0,1-.082-.229c-.161.143-.4.108-.564.233a.89.89,0,0,1-.269.3,2.572,2.572,0,0,0-.009,1.756l-.013-.018c.2.148.174.4.273.6.216.126.185.379.286.566.218.119.167.4.319.551l-.007-.007a.716.716,0,0,1,.267.326l.005.007,0,0c.192.11.146.383.329.5l.009.011a2.917,2.917,0,0,0,.26.3,1.26,1.26,0,0,1,.278.306l-.017-.016a.847.847,0,0,1,.3.309l-.022-.02a.715.715,0,0,1,.306.306l-.022-.02a.718.718,0,0,1,.309.3l-.02-.018a.8.8,0,0,1,.309.3l-.018-.018a1.045,1.045,0,0,1,.309.286l-.009,0a12.615,12.615,0,0,1,1.146.873l-.015-.015c.157.146.425.1.546.311a.711.711,0,0,1,.328.267l-.022-.013c-.873.853-1.871.339-2.828.26l-.086-.049-.1.031c-.289-.183-.679-.009-.948-.267l.009.007c-.225-.258-.639-.009-.846-.313-.176-.112-.423-.088-.551-.286l.007.009c-.007,0-.011-.013-.02-.016a1.069,1.069,0,0,1-.313-.243v0c-.251-.232-.608-.326-.807-.624-.295-.2-.377-.558-.628-.789l-.005-.011a2.07,2.07,0,0,1-.254-.324l.022.024c-.212-.137-.165-.408-.306-.582l.013.017c-.2-.148-.17-.4-.276-.595-.306-.192-.051-.615-.328-.82l0,0c-.159-.157-.11-.417-.28-.573a.479.479,0,0,1-.093-.538.308.308,0,0,1-.2-.287.224.224,0,0,1-.264-.059l.009.016a.982.982,0,0,1-.282-.287,1.647,1.647,0,0,1-.315-.267h0c-.135-.172-.408-.124-.522-.326a.573.573,0,0,1-.3-.264l0,0-.011-.011a1.124,1.124,0,0,1-.3-.273l.007,0a1.958,1.958,0,0,1-.833-.829,1.386,1.386,0,0,0-.048-.167l-.56-.417a.369.369,0,0,0-.271-.3.375.375,0,0,0-.264-.3c-.084-.106-.165-.212-.245-.315a.689.689,0,0,0-.366-.5.38.38,0,0,0-.238-.326,1.393,1.393,0,0,0-.564-.857,1.437,1.437,0,0,0-.586-.846.654.654,0,0,0-.32-.54c-.016-.172-.033-.344-.051-.518a1.017,1.017,0,0,1-.232-.053c-.009-.183-.02-.368-.029-.549v-.013a.356.356,0,0,1-.236-.04l.007.024c-.282-.225-.073-.61-.282-.86-.337-.348-.033-.851-.286-1.219a.142.142,0,0,0-.018-.194,2.408,2.408,0,0,1-.031-1.708c.02-.159.035-.319.053-.48a.167.167,0,0,1,.223-.167.211.211,0,0,1,.022-.214c.042-.038.084-.077.128-.115a1.543,1.543,0,0,1-.26-.135c.071-.58-.15-1.186.143-1.746.007-.165.017-.326.022-.491a4.236,4.236,0,0,0,0-2.166.125.125,0,0,0,0-.187c-.374-.436.022-1.022-.287-1.466l.018.022c-.247-.192-.17-.45-.152-.7a.646.646,0,0,1,.128-.082l-.042-.038,0,.009c-.077-.022-.152-.046-.225-.07a.749.749,0,0,0-.238-.6.724.724,0,0,0-.311-.546.665.665,0,0,0-.331-.535.373.373,0,0,0-.234-.329,1.435,1.435,0,0,0-.61-.824.366.366,0,0,0-.245-.32c-.137-.258-.273-.516-.41-.776-.075,0-.148-.016-.223-.022a.37.37,0,0,0-.253-.313c0-.059-.011-.115-.018-.174a.285.285,0,0,1-.286-.115l.015.018a1.043,1.043,0,0,1-.3-.3l.017.018a.915.915,0,0,1-.3-.309l.02.018a.812.812,0,0,1-.306-.3l.018.018a.934.934,0,0,1-.307-.3l.016.013a1.323,1.323,0,0,1-.308-.282h0a4.34,4.34,0,0,1-.837-.611l.017.018a10.976,10.976,0,0,0-1.75-.822l-.09-.049-.1.013c-.15-.011-.2-.092-.168-.229-.491-.007-.983-.027-1.474-.015a1.445,1.445,0,0,0-1.036.258c-.168.009-.337.022-.505.037.092.168.179.333.269.5v0c.342.232.685.469,1.029.7a6.4,6.4,0,0,0,1.227,1.627.394.394,0,0,0,.2.357q.17.544.337,1.08c.1.1.192.2.287.3q.038.269.077.533a.6.6,0,0,1,.212.038c.018.273.033.549.049.826l0,0,0,.055a.331.331,0,0,1,.242-.009l-.007-.026c.286.234.066.628.286.884l-.018-.026c.379.311.013.82.315,1.153l-.011-.018c.34.331.011.824.289,1.168l-.016-.024c.427.522-.042,1.2.306,1.73l-.016-.018c.443.846-.06,1.79.293,2.649a.129.129,0,0,0,.007.19c.419.827-.084,1.757.295,2.59l-.009-.011c.3.373.1.813.161,1.219-.009.059-.042.1-.053.157.064.013.124.031.189.049,0,.17.005.337.011.5l.007-.007c.154-.035.234.022.234.185a.13.13,0,0,0,.06.172c.15.159.088.419.269.566v0a.928.928,0,0,1,.247.333c.2.126.165.386.3.551l-.015-.02c.2.128.137.412.322.551l0,.007a1.422,1.422,0,0,1,.251.324l0,.006,0,0c.185.125.137.392.315.52l.006.009a2.6,2.6,0,0,1,.262.319l-.018-.018a.583.583,0,0,1,.282.33l-.033-.024c.231.11.2.309.165.507.066.005.128.011.194.022a.356.356,0,0,0,.264.307.349.349,0,0,0,.267.3.367.367,0,0,0,.267.3.351.351,0,0,0,.273.291,2.557,2.557,0,0,0,.051.271c.081.007.161.013.238.022a.385.385,0,0,0,.284.284l.295.278c.1.088.2.179.3.269a.368.368,0,0,0,.3.265c.007.042.018.084.026.126a1.113,1.113,0,0,1,.284.121l.016.009c.117.187.39.135.507.322.137.046.22.165.331.243l.011.007c.137.19.406.126.553.3s.41.112.569.265a.138.138,0,0,0,.192.046c1.15.139.73,1.031.807,1.684a1.861,1.861,0,0,1-.081.448,3.213,3.213,0,0,1,.073,1.217c.011,3.176-.017,6.35.015,9.519a26.342,26.342,0,0,0,.117,4.527l-.015-.024c.357.328.022.824.291,1.172.278.258.106.65.278.945a.1.1,0,0,0,.04.159c.168.168.128.427.253.61l-.016-.022c.2.134.179.342.2.538-.007.015-.022.024-.029.038l.113.027a.7.7,0,0,0,.289.56.633.633,0,0,0,.329.533.387.387,0,0,0,.231.333c.049.157.1.315.145.471a.334.334,0,0,1,.218.307l.264.033a.35.35,0,0,0,.278.291.352.352,0,0,0,.284.286.351.351,0,0,0,.293.276,1.305,1.305,0,0,0,.782.655l.311.243c.181.509-.373.514-.54.784a4.56,4.56,0,0,0-1.746.813.717.717,0,0,0-.575.28c-.17.026-.341.049-.511.073a.765.765,0,0,0-.068.214l-.507.071c-.018.075-.035.154-.053.227-.168.026-.339.049-.509.071l0,0-.018,0a.349.349,0,0,1-.037.247l.031-.011c-.132.218-.408.165-.58.309l.016-.011c-1.02.441-.511-.6-.827-.849l.013.018c-.39-.416.029-1.007-.306-1.439l.011.016c-.319-.37-.042-.868-.275-1.252a.1.1,0,0,0-.024-.167c-.32-.33.018-.828-.284-1.161l.005.011c-.328-.324.009-.818-.291-1.153l.005.013c-.258-.276-.1-.67-.264-.968a.111.111,0,0,0-.035-.168c-.249-.24-.049-.615-.262-.871-.275-.267-.1-.663-.275-.959a.106.106,0,0,0-.037-.163c-.251-.242-.026-.633-.276-.875l.005.013c-.265-.236-.06-.619-.275-.868-.278-.229-.07-.617-.286-.862-.284-.209-.04-.621-.308-.835h0c-.163-.167-.141-.408-.254-.595-.245-.223-.179-.485-.108-.747a.543.543,0,0,1-.2-.1c-.17-.156-.135-.41-.28-.577l.009.015c-.192-.146-.139-.419-.3-.58l.006.009c-.179-.145-.123-.414-.3-.562v0c-.24-.251-.044-.63-.262-.884l.015.022c-.4-.419.024-1.011-.307-1.443l.011.016c-.4-.524.051-1.2-.3-1.73l.015.02c-.375-.43.015-1.01-.287-1.455l.02.024c-.258-.463-.253-1.031-.567-1.47l.02.016a6.327,6.327,0,0,0-.639-.529l-.1-.059-.106.027a14.333,14.333,0,0,0-2.923-.117c-1.71-.1-3.434.2-5.135-.172-.137-.073-.282-.132-.419-.205-.232-.018-.436.146-.672.092-.584-.084-1.2.181-1.767-.172l.029.009c-.071-.044-.09-.124-.123-.2a2.688,2.688,0,0,1-1.624-.07l-.09-.057-.1.026c-.15-.049-.322-.068-.375-.256l0-.009a.715.715,0,0,1-.1.135c-.256,0-.525.077-.741-.134-.24-.242-.635-.015-.868-.289-.243-.231-.624-.02-.86-.271l-.093-.053-.1.026a14.029,14.029,0,0,0-4.106.013l.013-.007c-.154.192-.416.156-.6.282l.018-.018a.376.376,0,0,1-.524.121h0c-.1.086-.2.174-.295.265-.126.483-.595.807-.632,1.334a.524.524,0,0,0-.315.547,1.5,1.5,0,0,0-.551.871,1.254,1.254,0,0,0-.536.88.951.951,0,0,0-.2.04c-.037.168-.073.337-.11.5-.081.016-.163.033-.245.042v0l0,0c.005.1.011.194.016.295a.931.931,0,0,1-.254.077c-.037.143-.073.284-.11.425a.334.334,0,0,0-.223.335c-.071.011-.143.026-.21.038v0l-.121.494a.368.368,0,0,0-.234.33.621.621,0,0,0-.355.509.368.368,0,0,0-.232.331,1.333,1.333,0,0,0-.591.838.36.36,0,0,0-.24.324.65.65,0,0,0-.364.5.354.354,0,0,0-.245.317,1.515,1.515,0,0,0-.611.822.371.371,0,0,0-.234.324.351.351,0,0,0-.262.308,1.42,1.42,0,0,0-.621.813.36.36,0,0,0-.249.319,1.518,1.518,0,0,0-.644.791.374.374,0,0,0-.247.313.368.368,0,0,0-.262.306,1.093,1.093,0,0,0-.233.048,2.219,2.219,0,0,1-.016.271,2.362,2.362,0,0,0-.932,1.078l-.267.295-.276.295a.39.39,0,0,0-.282.289.372.372,0,0,0-.273.3.358.358,0,0,0-.28.286,1.282,1.282,0,0,0-.234.042c-.005.09-.015.185-.026.273a1.963,1.963,0,0,1-.275.013l.009,0-.016,0a.374.374,0,0,1-.005.267l0,0c-.108.082-.19.189-.287.278s-.19.192-.289.286l0,0a2.922,2.922,0,0,1-.3.286l.009-.007a1.406,1.406,0,0,1-.3.287l.013-.011a1.136,1.136,0,0,1-.3.3l.015-.017a.849.849,0,0,1-.3.205c0,.026,0,.051-.007.077-.1.084-.2.172-.3.254a.724.724,0,0,0-.518.348c-.1.09-.205.176-.306.265l-.313.251a.7.7,0,0,0-.529.331q-.11-.008-.22-.011a1.629,1.629,0,0,1-.657.567l.017-.009c-.132.2-.416.135-.558.317l0,0a2.574,2.574,0,0,1-.313.267l.017-.02c-.13.205-.414.139-.551.324l-.009.006a2.638,2.638,0,0,1-.313.258l.016-.016c-.137.2-.41.152-.573.306a6.586,6.586,0,0,1-.868.564l.016-.009c-.141.2-.414.146-.58.3l.013-.005c-.146.185-.416.134-.575.3l.007-.005c-.148.178-.417.123-.569.3h0c-.161.165-.421.121-.582.28l.007-.009c-.172.187-.438.156-.639.273l-.11-.006-.1.038c-.262.236-.646.048-.917.256l-.112-.015-.108.035a5.911,5.911,0,0,1-2.856,0l-.112-.035-.114.016a1.336,1.336,0,0,0-1.215.011l.009-.011a.467.467,0,0,1-.535.1c-.009.07-.02.137-.029.207-.112.079-.221.156-.333.233a.677.677,0,0,0-.538.319.721.721,0,0,0-.549.309c-.1.088-.212.168-.317.253a.657.657,0,0,0-.546.313c-.11.077-.221.154-.329.231a.708.708,0,0,0-.522.344l-.319.245a.643.643,0,0,0-.542.322c-.1.084-.209.165-.313.251a1.135,1.135,0,0,0-.84.589c-.106.082-.214.163-.322.243a1.226,1.226,0,0,0-.829.6c-.1.084-.205.167-.309.256-.163.044-.322.1-.483.145h0c-.108.157-.216.32-.322.481a.388.388,0,0,0-.322.249c-.1.082-.207.168-.309.253a1.3,1.3,0,0,0-.793.644.375.375,0,0,0-.306.262.384.384,0,0,0-.306.267c-.1.09-.2.176-.3.269s-.192.189-.287.28-.2.187-.291.282-.185.192-.273.287c-.082.013-.163.026-.245.035a2.679,2.679,0,0,0-.022.276,2.294,2.294,0,0,0-.229.037l-.011.011c.179.291.168.7.546.868l-.011-.011c.234.256.65-.029.864.289l-.007-.007c.439.322,1.01-.059,1.446.273a.242.242,0,0,0,.223.024c.146.024.168.1.084.214l-.011.022a1.339,1.339,0,0,1,.357-.113,7.226,7.226,0,0,1,2.2.139c.265.007.531.013.8.022a36.96,36.96,0,0,0,4.785.123.864.864,0,0,1,.423.124c.145-.167.4-.1.557-.256.234-.269.626-.049.868-.282.214-.275.621-.031.837-.3l0,0c.159-.161.419-.112.571-.284h0a1.191,1.191,0,0,1,.32-.262l-.02.018c.13-.216.41-.159.577-.309l-.013.011c.134-.2.414-.132.549-.317l.009-.007c.108-.081.2-.185.306-.267l-.011.013a.916.916,0,0,1,.313-.286l-.022.018c.134-.212.416-.148.573-.311l-.009.007a.157.157,0,0,1,.256,0,.483.483,0,0,1,.117.227.149.149,0,0,1,.181.066l-.015-.022c.482.256-.362,1.589.948,1.161a.293.293,0,0,0,.223-.048.97.97,0,0,1,.372-.236.23.23,0,0,0,.2-.048c.82.476.341,1.137.258,1.741a.239.239,0,0,0,0,.214c-.317.557.079,1.223-.262,1.774a.3.3,0,0,0-.017.222.874.874,0,0,1-.28.32,6.594,6.594,0,0,1-3.1.022,1.858,1.858,0,0,1-.229.141,12.2,12.2,0,0,0-2.708.128l-.113-.024-.106.037c-.384.276-.824.1-1.234.148a1.1,1.1,0,0,0-.2.022c-.013.033-.026.068-.04.1l-.121-.006-.117.033a.69.69,0,0,1-.712.038l-.009,0a.393.393,0,0,1-.361-.024.188.188,0,0,1-.117.238l-.119-.007-.108.037c-.26.234-.639.037-.9.262l-.126-.007-.117.037c-.337.28-.815-.033-1.146.265l.005,0c-.256.254-.646.064-.921.269l-.113-.009-.1.042c-.247.238-.63.026-.875.265l.016-.013c-.317.344-.82-.011-1.142.309l0,0c-.238.251-.626.038-.873.275l.017-.013c-.254.284-.654.084-.932.284l-.1-.009-.1.04a.788.788,0,0,1-.76.079,1.074,1.074,0,0,1,.024-.15.414.414,0,0,0-.081.11l-.007.007a1.486,1.486,0,0,1-.038.231l-.3-.007c-.055.026-.106.062-.163.088-.137.062-.278.115-.412.189l.022-.009c-.313.359-.822,0-1.148.311l.009-.007c-.236.265-.626.049-.875.282l.016-.013a.476.476,0,0,1-.551.115.784.784,0,0,1-.046-.119c-.081.022-.159.042-.238.068a1.4,1.4,0,0,1-.037.227,1.105,1.105,0,0,0-.859.273c-.181.011-.361.024-.544.037-.029-.077-.057-.154-.084-.233l-.452-.091a.381.381,0,0,0-.313-.254.374.374,0,0,0-.289-.28c-.088-.1-.178-.205-.265-.306a.373.373,0,0,0-.271-.295c-.007-.093-.015-.189-.02-.282-.079-.007-.157-.02-.236-.035a1.36,1.36,0,0,0-.642-.787l-.256-.308c0-.1-.007-.192-.013-.286-.077-.015-.154-.027-.231-.046a.687.687,0,0,0-.344-.509c-.079-.115-.156-.223-.231-.335-.035-.161-.071-.322-.106-.487-.073-.017-.15-.035-.223-.048,0-.461.005-.93.007-1.393a1.156,1.156,0,0,0,.282-.857,1.061,1.061,0,0,0,.313-.835c.1-.108.192-.216.289-.324-.016-.1-.035-.187-.053-.286a1.536,1.536,0,0,1,.24-.042c.035-.258.07-.511.1-.769a.727.727,0,0,0,.273-.578.7.7,0,0,0,.265-.59.647.647,0,0,0,.286-.569.64.64,0,0,0,.26-.586.687.687,0,0,0,.282-.577.621.621,0,0,0,.293-.566.626.626,0,0,0,.284-.566.658.658,0,0,0,.284-.577.655.655,0,0,0,.306-.547c.081-.018.165-.033.247-.044h0c.015-.178.029-.351.042-.531a.669.669,0,0,0,.3-.555.747.747,0,0,0,.3-.562.806.806,0,0,0,.291-.568c.7-.791.956-1.849,1.607-2.673v0a8.172,8.172,0,0,1,.787-1.668,2.347,2.347,0,0,0,.353-.95c-1.38.007-1.9-1.227-2.784-1.928l.017.022a.657.657,0,0,1-.308-.3l.018.018a.748.748,0,0,1-.306-.3l.018.016a.878.878,0,0,1-.308-.295l.015.016a1.025,1.025,0,0,1-.3-.3l.018.013a.735.735,0,0,1-.194-.28l-.1-.009c-.092-.1-.185-.192-.278-.291s-.189-.19-.282-.286l-.28-.293-.287-.28-.278-.287c0-.033,0-.066,0-.1a.46.46,0,0,1-.289-.211l.017.035c-.216-.112-.143-.408-.339-.535l-.011-.016a1,1,0,0,1-.234-.392.17.17,0,0,0-.04-.185,1.284,1.284,0,0,1-.044-1.069c-.077-.029-.165-.046-.207-.134a.215.215,0,0,0-.026-.222c-.355-.76.068-1.6-.254-2.369-.007-.159-.013-.317-.015-.474-.295-.487-.123-1.022-.148-1.534a52.079,52.079,0,0,0-.126-5.4c0-.159,0-.322,0-.483a8.619,8.619,0,0,1-.161-2.546l.033-.271c-.053-.02-.1-.042-.159-.06a.9.9,0,0,0-.3-.846.632.632,0,0,0-.295-.562c-.071-.115-.143-.231-.214-.348a.691.691,0,0,0-.353-.511c-.079-.11-.157-.218-.238-.333-.086-.1-.17-.205-.253-.306a1.235,1.235,0,0,0-.654-.782.394.394,0,0,0-.282-.295A.364.364,0,0,0-228.926,223.577Z" transform="translate(282.822 -174.934)" fill="#fefefe"/>
    <path id="Path_60" data-name="Path 60" d="M-175.548,199.077a.665.665,0,0,0-.267-.591c-.013-.366-.027-.74-.044-1.113a.75.75,0,0,0,.339-.514c.082-.015.163-.026.247-.033l.011-.016a1.7,1.7,0,0,1,.009-.256,1.479,1.479,0,0,1,.256-.02l.007-.011a1.8,1.8,0,0,1,.015-.264c.084-.007.17-.015.258-.02h0a1.675,1.675,0,0,0,.046-.251.353.353,0,0,0,.295-.269c.1-.086.2-.174.3-.264a1.521,1.521,0,0,0,.787-.65,2.061,2.061,0,0,0,.236-.018c.018-.09.037-.174.053-.262a1.994,1.994,0,0,1,.276-.007h0c.011-.084.02-.168.033-.254a2.5,2.5,0,0,1,.262-.013l.009,0a2.209,2.209,0,0,1,.018-.267.353.353,0,0,0,.28-.287.364.364,0,0,0,.256-.311.636.636,0,0,0,.322-.54c.157-.079.317-.152.472-.229.038.126.079.26.117.388.081.031.163.062.245.092-.005.1-.009.2-.015.295h0c.077.02.15.042.225.06.022.17.042.339.06.511h0a1.8,1.8,0,0,1,.242.042.932.932,0,0,1-.037.242l.09.273c.081.015.161.026.24.048a1.089,1.089,0,0,1-.042.245c.038.092.075.183.112.278.077.009.152.018.227.031a.669.669,0,0,0,.3.564.627.627,0,0,0,.3.558.381.381,0,0,0,.218.34.652.652,0,0,0,.335.525.382.382,0,0,0,.256.319.379.379,0,0,0,.278.293.372.372,0,0,0,.313.254,1.007,1.007,0,0,0,.042.2.524.524,0,0,1,.547.048.3.3,0,0,0,.232.046c1.324.71,1.552.423.408,1.964a1.218,1.218,0,0,1-.655.516l-.035.031a1.332,1.332,0,0,1-.782.619l-.013-.013c-.668.664-1.336,1.324-2,1.986a.38.38,0,0,1-.276.293,4.566,4.566,0,0,1-1.664,1.485,6.01,6.01,0,0,1-2.34.941,1.123,1.123,0,0,1-1.428-1.131,3.714,3.714,0,0,1,.271-2.2,3.214,3.214,0,0,1,.231-1.089,1.887,1.887,0,0,0-.176-1.741A1.025,1.025,0,0,0-175.548,199.077Z" transform="translate(223.753 -175.25)" fill="#fefefe"/>
    <path id="Path_61" data-name="Path 61" d="M-220.909,228.973c.007-.363.013-.732.024-1.1.079-.11.156-.216.234-.328a.372.372,0,0,0,.282-.287.364.364,0,0,0,.295-.275.374.374,0,0,0,.306-.258,1.224,1.224,0,0,1,.271,0,1.639,1.639,0,0,0,.066-.242.657.657,0,0,0,.494-.362.369.369,0,0,0,.331-.229.677.677,0,0,0,.531-.335.368.368,0,0,0,.339-.222l.736-.315a.458.458,0,0,1,.67.214,2,2,0,0,0,.249.311.666.666,0,0,0,.236.606,1.167,1.167,0,0,0,.3.851,1.176,1.176,0,0,0,.275.862,1.2,1.2,0,0,0,.282.859.836.836,0,0,0,.19.659,1.626,1.626,0,0,1,.375,1.825c-.1.084-.207.17-.308.256s-.19.181-.286.273a.765.765,0,0,1-.232.016,4.889,4.889,0,0,1-2.535,1.781.521.521,0,0,1-.564.306.838.838,0,0,1-.029.251c-.112.075-.229.147-.34.218a.708.708,0,0,0-.529.335.791.791,0,0,0-.582.262l-.1-.026-.1.016c-.093-.088-.189-.181-.282-.271a2.117,2.117,0,0,0-.326-1.1c-.017-.549-.033-1.1-.05-1.644l0-.037a.2.2,0,0,1-.227-.1c-.016-.165-.029-.328-.042-.492.013-.663.026-1.327.042-1.994C-220.909,229.169-220.909,229.069-220.909,228.973Z" transform="translate(354.969 -148.379)" fill="#fefefe"/>
    <path id="Path_62" data-name="Path 62" d="M-149.252,216.827c.073,0,.145,0,.216.005,0-.018-.011-.031-.007-.049a.972.972,0,0,1,.439-.286c.053-.022.106-.04.157-.064l.042-.016c.015-.053.026-.1.042-.156a1.48,1.48,0,0,1,.231.048,5.54,5.54,0,0,1,2.175-.968.774.774,0,0,1,.679-.258h0a8.391,8.391,0,0,1,3.65-.882,2.915,2.915,0,0,1,1.362.295,1.7,1.7,0,0,1,1.075,1.77,3.939,3.939,0,0,1-.882,2.477c-.231.291-.425.613-.633.925a9.359,9.359,0,0,1-2,1.988h0a2.039,2.039,0,0,1-.309.28l.017-.015a.831.831,0,0,1-.308.271.467.467,0,0,1-.313.278c-.1.211-.379.163-.516.33l0,0a.973.973,0,0,1-.315.244c-.009,0-.013.013-.022.016l.009-.007c-.128.2-.39.161-.549.308l.015-.015c-.146.2-.416.152-.588.3l.016-.009a.42.42,0,0,1-.56.1.617.617,0,0,1-.024-.068,1.1,1.1,0,0,1-.772-.192c-.291-.145-.589-.284-.882-.425-.469-.476-.934-.956-1.4-1.435a1.274,1.274,0,0,0-.566-.857.607.607,0,0,0-.278-.573c-.031-.245-.066-.492-.1-.734a1.071,1.071,0,0,1-.238-.081c.006-.459.013-.919.018-1.38Q-149.809,217.4-149.252,216.827Z" transform="translate(150.674 -157.319)" fill="#fefefe"/>
  </g>
</svg>
