<svg xmlns="http://www.w3.org/2000/svg" width="182" height="38" viewBox="0 0 182 38">
  <g id="Group_3" data-name="Group 3" transform="translate(-363 -370)">
    <rect id="Rectangle_1" data-name="Rectangle 1" width="182" height="36" transform="translate(363 370)" fill="none"/>
    <path id="Subtraction_1" data-name="Subtraction 1" d="M18,30H0V1H18V30ZM5.782,19.681h6.531L13.946,24h2L10.013,8.6H8.144L2.237,24H4.245l1.536-4.318Zm5.94-1.622H6.383l2.4-6.564a5.755,5.755,0,0,0,.247-1.03h.043a6.171,6.171,0,0,0,.237,1.03l2.416,6.562Z" transform="translate(365 373)" fill="#ff1d50"/>
    <path id="Subtraction_2" data-name="Subtraction 2" d="M18,30H0V1H18V30ZM4.739,10.755H4.8a5.232,5.232,0,0,0,.494.967L13.225,24h2.213V8.6h-1.8V19.445a16.1,16.1,0,0,0,.107,2.266H13.7c-.091-.182-.294-.519-.623-1.031L5.361,8.6H3.02V24h1.8V12.871a16.092,16.092,0,0,0-.085-2.115Z" transform="translate(385 373)" fill="#ff1d50"/>
    <path id="Subtraction_4" data-name="Subtraction 4" d="M18,30H0V1H18V30ZM4.019,8.6V24H8.1a8.426,8.426,0,0,0,6.053-2.165A7.6,7.6,0,0,0,16.416,16.1a7.323,7.323,0,0,0-2.036-5.632C13.03,9.227,10.975,8.6,8.274,8.6Zm4.1,13.771h-2.3V10.229H8.231a6.7,6.7,0,0,1,4.721,1.48,5.838,5.838,0,0,1,1.574,4.44,6.1,6.1,0,0,1-1.687,4.6A6.55,6.55,0,0,1,8.123,22.367Z" transform="translate(405 373)" fill="#ff1d50"/>
    <text id="All_News_Deck" data-name="All News Deck" transform="translate(427 403)" font-size="18" font-family="Roboto-Regular, Roboto"><tspan x="0" y="0">All News Deck</tspan></text>
    <path id="Subtraction_5" data-name="Subtraction 5" d="M18,30H0V1H18V30ZM5.782,19.681h6.531L13.946,24h2L10.013,8.6H8.144L2.237,24H4.245l1.536-4.318Zm5.94-1.622H6.383l2.4-6.564a5.755,5.755,0,0,0,.247-1.03h.043a6.171,6.171,0,0,0,.237,1.03l2.416,6.562Z" transform="translate(365 373)" fill="#ff1d50"/>
  </g>
</svg>
