<svg xmlns="http://www.w3.org/2000/svg" width="18.772" height="19.471" viewBox="0 0 18.772 19.471">
  <path id="setting" d="M16.787,2.141a7.551,7.551,0,0,0,0-2.759l1.464-.73a1.039,1.039,0,0,0,.435-1.265,10.19,10.19,0,0,0-1.829-2.859A1.04,1.04,0,0,0,15.54-5.7l-1.265.73A7.546,7.546,0,0,0,11.89-6.351v-1.46a1.044,1.044,0,0,0-.869-1.026,9.912,9.912,0,0,0-3.3,0,1.035,1.035,0,0,0-.852,1.021v1.464A7.466,7.466,0,0,0,4.481-4.969L3.216-5.7a1.039,1.039,0,0,0-1.317.23A10.2,10.2,0,0,0,.065-2.609a1.036,1.036,0,0,0,.456,1.26l1.447.734a7.529,7.529,0,0,0,0,2.755l-1.447.73A1.049,1.049,0,0,0,.065,4.135,10.244,10.244,0,0,0,1.9,6.99a1.04,1.04,0,0,0,1.317.23L4.481,6.5A7.547,7.547,0,0,0,6.866,7.873v1.46a1.044,1.044,0,0,0,.869,1.026,9.773,9.773,0,0,0,3.3,0,1.04,1.04,0,0,0,.856-1.026V7.873A7.464,7.464,0,0,0,14.276,6.5l1.265.73a1.039,1.039,0,0,0,1.317-.23,10.259,10.259,0,0,0,1.851-2.859,1.045,1.045,0,0,0-.456-1.265Zm-5.11.917C8.331,5.63,4.511,1.81,7.084-1.536,10.43-4.108,14.25-.288,11.677,3.058Z" transform="translate(0 8.973)" fill="#121213"/>
</svg>
