<?xml version="1.0" encoding="utf-8"?>
<!-- Generator: Adobe Illustrator 22.1.0, SVG Export Plug-In . SVG Version: 6.00 Build 0)  -->
<svg version="1.1" id="Layer_1" xmlns="http://www.w3.org/2000/svg" xmlns:xlink="http://www.w3.org/1999/xlink" x="0px" y="0px"
	 viewBox="0 0 51.3 54.2" style="enable-background:new 0 0 51.3 54.2;" xml:space="preserve">
<style type="text/css">
	.st0{fill:#FFFFFF;}
</style>
<g>
	<path class="st0" d="M44.2,40.5c-0.2-0.1-0.4,0-0.6-0.1c-0.1-0.1-0.2-0.1-0.3,0c0,0,0,0,0,0c0,0-0.1-0.1-0.1-0.1
		c-0.1,0-0.2,0-0.3-0.1c-0.1,0-0.2,0-0.3-0.1c-0.1-0.1-0.3-0.1-0.4-0.2c-0.1,0-0.2,0-0.2-0.1l-0.2,0c0,0-0.1-0.1-0.1-0.1
		c-0.2-0.1-0.4-0.2-0.6-0.3l-0.2,0c0,0,0-0.1,0-0.1c-0.2,0-0.4-0.1-0.5-0.2c-0.1,0-0.2,0-0.2-0.1l-0.2,0c0,0,0-0.1,0-0.1l-0.2,0
		c0,0,0-0.1,0-0.1l-0.3-0.1c0,0,0-0.1,0-0.1c-0.1,0-0.2,0-0.2-0.1c-0.1,0-0.2,0-0.3,0l0,0c0,0,0-0.1,0-0.1c0,0-0.1,0-0.1-0.1l0,0
		l0,0c0,0,0,0-0.1,0c0,0-0.1,0-0.1,0c0,0,0,0,0,0c-0.1,0-0.1-0.1-0.2,0c0,0,0,0,0,0l-0.4,0h0c0,0,0-0.1,0-0.1c-0.2,0-0.4,0-0.6,0
		c0,0-0.1,0-0.1,0c-0.1,0.1-0.2,0-0.3,0.1c-0.1,0.1-0.2,0-0.3,0.1c-0.1,0-0.2,0-0.2,0.1c-0.1,0.1-0.2,0-0.2,0.1l0,0
		c-0.1,0-0.1,0.1-0.1,0.1c0,0,0,0-0.1,0c0,0.1-0.1,0.1-0.1,0.1c0,0,0,0.1,0,0.1l-0.2,0L35.2,39c-0.1,0.1-0.2,0.2-0.3,0.2
		c-0.1,0.2-0.3,0.3-0.5,0.4c0,0,0,0,0,0c-0.1-0.1-0.1-0.2,0-0.3c0.1-0.1,0.3-0.1,0.3-0.3c0,0,0.1,0,0.1,0c0,0,0-0.1,0-0.1
		c0,0,0.1,0,0.1,0c0-0.1,0-0.1,0-0.2c0,0,0,0,0,0c0,0,0.1-0.1,0.1-0.1v0c0.1-0.1,0-0.2,0.1-0.3l0,0c0.2-0.2,0-0.5,0.1-0.7
		c0,0,0-0.1,0-0.1c0,0,0,0,0,0c0-0.6,0.1-1.3,0-1.9c0,0,0-0.1,0-0.1c0,0-0.1,0-0.1,0v0c0-0.2,0-0.4,0-0.6C35,34.6,35,34.4,35,34.2
		c0,0-0.1,0-0.1,0c0-0.1,0-0.1,0-0.2c-0.1-0.5-0.2-1-0.3-1.5c-0.1-0.1-0.2-0.3-0.2-0.4c0,0-0.1,0-0.1,0c0-0.1,0-0.1,0-0.2
		c0,0-0.1,0-0.1,0c0-0.1,0-0.1,0-0.2c-0.1-0.2-0.2-0.4-0.3-0.6c-0.1,0-0.1-0.1-0.1-0.2c-0.1-0.1-0.2-0.3-0.2-0.5
		c-0.1-0.2-0.2-0.3-0.2-0.5c-0.1-0.1-0.1-0.2-0.1-0.3c-0.1-0.1-0.1-0.1-0.1-0.2C33,29.1,33,29,33,28.9c-0.1-0.1-0.1-0.2-0.1-0.3
		c-0.1,0-0.1-0.1-0.2-0.1c0,0.1,0,0.2-0.1,0.3c0,0.1,0,0.2-0.1,0.2c0,0.1,0,0.2-0.1,0.2c0,0.1,0,0.2-0.1,0.2c0,0.1,0,0.1-0.1,0.1
		c0,0.1,0,0.2-0.1,0.2c0,0.1,0,0.2-0.1,0.2c0,0.1-0.1,0.3-0.2,0.3c0,0.1,0,0.1,0,0.2c0,0-0.1,0-0.1,0c0,0.1-0.1,0.3-0.2,0.3
		c0,0.1,0,0.2-0.1,0.2c0,0.1-0.1,0.3-0.2,0.3c0,0.1,0,0.2-0.1,0.2c0,0.1,0,0.2-0.1,0.2c0,0.1,0,0.2-0.1,0.2c0,0.1-0.1,0.3-0.2,0.3
		c0,0.1,0,0.2-0.1,0.2c0,0.1,0,0.1,0,0.2c0,0-0.1,0-0.1,0c-0.1,0.2-0.1,0.3-0.1,0.5c0,0-0.1,0-0.1,0c0,0.1,0,0.2-0.1,0.2
		c0,0.1,0,0.2-0.1,0.3c0,0.1,0,0.2,0,0.3v0c0,0-0.1,0-0.1,0c0,0,0,0.1,0,0.1c-0.1,0.1,0,0.3-0.1,0.4h0c0,0.3,0,0.6,0,0.9
		c0,0.2,0,0.4,0.1,0.6c0,0.1,0,0.3,0,0.4c0,0,0,0.1,0,0.1c0.1,0.1,0,0.2,0.1,0.3v0c0.1,0.1,0,0.2,0.1,0.2c0.1,0.1,0,0.2,0.1,0.3v0
		c0.1,0.1,0,0.2,0.1,0.2c0.1,0.1,0,0.2,0.1,0.3l0,0c0,0.1,0,0.2,0.1,0.2c0,0,0.1,0,0.1,0c0,0.1,0,0.1,0,0.2c0,0,0.1,0.1,0.1,0.1
		c0,0.1,0,0.1,0,0.2c0,0,0.1,0,0.1,0h0h0c-0.1,0.1,0,0.2,0,0.3v0c0,0.1,0,0.2,0.1,0.2c0.1,0.1,0,0.1,0.1,0.2c0,0,0,0.1,0,0.1
		c0.1,0.1,0.1,0.1,0.1,0.2l0.1,0c0,0.1,0,0.1,0,0.2c0.1,0.1,0.1,0.1,0.1,0.2l0,0c0,0,0.1,0.1,0.1,0.1c0,0,0,0,0,0.1
		c0,0,0,0.1,0.1,0.1c0,0,0,0,0,0c0,0,0,0,0,0c0,0,0,0.1,0,0.1c0,0,0.1,0,0.1,0c0,0.1,0,0.1,0,0.2c0.1,0.1,0.1,0.2,0.1,0.3
		c0,0-0.1,0-0.1,0c0,0.1-0.1,0.2-0.2,0.3c0,0.1,0,0.1-0.1,0.1c0,0.1,0,0.1-0.1,0.1c0,0.1,0,0.1-0.1,0.1c0,0.1,0,0.1-0.1,0.1
		c-0.1,0.1-0.1,0.1-0.2,0.2l-0.1,0.1c0,0.1-0.1,0.1-0.1,0.1c0,0.1-0.1,0.1-0.1,0.1c0,0.1-0.1,0.1-0.1,0.1l-0.1,0.2
		c-0.1,0-0.1,0-0.2,0.1c0,0.1-0.1,0.1-0.1,0.1c0,0.1-0.1,0.1-0.2,0.1c0,0-0.1,0.1-0.1,0.1c0,0.1-0.1,0.1-0.2,0.1
		c0,0.1-0.1,0.1-0.2,0.1c0,0.1-0.1,0.1-0.2,0.1c-0.1,0.1-0.1,0.1-0.2,0.1c-0.1,0.1-0.2,0-0.2,0.1c-0.1,0.1-0.2,0-0.3,0.1
		c-0.1,0.1-0.2,0.1-0.3,0.1l0,0c-0.1,0.1-0.2,0-0.3,0.1h0c-0.1,0.1-0.3,0-0.4,0.1c0,0,0,0-0.1,0c0,0-0.1,0-0.1,0.1c0,0,0,0,0,0
		c-0.2-0.1-0.4-0.1-0.6,0c0,0-0.1,0-0.1,0c0,0,0,0,0,0c-0.1,0.1-0.3,0.1-0.5,0.1c-0.4,0-0.8,0-1.3,0l-0.2-0.1c0,0-0.1,0-0.1,0
		c-0.1-0.1-0.3,0-0.5-0.1c0,0,0,0-0.1,0c0,0,0,0,0,0c-0.1-0.1-0.2,0-0.3-0.1h0c-0.1-0.1-0.2,0-0.3-0.1h0c-0.1-0.1-0.2-0.1-0.2,0
		c0,0,0,0,0,0l-0.1-0.1c-0.2-0.1-0.4-0.2-0.6-0.3l-0.2,0c0-0.1-0.1-0.1-0.1-0.2c-0.1,0-0.2,0-0.2-0.1l-0.3-0.1
		c0-0.1-0.1-0.1-0.1-0.2c-0.1,0-0.1,0-0.1-0.1c-0.1,0-0.2-0.1-0.3-0.2c-0.1,0-0.1,0-0.1-0.1c-0.1,0-0.1,0-0.1-0.1
		c-0.1-0.1-0.1-0.1-0.2-0.2c-0.1,0-0.1,0-0.1-0.1c-0.1,0-0.1-0.1-0.1-0.1c-0.1,0-0.1-0.1-0.1-0.1c-0.1,0-0.1-0.1-0.1-0.1
		c-0.1-0.1-0.1-0.1-0.2-0.2c-0.1-0.1-0.2-0.2-0.2-0.3c0,0-0.1,0-0.1,0c0,0,0-0.1,0-0.1c-0.1,0-0.1-0.1-0.1-0.1l-0.1-0.1
		c-0.1,0-0.1-0.1-0.1-0.2c-0.1,0-0.1-0.1-0.1-0.1l-0.1,0c0,0,0-0.1,0-0.1c-0.1,0-0.1-0.1-0.1-0.2c-0.1,0-0.1-0.1-0.1-0.1
		c-0.1,0-0.1-0.1-0.1-0.2c0,0-0.1-0.1-0.1-0.1c-0.1,0-0.1-0.1-0.1-0.2c0,0-0.1-0.1-0.1-0.1c-0.1,0-0.1-0.1-0.1-0.2
		C18,39,18,39,18,38.9c0,0-0.1-0.1-0.1-0.1c-0.1-0.1-0.2-0.3-0.2-0.4c-0.1,0-0.1-0.1-0.1-0.2c-0.1-0.1-0.1-0.1-0.1-0.2
		c-0.1-0.1-0.1-0.1-0.1-0.2c-0.1-0.1-0.1-0.1-0.1-0.2c0,0-0.1,0-0.1,0c0-0.1,0-0.1,0-0.2c0,0-0.1,0-0.1,0c0-0.1,0-0.1,0-0.2
		c-0.1-0.1-0.1-0.1-0.1-0.2c-0.1-0.1-0.1-0.1-0.1-0.2l0,0c0,0,0,0,0-0.1c0,0,0,0,0-0.1c0,0,0,0,0,0c0,0,0,0,0-0.1c0,0,0,0,0-0.1
		c0,0,0,0-0.1,0c0,0,0-0.1,0-0.1c0,0,0,0,0-0.1c0-0.1,0-0.2-0.1-0.2l0,0c-0.1-0.1,0-0.2-0.1-0.2c-0.1-0.1,0-0.2-0.1-0.3v0
		c-0.1-0.1,0-0.2-0.1-0.3l0,0c0,0-0.1-0.1-0.1-0.1c0-0.1,0-0.1,0-0.2C16,34.7,16,34.6,16,34.5c-0.1-0.1-0.1-0.2-0.1-0.3
		c-0.1-0.2-0.1-0.4-0.2-0.6l-0.1,0c0,0,0,0,0,0c0-0.1,0-0.2-0.1-0.3c-0.1-0.1,0-0.3-0.1-0.4v0c0,0-0.1,0-0.1,0c0,0,0-0.1,0-0.1
		c0,0,0,0,0,0c0-0.1,0-0.2,0-0.2c-0.1-0.2,0-0.4-0.1-0.5v0c-0.1-0.2,0-0.4-0.1-0.6c0,0,0-0.1,0-0.1c0,0-0.1,0-0.1,0c0,0,0-0.1,0-0.1
		c0-0.8,0-1.7,0-2.5c0-0.1,0-0.3,0.1-0.5c0,0,0-0.1,0-0.1c0-0.4,0-0.7,0.1-1.1c0-0.4,0-0.8,0-1.3c-0.1-0.3-0.1-0.6-0.1-1L15,24.6
		c0,0,0,0,0-0.1c0-0.1,0-0.3,0-0.4c0,0,0,0,0-0.1c-0.1-0.1,0-0.3-0.1-0.5l0,0c-0.1-0.1,0-0.2-0.1-0.3c-0.1-0.1-0.2,0-0.2,0.1
		c-0.1,0.1,0,0.2-0.1,0.3c-0.1,0.1-0.1,0.2-0.1,0.2l0,0c-0.1,0.1-0.1,0.1-0.1,0.2l0,0v0c-0.1,0.1-0.1,0.2-0.1,0.3l0,0l-0.2,0.2
		c0,0,0,0.1,0,0.1c0,0,0,0.1,0,0.1c0,0-0.1,0-0.1,0c0,0.1,0,0.2-0.1,0.2c0,0.1,0,0.2-0.1,0.2c0,0.1,0,0.1-0.1,0.1
		c0,0.1-0.1,0.2-0.1,0.2c0,0.1,0,0.1-0.1,0.1c0,0.1-0.1,0.2-0.2,0.3c0,0.1,0,0.1-0.1,0.1c0,0-0.1,0.1-0.1,0.1s-0.1,0.1-0.1,0.1
		c-0.2,0.3-0.5,0.6-0.9,0.9L12,27.3l-0.1,0.1c0,0.1-0.1,0.1-0.1,0.1c0,0.1-0.1,0.1-0.1,0.1c0,0,0,0.1,0,0.1l-0.3,0.1
		c0,0.1-0.1,0.1-0.1,0.1c-0.1,0.1-0.2,0.2-0.3,0.2c0,0,0,0.1,0,0.1c0,0-0.1,0-0.1,0c0,0.1-0.1,0.1-0.2,0.1l-0.1,0.1
		c0,0.1-0.1,0.1-0.2,0.1c0,0-0.1,0.1-0.1,0.1c0,0.1-0.1,0.1-0.2,0.1c0,0.1-0.1,0.1-0.2,0.1L9.6,29c0,0.1-0.1,0.1-0.2,0.1
		c0,0.1-0.1,0.1-0.2,0.1c0,0.1-0.1,0.1-0.2,0.1l-0.1,0.1c0,0,0,0.1,0,0.1l-0.2,0c0,0,0,0.1,0,0.1c-0.1,0-0.1,0-0.2,0l0,0.1l-0.2,0
		c0,0.1-0.1,0.1-0.2,0.1C8,29.9,7.9,30,7.8,30c0,0.1-0.1,0.1-0.2,0.1c-0.1,0.1-0.2,0.1-0.3,0.1c-0.1,0.1-0.3,0.1-0.4,0.1
		c-0.3,0.1-0.7,0.1-1,0l-0.4,0c0,0,0-0.1,0-0.1l-0.2,0c0,0,0-0.1,0-0.1c-0.1,0-0.2,0-0.2-0.1l-0.2,0c0,0,0-0.1,0-0.1
		c-0.1,0-0.1,0-0.1-0.1H4.6c0,0,0-0.1,0-0.1l-0.1,0c0,0,0-0.1,0-0.1c-0.1,0-0.1-0.1-0.1-0.1c-0.1,0-0.1-0.1-0.1-0.1
		c-0.1,0-0.1-0.1-0.1-0.2c0,0-0.1-0.1-0.1-0.1C4,28.9,4,28.9,4,28.8c-0.1,0-0.1-0.1-0.1-0.2c-0.1-0.1-0.1-0.3-0.1-0.4l0.1,0
		C3.9,28.1,3.9,28,4,28c0.2-0.1,0.2-0.1,0.2,0.1c0,0.1,0,0.2,0,0.2l0.1,0c0,0.1,0,0.1,0,0.2c0.1,0.1,0.2,0.2,0.2,0.3l0.4,0.2
		c0,0,0,0,0,0c0,0,0,0.1,0,0.1c0,0,0.1,0.1,0.1,0.1l0,0c0.1,0.1,0.2,0.1,0.2,0.1l0,0l0,0c0.4,0.1,0.8,0.1,1.2,0l0,0
		c0.1-0.1,0.3,0,0.4-0.1l0,0c0.1-0.1,0.2,0,0.3-0.1l0,0h0c0.1,0,0.2,0,0.2-0.1c0.1-0.1,0.2,0,0.3-0.1l0,0c0,0,0.1-0.1,0.1-0.1l0,0
		l0.1,0c0.1-0.1,0.2-0.2,0.3-0.2c0-0.1,0.1-0.1,0.2-0.1c0-0.1,0.1-0.1,0.2-0.1c0,0,0.1-0.1,0.1-0.1l0-0.1c0.1,0,0.2-0.1,0.3-0.2l0,0
		c0,0,0.1-0.1,0.1-0.1c0,0,0-0.1,0.1-0.1l0.1,0c0.1-0.1,0.2-0.1,0.2-0.2c0.1-0.1,0.2-0.2,0.3-0.2l0.1-0.1c0-0.1,0.1-0.1,0.1-0.1
		c0-0.1,0.1-0.1,0.1-0.1c0-0.1,0.1-0.1,0.1-0.1c0.2-0.3,0.4-0.5,0.7-0.7l0.1-0.1l0.1-0.1c0-0.1,0.1-0.1,0.1-0.1
		c0-0.1,0.1-0.1,0.1-0.1c0,0,0-0.1,0-0.1l0.1,0c0-0.1,0-0.1,0.1-0.1c0-0.1,0-0.1,0.1-0.1l0.1-0.1c0,0,0.1-0.1,0.1-0.1
		c0-0.1,0.1-0.2,0.2-0.3l0.1-0.1c0-0.1,0-0.1,0.1-0.2c0.1,0,0.1-0.1,0.2-0.1c0-0.1,0.1-0.2,0.2-0.3c0-0.1,0.1-0.2,0.1-0.2
		c0-0.1,0-0.1,0.1-0.1c0-0.1,0-0.1,0-0.2l0.1,0c0-0.1,0-0.2,0.1-0.2c0-0.1,0.1-0.2,0.1-0.3c0-0.1,0-0.1,0-0.2c0,0,0.1,0,0.1,0
		c0-0.1,0-0.2,0.1-0.3c0-0.1,0-0.2,0-0.3c0,0,0.1,0,0.1,0c0,0,0-0.1,0-0.1c0.1-0.1,0-0.3,0.1-0.5c0,0,0-0.1,0-0.1c0-0.3,0-0.7,0-1
		l0,0c0-0.1,0-0.2-0.1-0.2l0,0c0-0.1,0-0.2-0.1-0.2v0c0,0-0.1,0-0.1,0c0-0.1,0-0.1,0-0.2c-0.1-0.1-0.1-0.1-0.1-0.2
		c-0.1,0-0.1-0.1-0.1-0.2c0,0-0.1,0-0.1,0l-0.1-0.3c-0.1,0-0.1-0.1-0.1-0.2l0,0c0-0.1-0.1-0.2-0.2-0.3c-0.1-0.1,0-0.2-0.1-0.2l0,0
		c0,0,0,0,0,0c0,0-0.1-0.1-0.1-0.1v0c-0.1-0.1-0.1-0.2-0.2-0.3l0,0c0,0-0.1-0.1-0.1-0.1c-0.1,0,0-0.1-0.1-0.2l0,0c0,0,0,0,0,0
		c0-0.1-0.1-0.1-0.1-0.1l0,0c0-0.1-0.1-0.1-0.1-0.1l0,0c0,0-0.1-0.1-0.1-0.1c-0.1-0.1-0.2-0.2-0.2-0.3l-0.1-0.1
		c-0.1,0-0.1-0.1-0.1-0.1c-0.1,0-0.1-0.1-0.1-0.1c-0.1,0-0.1-0.1-0.1-0.1l-0.1-0.1C11,16.8,11,16.9,11,17c0,0.2,0,0.4,0,0.7
		c0,0.2,0,0.3-0.1,0.5c0,0,0,0.1,0,0.1c-0.1,0.1,0,0.3-0.1,0.4c0,0,0,0-0.1,0.1c-0.1,0.1,0,0-0.1,0c-0.1-0.2,0-0.4-0.1-0.6l0,0
		c-0.1-0.1,0-0.2-0.1-0.3v0c-0.1-0.1,0-0.2-0.1-0.3v0c0-0.1,0-0.2-0.1-0.2c0,0,0,0,0-0.1c0,0,0,0,0,0c0-0.1,0-0.2-0.1-0.3l0,0
		c0-0.1,0-0.2-0.1-0.2v0c-0.1-0.1,0-0.2-0.1-0.2l0,0c-0.1-0.1,0-0.2-0.1-0.2v0c0-0.1,0-0.2-0.1-0.2v0c0,0-0.1-0.1-0.1-0.1
		c0,0,0-0.1,0-0.1c-0.1-0.1-0.2-0.2-0.2-0.3l-0.1,0c0,0,0,0,0-0.1c0,0,0-0.1,0-0.1l0,0c0,0,0,0,0,0v-0.1H9.1c0,0,0,0-0.1,0
		c-0.1,0-0.1,0-0.2,0.1l0,0c0,0-0.1,0.1-0.1,0.1c0,0.1-0.2,0-0.2,0.1l0,0c0,0-0.1,0.1-0.1,0.1l0,0c0,0-0.1,0.1-0.1,0.1h0
		c0,0-0.1,0.1-0.1,0.1C8.1,15.9,8,16,7.9,16c0,0.1-0.1,0.1-0.1,0.1v0c-0.1,0-0.1,0.1-0.1,0.1l0,0c0,0-0.1,0.1-0.1,0.1v0
		c0,0-0.1,0.1-0.1,0.1c0,0-0.1,0.1-0.1,0.1c0,0-0.1,0.1-0.1,0.1c0,0-0.1,0.1-0.1,0.1c0,0-0.1,0.1-0.1,0.1c0,0-0.1,0.1-0.1,0.1
		c0,0-0.1,0.1-0.1,0.1c0,0-0.1,0.1-0.1,0.1v0c0,0-0.1,0.1-0.1,0.1l0,0c0,0-0.1,0.1-0.1,0.1l0,0c-0.1,0-0.1,0.1-0.1,0.1l0,0
		c-0.1,0-0.1,0.1-0.1,0.1h0C6.3,17.8,6.1,17.9,6,18c0,0.1,0,0.1-0.1,0.1c0,0.1,0,0.1-0.1,0.1c0,0.1-0.1,0.2-0.2,0.3l-0.1,0.1
		c0,0.1-0.1,0.2-0.2,0.3c0,0.1-0.1,0.2-0.2,0.3l-0.1,0.1c0,0.1,0,0.2-0.1,0.2c0,0.1-0.1,0.3-0.2,0.3c0,0.1-0.1,0.2-0.2,0.3
		c0,0.1,0,0.2-0.1,0.2c0,0.1-0.1,0.3-0.2,0.3c0,0.1,0,0.2-0.1,0.2c0,0.1,0,0.2-0.1,0.2c0,0.1,0,0.2-0.1,0.2c0,0.1,0,0.2-0.1,0.2
		c-0.1,0.1-0.1,0.3-0.2,0.4c0,0.1,0,0.2-0.1,0.3c0,0.1,0,0.2-0.1,0.2c0,0.2-0.1,0.4-0.2,0.5c-0.1,0.5-0.3,1-0.5,1.6c0,0,0,0,0,0
		c0,0.1,0,0.2,0,0.3c0,0,0,0,0,0c0,0,0,0-0.1,0v0c-0.1,0.1,0,0.2-0.1,0.4c0,0,0,0,0,0.1c0,0,0,0,0,0c-0.1,0.1-0.1,0.3,0,0.4h0
		l-0.1,0v0c-0.1,0.2,0,0.4-0.1,0.6c0,0,0,0.1,0,0.1c0,0,0,0,0,0c0,0.4,0,0.7-0.1,1.1c0,0.1,0,0.2,0,0.4c0.1,0.5,0.1,0.9,0.1,1.4
		c0,0,0,0.1,0,0.1c0,0.1,0.1,0.2,0.1,0.3c0,0.1,0,0.2,0,0.3c0,0,0,0.1,0,0.1l0,0c0,0.1,0,0.1,0,0.2c0,0,0,0.1,0.1,0.1
		c0,0,0,0.1,0,0.1c0,0,0,0,0,0.1c0,0,0,0,0,0c0,0,0,0.1,0,0.1c0,0,0,0.1,0,0.1l0,0.1V31l0,0l0,0.1c0,0,0,0,0,0c0,0.1,0,0.2,0,0.3
		c0.1,0.1,0.1,0.2,0.1,0.3c0.1,0.1,0.1,0.2,0.1,0.3c0.1,0.1,0.1,0.2,0.1,0.3c0.1,0.1,0.1,0.1,0.1,0.2c0,0,0.1,0,0.1,0
		c0,0.1,0,0.2,0,0.3c0.1,0.1,0.1,0.1,0.1,0.2c0.1,0.1,0.1,0.2,0.1,0.3c0.1,0.1,0.1,0.1,0.1,0.2c0.1,0.1,0.1,0.1,0.1,0.2
		c0,0,0.1,0,0.1,0c0,0.1,0,0.1,0,0.2c0,0,0.1,0,0.1,0c0,0.1,0,0.1,0,0.2c0,0,0.1,0,0.1,0c0,0.1,0,0.1,0,0.2c0.1,0,0.1,0.1,0.1,0.2
		C4,34.8,4.1,34.9,4.1,35c0.1,0,0.1,0.1,0.1,0.2c0.1,0,0.1,0.1,0.1,0.2c0,0,0.1,0.1,0.1,0.1c0.1,0,0.1,0.1,0.1,0.2
		c0.1,0,0.1,0.1,0.1,0.2l0.1,0.1c0.1,0,0.1,0.1,0.1,0.2c0,0,0.1,0.1,0.1,0.1C5,36.4,5,36.5,5,36.6c0.1,0,0.1,0.1,0.1,0.1
		c0.1,0,0.1,0.1,0.1,0.2c0.1,0,0.1,0.1,0.1,0.1c0.1,0,0.1,0.1,0.1,0.2l0.1,0.1c0.1,0.1,0.2,0.2,0.2,0.3c0.1,0,0.1,0.1,0.1,0.1
		c0,0,0.1,0,0.1,0c0,0,0.1,0.1,0.1,0.1c0,0.1,0,0.1,0,0.2c0,0,0.1,0.1,0.1,0.1c0,0,0.1,0,0.1,0c0,0.1,0.1,0.2,0.1,0.3
		c0.1,0,0.1,0.1,0.1,0.1c0.1,0.1,0.2,0.2,0.2,0.3c0.2,0.2,0.3,0.4,0.5,0.6c0,0.1,0,0.2,0.1,0.2c0,0.1,0,0.2,0.1,0.3
		c0.1,0.1,0.1,0.1,0.1,0.2C8,40.6,8.4,41,8.8,41.5c0.1,0.1,0.2,0.2,0.3,0.3c0.5,0.4,1,0.7,1.4,1c0.2,0.3,0.5,0.4,0.6,0.7
		c0.1,0.1,0.1,0.1,0.2,0.2c0.1,0,0.1,0.1,0.1,0.1c0.1,0.1,0.1,0.1,0.2,0.2c0.1,0,0.1,0,0.1,0.1c0.1,0,0.1,0,0.1,0.1c0,0,0.1,0,0.1,0
		c0.1,0.1,0.2,0.2,0.3,0.3c0.1,0,0.1,0,0.1,0.1c0.1,0,0.2,0.1,0.3,0.2c0.2,0.1,0.4,0.3,0.6,0.4c0.1,0,0.2,0,0.2,0.1
		c0.1,0,0.1,0,0.1,0.1c0.1,0,0.2,0,0.2,0.1c0.1,0,0.2,0,0.2,0.1c0.1,0,0.1,0,0.2,0c0,0,0,0.1,0,0.1c0.1,0,0.2,0,0.2,0.1
		c0.1,0,0.2,0,0.2,0.1c0.1,0.1,0.3,0.1,0.4,0.2c0.1,0,0.2,0,0.2,0.1c0.1,0,0.2,0,0.3,0.1c0.1,0,0.2,0,0.2,0.1c0.2,0,0.4,0.1,0.5,0.2
		c0.1,0,0.2,0,0.3,0.1l0.3,0c0,0,0,0.1,0,0.1h0c0.1,0.1,0.2,0,0.3,0.1l0,0l0,0c0.1,0.1,0.2,0,0.4,0.1l0,0l0,0c0.1,0.1,0.2,0,0.3,0.1
		h0c0.1,0.1,0.3,0.1,0.4,0h0c0,0,0,0.1,0,0.1h0c0.1,0.1,0.3,0,0.4,0.1h0c0.1,0.1,0.2,0.1,0.3,0.1c0,0,0.1-0.1,0.1,0c0,0,0,0,0.1,0
		l0,0l0,0c0.2,0.1,0.4,0,0.5,0.1h0c0.2,0.1,0.4,0,0.6,0.1l0,0l0,0c0.2,0.2,0.5,0,0.8,0.1v0l1,0c0,0,0,0.1,0.1,0.1l0,0l0,0h2.4l0,0
		l0,0c0.3-0.1,0.6,0,0.9-0.1l0,0l0,0c0,0,0.1,0,0.1-0.1c0.2,0.1,0.3,0,0.5,0l0,0c0.1-0.1,0.2,0,0.3-0.1l0,0l0,0
		c0.1-0.1,0.3,0,0.3-0.1h0l0,0h0c0.1,0,0.2,0,0.2-0.1c0.1,0,0.2,0,0.2-0.1c0.1-0.1,0.2,0,0.2-0.1c0,0,0-0.1,0-0.1l0.2,0
		c0.1-0.1,0.3-0.1,0.4-0.2c0-0.1,0.1-0.1,0.2-0.1c0-0.1,0.1-0.1,0.2-0.1c0-0.1,0.1-0.1,0.2-0.1c0,0,0.1-0.1,0.1-0.1
		c0-0.1,0.1-0.1,0.2-0.1c0.1-0.1,0.2-0.2,0.3-0.2c0.1-0.1,0.2-0.2,0.3-0.2c0.1-0.1,0.2-0.2,0.3-0.2c0-0.1,0.1-0.1,0.1-0.1
		c0-0.1,0.1-0.1,0.2-0.1c0-0.1,0.1-0.1,0.1-0.1c0-0.1,0.1-0.1,0.1-0.1c0,0,0-0.1,0-0.1l0.2-0.1c0-0.1,0.1-0.1,0.1-0.1
		c0-0.1,0.1-0.1,0.1-0.1c0.1-0.1,0.2-0.2,0.3-0.2c0-0.1,0.1-0.1,0.1-0.1c0-0.1,0.1-0.1,0.1-0.1c0-0.1,0.1-0.1,0.1-0.1
		c0.1-0.2,0.2-0.3,0.4-0.3c0,0,0.1-0.1,0.1-0.1s0.1-0.1,0.1-0.1c0-0.1,0.1-0.1,0.1-0.1c0-0.1,0.1-0.1,0.1-0.1c0-0.1,0.1-0.1,0.1-0.1
		c0-0.1,0.1-0.1,0.1-0.1c0-0.1,0.1-0.1,0.1-0.1c0-0.1,0.1-0.1,0.1-0.1c0-0.1,0-0.1,0.1-0.1c0-0.1,0-0.1,0.1-0.1
		c0-0.1,0.1-0.1,0.1-0.1c0-0.1,0.1-0.1,0.1-0.1c0,0,0-0.1,0-0.1h0.2c0,0,0,0.1,0,0.1c0.1,0,0.2,0,0.2,0.1c0.1,0,0.2,0,0.2,0.1
		c0.1,0,0.2,0,0.3,0.1c0.1,0,0.2,0,0.3,0.1c0.1,0,0.3,0,0.4,0.1c0.2,0,0.4,0,0.5,0.1c0.6,0,1.3,0,1.9,0l0,0l0.1,0.1
		c0.1,0,0.3,0,0.4,0l0.2,0c0.1-0.1,0.2,0,0.2-0.1c0,0,0.1,0,0.1,0c0,0,0,0,0,0c0,0,0.1,0,0.1,0c0.1-0.1,0.2,0,0.3-0.1c0,0,0,0,0,0
		c0.1,0,0.1,0,0.2,0c0,0,0.1,0,0.1,0c0,0,0-0.1,0-0.1l0.2,0c0.1-0.1,0.1-0.1,0.2-0.1c0-0.1,0.1-0.1,0.2-0.1c0-0.1,0.1-0.1,0.2-0.1
		l0.1-0.1c0-0.1,0.1-0.1,0.2-0.1l0.2-0.2l0.2,0c0.1-0.1,0.2-0.2,0.3-0.2c0-0.1,0.1-0.1,0.1-0.1c0.1-0.1,0.2-0.2,0.3-0.2
		c0-0.1,0.1-0.1,0.1-0.1c0-0.1,0.1-0.1,0.1-0.1c0.1-0.1,0.2-0.2,0.3-0.2c0-0.1,0.1-0.1,0.1-0.1c0-0.1,0.1-0.1,0.2-0.1
		c0,0,0.1-0.1,0.1-0.1c0,0,0.1-0.1,0.1-0.1l0.1,0c0,0,0-0.1,0-0.1c0.1,0,0.1,0,0.2,0h0c0.1-0.1,0.2,0,0.2-0.1h0
		c0.1-0.1,0.2,0,0.3-0.1c0.1,0,0.2,0,0.2-0.1l0,0h0C44.3,40.7,44.3,40.6,44.2,40.5C44.2,40.5,44.2,40.5,44.2,40.5z M31.3,35.7
		L31.3,35.7L31.3,35.7L31.3,35.7z M31.5,32.8C31.5,32.8,31.5,32.8,31.5,32.8L31.5,32.8L31.5,32.8z M8.9,26.3L8.9,26.3
		C8.9,26.4,8.9,26.3,8.9,26.3L8.9,26.3z M7.4,19.3L7.4,19.3C7.4,19.3,7.4,19.3,7.4,19.3C7.4,19.3,7.4,19.3,7.4,19.3L7.4,19.3z
		 M7.7,22.3c0.2,0,0.5-0.1,0.6-0.3c0.1-0.1,0.1-0.2,0.2-0.3c0.1-0.3,0-0.5-0.1-0.7c-0.1-0.4-0.5-0.5-0.6-0.8c0-0.1,0-0.2,0.1-0.3
		c0.2-0.2,0.3-0.4,0.5-0.6c0.1-0.3,0.3-0.1,0.4,0c0.3,0.2,0.5,0.5,0.5,0.9c0.1,0.2,0.2,0.3,0.3,0.5c0,0.1,0,0.1,0,0.2
		c0,0.2,0,0.5,0,0.7c-0.2,0.9-0.6,1.8-1.2,2.4c-0.1,0.1-0.2,0.2-0.4,0.3l0,0h0v0c0,0,0,0,0,0c-0.1,0.2-0.2,0.4-0.4,0.4h0
		c-0.3,0.1-0.2-0.2-0.3-0.3c0-0.1,0-0.3-0.1-0.4C7.1,23.8,7,23.5,7,23.2C7,22.6,7,22.3,7.7,22.3z M5.5,22.9L5.5,22.9L5.5,22.9
		C5.5,22.9,5.5,22.9,5.5,22.9z M5,23.7L5,23.7L5,23.7C5,23.7,5,23.7,5,23.7L5,23.7z M2.6,25.1C2.6,25.1,2.5,25,2.6,25.1L2.6,25.1
		L2.6,25.1z M3,25.7C3,25.7,3,25.7,3,25.7C3,25.7,3,25.7,3,25.7C3,25.7,3,25.7,3,25.7z M3.4,23.8L3.4,23.8
		C3.4,23.8,3.4,23.8,3.4,23.8C3.4,23.8,3.4,23.8,3.4,23.8z M4.5,34.5L4.5,34.5L4.5,34.5L4.5,34.5C4.6,34.5,4.5,34.5,4.5,34.5z
		 M5.8,33.1L5.8,33.1L5.8,33.1L5.8,33.1z M10.3,35.9L10.3,35.9L10.3,35.9L10.3,35.9z M10.4,32.5L10.4,32.5L10.4,32.5
		C10.4,32.5,10.4,32.5,10.4,32.5L10.4,32.5z M10.4,32.4L10.4,32.4C10.4,32.4,10.4,32.4,10.4,32.4L10.4,32.4z M10.4,32.2L10.4,32.2
		C10.4,32.2,10.4,32.1,10.4,32.2C10.4,32.2,10.4,32.2,10.4,32.2z M12.3,38.7L12.3,38.7L12.3,38.7L12.3,38.7z M12.5,34.9L12.5,34.9
		L12.5,34.9C12.5,34.9,12.5,34.9,12.5,34.9z M13.6,35.4L13.6,35.4L13.6,35.4L13.6,35.4C13.6,35.3,13.6,35.3,13.6,35.4z M14.1,42.6
		L14.1,42.6L14.1,42.6L14.1,42.6z M15.5,37.3L15.5,37.3L15.5,37.3C15.5,37.3,15.5,37.3,15.5,37.3z M29,44.8L29,44.8L29,44.8L29,44.8
		C29,44.8,29,44.8,29,44.8z M31.8,39.7L31.8,39.7L31.8,39.7C31.8,39.6,31.8,39.6,31.8,39.7C31.8,39.6,31.8,39.6,31.8,39.7z
		 M32.6,38.8L32.6,38.8L32.6,38.8L32.6,38.8z M32.6,40.8C32.6,40.8,32.6,40.8,32.6,40.8C32.7,40.8,32.6,40.8,32.6,40.8L32.6,40.8z
		 M34.4,39.6L34.4,39.6L34.4,39.6C34.4,39.6,34.4,39.6,34.4,39.6z M36.9,39C36.9,38.9,36.9,38.9,36.9,39L36.9,39L36.9,39z
		 M39.3,40.9L39.3,40.9L39.3,40.9C39.3,40.9,39.3,40.9,39.3,40.9z M39.4,40L39.4,40C39.4,40,39.4,40,39.4,40L39.4,40z M39.5,40.9
		L39.5,40.9C39.5,40.9,39.5,40.9,39.5,40.9L39.5,40.9z M39.5,39L39.5,39C39.5,39,39.5,39,39.5,39L39.5,39z M39.6,42.7
		C39.6,42.7,39.6,42.7,39.6,42.7L39.6,42.7L39.6,42.7L39.6,42.7z"/>
	<path class="st0" d="M26.8,13.2L26.8,13.2L26.8,13.2c-0.1,0-0.1,0.1-0.1,0.1l0,0c0,0,0,0,0,0l0,0l0,0l0,0h-0.1c0,0,0,0.1,0,0.1l0,0
		c0,0-0.1,0-0.1,0l0,0.2c0.1,0,0.1,0,0.2,0c0,0,0.1,0,0.1,0c0.1,0,0.2,0,0.2,0c0,0,0,0,0,0h0.1c0.1,0,0.2,0,0.2,0.1l0.1,0
		c0,0,0,0,0,0c0.1,0,0.2,0,0.2,0.1l0.2,0c0,0,0,0.1,0,0.1l0.1,0.1c0.2,0.1,0.4,0.3,0.5,0.5c0,0,0.1,0,0.1,0c0,0,0,0.1,0,0.1
		c0,0,0.1,0.1,0.1,0.1c0.1,0,0.1,0.1,0.1,0.2l0.1,0.1c0.1,0,0.1,0.1,0.1,0.2c0,0,0.1,0,0.1,0l0,0.2l0.1,0l0,0.2c0,0,0.1,0,0.1,0
		c0,0.1,0,0.1,0,0.2c0.1,0.1,0.1,0.1,0.1,0.2c0.1,0.1,0.1,0.2,0.1,0.3c0.1,0.1,0.1,0.2,0.1,0.3c0.1,0.1,0.1,0.2,0.1,0.3
		c0,0,0.1,0,0.1,0c0,0.1,0,0.3,0,0.4c0,0,0.1,0,0.1,0c-0.1,0.1-0.1,0.3,0,0.4v0c0,0,0.1,0.1,0.1,0.1c0,0.1,0,0.3,0,0.4
		c0.1,0.2,0.1,0.5,0.1,0.8c0,0,0,0.1,0,0.1c0,0,0.1,0,0.1,0c0,0.5,0,1.1,0,1.6c0,0.1,0,0.2,0,0.2c0-0.1,0-0.2,0-0.2c0,0,0,0.1,0,0.1
		c0,0.2,0,0.5,0,0.7c0,0.2,0,0.3,0,0.5c0,0.2,0,0.3,0,0.5c0,0,0,0.1,0,0.1c0,0.1,0.1,0.2,0.1,0.3c0,0,0,0.1,0.1,0.1c0,0,0.1,0,0.1,0
		c-0.1,0.1,0,0.2,0,0.3v0l0,0c0.1,0.1,0,0.2,0.1,0.3l0,0c0,0,0,0,0,0c0,0.1,0,0.2,0.1,0.2l0,0c0.1,0.1,0,0.2,0.1,0.2
		c0,0,0.1,0,0.1,0c0,0.1,0,0.1,0,0.2c0.1,0,0.1,0.1,0.1,0.2c0.1,0.1,0.2,0.2,0.2,0.3c0.1,0,0.1,0.1,0.1,0.2c0.1,0,0.1,0.1,0.1,0.1
		c0.1,0,0.1,0.1,0.1,0.2c0,0,0.1,0,0.1,0c0,0,0,0.1,0,0.1c0,0,0.1,0,0.1,0c0,0.1,0.1,0.2,0.1,0.3c0.1,0,0.1,0.1,0.1,0.1
		c0.1,0,0.1,0.1,0.1,0.1l0.2,0.1c0,0.1,0,0.1,0.1,0.2l0.1,0.1l0.1,0.1c0.2,0.1,0.3,0.2,0.4,0.3c0.1,0,0.1,0,0.1,0.1
		c0.1,0,0.2,0.1,0.3,0.2l0.1,0c0,0,0,0.1,0.1,0.1c0.1,0.1,0.1,0.1,0.2,0.1c0.1,0.1,0.1,0.1,0.2,0.1h0l0,0h0c0.1,0.1,0.2,0,0.3,0.1h0
		c0.2-0.1,0.3-0.2,0.1-0.4v0c-0.1-0.2-0.2-0.3-0.2-0.5c-0.1-0.1-0.1-0.1-0.1-0.2c-0.1,0-0.1-0.1-0.1-0.2c-0.1-0.1-0.1-0.1-0.1-0.2
		c-0.1-0.1-0.1-0.1-0.1-0.2C34,26.1,33.9,26,34,25.9l-0.1-0.1c0,0,0,0,0,0c0-0.1,0.1-0.3,0-0.4c0,0,0,0,0-0.1c0,0,0,0,0,0
		c0-0.2-0.1-0.5-0.1-0.7c0,0,0,0-0.1-0.1c0-0.1,0-0.1,0-0.2h0c0,0,0,0,0.1,0c0-0.1,0-0.3,0.1-0.4c0,0,0-0.1,0-0.1
		c0.1-0.2,0-0.4,0.1-0.6l0,0c0.1-0.1,0-0.3,0.1-0.5c0,0,0,0,0-0.1l0,0c0-0.2,0-0.4,0.1-0.5c0-0.3,0-0.6,0-0.9
		c-0.1-0.3-0.1-0.6-0.1-0.8c-0.1-0.2-0.1-0.3-0.1-0.5l-0.1,0c0-0.1,0-0.3,0-0.4c-0.1-0.1-0.1-0.2-0.1-0.3c-0.1-0.1-0.1-0.3-0.1-0.4
		c-0.1-0.1-0.1-0.2-0.1-0.3c-0.1-0.1-0.1-0.1-0.1-0.2c0,0-0.1-0.1-0.1-0.1l0,0c0-0.1,0-0.1,0-0.2c-0.1-0.1,0-0.2-0.1-0.2
		c0,0,0,0,0-0.1c0-0.1,0-0.1-0.1-0.1c0-0.1,0-0.1,0-0.2C33,17.2,33,17.1,33,17c-0.1,0-0.1-0.1-0.1-0.2c-0.1,0-0.1-0.1-0.1-0.2
		l-0.2-0.1c0-0.1,0-0.1,0-0.2c-0.1,0-0.1-0.1-0.1-0.1c-0.2-0.1-0.3-0.3-0.4-0.4c-0.1,0-0.1,0.1-0.1,0.2c0.1,0.1,0.1,0.2,0.1,0.3
		c0.1,0.1,0.1,0.2,0.1,0.3c0,0,0.1,0,0.1,0c0,0.1,0,0.1,0,0.2c0,0,0,0,0,0c0,0-0.1,0-0.1,0c0,0.2,0,0.4-0.1,0.6
		c-0.1,0.1-0.2,0-0.3,0.1l0,0c0,0,0-0.1,0-0.1c-0.1,0-0.1-0.1-0.1-0.1c0,0-0.1,0-0.1,0c0-0.1,0-0.1,0-0.2L31.5,17
		c-0.1,0-0.1-0.1-0.1-0.2c-0.1,0-0.1-0.1-0.1-0.2c0,0-0.1-0.1-0.1-0.1c-0.1,0-0.1-0.1-0.1-0.2c0,0-0.1,0-0.1,0c0-0.1,0-0.1,0-0.2
		l-0.1-0.1c-0.1,0-0.1-0.1-0.1-0.2c0,0-0.1-0.1-0.1-0.1c-0.1,0-0.1-0.1-0.1-0.2c0,0-0.1-0.1-0.1-0.1c-0.1,0-0.1-0.1-0.1-0.2L30.3,15
		c-0.1,0-0.1-0.1-0.1-0.2l-0.1-0.1c0,0-0.1,0-0.1,0c0,0,0-0.1,0-0.1c0,0-0.1,0-0.1,0c0-0.1,0-0.1-0.1-0.2l-0.1-0.1c0,0-0.1,0-0.1,0
		l0,0c0,0,0-0.1,0-0.1c-0.1,0-0.1-0.1-0.1-0.1c-0.1,0-0.1-0.1-0.1-0.1c0,0-0.1-0.1-0.1-0.1c0,0-0.1-0.1-0.1-0.1c0,0-0.1-0.1-0.1-0.1
		L29,13.5c0,0-0.1,0-0.1,0c0,0,0-0.1,0-0.1c0,0-0.1,0-0.1,0c0,0,0-0.1,0-0.1l-0.1-0.1l-0.2,0c0,0,0-0.1,0-0.1l-0.2,0
		c0,0,0-0.1,0-0.1h0c-0.1-0.1-0.2,0-0.3-0.1l0,0c-0.1-0.1-0.3-0.1-0.4,0c0,0,0,0-0.1,0c0,0,0,0,0,0c-0.1,0-0.2,0-0.3,0.1
		C27.2,13,27,13,27,13.1h0c0,0-0.1,0-0.1,0.1L26.8,13.2z"/>
	<path class="st0" d="M26.8,53.8C26.7,53.8,26.7,53.8,26.8,53.8c0-0.1-0.1-0.1-0.1-0.1c0-0.1,0-0.2,0-0.3c-0.1-0.1-0.1-0.2-0.1-0.3
		l-0.1,0c0-0.1,0-0.1,0-0.2c-0.1-0.1-0.2-0.3-0.2-0.4c-0.1,0-0.1-0.1-0.1-0.2c-0.1-0.1-0.2-0.2-0.2-0.3c-0.1,0-0.1-0.1-0.1-0.1
		c-0.2-0.2-0.4-0.3-0.5-0.5c-0.1,0-0.1,0-0.1-0.1c-0.1,0-0.1,0-0.1-0.1c-0.1,0-0.2-0.1-0.2-0.1c-0.1,0-0.2,0-0.2-0.1l-0.2,0
		c0,0,0-0.1,0-0.1c-0.1,0-0.2,0-0.3-0.1c-0.1,0-0.2,0-0.3-0.1c-0.1,0-0.2,0-0.3-0.1c-0.1,0-0.2,0-0.3-0.1c-0.1,0-0.2,0-0.3-0.1
		c-0.1,0-0.2,0-0.3-0.1c-0.1,0-0.3,0-0.4,0h0c0,0,0-0.1,0-0.1h0c-0.1-0.1-0.2,0-0.3-0.1l0,0c-0.1-0.1-0.3,0-0.4-0.1h0
		c-0.1-0.1-0.2,0-0.3-0.1l0,0c-0.1-0.1-0.3,0-0.4-0.1h0c-0.1-0.1-0.2,0-0.4-0.1c0,0-0.1,0-0.1,0c0,0,0,0,0,0c-0.1-0.1-0.2,0-0.3-0.1
		l0,0c-0.1-0.1-0.3,0-0.4-0.1c-0.1-0.1-0.2,0-0.3-0.1l0,0c-0.1-0.1-0.3,0-0.4-0.1l0,0c-0.1-0.1-0.3,0-0.4-0.1
		c-0.1-0.1-0.2,0-0.3-0.1h0l0,0c-0.1-0.1-0.2-0.1-0.3,0l0,0l-0.1-0.1c-0.1,0-0.2,0-0.3-0.1c-0.1,0-0.3,0-0.4-0.1
		c-0.1,0-0.2,0-0.3-0.1c-0.1,0-0.2,0-0.3-0.1c-0.1,0-0.2,0-0.2-0.1c-0.1,0-0.2,0-0.2-0.1c-0.1,0-0.2,0-0.2-0.1c-0.1,0-0.2,0-0.2-0.1
		c-0.1,0-0.2,0-0.2-0.1c-0.1-0.1-0.3-0.1-0.4-0.2c-0.1-0.1-0.3-0.2-0.4-0.2c-0.1,0-0.3-0.1-0.3-0.2c-0.1,0-0.2,0-0.2-0.1
		c-0.1,0-0.2-0.1-0.3-0.2c-0.1,0-0.2,0-0.2-0.1c-0.1,0-0.1,0-0.1-0.1c-0.1,0-0.2-0.1-0.2-0.1c-0.1,0-0.2-0.1-0.3-0.2
		c-0.1,0-0.2,0-0.2-0.1c-0.1,0-0.1,0-0.1-0.1c-0.1,0-0.2-0.1-0.2-0.1c-0.1,0-0.1,0-0.1-0.1c-0.1,0-0.2-0.1-0.2-0.1
		c-0.1,0-0.1,0-0.1-0.1c-0.1,0-0.2-0.1-0.3-0.2c-0.1,0-0.2-0.1-0.3-0.2c-0.1,0-0.1,0-0.1-0.1c-0.1,0-0.2-0.1-0.3-0.2
		c0,0-0.1,0-0.1,0c0,0,0-0.1,0-0.1c0,0-0.1,0-0.1,0c0,0,0,0-0.1,0c-0.3-0.3-0.6-0.5-0.9-0.8c-0.1-0.1-0.3-0.2-0.4-0.3
		c0-0.1-0.1-0.1-0.1-0.1c0,0,0-0.1,0-0.1c0,0-0.1,0-0.1,0l0,0c0,0,0-0.1,0-0.1c0,0-0.1,0-0.1,0c0,0,0-0.1,0-0.1c0,0-0.1,0-0.1,0
		c0,0,0-0.1,0-0.1c-0.1,0-0.1,0-0.1-0.1c-0.1,0-0.1-0.1-0.1-0.1c-0.1,0-0.1-0.1-0.1-0.1c-0.1-0.1-0.2-0.2-0.2-0.3l-0.1-0.1
		c0,0-0.1-0.1-0.1-0.1l-0.1-0.1l-0.1-0.1c-0.1,0-0.1-0.1-0.1-0.2l-0.1-0.1c0,0-0.1-0.1-0.1-0.1c0,0-0.1,0-0.1,0L7,41.4
		c-0.1,0-0.1-0.1-0.1-0.1c0,0-0.1,0-0.1,0c0,0,0-0.1,0-0.1c-0.1,0-0.1-0.1-0.1-0.2c0,0-0.1-0.1-0.1-0.1l-0.1-0.1
		c-0.1,0-0.1-0.1-0.1-0.2c0,0-0.1-0.1-0.1-0.1C6.1,40.4,6,40.3,6,40.1c-0.1,0-0.1-0.1-0.1-0.1c-0.1,0-0.1-0.1-0.1-0.2
		c0,0-0.1,0-0.1,0c0,0,0-0.1,0-0.1c-0.1,0-0.1-0.1-0.1-0.2c0,0-0.1-0.1-0.1-0.1c-0.1,0-0.1-0.1-0.1-0.2c0,0-0.1-0.1-0.1-0.1
		c-0.1,0-0.1-0.1-0.1-0.2c0,0-0.1-0.1-0.1-0.1c-0.1,0-0.1-0.1-0.1-0.2l-0.1-0.1c-0.1,0-0.1-0.1-0.1-0.2l-0.1-0.1
		c-0.1,0-0.1-0.1-0.1-0.2c-0.1-0.1-0.2-0.2-0.2-0.3c-0.1,0-0.1-0.1-0.1-0.2c0,0-0.1-0.1-0.1-0.1C4,37.2,4,37.1,4,37c0,0-0.1,0-0.1,0
		c0-0.1,0-0.1,0-0.2l-0.1-0.1l-0.1,0c0-0.1,0-0.1,0-0.2c-0.1,0-0.1-0.1-0.1-0.2l-0.1-0.1c-0.1,0-0.1-0.1-0.1-0.2
		c-0.1,0-0.1-0.1-0.1-0.2c-0.1,0-0.1-0.1-0.1-0.2C3.1,35.5,3,35.4,3,35.3c-0.1-0.1-0.1-0.1-0.1-0.2C2.9,35.1,2.8,35,2.8,35
		c0-0.1,0-0.1,0-0.2c-0.1-0.1-0.1-0.1-0.1-0.2l-0.2-0.2c0-0.1,0-0.2,0-0.3c0,0-0.1,0-0.1,0c0,0,0,0,0-0.1c0,0,0,0,0,0
		c0-0.1,0-0.2,0-0.3c0,0-0.1,0-0.1,0c0-0.1,0-0.2-0.1-0.4c-0.1-0.1-0.1-0.3-0.1-0.5C2,32.7,2,32.6,2,32.5c-0.1-0.1-0.1-0.3-0.1-0.4
		l-0.1-0.2l0,0c0,0,0,0,0.1,0c0-0.1,0-0.2-0.1-0.3v0c-0.1-0.2,0-0.4-0.1-0.5c0,0,0,0,0-0.1c0,0,0,0,0,0c-0.1-0.2,0-0.4-0.1-0.6
		c0,0,0,0,0,0c0,0,0,0,0,0c0-0.1-0.1-0.1-0.2,0c0,0-0.1,0.1-0.1,0.1l0,0c-0.1,0.1-0.2,0.2-0.2,0.3c0,0-0.1,0.1-0.1,0.1c0,0,0,0,0,0
		l0,0c-0.1,0-0.1,0.1-0.1,0.2v0c-0.1,0-0.1,0.2-0.1,0.2c-0.1,0.1-0.1,0.3-0.2,0.4c-0.1,0.1,0,0.2-0.1,0.2v0
		c-0.1,0.1-0.1,0.1-0.1,0.2c0,0,0,0,0,0l0,0c-0.1,0.1,0,0.2-0.1,0.3l0,0c-0.1,0.1-0.1,0.2-0.1,0.4c0.1,0,0.1,0.1,0.2,0.1
		c0,0-0.1,0-0.1-0.1c0,0-0.1,0-0.1,0c0,0.1,0,0.3,0,0.4c0,0,0,0,0,0c0,0.1,0,0.2-0.1,0.2h0C0,34,0,34.5,0,35c0,0,0,0.1,0,0.1
		c0.1,0.2,0,0.5,0.1,0.8l0,0c0.1,0.1,0,0.3,0.1,0.4c0,0,0,0,0,0.1c0.1,0.1,0,0.3,0.1,0.5l0,0c0.1,0.1,0,0.2,0.1,0.3
		c0.1,0.1,0,0.2,0.1,0.3c0,0,0,0,0,0.1c0,0,0,0,0,0c0.1,0.1,0,0.3,0.1,0.3l0,0l0,0c0,0.1,0,0.2,0.1,0.2c0.1,0.1,0,0.2,0.1,0.3
		c0.1,0.1,0,0.2,0.1,0.3C1,38.8,0.9,39,1,39l0,0c0,0,0,0,0,0c0,0.1,0,0.2,0.1,0.2c0.1,0.1,0,0.2,0.1,0.3v0l0,0v0
		c0,0.1,0,0.2,0.1,0.2v0c0.1,0.1,0,0.2,0.1,0.2v0c0.1,0.1,0,0.2,0.1,0.2l0,0c0.1,0.1,0,0.2,0.1,0.2l0,0c0,0.1,0.1,0.1,0.1,0.1
		c0.1,0.1,0,0.2,0.1,0.2v0C2,40.8,1.9,40.9,2,41l0,0l0,0c0,0,0.1,0.1,0.1,0.1c0.1,0.1,0,0.2,0.1,0.2l0,0c0,0,0.1,0.1,0.1,0.1
		c0.1,0.1,0,0.2,0.1,0.2l0,0c0,0,0.1,0.1,0.1,0.1c0,0,0.1,0,0.1,0l0,0.2c0,0,0.1,0.1,0.1,0.1C2.9,42.1,3,42.2,3,42.3
		c0.1,0,0.1,0.1,0.1,0.1l0.1,0c0,0.1,0,0.1,0.1,0.2c0,0,0.1,0,0.1,0l0,0c0,0,0,0.1,0,0.1c0,0,0.1,0,0.1,0c0,0,0,0.1,0,0.1
		c0,0,0.1,0,0.1,0c0,0.1,0.1,0.2,0.1,0.3l0.1,0.1c0.1,0,0.1,0.1,0.1,0.1c0,0,0.1,0.1,0.1,0.1c0,0,0,0.1,0,0.1L4,43.7l0.1,0.1
		c0.1,0,0.1,0.1,0.1,0.1c0.1,0,0.1,0.1,0.1,0.2l0.1,0.1c0,0,0.1,0.1,0.1,0.1l0.1,0c0,0,0.1,0.1,0.1,0.1s0,0.1,0.1,0.2
		c0,0.1,0.1,0.1,0.1,0.1C5,44.8,5,44.8,5,44.9c0.1,0,0.1,0.1,0.1,0.2l0.1,0c0,0,0,0,0,0c0,0.1,0,0.1,0,0.2v0c0.1,0.1,0,0.2,0.1,0.3
		v0c0.1,0.1,0,0.3,0.1,0.4c0,0,0,0.1,0,0.1c0.1,0.2,0.1,0.3,0.1,0.5c0,0.1,0,0.2,0.1,0.3c0,0,0.1-0.1,0.1-0.1v0c0.1,0,0-0.2,0.1-0.2
		l0,0c0,0,0.1-0.1,0.1-0.1l0,0c0.1-0.1,0-0.2,0.1-0.3c0.1-0.1,0-0.2,0.1-0.3c0-0.2,0-0.4,0-0.5c0-0.2,0-0.4,0-0.6
		C6.1,44.6,6,44.4,6,44.3C5.9,44.2,6,44.1,6,44c0,0,0.1,0,0.1,0c0.2-0.2,0.2-0.2,0.3,0c0,0,0,0.1,0,0.1c0.1,0,0.1,0.1,0.1,0.2
		c0.1,0,0.1,0.1,0.1,0.2c0.1,0.1,0.1,0.1,0.1,0.2l0.1,0.1c0,0,0.1,0,0.1,0c0,0.1,0,0.1,0,0.2C7,45.1,7,45.1,7,45.2
		c0.1,0.1,0.2,0.2,0.2,0.3c0.1,0,0.1,0.1,0.1,0.1l0.2,0.1c0,0,0,0.1,0,0.1c0,0,0,0.1,0,0.1l0.1,0c0,0,0,0.1,0,0.1l0.1,0
		c0,0,0,0.1,0,0.1c0.1,0.1,0.1,0.1,0.2,0.2c0.1,0,0.1,0.1,0.1,0.1c0.1,0,0.1,0,0.1,0.1c0.1,0,0.1,0,0.1,0.1c0.1,0,0.1,0,0.1,0.1
		c0.1,0,0.2,0.1,0.3,0.2c0.1,0,0.2,0.1,0.3,0.2c0.1,0,0.2,0,0.2,0.1c0.1,0,0.2,0,0.2,0.1c0.1,0,0.2,0,0.2,0.1
		c0.1,0.1,0.3,0.1,0.4,0.2c0.1,0,0.2,0,0.2,0.1c0.1,0,0.2,0.1,0.3,0.2c0.1,0.1,0.2,0.1,0.2,0.2c0.1,0,0.1,0.1,0.1,0.1
		c0.1,0.1,0.1,0.1,0.2,0.2c0.1,0,0.1,0.1,0.1,0.1c0.1,0,0.1,0.1,0.1,0.2c0.1,0,0.1,0.1,0.1,0.1c0.1,0,0.1,0.1,0.1,0.2
		c0.1,0,0.1,0.1,0.1,0.1c0.1,0,0.1,0.1,0.1,0.2c0.1-0.1,0-0.2,0.1-0.3c-0.1-0.1-0.1-0.3-0.1-0.4c-0.1-0.1-0.1-0.2-0.1-0.3
		c-0.1-0.1-0.1-0.2-0.1-0.3c-0.1-0.1-0.1-0.1-0.1-0.2c-0.1,0-0.1-0.1-0.1-0.2c-0.1,0-0.1-0.1-0.1-0.2c-0.1-0.1-0.2-0.2-0.2-0.3
		c-0.1-0.1-0.1-0.3-0.2-0.4c-0.1-0.1-0.1-0.2-0.1-0.3c0,0,0,0,0,0c0.1-0.1,0.2-0.1,0.3,0c0.1,0,0.2,0,0.3,0.1c0.1,0,0.1,0,0.1,0.1
		c0.1,0,0.2,0.1,0.2,0.1c0.1,0,0.1,0,0.1,0.1c0.1,0,0.2,0.1,0.3,0.2c0.1,0.1,0.2,0.2,0.2,0.3c0.1,0,0.1,0.1,0.1,0.1
		c0.1,0,0.1,0.1,0.1,0.2c0.1,0,0.1,0.1,0.1,0.2c0.1,0.1,0.2,0.2,0.2,0.3c0.1,0,0.1,0.1,0.1,0.2c0.1,0.1,0.2,0.2,0.2,0.3l0.1,0
		c0,0.1,0.1,0.2,0.1,0.3c0.1,0,0.1,0.1,0.1,0.1c0,0,0.1,0,0.1,0c0,0.1,0,0.1,0.1,0.2c0.1,0,0.1,0.1,0.1,0.1c0.1,0.1,0.1,0.1,0.2,0.2
		c0.1,0,0.1,0,0.1,0.1c0.1,0,0.1,0,0.1,0.1c0.1,0,0.1,0.1,0.2,0.1c0.1,0,0.1,0,0.1,0.1c0.1,0,0.1,0,0.2,0c0,0,0,0.1,0,0.1
		c0.1,0,0.1,0,0.1,0.1l0.2,0c0,0,0,0.1,0,0.1c0.1,0,0.2,0,0.2,0.1c0.1,0,0.2,0,0.2,0.1c0.1,0,0.2,0,0.2,0.1c0.1,0,0.2,0,0.3,0.1
		c0.1,0.1,0.1,0.1,0.2,0.1c0,0,0,0.1,0,0.1c0.1,0,0.2,0,0.3,0.1l0.4,0c0,0,0,0.1,0,0.1l0,0l0,0c0.1,0.1,0.3,0.1,0.4,0h0
		c0,0,0,0.1,0,0.1c0.3,0,0.6,0,1,0.1h0c0.2,0.1,0.4,0.1,0.6,0l0,0c0.3-0.1,0.6,0.1,0.9-0.1l0,0c0.2-0.1,0.4,0,0.5-0.1l0,0l0,0
		c0.2,0,0.5-0.1,0.7,0c0.1,0,0.1,0,0.1-0.1l0.1,0l0.1,0l0,0l0,0c0,0,0,0.1,0,0.1l0.5,0l0,0l0,0l0,0.1c0.2,0,0.3,0,0.4,0.1
		c0.1,0,0.3,0,0.4,0.1c0.1,0,0.2,0,0.3,0c0,0,0,0.1,0,0.1l0.2,0c0,0,0,0.1,0,0.1c0.1,0,0.2,0,0.3,0.1c0.1,0,0.2,0,0.2,0.1
		c0.1,0,0.2,0,0.2,0.1c0.1,0,0.2,0,0.2,0.1c0.1,0,0.2,0,0.2,0.1c0.1,0,0.3,0.1,0.3,0.2c0.1,0,0.2,0.1,0.3,0.2c0.1,0,0.1,0,0.1,0.1
		c0.2,0.1,0.4,0.3,0.6,0.5c0,0.1,0.1,0.1,0.1,0.1c0,0.1,0,0.1,0,0.2c0,0.1,0.1,0.1,0.1,0.1c0.1,0,0.1,0.1,0.1,0.1l0.1,0.1v0
		c0,0,0,0.1,0,0.1c0.1,0.1,0,0.2,0.1,0.2v0C26.8,54.1,26.7,54,26.8,53.8z"/>
	<path class="st0" d="M51.3,19.2c0-0.1-0.1-0.2-0.1-0.3c0-0.1,0-0.3,0-0.4l-0.1,0c0,0,0,0,0-0.1c0,0,0,0,0,0c0-0.1,0-0.3,0-0.4
		c-0.1-0.2-0.1-0.3-0.1-0.5c-0.1-0.1-0.1-0.2-0.1-0.3c0,0,0,0-0.1,0c0-0.1,0-0.3,0-0.4c-0.1-0.1-0.1-0.2-0.1-0.3
		c-0.1-0.1-0.1-0.2-0.1-0.3c-0.1-0.2-0.2-0.4-0.2-0.5c-0.1-0.1-0.1-0.2-0.1-0.3C50.1,15,50,14.8,50,14.7l-0.1,0c0-0.1,0-0.1,0-0.2
		c0,0-0.1,0-0.1,0c0-0.1,0-0.1,0-0.2c-0.1,0-0.1-0.1-0.1-0.2c-0.1,0-0.1-0.1-0.1-0.2c-0.1,0-0.1-0.1-0.1-0.2
		c-0.1-0.1-0.2-0.2-0.2-0.3c-0.1,0-0.1-0.1-0.1-0.2c0,0-0.1-0.1-0.1-0.1c-0.1,0-0.1-0.1-0.1-0.2c-0.1,0-0.1-0.1-0.1-0.1
		c-0.1,0-0.1-0.1-0.1-0.2c0,0-0.1-0.1-0.1-0.1c-0.1-0.1-0.2-0.2-0.2-0.3c-0.1,0-0.1-0.1-0.1-0.1c-0.1-0.1-0.2-0.2-0.2-0.3
		c-0.1,0-0.1-0.1-0.1-0.1c-0.1-0.1-0.2-0.2-0.2-0.3c-0.1,0-0.1-0.1-0.1-0.1c-0.1,0-0.1-0.1-0.1-0.1c-0.1,0-0.1-0.1-0.1-0.2
		c-0.1,0-0.1-0.1-0.1-0.1c-0.1,0-0.1-0.1-0.1-0.1c-0.1-0.1-0.2-0.2-0.2-0.3c-0.1,0-0.1-0.1-0.1-0.1c-0.1,0-0.1-0.1-0.1-0.1
		c0,0-0.1,0-0.1,0c-0.1-0.1-0.1-0.2-0.2-0.3c-0.1,0-0.1-0.1-0.1-0.1c-0.1,0-0.1-0.1-0.1-0.1c-0.1,0-0.1-0.1-0.1-0.2c0,0-0.1,0-0.1,0
		V9.1c0,0-0.1,0-0.1,0c0-0.1,0-0.2-0.1-0.3C46,8.8,45.9,8.7,46,8.6c-0.1-0.1-0.1-0.3-0.1-0.4c-0.1-0.2-0.1-0.4-0.1-0.6
		c0-0.1,0-0.2-0.1-0.3c0,0.1-0.1,0.1-0.1,0.1c0,0.1-0.1,0.2-0.1,0.2c0,0.2-0.1,0.3-0.2,0.4c0,0.1,0,0.2-0.1,0.3
		c-0.1,0.4-0.1,0.8,0,1.3l0.1,0.1c0,0,0,0,0,0c0,0.1-0.1,0.2,0,0.3c0.1,0.1,0.1,0.1,0,0.2c0,0-0.1,0.1-0.1,0.1l0,0v0
		c0,0-0.1,0-0.1,0l0,0c0,0-0.1-0.1-0.1-0.1c0,0-0.1,0-0.1,0c0-0.1,0-0.1,0-0.2c-0.1-0.1-0.1-0.3-0.2-0.4c-0.1,0-0.1-0.1-0.1-0.2
		c-0.1-0.1-0.2-0.2-0.2-0.3c0,0-0.1,0-0.1,0c0-0.1,0-0.1,0-0.2c-0.1,0-0.1-0.1-0.1-0.1c-0.1-0.1-0.2-0.2-0.2-0.3
		c-0.1,0-0.1-0.1-0.1-0.1c-0.3-0.3-0.6-0.6-1-1c-0.1,0-0.1,0-0.1-0.1c-0.1,0-0.2-0.1-0.2-0.1c-0.1,0-0.1,0-0.1-0.1
		c-0.1,0-0.2,0-0.2-0.1c-0.1,0-0.2,0-0.2-0.1c-0.1,0-0.2,0-0.2-0.1l-0.2,0c0,0,0-0.1,0-0.1c-0.1-0.1-0.3-0.1-0.4-0.2
		c-0.1,0-0.2,0-0.2-0.1c-0.1,0-0.1,0-0.1-0.1c-0.1,0-0.1-0.1-0.2-0.1c-0.1,0-0.1,0-0.1-0.1c-0.1,0-0.1,0-0.1-0.1
		c-0.1,0-0.1-0.1-0.1-0.1C40.1,5.7,40,5.6,40,5.4c-0.1,0-0.1-0.1-0.1-0.1c-0.1-0.1-0.2-0.2-0.2-0.3l-0.1-0.1c0,0,0-0.1,0-0.1
		c-0.1,0-0.1-0.1-0.1-0.2c-0.2,0.1-0.1,0.3-0.1,0.4c0,0.1,0,0.1,0,0.2c0,0.1,0,0.1,0.1,0.1l0,0.2c0.1,0.1,0.1,0.2,0.1,0.3
		c0.1,0,0.1,0.1,0.1,0.2c0.1,0.2,0.2,0.4,0.3,0.6c0.1,0,0.1,0.1,0.1,0.2c0.1,0,0.1,0.1,0.1,0.2c0.1,0.1,0.1,0.3,0.2,0.4
		c0.1,0.3,0.1,0.3-0.2,0.3c-0.1,0-0.1,0-0.2,0c-0.1-0.1-0.1-0.1-0.2-0.1l-0.1-0.1c-0.1,0-0.1,0-0.1-0.1c-0.1,0-0.2-0.1-0.2-0.1
		c-0.1,0-0.1,0-0.1-0.1c-0.2,0-0.3-0.2-0.3-0.3c-0.1,0-0.1-0.1-0.1-0.1c-0.1,0-0.1-0.1-0.1-0.2c-0.1,0-0.1-0.1-0.1-0.1
		c-0.1,0-0.1-0.1-0.1-0.2c-0.1,0-0.1-0.1-0.1-0.2c-0.1-0.1-0.1-0.2-0.2-0.2c0,0,0-0.1,0-0.1c-0.1,0-0.1-0.1-0.1-0.2
		c-0.1,0-0.1-0.1-0.1-0.1C38,5.4,38,5.3,38,5.2c-0.1,0-0.1-0.1-0.1-0.1c-0.1,0-0.1-0.1-0.1-0.2c-0.1,0-0.1-0.1-0.1-0.1
		c-0.1,0-0.1-0.1-0.1-0.1c-0.1,0-0.1-0.1-0.1-0.1c-0.1,0-0.1-0.1-0.1-0.1c-0.1,0-0.1-0.1-0.1-0.1c-0.1-0.1-0.1-0.1-0.2-0.2
		c-0.1,0-0.2-0.1-0.3-0.2c-0.1,0-0.2-0.1-0.3-0.2c-0.1-0.1-0.3-0.2-0.4-0.2c-0.1,0-0.2,0-0.2-0.1c-0.1,0-0.2,0-0.3-0.1
		c-0.1-0.1-0.2-0.1-0.2-0.1l0,0h0c-0.1-0.1-0.2,0-0.3-0.1l0,0l0,0c-0.1-0.1-0.2,0-0.3-0.1c0,0,0,0-0.1,0c0,0,0,0,0,0
		c-0.1-0.1-0.3,0-0.4-0.1l0,0l0,0c-0.1-0.1-0.3,0-0.4-0.1h0c0,0,0,0-0.1,0c0,0,0,0-0.1,0c0,0,0,0,0,0l-0.5,0l-0.2,0
		c-0.1,0-0.2,0-0.3,0h-0.7c0,0,0,0-0.1,0c0,0,0,0,0,0c-0.1,0-0.1,0-0.2,0.1c-0.1-0.1-0.2,0-0.3,0c0,0,0,0-0.1,0L31,3
		c-0.4,0-0.7,0-1.1,0c-0.2,0-0.4,0-0.5-0.1c0,0-0.1,0-0.1,0c-0.1-0.1-0.3,0-0.4-0.1v0c-0.1-0.1-0.3,0-0.4-0.1h0
		c-0.1-0.1-0.2,0-0.3-0.1l0,0c-0.1-0.1-0.2,0-0.3-0.1l0,0c-0.1-0.1-0.2,0-0.3-0.1c-0.1-0.1-0.2,0-0.2-0.1h0
		c-0.1-0.1-0.2-0.1-0.2-0.1l0,0C27,2.1,26.9,2.1,26.8,2C26.8,2,26.7,2,26.6,2h0l0-0.1c-0.1,0-0.2,0-0.2-0.1h-0.1c0,0,0-0.1,0-0.1
		l-0.2,0c0,0,0-0.1,0-0.1c0,0-0.1,0-0.1,0c0,0,0-0.1,0-0.1l-0.2,0c0,0,0-0.1,0-0.1h0c0,0-0.1-0.1-0.1-0.1c0,0-0.1-0.1-0.1-0.1l0,0
		c0,0-0.1-0.1-0.1-0.1v0c-0.1,0-0.1,0-0.1-0.1c0,0-0.1,0-0.1,0c0,0,0-0.1,0-0.1h0v0c0,0,0,0,0,0l0,0c0,0,0,0,0,0h0l0,0c0,0,0,0,0,0
		c0,0,0,0,0,0l0,0l0,0l0,0c0,0,0,0,0-0.1c0,0-0.1,0-0.1,0c0-0.1,0-0.1,0-0.2c0,0-0.1-0.1-0.1-0.1c-0.1,0-0.1-0.1-0.1-0.2
		c-0.2,0.1-0.1,0.3-0.1,0.4c0.1,0.1,0.1,0.3,0.1,0.4c0,0,0,0,0.1,0c0,0,0,0,0,0c0,0,0,0.1,0,0.1c0,0.1,0,0.1,0,0.2l0,0
		c0,0,0,0.1,0,0.1c0,0,0,0.1,0,0.1l0,0l0,0c0,0,0,0,0,0c0,0.1,0,0.1,0.1,0.2c0.1,0.1,0,0.2,0.1,0.2v0c0.1,0.1,0,0.2,0.1,0.2l0,0
		c0,0,0.1,0.1,0.1,0.1c0.1,0.1,0.1,0.2,0.2,0.3l0,0c0,0,0.1,0.1,0.1,0.1c0,0,0.1,0.1,0.1,0.1v0c0,0,0.1,0.1,0.1,0.1
		c0,0,0.1,0.1,0.1,0.1l0,0C26,2.9,26,3,26,3l0,0c0,0.1,0.1,0.1,0.2,0.1h0c0,0,0.1,0.1,0.1,0.1l0,0c0,0.1,0.2,0.1,0.2,0.1h0
		c0.1,0.1,0.2,0.1,0.2,0.1h0l0,0c0.1,0.1,0.2,0,0.3,0.1c0.1,0.1,0.2,0,0.2,0.1l0,0c0.1,0.1,0.2,0,0.3,0.1h0c0.1,0.1,0.2,0,0.3,0.1
		l0,0c0.1,0.1,0.2,0,0.4,0.1l0,0l0,0c0,0,0.1,0,0.1,0c0,0,0,0,0,0L28.7,4c0.1,0,0.2,0,0.3,0.1c0.1,0,0.3,0,0.4,0.1l0.3,0
		c0,0,0,0.1,0,0.1l0.2,0c0,0,0,0,0.1,0c0,0,0.1,0,0.1,0l0,0c0,0,0,0,0,0h0.1c0,0,0.1,0,0.1,0l0.2,0.1h0l0,0h0c0.1,0.1,0.3,0,0.4,0.1
		h0c0.1,0.1,0.2,0,0.4,0.1l0,0l0,0c0.1,0,0.1,0.1,0.2,0c0,0,0,0,0,0c0,0.1,0.1,0.1,0.1,0.1l0,0C31.8,5,31.9,4.9,32,5l0,0l0,0
		c0.1,0.1,0.1,0.1,0.2,0c0,0,0,0,0,0l0.1,0.1l0.4,0h0c0,0,0,0.1,0,0.1h0c0.1,0.1,0.2,0,0.4,0.1l0,0l0,0c0.1,0.1,0.2,0,0.3,0.1l0,0
		c0.1,0.1,0.3,0,0.4,0.1c0.1,0.1,0.1,0.1,0.2,0c0,0,0,0,0,0l0.1,0.1c0.1,0,0.3,0,0.4,0.1c0.1,0,0.2,0,0.2,0.1c0.1,0,0.2,0,0.3,0.1
		c0.1,0,0.2,0,0.2,0.1c0.1,0,0.2,0,0.2,0.1l0.2,0c0,0,0,0.1,0,0.1l0.2,0c0,0,0,0.1,0,0.1c0.1,0,0.2,0,0.2,0.1c0.1,0,0.2,0,0.2,0.1
		c0.1,0,0.2,0,0.2,0.1c0.1,0,0.2,0,0.2,0.1c0.1,0,0.1,0,0.2,0c0,0,0.1,0.1,0.1,0.1c0.1,0.1,0.3,0.2,0.4,0.2c0.1,0,0.1,0,0.1,0.1
		c0.1,0,0.2,0,0.2,0.1c0.1,0,0.2,0.1,0.3,0.2c0.1,0,0.2,0.1,0.2,0.1c0.1,0,0.1,0,0.1,0.1c0.1,0,0.2,0.1,0.2,0.1C38.9,8,39,8,39,8.1
		c0.1,0,0.2,0.1,0.2,0.1c0.1,0,0.1,0,0.1,0.1l0.2,0c0,0,0,0.1,0,0.1c0.1,0,0.1,0,0.1,0.1c0.1,0,0.2,0.1,0.2,0.1c0.1,0,0.1,0,0.1,0.1
		c0.1,0,0.2,0.1,0.2,0.1c0.1,0,0.1,0,0.1,0.1c0.1,0,0.2,0.1,0.3,0.2c0.1,0,0.1,0,0.1,0.1c0.1,0,0.2,0.1,0.3,0.2c0.1,0,0.1,0,0.1,0.1
		c0.1,0,0.2,0.1,0.3,0.2c0.1,0.1,0.2,0.1,0.2,0.2c0.1,0,0.2,0.1,0.3,0.2c0,0,0.1,0,0.1,0c0,0,0,0.1,0,0.1c0.1,0,0.1,0,0.1,0.1
		c0.1,0,0.1,0,0.1,0.1c0.1,0,0.1,0,0.1,0.1c0.1,0.1,0.1,0.1,0.2,0.2c0.1,0,0.1,0.1,0.1,0.1c0.1,0,0.1,0.1,0.1,0.1
		c0.1,0,0.1,0.1,0.1,0.1c0.1,0,0.1,0.1,0.1,0.1c0.1,0,0.1,0.1,0.1,0.1c0.1,0,0.1,0.1,0.1,0.1c0.1,0,0.1,0.1,0.1,0.1
		c0.2,0.1,0.3,0.2,0.3,0.4c0.1,0,0.1,0.1,0.1,0.1c0.1,0,0.1,0.1,0.1,0.1c0.1,0.1,0.2,0.2,0.2,0.3c0.1,0,0.1,0.1,0.1,0.1
		c0,0,0.1,0,0.1,0c0,0,0,0.1,0,0.1c0.1,0,0.1,0.1,0.1,0.2c0.1,0,0.1,0.1,0.1,0.1c0.1,0,0.1,0.1,0.1,0.1c0.1,0,0.1,0.1,0.1,0.2
		c0.1,0,0.1,0.1,0.1,0.1c0.1,0.1,0.2,0.2,0.2,0.3c0.1,0,0.1,0.1,0.1,0.1l0.1,0c0,0.1,0,0.1,0.1,0.2c0,0,0.1,0.1,0.1,0.1
		c0.1,0.1,0.2,0.2,0.2,0.3c0.1,0,0.1,0.1,0.1,0.1c0.1,0,0.1,0.1,0.1,0.2c0.1,0,0.1,0.1,0.1,0.1l0.1,0l0,0.2c0.1,0,0.1,0.1,0.1,0.1
		c0.1,0,0.1,0.1,0.1,0.2c0.1,0,0.1,0.1,0.1,0.1c0.1,0,0.1,0.1,0.1,0.2c0.1,0,0.1,0.1,0.1,0.1c0.1,0,0.1,0.1,0.1,0.2
		c0.1,0,0.1,0.1,0.1,0.2c0,0,0.1,0.1,0.1,0.1c0.1,0,0.1,0.1,0.1,0.2c0,0,0.1,0.1,0.1,0.1c0.1,0,0.1,0.1,0.1,0.2l0.1,0
		c0,0.1,0,0.1,0,0.2c0,0,0.1,0,0.1,0c0,0,0,0.1,0,0.1c0,0,0.1,0,0.1,0c0,0.1,0,0.1,0,0.2l0.1,0c0,0.1,0,0.1,0,0.2
		c0.1,0.1,0.2,0.2,0.2,0.3c0.1,0,0.1,0.1,0.1,0.2c0.1,0,0.1,0.1,0.1,0.2c0.1,0.1,0.2,0.2,0.2,0.3c0.1,0,0.1,0.1,0.1,0.2
		c0.1,0.1,0.1,0.3,0.2,0.4c0.1,0,0.1,0.1,0.1,0.2c0.1,0.1,0.1,0.2,0.1,0.3c0,0,0.1,0,0.1,0c0,0.1,0,0.1,0,0.2
		c0.1,0.1,0.1,0.3,0.1,0.4c0.1,0.1,0.1,0.2,0.1,0.3l0.1,0c0,0,0,0.1,0,0.1c0,0,0,0,0,0c0,0.1,0,0.2,0,0.3c0.1,0.1,0.1,0.3,0.1,0.4
		c0.1,0.2,0.1,0.3,0.1,0.5c0.1,0.2,0.1,0.3,0.1,0.5l0.1,0.1c0,0.1,0,0.3,0,0.4c0.1,0.2,0.1,0.4,0.1,0.6l0.2-0.1c0-0.1,0-0.1,0.1-0.1
		c0-0.1,0-0.1,0.1-0.1c0-0.1,0.1-0.2,0.1-0.2c0-0.1,0-0.1,0.1-0.1c0-0.1,0.1-0.2,0.1-0.2c0-0.1,0-0.2,0.1-0.2c0,0,0-0.1,0-0.1v0
		l0.1,0c0-0.1,0-0.2,0.1-0.2c0-0.1,0-0.2,0.1-0.3c0,0,0,0,0.1,0c0-0.1,0-0.2,0.1-0.2c0-0.3,0.1-0.6,0.2-0.8c0-0.1,0-0.3,0-0.4
		c0.1-0.2,0.1-0.5,0.1-0.8C51.3,19.8,51.3,19.5,51.3,19.2z"/>
	<path class="st0" d="M20.4,29.4c-0.1-0.1-0.1-0.1-0.1-0.2c0,0-0.1,0-0.1,0c0-0.1,0-0.1,0-0.2c-0.1,0-0.1-0.1-0.1-0.2L20,28.7
		c-0.1,0-0.1-0.1-0.1-0.2c-0.1,0-0.1-0.1-0.1-0.2l-0.1-0.1c-0.1,0-0.1-0.1-0.1-0.2c0,0-0.1-0.1-0.1-0.1c-0.1,0-0.1-0.1-0.1-0.1
		c-0.1,0-0.1-0.1-0.1-0.2c0,0-0.1-0.1-0.1-0.1c0,0-0.1-0.1-0.1-0.1L18.7,27c-0.1-0.2-0.3-0.3-0.4-0.5c-0.1,0-0.1,0-0.1-0.1
		c-0.1,0-0.1,0-0.1-0.1c-0.1,0-0.1-0.1-0.2-0.1c-0.1,0-0.1,0-0.1-0.1c-0.1,0-0.2,0-0.2-0.1c-0.1,0-0.2,0-0.2-0.1l-0.2,0
		c0,0,0-0.1,0-0.1c-0.1,0-0.2,0-0.3-0.1l-0.2,0c0,0.1,0,0.3,0,0.4c0.1,0.1,0.1,0.2,0.1,0.3c0.1,0.1,0.1,0.1,0.1,0.2h0
		c0,0.1,0,0.2,0.1,0.2v0c0,0.1,0,0.2,0.1,0.2v0c0,0.1,0,0.2,0.1,0.2v0c0.1,0.1,0,0.2,0.1,0.3c0.1,0.1,0,0.2,0.1,0.3v0
		c0.1,0.2,0,0.4,0.1,0.5c0,0.1,0,0.1,0,0.2c0,0.2,0.1,0.4,0,0.6c0,0,0,0,0,0c0,0,0,0,0,0c0,0.1,0,0.1,0,0.2c0,0-0.1,0-0.1,0
		c0,0,0,0.1,0,0.1c0,0.3,0,0.6-0.1,0.9c-0.1,0.1,0,0.3-0.1,0.5c0,0,0,0.1,0,0.1c-0.1,0.1-0.1,0.2,0,0.3c0,0.1-0.1,0.1-0.1,0.2
		c0,0,0,0.1,0,0.1c0,0.4,0,0.8,0,1.3c0,0,0,0.1,0,0.1c0,0,0,0.1,0.1,0.1c-0.1,0.2,0,0.3,0,0.5c0,0,0,0.1,0,0.1c0,0,0.1,0,0.1,0
		c0,0.1,0,0.3,0,0.4c0,0,0.1,0,0.1,0l0,0c0,0,0,0,0,0c-0.1,0.1,0,0.3,0,0.4c0,0,0,0,0,0.1c0,0,0.1,0,0.1,0v0l0,0.3
		c0.1,0.1,0.1,0.2,0.1,0.3c0.1,0.1,0.1,0.2,0.1,0.3c0.1,0.1,0.1,0.2,0.1,0.3l0.1,0c0,0.1,0,0.1,0,0.2c0.1,0.1,0.1,0.2,0.1,0.3
		c0.1,0.1,0.1,0.1,0.1,0.2c0.1,0.1,0.1,0.3,0.2,0.4c0.1,0,0.1,0.1,0.1,0.2c0,0,0.1,0.1,0.1,0.1c0.1,0,0.1,0.1,0.1,0.2
		c0.1,0,0.1,0.1,0.1,0.1c0.1,0.1,0.2,0.2,0.4,0.4c0.1,0.1,0.1,0,0.1-0.1c-0.1,0-0.1-0.1-0.1-0.2c-0.1-0.1-0.1-0.2-0.1-0.3
		c-0.1-0.3-0.2-0.7-0.1-1c0,0,0,0,0,0c0,0,0.1,0,0.1,0l0.1,0c0.1,0.1,0.2,0.1,0.2,0.1c0,0,0.1,0,0.1,0.1c0,0,0,0,0,0.1
		c0,0,0.1,0,0.1,0c0,0,0,0.1,0,0.1c0,0,0,0.1,0,0.1c0,0,0.1,0.1,0.1,0.1c0.1,0,0.1,0.1,0.1,0.2C20,37,20,37,20,37.1
		c0,0,0.1,0.1,0.1,0.1c0.1,0,0.1,0.1,0.1,0.2c0.1,0,0.1,0.1,0.1,0.2l0.1,0c0,0,0,0.1,0,0.1c0,0,0.1,0,0.1,0c0,0.1,0,0.1,0,0.2
		c0,0,0.1,0.1,0.1,0.1c0.1,0,0.1,0.1,0.1,0.2c0,0,0.1,0.1,0.1,0.1c0.1,0,0.1,0.1,0.1,0.2l0.1,0.1c0.1,0,0.1,0.1,0.1,0.2
		c0,0,0.1,0.1,0.1,0.1c0.1,0,0.1,0.1,0.1,0.1c0.1,0.1,0.2,0.2,0.2,0.3l0.1,0.1c0,0,0.1,0.1,0.1,0.1c0.1,0,0.1,0.1,0.1,0.1l0.1,0.1
		l0.2,0.1c0,0.1,0.1,0.1,0.1,0.2c0,0,0.1,0,0.1,0c0,0,0,0.1,0,0.1c0,0,0.1,0,0.1,0c0,0,0,0.1,0,0.1c0.1,0,0.2,0.1,0.3,0.2
		c0.1,0,0.2,0,0.2,0.1l0.2,0c0.1,0,0.2,0.1,0.2,0.1l0.2,0c0.1-0.1,0.3,0,0.4-0.1v0c0.1,0,0.2,0,0.2-0.1l0,0c0,0,0,0,0,0
		c0.1,0,0.1-0.1,0.1-0.1h0c0,0,0.1-0.1,0.1-0.1l0,0c0-0.1,0.2,0,0.2-0.1h0c0-0.1,0-0.1,0.1-0.1c0-0.1,0-0.1,0-0.2l-0.2,0
		c0-0.1,0-0.1-0.1-0.1c-0.1,0-0.2,0-0.3,0c-0.1-0.1-0.3,0-0.4-0.1c0,0,0,0,0,0c0,0,0,0,0,0c0,0-0.1,0-0.1,0c-0.1,0-0.2,0-0.2-0.1
		c-0.1-0.1-0.2,0-0.2-0.1l0,0c0,0-0.1,0-0.1,0c0,0,0,0,0-0.1l-0.1-0.1c-0.2-0.1-0.3-0.3-0.5-0.4c0-0.1,0-0.1-0.1-0.2l-0.1-0.1
		c-0.1,0-0.1-0.1-0.1-0.1c-0.1,0-0.1-0.1-0.1-0.2C22.1,38.2,22,38,22,37.8c-0.1-0.1-0.1-0.1-0.1-0.2c0,0,0,0-0.1,0h0
		c0-0.1,0-0.2,0-0.2c-0.1-0.1,0-0.2-0.1-0.2c0,0,0-0.1,0-0.1c0-0.1,0-0.2-0.1-0.2c-0.1-0.1,0-0.2-0.1-0.3c0,0-0.1,0-0.1-0.1
		c-0.1-0.1,0-0.2-0.1-0.3c-0.1-0.1,0-0.3-0.1-0.4v0c-0.1-0.2,0-0.4-0.1-0.5v0c0,0,0,0-0.1,0c0,0,0,0,0-0.1c0-0.2,0.1-0.4-0.1-0.5
		c0,0,0-0.1,0-0.1c-0.1-0.1-0.1-0.3-0.1-0.4c0-0.8,0-1.6,0-2.4c0-0.1,0-0.1,0-0.2l-0.1,0c0,0,0-0.1,0-0.1c0-0.1,0-0.1,0-0.2
		c0-0.1,0-0.2,0-0.3c-0.1-0.1-0.1-0.3-0.1-0.4c-0.1-0.1-0.1-0.2-0.1-0.3l-0.1-0.1v-0.2C20.4,29.6,20.4,29.5,20.4,29.4z"/>
	<polygon class="st0" points="46.4,25.1 46.4,25.1 46.4,25.1 	"/>
	<path class="st0" d="M48.9,25c0-0.2-0.2-0.4-0.1-0.7c0,0,0-0.1,0-0.2c0-0.2-0.1-0.3-0.1-0.5c0,0,0-0.1,0-0.1
		c-0.1-0.1-0.1-0.3-0.2-0.4l0,0c-0.1-0.1,0-0.3,0-0.4c0,0,0-0.1-0.1-0.1c0,0,0,0-0.1,0c0.1-0.1,0.1-0.2,0-0.3v0
		c-0.1-0.1,0-0.2-0.1-0.3v0c-0.1-0.1,0-0.2-0.1-0.3v0l0,0c-0.1-0.1,0-0.2-0.1-0.3v0l0,0l0,0c0-0.1,0-0.2-0.1-0.2
		c-0.1-0.1,0-0.2-0.1-0.3l0,0c0,0,0,0,0,0c0-0.1,0-0.2-0.1-0.2c0-0.1,0-0.2-0.1-0.2c0,0-0.1,0-0.1,0c-0.1-0.4-0.3-0.7-0.5-1.1
		c0-0.1,0-0.1,0-0.2c-0.1,0-0.1-0.1-0.1-0.2c0,0-0.1,0-0.1,0c0-0.1,0-0.1,0-0.2c-0.1,0-0.1-0.1-0.1-0.2c0,0-0.1-0.1-0.1-0.1
		c0,0-0.1,0-0.1,0c0-0.1,0-0.1,0-0.2c-0.1-0.1-0.2-0.2-0.2-0.3c-0.1,0-0.1-0.1-0.1-0.2c-0.1,0-0.1-0.1-0.1-0.1
		c-0.1,0-0.1-0.1-0.1-0.2c-0.1,0-0.1-0.1-0.1-0.1c0,0-0.1,0-0.1,0c0-0.1,0-0.1-0.1-0.2c-0.1,0-0.1-0.1-0.1-0.1
		c-0.1,0-0.1-0.1-0.1-0.2c0,0-0.1-0.1-0.1-0.1c-0.1-0.1-0.2-0.2-0.2-0.3c-0.1,0-0.1-0.1-0.1-0.1c-0.1,0-0.1-0.1-0.1-0.2
		c-0.1,0-0.1-0.1-0.1-0.1c-0.1,0-0.1-0.1-0.1-0.1c0,0-0.1,0-0.1,0c0-0.1-0.1-0.1-0.1-0.1h0c0-0.1,0-0.1,0-0.2
		c-0.1,0-0.1-0.1-0.1-0.1l-0.2-0.1c0-0.1,0-0.1,0-0.2c0,0-0.1,0-0.1,0c0,0,0-0.1,0-0.1c-0.1,0-0.1-0.1-0.1-0.1
		c-0.1,0-0.1-0.1-0.1-0.1c-0.1-0.1-0.2-0.2-0.2-0.3c-0.1,0-0.1-0.1-0.1-0.1c-0.1,0-0.1-0.1-0.1-0.1c-0.1,0-0.1-0.1-0.1-0.1l-0.1,0
		c0-0.1-0.1-0.1-0.1-0.1c0-0.1-0.1-0.2-0.2-0.3l-0.1-0.1l-0.1,0c0,0,0-0.1,0-0.1l-0.1,0c0,0,0-0.1,0-0.1l-0.1,0c0,0,0-0.1,0-0.1
		l-0.1,0c0,0,0-0.1,0-0.1c-0.3-0.2-0.5-0.4-0.7-0.7c-0.1,0-0.1-0.1-0.1-0.1c-0.1,0-0.1-0.1-0.1-0.1c-0.1,0-0.1-0.1-0.1-0.1
		c-0.1,0-0.1-0.1-0.1-0.1c-0.1,0-0.1-0.1-0.1-0.1c-0.1-0.1-0.1-0.1-0.2-0.2c-0.1,0-0.1,0-0.1-0.1c-0.1,0-0.1-0.1-0.1-0.1
		c-0.1,0-0.1-0.1-0.1-0.1c-0.1,0-0.1-0.1-0.1-0.1c-0.1,0-0.1-0.1-0.1-0.1c-0.1-0.1-0.1-0.1-0.2-0.2c-0.1,0-0.1,0-0.1-0.1l-0.1,0
		c0,0,0-0.1,0-0.1c-0.1-0.1-0.1-0.1-0.2-0.2c-0.1,0-0.1,0-0.1-0.1c-0.3-0.2-0.5-0.4-0.7-0.7c-0.1,0-0.1,0-0.1-0.1
		c-0.1-0.1-0.2-0.1-0.2-0.2c-0.1,0-0.2-0.1-0.3-0.2C38.3,9,38.3,9,38.2,8.9c-0.1,0-0.2-0.1-0.2-0.1c-0.1,0-0.1,0-0.1-0.1
		c-0.1,0-0.2-0.1-0.2-0.1c-0.1,0-0.1,0-0.1-0.1l-0.2,0c0,0,0-0.1,0-0.1c-0.1,0-0.1,0-0.1-0.1c-0.1,0-0.2,0-0.2-0.1
		c-0.1,0-0.2,0-0.2-0.1c-0.1,0-0.3-0.1-0.3-0.2c-0.1,0-0.2,0-0.2-0.1c-0.1,0-0.2,0-0.2-0.1c-0.1,0-0.2,0-0.2-0.1
		c-0.1,0-0.2-0.1-0.3-0.1c-0.1,0-0.2,0-0.2-0.1c-0.1,0-0.2,0-0.2-0.1c-0.1,0-0.2,0-0.3,0c0,0,0-0.1,0-0.1c-0.1,0-0.2,0-0.2-0.1
		c-0.1,0-0.2,0-0.3-0.1c-0.1,0-0.2,0-0.3-0.1c-0.1,0-0.2,0-0.3-0.1c-0.1,0-0.2,0-0.3-0.1c-0.1,0-0.2,0-0.3,0c0,0,0-0.1,0-0.1
		c0,0-0.1,0-0.1,0l-0.2,0c0-0.1,0-0.1-0.1-0.1c0,0,0,0-0.1,0c-0.1-0.1-0.2,0-0.4-0.1c0,0,0,0-0.1,0c0,0,0,0,0,0
		c-0.1-0.1-0.3,0-0.4-0.1h0c-0.1-0.1-0.3,0-0.5-0.1c0,0-0.1,0-0.1,0c-0.1-0.1-0.3,0-0.5-0.1c0,0-0.1,0-0.1,0
		c-0.1-0.1-0.2-0.1-0.3-0.1l-0.1,0c0,0-0.1-0.1-0.1-0.1c0,0-0.1,0-0.1,0c-0.2,0-0.4,0-0.6-0.1c-0.1,0-0.1,0-0.2,0
		c-0.3,0.1-0.7,0.1-1-0.1c-0.1,0-0.2,0-0.3,0c-0.7,0.1-1.4,0.1-2,0c-0.1,0-0.2,0-0.3,0c-0.2,0.1-0.5,0.2-0.8,0.1c0,0-0.1,0-0.1,0
		c-0.1,0-0.3,0.1-0.5,0.1c0,0-0.1,0-0.1,0c-0.1,0-0.2,0.1-0.2,0.1c0,0-0.1,0-0.1,0.1h0l0,0c0,0-0.1,0-0.1,0c0,0,0,0,0,0.1
		C23.6,6,23.5,6,23.4,6c0,0,0,0,0,0c-0.1,0.1-0.2,0-0.3,0.1h0c0,0,0,0,0,0c0,0,0,0,0,0l0,0c-0.1,0-0.1,0-0.2,0.1h0
		c-0.1,0.1-0.2,0-0.2,0.1c-0.1,0.1-0.2,0-0.2,0.1c-0.1,0.1-0.2,0-0.2,0.1l0,0c-0.1,0.1-0.2,0-0.2,0.1h0c-0.1,0.1-0.2,0-0.2,0.1
		c-0.1,0.1-0.2,0.1-0.3,0.2c-0.1,0.1-0.2,0-0.2,0.1h0c-0.1,0-0.2,0-0.2,0.1c0,0-0.1,0.1-0.1,0.1c0,0,0,0,0,0c-0.1,0-0.1,0-0.2,0.1
		l0,0c0,0-0.1,0.1-0.1,0.1c-0.1,0.1-0.1,0-0.2,0.1c-0.1,0-0.1,0.1-0.1,0.1h0C20.2,7.8,20.1,7.9,20,8l0,0C20,8,20,8,19.9,8.1
		c-0.1,0.1-0.2,0-0.2,0.1l0,0c-0.1,0-0.1,0.1-0.1,0.1l0,0c0,0-0.1,0.1-0.1,0.1c-0.1,0.1-0.2,0.1-0.3,0.2l0,0c0,0-0.1,0.1-0.1,0.1
		l0,0c0,0-0.1,0.1-0.1,0.1c-0.1,0.1-0.1,0.1-0.2,0.2l-0.1,0l-0.1,0.1c0,0-0.1,0.1-0.1,0.1c0,0.1-0.1,0.1-0.1,0.1
		c-0.1,0.2-0.3,0.3-0.5,0.5c0,0-0.1,0.1-0.1,0.1c0,0-0.1,0.1-0.1,0.1c0,0-0.1,0.1-0.1,0.1l-0.1,0.1c0,0-0.1,0.1-0.1,0.1
		c0,0,0,0.1,0,0.1c0,0-0.1,0-0.1,0c0,0-0.1,0.1-0.1,0.1L17,10.6c0,0-0.1,0.1-0.1,0.1c0,0,0,0.1,0,0.1v0c0,0-0.1,0-0.1,0
		c0,0-0.1,0-0.1,0c0,0,0-0.1,0-0.1c-0.1,0-0.2,0-0.2-0.1c-0.1,0-0.2,0-0.2-0.1c-0.1,0-0.2,0-0.3-0.1c-0.1,0-0.2,0-0.3-0.1
		c-0.1,0-0.2,0-0.3-0.1c-0.2,0-0.4,0-0.5-0.1c0,0-0.1,0-0.1,0h-1c-0.5,0-0.9,0-1.4,0v0c-0.2,0.1-0.4,0-0.5,0.1c0,0,0,0-0.1,0
		c0,0,0,0,0,0c-0.1,0.1-0.3,0-0.3,0.1c-0.1,0-0.2,0-0.2,0.1c-0.1,0.1-0.2,0-0.2,0.1c-0.1,0.1-0.1,0-0.2,0.1c0,0,0,0-0.1,0
		c0,0-0.1,0-0.1,0.1c0,0,0,0,0,0h-0.1c0,0,0,0,0,0.1c0,0-0.1,0-0.1,0c0,0,0,0-0.1,0l-0.1,0c0,0,0,0,0,0.1l-0.1,0l-0.1,0
		c0,0,0,0,0,0.1l0,0c0,0,0,0,0,0l-0.1,0l-0.1,0.1c0,0.1-0.1,0.1-0.2,0.1l-0.1,0.1c-0.1,0.1-0.2,0.2-0.3,0.2c0,0.1-0.1,0.1-0.1,0.1
		c0,0,0,0.1,0,0.1c0,0,0.1,0.1,0.1,0.1c0,0,0,0-0.1,0c0,0,0,0,0,0l-0.2,0.1l-0.1,0.1L8.6,12c0,0-0.1,0.1-0.1,0.1c0,0,0,0.1,0,0.1
		c0,0-0.1,0-0.1,0c0,0.1-0.1,0.1-0.2,0.1L8,12.4c0,0.1-0.1,0.1-0.2,0.1c0,0.1-0.1,0.1-0.2,0.1c-0.1,0.1-0.1,0.1-0.2,0.1
		c-0.1,0.1-0.1,0.1-0.2,0.1c-0.1,0.1-0.2,0-0.2,0.1c0,0,0,0-0.1,0c-0.1,0-0.2,0-0.3,0.1c0,0.1-0.2,0.1-0.1,0.2l0.2,0
		c0.2,0.1,0.4,0,0.6,0.1l0,0l0,0c0.1,0.1,0.2,0,0.3,0.1l0,0l0,0c0.1,0.1,0.2,0,0.3,0.1l0,0c0.1,0.1,0.2,0,0.3,0.1
		c0.1,0.1,0.1,0.1,0.2,0c0,0,0,0,0,0.1c0.1,0,0.2,0,0.3,0c0,0,0,0.1,0,0.1C9.1,14,9.2,14,9.3,14.1c0.1,0,0.2,0,0.2,0.1
		c0.1,0,0.2,0,0.2,0.1c0.1,0,0.1,0,0.2,0c0,0,0,0.1,0,0.1h0c0.1,0.1,0.2,0,0.3,0.1c0.1,0.1,0.2,0,0.2,0.1c0.1,0.1,0.2,0,0.2,0.1h0
		c0.1,0.1,0.2,0.1,0.2,0.1h0c0.1,0.1,0.1,0.1,0.2,0.1l0,0l0,0c0.1,0.1,0.2,0,0.3,0.1c0.1,0.1,0.2,0,0.2,0.1h0
		c0.1,0.1,0.2,0.1,0.3,0.1h0l0,0c0.1,0.1,0.2,0,0.2,0.1l0,0c0,0.1,0.1,0.1,0.2,0l0,0l0.1,0.1c0.1,0,0.2,0,0.3,0.1
		c0.1,0,0.3,0,0.4,0.1h0.6c0.1-0.1,0.3-0.1,0.4-0.1c0.1-0.1,0.1-0.1,0.2-0.1c0.1-0.1,0.1-0.1,0.2-0.1c0-0.1,0.1-0.1,0.2-0.1
		c0-0.1,0.1-0.1,0.2-0.1c0-0.1,0.1-0.1,0.2-0.1l0.1-0.1c0.1-0.1,0.2-0.2,0.3-0.2c0-0.1,0.1-0.1,0.1-0.1c0,0,0-0.1,0-0.1
		c0.1-0.1,0.3-0.2,0.4-0.3c0.1,0,0.1,0,0.1,0s0.1,0.1,0,0.1c-0.2,0.1-0.3,0.3-0.5,0.4c0,0.1,0,0.2-0.1,0.2c0,0.1,0,0.2-0.1,0.3
		c0,0.1,0,0.2,0,0.3c0,0,0,0,0,0.1l-0.1,0c0,0.2,0,0.3,0,0.5c0,0.1-0.1,0.1-0.1,0.2c0,0.5,0,1,0,1.5c0,0.1,0.1,0.2,0.1,0.3
		c0,0,0,0,0,0.1c0,0.1-0.1,0.3,0,0.4v0c0.1,0.2,0,0.4,0.1,0.5c0,0,0,0.1,0,0.1c0.1,0.1,0,0.3,0.1,0.5c0,0,0,0,0,0.1
		c0,0,0,0.1,0.1,0.1c0,0,0,0,0,0c0,0,0,0.1,0,0.1c0,0.1,0,0.1,0,0.2c0,0,0.1,0,0.1,0c0,0,0,0,0,0.1l0,0c0,0.1-0.1,0.2,0,0.3v0
		c0.1,0.1,0,0.2,0.1,0.3c0,0,0,0,0,0.1c0,0.1,0,0.1,0.1,0.1c0,0.1,0,0.2,0,0.3c0,0,0.1,0,0.1,0c0,0.1,0,0.1,0,0.2c0,0,0.1,0,0.1,0
		c0,0.1,0,0.2,0,0.3c0,0,0.1,0.1,0.1,0.1c0,0,0,0,0,0.1c0,0,0.1,0,0.1,0c0,0,0,0,0,0c0,0,0,0.1,0,0.1c0,0,0.1,0,0.1,0l0,0.2
		c0.1,0,0.1,0.1,0.1,0.2c0.1,0.1,0.1,0.2,0.1,0.3c0,0,0.1,0,0.1,0c0,0.1,0,0.1,0,0.2c0.1,0,0.1,0.1,0.1,0.2c0.1,0.1,0.1,0.2,0.1,0.3
		c0.1,0.1,0.1,0.1,0.1,0.2c0.1,0.1,0.1,0.2,0.1,0.3c0.1,0.1,0.1,0.1,0.1,0.2c0.1,0.1,0.1,0.2,0.1,0.3c0,0.1,0.1,0.3,0.2,0.4
		c0.1,0.1,0.1,0.1,0.2,0c0,0,0-0.1,0.1-0.1c0-0.1,0-0.2,0.1-0.2c0-0.1,0-0.2,0.1-0.2c0-0.1,0-0.2,0.1-0.2c0-0.1,0-0.2,0.1-0.2
		c0-0.1,0-0.1,0-0.2c0.1,0,0.1-0.1,0.2-0.1c0-0.1,0.1-0.2,0.1-0.2c0-0.1,0-0.2,0.1-0.2c0,0,0.1-0.1,0.1-0.1c0-0.1,0.1-0.2,0.1-0.2
		c0-0.1,0-0.2,0.1-0.2c0,0,0-0.1,0-0.1l0.1,0c0-0.1,0-0.2,0.1-0.2c0-0.1,0-0.1,0-0.2c0,0,0.1,0,0.1,0c0-0.1,0-0.2,0.1-0.2
		c0,0,0.1-0.1,0.1-0.1c0-0.1,0-0.2,0.1-0.2c0-0.1,0-0.2,0.1-0.2c0-0.1,0-0.2,0.1-0.2c0-0.1,0-0.2,0.1-0.2c0-0.1,0-0.2,0.1-0.2
		c0-0.1,0-0.1,0-0.2c0,0,0.1,0,0.1,0c0-0.1,0-0.2,0.1-0.2c0-0.1,0-0.1,0-0.2c0,0,0.1,0,0.1,0c0-0.1,0-0.2,0.1-0.3
		c0-0.1,0-0.3,0.1-0.4c0-0.1,0-0.2,0-0.2h0c0,0,0.1-0.1,0.1-0.1c0,0,0-0.1,0-0.1c0.1-0.1,0-0.3,0.1-0.5c0,0-0.1,0-0.1,0
		c0,0,0-0.1,0.1-0.1c0-0.2,0-0.4,0-0.5c0,0,0-0.1,0-0.1c0-0.2,0-0.4,0-0.6l0,0c0,0,0,0,0,0c0-0.1,0-0.2-0.1-0.3c0,0,0,0,0-0.1
		c0,0,0,0,0,0c-0.1-0.1,0-0.3-0.1-0.3l0,0c0,0,0,0,0,0c0-0.1,0-0.2-0.1-0.2c-0.1-0.1,0-0.2-0.1-0.3l0,0c0,0,0,0,0,0
		c0-0.1,0-0.2-0.1-0.2v0c-0.1-0.1,0-0.2-0.1-0.2c-0.1-0.1,0-0.2-0.1-0.3l0,0c0-0.1,0-0.2-0.1-0.2c0,0-0.1,0-0.1,0c0-0.1,0-0.2,0-0.3
		l-0.1,0c0-0.1,0-0.2,0-0.3c-0.1-0.1-0.1-0.1-0.1-0.2c-0.1,0-0.1-0.1-0.1-0.2c-0.1-0.1-0.2-0.3-0.2-0.4c-0.1,0-0.1-0.1-0.1-0.2
		c-0.1,0-0.1-0.1-0.1-0.2c-0.1,0-0.1-0.1-0.1-0.2c0,0-0.1-0.1-0.1-0.1c-0.1-0.1-0.1-0.2,0-0.3c0-0.1,0-0.1,0.1-0.1
		c0-0.1,0.1-0.2,0.2-0.3c0-0.1,0-0.1,0.1-0.1c0-0.1,0-0.1,0.1-0.1c0.1-0.1,0.1-0.1,0.2-0.2c0,0,0-0.1,0-0.1c0,0,0.1,0,0.1,0
		c0,0,0-0.1,0-0.1c0,0,0.1,0,0.1,0c0-0.1,0.1-0.1,0.1-0.1c0-0.1,0.1-0.1,0.1-0.1l0.1-0.1c0-0.1,0.1-0.1,0.2-0.1c0,0,0-0.1,0-0.1
		l0.1,0c0.1-0.1,0.2-0.2,0.3-0.2c0.1-0.1,0.2-0.2,0.3-0.2c0-0.1,0.1-0.1,0.2-0.1c0-0.1,0.1-0.1,0.2-0.1c0.1-0.1,0.3-0.1,0.4-0.2
		c0.1-0.1,0.2-0.1,0.3-0.1c0,0,0,0,0,0c0,0,0,0,0,0c0.1,0,0.2,0,0.3-0.1l0,0c0.1-0.1,0.2,0,0.3-0.1l0,0l0,0c0.1-0.1,0.3,0,0.4-0.1
		l0,0l0,0c0.1-0.1,0.2,0,0.3-0.1c0.1,0.1,0.3,0.1,0.4,0l0,0l0,0c0.7-0.1,1.3-0.1,2,0l0,0l0,0c0.1,0.1,0.3,0.1,0.4,0
		c0.1,0,0.1,0.1,0.2,0.1c0.1,0.1,0.2,0,0.3,0.1l0,0c0.1,0.1,0.2,0,0.3,0.1l0,0l0,0c0.1,0.1,0.2,0,0.2,0.1c0.1,0.1,0.1,0.1,0.2,0.1h0
		l0,0c0.1,0,0.2,0,0.2,0.1c0.1,0,0.2,0,0.2,0.1c0.1,0,0.2,0,0.2,0.1l0.2,0c0,0.1,0.1,0.1,0.1,0.2c0.1,0,0.2,0.1,0.3,0.2
		c0.1,0,0.1,0,0.1,0.1c0.1,0,0.2,0.1,0.3,0.2c0.1,0.1,0.2,0.1,0.2,0.2c0,0,0.1,0.1,0.1,0.1l0.1,0.1l0.1,0.1c0.1,0.1,0.3,0.2,0.3,0.3
		l0.1,0.1l0.1,0.1c0.1,0,0.1,0.1,0.1,0.1c0.1,0,0.1,0.1,0.1,0.1c0.1,0,0.1,0.1,0.1,0.1c0.1,0.1,0.2,0.2,0.2,0.3c0,0,0.1,0,0.1,0
		c0,0,0,0.1,0,0.1c0.1,0,0.1,0.1,0.1,0.1c0,0,0.1,0,0.1,0c0,0.1,0,0.1,0.1,0.2l0.1,0.1l0.1,0.1c0,0,0.1,0,0.1,0
		c0,0.1,0.1,0.2,0.1,0.3c0.1,0.1,0.2,0.2,0.2,0.3c0.1,0,0.1,0.1,0.1,0.2c0.1,0.1,0.2,0.2,0.2,0.3l0.1,0c0,0.1,0,0.1,0,0.2
		c0,0,0.1,0,0.1,0c0,0.1,0,0.1,0,0.2c0.1,0.1,0.1,0.1,0.2,0.2c0,0,0,0,0,0c0,0.1,0,0.1,0,0.2l0.1,0c0,0,0,0,0-0.1l0,0l0,0
		c0,0.1,0,0.1,0,0.2c0.1,0,0.1,0.1,0.1,0.2c0,0,0.1,0,0.1,0c0,0,0,0,0,0l0,0l-0.1,0c0,0.1,0,0.1,0,0.2c0.1,0,0.1,0.1,0.1,0.2
		c0.1,0,0.1,0.1,0.1,0.2c0.1,0.1,0.1,0.1,0.1,0.2c0.1,0,0.1,0.1,0.1,0.2c0.1,0.1,0.1,0.2,0.1,0.3c0.1,0.1,0.1,0.1,0.1,0.2
		c0.1,0.1,0.1,0.1,0.1,0.2c0.1,0.1,0.1,0.2,0.1,0.3c0.1,0.1,0.1,0.1,0.1,0.2c0.1,0.1,0.1,0.2,0.1,0.3c0.1,0.1,0.1,0.1,0.1,0.2
		c0.1,0.1,0.1,0.2,0.1,0.3c0.1,0.2,0.2,0.4,0.2,0.6c0.1,0.1,0.1,0.2,0.1,0.3c0.1,0.1,0.1,0.2,0.1,0.3c0.1,0.1,0.1,0.2,0.1,0.3
		c0.1,0.1,0.1,0.3,0.1,0.4c0.1,0.1,0.1,0.3,0.1,0.4c0.1,0.2,0.1,0.4,0.1,0.6l0.1,0c0,0.4,0,0.8,0,1.1c0.1,0.3,0.1,0.6,0,0.9
		c0,0.4,0,0.8,0,1.1c-0.1,0.2,0,0.5-0.1,0.7c0,0.5,0,1,0,1.5c0,0.4,0,0.8,0,1.2c0,0,0,0,0.1,0c0,0.2,0,0.4,0,0.6
		c0.1,0.1,0.1,0.3,0.1,0.4C36,30,36,30.2,36,30.3l0.2,0.1c0-0.1,0-0.2,0.1-0.3c0-0.2,0.1-0.4,0.2-0.5c0.1-0.1,0.1-0.3,0.2-0.4
		c0-0.1,0-0.2,0.1-0.2c0-0.1,0.1-0.3,0.2-0.3c0-0.1,0.1-0.2,0.1-0.2c0-0.1,0-0.1,0.1-0.1c0-0.1,0.1-0.2,0.2-0.3c0-0.1,0-0.1,0.1-0.1
		c0-0.1,0.1-0.2,0.2-0.3c0.1-0.1,0.1-0.1,0.2-0.2c0-0.1,0-0.1,0.1-0.1c0-0.1,0-0.1,0.1-0.1c0-0.1,0-0.1,0.1-0.1
		c0-0.1,0.1-0.1,0.1-0.1c0,0,0-0.1,0-0.1h0l0.1,0c0-0.1,0.1-0.1,0.1-0.1c0,0,0-0.1,0-0.1l0.1,0c0-0.1,0.1-0.1,0.1-0.1
		c0,0,0-0.1,0-0.1l0.1,0c0,0,0-0.1,0-0.1c0.1,0,0.2-0.1,0.2-0.2c0,0,0,0,0.1,0c0,0,0-0.1,0-0.1l0,0h0.1c0,0,0-0.1,0-0.1h0.1
		c0,0,0-0.1,0-0.1c0.1,0,0.1,0,0.1-0.1l0.2,0c0-0.1,0.1-0.1,0.1-0.1c0-0.1,0.1-0.1,0.2-0.1c0,0,0-0.1,0-0.1h0.1c0,0,0-0.1,0-0.1h0
		l0,0h0v0l0,0v0l0.2,0c0-0.1,0.1-0.1,0.1-0.1c0-0.1,0.1-0.1,0.2-0.1c0.1-0.1,0.2-0.2,0.3-0.2c0-0.1,0.1-0.1,0.2-0.1
		c0.1-0.1,0.2-0.2,0.3-0.2c0-0.1,0.1-0.1,0.2-0.1c0-0.1,0.1-0.1,0.2-0.1c0-0.1,0.1-0.1,0.2-0.1c0.1-0.1,0.2-0.2,0.3-0.2
		c0-0.1,0.1-0.1,0.2-0.1c0-0.1,0.1-0.1,0.2-0.1c0.1,0,0.3,0,0.3-0.2c0,0,0,0,0,0c0,0,0,0,0,0c0.1,0,0.2,0,0.2,0l0,0l0,0
		c0.1-0.1,0.3,0,0.4-0.1l0,0l0,0c0.3-0.1,0.6-0.1,0.9,0l0,0l0,0c0.1,0.1,0.2,0,0.3,0.1l0,0c0.1,0.1,0.1,0.1,0.2,0.1l0,0l0,0h0
		c0,0.1,0.1,0.1,0.2,0.1l0,0l0,0c0,0.1,0.1,0.1,0.2,0.1c0,0,0.1,0.1,0.1,0.1l0,0h0c0,0.1,0.1,0.1,0.1,0.1l0,0c0,0.1,0.1,0.1,0.1,0.1
		c0,0.1,0.1,0.1,0.1,0.1l0,0c0,0.1,0.1,0.1,0.1,0.1l0,0c0,0,0.1,0.1,0.1,0.1c0.1,0.1,0,0.2,0.1,0.2v0l0,0l0,0c0,0,0,0.1,0.1,0.1
		c0,0,0,0,0,0c0,0.1,0,0.1,0,0.2c0,0,0,0.1,0,0.1c0.1,0.3,0,0.4-0.2,0.5c0.1-0.1,0-0.3,0-0.4v0l0,0v0c0-0.1-0.1-0.2-0.2-0.3
		c0,0-0.1,0-0.1,0c0,0,0-0.1,0-0.1l-0.1,0l0,0c0,0,0-0.1,0-0.1c0,0-0.1,0-0.1,0c0,0,0-0.1,0-0.1l-0.2-0.1c0-0.1-0.1-0.1-0.1-0.2
		c-0.1,0-0.2,0-0.2-0.1c-0.4,0-0.8,0-1.2,0c-0.1,0.1-0.3,0.1-0.4,0.1c-0.1,0.1-0.2,0.1-0.3,0.1c-0.1,0.1-0.1,0.1-0.2,0.1
		c-0.1,0.1-0.3,0.1-0.4,0.2c0,0.1-0.1,0.1-0.2,0.1c-0.1,0.1-0.3,0.2-0.4,0.2c0,0.1-0.1,0.1-0.1,0.1c0,0.1-0.1,0.1-0.2,0.1
		c0,0.1-0.1,0.1-0.1,0.1c0,0.1-0.1,0.1-0.2,0.1c0,0.1-0.1,0.1-0.1,0.1c-0.1,0.1-0.2,0.2-0.3,0.2c0,0.1-0.1,0.1-0.1,0.1
		c0,0.1-0.1,0.1-0.1,0.1c-0.1,0.1-0.2,0.3-0.4,0.3c0,0.1-0.1,0.1-0.1,0.1c0,0.1-0.1,0.1-0.1,0.1c0,0.1-0.1,0.1-0.1,0.1
		c-0.1,0.1-0.1,0.1-0.2,0.2c0,0.1-0.1,0.1-0.1,0.1c0,0.1-0.1,0.1-0.1,0.1l-0.3,0.3c-0.2,0.2-0.4,0.4-0.5,0.6
		c-0.1,0.1-0.2,0.2-0.3,0.2c0,0.1,0,0.1-0.1,0.1c0,0.1,0,0.1-0.1,0.1c0,0.1-0.1,0.2-0.2,0.3c0,0.1,0,0.1-0.1,0.1
		c0,0.1-0.1,0.2-0.1,0.2c0,0.1-0.1,0.2-0.2,0.3c-0.1,0.1-0.2,0.3-0.2,0.4c0,0.1,0,0.2-0.1,0.2c0,0.2-0.1,0.4-0.2,0.5
		c0,0.1,0,0.2-0.1,0.3c0,0.1,0,0.3-0.1,0.4C37,32,37,32.5,37,32.9c0.1,0.1,0.1,0.3,0.2,0.4c0.1,0,0.1,0.1,0.1,0.2
		c0.1,0.1,0.1,0.3,0.2,0.4c0.1,0,0.1,0.1,0.1,0.2c0.1,0,0.1,0.1,0.1,0.2c0.1,0,0.1,0.1,0.1,0.1c0.1,0,0.1,0.1,0.1,0.2
		c0.1,0.1,0.2,0.2,0.2,0.3c0.1,0.1,0.2,0.2,0.2,0.3c0.1,0.1,0.2,0.2,0.2,0.3c0.1,0,0.1,0.1,0.1,0.1c0.1,0.1,0.2,0.2,0.2,0.3
		c0.1,0,0.1,0.1,0.1,0.1c0.1,0,0.1,0.1,0.1,0.1c0.1,0,0.1,0.1,0.1,0.1c0.3,0.2,0.4,0.5,0.7,0.6v-0.5c-0.1-0.1-0.1-0.3,0-0.5
		c0-0.3,0-0.6,0.1-0.8c0-0.1,0-0.1,0-0.2l0.2,0.1c0,0.1,0,0.2,0,0.3c0,0,0.1,0,0.1,0c0,0.1,0,0.3,0,0.4c0.1,0.1,0.1,0.2,0.1,0.3
		c0.1,0.1,0.1,0.2,0.1,0.3c0.1,0.1,0.1,0.1,0.1,0.2c0.1,0,0.1,0.1,0.1,0.2c0.1,0.2,0.3,0.4,0.3,0.6c0,0,0.1,0,0.1,0
		c0,0.1,0,0.1,0,0.2c0.1,0,0.1,0.1,0.1,0.2c0.1,0,0.1,0.1,0.1,0.2c0.1,0,0.1,0.1,0.1,0.1c0.1,0,0.1,0.1,0.1,0.2l0.1,0.1l0,0l0,0
		c0,0,0.1-0.1,0.1-0.1c0-0.1,0.1-0.1,0.2-0.1c0.1-0.1,0.2-0.1,0.2-0.2c0.1-0.1,0.2-0.2,0.3-0.2c0.1-0.1,0.2-0.1,0.2-0.2
		c0.1-0.1,0.1-0.1,0.2-0.2c0.2-0.2,0.4-0.4,0.6-0.6l0.7-0.7c0.1-0.1,0.1-0.1,0.2-0.2c0-0.1,0-0.1,0.1-0.1c0-0.1,0-0.1,0.1-0.1
		c0-0.1,0.1-0.2,0.2-0.3c0-0.1,0-0.1,0.1-0.1c0-0.1,0-0.1,0.1-0.1c0-0.1,0.1-0.1,0.1-0.2c0-0.1,0-0.1,0.1-0.1c0-0.1,0.1-0.2,0.2-0.3
		c0-0.1,0-0.1,0.1-0.1c0-0.1,0.1-0.2,0.1-0.2c0-0.1,0-0.1,0.1-0.1c0-0.1,0.1-0.2,0.1-0.2c0,0,0-0.1,0-0.1c0,0,0.1,0,0.1,0
		c0-0.1,0-0.1,0-0.2c0,0,0.1,0,0.1,0c0-0.1,0.1-0.2,0.2-0.3c0-0.1,0-0.1,0-0.2l0.1,0c0-0.1,0-0.2,0.1-0.2c0-0.1,0.1-0.3,0.2-0.3
		c0-0.1,0-0.2,0.1-0.2c0-0.1,0-0.2,0.1-0.2c0-0.1,0-0.2,0.1-0.2c0-0.1,0-0.1,0-0.2c0,0,0.1,0,0.1,0c0-0.1,0-0.2,0.1-0.3
		c0-0.1,0-0.1,0.1-0.1c0.1-0.3,0.2-0.6,0.3-0.8c0.1-0.2,0-0.4,0.2-0.5c0-0.1,0-0.2,0.1-0.3c0-0.2,0.1-0.5,0.1-0.7v0
		c0.1,0,0.1,0,0.1-0.1c0,0,0,0,0-0.1c0,0,0,0,0,0c0.1-0.1,0-0.2,0.1-0.3l0,0c0.1-0.1,0.1-0.2,0.2-0.4c0,0,0-0.1,0-0.1
		c0-0.2,0-0.3,0.1-0.5c0,0,0-0.1,0-0.1c0-0.3,0-0.5,0.1-0.8c0-0.1,0-0.1,0-0.2c0-0.4,0-0.9,0-1.3C49,25.1,49,25,48.9,25z M9.9,12.6
		L9.9,12.6L9.9,12.6L9.9,12.6z M14.3,11.7L14.3,11.7C14.3,11.6,14.3,11.7,14.3,11.7L14.3,11.7z M14.7,12.9L14.7,12.9L14.7,12.9
		L14.7,12.9C14.7,12.9,14.7,12.9,14.7,12.9z M17.6,12L17.6,12L17.6,12L17.6,12C17.6,12,17.6,12,17.6,12L17.6,12L17.6,12z M18.5,20.5
		L18.5,20.5C18.5,20.5,18.5,20.5,18.5,20.5L18.5,20.5C18.5,20.5,18.5,20.5,18.5,20.5z M18.9,14.7L18.9,14.7
		C18.9,14.7,18.9,14.7,18.9,14.7c0.1,0,0.1,0,0.2,0C19,14.7,18.9,14.7,18.9,14.7z M19.1,10.1L19.1,10.1L19.1,10.1L19.1,10.1z
		 M19.4,17L19.4,17L19.4,17L19.4,17z M28.8,8C28.8,7.9,28.8,7.9,28.8,8L28.8,8L28.8,8z M29.9,8.1L29.9,8.1L29.9,8.1L29.9,8.1z
		 M32.1,7.8L32.1,7.8L32.1,7.8L32.1,7.8z M33,14.8C33,14.8,32.9,14.9,33,14.8C32.9,14.9,32.9,14.8,33,14.8L33,14.8z M33,14.3
		C33.1,14.3,33.1,14.3,33,14.3L33,14.3L33,14.3C33.1,14.3,33.1,14.3,33,14.3z M33.3,15.4C33.3,15.4,33.3,15.4,33.3,15.4
		C33.3,15.4,33.3,15.4,33.3,15.4L33.3,15.4z M34.8,12.8L34.8,12.8L34.8,12.8L34.8,12.8z M35.9,11.5C35.9,11.5,35.9,11.5,35.9,11.5
		C35.9,11.5,35.9,11.5,35.9,11.5C35.9,11.5,35.9,11.5,35.9,11.5C35.9,11.5,35.9,11.5,35.9,11.5z M35.9,11.6L35.9,11.6L35.9,11.6
		L35.9,11.6z M36.4,19.2C36.4,19.2,36.4,19.2,36.4,19.2L36.4,19.2C36.4,19.2,36.4,19.2,36.4,19.2L36.4,19.2z M37.9,20.2
		C37.9,20.2,37.9,20.2,37.9,20.2L37.9,20.2L37.9,20.2z M41.3,19.2C41.3,19.2,41.3,19.2,41.3,19.2L41.3,19.2
		C41.3,19.2,41.3,19.2,41.3,19.2C41.3,19.2,41.3,19.2,41.3,19.2z M40.1,28.7C40.1,28.7,40.1,28.7,40.1,28.7L40.1,28.7
		C40.1,28.7,40.1,28.7,40.1,28.7z M43.6,31.3c-0.1,0-0.2,0-0.4,0c-0.6,0-1,0.5-1,1.1c0,0,0,0.1,0,0.1c0,0.3,0.1,0.5,0.3,0.7
		c0.1,0,0.2,0.1,0.1,0.2c0,0.1,0,0.2,0.1,0.2c0.1,0.1,0.2,0.1,0.2,0.2c0,0.1-0.1,0.2-0.1,0.2c-0.1,0.2-0.3,0.4-0.6,0.6
		c-0.3-0.3-0.5-0.6-0.8-1v0c-0.1-0.1,0-0.2-0.1-0.3c0,0,0-0.1,0-0.1c-0.2-0.8-0.1-1.6,0.4-2.3c0.2-0.3,0.4-0.6,0.6-0.9
		c0.1-0.1,0.2-0.3,0.3-0.4c0.1,0,0.2-0.1,0.2-0.2c0.2-0.1,0.3-0.3,0.5-0.3c0.2,0.3,0.3,0.7,0.4,1c0,0.3,0.1,0.6,0.1,0.9
		C43.8,31.3,43.8,31.3,43.6,31.3z M42.6,33.1L42.6,33.1C42.6,33.1,42.6,33.1,42.6,33.1L42.6,33.1z M45,33.4L45,33.4
		C45,33.4,45,33.4,45,33.4L45,33.4z M45.8,31.6L45.8,31.6L45.8,31.6L45.8,31.6z M46,30.3L46,30.3C46,30.3,46,30.4,46,30.3
		C46,30.4,46,30.3,46,30.3z M46.2,29.5L46.2,29.5L46.2,29.5C46.2,29.5,46.2,29.5,46.2,29.5z M46.3,29.2
		C46.3,29.2,46.3,29.2,46.3,29.2L46.3,29.2L46.3,29.2z"/>
</g>
</svg>
