<?xml version="1.0" encoding="utf-8"?>
<!-- Generator: Adobe Illustrator 22.1.0, SVG Export Plug-In . SVG Version: 6.00 Build 0)  -->
<svg version="1.1" id="Layer_1" xmlns="http://www.w3.org/2000/svg" xmlns:xlink="http://www.w3.org/1999/xlink" x="0px" y="0px"
	 viewBox="0 0 63.8 61.4" style="enable-background:new 0 0 63.8 61.4;" xml:space="preserve">
<style type="text/css">
	.st0{fill:#FFFFFF;}
</style>
<g>
	<polygon class="st0" points="44.2,17.4 44.3,17.4 44.3,17.4 	"/>
	<path class="st0" d="M37.5,56.1c-0.1-0.1,0-0.2-0.1-0.2c-0.1-0.1,0-0.2-0.1-0.2l0,0l-0.1-0.1l-0.1-0.1l0,0L37,55.4l0,0v-0.1l0,0
		l-0.1-0.1l-0.1-0.1V55c-0.1-0.1,0-0.2-0.1-0.3l0,0c0,0,0,0-0.1,0c0-0.1,0-0.2-0.1-0.3v-0.1c-0.1-0.2,0-0.4-0.1-0.6v-0.1
		c-0.2-0.4,0-0.8-0.1-1.2v-0.1c-0.1-0.5,0-0.9-0.1-1.4c0-0.2,0-0.4,0-0.6h-0.1l0,0v-0.4c0,0,0,0,0.1-0.1c0-0.1,0-0.3-0.1-0.4v-0.1
		c-0.1-0.2,0-0.5-0.1-0.7v-0.1c-0.1-0.1,0-0.3-0.1-0.4c-0.1-0.1,0-0.3-0.1-0.4v-0.1c-0.1-0.1,0-0.3-0.1-0.4c-0.1-0.1,0-0.3-0.1-0.3
		c-0.1-0.1,0-0.3-0.1-0.3h-0.1c0-0.1,0-0.1,0-0.2c-0.1-0.1-0.1-0.2-0.1-0.3h-0.1c0-0.1,0-0.1,0-0.2c-0.1-0.1-0.1-0.2-0.1-0.3
		C35,45.5,35,45.4,35,45.4L34.8,45c0-0.2-0.1-0.3-0.1-0.5c-0.1-0.2-0.2-0.4-0.3-0.6c-0.1-0.1-0.1-0.2-0.1-0.3
		c-0.1-0.1-0.1-0.2-0.1-0.3l-0.1-0.1C34,43,34,42.7,34,42.5c-0.1-0.2-0.1-0.4-0.1-0.5c0-0.3,0-0.6,0-1l0.1-0.1c0-0.1,0-0.3,0.1-0.4
		c0-0.1,0-0.2,0.1-0.3c0-0.1,0-0.1,0-0.2h0.1c0-0.1,0-0.2,0.1-0.2v-0.2h0.1c0-0.1,0-0.2,0.1-0.2v-0.2h0.1c0.1-0.2,0.2-0.3,0.2-0.5
		l0.1-0.1c0-0.2,0.1-0.3,0.2-0.4c0-0.1,0-0.2,0-0.3h0.1h0.1c0-0.1,0-0.2,0-0.3h-0.1v-0.1h-0.5l-0.4-0.3c0,0,0,0,0-0.1h-0.1v0.1h-0.2
		l-0.3,0.2l-0.1,0.1v0.1h-0.2c0,0.1-0.1,0.1-0.1,0.1c0,0.1-0.1,0.1-0.2,0.1c0,0.1-0.1,0.1-0.1,0.1c0,0.1-0.1,0.1-0.2,0.1
		c0,0.1-0.1,0.1-0.1,0.1l-0.1,0.1h-0.1c0,0.1-0.1,0.1-0.1,0.1l-0.1,0.1c0,0.1-0.1,0.1-0.2,0.1l-0.1,0.1c0,0.1-0.1,0.1-0.1,0.1
		c-0.1,0.1-0.2,0.2-0.3,0.3l-0.1,0.1c-0.1,0.1-0.2,0.2-0.3,0.3c0,0.1-0.1,0.1-0.1,0.1l-0.1,0.1L31,39.8c0,0.2,0,0.3-0.1,0.5
		c-0.1,1,0.1,1.9,0.5,2.8v0.1c0,0.2,0.2,0.4,0.1,0.6h0.1c0,0.1,0,0.1,0,0.2c-0.2,0.2-0.2,0.3-0.2,0.4c0.1,0.1,0.1,0.2,0.1,0.3
		c0.1,0.1,0.1,0.2,0.1,0.2c0.1,0.1,0.1,0.2,0.1,0.3c0.1,0.1,0.1,0.2,0.1,0.3c0.1,0.1,0.1,0.2,0.1,0.3l0.1,0.1l0,0c0,0.1,0,0.2,0,0.2
		l0,0c0.1,0.1,0,0.2,0.1,0.2c0.1,0.1,0,0.3,0.1,0.3v0.1c0,0,0,0.1,0.1,0.1c0,0.1,0,0.2,0,0.2v0.1c0,0.1,0,0.2,0.1,0.3l0.1,0.1
		c0,0.1,0,0.2,0,0.3h0.1c0,0.1,0,0.2,0,0.3c0.1,0.1,0.1,0.2,0.1,0.4l0.1,0.1v0.2c0.1,0.1,0.1,0.1,0.1,0.2v0.1
		c0.1,0.1,0.1,0.2,0.1,0.4c0.1,0.1,0.1,0.2,0.1,0.3h0.1c0,0.1,0,0.2,0,0.3l0.1,0.1c0,0.1,0,0.1,0,0.2c0.1,0.1,0.1,0.2,0.1,0.4
		c0.1,0.1,0.1,0.2,0.1,0.3l0.1,0.1l0,0c0,0.1,0,0.2,0,0.2c0.1,0.1,0,0.3,0.1,0.4c0.1,0.1,0,0.3,0.1,0.3c0.1,0.1,0,0.3,0.1,0.3
		c0.1,0.1,0,0.3,0.1,0.4c0.1,0.1,0,0.3,0.1,0.3c0.1,0.1,0,0.3,0.1,0.4c0.1,0.1,0,0.3,0.1,0.3c0,0.1,0.1,0.2,0.1,0.2s0,0.1,0.1,0.1
		c0.1,0.1,0,0.2,0.1,0.2v0.1c0.1,0.1,0,0.2,0.1,0.3l0.1,0.1c-0.1,0.1,0,0.2,0,0.2c0.1,0.1,0,0.2,0.1,0.2v0.1c0.1,0.1,0,0.3,0.1,0.4
		v0.2c0,0,0,0,0.1,0l0,0v0.6c0,0,0,0-0.1,0c0,0.1,0,0.1,0,0.2c-0.1,0.6-0.1,1.3,0,2v0.1c0,0,0,0,0.1,0c0,0.1,0,0.1,0,0.2l0,0
		c0,0.1,0,0.1,0,0.2v0.1c0.1,0.1,0.1,0.2,0,0.3v0.1c-0.1,0.2,0,0.4-0.1,0.6v0.1c-0.1,0.1-0.1,0.2,0,0.3v0.1c0.1,0.1,0.2,0.2,0.3,0.1
		l0,0h0.1c0.1-0.1,0.2,0,0.2-0.1h0.1c0.1-0.1,0.2,0,0.2-0.1c0.1-0.1,0.2,0,0.2-0.1l0,0l0.1-0.1l0.1-0.1l0.1-0.1l0.1-0.1l0,0l0,0
		c0,0,0.1,0,0.1-0.1c0.1-0.1,0.1-0.2,0.1-0.2c0-0.1,0-0.1,0-0.2c-0.1-0.2,0-0.4-0.1-0.6V59c-0.1-0.1,0-0.3-0.1-0.5v-0.1
		c0-0.1-0.1-0.1-0.1-0.2c0-0.3,0-0.6,0-0.9h0.1v-0.1c0.1-0.1,0-0.3,0.1-0.3c0,0,0.1-0.1,0-0.2c0,0,0.1,0,0.1-0.1v-0.1l0.1-0.1v-0.1
		C37.6,56.6,37.6,56.4,37.5,56.1L37.5,56.1z"/>
	<path class="st0" d="M28.8,48.5L28.8,48.5L28.8,48.5c-0.2-0.1-0.2-0.1-0.3-0.1h-0.1h-0.1c0,0,0,0,0-0.1l-0.1-0.1v-0.1L28.1,48v-0.1
		c0,0,0,0-0.1,0c0-0.1,0-0.2-0.1-0.3c0-0.1,0-0.1,0-0.2c-0.1-0.3,0-0.6-0.1-0.8l0,0c0.1-0.3,0.1-0.5,0-0.8v-0.1l0,0v-0.1
		c0-0.2-0.1-0.4-0.2-0.6l0,0l-0.1-0.1l0,0v-0.1l-0.1-0.3c-0.1,0-0.2-0.1-0.2-0.1c-0.1,0-0.2,0-0.2-0.1h-0.1l0,0
		c-0.1-0.1-0.2,0-0.3-0.1c-0.1-0.1-0.3,0-0.4-0.1h-0.1L26,44l0,0c0,0,0-0.1-0.1-0.1l0,0c0-0.2,0-0.3,0-0.5c0,0,0,0-0.1,0l0,0
		c0-0.1,0-0.2-0.1-0.2l0,0c0-0.1-0.1-0.1-0.1-0.1c0-0.1-0.1-0.1-0.1-0.1l0,0l0,0l0,0c0-0.1-0.1-0.1-0.1-0.1c-0.1-0.1,0-0.2-0.1-0.2
		v-0.1c-0.1-0.4-0.1-0.7,0-1.1c0-0.1,0-0.1,0-0.2c0.1-0.3,0-0.6,0.1-0.8c0,0,0,0,0-0.1l0,0c0.2-0.3,0-0.7,0.1-1c0,0,0,0,0-0.1l0,0
		c0.1-0.5,0.1-1,0-1.5l0,0c-0.1-0.1,0-0.3-0.1-0.4l0,0h-0.1v-0.2h-0.1c0-0.1,0-0.1,0-0.2c-0.1-0.1-0.1-0.1-0.1-0.2
		c-0.1,0-0.1-0.1-0.1-0.2c-0.1-0.1-0.1-0.1-0.1-0.2l-0.1-0.1c-0.1,0-0.1-0.1-0.1-0.2c-0.1-0.1-0.1-0.2-0.1-0.3
		c-0.1-0.3-0.2-0.4-0.2-0.5h-0.1c-0.1-0.4-0.2-0.9-0.1-1.4l0,0l0,0c0.1-0.2,0-0.5,0.1-0.7v-0.1c0.1-0.1,0-0.2,0.1-0.3c0,0,0,0,0.1,0
		l0,0c0.1-0.1,0-0.3,0.1-0.3c0.1-0.1,0.1-0.2,0.1-0.2l0,0c0.1-0.1,0.1-0.2,0.1-0.3v-0.1l0.1-0.1l0,0c0.1,0,0.1-0.1,0-0.2
		c0,0,0.1,0,0.1-0.1l0,0c0.1-0.1,0.1-0.2,0.1-0.2l0.1-0.1l0,0c0.1-0.1,0.1-0.2,0.1-0.2v-0.1c0,0,0,0,0.1,0v-0.1l0.2-0.1
		c0-0.1,0-0.1,0.1-0.1c0-0.1,0.1-0.3,0.2-0.3l0.1-0.1c0-0.1,0-0.1,0-0.2h0.1c0.1-0.1,0.2-0.2,0.2-0.4l0,0c0.1-0.1,0.1-0.2,0.1-0.2
		c0.1-0.1,0-0.2,0.1-0.2c0.1-0.1,0.1-0.1,0-0.2h0.1c0-0.1,0-0.1,0-0.2h0.1c0-0.1,0-0.2,0.1-0.2c0-0.1,0-0.2,0.1-0.2v-0.2H27
		c0-0.1,0-0.2,0.1-0.2c0-0.1,0-0.2,0.1-0.2c0-0.1,0-0.1,0-0.2h0.1l0,0v-0.1c0.1-0.1,0-0.2,0.1-0.2l0,0c0.1-0.1,0.1-0.2,0.1-0.2l0,0
		c0.1-0.1,0.1-0.2,0.1-0.3v-0.1c0.1-0.1,0-0.2,0.1-0.2c0.1-0.1,0.1-0.2,0.1-0.2l0,0c0.1-0.1,0-0.3,0.1-0.3c0.1-0.1,0.1-0.2,0.1-0.2
		c0.1-0.1,0.1-0.1,0-0.2h0.1c0-0.1,0-0.2,0.1-0.2c0-0.1,0-0.2,0.1-0.2c0-0.1,0-0.2,0.1-0.2c0-0.1,0-0.2,0.1-0.2l0.1-0.1
		c0-0.1,0.1-0.2,0.1-0.2l0.1-0.1c0-0.1,0-0.2,0.1-0.2c0-0.1,0-0.2,0.1-0.3c0-0.4,0-0.8,0-1.1h-0.1v-0.2c-0.1-0.1-0.1-0.1-0.1-0.2
		l-0.1-0.1c-0.1,0-0.1-0.1-0.1-0.2L28.5,22l-0.1-0.1l-0.1-0.1l-0.1-0.1l0.3-1.3h-0.1L28.1,20v-0.1C28,19.8,28,19.8,28,19.7l0,0h0.1
		c0-0.2,0-0.5,0.1-0.7v-0.1c0.1-0.1,0.1-0.2,0.1-0.3v-0.1c0.1-0.1,0-0.2,0.1-0.2c0.1-0.1,0-0.2,0.1-0.2l0,0c0.1-0.1,0.1-0.2,0.1-0.2
		l0,0c0.1-0.1,0.1-0.2,0.1-0.3v-0.1c0.1-0.1,0.1-0.2,0-0.2l0,0c-0.1-0.1-0.2-0.1-0.2,0l0,0h-0.1c-0.1,0-0.1,0.1-0.2,0.1
		c-0.1,0.1-0.2,0.1-0.2,0.1c-0.1,0.1-0.2,0-0.2,0.1l0,0l-0.1,0.1c-0.1,0.1-0.2,0-0.2,0.1l0,0c-0.1,0-0.1,0.1-0.1,0.1l0,0L27.3,18
		c-0.1,0.1-0.2,0.1-0.3,0.2l0,0l-0.1,0.1l0,0c-0.1,0.1-0.2,0-0.2,0.1l0,0l-0.1,0.1l-0.1,0.1c-0.1,0.1-0.2,0-0.2,0.1l0,0
		c-0.1,0-0.1,0.1-0.1,0.1l0,0c-0.1,0-0.1,0.1-0.1,0.1L26,19l0,0c-0.1,0.1-0.2,0-0.2,0.1l0,0c-0.1,0-0.1,0.1-0.1,0.1l0,0l-0.1,0.1
		l0,0l-0.1,0.1c-0.1,0.1-0.1,0.2-0.1,0.2l0,0c-0.2,0.2,0,0.6-0.1,0.8l-0.1,0.1l-0.1,0.1l0,0c-0.1,0-0.1,0.1-0.1,0.1l0,0
		c-0.1,0-0.1,0.1-0.1,0.1l0,0c-0.1,0.1-0.2,0.2-0.2,0.2l0,0c-0.1,0-0.1,0.1-0.1,0.1l0,0l-0.1,0.1h-0.1l-0.1,0.1
		c0,0.1-0.1,0.1-0.2,0.1L23.4,22l-0.1,0.1c-0.1,0.1-0.2,0.2-0.3,0.3l-0.1,0.1l-0.1,0.1c-0.1,0.1-0.2,0.2-0.3,0.2v0.1h-0.1L22.3,23
		l-0.2,0.2H22l-0.3,0.2c0,0.1-0.1,0.2-0.2,0.2l-0.1,0.1l-0.1,0.1v0.1h-0.1L21.1,24v0.1l0,0c0,0,0,0-0.1,0l0,0c0,0-0.1,0-0.1,0.1l0,0
		l-0.1,0.1l0,0c-0.1,0.1-0.1,0.2-0.1,0.2l-0.1,0.1l0,0c-0.1,0.1-0.1,0.2-0.1,0.2l-0.1,0.1l0,0c-0.1,0.1-0.1,0.2-0.1,0.2v0.1
		c-0.1,0.1,0,0.2-0.1,0.2v0.1c-0.1,0.3-0.1,0.6,0,0.9c0.1,0.1,0,0.3,0.1,0.3v0.1c0,0,0.1,0.1,0.1,0c0,0.2,0,0.5,0,0.7
		c0,0.1,0,0.2-0.1,0.3c0,0.1,0,0.2-0.1,0.2c0,0.1,0,0.2-0.1,0.2L20,28.3c0,0.1-0.1,0.2-0.1,0.2s0,0,0,0.1h-0.1l-0.1,0.1l-0.1,0.1
		l-0.1,0.1L19.4,29l-0.1,0.1l0,0l-0.1,0.1l-0.1,0.1c0,0,0,0.1-0.1,0.1c0,0,0,0-0.1,0l-0.1,0.1l-0.1,0.1l-0.1,0.1l-0.1,0.1
		c0,0.1,0,0.1,0,0.2c0,0,0,0-0.1,0.1c0,0,0,0-0.1,0c0,0,0,0,0,0.1l0,0h-0.4v0.1l0,0l0,0l0,0l0,0l0,0l0,0c0,0,0,0.1-0.1,0.1l0,0
		c-0.1,0.1-0.1,0.2-0.1,0.2c-0.1,0.1-0.1,0.2-0.1,0.2c-0.1,0.1,0,0.3-0.1,0.3c-0.1,0.1,0,0.3-0.1,0.3c0,0.1-0.1,0.1-0.1,0.2
		c0,0.8,0.1,1.7-0.1,2.5v0.1c0,0.1-0.2,0.3,0.1,0.3l0,0l0.1-0.1l0,0c0,0.9,0,0.8,0,0.8c0.1-0.1,0.1-0.2,0.1-0.3v-0.1
		c0.1-0.1,0-0.2,0.1-0.2c0.1-0.1,0-0.3,0.1-0.3c0.1-0.1,0-0.3,0.1-0.3c0.1-0.1,0.1-0.2,0.1-0.2v-0.1c0.1-0.1,0.1-0.2,0.2-0.3
		l0.1-0.1l0.1-0.1c0.3-0.1,0.6-0.2,0.9,0.2v0.1c0,0.1,0,0.1,0,0.2v0.1c0,0,0,0,0,0.1L19.1,34c0,0.1,0,0.3-0.1,0.3
		c0,0.2-0.1,0.4-0.1,0.5l0,0l0,0h-0.1v0.1c0,0,0,0,0,0.1l0,0c0,0,0,0-0.1,0v0.1l0,0c0,0.1-0.1,0.1-0.1,0.2l0,0
		c-0.1,0.1-0.1,0.2-0.1,0.2l0,0l0,0c-0.1,0.1,0,0.2-0.1,0.3s0,0.2-0.1,0.2c-0.1,0.1-0.1,0.2-0.1,0.3v0.1c-0.1,0.1,0,0.2-0.1,0.2l0,0
		c-0.1,0.1,0,0.3-0.1,0.3c-0.1,0.1-0.1,0.2-0.1,0.3v0.1c-0.1,0.1-0.1,0.2-0.1,0.3v0.1c-0.1,0.1,0,0.3-0.1,0.3
		c-0.1,0.1-0.1,0.2,0,0.3h-0.1c-0.2,0.1-0.1,0.2-0.2,0.3v0.1c-0.1,0.5-0.1,1.1,0,1.6c0.1,0.1,0,0.3,0.1,0.3c0.1,0.1,0,0.2,0.1,0.2
		c0.1,0.1,0.1,0.2,0.1,0.2c0.1,0.1,0,0.2,0.1,0.2l0,0l0.1,0.1c0.1,0.1,0,0.2,0.1,0.2l0,0c0,0.1,0.1,0.1,0.1,0.1l0,0l0.1,0.1l0,0
		l0.1,0.1l0,0l0.1,0.1l0,0l0.1,0.1l0,0l0.1,0.1l0,0c0,0.1,0.1,0.1,0.1,0.1l0,0c0,0.1,0.1,0.1,0.2,0.1l0,0c0,0,0.1,0,0.1,0.1l0.1,0.1
		l0,0l0.1,0.1l0,0c0.1,0.1,0.1,0.1,0.2,0.1v0.1l0.1,0.1l0.1,0.1c0.1,0,0.2,0.1,0.2,0.1l0.1,0.1c0.1,0,0.3,0.1,0.3,0.2l0.1,0.1
		l0.1,0.1c0.1,0,0.3,0.1,0.3,0.3l0,0l0.1,0.1h0.6l0,0v0.1h0.1c0,0,0,0.1,0.1,0.1l0.1,0.1l0.1,0.1c0.1,0.1,0,0.2,0.1,0.2l0,0
		c0,0.1,0.1,0.1,0.1,0.1c0.1,0.1,0,0.2,0.1,0.2l0,0c0.1,0.1,0,0.2,0.1,0.2l0,0l0.1,0.1c0.1,0.1,0,0.2,0.1,0.2l0,0l0.1,0.1
		c0,0,0,0.1,0.1,0.1l0,0l0.1,0.1l0.1,0.1c0,0,0,0.1,0.1,0.1l0,0L23,46v0.1c0,0,0,0,0,0.1s0,0.1,0.1,0.2c0,0.1,0.1,0.1,0.1,0.2
		c0,0.2,0,0.3,0,0.5c0,0.1,0,0.2,0.1,0.2c0-0.1,0.1-0.2,0.1-0.2c0-0.1,0-0.2,0.1-0.2v-0.2c0,0,0.1,0,0.1-0.1l0,0
		c0.1-0.1,0-0.3,0.1-0.4v-0.1c0.1-0.3,0.1-0.7,0-1c-0.1-0.2-0.1-0.5-0.2-0.7l0,0c-0.1-0.1,0-0.2-0.1-0.2c-0.1-0.1,0-0.2-0.1-0.2l0,0
		c-0.1-0.1,0-0.2-0.1-0.2l0,0l-0.1-0.1l0,0C23,43.6,23,43.5,23,43.5c-0.1-0.1,0-0.2-0.1-0.2c-0.1-0.1,0-0.2-0.1-0.2l0,0
		c-0.1-0.1,0-0.2-0.1-0.2v-0.1c-0.1-0.1,0-0.3-0.1-0.4l0,0l0.1-0.1l0.1-0.1c0.1-0.1,0.2,0,0.2-0.1l0,0l0,0c0.1,0,0.2,0,0.2-0.1l0,0
		l0,0l0,0v0.1h0.2c0,0,0,0.1,0.1,0.1c0.1,0.1,0,0.2,0.1,0.2l0,0l0,0c0,0.1,0,0.2,0.1,0.2l0,0h0.1c-0.1,0.1,0,0.2,0,0.3V43
		c0.1,0.2,0,0.4,0.1,0.5v0.1c0.2,0.6,0.1,1.3,0.2,1.9v0.1c0.1,0.2,0.1,0.4,0.1,0.6c0,0.5,0,1,0.1,1.5v0.1c0.1,0.2,0,0.3,0.1,0.5
		c0.1,0.1,0,0.2,0.1,0.3l0,0c0,0,0,0,0,0.1c0.1,0,0.1,0.1,0.1,0.2h0.1V49h0.1v0.1h0.1H25l0,0c0,0,0,0.1,0.1,0.1l0,0
		c0.1,0.1,0.2,0.1,0.3,0.1l0,0l0,0c0.1,0.1,0.3,0,0.4,0.1l0,0l0,0c0.1,0.1,0.2,0.1,0.3,0l0,0l0,0l0.1,0.1c0.1,0,0.3,0,0.3,0.1
		l0.1,0.1h0.2v0.1c0.1,0,0.1,0.1,0.1,0.1H27V50h0.1v0.1c0.1,0,0.1,0.1,0.1,0.2c0.1,0.1,0.1,0.1,0.1,0.2l0.1,0.1v0.1l0,0v0.1
		c0.1,0.2,0,0.4,0.1,0.6c0,0.1-0.1,0.3,0.2,0.3l0,0l0.1-0.1v-0.1l0.1-0.1c0.1-0.1,0-0.3,0.1-0.3c0.1-0.1,0.1-0.2,0-0.3l0,0
		c0.1-0.1,0.1-0.2,0.1-0.3c0-0.3,0-0.5,0-0.8C28,49.6,28,49.5,28,49.4c-0.1-0.1-0.1-0.1-0.1-0.2l-0.1-0.1c-0.1,0-0.1-0.1-0.1-0.2
		h-0.1v-0.1c-0.1,0-0.2-0.1-0.2-0.1h-0.2v-0.1c-0.1-0.1-0.3,0-0.5-0.1h-0.1c-0.1-0.1-0.2,0-0.2-0.1l0,0c-0.1-0.1-0.2-0.2-0.2-0.2
		l0,0c0-0.1-0.1-0.1-0.1-0.1l0,0c0-0.1,0-0.1-0.1,0l0,0c0-0.1,0-0.1-0.1-0.2c-0.1-0.1,0-0.3-0.1-0.3v-0.1c-0.1-0.1,0-0.3-0.1-0.5
		c0-0.1,0-0.1,0-0.2v-0.1l0,0v-0.1c0.1-0.4,0.1-0.9,0-1.3c0-0.1,0-0.2,0-0.3l0,0l0,0c0.1,0,0.1,0,0.2,0l0,0c0,0.1,0.1,0.1,0.1,0.1
		l0,0c0.1,0.1,0,0.2,0.1,0.2l0.1,0.1l0,0c0,0,0,0,0,0.1l0,0c0.1,0.1,0,0.2,0.1,0.2c0,0.1,0.1,0.2,0.2,0.2c0,0,0,0.1,0.1,0.1v0.1
		c0,0,0,0,0.1,0l0,0c0,0.3,0,0.7,0.2,1c0.1,0.1,0,0.3,0.1,0.3l0,0c0.1,0.1,0,0.3,0.1,0.3l0,0c0,0.1,0.1,0.1,0.1,0.1
		c0,0.1,0.1,0.1,0.1,0.1s0,0,0,0.1h0.1l0,0l0,0l0,0l0,0l0,0c0,0,0.1,0.1,0.2,0.1c0.3,0.1,0.5,0.1,0.8,0l0,0l0,0c0.1,0,0.2,0,0.3-0.1
		C29,48.6,28.9,48.6,28.8,48.5z"/>
	<path class="st0" d="M25.8,41.7L25.8,41.7L25.8,41.7z"/>
	<path class="st0" d="M48.9,48.8C48.9,48.7,48.9,48.7,48.9,48.8c-0.1-0.2,0-0.3-0.1-0.3c-0.1-0.1,0-0.2-0.1-0.2l0,0
		c-0.1-0.1,0-0.2-0.1-0.2l0,0c0-0.1-0.1-0.1-0.1,0V48c0,0,0,0,0-0.1l0,0l0,0v-0.1c0-0.2,0.1-0.3-0.1-0.5l0,0c-0.1-0.1,0-0.2-0.1-0.2
		l0,0h-0.1l0,0V47v-0.1h-0.1H48c0-0.1-0.1-0.1-0.1-0.1l0,0c-0.1-0.1-0.2-0.1-0.2-0.1c0-0.1-0.1-0.1-0.2-0.2h-0.1
		c-0.1,0-0.1,0-0.2-0.1h-0.1c-0.1,0-0.1,0-0.2-0.1c0,0-0.1,0-0.1-0.1c0,0-0.1,0-0.1-0.1l0,0l-0.3-0.3l0,0l-0.1-0.1l0,0
		c0,0-0.1,0-0.1-0.1l0,0v-0.1c0-0.1,0-0.1,0-0.2c0-0.1-0.1-0.2-0.1-0.4L46,44.8l0,0c0-0.1,0-0.1,0-0.2c-0.1-0.1,0-0.2-0.1-0.2l0,0
		l-0.4,0c-0.1,0-0.3-0.1-0.3-0.2H45c0,0,0-0.1-0.1-0.1s-0.3,0-0.4,0.1c-0.1,0.1-0.3,0-0.3,0.1l0,0c-0.1,0.1-0.2,0-0.2,0.1h-0.1
		l-0.1,0.1c0-0.1-0.1-0.1-0.1-0.1h-0.1c-0.1-0.1-0.2,0-0.2-0.1c-0.1-0.1-0.2,0-0.2-0.1l0,0l-0.1-0.1l0,0C43,44,42.9,44,42.9,44l0,0
		c-0.1-0.1-0.3,0-0.3-0.1c-0.1-0.1-0.2,0-0.2-0.1c-0.1-0.1-0.2-0.1-0.2-0.1c-0.1-0.1-0.2,0-0.2-0.1h-0.1l0,0c0,0,0,0-0.1,0v-0.1
		h-0.2v-0.1c-0.1,0-0.2,0-0.3-0.1h-0.2v-0.1c-0.1-0.1-0.2-0.1-0.2-0.1l0,0c-0.1-0.1-0.3,0-0.3-0.1c-0.1-0.1-0.3,0-0.3-0.1
		c-0.1-0.1-0.2-0.1-0.2,0l0,0v-0.1c-0.2,0-0.3,0-0.5-0.1h-0.2c0,0,0-0.1-0.1-0.1h-0.1c-0.1-0.1-0.2-0.1-0.3-0.1h-0.1
		c-0.1-0.1-0.3,0-0.4-0.1h-0.1c-0.1-0.1-0.2-0.1-0.3,0l0,0c0,0,0,0-0.1,0c0,0,0-0.1-0.1-0.1h-0.1c-0.2-0.1-0.4-0.1-0.6,0l0,0
		c-0.2-0.1-0.4,0-0.5-0.1l0,0c-0.4-0.1-0.9-0.1-1.3-0.1c-0.4-0.1-0.4,0.2-0.5,0.4c0,0,0,0,0,0.1l0,0c0.1,0.3-0.1,0.6,0.1,0.8l0,0
		c0.1,0.1,0,0.3,0.1,0.3l0,0l0,0c0,0.1,0,0.2,0.1,0.2l0,0c0,0.1,0.1,0.1,0.1,0.2l0,0l0,0l0,0c0,0,0,0,0.1,0.1v0.2l0.1,0.1
		c0,0,0,0,0.1,0c0,0,0,0.1,0.1,0.1c0.1,0.1,0.2,0.1,0.2,0.1l0,0c0.1,0.1,0.3,0,0.5,0.1c0.1,0.1,0.3,0,0.4,0.1l0,0c0,0,0,0,0,0.1h0.1
		h0.1c0.2,0.1,0.4,0.1,0.6,0l0,0l0,0l0.1,0.1h0.2c0.2,0.1,0.5,0,0.7,0.1h0.1h0.1c0.2,0.1,0.4,0.1,0.6,0l0,0l0.2,0.1h0.2
		c0.2,0.1,0.3,0,0.5,0c0,0,0.1,0,0.1-0.1h0.2l0,0c0,0,0,0.1,0.1,0.1l0,0l0,0c0.3,0.2,0.6,0,0.9,0.1l0,0l0,0c0.2,0.1,0.3,0,0.5,0.1
		h0.1c0.1,0.1,0.2,0,0.2,0.1c0.2,0.1,0.4,0.1,0.5,0v0.1h-0.4h0.1c0.1,0,0.1,0.1,0.2,0h0.1c0.1,0,0.1,0,0.1,0.1c0.1,0,0.2,0,0.2,0.1
		c0.1,0,0.3,0.1,0.3,0.2h0.1c0,0,0,0.1,0.1,0.1l0,0h0.1l0.1,0.1h0.1c0.1,0.1,0.2,0,0.2,0.1c0.1,0.1,0.2,0,0.2,0.1
		c0.1,0.1,0.3,0,0.3,0.1c0.1,0.1,0.2,0,0.2,0.1c0.1,0.1,0.2,0.1,0.3,0.1l0,0v0.1h0.3c0,0,0,0,0.1,0l0.1,0.1h0.1
		c0.1,0.1,0.2,0,0.2,0.1c0.1,0.1,0.2,0.1,0.2,0.1l0.1,0.1l0,0c0.1,0.1,0.2,0.2,0.3,0.2l0.1,0.1l0.1,0.1c0,0,0.1,0.1,0.1,0
		c0,0,0,0,0,0.1l0.1,0.1L47,48l0.1,0.1h0.1v0.1l0.1,0.1h0.2l0.2,0.3l0.1,0.1l0,0c0.1,0.1,0.2,0.1,0.2,0.1c0.1,0.1,0.3,0.1,0.5,0
		C48.8,48.9,48.9,48.9,48.9,48.8L48.9,48.8C48.9,48.9,48.9,48.8,48.9,48.8L48.9,48.8z"/>
	<path class="st0" d="M30.2,42.5c0-0.2,0-0.3-0.1-0.5l0,0v-0.1c0-0.2,0-0.3,0-0.5c0-0.1,0-0.2,0-0.2c0.1-0.2,0.1-0.5,0.1-0.7h-0.1
		c0-0.1,0-0.1-0.1-0.1h-0.2v0.1h-0.1c0,0.1-0.1,0.1-0.1,0.1c-0.1,0.1-0.2,0.2-0.3,0.2c-0.1,0.1-0.2,0.1-0.3,0.1L28.8,41v0.1
		c0.1,0.1,0.1,0.2,0.1,0.2l0.1,0.1v0.1c0.1,0,0.1,0.1,0.1,0.2c0.1,0.1,0.1,0.1,0.1,0.2h0.1c0,0.1,0.1,0.3,0.1,0.4h0.1v0.2
		c0.1,0,0.1,0.1,0.1,0.2c0.1,0,0.1,0.1,0.1,0.1h0.1v0.1h0.1V43c0.1,0,0.1,0,0.1,0.1c0.1,0,0.3,0.1,0.3,0.2c0.1,0,0.2,0,0.2,0.1
		c0.1,0,0.2,0,0.2-0.2C30.6,43.3,30.4,42.9,30.2,42.5z"/>
	<path class="st0" d="M39.8,12.8L39.8,12.8L39.8,12.8L39.8,12.8z"/>
	<path class="st0" d="M37.9,35.1L37.9,35.1L37.9,35.1z"/>
	<path class="st0" d="M54.3,5.2c0.1,0,0.1-0.1,0-0.2l0,0c-0.1-0.1-0.2-0.1-0.3,0h-0.1c-0.1,0-0.2,0-0.3,0.1s-0.2,0-0.2,0.1
		c-0.1,0.1-0.2,0-0.2,0.1l0,0c-0.1,0.1-0.2,0.1-0.3,0.1c-0.1,0.1-0.1,0.1-0.2,0.1c-0.1,0.1-0.1,0.1-0.2,0.1
		c-0.1,0.1-0.1,0.1-0.2,0.1l0,0c-0.1,0-0.2,0.1-0.3,0.2l0,0L51.9,6l-0.1,0.1l-0.1,0.1l0,0l0,0h-0.1c0,0-0.1,0-0.1,0.1c0,0,0,0-0.1,0
		l-0.1,0.1c0,0-0.1,0-0.1,0.1c0,0-0.1,0-0.1,0.1c0,0-0.1,0-0.1,0.1c0,0-0.1,0-0.1,0.1c0,0-0.1,0-0.1,0.1c-0.1,0-0.2,0-0.2,0.1h-0.1
		c-0.1,0-0.3,0-0.4,0l0.1-0.1l0,0l0,0l0,0l0,0h0.1V6.8l0,0c0.1,0,0.2,0,0.2,0l0,0l0.1-0.1l0.1-0.1l0,0l0.1-0.1l0,0l0.1-0.1
		c0.1-0.1,0.1-0.2,0-0.2h-0.2c-0.1,0.1-0.2,0-0.3,0.1s-0.2,0.1-0.3,0.1c-0.1,0.1-0.2,0.1-0.4,0.1v0.1h-1.2h-0.1
		c-0.2,0.1-0.3,0.2-0.4,0.3l0,0l0,0c-0.1,0.1,0,0.3-0.1,0.3c-0.1,0.1,0,0.2-0.1,0.2c-0.1,0.1,0,0.2-0.1,0.2c-0.1,0.1,0,0.2-0.1,0.2
		l-0.1,0.1l0,0c-0.1,0.1-0.1,0.2-0.1,0.2l0,0c-0.1,0-0.1,0.1-0.1,0.2l0,0l0,0v0.1c0,0,0,0,0,0.1c0,0,0,0-0.1,0
		c0,0.1-0.1,0.2-0.1,0.2L47,8.8C47,8.9,46.9,9,46.9,9l-0.1,0.1c0,0-0.3,0.2-0.3,0.3c-0.2,0.4-0.5,0.7-0.8,1l0,0h-0.1
		c-0.2,0-0.4,0.2-0.4,0.5l0,0C45.1,11,45,11.1,45,11.2c-0.1,0.1-0.2,0.1-0.2,0.2l0,0l0,0c-0.1,0.1-0.1,0.2-0.1,0.2l0,0
		c-0.2,0.2-0.3,0.4-0.4,0.6l0,0l-0.1,0.1l0,0c-0.1,0.2-0.1,0.4-0.2,0.5l0,0l0,0l0,0c-0.2,0.1-0.2,0.4-0.3,0.6
		c-0.1,0.4-0.3,0.8-0.6,1c-0.1,0.1-0.2,0.1-0.4,0c-0.3,0.1-0.4,0-0.5,0c0,0,0,0-0.1,0l0,0l-0.3-0.1v-0.1c-0.1,0-0.3-0.1-0.3-0.2l0,0
		c0-0.1-0.1-0.1-0.1-0.1l0,0l0,0c0-0.1-0.2-0.1-0.2-0.1l-0.1-0.1l0,0c-0.1-0.1-0.2-0.2-0.3-0.2l0,0c-0.1-0.1-0.2-0.2-0.3-0.2
		l-0.1-0.1l0,0l0,0c0-0.1-0.2-0.1-0.2-0.1h-0.1l0,0V13c-0.1-0.1-0.2-0.1-0.2-0.1l-0.1-0.1l0,0c0-0.1-0.2-0.1-0.2-0.1l-0.1-0.1l0,0
		c0-0.1-0.2-0.1-0.2-0.1c-0.1-0.1-0.2-0.2-0.3-0.2c0-0.1-0.1-0.1-0.2-0.1l0,0l0,0c-0.1-0.1-0.2-0.1-0.2-0.1l0,0
		C38.5,12,38.4,12,38.4,12h-0.3c-0.3-0.1-0.5-0.2-0.8-0.1c-0.2,0-0.3,0-0.5,0.1c-0.4,0-0.8,0.1-1.2,0.3h-0.2c-0.1,0-0.2,0-0.2,0.1
		h-0.1c-0.1,0-0.1,0-0.2,0c-0.5,0-0.8-0.3-0.9-0.8v-0.1c0-0.1,0-0.3,0-0.4c0-0.1,0-0.2-0.1-0.3L33.2,11c-0.4,0-0.8,0-1.1-0.2
		c0,0.4,0,0.7-0.1,1.1L31.9,12c-0.2,0.4-0.6,0.6-1,0.6c-0.1,0-0.3,0-0.4,0c-0.5-0.1-0.9-0.1-1.4-0.1c-0.3,0-0.6,0.1-0.8,0.4
		c-0.2,0.3-0.4,0.5-0.6,0.8c-0.3,0.3-0.5,0.6-0.7,0.9l-0.7-0.2c-0.1,0.1-0.3,0.2-0.3,0.4c-0.2,0.3-0.5,0.6-0.8,0.8l-0.1,0.1L25,15.9
		h-0.1c-0.1,0.2-0.3,0.4-0.5,0.6l-0.1,0.1l-0.1,0.1l-0.1,0.1c0,0.1,0,0.1-0.1,0.2c-0.4,0.4-0.8,0.8-1.2,1.2
		c-0.1,0.1-0.2,0.1-0.3,0.1l0,0c-0.1,0.1-0.3,0-0.5,0.1c0,0,0,0,0,0.1h-0.1l0,0v-0.1c-0.3,0-0.4-0.3-0.6-0.5l-0.1-0.1l-0.1-0.1H21
		v-0.1c-0.1,0-0.2-0.1-0.3-0.1l-0.1-0.2l-0.1-0.1l-0.1-0.1L20.3,17l-0.1-0.1h-0.1L20,16.8l-0.1-0.1l-0.1-0.1l0,0
		c0-0.1-0.2-0.1-0.2-0.1l-0.1-0.1c-0.1-0.1-0.2,0-0.2-0.1l0,0l-0.1-0.1l-0.1-0.1l0,0C19,16,18.9,16,18.9,16l-0.1-0.1h-0.1
		c-0.1-0.1-0.2-0.1-0.3-0.2c-0.1-0.1-0.2-0.1-0.2-0.1c-0.1-0.1-0.2,0-0.2-0.1c-0.1-0.1-0.2,0-0.2-0.1c-0.1-0.1-0.2-0.1-0.2-0.1h-0.1
		c-0.1-0.1-0.2,0-0.2-0.1h-0.1c-0.1,0-0.2,0-0.2-0.1h-0.3V15c-0.1,0-0.2,0-0.2-0.1c-0.1,0-0.2,0-0.2-0.1c-0.1-0.1-0.2,0-0.2-0.1
		c-0.1-0.1-0.2,0-0.2-0.1h-1.2c-0.1,0.1-0.2,0-0.2,0.1h-0.1c-0.1,0.1-0.1,0.1-0.2,0.1c-0.2-0.4-0.4-0.4-0.5-0.3
		c0,0.1-0.1,0.1-0.2,0.1l0,0l-0.1,0.1c-0.1,0.2-0.3,0.3-0.5,0.4c-0.1,0.1-0.1,0.1-0.2,0.1c-0.1,0.1-0.2,0.1-0.3,0.1l-0.2,0.1h-0.3
		h-0.1c0,0-0.1,0.1,0,0.1c-0.1,0-0.1,0-0.2,0h-0.1c0,0,0,0,0,0.1c0,0,0,0,0,0.1h-0.2v0.1l0,0c-0.1,0-0.2,0-0.3,0.1
		c-0.1,0.1-0.3,0.1-0.2,0.3c0.2,0.1,0.5,0.1,0.7,0l0,0l0,0c0,0,0.1-0.1,0-0.1c0,0,0,0,0.1,0c0.1,0.1,0.2,0.1,0.2,0l0,0
		c0.1-0.1,0.3,0,0.3-0.1h0.1h0.1l0,0c0,0,0,0,0-0.1l0,0c0.1,0,0.2,0,0.3,0h0.2c0.1,0,0,0.2,0.1,0.2h-0.1v0.1h-0.1v0.1l0,0h-0.1
		c0,0.2-0.2,0.4-0.5,0.5L12,16.9V17h-0.2c-0.1,0.1-0.1,0.1-0.2,0.1l-0.1,0.1l0,0c-0.1,0-0.2,0-0.2,0h-0.1c-0.1,0.1-0.2,0-0.2,0.1
		h-0.1c-0.1,0.1-0.2,0-0.2,0.1h-0.1c-0.1,0.1-0.2,0-0.2,0.1h-0.1c-0.1,0.1-0.3,0-0.4,0.1c-0.1,0.1-0.3,0-0.3,0.1
		c-0.1,0.1-0.1,0.2,0,0.3c0.1,0.1,0.2,0.1,0.2,0.1c0.5,0.1,0.9,0.1,1.4,0h0.1c0.1-0.1,0.2,0,0.3-0.1h0.1c0.1-0.1,0.2,0,0.2-0.1H12
		l0.1-0.1h0.2c0.1-0.1,0.1-0.1,0.2-0.1c0-0.1,0.1-0.1,0.2-0.1c0.1-0.1,0.1-0.1,0.2-0.1c0.1-0.1,0.2-0.1,0.2-0.1l0.1-0.1
		c0-0.1,0.1-0.1,0.2-0.1c0.1-0.1,0.2-0.2,0.3-0.2l0.1-0.1c0-0.1,0.1-0.1,0.2-0.1l0.1-0.1c0.3-0.2,0.3-0.3,0.4-0.3l0.1-0.1l0.1-0.1
		c0-0.1,0.1-0.1,0.2-0.1L15,16c0-0.1,0.1-0.1,0.2-0.1c0.1-0.2,0.3-0.1,0.5-0.1v0.1h0.1V16c0.2,0,0.3,0.2,0.3,0.3l0,0l0,0
		c0.3,0.2,0.6,0.5,0.8,0.8l0.1,0.1c0,0,0.4,0.1,0.4,0.2l0.1,0.1l0.1,0.1l0.1,0.1h0.1v0.1h0.1H18v0.1l0.1,0.1h0.1h0.1v0.1l0.1,0.1
		l0.1,0.2c0.2,0,0.4,0.2,0.4,0.4H19v0.1l0.1,0.1h0.1v0.1l0.1,0.1l0.1,0.1h0.2v0.1l0.1,0.1c0.2,0,0.4,0.1,0.4,0.3
		c0.1,0,0.2,0.1,0.2,0.1l0.1,0.1h0.1h0.1l0.1,0.1l0.1,0.1l0.1,0.1c0.2,0,0.4,0,0.5,0.2c0.1,0,0.2,0,0.3,0.1h0.5
		c0.1-0.1,0.2-0.1,0.3-0.1v-0.1c0.3-0.2,0.5-0.4,0.7-0.7c0.1,0.1,0.3,0.1,0.4,0.1c0-0.1,0.1-0.1,0.1-0.1c0.1-0.1,0.2-0.2,0.3-0.3
		c0.1-0.1,0.2-0.2,0.4-0.2c0-0.1,0.1-0.1,0.1-0.1l0.1-0.2h0.2c0-0.1,0.1-0.1,0.1-0.1c0.1-0.1,0.2-0.2,0.3-0.2l0.1-0.1
		c0.2-0.3,0.5-0.5,0.8-0.6l0.1-0.1l0.1-0.1c0.1-0.1,0.2-0.2,0.3-0.2c0-0.1,0.1-0.1,0.1-0.1c0-0.1,0.1-0.1,0.2-0.1l0.1-0.1l0.1-0.1
		l0.1-0.1h0.1h0.1l0.1-0.1l0.1-0.1v-0.1h0.2l0.1-0.1c0-0.1,0.1-0.1,0.2-0.1v-0.1h0.2c0.1-0.1,0.2-0.1,0.3-0.1l0.1-0.1h0.2H29
		c0,0.2,0.1,0.4-0.1,0.5c0,0.1,0,0.2,0,0.3h-0.1c0,0.1,0,0.2-0.1,0.2c0,0.1,0,0.2-0.1,0.2c0,0.1,0,0.2-0.1,0.3v0.1
		c-0.1,0-0.1,0.1-0.1,0.1l0,0c-0.1,0.1,0,0.3-0.1,0.4v0.1c-0.1,0.2-0.1,0.4,0,0.6l0,0c0.1,0.1,0,0.2,0.1,0.2h0.1l0,0v0.1h0.1h0.1
		v0.1h0.1v0.1l0.4,0.4c0,0.1,0.1,0.2,0.2,0.2c0,0.1,0.1,0.2,0.2,0.3c0.1,0,0.1,0.1,0.1,0.2c0,0,0,0,0.1,0l0,0c0,0.1,0,0.2,0,0.2l0,0
		c0.2,0.3-0.1,0.6,0.1,0.9l0,0c0.1,0.2,0,0.4,0.1,0.6v0.1c0,0,0,0.1,0.1,0.1c0,0.1,0,0.1-0.1,0.2v0.1c0,0.1-0.1,0.1,0,0.2
		c0,0,0,0,0,0.1v0.1c-0.1,0.1,0,0.3-0.1,0.3c-0.1,0.1-0.1,0.2-0.1,0.3v0.1c-0.1,0.1,0,0.2-0.1,0.2c-0.1,0.1-0.1,0.2-0.1,0.2l0,0
		c-0.1,0.1-0.1,0.2-0.1,0.2l0,0c-0.1,0.1-0.1,0.1,0,0.2l0,0h-0.1c0,0.1-0.1,0.2-0.1,0.2c0,0.1-0.1,0.2-0.1,0.2v0.1
		c0,0-0.1,0-0.1,0.1l0,0v0.1L29,25.5l0,0c-0.1,0.1-0.1,0.2-0.1,0.2l0,0c-0.1,0.1-0.1,0.2-0.1,0.2l0,0c-0.1,0.1-0.1,0.1-0.1,0.2h-0.1
		c0,0.1,0,0.2-0.1,0.2c0,0.1,0,0.1,0,0.2h-0.1c-0.1,0.2-0.2,0.3-0.2,0.5v0.1c-0.1,0-0.1,0-0.1,0.1v0.1l0,0c0,0,0,0,0,0.1
		c0,0,0,0-0.1,0c0,0,0,0,0,0.1v0.1l0,0c0,0,0,0,0,0.1c0,0-0.1,0-0.1,0.1v0.1V28l-0.1,0.1c0,0.1,0,0.2-0.1,0.2c0,0.1,0,0.2-0.1,0.2
		c0,0.1,0,0.2-0.1,0.2v0.1l0,0v0.1h-0.1c0,0.1,0,0.2-0.1,0.2c0,0.1,0,0.2-0.1,0.2c0,0.1,0,0.1,0,0.2h-0.1c-0.1,0.1,0,0.2-0.1,0.2
		c-0.1,0.1-0.1,0.2-0.1,0.2c-0.1,0.1,0,0.2-0.1,0.2c-0.1,0.1-0.1,0.2-0.1,0.2c-0.1,0.1,0,0.3-0.1,0.3c-0.1,0.1,0,0.3-0.1,0.5l0,0
		c-0.1,0.2,0,0.4-0.1,0.6v0.1c-0.2,0.3,0,0.6-0.1,0.8c-0.1,0.1,0,0.3-0.1,0.5l0,0c-0.1,0.1,0,0.3-0.1,0.3l0,0L26,33.5l0,0
		c-0.1,0.1-0.1,0.2-0.1,0.3v0.1l0,0c-0.1,0.1-0.1,0.3,0,0.5l0,0l0.1,0.1v0.1c0,0.1,0,0.1,0,0.2h0.1l0,0l0,0c0,0.1-0.1,0.2,0,0.2l0,0
		c0,0.1,0.1,0.1,0.1,0.1c0.1,0.1,0.1,0.2,0.2,0.3c0.1,0.2,0,0.3-0.1,0.5L26.2,36l0,0c-0.1,0.1,0,0.3-0.1,0.4v0.1
		c-0.1,0.1-0.1,0.3,0,0.5l0,0c0.1,0.3,0,0.6,0.1,0.8c0,0.1,0,0.1,0,0.2c-0.1,0.2,0,0.5-0.1,0.7c0,0,0,0.1,0.1,0.1
		c-0.1,0.1-0.1,0.2-0.1,0.3c0,0,0,0,0,0.1l0,0c-0.1,0.2,0,0.3-0.1,0.5c0,0,0,0,0,0.1l0,0v0.1c0,0.1,0,0.1,0,0.2s0,0.1,0,0.1
		c0,0.1,0,0.1,0,0.2l-0.1,0.1v0.1l0,0c-0.1,0.2-0.1,0.5,0,0.7c0.1,0.1,0.3,0.1,0.4,0l0,0c0.1,0,0.1,0,0-0.1h0.3
		c0.1-0.1,0.2-0.1,0.3-0.1V41h0.2c0.1-0.1,0.1-0.1,0.2-0.1l0.1-0.1h0.1v-0.1h0.2c0-0.1,0.1-0.1,0.2-0.1v-0.1h0.2
		c0-0.1,0.1-0.1,0.2-0.1c0.1-0.1,0.2-0.2,0.4-0.2c0-0.1,0.1-0.1,0.2-0.1c0-0.1,0.1-0.1,0.2-0.1c0-0.1,0.1-0.1,0.1-0.1
		c0-0.1,0.1-0.1,0.2-0.1c0-0.1,0.1-0.1,0.1-0.1c0-0.1,0.1-0.1,0.2-0.1c0.1-0.1,0.2-0.2,0.3-0.2c0-0.1,0.1-0.1,0.1-0.1v-0.1
		c0.1,0,0.1,0,0.1-0.1l0.2-0.1c0.1-0.1,0.2-0.1,0.2-0.2c0-0.1,0.1-0.1,0.1-0.1c0.1-0.1,0.2-0.2,0.3-0.3c0-0.1,0.1-0.1,0.1-0.1
		c0-0.1,0.1-0.1,0.1-0.1c0-0.1,0.1-0.1,0.1-0.1c0-0.1,0.1-0.1,0.2-0.1v-0.1h0.1c0-0.1,0.1-0.1,0.1-0.1v-0.1l0.3-0.2l0.1-0.1l0.1-0.2
		l0.1-0.1h0.1V37h0.1c0-0.1,0.1-0.1,0.2-0.1c0-0.1,0.1-0.1,0.1-0.1c0-0.1,0.1-0.1,0.2-0.1c0-0.1,0.1-0.1,0.1-0.1
		c0-0.1,0.1-0.1,0.2-0.1c0-0.1,0.1-0.1,0.1-0.1c0-0.1,0.1-0.1,0.2-0.1c0.1-0.1,0.2-0.2,0.4-0.2c0.1-0.1,0.1-0.1,0.2-0.1
		c0-0.1,0.1-0.1,0.2-0.1c0.1-0.1,0.1-0.1,0.2-0.1c0.1-0.1,0.1-0.1,0.2-0.1v-0.1H35c0.1-0.1,0.1-0.1,0.2-0.1l1.2-0.1l0,0
		c0.1,0,0.2,0,0.2,0l0,0c0.1-0.1,0.2,0,0.2-0.1l0,0l0,0c0.2-0.1,0.3-0.1,0.5-0.1h0.2c0.1,0,0.2,0,0.2-0.1c0.1-0.1,0.1-0.2,0.1-0.2
		l0,0c0-0.1,0-0.3,0-0.4c0.1-0.1,0.1-0.3,0.1-0.4c0-0.2,0-0.4,0.1-0.6c0.1-0.3,0.1-0.6,0-0.9c0-0.6,0.1-1.1,0.1-1.7
		c0-0.2,0-0.5-0.1-0.7c0-1-0.2-2.1-0.6-3c-0.2-0.6-0.4-1.1-0.7-1.6c0-0.1,0-0.2-0.1-0.2c0-0.1,0-0.2-0.1-0.3V25c0-0.1,0-0.3-0.1-0.4
		v-0.1c0-0.1,0-0.2,0-0.3c-0.1-0.6,0-1.3,0.1-1.9c0.1-0.4,0.2-0.8,0.3-1.2c0.1-0.1,0.1-0.3,0-0.3l0,0c-0.1-0.1,0-0.2,0-0.3
		c0.3-0.2,0.6-0.5,0.8-0.8c0.3-0.4,0.3-1,0-1.4c-0.4-0.5-0.8-1.1-1.1-1.6c-0.2-0.4-0.3-0.7-0.4-1.1c0-0.1,0.1-0.1,0.1-0.2
		c0.2-0.6,0.3-0.7,0.9-0.5c0.1,0.1,0.2,0.2,0.4,0.2c0.2,0.1,0.4,0.2,0.6,0.4c0.5,0.3,0.9,0.5,1.4,0.8c0.1,0,0.2,0,0.2,0.1h0.1
		l0.1,0.1c0.1,0,0.2,0,0.2,0.1h0.2v0.1c0.1,0,0.2,0.1,0.3,0.1c0.1,0,0.2,0,0.2,0.1c0.1,0,0.2,0,0.2,0.1c0.1,0,0.2,0,0.3,0.1
		c0.1,0,0.2,0,0.3,0.1c0.1,0,0.3,0,0.3,0.1c0.1,0,0.3,0,0.4,0.1h0.3l0,0l0,0c0,0,0,0.1,0.1,0.1l0,0l0,0c0.3,0.1,0.6,0.1,0.9,0
		c0.1-0.1,0.1-0.2,0.1-0.2l0,0c0.1-0.1,0.1-0.2,0.1-0.2l0,0c0.1-0.1,0.1-0.2,0.1-0.2l0,0c0.1-0.1,0.1-0.2,0.1-0.2l0,0
		c0.1-0.1,0.1-0.2,0.1-0.2l0,0c0.1-0.1,0.1-0.2,0.1-0.2l0,0c0.1-0.1,0.1-0.2,0.1-0.2l0,0c0.1-0.1,0.1-0.2,0.1-0.2l0,0
		c0.1-0.1,0.1-0.2,0.1-0.2l0,0c0.1-0.1,0.1-0.2,0.1-0.2l0,0c0.1-0.1,0.1-0.2,0.1-0.2l0,0c0.1-0.1,0.1-0.2,0.1-0.3v-0.1
		c0,0,0.1-0.1,0.1-0.2v-0.1c0,0,0.1-0.1,0.1-0.2v-0.1c0.1-0.1,0-0.2,0.1-0.2c0.1-0.1,0-0.2,0.1-0.2c0.1-0.1,0-0.2,0.1-0.2
		c0-0.1,0.1-0.1,0.1-0.2h0.1c0.1-0.2,0.1-0.3,0.2-0.5c0-0.1,0-0.2,0.1-0.2c0-0.1,0-0.2,0.1-0.2v-0.1l0,0l0.1-0.1v-0.1
		c0.1-0.1,0-0.2,0.1-0.2c0.1-0.1,0-0.2,0.1-0.2c0.1-0.1,0-0.2,0.1-0.2c0.1-0.1,0.1-0.2,0.1-0.2l0,0c0.1-0.1,0.1-0.2,0.1-0.3v-0.1
		c0.1-0.1,0-0.2,0.1-0.2c0.1-0.1,0.1-0.2,0.1-0.2l0,0c0.1-0.1,0-0.2,0.1-0.3s0.1-0.2,0.1-0.2l0,0l0,0c0.1-0.1,0-0.3,0.1-0.3
		c0,0,0-0.1,0-0.2l0.1-0.1c0-0.1,0-0.2,0.1-0.2c0-0.1,0-0.1,0.1-0.1V9.2h0.2h0.2c0,0,0.1,0.1,0.2,0.1c0.3,0,0.5,0.1,0.8-0.1l0,0
		c0.2-0.1,0.4,0,0.6-0.1l0,0l0,0c0.1-0.1,0.3,0,0.5-0.1c0.1-0.1,0.3,0,0.3-0.1l0,0c0.1-0.1,0.2,0,0.2-0.1l0,0l0.1-0.1
		c0.2-0.2,0.5-0.3,0.5-0.6l0.4-0.4l0.1-0.1c0.1-0.1,0.2-0.2,0.2-0.2c0-0.1,0.1-0.1,0.1-0.1V7.2h0.1l0.1-0.1l1.5-1L53.5,6l0.1-0.1
		c0-0.1,0.1-0.2,0.3-0.3l0,0L54,5.5l0.1-0.1C54.2,5.3,54.2,5.3,54.3,5.2L54.3,5.2L54.3,5.2z"/>
	<path class="st0" d="M43.4,38L43.4,38L43.4,38z"/>
	<path class="st0" d="M38.3,38.8C38.2,38.8,38.2,38.9,38.3,38.8c-0.1,0.1-0.1,0.3-0.2,0.4c0,0.1,0,0.2-0.1,0.2c0,0.1,0,0.3-0.1,0.3
		c0,0.1-0.1,0.3-0.2,0.4c0,0.1,0,0.2-0.1,0.2c0,0.1,0,0.1-0.1,0.1c0,0.2,0.1,0.2,0.2,0.2c0.1-0.1,0.2-0.1,0.4-0.1
		c0.1-0.1,0.2-0.1,0.3-0.1c0.1-0.1,0.2-0.1,0.2-0.2h0.1l0.1-0.1l0.1-0.1l0.1-0.1v-0.1l0.1-0.1c0-0.1,0-0.2,0.1-0.2v-0.3
		c0,0,0.1,0,0.1-0.1V39c0.1-0.2,0.1-0.5,0-0.7c0,0,0.1,0,0.1-0.1c0-0.2,0.1-0.3-0.1-0.5c0-0.1,0-0.2,0-0.3c0.1-0.1,0.1-0.2,0-0.3
		c0,0,0,0-0.1,0l0,0h0.1c0-0.1,0-0.2,0.1-0.2l0.1-0.1c0.1,0.1,0.2,0,0.3,0.1l0.1,0.1c0.1,0.1,0,0.3,0.1,0.3v0.1c0,0.1,0,0.1,0.1,0
		c0,0,0,0,0,0.1c0,0.2,0,0.4,0,0.6l0,0c0,0.2,0,0.3,0,0.5l0.1,0.1l0,0v0.1l0,0h0.1c0.1,0.1,0.3,0,0.5,0.1h0.1H41
		c0.1,0.1,0.3,0,0.5,0.1c0.1,0.1,0.2,0,0.2,0.1l0.1,0.1l0.1,0.1l0,0c0,0,0.1,0.1,0.1,0l0,0l0,0c0,0.1,0.1,0.1,0.1,0.2
		c0.1,0.1,0.1,0.1,0.1,0.2l0.1,0.2c0,0.1,0,0.2,0,0.2v0.1l-0.1,0.3l0,0c-0.1,0-0.1,0-0.1,0.1v0.1c-0.1,0.1,0,0.2-0.1,0.2
		c0,0.1,0,0.2,0.1,0.1l0,0l0,0c0.1,0,0.2,0,0.3-0.1l0,0c0.1,0,0.2,0,0.2-0.1v-0.1h0.1h0.1v-0.1h0.1l0,0l0.1-0.1l0.1-0.1l0,0
		c0.1-0.1,0.1-0.2,0.1-0.2c0-0.1,0-0.1,0-0.2c-0.1-0.1,0-0.3-0.1-0.5l0,0c-0.1-0.1,0-0.2-0.1-0.2h-0.1c0-0.1-0.1-0.2-0.1-0.3v-0.1
		v-0.1c0-0.1-0.1-0.1-0.1-0.1c-0.1-0.1-0.1-0.2-0.1-0.2c-0.1-0.1,0-0.2-0.1-0.2c-0.1-0.1,0-0.2-0.1-0.2l0,0L42.3,38c0,0,0,0-0.1,0
		c0-0.1,0-0.1,0-0.2c-0.1-0.1,0-0.2-0.1-0.2c-0.1-0.1,0-0.2-0.1-0.2c-0.1-0.1,0-0.2-0.1-0.2c-0.1-0.1,0-0.2-0.1-0.2
		c-0.1-0.1,0-0.3-0.1-0.3v-0.1h-0.1l0,0v-0.1v-0.1l0,0l0,0h0.1v-0.1l0.1-0.1c0.2-0.1,0.4-0.1,0.6,0l0.1,0.1c0.1,0.1,0.1,0.2,0.1,0.2
		c0.1,0.1,0,0.3,0.1,0.5c0.1,0.1,0,0.3,0.1,0.4v0.1c0.1,0.1,0,0.2,0.1,0.2c0.1,0.1,0,0.2,0.1,0.2l0.1,0.1c0.1,0.1,0.1,0.2,0.2,0.3
		c0,0,0,0,0.1,0v0.1c0.1,0.1,0.2,0.1,0.2,0.1l0.1,0.1l0.1,0.1l0,0c0.1,0.1,0.2,0.1,0.2,0.1l0.1,0.1c0.1,0.1,0.2,0.1,0.2,0.1
		c0.1,0.1,0.2,0,0.2,0.1l0,0l0.1,0.1l0.1,0.1l0.1,0.1l0.1,0.1c0.1,0.1,0.1,0.2,0.1,0.2c0.1,0.1,0,0.2,0.1,0.2V40
		c0.1,0.1,0,0.2,0.1,0.2v0.1c0,0,0.1,0.1,0.1,0c0,0.1,0,0.1,0,0.2c0.1,0.2,0.1,0.4,0.1,0.7c0,0.1-0.1,0.1-0.1,0.2v0.2l0,0v0.1l0,0
		c0,0.1,0,0.2-0.1,0.3c0,0.1,0,0.3-0.1,0.3c0,0.1,0,0.2-0.1,0.2c0,0.2,0.1,0.2,0.2,0.2h0.2c0-0.1,0.1-0.1,0.2-0.1l0.1-0.1l0.1-0.1
		c0-0.2,0.1-0.3,0.2-0.5c0-0.1,0-0.2,0.1-0.2v-0.3c0,0,0.1,0,0.1-0.1v-0.1c0.1-0.1,0-0.3,0-0.4c0,0,0,0,0-0.1l0.1-0.1
		c0-0.2,0-0.4,0-0.6c-0.1-0.1-0.1-0.2-0.1-0.3c0,0,0,0,0-0.1c0-0.2,0-0.3,0-0.5c0-0.1,0-0.1,0-0.2c0-0.1-0.1-0.2-0.1-0.3v-0.1
		c0-0.1-0.1-0.1-0.1-0.2c0,0,0-0.1-0.1-0.1c0-0.1-0.1-0.1-0.1-0.2c0,0,0-0.1-0.1-0.1c0,0,0-0.1-0.1-0.1c0,0,0-0.1-0.1-0.1
		c0,0,0-0.1-0.1-0.1c0,0,0-0.1-0.1-0.1c0,0,0-0.1-0.1-0.1l-0.1-0.1l0,0l0,0v-0.1c0,0,0-0.1-0.1-0.1c0,0,0-0.1-0.1-0.1
		c0,0,0-0.1-0.1-0.1c0,0,0-0.1-0.1-0.1s0-0.1-0.1-0.1c0,0,0-0.1-0.1-0.1c0,0,0-0.1-0.1-0.1c0,0,0-0.1-0.1-0.1c0,0,0-0.1-0.1-0.1
		c0-0.1-0.1-0.1-0.1-0.2V36c0-0.1,0-0.1,0-0.2v-0.1c0-0.1-0.1-0.1-0.1-0.2c0,0,0-0.1-0.1-0.1c0-0.1,0-0.1-0.1-0.2v-0.1
		c0-0.1,0-0.1-0.1-0.2v-0.1c0-0.1-0.1-0.2-0.1-0.3v-0.1c0-0.1-0.1-0.2-0.1-0.3V34c0-0.1,0-0.3-0.1-0.4c0,0,0-0.1-0.1-0.1
		c-0.2-0.2,0-0.4-0.2-0.6c0-0.1,0-0.1,0-0.2c-0.1-0.3-0.1-0.7,0-1.1v-0.2c0.1-0.1,0-0.3,0.1-0.5c0.1-0.1,0-0.3,0.1-0.3
		c0.1-0.1,0-0.2,0.1-0.2l0.1-0.1l0.1-0.1l0.1-0.1l0.1-0.1c0.1-0.1,0.2,0,0.2-0.1l0.1-0.1l0.1-0.1l0,0c0.2-0.1,0.3-0.3,0.5-0.5
		l0.1-0.1l0.1-0.1l0,0c0.1-0.1,0.1-0.2,0.1-0.2c0.1-0.1,0.1-0.2,0.1-0.2c0.1-0.1,0.1-0.1,0.2-0.2v-0.1c0-0.1,0.1-0.2,0.1-0.3v-0.1
		c0-0.1,0.1-0.3,0.1-0.4s0-0.1,0-0.2c-0.1-0.5-0.1-1.1,0-1.6c0-0.1,0-0.1,0-0.2s-0.1-0.3-0.1-0.4V25c0-0.1-0.1-0.2-0.1-0.2v-0.1
		c0,0,0,0,0-0.1s-0.1-0.1-0.1-0.2c0,0,0-0.1-0.1-0.1L45,24.2c0,0,0-0.1-0.1-0.1c0,0,0-0.1-0.1-0.2c0,0,0-0.1-0.1-0.1
		c0-0.1-0.1-0.1-0.1-0.2l-0.1-0.1h-0.1l0,0c0,0,0,0,0-0.1l0,0l0,0l0,0l0,0l0,0c0,0,0,0,0-0.1h-0.1c0,0,0-0.1-0.1-0.1l0,0v-0.1l0,0
		l0,0c0,0,0-0.1-0.1-0.1c0,0,0-0.1-0.1-0.1v-0.1c0,0,0-0.1-0.1-0.1l0,0l-0.1-0.1l0,0l-0.1-0.1l0,0c0,0-0.1,0-0.1-0.1l0,0l-0.1-0.1
		l0,0c0,0,0-0.1-0.1-0.1l0,0l-0.1-0.1l0,0c0,0-0.1,0-0.1-0.1h-0.1c0,0-0.1,0-0.1-0.1l-0.1-0.1l0,0l0,0h-0.1l0,0h-0.1l0,0
		c0,0,0,0,0-0.1l-0.1-0.1c-0.1-0.1-0.2,0-0.2-0.1l0,0l-0.1-0.1l-0.1-0.1h-0.1l0,0L42,21.2c-0.1,0-0.2-0.1-0.2-0.1L41.7,21
		c-0.1,0-0.2-0.1-0.2-0.1l-0.1-0.1h-0.1l-0.1-0.1l-0.1-0.1l0,0c-0.1-0.1-0.2-0.1-0.2-0.2l0,0l-0.1-0.1l0,0l-0.1-0.1l-0.1-0.1
		c-0.1-0.1-0.1-0.2-0.2-0.2l0,0c0-0.1-0.1-0.1-0.1-0.1c0-0.1-0.1-0.1-0.1-0.2c-0.1-0.1-0.1-0.1-0.1-0.2l0,0c0-0.1,0-0.1-0.1-0.2
		c-0.1-0.1-0.1-0.1-0.1-0.2l0,0c-0.1-0.1,0-0.2-0.1-0.2l0,0c-0.1,0-0.1-0.1-0.1-0.2c-0.1-0.1-0.1-0.1-0.1-0.2
		c-0.1-0.1-0.1-0.1-0.1-0.2c-0.1-0.1-0.1-0.2-0.1-0.3c-0.1-0.1-0.1-0.1-0.1-0.2L39,17.5l-0.1-0.2c-0.3-0.1-0.6-0.5-0.9-0.6
		c0-0.1-0.1-0.1-0.1-0.1l0,0c-0.2-0.2-0.4-0.3-0.7-0.3c-0.1,0-0.2,0-0.2,0.1v0.1c0,0.1,0.1,0.2,0.2,0.3c0,0.1,0.1,0.3,0.2,0.4
		c0.3,0.6,0.7,1.2,0.9,1.8c0,0.5,0,0.9-0.1,1.4l0.2,0.1c-0.6,0.7-0.8,1.7-0.5,2.7v0.1c0,0.2,0,0.4,0.1,0.6c0,0.6,0.1,1.1,0.3,1.6
		c0.1,0.4,0.2,0.8,0.4,1.1c0,0.1,0,0.3,0.1,0.4c0.3,0.8,0.7,1.5,1,2.3v0.1c0.1,0.4,0.2,0.9,0.3,1.3c0,0,0,0.1,0.1,0.1v0.3l0,0l0,0
		c-0.2,0-0.2,0.2-0.2,0.3c-0.1,0.7-0.3,1.3-0.7,1.9c-0.2,0.3-0.3,0.6-0.3,0.9c0,0.1,0,0.1,0.1,0.1c-0.2,0.3-0.3,0.5-0.4,0.8
		c0,0,0,0,0,0.1c-0.3,0-0.3,0.1-0.3,0.2h-0.1c0,0.1-0.1,0.2-0.1,0.2c0,0.1,0,0.1-0.1,0.1c0,0.1-0.1,0.1-0.1,0.1
		c0,0.1-0.1,0.1-0.1,0.1L37.8,36c0.1,0.2,0.1,0.4,0.2,0.5c0.1,0,0.1,0.1,0.1,0.1h0.1c0,0.1,0,0.1,0,0.2l0.1,0.1
		c0.1,0.3,0.1,0.4,0.1,0.5c0.1,0.1,0.1,0.2,0.1,0.2l0,0c-0.1,0.1,0,0.3-0.1,0.4v0.1l0,0v0.1l0,0c0,0.1,0,0.1,0,0.2l0,0h-0.1V38.8z"
		/>
	<path class="st0" d="M22.5,15.1l0.2-0.2h0.1l0,0l0,0v-0.1l0,0h0.1H23v-0.1l0,0l0,0l0,0h0.1v-0.1l0,0h0.1h0.1v-0.1
		c0.5-0.6,0.8-1.3,1.2-2c0.2-0.2,0.2-0.2,0.3-0.1c0,0.5-0.1,0.9-0.4,1.3c-0.3,0.3-0.5,0.6-0.6,1c-0.2,0.4-0.2,0.9-0.2,1.4v0.1
		c0,0.1,0.1,0.1,0.2,0.1l0.1-0.1l0.1-0.1l0.1-0.1l0.1-0.1l0.1-0.1v-0.1h0.1l0.1-0.1c0-0.1,0.1-0.2,0.1-0.2c0.1-0.1,0.1-0.1,0.2,0
		l0,0c0.2,0,0.3-0.2,0.4-0.3c0.3-0.4,0.6-0.9,0.9-1.3c0.3-0.4,0.5-0.7,0.7-1.1c0.1-0.1,0.3-0.3,0.4-0.4c0.8-0.1,1.5-0.3,2.2-0.8
		l0.1-0.1c0.1,0,0.2-0.1,0.2-0.2c0.5-0.5,0.7-1.2,0.6-1.9c0.2-0.6,0.1-0.9,0.1-1.3l0.2,0.2c0.2,0.7,0.7,1.2,1.2,1.7
		c0.4,0.3,1,0.4,1.3,0c0.4-0.3,0.7-0.6,0.8-1c0.2-0.3,0.4-0.7,0.5-1.1c0-0.1,0-0.2,0.2-0.2c0.1,0.2,0,0.4,0.1,0.5
		c0,0.4,0,0.8,0.1,1.2c0,0.3,0.1,0.6,0.3,0.8l0,0c0.2,0.4,0.4,0.7,0.8,0.8H36h0.5c0.3,0.2,0.7,0.2,1,0.2c0.2,0,0.3,0,0.5,0.1
		c0.3-0.1,0.6,0,0.9,0.1c0,0.1,0,0.1,0,0.2l0.1,0.1l0.1,0.1c0.3,0,0.6,0.1,0.8,0.1c0.1,0,0.2,0.1,0.3,0.2l0.1,0.1l0.1,0.1
		c0.1,0,0.1,0.1,0.1,0.2c0.1,0.1,0.1,0.2,0.1,0.4c0.1,0.2,0.2,0.1,0.3,0c0-0.1,0-0.2,0.1-0.2c0-0.2,0-0.4,0-0.5l0,0
		c0-0.1-0.1-0.1-0.1-0.1l-0.1-0.1l-0.1-0.1c-0.3-0.3-0.8-0.5-0.8-1c0-0.1,0-0.3,0.1-0.3c0.2,0,0.2,0.1,0.2,0.3c0,0.7,0.4,1,1.1,0.9
		l0,0c0.1,0.1,0.2,0.1,0.2,0.1l0,0l0.1,0.1l0,0l0,0l0.1,0.1c0.1,0.1,0,0.3,0.1,0.3l0,0c0.1,0.1,0.2,0,0.2-0.1c0-0.2,0-0.5,0-0.7
		c-0.1-0.2-0.3-0.3-0.5-0.5l-0.1-0.1l0,0c0-0.1-0.2-0.1-0.2-0.1l-0.1-0.1l0,0L41,10.6c-0.1-0.1,0-0.3-0.1-0.3l0,0c0,0,0-0.1,0-0.2
		V10c0.1-0.1,0-0.3,0.1-0.4c0,0,0,0-0.1,0l0,0H41c0-0.3,0-0.5,0-0.8l-0.1-0.1c-0.1,0-0.1-0.1-0.1-0.2c-0.1,0-0.1-0.1-0.1-0.1
		l-0.2-0.1l-0.1-0.2L40.3,8l-0.1-0.1l-0.1-0.1l0,0V7.7V7.6c0.3-0.2,0.3-0.2,0.2-0.2l0,0l-0.1-0.1l0,0l-0.1-0.1l0,0L40,7.1
		c0,0-0.1,0-0.1-0.1h-0.1h-0.1c-0.2,0-0.5,0-0.7,0s-0.3,0-0.5-0.1l-0.1-0.1l0,0c0-0.1-0.1-0.1-0.2-0.1l0,0c0,0,0-0.1-0.1-0.1l0,0
		c0,0,0-0.1-0.1-0.1c0,0,0-0.1-0.1-0.1c-0.1-0.1,0-0.3-0.1-0.4l0,0h-0.1c0-0.1,0-0.2,0.1-0.3V5.6c0-0.2,0-0.4,0-0.6
		c-0.1-0.1,0-0.3-0.1-0.4c-0.1-0.1-0.1-0.2-0.1-0.3c-0.1-0.1-0.1-0.1-0.1-0.2h-0.1c0-0.1,0-0.1,0-0.2l-0.1-0.1
		c-0.1,0-0.1-0.1-0.1-0.2c-0.1-0.1-0.1-0.1-0.1-0.2C37,3.3,37,3.3,37,3.2c-0.1-0.1-0.1-0.1-0.1-0.2c-0.1-0.1-0.1-0.1-0.1-0.2
		c-0.1-0.1-0.1-0.1-0.1-0.2c-0.1-0.1-0.1-0.1-0.1-0.2c-0.1,0-0.1-0.1-0.1-0.2l-0.1-0.1l-0.2-0.7l-0.1-0.1c-0.1,0-0.3-0.1-0.3-0.2
		c-0.1,0-0.2,0-0.2-0.1c-0.1,0-0.2,0-0.2-0.1c-0.1,0-0.2,0-0.3-0.1c-0.2,0-0.3,0-0.5-0.1c-0.2,0-0.3,0-0.5-0.1H34
		c-0.1-0.1-0.2-0.1-0.3,0h-0.1c-0.1,0.1-0.3,0-0.4,0.1c0,0,0,0-0.1,0v0.1h-0.2c-0.1,0.1-0.1,0.1-0.2,0.1l0,0c0,0-0.1,0-0.1,0.1
		c-0.1,0.1-0.2,0.2-0.3,0.3c-0.1,0-0.1,0-0.2,0l0,0c-0.1,0-0.2,0-0.3-0.1h-0.3c0-0.1,0-0.1-0.1-0.1h-0.1c-0.2-0.1-0.5,0-0.8-0.1
		c-0.1,0-0.1,0-0.2,0s-0.2,0.1-0.4,0.1h-0.1l-0.2,0.1c0,0-0.1,0-0.1,0.1c0,0-0.1,0-0.1,0.1c0,0-0.1,0-0.1,0.1l-0.1,0.1l0,0l-0.1,0.1
		l0,0L29,1.8l0,0l-0.1,0.1l0,0C28.8,2,28.8,2,28.8,2.1c0,0,0,0.1-0.1,0.1c0,0,0,0.1-0.1,0.1c0,0.1-0.1,0.1-0.1,0.2
		c-0.1-0.2-0.1-0.1-0.1-0.1c0,0.1-0.1,0.1-0.1,0.2v0.1v0.1h-0.1c0,0.1,0,0.2-0.1,0.2v0.3H28c0,0.1,0,0.3,0,0.4h-0.1v0.1
		c0,0.2,0,0.5-0.1,0.7v0.1c0,0.3,0,0.6-0.1,0.9c0,0.2,0,0.4,0,0.6h-0.1v0.1c-0.1,0.1,0,0.3-0.1,0.4v0.1c0,0.1,0,0.3-0.1,0.4
		c0,0.1,0,0.2,0,0.3h-0.1v0.1v0.1h-0.1v0.1v0.1h-0.1c0,0.1,0,0.1,0,0.2H27c0,0.1,0,0.1-0.1,0.1c0,0.1-0.1,0.2-0.1,0.2
		c0,0.1,0,0.1-0.1,0.1v0.1h-0.1l-0.1,0.1v0.1l-0.2,0.1l-0.1,0.1V9h-0.1v0.1H26l-0.1,0.1c0,0.1-0.1,0.1-0.1,0.1v0.1h-0.1h-0.1v0.1
		h-0.1v0.1h-0.1v0.1l0,0h-0.1v0.1h-0.1l-0.1,0.1l0,0L25,10l0,0l-0.1,0.1l0,0l-0.1,0.1l-0.1,0.1l-0.1,0.1l-0.1,0.1l0,0l-0.1,0.1
		l-0.1,0.1c0,0.1-0.1,0.2-0.1,0.2l0,0c0,0,0,0,0,0.1h-0.1L24,11.1l0,0c-0.1,0.1-0.1,0.2-0.1,0.2c-0.1,0.1,0,0.2-0.1,0.2
		c-0.1,0.1,0,0.2-0.1,0.2l0,0c0,0.3,0,0.7,0,1c0,0.1,0,0.2,0,0.2c-0.1,0.1-0.1,0.2-0.1,0.3v0.1h-0.1v0.1l0,0l0,0l0,0h-0.1v0.1
		c0,0,0,0,0,0.1l0,0c0,0,0,0-0.1,0c0,0,0,0,0,0.1l0,0l0,0h-0.1v0.1l0,0h-0.1l-0.7,1.1L22.3,15C22.3,15.1,22.4,15.1,22.5,15.1z"/>
</g>
</svg>
