<?xml version="1.0" encoding="utf-8"?>
<!-- Generator: Adobe Illustrator 22.1.0, SVG Export Plug-In . SVG Version: 6.00 Build 0)  -->
<svg version="1.1" id="Layer_1" xmlns="http://www.w3.org/2000/svg" xmlns:xlink="http://www.w3.org/1999/xlink" x="0px" y="0px"
	 viewBox="0 0 56.9 52.7" style="enable-background:new 0 0 56.9 52.7;" xml:space="preserve">
<style type="text/css">
	.st0{fill:#FFFFFF;}
</style>
<g>
	<path class="st0" d="M43.6,24.9L43.6,24.9c0-0.1,0-0.1-0.1-0.2c-0.2-0.1-0.4-0.1-0.6,0h0c0,0,0,0,0,0c0,0,0-0.1-0.1-0.1
		c-0.1,0-0.2-0.1-0.3-0.1c0,0-0.1,0-0.1,0c0,0-0.1,0-0.1-0.1l0,0c0,0,0,0-0.1-0.1l0,0c0,0,0,0-0.1-0.1l0,0c0,0,0,0-0.1-0.1l0,0
		l-0.1-0.1c0,0,0-0.1-0.1-0.1s0-0.1,0-0.1c0,0,0-0.1-0.1-0.1l-0.1-0.1c0,0,0-0.1-0.1-0.1c0-0.1,0-0.1,0-0.2c0,0,0-0.1,0-0.1
		c0-0.1-0.1-0.2-0.1-0.3c0,0,0-0.1,0-0.1c0-0.2,0-0.5,0-0.7c0,0,0-0.1,0-0.1c0-0.1,0-0.2,0.1-0.2c0,0,0-0.1,0-0.1c0-0.1,0-0.1,0-0.2
		c0,0,0-0.1,0-0.1c0,0,0-0.1,0.1-0.1c0,0,0-0.1,0-0.1c0,0,0-0.1,0.1-0.1c0,0,0-0.1,0-0.1c0,0,0-0.1,0.1-0.1l0,0c0,0,0-0.1,0.1-0.1
		c0,0,0-0.1,0.1-0.1c0,0,0-0.1,0.1-0.1c0,0,0-0.1,0.1-0.1s0-0.1,0.1-0.1s0-0.1,0.1-0.1l0.1-0.1c0,0,0,0,0,0c0,0,0-0.1,0.1-0.1
		c0,0,0-0.1,0.1-0.1c0,0,0-0.1,0.1-0.1c0,0,0-0.1,0.1-0.1c0,0,0.1-0.1,0.1-0.1l0,0c0,0,0-0.1,0.1-0.1c0,0,0-0.1,0-0.1
		c0-0.1,0-0.2-0.1-0.3c0,0-0.1-0.1-0.1-0.1c-0.1,0-0.2,0-0.3,0.1c0,0-0.1,0-0.1,0c-0.1,0-0.1,0.1-0.2,0.1c0,0-0.1,0-0.1,0.1
		c0,0-0.1,0-0.1,0.1l-0.1,0.1c0,0-0.1,0-0.1,0c0,0-0.1,0-0.1,0.1l-0.1,0.1l-0.1,0.1l-0.1,0c0,0-0.1,0-0.1,0.1c0,0-0.1,0-0.1,0.1
		c0,0-0.1,0-0.1,0.1c0,0-0.1,0.1-0.1,0.1c0,0-0.1,0-0.1,0.1c0,0-0.1,0-0.1,0.1c0,0-0.1,0-0.1,0.1c0,0-0.1,0-0.1,0.1
		c0,0-0.1,0-0.1,0.1c0,0-0.1,0-0.1,0.1l0,0c0,0,0,0-0.1,0.1l0,0c0,0,0,0-0.1,0.1c0,0-0.1,0-0.1,0.1s-0.1,0-0.1,0c0,0-0.1,0-0.1,0.1
		c0,0-0.1,0-0.1,0.1l0,0c0,0-0.1,0-0.1,0.1s-0.1,0-0.1,0.1c0,0-0.1,0.1-0.1,0.1c0,0-0.1,0-0.1,0.1c0,0-0.1,0.1-0.1,0.1
		c0,0,0,0.1-0.1,0.1c0,0,0,0.1-0.1,0.1l0,0c0,0-0.1,0.1-0.1,0.1l0,0c0,0-0.1,0.1-0.1,0.1c0,0,0,0.1-0.1,0.1c0,0-0.1,0.1-0.1,0.1
		c0,0,0,0,0,0c0,0-0.1,0.1-0.1,0.1c0,0,0,0.1-0.1,0.1c0,0,0,0.1-0.1,0.1l0,0c0,0,0,0-0.1,0.1l0,0c0,0,0,0.1-0.1,0.1
		c0,0,0,0.1-0.1,0.1l-0.1,0.1c0,0,0,0,0,0c0,0,0,0.1-0.1,0.1c0,0,0,0.1-0.1,0.1c0,0-0.1,0.1-0.1,0.1c0,0,0,0,0,0
		c0,0-0.1,0.1-0.1,0.1c0,0,0,0.1-0.1,0.1c0,0.1-0.1,0.1-0.1,0.2v0c0,0,0,0,0,0l-0.1,0.1c-0.1,0-0.2-0.1-0.3-0.1c0-0.1,0-0.1,0-0.2
		c0,0,0.1-0.1,0.1-0.1c0.1-0.1,0.1-0.2,0.1-0.2c0.1-0.1,0-0.2,0.1-0.2c0,0,0.1-0.1,0.1-0.1c0.1-0.1,0-0.2,0.1-0.2
		c0,0,0.1-0.1,0.1-0.1c0.1-0.1,0.1-0.2,0.1-0.2c0.1-0.1,0-0.2,0.1-0.2c0,0,0.1-0.1,0.1-0.1h0c0.1-0.1,0-0.2,0.1-0.2
		c0,0,0.1-0.1,0.1-0.1c0.1,0,0.1-0.2,0.1-0.2c0,0,0.1-0.1,0.1-0.1c0.1,0,0-0.2,0.1-0.2c0,0,0.1-0.1,0.1-0.1h0c0-0.4,0-0.4-0.4-0.4
		c-0.3,0-0.6,0-0.9,0c0,0-0.1,0-0.1,0c-0.1,0.1-0.2,0-0.3,0.1v0c0,0-0.1,0.1-0.1,0.1c0,0-0.1,0.1-0.1,0.1c0,0,0,0.1,0,0.1
		c-0.1,0.1,0,0.2-0.1,0.3c0,0,0,0.1,0,0.1c-0.1,0.1,0,0.3-0.1,0.4c-0.1,0.1,0,0.2-0.1,0.2c-0.1,0.1-0.1,0.2-0.2,0.3
		c0,0-0.1,0.1-0.1,0.1h0c-0.1,0.1-0.1,0.2-0.2,0.3v0c0,0-0.1,0.1-0.1,0.1c0,0-0.1,0.1-0.1,0.1c0,0-0.1,0.1-0.1,0.1
		c0,0-0.1,0.1-0.1,0.1v0c-0.1,0.1,0,0.2-0.1,0.2c0,0-0.1,0.1-0.1,0.1c0,0-0.1,0.1-0.1,0.1c-0.1,0,0,0.2-0.1,0.2c0,0,0,0.1,0,0.1
		c0,0,0,0-0.1,0c0,0-0.1,0.1-0.1,0.1c-0.1,0-0.1,0.2-0.1,0.2c0,0-0.1,0.1-0.1,0.1c-0.1,0.1,0,0.2-0.1,0.2c0,0-0.1,0.1-0.1,0.1
		c0,0-0.1,0.1-0.1,0.1h0c-0.1,0.1-0.1,0.2-0.1,0.2c0,0-0.1,0.1-0.1,0.1c-0.1,0-0.1,0.2-0.1,0.2c0,0-0.1,0.1-0.1,0.1
		c-0.1,0.1,0,0.2-0.1,0.2c-0.5,0.8-1.1,1.6-1.6,2.3c-0.1,0.1-0.1,0.1-0.1,0.2c-0.3,0.3-0.5,0.7-0.8,1.1c-0.2,0.2-0.4,0.5-0.5,0.8
		c-0.2,0.2-0.4,0.5-0.5,0.8l-0.1,0.2c-0.1,0.1-0.3,0.3-0.3,0.5c0,0,0,0,0,0c-0.1,0.1-0.2,0.2-0.2,0.3c-0.1,0.1-0.2,0.2-0.2,0.3
		c0,0-0.1,0.1-0.1,0.1c-0.1,0.1-0.1,0.1-0.2,0.2c0,0,0,0.1,0,0.1c0,0,0,0.1,0,0.1c-0.1,0.1-0.1,0.2-0.1,0.3c0,0.1,0.1,0.3,0.3,0.4
		c0,0.1,0,0.2,0.1,0.2c0,0.1,0.1,0.1,0.1,0.1c0.1,0.1,0.3,0.2,0.5,0.2c0.1,0.1,0.3,0.1,0.4,0.1l0.2,0c0,0,0,0,0.1,0
		c0.2,0.1,0.4,0.1,0.6,0.1c0.3,0,0.3,0,0.4-0.4c0-0.1,0-0.1,0-0.2c0-0.1,0.1-0.2,0.1-0.2c0-0.3,0.1-0.6,0.1-0.9
		c0.1-0.3,0.2-0.7,0.3-1c0.1-0.3,0.3-0.5,0.3-0.7c0.3-0.4,0.5-0.8,0.8-1.3c0.1-0.1,0.2-0.3,0.2-0.4l0.3-0.5c0,0,0.1,0,0.1-0.1
		c0.3-0.6,0.7-1.1,1-1.6c0,0,0-0.1,0-0.1c0.3-0.2,0.3-0.4,0.5-0.6c0.2-0.2,0.3-0.4,0.5-0.6c0.2-0.1,0.2-0.1,0.2,0.1
		c-0.2,0.3-0.3,0.5-0.5,0.8c-0.2,0.3-0.3,0.5-0.5,0.8c0,0-0.1,0.1-0.1,0.1c-0.5,0.7-1,1.5-1.4,2.2c-0.1,0.1-0.2,0.2-0.2,0.3
		c-0.1,0.2-0.3,0.4-0.3,0.6c-0.1,0.2-0.1,0.4-0.2,0.6c0,0,0,0,0,0.1h0c0,0,0,0,0-0.1c-0.1,0.1-0.1,0.2-0.1,0.3
		c-0.2,0.6-0.3,1.2-0.5,1.8c-0.1,0.3-0.1,0.6-0.3,1c-0.1,0-0.2,0.1-0.2,0.2c-0.4,0.3-1,0.5-1.5,0.4l-1-0.2C29.9,34,29.8,34,29.7,34
		c0,0-0.1-0.1-0.1-0.1c-0.6-0.1-1.2,0-1.7,0.3c0,0-0.1,0-0.1,0c-0.4,0.1-0.7,0.3-1,0.6L26.5,35c0,0-0.1,0.1-0.1,0.1
		c-0.1,0.2-0.3,0.3-0.4,0.5c-0.1,0.1-0.2,0.2-0.2,0.3c-0.1,0-0.1,0.1-0.1,0.1c0,0,0,0.1,0,0.1c-0.1,0.2-0.2,0.3-0.2,0.5
		c-0.1,0.2-0.1,0.4-0.1,0.7c0,0.3,0.1,0.6,0.3,0.8l0.1,0.1c0.1,0.2,0.3,0.3,0.4,0.4c0.4,0.2,0.8,0.5,1.2,0.7
		c0.3,0.2,0.6,0.3,0.8,0.6c0.2,0.2,0.2,0.2,0,0.5c-0.5,0.1-1,0.2-1.4,0.4c-0.4,0.1-0.7,0.2-1,0.4c-0.1,0-0.2,0-0.2,0.1
		c-0.4,0.3-0.4,0.4-0.2,0.8c0,0,0,0.1,0,0.1c0,0.1,0,0.1,0.1,0.1c0,0.1,0.1,0.2,0.1,0.3c0.2,0.3,0.3,0.6,0.5,0.9
		c0.1,0.3,0,0.6-0.3,0.7c-0.1,0.1-0.3,0.1-0.5,0.1c-0.1,0.2,0.2,0.1,0.2,0.2l0.5,0c0.1-0.1,0.2,0,0.2-0.1c0,0,0.1-0.1,0.1-0.1
		c0,0,0.1-0.1,0.1-0.1c0.1-0.2,0.2-0.3,0.2-0.5c0.1-0.2,0.2-0.4,0.2-0.6c0-0.2,0-0.4,0.1-0.6c0.4-0.2,0.8-0.4,1.3-0.4
		c0.4,0,0.9-0.2,1.3-0.4c0.2-0.1,0.3-0.2,0.3-0.4C30,41.3,30,41.2,30,41c0-0.2-0.1-0.3-0.3-0.4c-0.1-0.2-0.2-0.4-0.4-0.5
		c-0.3-0.3-0.5-0.6-0.7-0.9c-0.2-0.3-0.2-0.7,0.1-0.9c0,0,0.1-0.1,0.2-0.1c0.2-0.2,0.5-0.3,0.7-0.5c0.1,0,0.2,0,0.3-0.1
		c0.8-0.1,1.6,0,2.3,0.4c0,0,0.1,0,0.1,0.1c0.6,0.2,1.2,0.3,1.8,0.2c0.2,0,0.3-0.1,0.5-0.2c0.2-0.1,0.3-0.2,0.3-0.4
		c0-0.2,0-0.5-0.1-0.7c-0.2-0.4-0.4-0.8-0.6-1.2c-0.1-0.3-0.1-0.6-0.1-1c0.1-0.1,0.1-0.3,0.1-0.4c0.1-0.1,0.2-0.3,0.2-0.4
		c0.1,0,0.1-0.1,0.1-0.2l0.5-0.5c0.1,0,0.1-0.1,0.1-0.1c0.1,0,0.2-0.1,0.2-0.2l0.1-0.1l0.9-0.4l0.2-0.1l0.4-0.1c0.4,0,0.8,0,1.2-0.1
		l0.4,0c0.1-0.1,0.3-0.1,0.4,0c0,0,0.1,0,0.1,0c0.1,0,0.2-0.1,0.2-0.1c0,0,0.1,0,0.1,0c0.1,0,0.1-0.1,0.2-0.1c0,0,0.1,0,0.1-0.1
		c0,0,0.1-0.1,0.1-0.1c0,0,0-0.1,0-0.1c0-0.1,0-0.1,0-0.2c0,0,0-0.1,0-0.1c0-0.1-0.1-0.1-0.1-0.2c0,0-0.1,0-0.1,0l0,0
		c0,0-0.1-0.1-0.1-0.1c0,0-0.1-0.1-0.1-0.1v0c0,0-0.1,0-0.1,0c0,0,0,0,0,0c0,0,0,0,0-0.1c0,0,0-0.1-0.1-0.1
		c-0.2-0.1-0.4-0.2-0.3-0.4c0-0.2,0.3-0.1,0.4-0.1l0.5,0c0.1,0.1,0.2,0,0.3,0c0,0,0,0,0-0.1h0.3c0,0,0,0,0,0c0.1,0,0.1,0,0.2,0
		c0.1-0.1,0.2,0,0.2-0.1c0.1-0.1,0.2-0.2,0.3-0.3c0.1-0.2,0.1-0.5,0-0.7c-0.1-0.1,0-0.2-0.1-0.2c-0.1-0.2-0.3-0.3-0.4-0.4
		c0,0-0.1-0.1-0.1-0.1l0,0c0-0.1-0.1-0.1-0.2-0.1c0,0,0,0,0,0c0,0,0,0,0-0.1l-0.3,0c0,0,0,0,0,0c0,0,0-0.1,0-0.1
		c-0.1-0.1-0.2,0-0.2-0.1c-0.1-0.1-0.2-0.1-0.1-0.2c0,0,0.1-0.1,0.1-0.1c0.1-0.1,0.2,0,0.3-0.1c0.1-0.1,0.2,0,0.2-0.1
		c0,0,0.1,0,0.1,0c0,0,0,0,0,0c0,0,0,0,0,0c0.1,0,0.2,0,0.3,0c0.1-0.1,0.2,0,0.3-0.1c0.1-0.1,0.2,0,0.3-0.1l0,0h0
		c0.1-0.1,0.2,0,0.2-0.1c0,0,0.1,0,0.1,0c0.1,0,0.2,0,0.2-0.1c0.1-0.1,0.2,0,0.2-0.1c0,0,0-0.1,0-0.1h0l0.2,0c0,0,0,0,0,0l0,0
		c0.1,0,0.2-0.1,0.3-0.2v0c0,0,0.1-0.1,0.1-0.1c0,0,0.1-0.1,0.1-0.1c0,0,0.1-0.1,0.1-0.1h0c0.1,0,0.1-0.2,0.1-0.2
		c0,0,0.1-0.1,0.1-0.1l0,0c0.1-0.1,0.1-0.2,0.1-0.2v0c0.1-0.1,0-0.2,0.1-0.3c0,0,0-0.1,0-0.1C43.6,25.1,43.6,25,43.6,24.9
		C43.6,24.9,43.6,24.9,43.6,24.9z"/>
	<path class="st0" d="M29.1,6.6c-0.3-0.3-0.7-0.5-1.2-0.5c0,0-0.1-0.1-0.1-0.1c-0.2-0.1-0.4-0.2-0.6-0.4c0-0.1-0.1-0.1-0.1-0.1
		c-0.1-0.2-0.3-0.3-0.5-0.3c-0.5-0.3-1.1-0.5-1.7-0.4c-0.4,0-0.8,0.1-1.1,0.2c-0.3,0-0.5,0.1-0.8,0.3c-0.1,0-0.2,0-0.2,0.1
		c-0.2,0.1-0.4,0.2-0.6,0.4c-0.3,0.1-0.4,0.3-0.4,0.6c0,0.4-0.1,0.7-0.2,1c0,0.1,0,0.1,0,0.2c0,0.1,0,0.1,0.1,0.1c0,0,0,0,0.1,0
		c0.1,0,0.2-0.1,0.3-0.1c0.2-0.1,0.4-0.2,0.6-0.3c0.4-0.2,0.9-0.2,1.3,0.2c0.1,0.1,0.1,0.2,0.2,0.3c0,0.1,0,0.2,0.1,0.3
		c0,0.4,0,0.7,0.1,1.1c0,0.1,0,0.2,0.1,0.2v0c0,0.1,0.1,0.2,0.2,0.2c0.2,0.1,0.4,0.3,0.6,0.4c0.2,0.3,0.4,0.2,0.7,0.2
		c0.3-0.1,0.7,0.1,0.7,0.4c0,0,0,0,0,0c0,0.1,0.1,0.2,0.1,0.3c0,0.1,0,0.2,0.1,0.3c0,0,0,0,0,0.1c0,0,0,0,0,0c0,0,0,0.1,0,0.1h0.1h0
		c0,0,0.1,0,0.1,0.1c0.1,0,0.2,0,0.3,0c0,0,0,0,0,0c0.1,0,0.1,0,0.2,0c0.4-0.1,0.7-0.2,1.1-0.4c0.2-0.1,0.3-0.1,0.5,0.1
		c0.1,0.1,0.2,0.2,0.3,0.3c0,0,0.1,0,0.1,0c0,0,0,0,0,0c0,0,0,0,0-0.1c0,0,0,0,0,0c0-0.1,0-0.2,0-0.3c0,0,0,0,0-0.1c0,0,0,0,0,0
		c0-0.2,0.1-0.3,0-0.5c0.1,0.1,0.1,0.2,0.2,0.3c0,0,0.1,0,0.1,0c0,0.2,0.2,0.2,0.3,0.3c0.2,0,0.4,0,0.5,0.1c0.1,0,0.2,0,0.2,0.1
		c0.1,0,0.2,0,0.3,0.1c0.1,0,0.2,0.1,0.3,0.1c0,0,0,0.1,0,0.1l0.1,0h0h0c0,0,0,0.1,0,0.1c0.1,0,0.2,0,0.2,0.1c0,0,0.1,0.1,0.1,0.1
		c0.1,0,0.2,0,0.2,0.1l0.1,0.1c0,0,0.1,0.1,0.1,0.1c0.1,0,0.2,0.1,0.2,0.1l0.1,0.1c0,0,0.1,0.1,0.1,0.1c0,0,0.1,0.1,0.1,0.1l0.1,0.1
		c0,0,0.1,0.1,0.1,0.1l0.1,0.1c0.2-0.1,0.1-0.2,0.1-0.3c0,0,0-0.1,0-0.1c-0.1-0.1,0-0.2-0.1-0.2c-0.1-0.1,0-0.2-0.1-0.2
		c-0.1-0.1,0-0.2-0.1-0.2c0,0-0.1-0.1-0.1-0.1c-0.1-0.1,0-0.2-0.1-0.2c0,0-0.1-0.1-0.1-0.1c0,0-0.1-0.1-0.1-0.1c0,0-0.1-0.1-0.1-0.1
		c0,0-0.1-0.1-0.1-0.1c0,0-0.1-0.1-0.1-0.1v0c-0.1-0.1-0.2-0.1-0.2-0.1c-0.1-0.1-0.2,0-0.2-0.1c0,0-0.1,0-0.1,0l-0.1-0.1
		c-0.1,0-0.2,0-0.3-0.1c-0.1,0-0.2,0-0.2-0.1c-0.1,0-0.2,0-0.2-0.1c-0.1,0-0.2-0.1-0.2-0.1c-0.1,0-0.1,0-0.1-0.1
		c-0.1,0-0.1-0.1-0.1-0.2c0,0,0.1,0,0.1-0.1c0.1-0.1,0.1-0.3,0-0.4c-0.1-0.2-0.2-0.4-0.5-0.3c0,0,0,0-0.1,0.1l0,0c0-0.1,0-0.2,0-0.3
		c0.3,0,0.6,0.1,0.8,0.3c0.1,0,0.1,0,0.1,0.1c0.1,0,0.1,0,0.1,0.1c0.1,0.1,0.2,0.2,0.3,0.3c0.1,0.1,0.3,0.3,0.4,0.4c0,0,0.1,0,0.1,0
		c0,0,0,0.1,0,0.1h0c0.1,0.1,0.2,0,0.2,0.1c0,0,0.1,0.1,0.1,0.1c0.1,0.1,0.2,0,0.2,0.1c0,0,0.1,0.1,0.1,0.1c0,0,0.1,0,0.1,0
		c0,0,0.1,0.1,0.1,0.1c0.1,0.1,0.2,0,0.2,0.1c0,0,0.1,0.1,0.1,0.1c0.1,0.1,0.2,0,0.2,0.1c0,0,0.1,0.1,0.1,0.1
		c0.1,0.1,0.2,0.1,0.3,0.2c0,0,0.1,0.1,0.1,0.1c0.1,0.1,0.2,0.1,0.2-0.1c0,0-0.1-0.1-0.1-0.1c0,0-0.1-0.1-0.1-0.1
		c0,0-0.1-0.1-0.1-0.1c0,0-0.1-0.1-0.1-0.1c0,0-0.1-0.1-0.1-0.1c0,0-0.1-0.1-0.1-0.1c0,0-0.1-0.1-0.1-0.1c0,0-0.1-0.1-0.1-0.1v0
		c0,0-0.1-0.1-0.1-0.1l0,0c0,0-0.1-0.1-0.1-0.1l0,0c0,0-0.1-0.1-0.1-0.1l0,0c-0.1,0,0-0.2-0.1-0.2c0,0-0.1-0.1-0.1-0.1
		c0,0-0.1,0-0.1,0c0,0,0,0,0-0.1c-0.1,0-0.1-0.1-0.1-0.2c-0.1-0.1-0.2-0.4-0.2-0.6c0-0.2,0-0.4,0-0.6l-0.1-0.1l-0.6-0.1
		c-0.1,0-0.3,0-0.4-0.1c-0.1,0-0.2,0-0.3-0.1c-0.1,0-0.3-0.1-0.3-0.2C30.1,8,30,7.9,29.9,7.8c-0.1,0-0.1-0.1-0.1-0.1
		c-0.1,0-0.1-0.1-0.1-0.2c-0.1-0.1-0.1-0.2-0.1-0.3c0,0-0.1,0-0.1,0c0-0.1-0.1-0.2-0.1-0.3h0c0,0-0.1-0.1-0.1-0.1
		C29.3,6.7,29.2,6.7,29.1,6.6L29.1,6.6z"/>
	<polygon class="st0" points="30.2,9.9 30.2,9.9 30.2,9.9 	"/>
	<path class="st0" d="M22.1,25.6c0.1-0.1,0.1-0.3,0.2-0.3c0-0.1,0-0.1,0-0.2c0,0,0.1,0,0.1,0c0-0.1,0-0.2,0.1-0.2c0-0.1,0-0.1,0-0.2
		c0,0,0.1,0,0.1,0c0-0.1,0-0.2,0.1-0.2c0-0.1,0-0.1,0-0.2c0,0,0.1,0,0.1,0c0.1-0.3,0.2-0.7,0.4-0.9c0-0.2,0.1-0.4,0.2-0.5
		c0.2-0.3,0.3-0.7,0.4-1l0.2-0.3c0.1-0.3,0.2-0.7,0.3-1c0,0,0,0,0,0c0,0,0,0,0.1,0c0.1,0.4,0.3,0.8,0.5,1.2c0.2,0.4,0.5,0.7,0.8,1
		c0.1,0.1,0.3,0.2,0.4,0.2c0.1,0.2,0.3,0.3,0.5,0.4c0.1,0.1,0.2,0.2,0.3,0.2c0.1,0.1,0.2,0.2,0.3,0.3c0.1,0.2,0.3,0.3,0.4,0.5
		c0.2,0.2,0.3,0.3,0.5,0.5c0.1,0.2,0.3,0.3,0.4,0.5c0,0.1,0.1,0.1,0.1,0.2c0.1,0.2,0.2,0.4,0.4,0.5c0.1,0.2,0.2,0.3,0.3,0.5l0.1,0.1
		l0.3,0c0-0.1,0-0.1,0-0.2c0.1,0,0.1-0.1,0.1-0.2c0,0,0-0.1,0-0.1c0-0.1,0.1-0.3,0.1-0.4c0.1-0.4,0.3-0.7,0.4-1.1c0-0.1,0-0.1,0-0.2
		c0.1-0.2,0.2-0.5,0.3-0.7c0.2-0.2,0.2-0.4,0.3-0.6c0.5-1.1,0.9-2.1,1.3-3.2c0.1-0.3,0.1-0.6,0-0.9c-0.1-0.1,0-0.2-0.1-0.2
		c0,0,0-0.1,0-0.1c0,0-0.1-0.1-0.1-0.1c-0.1-0.1,0-0.2-0.1-0.2C32,18.1,32,18,32,17.9c-0.1-0.1,0-0.2-0.1-0.2
		c-0.1-0.1,0-0.2-0.1-0.2c-0.1-0.1,0-0.2-0.1-0.3c-0.1-0.1,0-0.2-0.1-0.2c0,0,0-0.1,0-0.1c-0.1-0.1,0-0.2-0.1-0.3
		c-0.1-0.1,0-0.2-0.1-0.3c0,0,0-0.1,0-0.1c-0.1-0.2,0-0.4-0.1-0.5c0,0,0-0.1,0-0.1c-0.1-0.2-0.1-0.4,0-0.7c0,0,0-0.1,0-0.1
		c0.1-0.1,0-0.2,0.1-0.3c0.1-0.1,0-0.2,0.1-0.3c0.1-0.1,0-0.2,0.1-0.2c0,0,0-0.1,0-0.1c0.1-0.1,0-0.2,0.1-0.2c0,0,0-0.1,0-0.1
		c0.1-0.1,0-0.3,0.1-0.4c0-0.1,0-0.2,0-0.3c-0.1-0.1,0-0.2-0.1-0.2c0,0-0.1-0.1-0.1-0.1c0,0-0.1-0.1-0.1-0.1l-0.1-0.2c0,0,0,0,0,0
		c0,0,0-0.1-0.1-0.1h-0.1c0,0,0-0.1,0-0.1l0,0c0-0.1-0.1-0.1-0.2-0.1c0-0.1-0.1-0.1-0.2-0.1c0,0-0.1,0-0.1,0c-0.1,0-0.2,0-0.2,0l0,0
		c-0.1-0.2-0.3,0-0.4-0.1c-0.2-0.1-0.4-0.1-0.5,0l0,0c-0.3,0-0.7,0.4-0.9-0.1c-0.3-0.4-0.6-0.4-0.9-0.2c0,0-0.1,0-0.1,0.1
		c-0.1,0-0.1,0.1-0.1,0.2c0,0,0,0.1,0,0.1c-0.2,0-0.3,0.1-0.5,0.2c-0.2,0.1-0.5,0.3-0.7,0.4c-0.1,0.1-0.2,0-0.3-0.1c0,0,0,0,0,0
		c0-0.1,0-0.1,0-0.2c0-0.2,0-0.4-0.1-0.6c0-0.2-0.1-0.2-0.3-0.2c-0.3,0.1-0.5,0.3-0.7,0.6c-0.1,0-0.1,0.1-0.1,0.2
		c-0.3,0.3-0.5,0.7-0.6,1.1c-0.1,0.1-0.1,0.2-0.1,0.4c0,0.3,0.1,0.6,0.2,0.9c0,0.2,0,0.4,0,0.5L23.7,15c-0.2,0-0.3,0.1-0.4,0.2
		c-0.4,0.1-0.7,0.3-1.1,0.4c-0.1,0-0.2,0.1-0.3,0.2c-0.3,0.1-0.5,0.2-0.7,0.4c-0.3,0.2-0.5,0.4-0.6,0.7c-0.2,0.2-0.3,0.4-0.3,0.6
		c-0.1,0.7-0.2,1.4,0,2.2c0,0.5,0,1,0.1,1.5c0.1,0.8,0,1.7-0.3,2.5C20.1,24,20,24,19.9,24c-0.5-0.1-1-0.2-1.5-0.3
		c-0.5-0.1-1-0.2-1.5-0.2c0,0-0.1,0-0.1,0c-0.2-0.1-0.4-0.1-0.7-0.1c0,0-0.1,0-0.1,0c-0.3-0.1-0.7-0.1-1.1-0.1c0,0-0.1,0-0.1,0
		c-0.3-0.1-0.6-0.1-0.9,0c-0.4,0-0.8,0-1.2,0.1c-0.2,0-0.5,0-0.7,0c-0.3,0-0.7,0-1,0c-0.5,0-0.9,0.3-1.1,0.7
		c-0.2,0.3-0.5,0.5-0.8,0.7c-0.2,0-0.5,0-0.7,0c-0.2,0-0.4-0.2-0.4-0.4c0-0.1,0-0.2-0.1-0.3c0-0.3-0.1-0.7-0.1-1
		c0.1-0.3,0-0.6-0.3-0.8c-0.1,0.2-0.2,0.5-0.2,0.7c0,0,0,0.1,0,0.1c-0.1,0.2-0.1,0.5-0.1,0.8c-0.2,0.6-0.1,1.2,0.3,1.7l0.1,0.1
		l0.1,0.1c0.2,0.1,0.3,0.2,0.4,0.3c0.2,0.1,0.3,0.3,0.5,0.4c0.2,0.2,0.5,0.1,0.6,0h0c0.1,0,0.1,0,0.1-0.1c0,0,0.1,0,0.1,0
		c0,0,0.1,0,0.1-0.1c0.6-0.4,1.1-0.8,1.6-1.3c0.1,0,0.2-0.1,0.2-0.1l0.2,0c0.5-0.2,1.2-0.2,1.7,0c0.1,0,0.2,0.1,0.3,0.1L14,25
		c0.3,0.1,0.5,0.2,0.7,0.3c0.2,0,0.4,0.1,0.5,0.2l0.3,0.1c0.5,0.1,0.9,0.4,1.4,0.5c0.1,0.1,0.1,0.1,0.2,0.1c0.4,0.2,0.8,0.3,1.2,0.4
		l0,0h0c0.6,0.2,1.2,0.4,1.9,0.4c0.2,0,0.5,0,0.7,0c0,0,0,0,0,0l0.2,0l0.1-0.1c0,0,0.1-0.1,0.1-0.1c0-0.1,0-0.1,0-0.2
		c0,0-0.1,0-0.1,0c0,0,0,0,0,0c0,0,0.1,0,0.1,0C21.7,26.3,21.9,26,22.1,25.6z"/>
	<path class="st0" d="M20.4,10.7c-0.1,0.2-0.1,0.3-0.1,0.5c0,0.2,0,0.3,0.2,0.3c0.3,0.1,0.5,0.3,0.5,0.5c0,0,0,0,0,0
		c0,0.1,0,0.2,0.1,0.2c0,0,0,0.1,0,0.1c0,0.1,0,0.1,0.1,0.1c0.1,0.2,0.2,0.3,0.3,0.5l0.1,0.1c0,0.1,0.1,0.2,0.2,0.3
		c0.5,0.4,0.7,0.4,1.1-0.1c0,0,0,0,0-0.1c0.1,0,0.1-0.1,0.1-0.1c0.2-0.2,0.3-0.4,0.4-0.7c0.1-0.3,0.3-0.6,0.6-0.9
		c0.1,0,0.1-0.1,0.1-0.1h0c0.2-0.1,0.3-0.2,0.5-0.4c0.1-0.1,0.1-0.2,0-0.3c-0.4-0.2-0.7-0.4-1.1-0.7c-0.1-0.1-0.2-0.2-0.2-0.3
		c-0.1-0.2-0.2-0.5-0.2-0.7c0.1-0.2,0.1-0.4,0.1-0.7c0-0.1,0-0.2-0.1-0.2c0-0.1,0-0.1-0.1-0.1c0-0.1-0.1-0.1-0.1-0.1
		c-0.1-0.1-0.1-0.1-0.2-0.1c-0.3-0.1-0.5,0-0.7,0.1c-0.4,0.2-0.8,0.4-1.2,0.6c0,0.2,0,0.4,0,0.6c0,0.4,0,0.7-0.2,1
		C20.6,10.3,20.5,10.5,20.4,10.7z"/>
	<path class="st0" d="M10.9,9.7c0,0,0.1-0.1,0.1-0.1c0,0,0.1-0.1,0.1-0.1c0.2-0.2,0.4-0.5,0.6-0.7c0.1-0.2,0.3-0.3,0.5-0.5
		c0.1-0.1,0.2-0.1,0.2-0.2l1-0.4c0.3-0.1,0.5-0.2,0.7-0.4c0.4-0.3,0.7-0.6,0.9-1l0,0c0.1,0,0.2-0.1,0.3-0.2c0.3-0.3,0.6-0.5,1-0.5
		c0.2,0,0.5-0.1,0.7-0.1c0.2,0,0.4,0,0.5-0.1c0.5-0.1,1.1-0.1,1.6-0.3c0.2,0,0.5-0.1,0.7-0.2c0.5-0.1,1-0.2,1.5-0.4
		c0.2-0.1,0.4-0.2,0.5-0.3c0.1,0,0.1-0.1,0.2-0.1c0.4-0.2,0.7-0.5,1.1-0.7c0.1,0,0.1,0,0.1-0.1c0.4-0.2,0.8-0.5,1.2-0.7
		c0.1,0,0.2-0.1,0.4-0.1c0.3-0.1,0.4,0,0.4,0.2c0.1,0.2,0.1,0.5,0.1,0.7c0,0.3,0,0.6,0,0.9c0,0,0.1,0,0.1,0c0.1,0,0.1,0,0.2-0.1
		c0.5-0.2,1-0.1,1.3,0.3c0.1,0.1,0.2,0.2,0.3,0.2c0.1,0.1,0.1,0.2,0.2,0.2C28,5.3,28.5,5.7,29,6c0.5,0.1,0.2-0.2,0.2-0.4
		c0,0,0,0,0-0.1C29.1,5.4,29,5.3,29,5.1c-0.1-0.1-0.1-0.2-0.1-0.3c0,0-0.1-0.1-0.1-0.1c0-0.1,0-0.1,0-0.2c-0.1-0.1,0-0.2-0.1-0.3
		c-0.1-0.1,0-0.2-0.1-0.3c-0.1-0.1,0-0.2-0.1-0.3c0,0,0,0,0,0c0,0,0,0,0,0c0-0.1-0.1-0.2-0.1-0.3c0-0.1-0.1-0.1-0.1-0.2c0,0,0,0,0,0
		c0,0,0-0.1,0-0.1c-0.1-0.1-0.1-0.2-0.1-0.3l0,0c0,0,0,0,0,0c0-0.1,0-0.2-0.1-0.3l0,0c0,0-0.1-0.1-0.1-0.1c0,0,0-0.1,0-0.1
		c-0.1-0.1-0.1-0.2-0.1-0.3c-0.1-0.1-0.1-0.1-0.1-0.2c-0.1-0.1-0.1-0.2-0.1-0.3C27.6,1.1,27.6,1,27.6,1c-0.1,0-0.1-0.1-0.1-0.2
		c-0.1,0-0.1-0.1-0.1-0.2c0,0,0,0-0.1,0c0,0,0,0,0,0l0-0.1c0,0-0.1-0.1-0.1-0.1C27,0.2,27,0.1,26.9,0c0,0-0.1,0-0.1,0l-0.2,0h-0.4
		c-0.1,0.1-0.3,0.1-0.4,0.1c0,0,0,0.1,0,0.1c-0.1,0-0.2,0-0.3,0c-0.1,0.1-0.2,0.1-0.3,0.1l0,0c-0.1,0-0.2,0-0.2,0.1h0
		c-0.1,0.1-0.2,0-0.3,0.1h0c0,0,0,0,0,0c0,0,0,0,0,0c-0.1,0-0.1,0-0.2,0c0,0,0,0-0.1,0c0,0,0,0,0,0c-0.1,0-0.2,0-0.3,0.1
		c-0.1,0.1-0.2,0-0.2,0.1c0,0,0,0-0.1,0c0,0,0,0,0,0c0,0-0.1,0-0.1,0.1c-0.1,0-0.1,0-0.1,0c-0.1,0.1-0.2,0-0.2,0.1
		c-0.1,0-0.1,0.1-0.2,0.1l-0.1,0c0,0,0,0-0.1,0c0,0,0,0,0,0.1l0,0c0,0,0,0,0,0c-0.1,0-0.1,0-0.2,0c0,0,0,0,0,0
		c-0.1,0.1-0.2,0-0.2,0.1c-0.1,0.1-0.2,0-0.2,0.1c0,0,0,0-0.1,0c-0.1,0.1-0.3,0.1-0.5,0.2h0c0,0,0,0,0,0c0,0,0,0,0,0.1
		c0,0-0.1,0-0.1,0c0,0-0.1,0-0.1,0c0,0,0,0,0,0l0,0c0,0,0,0,0,0c-0.1,0-0.1,0-0.2,0.1c-0.1,0.1-0.2,0-0.3,0.1h0
		c-0.1,0.1-0.1,0.1-0.2,0.1c0,0,0,0,0,0c0,0,0,0,0,0c-0.1,0-0.1,0-0.2,0h0c-0.1,0.1-0.2,0-0.2,0.1c-0.1,0.1-0.2,0-0.2,0.1
		c0,0,0,0-0.1,0c-0.1,0-0.2,0-0.2,0.1l0,0c-0.1,0-0.2,0-0.2,0.1c-0.1,0.1-0.2,0.1-0.3,0.1c-0.1,0.1-0.1,0.1-0.2,0.1
		C19,3,18.9,2.9,18.9,3c-0.1,0.1-0.2,0-0.2,0.1h0c-0.1,0-0.2,0-0.2,0.1c-0.1,0-0.2,0-0.2,0.1c-0.1,0.1-0.2,0-0.2,0.1
		c0,0,0,0.1,0,0.1l-0.2,0c0,0,0,0.1,0,0.1l-0.2,0c0,0.1-0.1,0.1-0.2,0.1c0,0.1-0.1,0.1-0.2,0.1C17,3.9,16.9,4,16.8,4.1
		c0,0-0.1,0.1-0.1,0.1c0,0-0.1,0-0.1,0c0,0,0,0.1,0,0.1l-0.2,0c-0.1,0.1-0.2,0-0.2,0.1c-0.1,0.1-0.2,0-0.2,0.1
		c-0.1,0.1-0.2,0-0.3,0.1c-0.1,0.1-0.2,0-0.3,0.1c0,0-0.1,0-0.1,0c0,0-0.1,0-0.2,0.1c0,0,0,0,0,0l-0.1,0h-0.3c-0.1,0-0.1,0-0.2,0.1
		l-0.1,0h-0.1c0,0,0,0,0,0c0,0-0.1,0-0.1,0.1c0,0,0,0,0,0.1v0v0h0l-0.4,0.3c0,0-0.1,0.1-0.1,0.1c0,0.1,0,0.2-0.1,0.2
		c0,0.1,0,0.2-0.1,0.2V6l0,0c0,0-0.1,0-0.1,0c-0.1,0-0.1,0.1,0,0.2v0c0,0-0.1,0-0.1,0v0c0,0-0.1,0.1-0.1,0.1c-0.1,0,0,0.2-0.1,0.2v0
		c0,0-0.1,0.1-0.1,0.1c0,0-0.1,0.1-0.1,0.1c0,0-0.1,0.1-0.1,0.1h0C12.6,7,12.5,7,12.5,7.1c-0.1,0,0,0.1-0.1,0.2l0,0
		c0,0-0.1,0.1-0.1,0.1l0,0c0,0-0.1,0.1-0.1,0.1l0,0c0,0,0,0.1,0,0.1c0,0-0.1,0-0.1,0c0,0,0,0,0,0.1l0,0c0,0-0.1,0-0.1,0l0,0
		c0,0-0.1,0.1-0.1,0.1l0,0c0,0-0.1,0.1-0.1,0.1l0,0c0,0-0.1,0.1-0.1,0.1l0,0c-0.1,0.2-0.3,0.4-0.5,0.5L11,8.6
		c-0.1,0-0.1,0.2-0.1,0.2c-0.1,0.1,0,0.2-0.1,0.3c-0.1,0.1,0,0.3-0.1,0.4v0.2C10.8,9.8,10.8,9.8,10.9,9.7z"/>
	<polygon class="st0" points="12.5,7.1 12.5,7.1 12.5,7.1 	"/>
	<path class="st0" d="M41,40.5C41,40.5,41,40.5,41,40.5c-0.1-0.3,0-0.5-0.1-0.6v0c-0.1-0.2,0-0.4-0.1-0.5c0,0-0.1-0.1-0.1-0.1
		c0.1-0.1,0.1-0.3,0-0.4c0,0,0,0,0-0.1c0,0,0,0,0-0.1c0,0,0,0,0,0c0-0.1,0-0.3-0.1-0.4c0,0-0.1-0.1-0.1-0.2c0.1-0.1,0-0.3,0-0.4
		c-0.1-0.2,0-0.4-0.1-0.5v0c-0.1-0.1,0-0.3-0.1-0.4c0,0,0-0.1,0-0.1c-0.1-0.1,0-0.3-0.1-0.4c0,0,0-0.1,0-0.1c-0.1-0.1,0-0.3-0.1-0.5
		c-0.1-0.1,0-0.2-0.1-0.2c0-0.1,0-0.1,0-0.2c0,0,0-0.1,0-0.1l0,0c0,0,0,0,0,0c0,0,0-0.1-0.1-0.1c0.1-0.1,0.1-0.2,0-0.3
		c0,0,0-0.1,0-0.1l-0.1-0.1c0-0.1,0-0.2,0-0.3c0,0,0-0.1,0-0.1c-0.1-0.1,0-0.3-0.1-0.4c0,0,0-0.1,0-0.1c0,0,0,0-0.1,0l0,0
		c0-0.1,0-0.2,0-0.3c0,0,0-0.1,0-0.1c-0.1-0.1,0-0.2-0.1-0.3c-0.2-0.1-0.4,0-0.5-0.1c-0.1,0-0.2,0-0.3,0c-0.4,0-0.8,0.1-1.1,0.2
		c-0.5,0.1-1,0.3-1.5,0.7c-0.2,0.1-0.4,0.2-0.6,0.4c-0.1,0.1-0.2,0.2-0.1,0.4c0,0.2,0.1,0.4,0.2,0.5c0.3,0.6,0.6,1.3,1,1.9
		c0,0.1,0.1,0.1,0.1,0.2c0.3,0.6,0.5,1.1,0.6,1.7c0,0.2,0,0.3,0.1,0.4c0.1,0.2,0,0.5-0.2,0.6c0,0-0.1,0.1-0.1,0.1
		c0.1,0,0.1,0,0.1-0.1c-0.1,0-0.1,0-0.1,0.1c-0.2,0-0.4,0.1-0.6,0.2c-0.3,0.1-0.7,0.2-1,0.3c0,0-0.1,0-0.1,0c-0.1,0-0.2,0-0.2,0.1
		c-0.1,0-0.2,0-0.3,0.1c-0.1,0-0.2,0-0.3,0.1c-0.6,0.2-1.1,0.5-1.5,0.9c0,0-0.1,0.1-0.1,0.1c-0.1,0-0.2,0.1-0.3,0.2
		c-0.1,0.1-0.3,0.3-0.5,0.4c-0.4,0.3-0.8,0.7-1.3,1c-0.2,0.1-0.3,0.2-0.4,0.3c-0.1,0-0.2,0.1-0.3,0.2c-0.4,0.3-1,0.5-1.5,0.5
		c-0.3,0-0.5-0.1-0.8-0.2c-0.1,0-0.3,0-0.4,0.1c-0.1,0.1-0.1,0.1-0.2,0.2c0,0-0.1,0.1-0.1,0.1c-0.1,0.1,0,0.2-0.1,0.2
		c0,0.2,0,0.5,0,0.7c0.1,0,0.1,0.1,0.1,0.2c0.1,0,0.1,0.1,0.1,0.2h0c0,0,0.1,0.1,0.1,0.1c0.1,0.1,0,0.2,0.1,0.2c0,0,0,0,0,0
		c0,0,0,0,0,0.1c0,0,0,0.1,0.1,0.1c0,0,0,0.1,0.1,0.1c0,0,0,0.1,0.1,0.1c0,0,0,0.1,0.1,0.1c0,0,0,0.1,0.1,0.1s0,0.1,0.1,0.1
		s0,0.1,0,0.1c0,0,0,0.1,0,0.1c0,0.1,0,0.1,0.1,0.2c0,0,0,0.1,0,0.1c0,0.2,0,0.3,0,0.5c0,0,0,0.1,0,0.1c0,0.1,0.1,0.3,0.1,0.5
		c0,0,0,0.1,0,0.1c0,0.1,0,0.1,0.1,0.2c0,0,0,0.1,0.1,0.1c0.1,0.1,0.1,0.2,0.2,0.3c0,0,0,0.1,0,0.1c0,0.1,0,0.1,0.1,0.2
		c0,0,0,0.1,0,0.1c0,0.1,0.1,0.1,0.2,0.2l0.1,0.1l0,0.1l0,0.1h0c0,0,0,0,0.1,0h0c0,0,0,0,0,0.1c0,0,0,0,0,0l0,0h0c0,0,0,0,0,0.1
		c0,0,0.1,0.1,0.1,0.1c0,0,0,0,0.1,0h0c0,0,0,0,0,0c0.1,0.1,0.2,0.1,0.2,0c0,0,0.1,0,0.1,0c0,0,0,0,0-0.1c0,0,0,0,0,0l0,0l0.1,0
		c0,0,0.1,0,0.1,0c0,0,0.1-0.1,0.1-0.1c0,0,0.1-0.1,0.1-0.1c0.1-0.1,0.2,0,0.2-0.1c0,0,0.1-0.1,0.1-0.1c0.1-0.1,0.2,0,0.2-0.1
		c0,0,0.1-0.1,0.1-0.1c0,0,0.1-0.1,0.1-0.1c0.1-0.2,0-0.2-0.1-0.3c0,0-0.1,0-0.1,0c-0.1-0.1-0.1-0.1-0.2,0c0,0,0,0,0,0l-0.2,0
		c0,0,0,0,0,0c0,0,0,0,0,0c-0.1,0-0.1-0.1-0.2-0.1c0,0-0.1-0.1-0.1-0.1c-0.1-0.3,0-0.6-0.1-0.9c0-0.1,0-0.1,0-0.2
		c-0.1-0.5-0.1-0.9,0-1.4c0,0,0-0.1,0-0.1c0,0,0.1,0,0.1,0c0-0.2,0.1-0.3,0.3-0.3l0,0c0.1,0,0.2,0,0.2-0.1c0.1-0.1,0.2,0,0.3-0.1
		c0.1-0.1,0.2,0,0.3-0.1h0c0,0,0-0.1,0-0.1c0.1,0.1,0.1,0.1,0.2,0c0,0,0,0,0,0l0,0h0c0.1,0,0.2,0,0.2-0.1c0.1-0.1,0.2,0,0.3-0.1
		c0.1-0.1,0.2,0,0.3-0.1c0.1-0.1,0.2,0,0.3-0.1c0.1-0.1,0.2,0,0.2-0.1l0,0h0c0.1,0,0.1,0,0.2-0.1c0,0,0.1,0,0.1,0c0,0,0,0,0,0
		c0,0,0.1,0,0.1,0c0.1,0,0.2,0,0.2-0.1c0,0,0.1,0,0.1,0c0.1,0,0.2,0,0.2-0.1c0.1-0.1,0.2,0,0.3-0.1c0,0,0,0,0-0.1
		c0.1,0,0.2,0,0.3-0.1c0.1-0.1,0.2,0,0.3-0.1c0.1-0.1,0.2,0,0.3-0.1c0.1-0.1,0.2,0,0.2-0.1l0,0h0c0.1,0,0.2,0,0.2-0.1l0,0h0
		c0.1,0,0.2,0,0.2-0.1l0,0h0c0.1,0,0.2,0,0.2-0.1c0.1-0.1,0.2,0,0.3-0.1c0.1-0.1,0.2,0,0.3-0.1c0.1-0.1,0.2,0,0.3-0.1
		c0.1-0.1,0.2,0,0.3-0.1c0.1-0.1,0.2,0,0.3-0.1c0.1-0.1,0.2,0,0.3-0.1c0.1-0.1,0.2,0,0.3-0.1l0,0h0c0.1,0,0.2,0,0.2-0.1
		c0.2-0.1,0.5,0,0.7-0.1c0,0,0-0.1,0-0.1c0,0,0,0,0,0c0,0.1,0.2,0,0.2,0.1c0.1,0.1,0.2,0.1,0.3,0l0,0h0c0.1,0,0.2,0,0.2-0.1l0,0
		c0,0,0.1-0.1,0.1-0.1c0.1-0.1,0.2,0,0.2-0.1l0,0c0.1,0,0.1-0.1,0.1-0.1l0,0c0,0,0.1-0.1,0.1-0.1l0,0c0.1,0,0.1-0.1,0.1-0.1h0
		c0.1-0.1,0.2-0.2,0.2-0.3h0c0,0,0.1-0.1,0.1-0.1l0,0c0.1-0.1,0-0.2,0.1-0.3c0-0.2,0-0.4,0-0.5c0,0,0,0,0,0
		C41,40.9,41.2,40.7,41,40.5z"/>
	<path class="st0" d="M34,22c-0.1,0.1,0,0.2-0.1,0.2c-0.1,0.1,0,0.2-0.1,0.2c-0.1,0.1-0.1,0.2-0.1,0.2c-0.1,0.1,0,0.2-0.1,0.2
		c0,0,0,0.1,0,0.1c-0.3,0.5-0.5,1-0.6,1.6c0,0.1-0.1,0.2-0.1,0.3c-0.3,0.6-0.6,1.2-0.9,1.8c-0.2,0.4-0.4,0.8-0.5,1.1
		c-0.3,0.4-0.5,0.8-0.6,1.2c-0.5,0.7-0.8,1.5-1.1,2.3c0.5-0.7,0.9-1.4,1.3-2.2c0.3-0.4,0.5-0.8,0.7-1.2c0.4-0.6,0.7-1.3,1.1-1.9
		c0.2-0.4,0.5-0.8,0.7-1.2c0.1-0.1,0-0.2,0.1-0.2c0.1-0.1,0-0.2,0.1-0.2c0.1-0.1,0-0.2,0.1-0.2c0.1-0.1,0.1-0.2,0.1-0.2
		c0,0,0-0.1,0-0.1c0.1-0.1,0-0.2,0.1-0.2c0.1-0.1,0-0.2,0.1-0.2c0.1-0.1,0-0.2,0.1-0.2c0-0.1,0-0.2,0.1-0.2c0.1-0.1,0.1-0.2,0.1-0.2
		c0.1-0.1,0-0.2,0.1-0.2c0.1-0.1,0-0.2,0.1-0.2c0,0,0.1-0.1,0.1-0.1c0,0,0.1-0.1,0.1-0.1c0.1,0,0-0.2,0.1-0.2c0,0,0.1-0.1,0.1-0.1
		c0,0,0.1-0.1,0.1-0.1c0,0,0.1-0.1,0.1-0.1c0,0,0.1-0.1,0.1-0.1c0,0,0.1-0.1,0.1-0.1c0,0,0.1-0.1,0.1-0.1c0,0,0.1-0.1,0.1-0.1
		c0,0,0.1-0.1,0.1-0.1c0.1,0,0.1-0.2,0.1-0.2c0.1-0.1,0.1-0.2,0-0.3c-0.2-0.1-0.4,0-0.5-0.1h-0.6c0,0-0.1,0.1-0.1,0.1
		c0,0-0.1,0.1-0.1,0.1h0c0,0.1,0,0.2-0.1,0.2c0,0.1,0,0.2-0.1,0.2c0,0.1,0,0.2-0.1,0.2c0,0,0,0.1,0,0.1c-0.1,0.1,0,0.2-0.1,0.2
		C34,21.8,34.1,21.9,34,22C34,22,34,22,34,22z"/>
	<path class="st0" d="M33.1,19.2C33.1,19.2,33.1,19.2,33.1,19.2c-0.1,0-0.2,0.1-0.2,0.1c-0.1,0.3-0.2,0.5-0.2,0.8
		c-0.2,1.2-0.5,2.3-1,3.5c-0.1,0.1-0.1,0.2-0.1,0.3c-0.1,0.2-0.3,0.5-0.3,0.7c-0.1,0.3-0.3,0.6-0.4,1c-0.1,0.2-0.2,0.5-0.2,0.8
		c-0.1,0-0.1,0.1-0.1,0.2c-0.1,0.4-0.2,0.9-0.4,1.3c0,0.1,0,0.2-0.1,0.3c0,0,0,0.1,0,0.1c-0.1,0.2-0.2,0.4-0.2,0.6
		c-0.1,0.2-0.1,0.4-0.1,0.7c0,0.1,0,0.1,0.1,0.1c0.1,0,0.1,0,0.1,0c0.2-0.3,0.3-0.5,0.4-0.8c0.1-0.3,0.3-0.5,0.3-0.8
		c0.1-0.1,0.1-0.2,0.1-0.3c0.2-0.3,0.3-0.5,0.3-0.8c0.1,0,0.1-0.1,0.1-0.1l0,0c0.2-0.1,0.2-0.3,0.2-0.5c0.1-0.2,0.2-0.3,0.2-0.5
		c0.2-0.3,0.3-0.7,0.3-1c0.1-0.1,0.3-0.2,0.2-0.4c0.1,0,0.1-0.1,0.1-0.2c0-0.1,0-0.2,0-0.3c0.2-0.2,0.3-0.5,0.3-0.8h0.1
		c0.1-0.1,0.1-0.2,0.1-0.2c0.2-0.3-0.2-0.6,0-1c0.1-0.1,0-0.2,0.1-0.3c0.1-0.1,0-0.2,0.1-0.2c0.1-0.1,0.1-0.2,0.1-0.2
		c0,0,0-0.1,0-0.1c0.1-0.1,0-0.2,0.1-0.2c0.1-0.1,0-0.2,0.1-0.2c0,0,0.1-0.1,0.1-0.1c0.1-0.1,0.1-0.2,0.2-0.3l0,0
		c0,0,0.1-0.1,0.1-0.1v0c0,0,0.1-0.1,0.1-0.1c0.1,0,0.1-0.1,0-0.2c0,0,0,0,0,0l-0.1-0.1c0,0-0.1-0.1-0.1-0.1c-0.1,0-0.2,0-0.2-0.1
		C33.4,19.2,33.2,19.3,33.1,19.2z"/>
	<path class="st0" d="M7.4,35L7.4,35c-0.1-0.1,0-0.2-0.1-0.2c0-0.1-0.1-0.1-0.1-0.2c-0.4-0.7-1-1.3-1.8-1.7
		c-0.2-0.1-0.5-0.2-0.7-0.3c-0.1-0.1-0.2,0-0.3-0.1c0,0-0.1,0-0.1,0c-0.1-0.1-0.2,0-0.2-0.1c0,0-0.1-0.1-0.1-0.1
		c0,0-0.1-0.1-0.1-0.1v0c-0.1-0.1-0.2-0.2-0.3-0.3c-0.1-0.1,0-0.2-0.1-0.3c0,0-0.1,0-0.1,0c0.1-0.1,0.1-0.2,0-0.3l0,0
		c-0.1-0.1,0-0.2-0.1-0.2c0,0,0-0.1,0-0.1c0-0.1,0-0.2-0.1-0.2c0,0,0-0.1,0-0.1c-0.1-0.1,0-0.3-0.1-0.4c0,0,0-0.1,0-0.1
		c-0.1-0.2,0-0.5-0.1-0.8c0,0,0-0.1,0-0.1c-0.1-0.1,0-0.3-0.1-0.4c0,0,0-0.1,0-0.1c0-0.1,0-0.2-0.1-0.2c-0.1-0.1,0-0.2-0.1-0.2
		c0,0-0.1-0.1-0.1-0.1l0,0C2.3,28,2.2,27.9,2,27.8c0,0-0.1-0.1-0.1-0.1v0c-0.1-0.1-0.2,0-0.2-0.1c0,0-0.1-0.1-0.1-0.1l0,0
		c0-0.1-0.1-0.1-0.2-0.1c0,0,0,0,0-0.1c-0.1-0.1-0.2,0-0.3-0.1c0,0-0.1,0-0.1,0H0.3c-0.1,0.1-0.2,0-0.2,0.1c0,0,0,0,0,0
		c0,0,0,0.1,0,0.1h0c0,0,0.1,0.1,0.1,0.1c0.1,0.1,0.2,0,0.2,0.1c0.1,0.1,0.2,0,0.2,0.1c0,0,0.1,0.1,0.1,0.1c0,0,0.1,0.1,0.1,0.1
		c0,0,0.1,0.1,0.1,0.1c0,0,0,0,0.1,0c0,0,0,0.1,0,0.1h0c0,0,0.1,0.1,0.1,0.1c0.1,0.1,0,0.2,0.1,0.2v0c0.1,0.1,0,0.2,0.1,0.2v0
		c0.1,0.1,0,0.2,0.1,0.2c0.1,0.1,0,0.2,0.1,0.3c0.1,0.1,0,0.2,0.1,0.3c0,0,0,0.1,0,0.1c0.1,0.1,0,0.3,0.1,0.4c0.1,0.2,0,0.4,0.1,0.5
		c0.1,0.2,0,0.4,0.1,0.5c0,0,0,0.1,0,0.1c0,0.1,0,0.1,0.1,0h0c0,0,0,0,0,0c0,0.1,0,0.3,0.1,0.4c0,0,0,0.1,0,0.1
		c0.1,0.1,0,0.2,0.1,0.3c0.1,0.1,0,0.2,0.1,0.3c0,0,0,0.1,0,0.1c0,0.1,0,0.2,0.1,0.2s0,0.2,0.1,0.2c0.1,0.1,0,0.2,0.1,0.2
		c0.1,0.1,0.1,0.2,0.2,0.3h0c0,0,0.1,0.1,0.1,0.1c0,0,0.1,0.1,0.1,0.1c0,0,0.1,0.1,0.1,0.1c0,0,0.1,0.1,0.1,0.1v0
		c0,0.1,0.2,0.1,0.2,0.1c0.1,0.1,0.2,0,0.2,0.1c0.1,0.1,0.2,0,0.2,0.1h0c0.1,0.1,0.3,0,0.4,0.1h0l0,0c0.3,0,0.5-0.1,0.8,0.1
		c0.1,0.1,0.2,0,0.3,0.1c0.1,0.1,0.2,0,0.3,0.1c0.1,0.1,0.2,0,0.2,0.1c0.1,0.1,0.2,0.1,0.2,0.1v0c0.1,0.1,0.2,0.1,0.2,0.1
		c0,0,0.1,0,0.1,0c0,0,0.1,0.1,0.1,0.1c0,0,0.1,0,0.1,0c0.1,0.1,0.2,0,0.2,0.1c0,0,0.1,0.1,0.1,0.1c0,0,0.1,0,0.1,0
		c0.1,0.1,0.2,0.1,0.2-0.1C7.4,35.2,7.5,35.1,7.4,35L7.4,35z"/>
	<path class="st0" d="M9.9,32.7c0.1,0.1,0.3,0.2,0.4,0.3c0-0.2-0.1-0.4-0.3-0.4c-0.1-0.1-0.2-0.2-0.4-0.3c-0.5-0.4-1.1-0.7-1.8-0.8
		c-0.1-0.1-0.3-0.1-0.4-0.1c-0.3,0-0.5-0.1-0.8-0.2c-0.1,0-0.3-0.1-0.3-0.3c0-0.1,0-0.1,0-0.2c0.1-0.3,0.5-0.4,0.7-0.2
		c0.1,0.1,0.2,0.2,0.4,0.2C7.6,30.9,7.8,31,7.9,31c0.5,0.1,0.9,0.2,1.4,0.3c0.1,0.1,0.3,0.2,0.4,0.2c0.7,0.3,1.1,0.9,1.3,1.6
		c0,0,0,0.1,0,0.1c0,0,0.1,0,0.1,0c0.1-0.2,0.1-0.4,0.1-0.6c0.1-0.8-0.2-1.6-0.7-2.3c-0.1-0.2-0.2-0.3-0.4-0.4
		c-0.1-0.1-0.2-0.2-0.3-0.2c-0.1-0.1-0.3-0.2-0.5-0.2c-0.1-0.1-0.3-0.1-0.4-0.1l-1.2,0c-0.1-0.1-0.3,0-0.5-0.2c-0.1,0-0.2,0-0.2-0.1
		C7,29,6.8,28.9,6.7,28.7c-0.1-0.1-0.2-0.2-0.2-0.3c0-0.1-0.1-0.3-0.2-0.3c0,0-0.1-0.1-0.1-0.1L6,27.9c-0.2-0.2-0.4-0.4-0.6-0.5
		c-0.1-0.1-0.2-0.2-0.3-0.2c-0.3-0.2-0.6-0.4-1-0.5c-0.6-0.3-1.1-0.7-1.5-1.2c0-0.3-0.2-0.5-0.2-0.7c-0.1-0.4-0.1-0.8-0.1-1.3
		c0,0,0.1-0.1,0.1-0.1c0.1-0.6,0.3-1.1,0.6-1.6c0.2-0.2,0.3-0.4,0.5-0.6c0,0,0.1-0.1,0.1-0.1c0.3-0.3,0.7-0.6,1.1-0.7
		c0.1,0,0.1-0.1,0.2-0.2L4.7,20c-0.1,0-0.2-0.1-0.4-0.1c-0.3-0.1-0.6-0.1-0.8,0.1c-0.2,0-0.3,0.1-0.4,0.2c-0.2,0.1-0.2,0-0.2-0.2
		c0.3-0.4,0.6-0.7,1-1c0.3-0.2,0.7-0.3,1.1-0.3c0-0.1-0.1-0.1-0.1-0.2c-0.1,0-0.2,0-0.3-0.1l-0.3,0c0,0,0-0.1,0-0.1l-0.2,0l-1,0
		c0,0-0.1,0-0.1,0c-0.1,0-0.2,0-0.2,0.1c0,0-0.1,0-0.1,0c0,0-0.1,0.1-0.1,0.1c-0.1,0.1-0.2,0-0.2,0.1c0,0,0,0.1,0,0.1c0,0,0,0-0.1,0
		c0,0-0.1,0-0.1,0c0,0-0.1,0.1-0.1,0.1l-0.1,0.1L1.7,19c0,0,0,0.1,0,0.1l-0.1,0l-0.1,0.1c0,0.1-0.1,0.2-0.2,0.3l-0.1,0.1
		c0,0-0.1,0.1-0.1,0.1C1.1,19.8,1,19.9,1,20l-0.1,0.1c0,0.1,0,0.2-0.1,0.2c0,0.1,0,0.2-0.1,0.2c0,0,0,0.1,0,0.1c0,0-0.1,0-0.1,0.1
		c0,0,0,0,0,0l0,0c0,0.1,0,0.2-0.1,0.2l0,0.1c0,0-0.1,0.1-0.1,0.2v0c-0.1,0.1,0,0.2-0.1,0.3c-0.1,0.1,0,0.3-0.1,0.4
		C0,22,0.1,22.1,0,22.2c0,0,0,0.1,0,0.1c0,0.4,0,0.9,0,1.3c0,0.2,0,0.4,0,0.6c0,0,0,0.1,0,0.1c0,0,0.1,0,0.1,0c0,0.1,0,0.3,0,0.4
		c0.1,0.1,0.1,0.2,0.1,0.3c0.1,0.1,0.1,0.1,0.1,0.2c0.1,0.1,0.1,0.2,0.1,0.3c0.1,0.1,0.1,0.1,0.1,0.2C0.6,25.9,0.7,26,0.7,26
		c0,0,0.1,0.1,0.1,0.1c0.1,0,0.1,0.1,0.1,0.2L1,26.5c0.1,0,0.1,0.1,0.1,0.2l0.1,0.1c0.1,0,0.2,0,0.3,0.1c0.1,0,0.2,0,0.3,0.1L2,27
		c0,0,0,0.1,0.1,0.1c0.1,0.1,0.2,0,0.2,0.1c0,0,0.1,0.1,0.1,0.1l0,0c0.1,0.1,0.2,0.1,0.3,0.2c0,0,0.1,0.1,0.1,0.1l0,0
		c0.1,0,0,0.2,0.1,0.2l0,0c0,0,0.1,0.1,0.1,0.1c0.1,0.1,0,0.2,0.1,0.2c0.1,0.1,0,0.2,0.1,0.3c0,0,0,0.1,0,0.1c0.1,0.1,0,0.3,0.1,0.3
		c0.1,0.1,0,0.2,0.1,0.3c0.1,0.1,0,0.2,0.1,0.3c0,0,0,0.1,0,0.1c0.1,0.1,0,0.2,0.1,0.3c0.1,0.1,0,0.2,0.1,0.3c0.1,0.1,0,0.2,0.1,0.3
		c0.1,0.1,0,0.2,0.1,0.2c0.1,0.1,0,0.2,0.1,0.3c0.1,0.1,0,0.2,0.1,0.2c0.1,0.1,0,0.2,0.1,0.2v0c0.1,0.1,0.1,0.2,0.2,0.3l0,0
		c0,0,0.1,0.1,0.1,0.1c0,0,0.1,0.1,0.1,0.1c0.2,0.1,0.3,0.3,0.5,0.2c0,0,0.1,0,0.1,0c0.1,0.1,0.1,0.1,0.2,0.1c0.2,0,0.4,0,0.6-0.1
		c0.5-0.1,0.9-0.2,1.4-0.2c0.4,0,0.8,0,1.3,0C9.3,32.4,9.6,32.5,9.9,32.7z"/>
	<path class="st0" d="M10.4,33.1L10.4,33.1C10.4,33,10.4,33.1,10.4,33.1C10.4,33.1,10.4,33.1,10.4,33.1z"/>
	<rect x="10.4" y="33" transform="matrix(0.3843 -0.9232 0.9232 0.3843 -24.1052 29.9118)" class="st0" width="0" height="0"/>
	<path class="st0" d="M13.5,40.7C13.5,40.7,13.5,40.7,13.5,40.7c0-0.1-0.1-0.2-0.1-0.2l0,0c0,0,0-0.1,0-0.1c0-0.1,0-0.2,0-0.3
		c0,0-0.1,0-0.1,0c0-0.1,0-0.2,0-0.3c-0.1-0.1-0.1-0.2-0.1-0.3c0,0-0.1,0-0.1,0c0,0,0,0,0,0c0-0.1,0-0.2-0.1-0.3v0
		c0-0.1,0-0.2-0.1-0.2c-0.1-0.1,0-0.2-0.1-0.2c-0.1-0.1,0-0.2-0.1-0.2c-0.1-0.1,0-0.2-0.1-0.2c0,0,0-0.1-0.1-0.1c0,0,0,0,0-0.1
		c0,0,0,0,0-0.1l-0.1,0l0,0c0,0,0,0,0,0c0,0,0-0.1,0-0.1l-0.1-0.1L12,37.3c-0.1-0.1-0.2-0.3-0.3-0.4c0,0,0-0.1,0-0.1
		c-0.2-0.3-0.5-0.5-0.6-0.9l-0.2-0.1c-0.1-0.2-0.3-0.4-0.5-0.5c-0.3-0.4-0.7-0.7-1.1-1c-0.2-0.1-0.3-0.2-0.5-0.3
		c-0.2-0.1-0.4-0.2-0.6-0.2c-0.1,0-0.3,0.1-0.3,0.3c0,0.2,0,0.5,0.1,0.7C7.9,35,8,35,8.2,35h0l0,0c0.1,0.1,0.2,0,0.2,0.1
		c0,0,0.1,0.1,0.1,0c0,0,0.1,0,0.1,0.1h0c0,0,0.1,0.1,0.2,0.1c0,0,0,0,0,0v0h0c0,0,0.1,0,0.1,0.1h0c0,0,0,0,0,0
		c0.1,0,0.2,0.1,0.2,0.1l0.1,0.1l0.2,0.1c0,0,0,0,0,0c0,0.1,0.1,0.2,0.2,0.2c0,0,0.1,0,0.1,0c0,0,0,0,0,0c0,0,0,0,0,0.1
		c0,0,0.1,0.1,0.1,0.1c0,0,0.1,0.1,0.1,0.1c0,0,0,0,0.1,0v0c0,0,0,0.1,0,0.1c0,0,0.1,0.1,0.1,0.1l0,0c0.1,0.1,0.2,0.3,0.3,0.4l0,0
		c0,0,0.1,0.1,0.1,0.1l0,0c0,0,0.1,0.1,0.1,0.1c0,0,0.1,0,0.1,0l0.1,0.3l0.1,0.1c0.1,0.1,0.2,0.2,0.2,0.3c0,0,0.1,0,0.1,0
		c0,0,0,0.1,0,0.1c0.1,0,0.1,0.1,0.1,0.2c0,0,0,0,0,0c0,0,0,0,0.1,0.1c0,0,0,0,0,0.1c0,0,0,0,0,0c0,0,0,0.1,0.1,0.1c0,0,0,0.1,0,0.1
		l0,0c0,0,0,0,0,0c0,0,0,0,0,0c0,0,0,0.1,0,0.1c0,0,0.1,0.1,0.1,0.1c0,0,0,0,0.1,0c0,0.1,0,0.1,0,0.2c0.1,0.1,0,0.2,0.1,0.2v0
		c0,0.1,0,0.2,0.1,0.2c0.1,0.1,0,0.2,0.1,0.3l0,0c0.1,0.1,0,0.2,0.1,0.2c0,0,0,0.1,0,0.1c0.1,0.1,0,0.2,0.1,0.3
		c0.1,0.1,0,0.2,0.1,0.3c0,0,0,0.1,0,0.1c0.1,0.1,0,0.3,0.1,0.5c0.1,0.2,0.1,0.4,0.1,0.5l0,0c0,0-0.1,0-0.1,0.1
		c0,0.1-0.1,0.2-0.1,0.3c0,0.2,0,0.3,0.1,0.5c0,0,0,0.1,0,0.1c0.1,0.1-0.1,0.4,0.2,0.4v0c0.1-0.1,0.1-0.2,0.1-0.2c0,0,0-0.1,0-0.1
		c0-0.1,0-0.2,0.1-0.2c0,0,0-0.1,0-0.1c0-0.1,0.1-0.2,0-0.3c0,0,0,0,0,0c0,0,0.1,0,0.1,0l0-0.2l0-0.1c0-0.1,0-0.1,0.1-0.2
		C13.6,41.4,13.5,41.1,13.5,40.7z"/>
	<path class="st0" d="M19.2,48.6c0.1-0.1,0.2,0,0.3-0.1l0,0h0.1c0-0.1,0.3,0,0.2-0.2c-0.1-0.1-0.2,0-0.3-0.1c0,0-0.1,0-0.1,0
		c-0.1-0.1-0.2,0-0.2-0.1c0,0-0.1,0-0.1,0c0,0-0.1-0.1-0.1-0.1c0,0-0.1,0-0.1,0c-0.1-0.1-0.2,0-0.2-0.1c-0.1-0.1-0.3-0.1-0.4-0.2
		c-0.1,0-0.2,0-0.2-0.1c-0.1-0.1-0.3-0.1-0.4-0.2l-0.1-0.1c-0.1,0-0.2,0-0.2-0.1L17.2,47c-0.1,0-0.2,0-0.2-0.1
		c-0.1,0-0.2-0.1-0.2-0.2c0,0-0.1-0.1-0.1-0.1c-0.4-0.2-0.8-0.5-1-1l-0.1-0.1c-0.1,0-0.1-0.1-0.1-0.2c-0.1-0.1-0.1-0.2-0.1-0.3
		c0,0-0.1,0-0.1,0c0-0.1,0-0.2,0-0.4c0-0.1,0-0.2-0.1-0.3c0,0,0-0.1,0-0.1c0-0.1,0-0.1,0-0.2c0.1-0.1,0.1-0.2,0.1-0.3
		c0-0.1,0-0.2,0.1-0.3c0-0.1,0.1-0.3,0.1-0.4c0.1,0,0.1-0.1,0.1-0.1c0,0,0.1,0,0.1,0c0-0.2,0.2-0.3,0.2-0.4l0.2,0c0,0,0-0.1,0-0.1h0
		c0,0,0.1,0,0.1,0c0,0,0-0.1,0-0.1c0,0,0.1,0,0.1,0c0,0,0.1-0.1,0.1-0.1l0.1-0.1l0.1-0.1c0,0,0-0.1,0-0.1c0,0,0.1-0.1,0.1-0.1
		l0.5-0.5c0,0,0.1-0.1,0.1-0.1c0-0.1,0-0.1,0-0.2c0-0.1,0-0.1,0.1-0.1c0.1-0.1,0.1-0.1,0.2-0.2c0-0.1,0-0.1,0-0.2
		c0,0,0.1-0.1,0.1-0.1c0-0.1,0-0.2,0.1-0.3c0-0.2,0-0.4,0-0.6c0.1-0.4,0-0.8-0.1-1.1c0-0.1-0.1-0.3-0.1-0.4c0,0-0.1-0.1-0.1-0.1
		c0,0-0.1,0-0.1,0c-0.1-0.1-0.2-0.2-0.2-0.4c-0.2-0.1-0.3-0.3-0.4-0.4c0,0-0.1,0-0.1,0c0,0,0-0.1,0-0.1c-0.1,0-0.2-0.1-0.2-0.2
		c-0.1,0-0.2-0.1-0.3-0.2c-0.4-0.4-0.9-0.6-1.5-0.7l-0.3-0.2c-0.1,0-0.2,0-0.3-0.1c-0.2,0-0.2,0-0.2-0.3l0.1,0c0-0.1,0-0.2,0.1-0.2
		c0-0.1,0-0.2,0.1-0.2c0-0.1,0.1-0.2,0.1-0.2c0-0.1,0-0.1,0.1-0.1c0,0,0-0.1,0-0.1c0,0,0.1,0,0.1,0c0-0.1,0.1-0.1,0.1-0.1
		c0-0.1,0.1-0.1,0.2-0.1c0,0,0-0.1,0-0.1c0.3,0,0.5-0.1,0.8,0.1c0.1,0,0.1,0,0.2,0c0,0,0,0.1,0,0.1c0.2,0,0.3,0.2,0.4,0.2
		c0,0,0,0.1,0,0.1c0.1,0,0.1,0,0.1,0.1c0.1,0,0.1,0.1,0.1,0.1l0.1,0.1l0.3,0.2c0,0.1,0.1,0.2,0.1,0.3c0,0,0.1,0.1,0.1,0.1l0.1,0
		c0,0.1,0,0.1,0,0.2c0,0,0.1,0.1,0.1,0.1c0,0,0.1,0,0.1,0c0,0.1,0,0.1,0,0.2c0,0,0.1,0.1,0.1,0.1c0.1,0,0.1,0.1,0.1,0.2
		c0.1,0,0.1,0.1,0.1,0.2l0.1,0c0,0.1,0,0.1,0,0.2c0.1,0.2,0.2,0.3,0.3,0.5c0,0.1,0,0.1,0,0.2c0.1,0.1,0.1,0.3,0.2,0.4l0.1,0
		c0,0.1,0,0.2,0,0.3c0.1,0.1,0.1,0.2,0.1,0.3c0.1,0.1,0.1,0.2,0.1,0.3c0,0,0.1,0,0.1,0c0,0,0,0.1,0,0.1c0,0.1,0,0.1,0,0.2
		c0,0,0,0.1,0,0.1l0.1,0c0,0.2,0,0.4,0,0.6c-0.1,0.1,0,0.3-0.1,0.4c0,0.1,0,0.1,0,0.2l-0.1,0.1c0,0.1,0,0.2-0.1,0.2
		c0,0.1,0,0.1,0,0.2c-0.1,0.2-0.2,0.4-0.3,0.6c0,0-0.1,0-0.1,0.1c0,0,0,0,0,0c0,0,0,0,0,0c0,0-0.1,0-0.1,0.1c0,0,0,0.1,0,0.1L18,42
		c-0.1,0.1-0.1,0.1-0.1,0.2c0,0,0,0-0.1,0c0,0-0.1,0.1-0.1,0.1c0,0.1,0,0.1,0,0.2c0,0-0.1,0-0.1,0c0,0-0.1,0.1-0.1,0.1
		c0,0,0,0.1,0,0.1c0,0-0.1,0.1-0.1,0.1h0c0,0-0.1,0.1,0,0.1l0,0l-0.1,0.1c0,0.1,0,0.2-0.1,0.2c0,0.1,0,0.2-0.1,0.2
		c0,0.1,0,0.2-0.1,0.2c0,0.1,0,0.2-0.1,0.3c0,0.1,0,0.2,0,0.3c0,0-0.1,0-0.1,0v0.5c0.1,0.1,0,0.3,0.1,0.4c0.1,0.1,0,0.2,0.1,0.3
		c0.1,0.1,0,0.2,0.1,0.2c0.1,0.1,0,0.2,0.1,0.2c0,0,0.1,0.1,0.1,0.1c0,0,0.1,0.1,0.1,0.1c0,0,0.1,0.1,0.1,0.1c0.1,0.1,0.2,0,0.2,0.1
		c0.1,0.1,0.2,0,0.3,0.1h0l0,0c0,0,0.1,0.1,0.1,0c0,0,0,0,0,0c0.1-0.1,0-0.2,0-0.3c-0.1-0.1-0.2-0.3-0.3-0.4
		c-0.3-0.5-0.4-1.2-0.2-1.8c0.1,0,0.1-0.1,0.1-0.2c0.2-0.3,0.5-0.7,0.8-0.9l0.3-0.1l0.1-0.1l0.6-0.6c0.2-0.1,0.4-0.3,0.5-0.6
		c0.2-0.2,0.4-0.5,0.5-0.8c0.2-0.4,0.3-0.8,0.3-1.2c0.1-0.3,0.1-0.7,0-1c0-0.3-0.1-0.6-0.1-0.9c-0.1-0.1-0.1-0.2-0.1-0.3l-0.2-0.3
		c0-0.1,0-0.1,0-0.2c0,0-0.1,0-0.1,0c0-0.1-0.1-0.3-0.1-0.4c-0.1-0.1-0.1-0.1-0.1-0.2l-0.1,0c0-0.1,0-0.2-0.1-0.2
		c-0.2-0.5-0.5-0.9-0.9-1.3c-0.2-0.4-0.5-0.8-0.9-1.1c-0.3-0.3-0.6-0.7-0.9-1.1c-0.3-0.3-0.5-0.5-0.7-0.9c-0.1,0-0.1-0.1-0.1-0.1
		c-0.3-0.1-0.4-0.4-0.6-0.6l0,0c0-0.1-0.1-0.1-0.1-0.1c-0.1-0.2-0.3-0.4-0.5-0.5c-0.2-0.2-0.4-0.5-0.7-0.6h0c0,0,0-0.1-0.1-0.1
		c0,0,0,0,0,0c0,0,0,0-0.1,0c0-0.1-0.1-0.1-0.1-0.1c0-0.1-0.1-0.1-0.1-0.1c-0.2-0.2-0.5-0.3-0.7-0.4c-0.5-0.3-1-0.4-1.6-0.4
		c-0.6-0.1-1.3-0.1-2,0c0.2,0.1,0.3,0.2,0.5,0.2c0.1,0,0.2,0,0.2,0.1c0.2,0.1,0.4,0.2,0.5,0.3c0.2,0.1,0.3,0.2,0.4,0.4
		c0,0.1,0,0.1,0.1,0.1c0.2,0.3,0.3,0.5,0.5,0.8c0.1,0.1,0.1,0.1,0.1,0.2c0.1,0.2,0.2,0.3,0.2,0.5l0.1,0c0,0.1,0,0.1,0,0.2
		c0.3,0.9,0.3,1.9,0.2,2.8c0,0,0,0,0,0.1l-0.2,0.2c0,0.1-0.1,0.2-0.2,0.2c0,0,0,0.1,0,0.1l-0.3,0c0,0-0.1-0.1-0.1-0.1
		c-0.3-0.1-0.5-0.4-0.8-0.5c-0.2-0.2-0.5-0.3-0.8-0.4c-0.1-0.1-0.3-0.1-0.5-0.1c-0.1,0-0.1,0-0.2,0c-0.1,0-0.1,0.1-0.2,0.2
		c0,0.1,0,0.2,0.1,0.2c0,0,0,0,0,0c0.3,0.1,0.5,0.3,0.7,0.5c0.1,0.1,0.2,0.2,0.3,0.3c0.2,0.3,0.4,0.6,0.6,1c0.2,0.5,0.5,0.9,0.9,1.2
		c0,0,0,0,0.1,0c0,0.1,0.1,0.1,0.2,0.2c0.1,0.1,0.2,0.2,0.3,0.3c0,0,0.1,0.1,0.1,0.1L13,38c0,0,0.1,0,0.1,0c0,0,0,0.1,0,0.1l0.1,0.1
		c0.1,0,0.2,0.1,0.2,0.1c0.1,0,0.2,0,0.2,0.1l0.1,0c0,0,0,0.1,0,0.1l0.2,0c0,0,0,0.1,0,0.1c0.1,0,0.1,0,0.1,0.1
		c0.1,0,0.1,0.1,0.1,0.1c0.1,0,0.1,0.1,0.1,0.1c0.1,0,0.1,0.1,0.1,0.2c0,0,0.1,0,0.1,0c0,0.1,0,0.1,0,0.2c0.1,0.1,0.1,0.2,0.1,0.3
		c0.1,0.1,0.1,0.1,0.1,0.2c0,0,0,0.1,0,0.1s0,0.1,0,0.1l0,0c0,0,0,0-0.1,0c0,0.3,0,0.7-0.1,1v0c-0.1,0.1-0.1,0.2-0.1,0.4
		c0,0,0,0,0,0.1h0v0c0,0-0.1,0-0.1,0c0,0,0,0.1,0,0.1c-0.1,0.1,0,0.2-0.1,0.3c0,0,0,0.1,0,0.1c-0.1,0.1,0,0.2,0,0.3l0,0l0,0
		c0,0,0,0.1,0,0.1c-0.1,0.1,0,0.2-0.1,0.3c0,0,0,0.1,0,0.1c-0.1,0.1,0,0.2-0.1,0.3c0,0,0,0.1,0,0.1c-0.1,0.1,0,0.2-0.1,0.3
		c0,0,0,0.1,0,0.1c-0.1,0.1,0,0.3-0.1,0.4c0,0,0,0,0,0c0,0,0,0-0.1,0c0,0.1,0,0.1,0,0.2c0,0.1,0,0.3,0,0.4c0,0.1,0,0.1,0,0.2
		c0,0.1,0,0.3,0,0.4l0,0.2c0.1,0.1,0,0.2,0.1,0.2c0,0,0,0.1,0,0.1c0,0,0.1,0.1,0.1,0.1c0,0,0,0.1,0,0.1c0,0,0.1,0.1,0.1,0.1
		c0,0,0.1,0.1,0.1,0.1c0,0,0,0.1,0,0.1c0,0,0.1,0.1,0.1,0.1c0,0,0.1,0.1,0.1,0.1c0,0,0.1,0.1,0.1,0.1c0,0,0.1,0.1,0.1,0.1
		c0,0,0.1,0.1,0.1,0.1h0c0,0,0.1,0.1,0.1,0.1l0,0c0,0,0.1,0.1,0.1,0.1l0,0c0,0,0.1,0.1,0.1,0.1c0,0,0.1,0.1,0.1,0.1
		c0,0,0.1,0.1,0.1,0.1c0,0,0.1,0.1,0.1,0.1c0,0,0.1,0,0.1,0c0,0,0.1,0.1,0.1,0.1c0,0,0.1,0.1,0.1,0.1c0.1,0.1,0.2,0,0.2,0.1
		c0.1,0.1,0.2,0,0.2,0.1c0.1,0.1,0.2,0,0.2,0.1c0.1,0.1,0.2,0,0.2,0.1c0,0,0.1,0,0.1,0c0.1,0.1,0.2,0,0.3,0.1c0.1,0.1,0.3,0,0.4,0.1
		h0h0l1.5,0L19.2,48.6z"/>
	<path class="st0" d="M3.8,16.2L3.8,16.2C3.9,16.3,3.9,16.3,3.8,16.2L3.8,16.2L4,16.4c0,0,0,0,0.1,0v0c0,0,0,0,0,0.1
		c0,0,0,0.1,0.1,0.1c0,0,0,0,0,0c0,0,0.1,0.1,0.1,0.1c0,0,0,0.1,0.1,0.1c0,0,0,0.1,0.1,0.1c0,0,0,0.1,0.1,0.1c0,0,0.1,0,0.1,0
		c0,0,0.1,0.1,0.1,0.1c0,0,0.1,0,0.1,0c0,0,0,0,0,0.1l0.1,0.1l0.1,0.1l0,0c0,0,0,0.1,0,0.1C5,17.6,5,17.6,5,17.6v0c0,0,0,0,0.1,0
		c0,0,0,0.1,0,0.1c0,0,0.1,0.1,0.1,0.1c0,0,0,0.1,0,0.1c0,0,0.1,0.1,0.1,0.1c0,0,0.1,0.1,0.1,0.1c0.1,0.1,0.2,0.2,0.3,0.3
		c0.1,0.1,0.1,0.3,0.3,0.4c0,0.1,0.1,0.2,0.2,0.2c0.1,0.1,0.2,0.3,0.3,0.4c0.2,0.5,0.5,0.9,0.9,1.4c0.1,0.2,0.2,0.4,0.3,0.6
		c0.4,0.7,0.7,1.4,0.9,2.1c0,0.1,0.1,0.1,0.2,0c0.4-0.2,0.8-0.6,0.9-1.1c0.1-0.4,0.2-0.7,0.2-1.1c0.1-0.1,0.1-0.1,0.1-0.2
		c0-0.1,0-0.1,0-0.2c0.1-0.1,0.1-0.1,0.1-0.2c0.1-0.2,0.2-0.4,0.3-0.5c0,0,0,0,0,0c0,0,0.1,0,0.1,0c0.1,0,0.1,0.1,0.1,0.2
		c-0.1,0.2-0.1,0.3-0.2,0.5c-0.1,0.2-0.1,0.5,0,0.7c0,0.2,0.2,0.3,0.4,0.2c0,0,0.1,0,0.1-0.1c0.1-0.1,0.2-0.2,0.3-0.3
		c0.1-0.2,0.1-0.4,0.2-0.6c0.4-0.3,0.6-0.3,0.9,0c0.1,0.1,0.2,0.1,0.2,0.2c0,0.1,0.1,0.2,0.2,0.2c0.2,0.3,0.4,0.5,0.7,0.6
		c0,0.1,0.1,0.1,0.2,0.1c0.3,0.2,0.6,0.3,1,0.2c0.1,0.1,0.3,0.1,0.4,0l0.2,0l0.1,0c0.1,0,0.1,0,0.2,0c0.1,0,0.2,0,0.3-0.1
		c0.2,0,0.4,0,0.5-0.1c0.6-0.3,1.2-0.8,1.6-1.4c0.3-0.3,0.6-0.7,0.7-1.1c0.1-0.4,0.1-0.8,0-1.2c0,0,0-0.1-0.1-0.1
		c0-0.1,0-0.2-0.1-0.2c0-0.1,0.1-0.2,0.2-0.3c0.3-0.2,0.6-0.5,0.9-0.9c0.4-0.4,0.6-1,0.7-1.6c0-0.1,0.1-0.1,0.1-0.2
		c0-0.5,0-1-0.1-1.5c0-0.2-0.1-0.4-0.2-0.5c0-0.1,0-0.2-0.1-0.2v0c0-0.2-0.1-0.3-0.2-0.4c0-0.1,0-0.2-0.1-0.2c0-0.1,0-0.2-0.1-0.2
		c0-0.1,0-0.1-0.1-0.1c0,0,0-0.1,0-0.1c-0.1-0.3-0.3-0.5-0.5-0.8c-0.2-0.4-0.4-0.7-0.7-1c-0.2-0.3-0.5-0.6-0.8-0.8
		c-0.1-0.1-0.2-0.2-0.4-0.2c-0.2-0.1-0.4-0.2-0.6-0.3c0,0-0.1,0-0.1,0c0-0.1-0.1-0.1-0.2-0.1c-0.7-0.3-1.4-0.4-2.1-0.1
		c-0.1,0-0.2,0-0.3,0.1c-0.2,0-0.5,0.2-0.7,0.3c-0.3,0.1-0.6,0.3-0.8,0.5c-0.1,0-0.2,0.1-0.2,0.2h0c0,0-0.1,0-0.1,0
		c0,0.1-0.2,0.2-0.3,0.2c0,0.1-0.1,0.2-0.2,0.2c0,0-0.1,0.1-0.1,0.1l-0.1,0.1L11,10.6l0,0c-0.1,0,0,0.2-0.1,0.2l0,0c0,0,0,0.1,0,0.1
		l-0.1,0c0,0-0.1,0.1-0.1,0.1c0,0.1-0.1,0.3-0.2,0.3c0,0-0.1,0-0.1,0c-0.1,0.1,0,0.2-0.1,0.2c0,0-0.1,0.1-0.1,0.1
		c-0.1,0.1,0,0.2-0.1,0.2c0,0-0.1,0.1-0.1,0.1c0,0-0.1,0.1-0.1,0.1c-0.1,0.1,0,0.2-0.1,0.2c0,0-0.1,0.1-0.1,0.1c0,0-0.1,0.1-0.1,0.1
		c0,0,0,0.1,0,0.1c0,0,0,0,0,0s0,0,0,0c0,0-0.1,0-0.1,0c0,0.1,0,0.2-0.1,0.2c0,0,0,0.1,0,0.1c0,0-0.1,0-0.1,0c0,0,0,0.1,0,0.1
		c0,0,0,0.1,0,0.1c0,0-0.1,0-0.1,0c0,0-0.1,0.1-0.1,0.1l0,0.2c0,0,0,0,0,0l0,0c0,0,0,0-0.1,0c0,0,0,0,0,0.1l0,0c0,0-0.1,0.1-0.1,0.1
		v0c0,0-0.1,0.1-0.1,0.1c0,0,0,0.1,0,0.1c0,0,0,0.1,0,0.1c0,0,0,0-0.1,0c0,0.1,0,0.2-0.1,0.2c0,0.1,0,0.1,0,0.2c0,0-0.1,0-0.1,0
		c0,0.1,0,0.2-0.1,0.2c0,0.1,0,0.2-0.1,0.2c0,0,0,0.1,0,0.1c0,0-0.1,0-0.1,0c0,0,0,0,0,0c0,0,0,0.1,0,0.1c0,0-0.1,0.1-0.1,0.1
		c-0.1,0.1-0.2,0-0.2,0.1l0,0c0,0-0.1,0.1-0.1,0.1c0,0-0.1,0-0.1,0c-0.1,0-0.1,0.1-0.1,0.1c0,0-0.1-0.1-0.1,0c0,0-0.1,0-0.1,0
		c-0.3,0.1-0.7,0.1-1,0c0,0-0.1,0-0.1,0c0,0-0.1,0-0.2,0c-0.1,0-0.2,0-0.3-0.1c0,0-0.1,0-0.1,0c-0.1,0-0.3,0-0.4,0c0,0,0-0.1,0-0.1
		H4.7c0,0-0.1,0-0.1,0.1l0,0l-0.3,0c-0.1,0.1-0.2,0-0.2,0.1c0,0-0.1,0-0.1,0c-0.1,0-0.1,0.1-0.1,0.1c-0.1,0.1-0.4,0.2-0.1,0.5
		C3.8,16.2,3.8,16.2,3.8,16.2z"/>
	<path class="st0" d="M25.2,46.6c0,0,0-0.1,0-0.1c-0.1-0.1,0-0.3-0.1-0.4c-0.1-0.1,0-0.3-0.1-0.4c-0.1-0.1,0-0.3-0.1-0.4
		c-0.1-0.1,0-0.3-0.1-0.4c0,0,0-0.1,0-0.1c-0.1-0.1,0-0.3-0.1-0.3c-0.1-0.4-0.3-0.9-0.4-1.3c-0.1-0.2-0.2-0.5-0.2-0.7
		c0,0-0.1,0-0.1,0c0-0.1,0-0.1,0-0.2c-0.2-0.4-0.4-0.9-0.7-1.3c-0.1-0.2-0.3-0.4-0.5-0.5c-0.1-0.1-0.3-0.2-0.4-0.1
		c-0.2,0.1-0.1,0.3,0,0.4c0,0.1,0,0.1,0.1,0.2c0.1,0.4,0.1,0.7,0.1,1.1c0,0.2,0,0.4,0,0.6c0,0,0,0.1,0,0.1l-0.4,0.7l-0.3,0.2
		c-0.1,0-0.2,0-0.2,0.1c-0.4,0.1-0.8,0.2-1.2,0.2c0,0-0.1,0-0.1,0.1l-0.2,0c-0.3,0-0.7,0.1-1,0.2c-0.2,0.1-0.3,0.2-0.4,0.3
		c-0.1,0.1-0.1,0.2-0.1,0.3c0,0.1,0,0.1,0,0.2c0,0.2,0.1,0.4,0.1,0.6c0,0,0.1,0.1,0.1,0.1c0,0,0,0.1,0,0.1c0.1,0.1,0.2,0.1,0.3,0.1
		c0,0,0,0,0.1-0.1c0,0,0-0.1,0-0.1c0.1-0.1,0-0.2,0.1-0.2c0,0,0.1-0.1,0.1-0.1c0.1,0,0.1-0.1,0-0.2l0,0l0.1,0c0,0,0-0.1,0-0.1
		c0,0,0,0,0,0h0.1c0.1-0.1,0.1-0.1,0.2-0.1c0.2,0,0.4,0,0.6,0l0.3,0c0,0,0,0,0,0c0.1,0,0.2,0,0.2,0c0,0,0,0,0.1,0
		c0,0,0.1,0.1,0.1,0.1h0l0,0c0.1,0.1,0.2,0,0.2,0.1c0,0,0.1,0.1,0.1,0.1c0,0,0.1,0.1,0.1,0.1c0,0,0,0,0.1,0c0,0,0,0,0,0l0,0
		c0,0,0,0,0,0.1h0c0,0,0,0.1,0.1,0.1c0.1,0.1,0,0.2,0.1,0.2h0c0,0,0.1,0.1,0.1,0.1c0.1,0.1,0,0.2,0.1,0.2v0c0,0,0.1,0.1,0.1,0.1
		c0,0,0,0.1,0,0.1c0,0.1,0,0.2,0.1,0.2c0.1,0.1,0,0.2,0.1,0.2c0,0,0,0.1,0,0.1c0.1,0.1,0,0.2,0.1,0.3c0,0.1,0.1,0.2,0.1,0.3
		c0,0.2,0,0.3-0.1,0.4c-0.1,0.1,0,0.2-0.1,0.3c-0.1,0.1,0,0.2-0.1,0.2c0,0-0.1,0.1-0.1,0.1l0,0c-0.1,0-0.1,0.2-0.1,0.2
		c0,0-0.1,0.1-0.1,0.1c0,0-0.1,0.1-0.1,0.1c0,0,0,0.1-0.1,0.1h-0.1l-0.1,0.1c0,0.1-0.1,0.1-0.2,0.1c-0.1,0.1-0.3,0.2-0.4,0.2
		l-0.1,0.1c0,0,0,0,0,0c0,0-0.1,0-0.1,0c0,0-0.1,0-0.1,0c-0.1,0.1-0.2,0-0.2,0.1c0,0-0.1,0-0.1,0c-0.1,0.1-0.2,0-0.3,0.1
		c-0.1,0.1-0.2,0-0.3,0.1c-0.1,0.1-0.2,0-0.3,0.1c-0.1,0.1-0.2,0-0.2,0.1c0,0-0.1,0-0.1,0c0,0-0.1,0.1-0.1,0.1c0,0-0.1,0-0.1,0
		c0,0-0.1,0.1-0.1,0.1c0,0-0.1,0.1-0.1,0.1c0,0,0,0-0.1,0c0,0,0,0,0,0c0,0-0.1,0.1-0.1,0.1c0,0-0.1,0.1-0.1,0.1c0,0-0.1,0.1-0.1,0.1
		c0,0-0.1,0.1-0.1,0.1c0,0-0.1,0.1-0.1,0.1c0,0,0,0.1,0,0.1c0,0-0.1,0.1-0.1,0.1c0,0,0,0.1,0,0.1c-0.1,0.2-0.1,0.4,0,0.6
		c0.1,0.1,0.1,0.2,0.2,0.1c0.1-0.1,0-0.2,0.1-0.2c0,0,0.1-0.1,0.1-0.1c0,0,0.1-0.1,0.1-0.1c0,0,0.1-0.1,0.1-0.1
		c0.1-0.1,0.2-0.2,0.3-0.3c0,0,0,0,0-0.1c0,0,0.1,0,0.1,0c0,0,0.1-0.1,0.1-0.1c0.1-0.1,0.2,0,0.2-0.1c0.1-0.1,0.2,0,0.2-0.1
		c0.1-0.1,0.2,0,0.2-0.1c0.1-0.1,0.2,0,0.2-0.1c0.1-0.1,0.2,0,0.3-0.1l0,0h0c0.1-0.1,0.3,0,0.4-0.1l0.4,0c0,0,0.1,0,0.1,0
		c0,0,0.1,0.1,0.1,0.1v0c0.1,0,0.2,0.1,0.2,0.1c0,0.2,0.1,0.4-0.1,0.5c-0.1,0.1-0.1,0.2-0.1,0.2c0,0,0,0.1,0,0.1
		c0,0-0.1,0.1-0.1,0.1c0,0-0.1,0.1-0.1,0.1c0,0-0.1,0.1-0.1,0.1c-0.1,0.1-0.2,0-0.2,0.1c0,0-0.1,0-0.1,0c-0.1,0.1-0.3,0.1-0.5,0
		c0,0-0.1,0-0.1,0c-0.1-0.1-0.2-0.1-0.2,0.1c0.1,0.2,0.2,0.3,0.4,0.4c0,0,0.1,0.1,0.1,0.1l0,0c0.1,0.1,0.2,0,0.3,0.1
		c0.1,0.1,0.3,0,0.4,0.1h1c0.2-0.1,0.4,0,0.5-0.1c0.2,0,0.4-0.1,0.6-0.2c0.1-0.1,0.2,0,0.2-0.1c0.1-0.1,0.2-0.2,0.3-0.2l0.1-0.1
		c0,0,0.1-0.1,0.1-0.1c0,0,0.1-0.1,0.1-0.1v0c0.1,0,0.1-0.2,0.1-0.2c0,0,0.1-0.1,0.1-0.1c0.1-0.1,0.1-0.2,0.1-0.2
		c0.1-0.1,0-0.2,0.1-0.2c0.1-0.1,0.1-0.2,0.1-0.2c0,0,0-0.1,0-0.1c0.1-0.1,0.1-0.2,0.1-0.2c0,0,0-0.1,0-0.1c0.1-0.1,0-0.3,0.1-0.4
		c0-0.2,0-0.4,0-0.6c0,0,0.1,0,0.1,0c0,0,0-0.1,0-0.1c0-0.6,0-1.2,0-1.8c0-0.1,0-0.1,0-0.2l-0.1,0C25.2,46.9,25.2,46.8,25.2,46.6z"
		/>
	<path class="st0" d="M56.7,31.9c-0.1,0-0.2,0-0.3,0c0,0,0,0,0,0.1c-0.1,0-0.2,0.1-0.3,0.1h0c-0.1,0.1-0.2,0-0.2,0.1l0,0
		c0,0-0.1,0.1-0.1,0.1c-0.1,0.1-0.2,0-0.2,0.1c-0.1,0.1-0.3,0.1-0.4,0.1c-0.5,0-1.1,0-1.6,0c0,0-0.1,0-0.1,0
		c-0.2,0.1-0.4,0.1-0.7,0.1c0,0-0.1,0-0.1,0c-0.1,0.1-0.3,0-0.3,0.1c-0.2,0-0.3,0.1-0.4,0.2c-0.1,0.1-0.2,0-0.2,0.1l0,0
		c0,0-0.1,0.1-0.1,0.1c-0.1,0.1-0.2,0-0.2,0.1c-0.1,0.1-0.2,0-0.3,0.1c0,0,0-0.1,0-0.1c-0.1,0-0.1-0.1-0.1-0.2
		c-0.1-0.1-0.1-0.1-0.1-0.2c-0.1-0.1-0.1-0.2-0.1-0.3c0,0-0.1,0-0.1,0l0,0c0,0,0,0,0,0c0-0.1,0-0.2,0-0.3c0,0,0,0,0-0.1
		c-0.1-0.1,0-0.3-0.1-0.4v0l-0.1-0.1c0-0.1,0-0.2,0-0.3c-0.1-0.1-0.1-0.3-0.1-0.4c-0.1-0.3-0.1-0.6-0.2-0.9C50,29.9,50,29.8,50,29.6
		c-0.1-0.1-0.1-0.3-0.1-0.4c0,0-0.1,0-0.1,0c0-0.1,0-0.1,0-0.2c0-0.1,0-0.3,0-0.4c0,0-0.1,0-0.1,0c0-0.1,0-0.2,0-0.3
		c-0.1-0.3-0.1-0.6-0.1-0.8c0,0-0.1-0.1-0.1-0.1c-0.1-0.6-0.2-1.2-0.3-1.8c-0.1-0.4-0.1-0.9-0.3-1.3c0-0.2-0.1-0.5-0.2-0.7
		c0-0.3-0.1-0.5-0.1-0.8c0-0.1-0.1-0.1-0.1-0.2c-0.1-0.5-0.2-0.9-0.4-1.3c0-0.3,0-0.6,0-0.9c0,0,0-0.1,0-0.1
		c-0.1-0.2-0.1-0.4-0.1-0.6l0,0c0-0.1,0-0.2-0.1-0.2l0,0c0,0-0.1-0.1-0.1-0.1c0,0-0.1-0.1-0.1-0.1h0c0,0-0.1-0.1-0.1-0.1l0,0
		c0-0.1-0.1-0.1-0.2-0.1h0c-0.1-0.1-0.2-0.1-0.2-0.1h0c-0.2-0.2-0.4,0-0.6-0.1l-0.2,0l-1,0c0,0-0.1,0-0.1,0c-0.1,0.1-0.2,0-0.3,0.1
		c-0.2,0-0.3,0-0.5,0c-0.1,0.1-0.3,0.1-0.4,0.1C43.9,19,43.8,19,43.7,19c-0.1,0.1-0.2,0.1-0.3,0.1c0,0-0.1,0.1-0.1,0.1
		s-0.1,0.1-0.1,0.1c0,0,0,0.1,0,0.1c0,0-0.1,0-0.1,0c0,0.1-0.1,0.2-0.1,0.2c0,0,0,0.1,0,0.1c0,0-0.1,0-0.1,0c-0.1,0.1,0,0.2-0.1,0.2
		c-0.1,0.1,0,0.2-0.1,0.2v0c0,0-0.1,0.1-0.1,0.1h0c-0.1,0.1-0.1,0.2-0.1,0.2c0,0,0,0.1,0,0.1c0,0,0,0.1,0,0.1c0,0,0,0,0,0
		c0,0,0,0,0,0c0,0-0.1,0-0.1,0.1c-0.1,0.1,0,0.2-0.1,0.3c-0.1,0.1,0,0.2-0.1,0.3c0,0,0,0.1,0,0.1c-0.2,0.6-0.2,1.2,0,1.7
		c0,0,0,0.1,0,0.1c0,0.1,0,0.2,0.1,0.2c0.1,0.1,0,0.2,0.1,0.2c0.1,0.1,0.2,0,0.2,0.1c0.1,0.1,0.2,0,0.2,0.1H43
		c0.1-0.1,0.2,0,0.2-0.1c0,0,0.1,0,0.1,0c0,0,0.1-0.1,0.1-0.1c0,0,0.1,0,0.1,0c0,0,0.1-0.1,0.1-0.1c0.1-0.1,0.2,0,0.2-0.1h0
		c0,0,0.1-0.1,0.1-0.1c0.1-0.1,0.1,0,0.2-0.1c0,0,0-0.1,0-0.1h0.1c0,0,0-0.1,0-0.1l0.2,0c0.1-0.1,0.3-0.1,0.4-0.1
		c0,0.1,0.1,0.1,0.1,0.2l0.1,0c0,0,0,0.1,0,0.1c0.1,0.1,0,0.2,0.1,0.3c0,0,0,0.1,0,0.1c0,0,0.1,0.1,0.1,0.1v0.4c0,0-0.1,0-0.1,0
		c0,0.1,0,0.1,0,0.2c0,0.5,0,1,0,1.5c0,0,0,0.1,0,0.1c0.1,0.1,0,0.2,0.1,0.3c0.1,0.1,0,0.2,0.1,0.2s0,0.2,0.1,0.2
		c0.1,0.1,0,0.1,0.1,0.2v0c0,0,0.1,0,0.1,0c0,0.1,0,0.1,0,0.2c0.1,0,0.1,0.1,0.1,0.2c0.1,0,0.1,0.1,0.1,0.2c0.1,0,0.1,0.1,0.1,0.2
		l0.1,0.1c0.1,0,0.1,0.1,0.1,0.2c0.1,0,0.1,0.1,0.1,0.2l0.1,0.1l0.1,0c0,0.1,0,0.1,0,0.2c0.1,0.1,0,0.2,0.1,0.2l0,0
		c0,0,0.1,0.1,0.1,0.1c0,0,0.1,0,0.1,0c0,0.1,0,0.1,0,0.2c0,0,0.1,0,0.1,0c0,0.1,0,0.1,0,0.2c0,0,0.1,0,0.1,0c0,0,0,0.1,0,0.1
		c0.1,0,0.1,0.1,0.1,0.2c0.1,0.1,0.2,0.2,0.2,0.3c0.1,0,0.1,0.1,0.1,0.2c0,0,0.1,0.1,0.1,0.1c0.1,0,0.1,0.1,0.1,0.2
		c0.1,0,0.1,0.1,0.1,0.2c0,0,0.1,0.1,0.1,0.1c0.1,0.1,0.2,0.3,0.2,0.4c0,0,0.1,0.1,0.1,0.1c0.1,0,0.1,0.1,0.1,0.2l0.1,0
		c0,0.1,0,0.1,0,0.2c0.1,0.1,0.2,0.2,0.2,0.3c0.1,0,0.1,0.1,0.1,0.2c0.1,0,0.1,0.1,0.1,0.2c0.1,0,0.1,0.1,0.1,0.2l0,0
		c0,0,0.1,0.1,0.1,0.1v0c0.1,0,0,0.1,0.1,0.2v0c0.1,0.2,0.2,0.4,0.2,0.6c0,0,0,0.1,0,0.1c0.1,0.4,0.1,0.7,0.1,1.1c0,0,0,0.1,0,0.1
		c0.1,0.2,0.1,0.4,0.2,0.5l0.3,0c0,0,0,0.1,0,0.1c0.1,0.1,0.2,0,0.2,0.1c0.1,0.1,0.2,0.1,0.2,0.1h0.2c0.1,0,0.2,0,0.2-0.1
		c0,0,0.1-0.1,0.1-0.1c0.1,0,0.1-0.1,0.1-0.1c0,0,0-0.1,0-0.1c0,0,0,0,0,0c0,0,0-0.1,0-0.1l0.1-0.1c0-0.1,0-0.2,0.1-0.2
		c0-0.1,0-0.1,0.1-0.1c0,0,0,0,0-0.1c0,0,0.1,0,0.1,0l0,0h0c0.2-0.1,0.4,0,0.6-0.1l0,0l0,0c0.1-0.1,0.3,0,0.4-0.1l0,0l0,0
		c0.1-0.1,0.3,0,0.4-0.1c0.1-0.1,0.2,0,0.3-0.1c0.1-0.1,0.2,0,0.3-0.1h0c0.1,0,0.2,0,0.2-0.1l0.1-0.1l0.2,0c0.1-0.1,0.1-0.1,0.2-0.1
		l0.1-0.1c0,0,0-0.1,0-0.1l0.2,0c0,0,0.1-0.1,0.1-0.1c0,0,0-0.1,0-0.1c0,0,0.1,0,0.1,0c0-0.1,0.1-0.2,0.1-0.2c0-0.1,0-0.2,0.1-0.2
		c0-0.1,0.1-0.2,0.2-0.2c0.2,0,0.4,0,0.6,0l0-0.1l0.2,0c0.2-0.2,0.4-0.4,0.5-0.5c0-0.1,0-0.3,0-0.4C56.8,32,56.8,31.9,56.7,31.9z"/>
	<path class="st0" d="M3.5,23.4c0-0.3,0.1-0.7,0.2-1c0.1-0.2,0.2-0.5,0.2-0.7c0.1-0.2,0.1-0.3,0-0.5c-0.4,0.5-0.8,1.1-1,1.7
		c0,0.1,0,0.1,0,0.2c-0.1,0.1-0.1,0.2-0.1,0.3c-0.2,0.5-0.2,1,0.1,1.4C2.9,25,3,25.2,3.1,25.3c0.3,0.5,0.8,0.9,1.3,1.1
		c0.2,0,0.3,0.1,0.5,0.1c0.4,0.1,0.8,0.4,1.1,0.7c0.1,0.2,0.2,0.3,0.4,0.5c0.1-0.2-0.1-0.3,0-0.4c-0.1,0-0.1-0.1-0.1-0.2l-0.1,0
		c0-0.1,0-0.1,0-0.2C6,26.9,6,26.8,6,26.7c-0.2-0.3-0.4-0.6-0.6-1c0,0-0.1-0.1-0.1-0.1l-0.1-0.1c0,0-0.1-0.1-0.1-0.1
		c-0.4-0.2-0.7-0.4-1.1-0.7c-0.2-0.1-0.4-0.4-0.4-0.6c0-0.1,0-0.3-0.1-0.4c0,0,0-0.1,0-0.1C3.5,23.6,3.5,23.5,3.5,23.4z"/>
</g>
</svg>
