<?xml version="1.0" encoding="utf-8"?>
<!-- Generator: Adobe Illustrator 22.1.0, SVG Export Plug-In . SVG Version: 6.00 Build 0)  -->
<svg version="1.1" id="Layer_1" xmlns="http://www.w3.org/2000/svg" xmlns:xlink="http://www.w3.org/1999/xlink" x="0px" y="0px"
	 viewBox="0 0 49.6 44.3" style="enable-background:new 0 0 49.6 44.3;" xml:space="preserve">
<style type="text/css">
	.st0{fill:#FFFFFF;}
</style>
<g>
	<path id="Path_77" class="st0" d="M20.2,41c0.1-0.1,0.2-0.3,0.4-0.3l0,0c0.1-0.1,0.3-0.1,0.4,0.1c0,0,0,0,0,0.1v0
		c0.1,0.2,0.2,0.2,0.3,0c0.1-0.1,0-0.3,0.1-0.5l0,0c0.2-0.3,0-0.6,0.1-0.8c0,0,0-0.1,0-0.1c0,0,0,0,0,0c0.1-0.6,0.1-1.3,0-2
		c0-0.1,0.1-0.1,0.1-0.2c-0.1-0.3-0.1-0.6,0-0.9c0.1-0.1,0-0.3,0.1-0.4l0,0c0.1-0.1,0.1-0.2,0.1-0.2c0.1-0.1,0-0.2,0.1-0.3
		c0.1-0.1,0-0.3,0.1-0.4l0,0c0.1-0.1,0-0.3,0.1-0.4l0,0c0.1-0.1,0-0.3,0.1-0.4l0,0c0.1-0.1,0-0.3,0.1-0.4l0,0c0.1-0.1,0-0.3,0.1-0.4
		s0-0.3,0.1-0.4l0,0c0.2-0.1,0-0.3,0.1-0.5l0,0c0.1-0.1,0-0.3,0.1-0.4l0,0c0.2-0.2,0-0.3-0.1-0.3l0,0c0,0-0.1-0.1-0.1-0.1l0,0
		c0-0.1-0.1-0.1-0.1-0.1c0-0.1-0.1-0.1-0.1-0.1l0,0c0-0.1-0.1-0.1-0.1-0.1c-0.1-0.1-0.2-0.2-0.3-0.3l0,0c0-0.1-0.1-0.1-0.1-0.1l0,0
		C22,31.1,22,31,22,31c-0.1-0.1,0-0.2-0.1-0.2c0-0.1,0-0.2-0.1-0.2c0-0.1,0-0.2-0.1-0.2c0-0.1,0-0.2-0.1-0.2v0
		c-0.1-0.1,0-0.3-0.1-0.3c0-0.1,0-0.2-0.1-0.3l0,0c-0.1-0.1,0-0.3-0.1-0.4c-0.1-0.1,0-0.3-0.1-0.4c-0.1-0.1,0-0.3-0.1-0.5l0,0
		c-0.1-0.1,0-0.3-0.1-0.4c0,0,0,0,0-0.1c0,0,0,0,0,0c0-0.1-0.1-0.2-0.2-0.2c-0.2,0.1-0.1,0.3-0.2,0.4l0,0c-0.1,0.7-0.1,1.4,0,2.1
		c0,0,0,0,0,0.1c0,0,0,0,0,0c0.2,0.6-0.1,1.1,0.1,1.7c0,0,0,0.1,0,0.1c0,0,0,0,0,0c0.1,1.1,0,2.2,0.1,3.2c0,0,0,0.1,0,0.2
		c0,0,0,0,0,0v0c-0.1,0.1,0,0.3-0.1,0.5l0,0c-0.2,0.2,0,0.4-0.1,0.6l0,0c-0.2,0.6,0,1.2-0.1,1.8l0,0c-0.2,0.3,0,0.6-0.1,0.9l0,0
		C20,39.2,20,39.3,20,39.4c-0.1,0.1-0.1,0.2-0.1,0.2c0,0-0.1,0.1-0.1,0.1l0,0c0,0-0.1,0.1-0.1,0.1c0,0-0.1,0.1-0.1,0.1l0,0
		c-0.1,0.1-0.2,0.2-0.3,0.2l0,0c-0.1,0-0.1,0.1-0.1,0.1l0,0c-0.4,0.3-0.8,0.7-1.2,1.2l0,0c0,0-0.1,0.1-0.1,0.1l0,0
		c0,0-0.1,0.1-0.1,0.1c-0.1,0-0.1,0.1-0.1,0.1c-0.1,0-0.1,0.2-0.1,0.2l0,0c0,0-0.1,0.1-0.1,0.1l0,0l0,0c-0.1,0.1-0.1,0.1,0,0.2l0,0
		v0c-0.1,0.1-0.1,0.2-0.1,0.4l0.1,0l0.1,0c0,0,0.1,0.1,0.1,0.1c0.4,0,0.9,0,1.3-0.1c0,0,0,0,0.1,0.1c0.1,0,0.3,0,0.4-0.1
		c0.2-0.1,0.4,0,0.6-0.1l0,0c0.1-0.1,0.3,0,0.3-0.1C20.3,42,20,41.5,20.2,41L20.2,41z"/>
	<path id="Path_82" class="st0" d="M39.1,40.2L39.1,40.2c0.1-0.1,0-0.3,0.1-0.5l0,0c0.1-0.1,0-0.3,0.1-0.4s0-0.3,0.1-0.4l0,0
		c0.1-0.1,0.1-0.1,0-0.2c0,0,0,0,0,0l0.1-0.1l0-0.3l0,0c0,0,0.1,0,0.1,0c0,0,0,0,0,0c0,0,0-0.1,0-0.1c0-0.1,0.1-0.1,0-0.2
		c0,0,0,0,0-0.1c0,0,0-0.1,0-0.1c0-0.1,0-0.1,0-0.2l0,0c0,0,0,0,0.1,0c0-0.1,0-0.3,0.1-0.3c0-0.1,0-0.2,0.1-0.2c0,0,0-0.1,0-0.1
		c0,0,0,0,0,0c0,0,0-0.1,0.1-0.1l0,0v0l0,0c0,0,0.1-0.1,0.1-0.1l0,0c0.1-0.1,0.1-0.1,0.1-0.2v0l0,0c0,0,0-0.1,0-0.1c0,0,0,0,0-0.1
		c0,0,0.1,0,0.1,0v-0.1c0,0,0.1,0,0.1,0c0-0.1,0.1-0.2,0.1-0.2c0-0.1,0-0.1,0.1-0.1c0-0.1,0.1-0.2,0.1-0.2c0-0.1,0-0.1,0.1-0.1
		c0-0.1,0.1-0.2,0.1-0.2c0-0.1,0-0.1,0.1-0.1c0-0.1,0.1-0.2,0.1-0.2c0-0.2,0-0.4,0-0.6c-0.1-0.1-0.1-0.1-0.1-0.2
		c-0.1-0.2-0.2-0.3-0.2-0.5c-0.1,0-0.1-0.1-0.1-0.2c-0.1-0.1-0.1-0.1-0.1-0.2c-0.1-0.1-0.1-0.2-0.1-0.3c0,0-0.1,0-0.1,0
		c0-0.1,0-0.3,0-0.5c0,0-0.1,0-0.1,0l0,0c0-0.4,0-0.9,0-1.3c0,0,0.1,0,0.1,0c0.2-0.4,0-0.9,0.1-1.3c0,0,0-0.1,0-0.1c0,0,0,0,0,0
		c0.1-0.2,0.2-0.4-0.1-0.6c-0.1,0.1-0.2,0-0.2,0.1c-0.1,0.1-0.2,0-0.2,0.1l0,0c-0.1,0.1-0.3,0-0.5,0.1c-0.2,0.1-0.4,0-0.6,0.1h0
		c-0.1,0.1-0.2,0-0.3,0.1c0,0-0.1,0-0.1,0l-0.4,0c-0.2,0.1-0.5,0.1-0.8,0.1c-0.1,0-0.2,0-0.3,0.1c0,0,0,0.1,0,0.1l0,0
		c0,0-0.1,0-0.1,0c0,0.4,0,0.8,0,1.2c0.1,0.1,0.1,0.3,0.1,0.5c0,0,0.1,0,0.1,0c0,0,0,0.1,0,0.1c0,0.1,0,0.2,0,0.2c0,0,0.1,0,0.1,0
		c0,0.1,0,0.2,0,0.3c0.1,0.1,0.1,0.1,0.1,0.2c0.1,0.1,0.1,0.1,0.1,0.2c0.1,0.1,0.1,0.1,0.1,0.2c0.1,0.1,0.1,0.1,0.1,0.2
		c0.1,0.1,0.2,0.2,0.2,0.4c0.1,0,0.1,0.1,0.1,0.2c0.1,0,0.1,0.1,0.1,0.1c0.1,0,0.1,0.1,0.1,0.2c0.1,0.1,0.2,0.2,0.2,0.4
		c0.1,0,0.1,0.1,0.1,0.2c0.1,0,0.1,0.1,0.1,0.1c0.1,0,0.1,0.1,0.1,0.2c0,0,0.1,0,0.1,0c0,0.2,0,0.4,0,0.5l0,0c0,0-0.1,0-0.1,0
		c0,0,0,0,0,0c0,0,0,0.1,0,0.1c-0.1,0.1,0,0.2-0.1,0.2l0,0c0,0-0.1,0.1-0.1,0.1l0,0c-0.1,0-0.1,0.2-0.1,0.2l0,0c0,0-0.1,0.1-0.1,0.1
		l0,0c-0.1,0-0.1,0.2-0.1,0.2l0,0c0,0-0.1,0.1-0.1,0.1l0,0c-0.1,0.1-0.1,0.1-0.1,0.2l-0.1,0l-0.1,0.1c0,0.1-0.1,0.2-0.1,0.2
		c0,0.1,0,0.2-0.1,0.2c0,0.1,0,0.1,0,0.2l-0.1,0c0,0.1,0,0.1,0,0.2l0,0v0c0,0-0.1,0-0.1,0c0,0,0,0.1,0,0.1c-0.1,0.1,0,0.2-0.1,0.2
		c-0.1,0.1,0,0.3-0.1,0.3l0,0c-0.1,0.1,0,0.3-0.1,0.4l0,0c-0.1,0.1-0.1,0.2-0.1,0.3c0,0,0,0.1,0,0.1c-0.1,0.1-0.1,0.2-0.1,0.3
		c0,0,0,0.1,0,0.1c0,0-0.1,0.1,0,0.2c0,0-0.1,0-0.1,0.1c0,0,0,0.1,0,0.1l-0.2,0c0,0,0,0.1,0,0.1l-0.1,0c0,0.1-0.1,0.1-0.1,0.1
		c0,0.1-0.1,0.1-0.1,0.1c-0.1,0.2-0.3,0.3-0.5,0.5c0,0.1-0.1,0.1-0.1,0.1l-0.1,0.1c0,0.1-0.1,0.1-0.1,0.1l-0.1,0.1l-0.2,0.3
		c0,0-0.1,0-0.1,0l-0.1,0.1c0,0.1-0.1,0.2-0.1,0.2l-0.1,0.1c0,0.1-0.1,0.2-0.1,0.2l-0.1,0.1l0,0.2c0,0,0,0-0.1,0
		c0,0.2-0.1,0.4,0.1,0.5l0.3,0l0,0c0,0,0,0.1,0,0.1c0.1,0,0.3,0.1,0.4-0.1h0h0c0.1,0.1,0.2,0.1,0.3,0.1c0,0,0-0.1,0-0.1h0l0,0
		c0,0,0,0.1,0,0.1c0.2,0,0.5-0.1,0.7-0.1c0.1,0,0.2,0,0.2-0.1l0,0l0,0c0.1,0,0.2,0,0.2-0.1v0c0.5,0,0.4-0.4,0.5-0.7c0,0,0-0.1,0-0.1
		c0.1-0.1,0-0.3,0.1-0.4c0.1-0.1,0.1-0.2,0-0.3c0,0,0.1,0,0.1,0c0,0,0-0.1,0-0.1c0,0,0.1,0,0.1,0l0,0c0.1-0.1,0.2-0.2,0.2-0.2
		c0.1-0.1,0.2-0.1,0.2,0c0,0.1,0.1,0.1,0.2,0.1h0c0.1,0,0.1-0.1,0.2-0.1l0,0c0.1-0.1,0-0.3,0.1-0.3l0,0c0.1-0.1,0-0.3,0.1-0.4l0,0
		C39.1,40.5,39.1,40.3,39.1,40.2z"/>
	<path id="Path_92" class="st0" d="M1.6,8.4c0,0,0.1-0.1,0.1-0.1c0,0,0-0.1,0-0.1c0.1-0.1,0-0.2,0.1-0.3c0,0,0-0.1,0-0.1
		c0.1-0.1,0.1-0.2,0.1-0.3c0,0,0-0.1,0-0.1C2,7.4,2,7.3,2,7.2c0.1-0.1,0-0.3,0.1-0.3c0.1-0.1,0.1-0.2,0.1-0.2
		c0.1-0.1,0.1-0.1,0.1-0.2c0,0,0,0,0.1,0c0,0,0-0.1,0-0.1c0.1-0.1,0-0.2,0.1-0.2l0,0c0.1-0.1,0-0.2,0.1-0.2c0,0,0,0,0,0
		c0,0,0,0,0-0.1c0,0,0.1-0.1,0.1-0.1c0.1-0.1,0-0.2,0.1-0.2l0,0c0,0,0-0.1,0-0.1c0,0,0.1,0,0.1,0l0,0C3.1,5.2,3,5.1,3.1,5l0,0
		c0.1,0,0.1-0.1,0.1-0.2c0,0,0-0.1,0-0.1c0,0,0,0,0-0.1c0,0,0,0,0-0.1h0c0,0,0.1,0,0.1,0c0-0.1,0.1-0.2,0.1-0.2c0-0.1,0-0.1,0.1-0.1
		c0,0,0-0.1,0-0.1C3.7,4.1,3.7,4,3.8,3.9l0,0c0,0,0.1-0.1,0.1-0.1l0,0C4,3.8,4,3.7,4,3.7l0,0c0.2-0.2,0.3-0.4,0.5-0.6l0,0
		C4.4,2.8,4.1,3,3.9,3c0,0,0,0-0.1,0c0,0,0,0,0,0c-0.1,0-0.2,0-0.3,0.1l0,0c-0.1,0.1-0.2,0-0.2,0.1l0,0c0,0-0.1,0.1-0.2,0.1
		c0,0,0,0-0.1,0c0,0.1-0.1,0.1-0.2,0.1L2.8,3.6c0,0.1-0.1,0.1-0.1,0.1c0,0,0,0.1,0,0.1L2.3,4L2.2,4.1c0,0,0,0.1,0,0.1
		c0,0-0.1,0-0.1,0c0,0,0,0.1,0,0.1L2,4.4L1.9,4.5c0,0-0.1,0-0.1,0l0,0c0,0-0.1,0.1-0.1,0.1l0,0C1.6,4.7,1.7,4.8,1.6,4.9l0,0
		c0,0-0.1,0.1-0.1,0.1l0,0C1.4,5,1.4,5.1,1.4,5.2c0,0,0,0,0,0l0,0c0,0.1,0,0.1,0,0.2c0,0-0.1,0-0.1,0l0,0c-0.1,0.1,0,0.2-0.1,0.2
		l0,0C1.1,5.8,1.1,5.9,1,5.9l0,0C1,6,0.9,6.1,0.9,6.2l0,0c0,0,0,0-0.1,0c0,0.1,0,0.2-0.1,0.2c0,0.1,0,0.1,0,0.2
		c0,0.1-0.1,0.1-0.1,0.2l0,0C0.5,6.8,0.6,7,0.5,7.1l0,0C0.5,7.2,0.5,7.3,0.5,7.4c0,0,0,0-0.1,0l0,0c-0.1,0.1,0,0.3-0.1,0.5l0,0
		C0.2,8,0.2,8.2,0.3,8.3c0,0-0.1,0-0.1,0.1c0,0,0,0.1,0,0.1C0,8.8,0.2,9.1,0.1,9.3v0C0,9.7,0,10,0.1,10.4l0,0C0,10.4,0,10.5,0,10.5
		c0,0.5,0,1,0.1,1.5l0,0c0.2,0.3,0,0.6,0.1,0.9c0,0,0,0.1,0,0.1c0.1,0.2,0,0.4,0.1,0.6c0,0,0,0.1,0,0.1c0,0,0.1,0.1,0.1,0.1
		c0,0.1,0,0.1,0,0.2s0,0.2,0,0.2c0,0,0.1,0,0.1,0l0,0h0c0,0,0,0-0.1,0c0,0.1,0,0.3,0,0.4l0,0c0.1,0.1,0,0.3,0.1,0.5
		c0.1,0.1,0,0.3,0.1,0.3c0,0,0,0.1,0,0.1c0,0,0.1,0.1,0.1,0.1c-0.1,0.1,0,0.2,0,0.3l0,0c0.1,0.1,0,0.3,0.1,0.4l0,0
		c0.1,0.1,0,0.3,0.1,0.4c0.1,0.1,0,0.2,0.1,0.2c0,0,0,0.1,0,0.1c0,0.1,0.1,0.2,0.2,0.2c0.1-0.1,0.1-0.2,0.1-0.3s0-0.2-0.1-0.3
		c0,0,0-0.1,0-0.1c-0.1-0.1,0-0.3-0.1-0.5c0,0,0-0.1,0-0.1c-0.1-0.1,0-0.2-0.1-0.3c0,0,0,0,0.1-0.1c0-0.1,0-0.2-0.1-0.3
		c0-0.1,0-0.1,0-0.2c-0.2-0.4,0-0.8-0.1-1.2c0-0.2,0-0.4,0-0.6c0-0.1,0-0.1-0.1,0l0,0l0,0c0,0,0,0,0.1,0c0-0.1,0-0.1,0-0.2
		c0-0.5,0-1,0.1-1.6c0,0,0-0.1,0-0.1c0.2-0.3,0-0.7,0.1-1c0,0,0-0.1,0-0.1c0.1-0.2,0-0.4,0.1-0.6c0,0,0-0.1,0-0.1
		c0.1-0.1,0.1-0.2,0-0.2c0,0,0,0-0.1,0v0c0.1,0,0.1-0.1,0.1-0.2c0,0,0,0,0.1,0l0-0.1l0-0.1c0,0,0-0.1,0-0.1c0-0.1,0-0.1,0-0.2
		c0,0,0,0,0.1,0c0,0,0-0.1,0-0.1C1.6,8.6,1.6,8.5,1.6,8.4z"/>
	<path id="Path_95" class="st0" d="M13.1,9.5c0-0.1,0.1-0.2,0.1-0.2c0-0.1,0.1-0.3,0.2-0.3l0.1-0.1l0.1-0.1l0.1-0.1L14,8.5
		c0.1-0.1,0-0.2-0.1-0.3l-0.4,0c-0.1,0.1-0.2,0.1-0.3,0.1c0,0-0.1,0.1-0.1,0.1c-0.1,0.1-0.2,0.3-0.4,0.4c0,0.1,0,0.1-0.1,0.1l0,0.1
		c0,0-0.1,0-0.1,0c0,0,0,0,0,0l0,0c-0.1,0.1-0.1,0.2-0.1,0.2c-0.1,0.1-0.1,0.2-0.1,0.2c-0.1,0.1,0,0.3-0.1,0.4l0,0
		c-0.1,0.1-0.1,0.2-0.1,0.3c0,0,0,0.1,0,0.1c-0.1,0.1,0,0.3-0.1,0.4c0,0,0,0.1,0,0.1c-0.1,0.2-0.1,0.5,0,0.7c0,0,0,0.1,0,0.1
		c0.1,0.1,0,0.4,0.1,0.5v0c0.1,0.1,0,0.3,0.1,0.4l0,0c0.1,0.1,0,0.3,0.1,0.3c0.1,0.1,0,0.2,0.1,0.2l0,0c0.1,0.1,0,0.2,0.1,0.2l0,0
		c0,0,0,0.1,0,0.1c0.1,0.1,0,0.2,0.1,0.2l0,0c0.1,0.1,0,0.2,0.1,0.2v0c0.2,0,0.2-0.1,0.1-0.2c0,0,0-0.1,0-0.1
		c-0.1-0.1,0-0.2-0.1-0.4c0-0.1,0-0.2,0-0.3l-0.1,0c0,0,0,0,0,0c0-0.5,0-1,0.1-1.5l0,0c0.1-0.1,0-0.3,0.1-0.5v0
		c0.1-0.1,0-0.3,0.1-0.4v0c0.1-0.1,0.1-0.1,0.1-0.2c0,0,0,0,0,0c0,0,0,0,0,0l0.1,0c0,0,0-0.1,0-0.1l0.1-0.1L13.1,9.5z"/>
	<path id="Path_96" class="st0" d="M49.5,15.6c0-0.1-0.1-0.2-0.1-0.2c0-0.1,0-0.1,0-0.2c0,0-0.1,0-0.1,0c0-0.1,0-0.1,0-0.2l-0.1,0
		l0-0.2c0,0-0.1,0-0.1,0c0,0,0-0.1,0-0.1l-0.1,0c0,0,0-0.1,0-0.1l0,0c0,0-0.1-0.1-0.1-0.1l0,0c0,0-0.1-0.1-0.1-0.1l0,0
		c0,0-0.1,0-0.1,0c0,0,0-0.1,0-0.1l0,0c0,0-0.1-0.1-0.1-0.1l0,0c0-0.1-0.2-0.1-0.2-0.1l0,0c-0.1-0.1-0.2-0.1-0.2-0.1h0
		c-0.1-0.1-0.2-0.1-0.3-0.1c0,0-0.1,0-0.1,0c-0.1-0.1-0.2-0.1-0.2,0c0,0,0,0,0,0c0,0-0.1-0.1-0.1-0.1l0,0l0,0c0-0.1-0.1-0.1-0.2-0.1
		c-0.3,0-0.5-0.1-0.8,0.1c0,0-0.1,0-0.1,0c0,0,0,0,0,0c-0.1,0.1-0.3,0-0.4,0.1c-0.2,0.1-0.3,0.1-0.5,0.2h0c-0.2,0.1-0.4,0.3-0.6,0.6
		l0,0c0,0-0.1,0.1-0.1,0.1l0,0c-0.1,0.1-0.1,0.2-0.1,0.2c-0.1,0.1-0.1,0.2-0.1,0.2c-0.1,0.1-0.1,0.2-0.1,0.3c0,0,0,0,0,0.1
		c0,0,0,0,0,0.1c0,0,0,0,0,0c-0.1,0.3-0.1,0.6,0,0.9c0,0,0,0,0,0.1c0,0.1,0,0.1,0.1,0.1c0,0,0,0,0,0.1c0,0.1,0,0.1,0,0.2
		c0,0,0,0,0.1,0l0,0c0,0,0,0,0,0c0,0.1,0,0.1,0,0.2c0,0,0,0,0,0l0,0c0,0.1,0.1,0.1,0.1,0.1l0,0c0,0,0.1,0.1,0.1,0.1l0,0h0.1h0
		c0,0,0,0,0.1,0s0,0,0,0.1c0.1,0,0.2,0.1,0.2,0.1l0.3,0v0c0,0,0,0,0,0h0c0,0,0,0,0,0s0,0,0.1,0l0,0l0,0c0.1,0.1,0.3,0.1,0.5,0h0
		c0,0,0,0,0,0c0,0,0,0,0-0.1c0,0,0,0,0,0l0.2,0l0.2-0.2c0-0.1,0.1-0.2,0.1-0.2c0-0.1,0-0.2,0.1-0.2c0-0.1,0-0.2,0-0.4
		c0-0.1,0-0.2,0-0.3v-0.1l0,0c0-0.1,0-0.2-0.1-0.2l0,0c-0.1-0.2-0.3-0.3-0.5-0.3h0c-0.1,0-0.2,0-0.3,0.1c-0.2,0.3-0.2,0.6,0.3,0.8
		c-0.2,0-0.3-0.1-0.5-0.2l0,0c-0.1-0.2,0-0.4-0.1-0.6c0,0,0-0.1,0.1-0.1l0,0c0.1-0.1,0.1-0.2,0.2-0.3l0,0c0.1-0.1,0.2-0.1,0.4-0.2
		l0,0c0.1-0.1,0.2-0.1,0.3-0.1c0.2,0,0.3,0,0.5,0c0,0,0,0,0.1,0l0,0c0.1,0,0.2,0,0.2,0.1c0.1,0,0.2,0.1,0.2,0.1c0.1,0,0.1,0,0.1,0.1
		c0,0,0.1,0.1,0.1,0.1c0.1,0,0.1,0.1,0.1,0.1c0.3,0.4,0.4,0.9,0.1,1.3c0,0.1,0,0.3-0.1,0.3c0,0.1,0,0.2-0.1,0.2c0,0.1,0,0.1-0.1,0.1
		c0,0.1-0.1,0.2-0.1,0.2c0,0,0,0.1,0,0.1c0,0-0.1,0-0.1,0c0,0.1-0.1,0.3-0.3,0.3L47,18.3c0,0.1-0.1,0.1-0.1,0.1l0,0.2l0.1,0.1
		l0.3,0.1c0,0,0,0.1,0,0.1c0,0,0.1,0,0.1,0c0,0,0,0.1,0,0.1c0.1,0,0.1,0.1,0.1,0.1c0.1,0,0.1,0.1,0.1,0.1c0.1,0,0.1,0.1,0.1,0.1
		c0.1,0,0.1,0.1,0.1,0.1c0,0,0.1,0,0.1,0c0,0.1,0,0.1,0,0.2c0.1,0,0.1,0.1,0.1,0.1c0.1,0.1,0.1,0.1,0.1,0.2l0.2,0.2
		c0-0.1,0-0.2,0.1-0.2c0-0.1,0-0.2,0.1-0.2c0,0,0-0.1,0-0.1h0c0,0,0.1-0.1,0.1-0.1c0,0,0,0,0,0l0,0v-0.1c0,0,0-0.1,0.1-0.1
		c0.1-0.1,0.1-0.2,0.2-0.4c0.1-0.1,0-0.3,0.1-0.4c0,0,0-0.1,0-0.1c0,0,0,0,0,0c0.1-0.1,0-0.2,0-0.3c0,0,0,0,0,0c0,0,0,0,0.1,0
		c0-0.1,0-0.2,0-0.3c0.1-0.1,0.1-0.3,0.1-0.5C49.6,16.8,49.7,16.2,49.5,15.6z"/>
	<path class="st0" d="M19,24.6c-0.1,0-0.1-0.1-0.1-0.2l-0.2-0.2c0,0,0-0.1,0-0.1c0,0,0-0.1-0.1-0.1c0-0.3,0-0.6,0-0.9
		c0,0,0.1,0,0.1,0c0,0,0-0.1,0-0.1c0.1-0.1,0-0.3,0.1-0.5c0,0,0-0.1,0-0.1c0.1-0.1,0-0.3,0.1-0.4c0,0,0-0.1,0-0.1
		c0.1-0.1,0-0.3,0.1-0.5c0.1-0.1,0-0.3,0.1-0.4c0,0,0-0.1,0-0.1c0.1-0.1,0-0.3,0.1-0.5v0c0.1-0.3,0.1-0.6,0-0.9c0,0,0-0.1,0-0.1
		c0,0-0.1,0-0.1,0c0-0.3-0.1-0.5-0.2-0.7C19,18.5,19,18.4,19,18.2c-0.1,0-0.1-0.1-0.1-0.1c-0.1-0.1-0.1-0.1-0.1-0.2
		c0-0.1-0.1-0.3-0.3-0.3c-0.1-0.1-0.2-0.1-0.3-0.1c-0.4,0-0.8,0-1.2,0c0,0,0,0.1,0,0.1c0,0-0.1,0-0.1,0h-1.1l-0.1-0.1
		c-0.1,0-0.3,0-0.3-0.1c-0.1,0-0.2,0-0.2-0.1c-0.1,0-0.2,0-0.2-0.1c0,0-0.1,0-0.1,0c-0.1,0.1-0.1,0.1-0.2,0.1c0,0.1-0.1,0.1-0.1,0.1
		l-0.1,0.1c0,0,0,0,0,0.1c0,0-0.1,0-0.1,0.1l0,0c-0.1,0-0.1,0.1-0.1,0.1l0,0C14,17.8,14,18,13.9,18.1c-0.1,0.1,0,0.3-0.1,0.3v0
		c-0.1,0.1,0,0.3-0.1,0.4v0c-0.2,0.2,0,0.4-0.1,0.6c0,0,0,0,0,0.1c0,0,0,0,0,0c-0.1,0.5-0.1,0.9,0,1.4c0,0,0,0,0,0.1c0,0,0,0,0,0
		c0.1,0.1,0,0.4,0.1,0.5c0,0.1,0,0.2,0.1,0.2l0,0c0.1,0.1,0,0.2,0.1,0.2c0,0.1,0.1,0.1,0.1,0.1c0.1,0.1,0.1,0.2,0.1,0.2
		c0,0.1,0.1,0.1,0.1,0.1c0.1,0.1,0.1,0.3,0.3,0.3l0,0c0,0.1,0.1,0.1,0.1,0.1l0,0c0,0.1,0.1,0.1,0.1,0.1c0.3,0.4,0.7,0.8,1.1,1.2l0,0
		c0,0.1,0.1,0.1,0.1,0.1c0.1,0.1,0.1,0.2,0.2,0.4c0.1,0.1,0,0.2,0.1,0.2c0,0.1,0.1,0.1,0.1,0.1c0.1,0.1,0,0.2,0.1,0.2
		c0,0.1,0,0.2,0.1,0.2c0,0.1,0.1,0.1,0.1,0.1c0.1,0.1,0.1,0.2,0.1,0.2v0c0.1,0.1,0,0.2,0.1,0.2c0,0.1,0,0.2,0.1,0.2
		c0.1,0.1,0.1,0.3,0.2,0.4l0,0c0.1,0.1,0,0.2,0.1,0.2c0.1,0.1,0,0.2,0.1,0.2c0.3,0.1,0.5,0.1,0.8,0h0c0.1-0.1,0.2,0,0.2-0.1h0
		c0.1-0.1,0.2-0.1,0.3-0.2c0.1-0.1,0.3-0.1,0.3-0.3c0.1,0,0.1-0.1,0.2-0.2c0.1-0.3,0.1-0.6,0-1C19.2,25.1,19.1,24.9,19,24.6z
		 M17.2,21.5c0,0.1,0,0.2,0,0.2l-0.3,0.7c0,0,0,0-0.1,0c-0.1,0-0.1-0.1-0.1-0.1c-0.1-0.2-0.2-0.3-0.3-0.5c-0.1-0.2,0.1-0.4,0.1-0.5
		c0.1-0.2,0.1-0.5-0.1-0.7c0,0-0.1-0.1-0.1-0.1c0,0-0.1-0.1-0.1-0.1c0,0,0,0,0-0.1c0-0.2,0.1-0.5,0.1-0.7c0-0.1,0.1-0.1,0.1,0
		c0.2,0.2,0.5,0.5,0.6,0.8c0.1,0.1,0,0.2,0.1,0.2c0,0,0,0.1,0,0.1C17.3,21,17.3,21.3,17.2,21.5z"/>
	<path class="st0" d="M25,9.3c0-0.1,0-0.1,0-0.2c0,0,0-0.1-0.1-0.1l0-0.8c-0.1-0.1-0.1-0.3-0.1-0.4c0-0.1,0-0.2-0.1-0.3
		c0-0.1,0-0.3,0-0.4c-0.1-0.1-0.1-0.2-0.1-0.4c-0.2-0.8-0.6-1.6-1-2.2l-0.2-0.1c0-0.1-0.1-0.2-0.2-0.3c-0.1-0.1-0.2-0.2-0.3-0.4
		c-0.1,0-0.1-0.1-0.1-0.1c-0.1-0.1-0.1-0.2-0.2-0.2C22.3,3.2,22,3,21.8,2.7c-0.1,0-0.1-0.1-0.1-0.1c-0.1,0-0.1,0-0.1-0.1
		c-0.1,0-0.1,0-0.1-0.1c-0.1,0-0.3-0.1-0.3-0.3c-0.1,0-0.1,0-0.1-0.1c-0.1,0-0.3-0.1-0.3-0.2c-0.1,0-0.2-0.1-0.2-0.1
		c-0.1,0-0.1,0-0.1-0.1c-0.1-0.1-0.3-0.2-0.4-0.3l-0.2,0c0,0,0-0.1,0-0.1c-0.2-0.1-0.3-0.2-0.5-0.2L19,1c0,0,0-0.1-0.1-0.1l0,0
		c-0.1-0.1-0.3,0-0.3-0.1c-0.1-0.1-0.2-0.1-0.2-0.1c-0.1-0.1-0.2,0-0.3-0.1c-0.1-0.1-0.3,0-0.5-0.1c-0.1-0.1-0.3,0-0.4-0.1l0,0
		c-0.2-0.2-0.4,0-0.6-0.1l0,0c-0.2-0.2-0.5,0-0.7-0.1c0,0,0,0-0.1,0c0,0,0,0,0,0C15.4,0,15,0,14.6,0c0,0-0.1,0.1-0.1,0.1
		c0,0,0,0,0-0.1C13.7,0,13,0,12.2,0.1l0,0l0,0c0,0-0.1,0-0.1,0.1c-0.2-0.1-0.4,0-0.6,0h0c-0.2,0.1-0.4,0-0.6,0.1l0,0l0,0
		c-0.1,0.1-0.3,0-0.4,0.1c0,0,0,0-0.1,0c0,0,0,0,0,0c-0.1,0.1-0.3,0-0.4,0.1h0c0,0-0.1,0.1-0.1,0.1l-0.3,0C9.5,0.7,9.4,0.8,9.3,0.8
		C9.2,0.9,9.1,0.9,9,0.9C8.9,1,8.8,1,8.8,1c0,0,0,0.1,0,0.1l-0.2,0c0,0,0,0.1,0,0.1l-0.2,0c0,0.1-0.1,0.1-0.1,0.1
		c0,0.1-0.1,0.1-0.2,0.1C7.8,1.6,7.7,1.7,7.6,1.7C7.5,1.8,7.4,1.9,7.2,2c0,0.1-0.1,0.1-0.1,0.1c0,0,0,0.1,0,0.1C7,2.2,7,2.2,7,2.3h0
		l-0.2,0c0,0.1-0.1,0.1-0.1,0.1c0,0.1-0.1,0.1-0.1,0.1C6.4,2.7,6.2,2.9,6,3.1C6,3.1,5.9,3.1,5.9,3.2C5.7,3.4,5.5,3.5,5.4,3.7
		c0,0.1-0.1,0.1-0.1,0.1L5.1,4c0,0.1-0.1,0.3-0.3,0.3L4.8,4.4c0,0,0,0.1,0,0.1c0,0-0.1,0-0.1,0c0,0,0,0.1,0,0.1L4.6,4.7L4.4,4.9
		c0,0,0,0.1,0,0.1c0,0-0.1,0-0.1,0c0,0.1-0.1,0.2-0.1,0.2L4.1,5.4c0,0.1,0,0.1,0,0.2l-0.1,0c0,0.1,0,0.2-0.1,0.2L3.7,5.9
		c0,0.1-0.1,0.2-0.1,0.2c0,0.1,0,0.2-0.1,0.2v0.1c0,0-0.1,0.1-0.1,0.1c0,0,0,0.1,0,0.1c0,0-0.1,0.1-0.1,0.1l0,0C3.1,7,3,7.3,2.9,7.6
		C2.8,7.6,2.8,7.7,2.8,7.8v0C2.7,7.8,2.7,7.9,2.7,8c0,0,0,0,0,0l0,0c0,0.1,0,0.3-0.1,0.3c0,0.1,0,0.2,0,0.3c0,0-0.1,0.1-0.1,0.1v0
		C2.3,8.8,2.4,8.9,2.4,9c0,0,0,0,0,0c0,0,0,0-0.1,0c0,0.1,0,0.2-0.1,0.3c0,0.4-0.1,0.7-0.2,1.1c0,0.2,0,0.5,0,0.7c0,0-0.1,0-0.1,0
		c-0.1,0.2,0,0.5-0.1,0.7c0,0,0,0.1,0,0.1c-0.1,0.8-0.1,1.6,0,2.5v0c0.1,0.2,0,0.5,0.1,0.7c0,0,0,0.1,0,0.1c0,0.1,0.1,0.1,0.1,0.2
		c-0.1,0.1-0.1,0.2,0,0.3c0,0,0,0.1,0,0.1C2,15.9,2,16,2,16.1c0,0,0,0.1,0,0.1c0,0.1,0.1,0.1,0.1,0.2c0,0,0,0,0,0c0,0,0,0.1,0,0.1
		c0,0,0,0.1,0,0.1c0.1,0.1,0,0.2,0.1,0.3c0.1,0.1,0,0.2,0.1,0.2c0,0,0,0.1,0,0.1c0.1,0.1,0,0.2,0.1,0.3c0,0,0.1,0,0.1,0
		c0,0.1,0,0.1,0,0.2c0.1,0.1,0.1,0.1,0.1,0.2c0.1,0.1,0.1,0.1,0.1,0.2c0,0,0.1,0.1,0.1,0.1c0.1,0,0.1,0.1,0.1,0.2
		c0,0,0.1,0.1,0.1,0.1c0.1,0.1,0.1,0.1,0.1,0.2c0,0,0.1,0,0.1,0c0,0,0,0.1,0,0.1c0.1,0,0.1,0.1,0.1,0.1c0.1,0.1,0.2,0.2,0.3,0.3
		c0.1,0,0.1,0.1,0.1,0.1c0.1,0,0.1,0.1,0.1,0.1c0.1,0.1,0.1,0.2,0.2,0.2l0.1,0c0,0,0,0.1,0,0.1c0.1,0.1,0.2,0.2,0.2,0.2
		c0.1,0,0.1,0.1,0.1,0.1c0,0,0.1,0,0.1,0c0,0,0,0.1,0,0.1c0.1,0,0.1,0,0.1,0.1c0.1,0,0.3,0.1,0.3,0.3c0.1,0,0.1,0,0.1,0.1
		c0.1,0,0.1,0,0.1,0.1c0.1,0,0.2,0.1,0.2,0.1c0.1,0,0.1,0,0.1,0.1c0.1,0,0.3,0.1,0.4,0.2c0.1,0,0.2,0.1,0.2,0.1c0.1,0,0.1,0,0.1,0.1
		c0.1,0,0.2,0.1,0.2,0.1c0.1,0,0.2,0,0.2,0.1c0.1,0,0.3,0.1,0.4,0.2c0.1,0,0.2,0,0.2,0.1l0.2,0c0,0,0,0.1,0,0.1c0.1,0,0.2,0,0.2,0.1
		c0.1,0,0.2,0,0.2,0.1c0.1,0,0.3,0,0.3,0.1c0.1,0,0.2,0,0.3,0c0,0,0,0.1,0,0.1c0.2,0,0.4,0,0.6,0.1c0.2,0,0.5,0,0.7,0.1
		c0.2,0,0.5,0,0.7,0.1l0.4,0c0,0,0,0.1,0,0.1h0c0.1,0.1,0.3,0,0.4,0.1l0,0l0,0c0.1,0.1,0.2,0.1,0.3,0.1l0,0c0.7,0.2,0.9,0,0.7-0.8
		l0,0c0-0.1,0-0.2-0.1-0.3c-0.1-0.2-0.2-0.5-0.3-0.7c-0.1-0.1,0-0.2-0.1-0.2c-0.1-0.1,0-0.2-0.1-0.2v0c0,0-0.1,0-0.1,0v0
		c-0.1-0.3,0-0.7,0.1-1c0-0.1,0-0.3,0.1-0.4c0-0.1,0-0.3,0.1-0.3c0-0.1,0-0.2,0.1-0.2c0.1-0.2,0.2-0.3,0.2-0.5c0-0.1,0-0.2,0.1-0.2
		c0-0.1,0.1-0.3,0.2-0.4c0-0.1,0.1-0.2,0.1-0.2c0-0.1,0-0.1,0.1-0.1c0-0.1,0-0.1,0-0.2c0,0,0.1,0,0.1,0l0-0.1l0.1,0c0,0,0-0.1,0-0.1
		c0,0,0.1,0,0.1,0c0,0,0-0.1,0-0.1c0,0,0-0.1,0-0.1c0,0,0.1,0,0.1,0l0.1-0.1c0-0.1,0.1-0.2,0.1-0.2c0-0.1,0-0.3,0.1-0.4
		c0-0.1,0-0.1,0-0.2l-0.1-0.2c-0.1,0-0.2-0.1-0.2-0.1l-1.6,0c0,0,0-0.1,0-0.1c-0.1,0-0.3,0-0.4-0.1c-0.1,0-0.2,0-0.2-0.1l-0.2,0
		l-0.2-0.2c0,0,0-0.1,0-0.1L11,15.2c0,0,0,0,0,0c0,0,0-0.1,0-0.1c0,0-0.1-0.1-0.1-0.1c0,0-0.1-0.1-0.1-0.1c-0.1-0.1-0.1-0.2-0.2-0.4
		c-0.1-0.1,0-0.2-0.1-0.2c-0.1-0.1,0-0.3-0.1-0.4v0c-0.1-0.1,0-0.2-0.1-0.2c-0.2-0.2,0-0.5-0.1-0.7c0,0,0-0.1,0-0.1
		c-0.1-0.3,0-0.5-0.1-0.8l-0.1,0c0,0,0,0,0-0.1c0.2-0.3,0-0.7,0.1-1.1c0,0,0-0.1,0-0.1c0.1-0.2,0-0.3,0.1-0.5c0,0,0-0.1-0.1-0.1
		c0,0,0,0,0-0.1c0,0,0.1,0,0.1,0c0,0,0-0.1,0-0.1c0-0.1,0-0.2,0-0.2c0-0.1,0-0.1,0-0.2c0,0,0.1,0,0.1,0v0c0.1-0.1,0-0.3,0.1-0.4
		c0,0,0-0.1,0-0.1c0,0,0.1-0.1,0-0.1c0,0,0,0,0,0l0-0.1c0,0,0.1,0,0.1,0c0-0.1,0-0.1,0-0.2c0.1,0,0.1,0,0.1-0.1c0,0,0-0.1,0-0.1
		c0.1-0.1,0-0.2,0.1-0.2c0,0,0.1-0.1,0.1-0.1l0,0c0.1-0.1,0.1-0.2,0.1-0.2c0,0,0.1-0.1,0.1-0.1l0,0c0.1-0.1,0.3-0.3,0.3-0.5v0
		c0,0,0.1-0.1,0.1-0.1l0.1-0.1c0,0,0.1,0,0.1,0h0h0c0,0,0-0.1,0-0.1c0,0,0.1,0,0.1,0c0-0.1,0.1-0.1,0.1-0.1c0-0.1,0.1-0.1,0.2-0.1
		c0,0,0-0.1,0-0.1h0.1c0,0,0-0.1,0-0.1l0.2,0c0.2-0.1,0.3-0.2,0.5-0.2c0.1-0.1,0.2-0.1,0.3-0.1C13.5,6,13.6,6,13.8,6
		c0.2-0.1,0.4-0.1,0.6-0.1c0,0,0-0.1,0-0.1l1.7,0c0,0,0,0.1,0,0.1c0.2,0,0.4,0,0.6,0.1C16.8,6,17,6,17,6.1l0.2,0v0
		c0.1,0.1,0.2,0.1,0.3,0.2c0.1,0.1,0.2,0.2,0.4,0.2c0,0.1,0.2,0.1,0.2,0.1l0,0c0.1,0.1,0.1,0.1,0.2,0.1l0,0L18.6,7
		c0.1,0,0.1,0,0.1,0.1c0.1,0,0.1,0,0.1,0.1c0.1,0,0.1,0,0.1,0.1c0.2,0.1,0.3,0.2,0.4,0.4c0.1,0,0.1,0.1,0.1,0.1
		c0.1,0,0.1,0.1,0.1,0.1c0.1,0.1,0.2,0.2,0.2,0.3c0.1,0.2,0.2,0.3,0.2,0.5c0.1,0.1,0.1,0.2,0.1,0.4l0.1,0.2c0,0,0,0.1-0.1,0.1
		c0,0.3,0,0.7,0,1c0,0,0,0.1,0,0.1c-0.1,0-0.1,0-0.1,0.1c0,0,0,0,0,0.1c0,0,0,0,0,0c-0.1,0.1-0.1,0.1,0,0.2c-0.1,0-0.1,0-0.1,0.1
		c0,0,0,0.1,0,0.1c-0.1,0.1,0,0.2-0.1,0.2c-0.1,0.1-0.2,0.2-0.2,0.4c-0.1,0-0.1,0.1-0.1,0.1l0,0c-0.1,0.2-0.3,0.3-0.4,0.5l-0.2,0.1
		c0,0.1-0.1,0.1-0.1,0.1c0,0,0,0,0,0.1h0c-0.1,0-0.2,0-0.2,0.1l0,0c0,0-0.1,0.1-0.1,0.1c0,0,0,0-0.1,0c-0.1,0-0.2,0-0.3,0.1l0,0
		c-0.1,0.1-0.3,0-0.4,0.1c-0.1,0.1-0.2,0-0.4,0.1l-0.2,0h-0.5c0,0-0.1,0-0.1-0.1c-0.1,0-0.2,0-0.3,0c0,0,0-0.1-0.1-0.1
		c-0.1-0.1-0.2-0.1-0.2-0.1c-0.1-0.1-0.2-0.1-0.2-0.1c0,0-0.1-0.1-0.1-0.1l0,0c0,0-0.1-0.1-0.1-0.1c-0.1-0.1,0-0.2-0.1-0.2
		c-0.1-0.1,0-0.2-0.1-0.2c0,0,0-0.1,0-0.1c-0.1-0.1-0.1-0.3-0.1-0.4c0,0,0,0,0-0.1c0,0,0.1,0,0.1,0c0,0,0,0,0,0c0,0,0-0.1,0-0.1
		c0.1-0.1,0.1-0.2,0.1-0.3c0,0,0-0.1,0-0.1l0.1,0c0-0.1,0-0.1,0-0.2l0.1,0c0-0.1,0-0.1,0.1-0.1c0.1-0.2,0.2-0.3,0.4-0.3
		c0.2-0.2,0.4-0.1,0.6-0.1l0.3,0.3c0,0.1,0,0.2,0,0.2c0,0,0,0,0,0.1c0,0,0,0,0,0c0,0.1,0,0.1,0.1,0.2c0,0.1,0,0.1,0,0.2v0l-0.2,0
		c-0.1,0.1-0.1,0.1-0.1,0c0,0-0.1,0-0.1,0c0,0,0,0,0,0c0,0,0-0.1,0-0.1l-0.1-0.1l-0.2,0c-0.1,0.1-0.3,0.2-0.3,0.4c0,0-0.1,0-0.1,0
		c0,0.2,0,0.4,0,0.6c0.1,0.1,0.1,0.2,0.1,0.2c0,0,0.1,0,0.1,0c0,0,0,0,0,0c0,0,0,0.1,0,0.1c0,0,0.1,0.1,0.1,0.1l0,0
		c0.2,0.1,0.4,0.1,0.6,0l0,0l0,0c0,0,0,0,0.1-0.1c0,0,0,0,0.1,0c0.1,0,0.1,0,0.2-0.1h0.1l0,0l0,0c0.1,0,0.2,0,0.2-0.1l0,0
		c0.1,0,0.1-0.1,0.1-0.1l0,0c0.1-0.1,0.2-0.2,0.2-0.4c0.1-0.1,0.1-0.2,0.1-0.2c0.1-0.1,0-0.3,0.1-0.4l0,0c0.1-0.3,0.1-0.7,0-1
		c0,0-0.1,0-0.1,0c0-0.1,0-0.1,0-0.2c0,0-0.1,0-0.1,0c0-0.1,0-0.1,0-0.2c-0.1-0.1-0.2-0.2-0.3-0.3c-0.1,0-0.1-0.1-0.1-0.1
		c-0.1-0.1-0.2-0.1-0.3-0.3c-0.1,0-0.1,0-0.1-0.1c-0.1,0-0.2-0.1-0.2-0.1c-0.4,0-0.8,0-1.2,0l-0.3,0c0,0,0,0.1,0,0.1v0l-0.3,0
		c-0.1,0.1-0.2,0.1-0.3,0.1c-0.1,0.1-0.1,0.1-0.2,0.1L14.4,9c0,0,0,0.1,0,0.1c-0.2,0.1-0.3,0.2-0.4,0.3l-0.2,0.1v0.1
		c0,0-0.1,0-0.1,0c0,0.1-0.1,0.2-0.1,0.2c0,0.1,0,0.2-0.1,0.2c0,0,0,0.1,0,0.1c0,0-0.1,0.1-0.1,0.1v0c-0.1,0.1,0,0.3-0.1,0.4
		c0,0,0,0.1,0,0.1c-0.1,0.1,0,0.2-0.1,0.3v0c0,0,0,0,0,0.1c0,0,0,0.1,0,0.1c-0.1,0.5-0.1,1.1,0,1.6c0,0,0,0.1,0,0.1c0,0,0,0,0.1,0v0
		c0,0.1,0,0.3,0.1,0.4c0.1,0.1,0,0.3,0.1,0.5l0,0c0,0.1,0,0.2,0.1,0.2c0,0,0,0.1,0,0.1c0,0,0,0.1,0.1,0.1c0,0,0,0,0,0l0.1,0.4
		c0.1,0,0.1,0.1,0.1,0.1c0.2,0.1,0.3,0.3,0.3,0.5c0.1,0,0.2,0.1,0.2,0.2c0.1,0,0.1,0.1,0.1,0.1l0.2,0.1l0.1,0.2l0.3,0
		c0,0,0,0.1,0,0.1c0.1,0,0.2,0.1,0.3,0.1c0,0,0,0,0,0s0,0,0,0l0.1,0.1c0,0,0.1,0,0.1,0.1l0.1,0c0,0,0,0.1,0,0.1
		c0.2,0.2,0.5,0.1,0.7,0.2c0.1,0,0.2,0,0.3,0c0.1,0,0.2,0,0.2,0c0.1,0,0.2,0,0.4,0l0.2,0.1h0.2c0.4,0.2,0.8,0.2,1.1,0
		c0,0,0.1,0,0.1,0.1c0.1,0,0.3,0,0.4-0.1l0,0c0.1-0.1,0.3,0,0.5-0.1h0c0.1-0.1,0.2,0,0.2-0.1c0.1-0.1,0.2,0,0.2-0.1h0
		c0,0,0-0.1,0-0.1l0.2,0c0-0.1,0.1-0.1,0.2-0.1c0.1-0.1,0.1-0.1,0.2-0.1l0.1-0.1c0,0,0-0.1,0-0.1l0.2,0c0-0.1,0.1-0.1,0.1-0.1
		c0-0.1,0.1-0.1,0.2-0.1c0-0.1,0.1-0.1,0.1-0.1c0-0.1,0.1-0.1,0.2-0.1c0,0,0-0.1,0-0.1c0,0,0.1,0,0.1,0c0-0.1,0.1-0.1,0.1-0.1
		c0-0.1,0.1-0.1,0.1-0.1c0-0.1,0.1-0.1,0.1-0.2l0.7-0.6c0-0.1,0-0.1,0.1-0.1l0.1-0.1c0-0.1,0.1-0.2,0.1-0.2v-0.1c0,0,0.1,0,0.1-0.1
		c0.1-0.1,0.1-0.2,0.1-0.2c0,0,0.1-0.1,0.1-0.1c0.1,0,0.1-0.2,0.1-0.2c0.1-0.1,0.1-0.2,0.1-0.2v0c0.1-0.1,0.1-0.2,0.1-0.2l0,0
		c0.1-0.1,0.1-0.2,0.1-0.2c0.1-0.1,0-0.2,0.1-0.3c0.1-0.1,0-0.3,0.1-0.4c0,0,0,0,0-0.1c0,0,0,0,0,0c0.1-0.1,0.1-0.2,0-0.2
		c0,0,0,0,0,0c0,0,0-0.1,0-0.1c0,0,0.1-0.1,0.1-0.1v0c0.2-0.3,0-0.6,0.1-0.9c0,0,0,0,0-0.1c0,0,0,0,0,0C25.1,10,25.1,9.6,25,9.3z
		 M6.5,11.4C6,11.2,5.5,10.9,5,10.5c-0.1-0.1-0.2-0.2-0.2-0.3C4.9,10.1,5,10,5.1,10.1c0,0,0.1,0,0.1,0c0.1,0,0.2,0,0.3,0.1
		c0.2,0.1,0.5,0.2,0.7,0.1c0.8,0,1.6-0.2,2.3-0.5c0,0,0.1-0.1,0.1-0.1s0.1-0.1,0.1-0.1c0.1,0,0.1-0.1,0.2-0.1c0,0,0.1-0.1,0.1-0.1
		c0.5-0.2,0.4,0.1,0.4,0.4c0,0.1-0.1,0.2-0.1,0.2c-0.1,0.2-0.1,0.5-0.1,0.7c0,0.1,0,0.2,0,0.3c0,0.1-0.1,0.3-0.2,0.3l-0.3,0.1
		l-1.4,0C7,11.7,6.8,11.5,6.5,11.4z M9.9,15.6c0.2,0.2,0.5,0.1,0.6,0.3c0,0.1,0,0.2,0,0.2c-0.1,0.2-0.2,0.4-0.2,0.6
		c-0.2,0.4-0.5,0.8-0.9,1.1c-0.2,0.1-0.4,0.3-0.6,0.4C8.3,18.8,7.5,19,6.8,19c-0.2-0.2,0-0.3,0.1-0.4c0.1-0.1,0.3-0.3,0.5-0.4
		c0,0,0.1-0.1,0.1-0.1c0,0,0,0,0.1-0.1c0.1-0.1,0.2-0.2,0.2-0.3c0,0,0.1-0.1,0.1-0.1c0.1-0.1,0.2-0.2,0.3-0.4c0-0.1,0.1-0.1,0.1-0.2
		c0.1-0.2,0.2-0.3,0.2-0.5c0.2-0.3,0.2-0.8,0.5-1.1c0.1-0.1,0.1-0.3,0.1-0.5c0,0,0-0.1,0-0.1c0,0,0,0,0,0c0,0,0-0.1,0-0.1
		c0-0.1,0.1-0.2,0.1-0.3c0.1,0.1,0.1,0.2,0.1,0.3c0.1,0.1,0.1,0.2,0.2,0.3c0,0.1,0.1,0.2,0.2,0.2C9.7,15.5,9.8,15.6,9.9,15.6z
		 M10.7,7l-0.2,0.1c-0.1,0-0.2-0.1-0.2-0.1C10.1,6.8,10,6.6,9.9,6.4C9.3,5.6,9.1,4.5,9.3,3.5c0-0.2,0.1-0.3,0.2-0.5L9.6,3
		c0.1,0.1,0.1,0.4,0.2,0.5C9.8,3.8,9.9,4,10,4.2l0.1,0c0.1,0,0.1,0.1,0.1,0.2c0.1,0.2,0.2,0.3,0.4,0.5c0,0,0.1,0.1,0.1,0.1L10.7,5
		c0.3,0.3,0.6,0.5,1,0.6c0.2,0,0.4,0.1,0.4,0.4C11.7,6.3,11.2,6.7,10.7,7z M16.1,5.2C15.7,5,15.2,4.9,14.7,5
		c0.1-0.4,0.2-0.8,0.3-1.2c0.2-0.3,0.3-0.5,0.4-0.8l0.2-0.2c0.2,0,0.2,0.1,0.2,0.2c0,0.1,0,0.2,0,0.4c-0.1,0.2-0.1,0.5,0,0.7
		c0.1,0.1,0,0.3,0.1,0.4c0,0.1,0,0.3,0.1,0.3c0,0.1,0.1,0.3,0.2,0.4C16.3,5.2,16.2,5.2,16.1,5.2z M14.9,11.4c0,0.1-0.1,0.2-0.2,0.2
		c0,0-0.1-0.1-0.1-0.1c-0.1-0.2-0.3-0.3-0.3-0.5c0.1-0.1,0.2,0,0.3,0c0.1,0,0.2,0,0.3-0.1l0.1,0c0,0.1,0,0.1,0,0.2
		C15,11.1,14.9,11.3,14.9,11.4z M16.1,13.8c-0.2,0.3-0.5,0.4-0.8,0.4c-0.1,0-0.3,0-0.2-0.2c0.2-0.3,0.4-0.7,0.4-1.1
		c0.3,0,0.5,0.4,0.8,0.4c0,0,0.1,0,0.1,0C16.4,13.6,16.2,13.7,16.1,13.8z M18.8,15.2L18.8,15.2c-0.1-0.1-0.1-0.1-0.1-0.2
		c0-0.6-0.4-1.2-0.9-1.5l0.2-0.2l0.7-0.2c0.1,0.1,0.1,0.4,0.2,0.5C18.9,14.2,19.3,14.7,18.8,15.2z M19.8,5.8
		c-0.1,0.2-0.2,0.5-0.3,0.8c-0.3,0-0.2-0.3-0.4-0.4C19.1,6.1,19,6,18.9,6c-0.1,0-0.2,0-0.2-0.1c0-0.1,0.1-0.2,0.1-0.3
		c0-0.3,0.2-0.5,0.5-0.6c0.3-0.2,0.7-0.4,1-0.5c0.1-0.1,0.3-0.1,0.3,0.1C20.2,4.9,20,5.3,19.8,5.8z M21.7,13.7
		c-0.1,0-0.2-0.1-0.2-0.2c-0.1-0.2-0.3-0.5-0.5-0.7c-0.1,0-0.1-0.2-0.2-0.2l0,0c0,0-0.1-0.1-0.1-0.1l0,0c0,0-0.1-0.1-0.1-0.1l0,0
		c0-0.1-0.2,0-0.2-0.1c-0.1-0.1-0.2,0-0.2-0.1c-0.1-0.1-0.2-0.1-0.1-0.3c0.1-0.2,0.2-0.3,0.3-0.5c0.2,0,0.3,0.2,0.5,0.2
		c0.1,0.1,0.2,0.2,0.4,0.3C21.6,12.5,21.8,13.1,21.7,13.7z M21.8,9.3c-0.3,0-0.6,0.2-0.9,0.3c-0.2-0.2,0-0.5-0.2-0.6l0-0.1
		c0-0.1,0-0.1-0.1-0.2c0.1-0.1,0.3-0.2,0.4-0.2c0.5,0,1,0,1.4,0.2c0.2,0.1,0.4,0.1,0.6,0.2C23.3,9,23.4,9,23.6,9.1c0,0,0,0.1,0,0.1
		C23,9.3,22.4,9.4,21.8,9.3z"/>
	<path class="st0" d="M48.5,22.3c0,0-0.1,0-0.1,0c0-0.1,0-0.3,0-0.4c-0.1-0.1-0.1-0.2-0.1-0.4c0,0,0-0.1,0-0.1
		c-0.1-0.1-0.1-0.2-0.1-0.3C48,21,48,20.8,47.9,20.7c-0.1,0-0.1-0.1-0.1-0.2l-0.2-0.1c0-0.1,0-0.1-0.1-0.2c0,0,0,0-0.1,0
		c0,0,0,0,0,0c0,0,0-0.1-0.1-0.1l0,0c0-0.1-0.1-0.1-0.1-0.1c0,0-0.1-0.1-0.1-0.1c0-0.1-0.1-0.1-0.1-0.1l0,0
		c-0.1-0.1-0.2-0.2-0.3-0.3c0,0-0.1-0.1-0.1-0.1c-0.1-0.1-0.2-0.1-0.2-0.1c-0.1-0.1-0.2-0.1-0.2-0.1h0C46.1,19,46,19,45.9,18.9
		c-0.1-0.1-0.3,0-0.3-0.1c-0.1-0.1-0.2-0.1-0.3-0.1c0,0,0,0-0.1,0c0,0,0,0,0,0c-0.1-0.1-0.2,0-0.3-0.1c0,0,0,0,0-0.1h0
		c-0.2-0.2-0.4,0-0.6-0.1c-0.2-0.2-0.5,0-0.7-0.1l-0.2,0c-1-0.1-2-0.1-3,0c0,0-0.1,0.1-0.1,0.1l-0.5,0l-2.3,0l-0.4,0
		c0,0,0-0.1,0-0.1c0,0-0.1,0-0.1,0c-0.2-0.1-0.4,0-0.5-0.1c0,0,0,0.1,0,0.1c0,0,0,0,0,0l-0.1,0c0,0-0.1-0.1-0.1-0.1c0,0-0.1,0-0.1,0
		c-0.2-0.1-0.4,0-0.6-0.1C35.3,18,35.2,18,35.1,18c0,0,0,0,0,0.1C35,18,34.9,18,34.8,18h0c-0.1-0.1-0.4,0-0.5-0.1c0,0-0.1,0-0.1,0
		c-0.1-0.1-0.2-0.1-0.3-0.1c0,0,0,0,0,0c0,0,0-0.1-0.1-0.1c0,0-0.1,0-0.1,0c-0.1-0.1-0.3,0-0.5-0.1c-0.1-0.1-0.3,0-0.4-0.1
		c-0.1-0.1-0.3,0-0.4-0.1c0,0-0.1,0-0.1,0c-0.1-0.1-0.2-0.1-0.2,0c0,0,0.1,0.1,0.1,0.1c0,0-0.1-0.1-0.1-0.1l-0.1-0.1
		c-0.1,0-0.2,0-0.3-0.1c-0.5-0.1-0.9-0.3-1.3-0.5c-0.1,0-0.2-0.1-0.2-0.2c-0.3,0-0.5-0.3-0.8-0.4l-0.3-0.2c-0.1,0-0.1,0-0.1-0.1
		c-0.1,0-0.3-0.1-0.3-0.3c-0.1,0-0.1,0-0.1-0.1c-0.1,0-0.1,0-0.1-0.1c-0.1,0-0.2-0.1-0.2-0.1l-0.1-0.1c-0.1,0-0.2-0.1-0.2-0.1
		c-0.1,0-0.2,0-0.2-0.1c-0.1,0-0.2,0-0.2-0.1l-0.2,0c0,0,0-0.1,0-0.1c-0.1-0.1-0.2-0.1-0.2-0.1h0c-0.1-0.1-0.2-0.1-0.3-0.1
		c0,0-0.1,0-0.1,0c-0.1-0.1-0.2,0-0.2-0.1c-0.1-0.1-0.3,0-0.5-0.1c-0.1-0.1-0.3,0-0.4-0.1c0,0-0.1,0-0.1,0c-0.2-0.1-0.4,0-0.6-0.1
		c0,0-0.1,0-0.1,0c-0.3-0.1-0.4,0-0.6,0.2c-0.1,0.1-0.1,0.2-0.1,0.2c0,0-0.1,0.1-0.1,0.1l0,0c-0.1,0.1-0.1,0.2-0.1,0.2
		c0,0-0.1,0.1-0.1,0.1l0,0c-0.1,0-0.1,0.2-0.1,0.2v0c0,0,0,0.1,0,0.1l-0.1,0l-0.1,0.1c0,0.1-0.1,0.2-0.2,0.2
		c-0.1,0.1-0.1,0.2-0.2,0.3c0,0.1-0.1,0.1-0.1,0.1L22.9,16c-0.1,0.2-0.3,0.4-0.5,0.5l-0.1,0.1l-0.1,0.1c0,0.1-0.1,0.1-0.1,0.1
		c0,0,0,0.1,0,0.1h-0.1c0,0.1-0.1,0.1-0.2,0.2c0,0-0.1,0.1-0.1,0.1c0,0.1-0.1,0.1-0.2,0.1l-0.1,0.1c0,0.1-0.1,0.1-0.2,0.1l-0.1,0.1
		h0c0,0-0.1,0-0.1,0c-0.1,0.1-0.3,0-0.4,0.1l0,0c-0.1,0.1-0.3,0-0.4,0.1c0,0-0.1,0-0.1,0c-0.1,0.2-0.6-0.2-0.5,0.3
		c0.1,0.1,0,0.3,0.1,0.5v0c0,0,0,0.1,0.1,0.1c0,0,0,0,0,0c0,0.1,0,0.2,0,0.3c0,0,0,0.1,0,0.1c0.1,0.5,0.1,1,0,1.5c0,0,0,0,0,0
		c0,0,0,0.1,0,0.1c0.1,0.1,0,0.2,0.1,0.2c0.1,0.1,0,0.2,0.1,0.2c0.1,0.1,0,0.2,0.1,0.2c0,0,0,0.1,0,0.1c0.1,0.1,0,0.2,0.1,0.3
		c0.1,0.1,0,0.3,0.1,0.5v0c0.1,0.1,0,0.3,0.1,0.4c0,0,0,0.1,0,0.1c0.1,0.1,0,0.3,0.1,0.5c0,0,0,0.1,0,0.1c0.1,0.1,0,0.3,0.1,0.5
		l0,0.2c0,0,0.1,0,0.1,0v0l0,0c0,0.2,0,0.3,0,0.5c0,0,0,0.1,0,0.1c0,0.1,0,0.1,0,0.2l0,0c0,0,0,0,0,0c0,0.1,0,0.3,0.1,0.4
		c0,0,0,0.1,0,0.1c0,0,0,0,0,0c0.1,0.2,0,0.5,0.1,0.7v0c0.1,0.2,0,0.5,0.1,0.7v0c0,0,0,0,0,0c0,0.2-0.1,0.4,0.1,0.6v0
		c0.1,0.2,0,0.4,0.1,0.6l0,0c0.1,0.1,0,0.3,0.1,0.4c0.1,0.1,0,0.3,0.1,0.4c0.1,0.1,0,0.3,0.1,0.3c0.1,0.1,0,0.2,0.1,0.2
		c0.1,0.1,0,0.3,0.1,0.3c0,0.1,0,0.2,0.1,0.2c0,0.1,0.1,0.1,0.1,0.1c0.1,0.1,0.1,0.2,0.1,0.2c0.1,0.1,0,0.2,0.1,0.2
		c0.1,0.1,0.1,0.3,0.2,0.4l0,0c0,0.1,0.1,0.1,0.1,0.1c0.1,0.1,0.1,0.3,0.3,0.3l0,0c0,0.1,0.1,0.1,0.1,0.1c0,0.1,0.1,0.1,0.1,0.1
		c0.1,0.1,0,0.3,0.1,0.4v0c0.1,0.1,0,0.3,0.1,0.5c0.1,0.2,0,0.4,0.1,0.6l0,0c0.1,0.2,0,0.5,0.1,0.7l0,0c0.1,0.1,0,0.3,0.1,0.5
		c0,0-0.1,0-0.1,0c0,0.1,0,0.1,0,0.2c0,0.1,0,0.2-0.1,0.3c-0.1,0.2-0.2,0.4-0.3,0.6c-0.1,0.1,0,0.3-0.1,0.4l0,0
		c-0.2,0.2,0,0.4-0.1,0.6c0,0,0,0,0,0.1c0,0,0,0,0,0c-0.2,0.3,0,0.7-0.1,1c0,0,0,0,0,0.1c0,0,0,0,0,0c-0.1,0.6-0.1,1.3,0,1.9l0,0
		c0.1,0.4,0.1,0.7,0,1.1l0,0c-0.1,0-0.1,0.2-0.1,0.2c0,0-0.1,0.1-0.1,0.1c0,0-0.1,0.1-0.1,0.1l0,0c0,0-0.1,0.1-0.1,0.1
		c-0.1,0.1-0.2,0.2-0.3,0.2c-0.1,0.1-0.2,0.1-0.3,0.3l0,0c-0.1,0-0.1,0.1-0.1,0.1c-0.1,0-0.1,0.1-0.1,0.1l0,0
		c-0.1,0-0.1,0.1-0.1,0.1c0,0-0.1,0.1-0.1,0.1c-0.1,0-0.1,0.1-0.1,0.1l0,0c-0.1,0-0.1,0.1-0.1,0.1l0,0c-0.1,0.1-0.2,0.2-0.3,0.3
		c0,0-0.1,0.1-0.1,0.1c-0.1,0.1-0.1,0.2-0.1,0.2c-0.1,0.2-0.3,0.4-0.3,0.7h0c0,0,0,0-0.1,0c0,0.2-0.1,0.3-0.1,0.5
		c0.7,0.2,1.4,0.2,2,0c0,0,0,0,0,0c0,0,0,0,0,0.1c0.4,0.1,0.7-0.3,1-0.4c0,0,0,0,0,0c0,0,0,0,0-0.1l0,0c-0.1-0.3,0.1-0.6-0.1-0.8
		l0,0c-0.1-0.2-0.1-0.4,0-0.6v0c0-0.1,0.2-0.1,0.2-0.1c0.2-0.1,0.5,0,0.7-0.1c0,0,0.1-0.1,0.1-0.1c0.2-0.1,0-0.3,0.1-0.5v0
		c0.1-0.2,0-0.4,0.1-0.6c0,0,0,0,0-0.1c0,0,0,0,0,0c0.2-0.2,0-0.5,0.1-0.7l0,0c0.2-0.2,0-0.5,0.1-0.7l0,0l0,0c0.2-0.2,0-0.5,0.1-0.7
		l0,0c0.2-0.2,0-0.5,0.1-0.7v0c0.2-0.2,0-0.4,0.1-0.6c0.1-0.1,0-0.3,0.1-0.4c0,0,0,0,0-0.1c0,0,0,0,0,0c0.1-0.2,0.1-0.4,0.2-0.6
		c0.1-0.1,0-0.3,0.1-0.3c0.1-0.1,0.1-0.2,0.1-0.3l0,0c0.1-0.5,0.1-1,0.1-1.5c0-0.1,0-0.1,0-0.2c0,0,0,0,0,0c0,0,0,0,0-0.1
		c0,0,0,0,0,0c0.2-0.3,0-0.7,0.1-1l0,0l0,0c0.1-0.2,0-0.4,0.1-0.6l0,0c0.1-0.2,0-0.3,0.1-0.5l0-0.1l0,0c0-0.1,0-0.2,0.1-0.3
		c0,0,0-0.1,0-0.1h0.3c0.2-0.1,0.5-0.1,0.7-0.1c0.1-0.1,0.3-0.1,0.5-0.1c0,0,0-0.1,0-0.1c0,0,0,0,0,0c0.1,0,0.2,0,0.3,0l0,0l0,0
		c0.1-0.1,0.3,0,0.4-0.1c0.1-0.1,0.3,0,0.5-0.1l0,0c0.1-0.1,0.3,0,0.4-0.1c0,0,0.1-0.1,0.1-0.1l0.1,0c0,0,0.1,0,0.1,0l0,0h0
		c0,0,0-0.1,0-0.1H30l0.1,0l0.2,0c0,0,0-0.1,0-0.1l0.3,0l0.1-0.1l0.3,0c0,0,0,0,0-0.1l0,0c0.1,0,0.2,0,0.3,0c0.1-0.1,0.3,0,0.5-0.1
		h0c0.1-0.1,0.3,0,0.4-0.1l0,0l0,0c0,0,0.1,0,0.1-0.1c0.1,0,0.2,0,0.3,0l0,0l0,0c0.1-0.1,0.3,0,0.4-0.1l0,0l0,0
		c0.1-0.1,0.3,0,0.4-0.1l0,0l0,0c0.2-0.1,0.4,0,0.5-0.1l0,0l0,0c0,0,0.1,0,0.1,0h0c0.2,0,0.4,0.1,0.6-0.1l0,0l0,0
		c0.5-0.1,1,0.1,1.4-0.1c0.1,0,0.1-0.1,0.1-0.1l1.1,0h0c0.2,0,0.4,0,0.6,0h0.4l0,0c0,0,0,0,0,0c0.2,0,0.4,0.1,0.5-0.1l0,0
		c0.1-0.1,0.3,0,0.4-0.1c0.1-0.1,0.2,0,0.2-0.1l0,0l0,0c0.1,0,0.2,0,0.3-0.1h0c0,0,0.1-0.1,0.1-0.1l0.3,0c0.2-0.1,0.5-0.2,0.7-0.1
		c0,0,0,0,0,0c0,0,0.1,0.1,0.1,0.1h0c0,0,0.1,0.1,0.1,0.1c0,0.1,0.1,0.1,0.1,0.1c0,0,0.1-0.1,0.1-0.1c0-0.1,0-0.2-0.1-0.2
		c-0.3-0.7-0.4-1.5-0.5-2.2c-0.2-0.8,0-1.6,0.4-2.3c0,0,0.1-0.1,0.1-0.1c0-0.1,0.1-0.1,0.1-0.2c0,0,0-0.1,0.1-0.1
		c0-0.1,0.1-0.1,0.1-0.2c0,0,0.1-0.1,0.1-0.1c0,0,0.1-0.1,0.1-0.1c0.1,0,0.1-0.1,0.2-0.1c0,0,0.1-0.1,0.1-0.1c0,0,0.1,0,0.1-0.1
		c0,0,0,0,0.1,0l0.1,0c0,0,0,0,0,0.1c0.1,0.2-0.1,0.4-0.2,0.6c-0.1,0.1-0.2,0.3-0.2,0.4c-0.2,0.5-0.4,1-0.4,1.5
		c-0.1,1.1-0.1,2.2,0.2,3.3c0,0.1,0,0.1,0,0.2c0,0.1-0.1,0.3-0.2,0.4l0,0c0,0,0,0,0,0c0.1,0.1,0.1,0.2,0.1,0.2
		c0.1,0.1,0.1,0.2,0.1,0.3c0,0,0.1,0,0.1,0l0,0.2c0.1,0.1,0.1,0.2,0.1,0.3c0.1,0.1,0.1,0.2,0.1,0.3c0.1,0.1,0.1,0.2,0.1,0.3
		c0.1,0.1,0.1,0.2,0.1,0.3c0.1,0.1,0.1,0.2,0.1,0.2c0.1,0.1,0.1,0.2,0.1,0.3c0.1,0.1,0.1,0.2,0.1,0.2c0.1,0.2,0.1,0.3,0.2,0.5
		c0.1,0.1,0.1,0.1,0.1,0.2c0.1,0,0.1,0.1,0.1,0.2c0.1,0,0.1,0.1,0.1,0.2c0.1,0.1,0.1,0.2,0.1,0.3c0.1,0.1,0.1,0.2,0.1,0.4l0.1,0.1
		c0,0.4,0,0.9,0,1.3c0,0.2,0,0.3-0.1,0.4c0,0.1,0,0.3-0.1,0.4c0,0.1,0,0.2,0,0.3c0,0-0.1,0-0.1,0c0,0.1,0,0.3-0.1,0.3l0,0.2
		c0,0-0.1,0-0.1,0v0c-0.1,0.1,0,0.3-0.1,0.4v0c-0.1,0.1-0.1,0.1-0.1,0.2c0,0,0,0,0,0c0,0-0.1,0-0.1,0c0,0,0,0.1,0,0.1
		c0,0,0,0.1,0,0.1L43.3,38c0,0.1,0,0.3-0.1,0.3c0,0.1,0,0.2-0.1,0.2c0,0.1,0,0.3-0.1,0.3c0,0.1,0,0.2-0.1,0.2c0,0.1,0,0.2-0.1,0.3
		c0,0.1,0,0.2-0.1,0.2c0,0.1,0,0.2,0,0.3l-0.1,0c0,0.1,0,0.2-0.1,0.2c0,0.1,0,0.2-0.1,0.2c0,0,0,0.1,0,0.1c0,0-0.1,0-0.1,0.1
		l-0.3,0.2l-0.1,0.1l-0.1,0.1c0,0,0,0.1,0,0.1c0,0-0.1,0-0.1,0c-0.1,0.1-0.2,0.2-0.3,0.3l-0.1,0.1c0,0.1-0.1,0.1-0.1,0.1l-0.1,0.1
		c0,0,0,0.1,0,0.1l-0.3,0.2l-0.1,0.1l-0.1,0.1l-0.1,0.1c0,0,0,0.1,0,0.1c0,0-0.1,0-0.1,0c0,0,0,0.1,0,0.1c0,0-0.1,0-0.1,0
		c0,0-0.1,0.1-0.1,0.1c0,0.1-0.1,0.3-0.3,0.3c-0.1,0.1-0.1,0.3-0.2,0.4c-0.2,0-0.3,0.1-0.3,0.4c0.1,0.1,0.2,0.3,0.4,0.3
		c0,0,0.1,0,0.1,0.1c0.6,0,1.2,0,1.8-0.1c0.1,0,0.1,0,0.2-0.1c0,0,0.1,0,0.1,0c0.2,0,0.4,0,0.5-0.1h0c0.4,0,0.6-0.2,0.5-0.6
		c-0.1-0.3,0-0.5,0-0.8c0,0,0-0.1,0-0.1c0.1-0.1,0.1-0.3,0-0.4c0,0,0.1-0.1,0.1-0.1v0c0,0,0.1-0.1,0.1-0.1c0.2-0.1,0.3,0,0.5-0.1
		c0.2,0,0.4,0,0.3-0.3l0,0c-0.1-0.4-0.3-0.7-0.1-1.1c0,0,0-0.1,0-0.1c0.1-0.1,0-0.3,0.1-0.4v0c0.1-0.1,0-0.3,0.1-0.3
		c0.1-0.1,0.1-0.2,0.1-0.2v0c0.1-0.1,0.1-0.2,0.1-0.2v0c0.1-0.1,0.1-0.2,0.1-0.2v0c0.1-0.1,0.1-0.2,0.1-0.2c0,0,0.1-0.1,0.1-0.1l0,0
		c0.1-0.1,0.1-0.2,0.1-0.2c0,0,0.1-0.1,0.1-0.1l0,0c0.1,0,0.1-0.2,0.1-0.2v0c0,0,0.1-0.1,0.1-0.1c0,0,0.1-0.1,0.1-0.1l0,0
		c0,0,0.1-0.1,0.1-0.1l0,0c0,0,0.1-0.1,0-0.1c0,0,0,0,0,0l0.1,0c0.1-0.2,0.3-0.3,0.4-0.5c0.1,0,0.1-0.1,0.1-0.1l0.3-0.3
		c0,0,0-0.1,0-0.1c0,0,0.1,0,0.1,0c0-0.1,0.1-0.2,0.1-0.2c0,0,0.1-0.1,0.1-0.1c0-0.1,0.1-0.2,0.1-0.2c0-0.1,0-0.1,0-0.2
		c0,0,0.1,0,0.1-0.1v0c0.2-0.2,0-0.5,0.1-0.7c0,0,0-0.1,0-0.1c-0.1-0.2,0-0.5-0.1-0.7c-0.1-0.1,0-0.3-0.1-0.4
		c-0.2-0.1,0.1-0.4-0.2-0.5c0,0,0,0,0,0v0c0-0.2,0-0.3-0.1-0.4c0-0.2,0-0.4-0.1-0.6c-0.1-0.6-0.2-1.2-0.1-1.8l0.1,0
		c0-0.1,0-0.3,0-0.4l0.1,0c0-0.1,0-0.2,0-0.3c0,0,0.1,0,0.1,0c0-0.1,0-0.3,0.1-0.3c0-0.1,0-0.2,0.1-0.3c0-0.1,0.1-0.2,0.1-0.3
		c0-0.1,0-0.2,0.1-0.2c0-0.1,0-0.2,0.1-0.2c0-0.1,0-0.2,0.1-0.2c0.1-0.2,0.2-0.3,0.2-0.5c0.1-0.2,0.2-0.3,0.2-0.5
		c0-0.1,0-0.2,0.1-0.2c0.1-0.3,0.2-0.5,0.4-0.7c0-0.1,0-0.2,0.1-0.2c0-0.1,0-0.3,0.1-0.3c0-0.1,0-0.3,0.1-0.4c0-0.1,0-0.3,0.1-0.4
		c0-0.2,0-0.4,0.1-0.6c0,0,0-0.1,0-0.1C48.5,23.6,48.5,23,48.5,22.3C48.5,22.4,48.5,22.3,48.5,22.3z M21.6,20.5
		c-0.2-0.2-0.5-0.3-0.8-0.2c-0.2,0-0.3-0.1-0.3-0.3c0-0.1,0-0.1,0-0.2c0-0.2-0.2-0.3-0.1-0.5c0.2-0.2,0.3,0,0.5,0
		c0.3,0,0.4,0.3,0.6,0.4c0.3,0.2,0.5,0.3,0.8,0.4c0.1,0,0.3,0,0.2,0.2C22.2,20.5,21.9,20.5,21.6,20.5z M22.9,29.5
		c0,0.1-0.1,0.2-0.2,0.2c0,0,0-0.1,0-0.1c0-0.1,0-0.2-0.1-0.3c-0.3-0.8-0.6-1.7-0.7-2.6c0-0.6-0.2-1.3,0.3-1.8
		c0.2-0.1,0.4-0.2,0.5,0.1c0.1,0.4-0.2,0.8-0.1,1.2c0.2,0.4,0,0.9,0.1,1.3c0.1,0.4,0.1,0.8,0.2,1.2c0,0.1,0,0.3,0,0.4
		c0,0.1,0,0.1,0,0.2C22.9,29.3,22.9,29.4,22.9,29.5z M27.1,29.2c-0.1,0.3-0.2,0.6-0.2,1l-0.2,0.3c0,0,0,0.1-0.1,0.1l0,0
		c0,0-0.1-0.1-0.1-0.1c0,0,0-0.1,0-0.1c0.1-0.1,0-0.3,0.1-0.4c0.1-0.4,0.1-0.8,0.2-1.1c0-0.2,0-0.4,0.1-0.6c0.2-0.3-0.2-0.7,0.1-1
		c0.1-0.5,0.1-0.9,0.1-1.4c-0.1-0.3,0-0.7-0.1-1c-0.1-0.3,0-0.6-0.1-0.9c0-0.7-0.4-1.3-1.1-1.6c-0.1,0-0.1,0-0.1-0.1
		c-0.3-0.3-0.2-0.3,0.1-0.4l0.5-0.1c0,0,0.1-0.1,0.1,0c0.6,0.3,1,0.8,1.2,1.4c0,0.1,0.1,0.1,0.1,0.2c0.1,0.3,0.1,0.7,0.2,1
		c0.1,0.6,0.1,1.2-0.1,1.7C27.5,27.1,27.4,28.2,27.1,29.2z M37.9,27.7c-1.3,0.1-2.5,0.2-3.8,0.4c-0.1,0-0.1,0-0.2,0.1
		c-0.2,0-0.5,0-0.7,0.1c-0.3,0-0.7,0.1-1,0.2c-0.4,0.1-0.9,0.2-1.3,0.3c-0.3,0-0.6,0.1-0.8,0.3c-0.1,0.1-0.2,0.1-0.4,0.2
		c-0.1,0-0.2,0-0.3,0h-0.1c-0.6,0.2-1.2,0.4-1.8,0.7c-0.3-0.1-0.2-0.3-0.2-0.5c0-0.3,0.2-0.4,0.5-0.5c0.7-0.2,1.4-0.3,2.1-0.5
		c0.9-0.2,1.7-0.4,2.6-0.6c0.7-0.1,1.4-0.3,2.1-0.4c1-0.2,2-0.2,3,0C37.9,27.5,37.9,27.6,37.9,27.7z"/>
</g>
</svg>
