<?xml version="1.0" encoding="utf-8"?>
<!-- Generator: Adobe Illustrator 22.1.0, SVG Export Plug-In . SVG Version: 6.00 Build 0)  -->
<svg version="1.1" id="Layer_1" xmlns="http://www.w3.org/2000/svg" xmlns:xlink="http://www.w3.org/1999/xlink" x="0px" y="0px"
	 viewBox="0 0 60 40" style="enable-background:new 0 0 60 40;" xml:space="preserve">
<style type="text/css">
	.st0{fill:#FFFFFF;}
</style>
<g>
	<path class="st0" d="M59.9,27.8c0-0.3,0-0.7-0.1-1v-0.1c0-0.1,0-0.2-0.1-0.3c0,0,0,0,0-0.1s0-0.2-0.1-0.3l0,0h-0.1
		c0-0.1,0-0.1,0-0.2l0,0l0,0c0-0.1,0-0.1-0.1-0.2c0-0.1,0-0.2-0.1-0.2l0,0l0,0c-0.1-0.1-0.1-0.2-0.2-0.3l0,0c-0.1,0-0.1-0.1-0.2-0.2
		l0,0c-0.1-0.1-0.1-0.2-0.2-0.3c0,0,0,0-0.1,0l0,0c0,0,0,0,0-0.1s-0.1-0.2-0.1-0.2s0-0.1-0.1-0.1l-0.1-0.1L58.2,24
		c0,0-0.1-0.1-0.1-0.2S58,23.7,58,23.6l-0.1-0.1l-0.1-0.1c0,0,0-0.1-0.1-0.1c0,0,0-0.1-0.1-0.1l0,0c0,0,0-0.1-0.1-0.1
		c0,0,0-0.1-0.1-0.1c0,0,0-0.1-0.1-0.1c0,0,0-0.1-0.1-0.1c0,0,0-0.1-0.1-0.1L57,22.6c0-0.1-0.1-0.1-0.1-0.2c0,0,0-0.1-0.1-0.1
		c-0.1-0.1-0.1-0.2-0.2-0.2L56.5,22v-0.1c-0.1-0.1,0-0.2-0.1-0.2l-0.1-0.1l0,0c0-0.1,0-0.1,0-0.2h-0.1c0-0.1,0-0.2,0-0.3L56.1,21
		v-0.1c0-0.3,0-0.6,0-0.9c0-0.1,0-0.3,0.1-0.4c0-0.1,0-0.2,0-0.3c0.1,0,0.1,0,0.2,0v0.1v0.1l0,0c0,0,0,0.1,0.1,0.1c0,0,0,0,0,0.1
		s0.1,0.1,0.1,0.1l0.1,0.1l0,0c0.1,0.1,0.1,0.2,0.3,0.2s0.1-0.2,0.1-0.3c0-0.1,0-0.2,0-0.3c0,0,0.1,0,0.1-0.1v-0.1
		c0.1-0.1,0-0.2,0.1-0.2V19c0-0.1,0-0.1,0-0.2h0.1v-0.1l0.1-0.1l0.1-0.1c0-0.1,0.1-0.2,0.1-0.2c0-0.1,0-0.2,0.1-0.2
		c0-0.1,0-0.2,0.1-0.2l0.1-0.1c0-0.1,0-0.1,0-0.2h0.1v-0.1h0.1v-0.1c0.1-0.1,0-0.2,0.1-0.2v-0.1c0-0.2,0-0.4,0-0.7v-0.1
		c-0.1-0.1,0-0.2-0.1-0.2V16c-0.1-0.1,0-0.2-0.1-0.2L58,15.7c-0.1-0.2,0-0.4-0.1-0.5v-0.1c-0.1-0.2,0-0.4-0.1-0.5s0-0.3-0.1-0.4
		l-0.1-0.1c0-0.1,0-0.1,0-0.2c-0.1-0.1-0.1-0.2-0.1-0.3h-0.1c0-0.1,0-0.1,0-0.2v-0.1h-0.1c0-0.1,0-0.1,0-0.2c-0.1,0-0.1-0.1-0.1-0.2
		c-0.1-0.1-0.1-0.1-0.1-0.2c-0.1-0.1-0.1-0.3-0.2-0.4c-0.1,0-0.1-0.1-0.1-0.2c0,0,0,0-0.1,0V12v-0.1l-0.1-0.1
		c-0.1-0.1,0-0.2-0.1-0.2h-0.1c0,0,0,0,0-0.1l-0.1-0.1c-0.1,0-0.1-0.1-0.1-0.2l-0.1-0.1L56,11l-0.1-0.1h-0.1
		c-0.1-0.1-0.3-0.3-0.4-0.4c-0.1-0.1-0.2-0.2-0.3-0.4L55,9.2l-0.1-0.1L54.8,9l-0.1-0.1l-0.1-0.1l-0.1-0.1l-0.1-0.1l-0.1-0.1
		l-0.1-0.1l-0.1-0.1c-0.2-0.1-0.3-0.2-0.4-0.3c-0.2-0.2-0.3-0.3-0.5-0.5L53,7.2h-0.1V7.1C52.8,7,52.7,7,52.7,6.9l-0.1-0.1l-0.1-0.1
		l-0.1-0.1l-0.1-0.1c-0.2-0.1-0.3-0.2-0.4-0.4L51.7,6c-0.1,0-0.1,0-0.1-0.1h-0.1V5.8h-0.1V5.7c-0.2-0.1-0.3-0.2-0.4-0.4
		c-0.1,0-0.1,0-0.1-0.1c-0.1,0-0.1,0-0.1-0.1c-0.1,0-0.2-0.1-0.3-0.2c-0.1,0-0.1,0-0.1-0.1c-0.1,0-0.2-0.1-0.2-0.1
		c-0.1,0-0.1,0-0.1-0.1c-0.1,0-0.2-0.1-0.2-0.1c-0.1,0-0.1,0-0.1-0.1c-0.2-0.1-0.3-0.2-0.3-0.3c-0.1,0-0.1-0.1-0.1-0.1
		c-0.1,0-0.1-0.1-0.1-0.2c-0.1-0.1-0.2-0.2-0.2-0.3C49,3.5,49,3.4,49,3.3c0,0,0,0-0.1,0l0,0c0,0,0,0,0-0.1V3.1c0,0,0,0-0.1,0l0,0
		c0-0.1,0-0.1,0-0.2c-0.1-0.1-0.2-0.2-0.2-0.3l0,0l0,0c0-0.1-0.1-0.2-0.2-0.3l0,0C48.1,2,48,2,48,2l-0.2-0.1c0-0.1,0-0.1-0.1-0.2
		h-0.1l0,0V1.6h-0.1V1.5l0,0V1.4c0,0,0,0,0-0.1c0,0,0-0.1-0.1-0.1l0,0l-0.1-0.1l0,0L47.2,1c0,0-0.1,0-0.1-0.1L47,0.8l0,0l-0.1-0.1
		l0,0l-0.1-0.1c0,0-0.1,0-0.1-0.1l-0.1-0.1l0,0c0,0-0.1,0-0.1-0.1h-0.1c-0.1,0-0.1,0-0.2-0.1c0,0-0.1,0-0.1-0.1C46,0.1,46,0,45.9,0
		h-0.1c-0.2,0-0.4,0-0.6,0H45c-0.2,0.1-0.4,0.1-0.6,0h-0.1L44,0.1c0,0-0.1,0-0.1,0.1c-0.1,0.1-0.2,0.1-0.3,0.1c0,0-0.1,0-0.1,0.1
		c-0.1,0-0.1,0.1-0.2,0.1v0.1l0,0h-0.1c0,0.1-0.1,0.1-0.1,0.1c0,0.1,0,0.1-0.1,0.1c0,0.1,0,0.1-0.1,0.1c-0.1,0.1-0.2,0.2-0.3,0.3
		c-0.5,0.6-1,1.2-1.4,1.7c-0.2,0.2-0.3,0.6-0.1,0.8C40.9,4,41,4.1,41,4.2l-0.1,0.1c-0.3-0.1-0.3-0.1-0.3,0.1c0,0.3,0,0.5,0.1,0.8
		v0.1c0,0.2,0,0.5,0.1,0.7c0,0.5,0.1,1,0.3,1.5c0,0.2,0.1,0.5,0.2,0.7c0.1,0.3,0.2,0.5,0.3,0.8c0.1,0.1,0.1,0.1,0.1,0.2l0.2,0.2
		c0,0.1,0,0.1,0.1,0.2c0.1,0.2,0.2,0.3,0.3,0.4c0,0.1,0,0.1,0.1,0.1c0,0.1,0.1,0.1,0.1,0.1c0.2,0.2,0.4,0.3,0.6,0.4
		c0.1,0.1,0.3,0,0.4-0.1l0,0l0,0v-0.1l0,0h0.1c0-0.1,0.1-0.2,0.1-0.3l0.1-0.1l0,0c0.1,0,0.1-0.1,0.1-0.2c0.1-0.2,0.2-0.4,0.3-0.7
		c0.2-0.3,0.3-0.6,0.3-1c0.2-0.6,0.1-0.9-0.6-1.2c-0.4-0.2-0.9-0.4-1.4-0.6c-0.4-0.4-0.8-0.7-1.1-1.2L41.3,5l-0.1-0.1l0,0l-0.1-0.1
		c0,0,0,0-0.1-0.1l0.1-0.1l0.1,0.1l0.1,0.1L41.8,5c0.5,0.4,1,0.7,1.5,1.1c0.3,0.2,0.5,0.3,0.9,0.4c0.2,0.1,0.4,0.3,0.6,0.3L45,7.1
		c0,0.1,0.1,0.1,0.1,0.1l0,0c0.2,0.3,0.4,0.6,0.5,0.9c0.1,0.2,0.1,0.5,0.1,0.7c0,0.1,0,0.2,0.1,0.3c0,0.1,0,0.3,0.1,0.3
		c0.2,0.4,0.4,0.8,0.8,1c0.3,0.4,0.7,0.7,1.2,0.9l0.5,0.8c0.1,0.3,0.2,0.6,0.2,1c0,0.1,0,0.3,0,0.4c0.1,0.3,0.1,0.6,0,1
		c0,0.1,0,0.2,0,0.3c0,0.5-0.1,1-0.2,1.5c-0.1,0.7-0.2,1.5-0.2,2.2c0.1,0.2,0,0.4,0.1,0.6c0.1,0.1,0,0.2,0.1,0.3
		c0.1,0.1,0,0.2,0.1,0.2v0.1c0,0.1,0,0.2,0.1,0.2c0.1,0.1,0,0.2,0.1,0.2v0.1c0,0.1,0,0.2,0.1,0.2c0.1,0.1,0,0.2,0.1,0.3
		c0.1,0.1,0,0.2,0.1,0.3v0.1c0.1,0.1,0,0.2,0.1,0.3v0.1c0,0.1,0,0.3,0,0.4s0,0.1,0,0.1c0.1,0.2,0.1,0.5,0,0.7v0.1c0,0.1,0,0.2,0,0.3
		v0.1c0,0.1,0,0.1-0.1,0.2c0,0,0,0.1-0.1,0.1c0,0,0,0.1-0.1,0.1l0,0c0,0,0,0.1-0.1,0.1c0,0,0,0.1-0.1,0.1c0,0,0,0.1-0.1,0.1l0,0
		L48.4,24c0,0,0,0.1-0.1,0.1l-0.1,0.2v0.1c0,0.1,0,0.2-0.1,0.2v0.1c0,0.1-0.1,0.2-0.1,0.3v0.1c0,0.3,0.1,0.6,0,0.8V26
		c0,0,0,0.1,0.1,0.1v0.1l0.1,0.1h0.1h0.1h0.1l0.1-0.1c0,0,0,0,0-0.1V26c-0.1-0.2-0.1-0.3,0-0.5l0.1-0.1c0-0.1,0.1-0.2,0.1-0.2
		s0,0,0-0.1c0,0,0-0.1,0.1-0.1l0,0l0.1-0.1c0,0,0-0.1,0.1-0.1c0-0.1,0.1-0.1,0.2-0.2c0,0,0.1,0,0.1-0.1c0.1,0,0.1-0.1,0.2-0.1h0.1
		c0.1,0,0.1,0,0.2-0.1c0,0,0.1,0,0.1-0.1l0.1-0.1l0,0l0.1-0.1v-0.1c0-0.1,0-0.2,0-0.2v-0.1c0.1,0,0,0,0,0c0,0.1,0,0.2,0,0.3
		c0.2,0.4,0.2,0.8,0,1.2c0,0,0,0.1-0.1,0.1c0,0.1,0,0.3-0.1,0.4v0.1c0,0.1,0,0.1,0,0.2V26c0,0.1,0,0.1-0.1,0.1l0,0
		c0,0,0,0.1-0.1,0.1c0,0,0,0.1-0.1,0.1c0,0,0,0.1-0.1,0.1l0,0c0,0,0,0.1-0.1,0.1l0,0c0,0-0.1,0-0.1,0.1l0,0c0,0,0,0-0.1,0.1l0,0
		c0,0,0,0-0.1,0.1l0,0c0,0-0.1,0-0.1,0.1l0,0c0,0-0.1,0-0.1,0.1l0,0l-0.1,0.1c0,0,0,0.1-0.1,0.1c0,0.1-0.1,0.1-0.1,0.2v0.1
		c0,0.1-0.1,0.2-0.1,0.3c0,0.1,0,0.1,0,0.1c0,0.4,0,0.7,0,1.1c0,0.1,0.1,0.2,0.2,0.2v0.1c0,0.1,0,0.1,0,0.2v0.1l0,0l0,0
		c0,0.1,0,0.2,0.1,0.3c0.1,0.1,0,0.2,0.1,0.3h0.1c0,0.1,0,0.1,0,0.2c0,0,0,0,0,0.1s0,0.1,0.1,0.2l0,0c0.1,0,0,0.2,0.1,0.2l0.1,0.1
		l0,0l0.1,0.1l0,0h0.1c0.1-0.1,0.1-0.2,0-0.3l0,0l0,0c-0.1-0.1,0-0.2-0.1-0.2c-0.1-0.1,0-0.2-0.1-0.2l0,0c0,0,0,0,0-0.1v-0.1l0,0
		l0,0c0-0.1,0-0.1,0-0.1l0,0c0-0.1,0-0.2,0.1-0.3l0,0c0.1-0.1,0-0.2,0.1-0.3l0.1-0.1l0,0c0.1,0,0.1-0.2,0.1-0.2l0.1-0.1l0,0
		c0.1-0.2,0.3-0.3,0.4-0.4l0,0c0.1-0.1,0.2-0.1,0.2,0v0.1c-0.1,0.1-0.1,0.2,0,0.3l0,0v0.1l0,0c0,0,0,0-0.1,0
		c-0.1,0.1-0.1,0.2-0.1,0.3v0.1c-0.1,0.1,0,0.2-0.1,0.2l0,0c-0.1,0.1-0.1,0.1,0,0.2h-0.1v0.1v0.1l0,0c0,0.1,0,0.2-0.1,0.3
		c0,0.1,0,0.2,0,0.2c0,0.1,0,0.2,0.1,0.3l0.1,0.1c0,0.1,0,0.1,0,0.2l0,0c0.1,0.1,0,0.2,0.1,0.3l0,0l0,0c0,0.1,0.1,0.1,0.1,0.2l0,0
		v0.1c0.1,0.1,0.1,0.1,0.1,0.2h0.1c0,0.2,0.1,0.2,0.2,0.1c0.1-0.1,0.1-0.1,0-0.2l0,0c0-0.1,0-0.1,0-0.2v-0.1v-0.1l0,0
		c0-0.1,0-0.1,0-0.2v-0.1c0,0,0,0,0-0.1s0-0.1,0-0.2v-0.1l0,0l0,0c0-0.2-0.1-0.4,0.1-0.6c0.3-0.2,0.6-0.1,0.8,0.2l0,0
		c0.1,0.1,0,0.3,0.1,0.4l0,0c0,0,0.1,0,0.1,0.1s0,0.2,0,0.3c0.1,0.1,0.1,0.1,0.2,0.2c0.1,0,0.1,0,0.2,0c0.2,0,0.2,0.1,0.1,0.2
		c0,0.1-0.1,0.1-0.1,0.1c0,0.1,0,0.1-0.1,0.1c0,0.1-0.1,0.2-0.1,0.2c0,0.1,0,0.2-0.1,0.2c0,0.2,0,0.3-0.1,0.4
		c-0.1,0.9-0.1,1.7,0,2.6c0.1,0.2,0.2,0.4,0.4,0.4l0.1-0.1c0-0.1,0.1-0.2,0.1-0.2c0.1-0.1,0.2-0.3,0.2-0.4c0-0.1,0.1-0.3,0.2-0.3
		c0-0.1,0-0.2,0.1-0.2c0-0.1,0-0.1,0.1-0.1v-0.2h0.1v-0.1l0,0h0.1V34h0.1v-0.1h0.1v-0.1h0.2v-0.1h0.1v-0.1c0.1,0,0.1,0,0.2-0.1
		c0-0.1,0.1-0.1,0.1-0.1c0-0.1,0-0.1,0.1-0.2l0.2-0.2c0,0,0,0,0.1,0.1c0,0.1,0,0.1,0,0.2c0.1,0.3-0.1,0.5,0.1,0.8
		c0.1,0.1,0,0.2,0.1,0.3l0,0l0.1,0.1l0,0h0.1l0,0c0.1,0,0.1-0.1,0.1-0.1l0,0c0.1-0.1,0.1-0.1,0-0.2c0-0.1,0-0.2,0-0.3
		c0.1-0.1,0-0.3,0.1-0.4c0.1-0.1,0.1-0.2,0.1-0.2c0.1-0.1,0.1-0.1,0-0.2h0.1V33h0.1v-0.1c0-0.1,0.1-0.1,0.1-0.2h0.1v-0.1h0.1
		c0-0.1,0-0.1,0.1-0.1c0-0.1,0-0.1,0.1-0.1c0.1-0.2,0.3-0.4,0.5-0.5c0-0.1,0.1-0.1,0.1-0.1c0-0.1,0-0.1,0.1-0.1c0-0.1,0-0.1,0.1-0.1
		c0-0.1,0-0.1,0.1-0.1c0-0.1,0-0.1,0.1-0.1c0-0.1,0.1-0.2,0.2-0.3c0-0.1,0-0.1,0.1-0.1c0-0.1,0.1-0.2,0.1-0.2c0-0.1,0-0.2,0.1-0.2
		c0-0.1,0-0.2,0.1-0.2c0-0.1,0-0.2,0.1-0.2c0-0.1,0-0.2,0.1-0.3c0-0.2,0-0.3,0.1-0.4c0-0.2,0-0.3,0-0.5l0,0h0.1c0-0.1,0-0.1,0-0.2
		c0.1-0.4,0.1-0.8,0-1.2v-0.1c-0.1-0.2,0-0.4-0.1-0.6c-0.1-0.1,0-0.2-0.1-0.3v-0.1c0-0.1,0-0.2-0.1-0.2l0,0c-0.1-0.1,0-0.2-0.1-0.2
		l0,0c-0.1-0.1,0-0.2-0.1-0.2l0,0c-0.1-0.1,0-0.2-0.1-0.2l0,0c0-0.1,0-0.2-0.1-0.2l0,0c0-0.1,0-0.2-0.1-0.2l0,0c0,0,0,0-0.1,0v-0.1
		v-0.1l0,0l0,0c0-0.1,0-0.1-0.1-0.2v-0.1l0,0v-0.1H57l0.1,0.1l0,0c0,0.1,0.1,0.1,0.2,0l0,0v0.1h0.1V25c0.3,0.1,0.5,0.4,0.7,0.6
		l0.1,0.1c0.1,0,0.1,0.1,0.1,0.2c0,0,0,0,0.1,0V26c0,0,0,0,0,0.1s0,0.2,0.1,0.3l0,0l0,0c0,0.1,0,0.2,0.1,0.2c0.1,0.1,0,0.2,0.1,0.3
		c0.1,0.2,0,0.4,0.1,0.6v0.1c0.1,0.1,0.1,0.3,0,0.4v0.1c-0.1,0.1,0,0.3-0.1,0.4s0,0.2-0.1,0.3c-0.1,0.1-0.1,0.2,0,0.2l0,0h0.1h0.1
		l0,0l0.1-0.1l0,0l0.1-0.1l0,0l0.1-0.1l0,0c0,0,0-0.1,0.1-0.1c0,0,0-0.1,0.1-0.1l0.1-0.1l0,0c0,0,0-0.1,0.1-0.1v-0.1
		c0-0.1,0.1-0.2,0.1-0.3C60,27.9,60,27.9,59.9,27.8z"/>
	<path class="st0" d="M50.2,32.1L50.2,32.1L50.2,32.1z"/>
	<polygon class="st0" points="58.7,24.5 58.7,24.6 58.7,24.6 	"/>
	<path class="st0" d="M55,38.4L55,38.4c-0.2-0.1-0.2-0.1-0.3-0.1c-0.4,0-0.8,0-1.1,0l0,0c-0.1-0.1-0.2,0-0.3-0.1s-0.2,0-0.3-0.1
		c-0.1,0-0.1-0.1-0.2,0l0,0c0,0,0,0-0.1,0l0,0c-0.1-0.1-0.2,0-0.3-0.1l0,0c-0.1-0.1-0.2,0-0.3-0.1l0,0l0,0c-0.1-0.1-0.2-0.1-0.3-0.1
		l0,0c0,0,0,0,0-0.1h-0.2v-0.1c-0.1,0-0.2,0-0.2-0.1c-0.1,0-0.3-0.1-0.3-0.2H51v-0.1c-0.1,0-0.2-0.1-0.2-0.1c-0.1,0-0.1,0-0.1-0.1
		c-0.1,0-0.1,0-0.1-0.1c-0.2-0.1-0.3-0.2-0.4-0.3c-0.1,0-0.1,0-0.1-0.1H50v-0.1c-0.1,0-0.2-0.1-0.2-0.1h-0.2v-0.1
		c-0.4,0-0.7,0-1.1,0l-0.1,0.1h-0.2c-0.2,0.1-0.4,0.2-0.7,0.2l0,0l0,0c-0.1,0-0.2,0-0.3,0.1c0,0,0,0-0.1,0l0,0
		c-0.2,0.1-0.4,0-0.6,0.1h-0.1l0,0c-0.1,0-0.2,0-0.3,0.1h-0.2l0,0l-0.1-0.1h-0.2c-0.3-0.1-0.5,0-0.8-0.1h-0.1l0,0
		c-0.2-0.1-0.4,0-0.6-0.1l0,0c-0.2-0.2-0.5,0-0.7-0.1s-0.4-0.1-0.5,0v-0.1l0,0c-0.2-0.2-0.5,0-0.8-0.1l0,0c-0.2-0.1-0.3,0-0.5-0.1
		l0,0h-0.2c-0.2-0.1-0.5,0-0.7-0.1h-0.1c-0.3-0.2-0.6,0-0.9-0.1c-0.4-0.2-0.8,0-1.1-0.1h-1.3l-0.1,0.1h-0.9C36.1,36,35.9,36,35.6,36
		l0,0l0,0c-0.1,0-0.3,0-0.4,0.1h-0.1c0,0,0,0-0.1,0.1c-0.1-0.1-0.2,0-0.3,0c-0.1,0.1-0.2,0-0.3,0.1c0,0,0,0-0.1,0c0,0-0.1,0-0.1,0.1
		h-0.1H34h-0.1c0,0.1-0.1,0-0.1,0c-0.1,0-0.2,0-0.3,0.1c-0.1,0-0.1,0.1-0.2,0.1l0,0c0,0,0-0.1,0.1-0.1c0,0,0,0,0-0.1l0,0
		c0,0,0.1,0,0.1-0.1l0.1-0.1l0,0l0.1-0.1l0.1-0.1c0.1-0.1,0.2,0,0.2-0.1l0,0l0.1-0.1l0,0l0.1-0.1l0,0c0-0.1,0.2,0,0.2-0.1l0,0
		c0.1,0,0.2,0,0.2-0.1c0.1,0,0.2,0,0.2-0.1c0.3-0.2,0.7,0,1-0.1l0,0l0,0c0.2-0.1,0.5,0,0.7-0.1c0,0,0,0,0.1,0c0.2,0,0.3,0,0.5,0
		c0.8,0,1.6-0.1,2.4,0.1l0,0l0,0c0.2,0.1,0.5,0,0.7,0.1l0,0l0,0c0.1,0.1,0.3,0,0.4,0.1c0.1,0.1,0.3,0,0.4,0.1c0.1,0.1,0.1,0.1,0.2,0
		l0,0l0.1,0.1c0.1,0,0.2,0,0.3,0.1h0.2v0.1h0.1v-0.1l0,0c0,0,0,0,0.1,0h0.1c0.1-0.1,0.1-0.2,0.1-0.2h0.2v0.1h0.2l0,0l0,0
		c0,0,0,0,0.1,0.1l0,0l0,0h0.1l0.1,0.1c0.1,0,0.2,0,0.3,0.1c0.1,0,0.2,0,0.3,0.1h0.4l0.1,0.1c0.3,0,0.5,0,0.8,0.1h0.3
		c0.2-0.1,0.4-0.1,0.6-0.1c0.1-0.1,0.2-0.1,0.3-0.1c0.1-0.1,0.1-0.1,0.2-0.1c0-0.1,0.1-0.1,0.2-0.1c0-0.1,0.1-0.1,0.2-0.1
		c0-0.1,0.1-0.1,0.1-0.1c0.1-0.1,0.2-0.3,0.3-0.4c0-0.4,0-0.7,0-1.1c0-0.2,0-0.4,0.1-0.5c0-0.3,0-0.7,0-1c0-0.1,0-0.3,0.1-0.4
		c0-0.1,0-0.1,0-0.2h0.1c0-0.1,0-0.1,0-0.2h0.1v-0.1c0-0.4,0-0.8,0-1.2v-0.1c-0.1-0.1,0-0.3-0.1-0.4c0,0-0.1-0.1-0.1-0.2l0,0v-0.1
		h-0.1l0,0c0-0.1,0-0.2-0.1-0.3c-0.1-0.1,0-0.2-0.1-0.2c-0.1-0.1,0-0.2-0.1-0.2l0,0L46.7,29c-0.1-0.1,0-0.2-0.1-0.2
		c-0.1-0.1-0.1-0.2-0.2-0.3l0,0l-0.1-0.1l-0.1-0.1c-0.1-0.1-0.1-0.2-0.2-0.3l0,0l-0.1-0.1c-0.1-0.1,0-0.2-0.1-0.2l0,0l-0.1-0.1
		c-0.1-0.1,0-0.2-0.1-0.2l0,0c-0.1-0.1,0-0.2-0.1-0.2l0,0l-0.1-0.1c-0.1-0.1,0-0.2-0.1-0.2c0-0.1-0.1-0.1-0.1-0.2
		c-0.2-0.4-0.4-0.8-0.5-1.2c0-0.2-0.1-0.4-0.2-0.5v-0.1c-0.1-0.4-0.2-0.7-0.3-1.1c-0.2-0.7-0.3-1.4-0.3-2.1c0-0.2,0.1-0.3,0.1-0.5
		s0.1-0.5-0.1-0.6c-0.2-0.1-0.4,0.1-0.6,0.3c-0.5,0.5-1.1,1.1-1.6,1.6c-0.3,0.3-0.4,0.9-0.2,1.3c0,0.2,0,0.4,0.1,0.5
		c0.1,0.2,0.1,0.4,0.1,0.6c0.1,0.4,0,0.9-0.2,1.3c-0.1,0.1-0.2,0.2-0.2,0.3c-0.4,0.4-0.8,0.8-1.3,1.1c-0.3,0.2-0.6,0.5-0.7,0.9
		c-0.1,0.2-0.2,0.4-0.3,0.6c-0.1,0.1-0.1,0.2-0.2,0.3c-0.1,0.1-0.2,0.2-0.3,0.1c-0.1,0-0.2,0-0.3,0c-0.6-0.1-1.2,0.2-1.4,0.8
		c-0.1,0.2-0.2,0.4-0.3,0.5c-0.3,0.3-0.5,0.7-0.8,1c-0.3,0.1-0.6,0.2-0.9,0.2c-0.3,0-0.6,0.1-0.9,0.2h-0.1c-0.3,0-0.6,0.1-0.9,0.2
		c-0.6,0.2-1.1,0.6-1.3,1.2c-0.1,0-0.1,0.1-0.1,0.1c-0.3,0.3-0.5,0.7-0.9,1.1c-0.1,0.1-0.2,0.2-0.2,0.3l-0.1,0.1c0,0,0,0.1,0,0.2
		c0,0.1,0.1,0,0.1,0c0.1-0.1,0.2-0.1,0.3-0.2c0.2-0.2,0.5-0.3,0.7-0.5c0.5-0.1,1-0.3,1.6-0.4c0.2,0,0.4-0.1,0.6-0.1
		c0.4,0,0.8-0.1,1.2-0.2c0,0,0.1,0,0.1-0.1h0.9c0.4,0.1,0.8,0.2,1.2,0.2c0.1,0.1,0.2,0.1,0.4,0.1c0.5,0,1.1,0.1,1.6,0.3l1.5,0.6
		c0,0.1-0.1,0.1-0.2,0.1c-0.2-0.1-0.5-0.1-0.7-0.2c-0.6-0.1-1.1-0.2-1.7-0.3c-0.3-0.1-0.6-0.1-1-0.1c-0.2,0-0.4,0-0.5,0
		c-0.3-0.1-0.7,0-1,0.1c-0.8,0.2-1.5,0.3-2.3,0.4c-0.4,0-0.8,0.1-1.2,0.2c-0.5,0-0.9,0.1-1.3,0.3c-0.1,0.1-0.3,0.2-0.3,0.3
		c-0.3,0.2-0.5,0.5-0.7,0.9c-0.1,0-0.2,0.1-0.2,0c-0.1-0.1-0.1-0.1-0.2-0.2c-0.1-0.2-0.2-0.3-0.3-0.4c-0.2-0.2-0.3-0.5-0.6-0.6
		c-0.1-0.1-0.2-0.1-0.3-0.1c-0.9-0.2-1.8-0.3-2.7-0.3c-0.3-0.1-0.5-0.1-0.8-0.1h-0.1c-0.8-0.2-1.6-0.3-2.4-0.2c-0.1,0-0.1,0-0.2,0.1
		c-0.2,0-0.4,0-0.6,0.1h-0.1c-0.2,0-0.4,0-0.5,0.1c-0.6,0.1-1.2,0.3-1.9,0.4l-0.1-0.1l0.1-0.1h0.1c0.1,0,0.2,0,0.2-0.1
		c0.3-0.1,0.5-0.2,0.8-0.3s0.6-0.2,0.9-0.3s0.7-0.1,1.1-0.1c0.1,0,0.2,0,0.2-0.1h0.2c0.1,0,0.2,0,0.2-0.1c0.5-0.1,1-0.1,1.6-0.1
		c0.1,0,0.2,0,0.3,0c0.1,0,0.1,0.1,0.2,0.1c0.5,0,1,0.1,1.6,0.2c0.8,0.1,1.5,0.4,2.2,0.8c0.1,0.1,0.3,0.2,0.5,0.1
		c-0.1-0.2-0.2-0.4-0.3-0.5c-0.4-0.4-0.8-0.9-1.1-1.4c-0.1-0.1-0.2-0.3-0.3-0.4c-0.3-0.3-0.6-0.5-1.1-0.6c0.2-0.6,0.1-0.6,0-0.6
		h-0.1c-0.1-0.1-0.2-0.1-0.3-0.1l-1.8-0.2c-0.2-0.2-0.4-0.4-0.6-0.6c-0.1-0.1-0.2-0.3-0.3-0.4c-0.1-0.3-0.2-0.5-0.4-0.8
		c-0.3-0.4-0.8-0.6-1.3-0.6c-0.1,0-0.2,0-0.3,0c-0.2,0.1-0.5,0-0.6-0.3c-0.1-0.2-0.2-0.3-0.3-0.5c-0.1-0.2-0.2-0.4-0.4-0.5
		c-0.1-0.2-0.2-0.3-0.4-0.4c-0.5-0.4-0.9-0.7-1.4-1.2c-0.5-0.4-0.7-1.1-0.5-1.7c0.1-0.4,0.1-0.9,0.2-1.3c0.1-0.5-0.1-1-0.6-1.3
		l0.1,0.1l-0.1-0.1c-0.4-0.5-0.9-0.9-1.4-1.3c-0.1-0.1-0.1-0.1-0.2-0.2c-0.2-0.1-0.3,0-0.3,0.2s0,0.4,0,0.5c0.1,0.3,0.1,0.7,0.1,1
		c0,0.2,0,0.3,0,0.5C15,22.9,15,23,15,23.1c-0.1,0.5-0.2,0.9-0.3,1.4c-0.2,0.6-0.4,1.2-0.6,1.8c-0.1,0.3-0.2,0.5-0.4,0.7
		c-0.1,0.1,0,0.2-0.1,0.2c-0.1,0.1,0,0.2-0.1,0.2c-0.1,0.1,0,0.2-0.1,0.2l-0.1,0.1l0,0c-0.1,0-0.1,0.2-0.1,0.2L13.1,28l0,0
		C13,28,13,28.2,13,28.2l-0.1,0.1l-0.1,0.1l0,0c-0.1,0,0,0.2-0.1,0.2l0,0l-0.1,0.1l0,0c-0.1,0.1,0,0.2-0.1,0.2L12.4,29l0,0
		c0,0.1,0,0.2-0.1,0.2c0,0.1,0,0.1,0,0.2h-0.1c0,0.1,0,0.1,0,0.2L12,30.1c0,0.1,0,0.2-0.1,0.3c0,0.1,0,0.3,0,0.4h-0.1
		c0,0.4,0,0.9,0,1.3c0.1,0.1,0.1,0.2,0.1,0.3c0.1,0,0.1,0.1,0.1,0.2c0.1,0.1,0.1,0.1,0.1,0.2c0.1,0.1,0.1,0.2,0.1,0.3
		c0,0.4,0,0.8,0,1.1c0,0.1,0,0.1,0,0.2h0.1c0,0.1,0,0.1,0,0.2c0,0.3,0,0.6,0,0.9v0.1c0,0.1,0,0.2,0.1,0.3s0.1,0.2,0.2,0.2l0.1,0.1
		l0,0c0,0.1,0.1,0.1,0.2,0.1l0,0l0,0l0,0c0,0,0.1,0,0.1,0.1c0,0,0,0,0.1,0c0,0,0,0,0,0.1c0.1,0,0.2,0,0.2,0.1h0.3v0.1
		c0.5,0,0.9,0,1.4,0c0.2-0.1,0.4-0.1,0.5-0.1c0.1-0.1,0.2-0.1,0.3-0.1v-0.1h0.3c0.1-0.1,0.2-0.1,0.3-0.1c0.1-0.1,0.1-0.1,0.2-0.1
		c0.1-0.1,0.1-0.1,0.2-0.1c0-0.1,0.1-0.1,0.2-0.1l0,0l0.2,0.2l0,0h0.1c0.1-0.1,0.2,0,0.2-0.1h0.1c0.1,0,0.2,0,0.2-0.1
		c0.1-0.1,0.2,0,0.3-0.1l0,0l0,0c0.1,0,0.1,0,0.2,0c0,0,0,0,0.1,0l0,0h0.1l0,0l0,0c0.1,0,0.1,0,0.2-0.1c0.2-0.1,0.4,0,0.5-0.1l0,0
		c0.2-0.1,0.5,0,0.7-0.1c0.3-0.1,0.7,0.1,1-0.1h0.2c0.1-0.1,0.2,0,0.3-0.1h0.1c0.7,0,1.5-0.1,2.2,0l0,0l0,0c0.2,0.1,0.5,0.1,0.7,0
		c0.1,0,0.1,0,0.2,0.1l0,0l0,0c0.1,0.1,0.1,0.1,0.2,0.1l0,0l0,0c0,0.1,0.1,0.1,0.2,0.1l0,0l0,0c0,0.1,0.2,0.1,0.2,0.1l0.1,0.1l0,0
		l0,0c0,0.1,0.1,0.1,0.2,0.1l0.1,0.1l0,0l0,0c0.1,0.1,0.2,0.3,0.4,0.4l-0.1,0.1c-0.2,0-0.4-0.1-0.5-0.2h-0.2l0,0l-0.1-0.1
		c0,0,0,0-0.1,0l0,0c-0.1-0.1-0.2,0-0.3-0.1h-0.1l0,0h-0.5v-0.1h-0.6l0,0V36h-0.1h-1.3c0,0-0.1-0.1-0.2-0.1c-0.4,0-0.8,0-1.2,0.1
		h-0.1c-0.3,0.1-0.5,0-0.8,0.1c0,0,0,0-0.1,0l0,0c-0.2,0.1-0.5,0-0.7,0.1l-0.1,0.1c-0.1-0.1-0.3-0.1-0.4,0h-0.1
		c-0.2,0.1-0.4,0-0.6,0.1c-0.1,0.1-0.2,0-0.2,0.1l0,0c-0.1-0.1-0.2-0.1-0.3,0h-0.1c-0.1,0.1-0.3,0-0.5,0.1h-0.1
		c-0.2,0.1-0.4,0-0.6,0.1v0.1h-0.4l-0.2,0.1h-0.3V37l0,0c-0.1,0-0.3,0-0.4,0h-0.1c-0.7,0.1-1.3,0.1-2,0h-0.1c-0.1-0.1-0.1-0.1-0.2,0
		l0,0c0-0.1-0.1-0.1-0.1-0.1l0,0c-0.1-0.1-0.3,0-0.4-0.1c-0.1-0.1-0.2,0-0.3-0.1s-0.3,0-0.5-0.1h-0.1c-0.1-0.1-0.3-0.1-0.4,0l0,0
		c-0.1,0.1-0.2,0-0.3,0.1l0,0c-0.1,0.1-0.2,0-0.2,0.1l-0.1,0.1c-0.2,0.1-0.3,0.2-0.4,0.3l0,0c-0.1,0-0.1,0.1-0.1,0.1l0,0l-0.1,0.1
		l0,0l-0.1,0.1l-0.1,0.1L9,37.7c-0.1,0-0.1,0-0.2,0.1l0,0l-0.1,0.1C9,38,8.9,38.1,8.8,38.2c-0.1,0.1-0.2,0-0.2,0.1
		c-0.1,0.1-0.2,0-0.2,0.1c-0.1,0.1-0.2,0-0.3,0.1s-0.3,0-0.3,0.1l0,0c-0.1,0-0.1,0-0.2,0H7.5c-0.1,0-0.1,0-0.2,0.1H7.2
		c-0.1,0-0.2,0.1-0.3,0.1l-0.1,0.1l0,0H6.6C6.5,39,6.3,39,6.1,39s-0.5,0-0.8,0l-0.1,0.1l-0.1,0.1l0,0c-0.1,0.1-0.1,0.2,0,0.3l0,0
		l0.1,0.1l0.1,0.1l0,0l0,0c0.1,0.1,0.2,0.1,0.3,0c0.2-0.1,0.4,0,0.6-0.1l0,0l0,0c0.2-0.1,0.4,0,0.6-0.1c0.1-0.1,0.3,0,0.5-0.1
		c0.1,0,0.2,0,0.3,0c0.3-0.1,0.6,0,0.8-0.1s0.5,0,0.7-0.1l0,0c0.1-0.1,0.3,0,0.4-0.1l0,0l0,0c0.1-0.1,0.3,0,0.5-0.1s0.4,0,0.6-0.1
		l0,0l0,0c0,0,0.1,0,0.1-0.1l0,0c0.1,0.1,0.3,0.1,0.4,0l0,0l0,0c0.2-0.1,0.5,0,0.7-0.1l0,0c0,0,0,0,0-0.1l0,0l0,0h2.1h0.2
		c0,0,0,0.1,0.1,0.1h0.2c0.2,0.1,0.4,0,0.6,0.1h0.1l0.1,0.1c0.3,0,0.6,0,0.9,0.1h0.8l0,0l0,0l0,0v0.1l0,0l0,0c0.3,0.1,0.6,0,0.9,0.1
		l0,0l0,0c0.3,0.2,0.7,0,1,0.1l0,0c0.3,0.2,0.7,0,1.1,0.1c0.3,0.2,0.7,0,1,0.1l0,0l0,0c0.4,0.2,0.7,0,1.1,0.1l0,0
		c0.3,0.1,0.6,0,0.9,0.1c0,0,0,0,0.1-0.1l0,0h0.3v0.1c0,0,0.1,0,0.1-0.1l0.2,0.1h1.5c0,0,0,0.1,0.1,0.1h0.2H27l0,0l0,0
		c0,0,0.1,0,0-0.1l0,0h0.5c0-0.1,0.1-0.1,0.1-0.1c0-0.1,0.1-0.1,0.2-0.1c0-0.1,0.1-0.1,0.1-0.1c0.1-0.1,0.3-0.3,0.4-0.3
		c0-0.1,0.1-0.1,0.1-0.1c0-0.1,0.1-0.1,0.1-0.1c0-0.1,0-0.1,0.1-0.1c0.1-0.2,0.2-0.3,0.3-0.4c0-0.1,0-0.1,0-0.2
		c0.1,0,0.1-0.1,0.1-0.2c0.1,0,0.1,0.1,0.2,0.1c0.1,0.1,0,0.2,0.1,0.2l0,0l0,0c0,0.1,0.1,0.1,0.1,0.1l0,0l0.1,0.1l0.1,0.1l0.1,0.1
		l0.1,0.1l0.1,0.1l0,0L30,39l0,0l0,0l0,0l0,0l0,0c0,0.1,0.1,0.1,0.1,0.1l0,0l0,0c0,0.1,0.1,0.1,0.2,0.1l0.1,0.1l0,0
		c0.1,0.1,0.2,0.1,0.3,0.2c0,0,0,0,0.1,0.1l0,0c0.1,0.1,0.2,0.1,0.3,0.1c0,0,0.1-0.1,0.1,0c0,0,0,0,0.1,0l0,0l0,0c0.3,0,0.7,0,1,0
		l0,0l0,0l0.1-0.1l0.1,0.1c0.8,0,1.6-0.1,2.4-0.2l0,0l0,0c0.3-0.1,0.6,0,0.9-0.1l0,0l0,0c0.3-0.1,0.6,0,0.9-0.1l0,0l0,0
		c0.1,0,0.1,0,0.2-0.1l0,0c0.2,0.1,0.4,0.1,0.6,0l0,0l0,0c0.1,0,0.2,0,0.3-0.1l0,0c0.2,0.1,0.3,0.1,0.5,0c0,0,0.1,0,0.1-0.1
		c0.1,0,0.1,0,0.2,0c0.1,0,0.2,0,0.3,0h0.2c0,0,0.1-0.1,0-0.1l0,0h0.6c0.1-0.1,0.2-0.1,0.4-0.1c0.1,0,0.2,0,0.3-0.1l0,0h0.1l0,0l0,0
		c0.2-0.1,0.5,0,0.7-0.1l0,0l0,0c0.2-0.1,0.5,0,0.7-0.1s0.5,0,0.7-0.1l0,0l0,0c0.2-0.1,0.4,0,0.6-0.1l0,0l0,0l0.1-0.1l0,0l0,0
		c0.2,0.1,0.4,0.1,0.5,0l0,0l0,0v-0.1c0.7,0,1.4-0.1,2,0c0.2,0,0.4,0,0.6,0.1H47l0,0l0,0v0.1c0.2,0.2,0.5,0,0.7,0.1s0.4,0,0.6,0.1
		l0,0c0.2,0.2,0.5,0,0.7,0.1l0,0l0,0c0.3,0.1,0.6,0.1,1,0v0.1l0,0l0,0l0,0c0.3,0.2,0.6,0,0.9,0.1l0,0c0.2,0.2,0.5,0,0.7,0.1l0,0l0,0
		c0.3,0.1,0.5,0,0.8,0.1c0.1,0,0.1,0,0.2,0l0.1-0.1l0.1-0.1c0-0.1,0-0.2,0-0.3C55,38.5,55,38.5,55,38.4z"/>
	<path class="st0" d="M18.5,16.3c-0.7-0.4-1.4-0.9-2-1.4l-0.1-0.1c0-0.1-0.1-0.1-0.1-0.2c-0.6-0.4-1-1.1-1.1-1.8
		c0-0.1-0.1-0.2-0.1-0.2c0-0.2,0-0.4-0.1-0.5c0-0.3,0-0.6-0.1-0.9v-0.1c0-0.2,0-0.3-0.1-0.5c-0.2-0.3-0.4-0.7-0.5-1.1
		C14.2,9.3,14.1,9,14,8.8c-0.2,0.5-0.3,1-0.5,1.5s-0.3,1-0.5,1.5c-0.3,0.3-0.6,0.7-0.9,1.1c-0.1,0.1-0.2,0.2-0.2,0.4
		c-0.2,0.4-0.3,0.8-0.3,1.3c-0.1,0.1-0.1,0.2-0.1,0.4c0,0.4,0,0.9,0.1,1.3c0,0.6,0,1.2,0.1,1.8c0.1,0.6,0.1,1.3,0.2,1.9
		c0.1,0.2,0.1,0.4,0.1,0.7c0,0.1,0,0.3,0,0.5c0.1,0.1,0,0.3,0.1,0.4l0,0c0.1,0.1,0,0.2,0.1,0.3c0.1,0.2,0.1,0.5,0.2,0.8h0.1v0.1
		c0,0.1,0,0.2,0,0.3h0.1c0,0.1,0,0.3,0,0.4l0,0v0.1l0,0c-0.1,0.1,0,0.2,0,0.3l0,0c0.1,0.1,0,0.3,0.1,0.4C13,24.6,13,24.8,13,25
		c0.1,0.2,0.1,0.4,0.1,0.5c0.1,0.1,0,0.3,0.1,0.5l0,0c0,0.1,0,0.1,0,0.2s0,0.1,0,0.2c0.1,0.1-0.1,0.4,0.2,0.3l0.1-0.4
		c0.4-0.6,0.6-1.3,0.7-2c0.1-0.4,0.2-0.9,0.2-1.3c0.1-0.4,0.2-0.9,0.2-1.3c0-1,0-0.8-0.6-1.3c-0.3-0.4-0.7-0.9-1-1.4
		c-0.2-0.3-0.4-0.7-0.4-1.1c-0.1-0.5-0.2-0.9-0.2-1.4c0-0.3,0-0.7,0-1v-0.1l0,0c0.3-0.8,0.4-0.9,1.3-0.9h0.1
		c0.4,0.2,0.8,0.4,1.2,0.6c0.6,0.3,1.2,0.7,1.7,1.2c0.6,0.6,1.2,1.2,1.9,1.7c0.4,0.4,0.9,0.7,1.3,1c0.3,0.3,0.6,0.5,0.9,0.7
		c0.1,0.1,0.2,0.1,0.3,0c0.4-0.3,0.9-0.7,1.2-1.2c0.1,0,0.1-0.1,0.2-0.2c0.3-0.4,0.6-0.7,0.9-1.1c0.4-0.5,0.7-1.1,1.1-1.6
		c0.3-0.4,0.6-0.9,0.8-1.4c0.1,0,0.2,0,0.2,0.1c0.1,0.2,0.3,0.4,0.4,0.5c0.4,0.7,0.9,1.3,1.5,1.9H27c-0.4-0.2-0.9,0-1.1,0.4
		c-0.2,0.2-0.3,0.5-0.5,0.7c-0.2,0.4-0.5,0.7-0.8,1c-0.4,0.4-0.8,0.8-1.2,1.2c-0.4,0.4-0.9,0.8-1.2,1.2c-0.2,0.1-0.3,0.2-0.4,0.4
		c-0.1,0.1-0.3,0.3-0.4,0.4c-0.3,0.2-0.3,0.2-0.6,0c-0.5-0.4-1-0.9-1.5-1.5c-0.5-0.5-0.9-1.1-1.4-1.7v-0.1c-0.5-0.7-1.1-1.3-1.7-2
		c-0.2-0.2-0.3-0.3-0.6-0.4c0-0.1-0.1-0.1-0.1-0.1c-0.6-0.5-1.3-0.9-2-1c-0.2-0.1-0.5,0-0.7,0.2c-0.1,0.2-0.2,0.4-0.3,0.6
		c-0.2,0.6-0.1,1.3,0.1,1.9c0.1,0.3,0.2,0.5,0.4,0.7c0.4,0.3,0.8,0.6,1.2,0.9c0.4,0.4,0.8,0.8,1.2,1.1c0.2,0.3,0.5,0.6,0.9,0.8l0,0
		c0,0.1,0.1,0.1,0.1,0.1c0,0.1,0.1,0.1,0.1,0.1l0.1,0.1c0.8,0.7,1.5,1.4,2.3,2.1c0.2,0.3,0.5,0.5,0.8,0.7l0.3,0.3
		c0,0.1,0.2,0.1,0.3,0.2c0.3,0.2,0.7,0.2,0.9-0.1c0.7-0.6,1.3-1.3,1.9-2.1c0.4-0.5,0.9-1,1.2-1.6c0.2-0.3,0.4-0.6,0.7-0.9
		c0.4-0.6,0.8-1.1,1.2-1.7c0.2-0.3,0.3-0.3,0.7-0.2c0.4,0.2,0.7,0.4,1.1,0.6c0.5,0.3,0.9,0.6,1.4,0.8c0.3,0.2,0.7,0.2,1,0
		c0.1,0,0.2-0.1,0.3-0.2c0.2-0.2,0.3-0.4,0.4-0.6c0.3-0.3,0.5-0.6,0.7-1c0.3-0.3,0.6-0.8,0.7-1.2c-0.4-0.2-0.5,0.2-0.7,0.4
		c0.1-0.2,0.2-0.3,0.2-0.5c0-0.3-0.1-0.4-0.3-0.3c-0.5,0.2-0.9,0.7-1.1,1.2c-0.4,0-0.8,0.1-1.2,0.2c0,0,0,0,0,0.1h-0.1
		c-0.1,0-0.2-0.1-0.3-0.2c-0.1-0.1-0.3-0.1-0.3-0.3c0.2-0.2,0.6-0.2,0.8-0.3c0.1-0.1,0.2-0.1,0.2-0.3c0-0.2-0.2-0.2-0.3-0.2
		c-0.1,0-0.3,0-0.4,0c-0.4,0.1-0.8,0.1-1.1,0.1c0.4-0.1,0.7-0.3,1-0.6L29,16c0.1,0,0.1-0.1,0.2-0.1c0,0,0,0,0.1,0l0,0
		c0.5,0,0.8-0.4,1.2-0.7l0,0l0,0c0.2-0.2,0.5-0.3,0.8-0.3c0,0,0,0,0.1,0c0.2,0.2,0.3,0.5,0.6,0.7c-0.1,0.4,0.2,0.6,0.4,0.9l0.1,0.1
		l0,0c-0.1,0.1,0,0.3,0.1,0.4h0.1l0.2,0.2l0.1,0.1c0.2,0.4,0.4,0.9,0.7,1.3c0,0.1,0.1,0.1,0.1,0.2c0.2,0.3,0.3,0.5,0.5,0.8
		c0.1,0.1,0.2,0.2,0.3,0.2c0.5,0.7,0.9,1.3,1.4,2c0.3,0.4,0.5,0.7,0.8,1.1c0.1,0.2,0.2,0.3,0.4,0.4c0.1,0.1,0.3,0.2,0.4,0.1
		c0.2,0,0.4,0,0.5-0.1c0.1,0,0.2,0,0.3-0.1c0.5-0.2,1-0.5,1.5-0.8l0.1-0.1c0.3-0.1,0.5-0.2,0.8-0.4c0.4-0.2,0.7-0.4,1.1-0.7
		c0.2-0.1,0.5-0.3,0.7-0.4c0.3-0.2,0.6-0.4,0.9-0.6h0.1c0.5-0.4,1-0.7,1.5-1.1c0.4-0.2,0.7-0.6,0.8-1C46,18,46,18,46,17.9v-0.1
		c0.2-0.5,0.3-1,0.3-1.6c0-0.1-0.1-0.2-0.1-0.3s0-0.1,0-0.2l-0.1-0.1c-0.1-0.3-0.3-0.5-0.6-0.4c-0.3,0-0.7,0.1-1,0.2
		c-0.8,0.4-1.5,0.9-2.1,1.5c-0.1,0.1-0.3,0.3-0.4,0.4c-0.7,0.7-1.4,1.3-2.1,2c-0.2,0.1-0.3,0.2-0.4,0.4l-0.1,0.1
		c-0.2,0.2-0.4,0.3-0.6,0.5c-0.5,0.4-0.7,0.3-1.2,0c-0.2-0.1-0.3-0.3-0.4-0.4c-0.1-0.1-0.2-0.2-0.3-0.4l-0.1-0.1l-0.1-0.1
		c-0.1-0.2-0.3-0.3-0.4-0.4L35,17l-0.7-0.8c-0.2-0.3-0.5-0.6-0.7-0.9c-0.1-0.1-0.2-0.2-0.4-0.3c-0.3-0.4-0.5-0.8-0.9-1.1
		c-0.3-0.3-0.7-0.5-1.1-0.4c-0.1,0-0.3,0-0.4,0s-0.1,0-0.2,0.1c-0.2,0-0.4,0-0.5,0c-0.2,0-0.4,0.1-0.6,0c-0.4-0.1-0.8-0.1-1.2-0.2
		c-0.1,0-0.3,0-0.4,0s-0.2,0.1-0.2,0.1c0,0.1,0.1,0.1,0.1,0.1c0.3,0,0.6,0.1,0.9,0.1s0.5,0.1,0.7,0.2c0.1,0,0.1,0.1,0.1,0.2
		c0,0.1,0,0.1-0.1,0.2c-0.3,0.1-0.5,0.2-0.8,0.3c-0.2,0-0.3,0-0.5,0.1h-0.2c-0.2,0-0.4-0.1-0.5-0.1c-0.3-0.3-0.7-0.7-1-1
		c-0.1-0.1-0.2-0.1-0.3-0.2c0-0.1,0-0.1,0-0.2c0.1-0.1,0.1-0.1,0.2-0.2c0.3-0.3,0.5-0.7,0.5-1.1c0-0.3,0-0.6,0-0.9
		c0-0.1,0-0.2-0.1-0.3c-0.1-0.2-0.1-0.5-0.2-0.7c-0.1-0.5-0.1-0.9-0.1-1.4c0-0.2,0-0.3,0-0.5C26.4,8,26.3,8,26.3,8l0,0
		C26.1,8.3,26,8.5,26,8.8c0,0.2,0,0.4,0,0.5c0,0.2,0,0.5,0.1,0.7c0,0.1,0,0.3-0.1,0.5c-0.1-0.1-0.1-0.2-0.2-0.3v-0.1
		c0-0.1,0-0.2-0.1-0.2c0-0.1,0-0.1-0.1-0.2c-0.3-0.6-0.4-1.2-0.2-1.8c0.1-0.3,0.2-0.5,0.3-0.8c0.1-0.3,0.2-0.5,0.2-0.8
		c0-0.1,0-0.1,0-0.2s0-0.2-0.2-0.2c-0.1,0-0.1,0.1-0.2,0.1c-0.4,0.8-0.8,1.6-1,2.5c-0.1,0.3-0.1,0.7,0.1,1.1
		c0.1,0.4,0.2,0.9,0.3,1.3c0.2,0.6,0.3,1.2,0.5,1.8c0.1,0.2,0,0.3-0.1,0.5c-0.1,0.1-0.1,0.2-0.2,0.4c-0.3,0.3-0.6,0.7-0.9,1
		c-0.6,0.6-1.2,1.2-1.8,1.8c-0.3,0.3-0.6,0.6-0.9,1c-0.2,0.2-0.5,0.4-0.6,0.6c-0.2,0-0.4,0-0.5,0l-0.5-0.5c-0.2-0.1-0.3-0.2-0.5-0.4
		C19.2,16.8,18.8,16.5,18.5,16.3z"/>
	<path class="st0" d="M29.1,6.8c0.1,0.1,0.1,0.1,0.2,0.1c-0.2-0.6-0.4-1.3-0.5-2c0.3,0.4,0.5,0.8,0.6,1.3c0,0.2,0,0.4,0.2,0.5
		c0-0.1,0.1-0.3,0-0.5c0-0.4,0-0.8,0-1.2c0-0.5-0.1-1-0.4-1.4c-0.2-0.5-0.6-0.8-1.1-1c-0.2-0.1-0.3-0.1-0.4,0.2
		c-0.3,0.8-0.3,1.8,0.1,2.6C28.2,5.9,28.6,6.4,29.1,6.8z"/>
	<path class="st0" d="M27.4,7.6c1,0.4,2.1,0.5,3.2,0.3c0.3,0,0.6-0.1,0.9-0.2c0.1,0,0.1,0.1,0.1,0.2C31.3,8,31,8.1,30.7,8.1
		c-0.4,0.1-0.9,0.1-1.3,0.1S28.6,8.1,28.3,8c-0.4-0.1-0.7-0.1-1.1-0.2C27,8,27,8.1,27,8.2c0,0.6,0.2,1.1,0.4,1.7
		c0.1,0.4,0.4,0.7,0.7,1c0,0.1,0.1,0.1,0.2,0.2c0.6,0.3,1.3,0.4,2,0.2c0.2,0,0.4,0,0.5-0.2c0.1,0,0.3-0.1,0.3-0.2
		c0.1-0.1,0.2-0.2,0.3-0.3c0.3-0.3,0.4-0.6,0.5-1C32,9.6,32,9.5,32,9.4c0-0.1,0-0.2,0-0.3c0.1-0.2,0.1-0.5,0.1-0.7V8.3
		c0.1-0.1,0.1-0.2,0.1-0.4c0-0.1,0-0.1-0.1-0.2c-0.2-0.1-0.2-0.2,0-0.3V7.3c0-0.1-0.1-0.1-0.1-0.1l0,0c-0.1,0-0.1,0-0.2,0
		c-0.7,0.2-1.5,0.3-2.2,0.2c-0.7,0-1.4-0.1-2.1-0.3c-0.1,0-0.3-0.2-0.5,0C26.9,7.4,27.1,7.5,27.4,7.6z"/>
	<path class="st0" d="M32.5,12.2l0.1,0.1c0,0.1,0,0.3,0.1,0.4c0.3,0.3,0.5,0.6,0.7,0.9l0.8,1.1c0.1,0.2,0.2,0.3,0.3,0.5
		c0.2,0.3,0.4,0.5,0.5,0.8c0,0.2,0.2,0.4,0.3,0.4c0,0.3,0.2,0.4,0.4,0.6c0.2,0.4,0.6,0.8,0.9,1c0.1,0.2,0.3,0.4,0.5,0.5l0.1,0.1
		c0.3,0.3,0.6,0.6,1,0.9c0.1,0.1,0.3,0.1,0.3,0c0.6-0.5,1.2-1,1.8-1.4c0.4-0.3,0.7-0.7,1.1-1c0.3-0.3,0.6-0.5,0.9-0.9
		c0.5-0.6,1.1-1,1.7-1.4c0.1,0,0.1-0.1,0.2-0.1l0.3-0.2c0.3-0.1,0.6-0.3,0.9-0.4c0.5-0.2,1,0,1.2,0.5c0.1,0.1,0.1,0.2,0.2,0.3
		c0.1,0.4,0.1,0.9,0.1,1.3c0,0.3-0.1,0.6-0.1,0.9c0,0.2-0.1,0.4-0.1,0.6c-0.2,0.6-0.5,1.1-1,1.6c-0.3,0.3-0.5,0.5-0.8,0.8
		c-0.1,0-0.2,0.2-0.2,0.3c0,0.3,0,0.6,0,1c0.1,0.6,0.2,1.1,0.3,1.7c0,0.2,0.1,0.4,0.2,0.6c0,0.1,0,0.3,0.1,0.4
		c0.1,0.5,0.3,0.9,0.6,1.4c0.1,0.2,0.2,0.4,0.3,0.6c0.1,0,0.2,0.1,0.2,0s0-0.2,0-0.3c0-0.2,0-0.5,0.1-0.7s0-0.5,0.1-0.7v-0.1
		c0.1-0.2,0-0.4,0.1-0.5s0-0.3,0.1-0.5v-0.1c0.1-0.1,0-0.3,0.1-0.4l0,0c0.1-0.1,0-0.3,0.1-0.4l0,0l0,0v-0.1c0.1-0.1,0-0.2,0.1-0.3
		v-0.1c0.1-0.1,0-0.2,0.1-0.3v-0.1c0.1-0.1,0.1-0.2,0-0.3h0.1c0.1-0.1,0-0.3,0.1-0.5v-0.1c0.1-0.1,0-0.3,0.1-0.5c0-0.1,0-0.1,0-0.2
		c0-0.3-0.1-0.5,0.1-0.8c0-0.1,0-0.1,0-0.2c0.2-0.5,0-1.1,0.1-1.6c0-0.9,0-1.7,0-2.6c0-0.3,0-0.5-0.1-0.8c0-0.5-0.2-0.9-0.4-1.3
		c-0.1-0.1-0.1-0.3-0.2-0.3c-0.3-0.3-0.6-0.7-0.9-1c0-0.1,0-0.2-0.1-0.2c-0.1-0.3-0.2-0.6-0.3-0.9c0-0.1,0-0.1-0.1-0.1l0,0
		c0-0.3-0.1-0.6-0.3-0.9c-0.1-0.2,0-0.5-0.3-0.6c0,0,0.1,0.2,0,0.5c-0.1,0.2-0.1,0.3-0.1,0.5c-0.3,0.4-0.4,0.9-0.4,1.4
		c0,0.2,0,0.4,0,0.6c0,0.1,0,0.2-0.1,0.3c0,0.1,0,0.3,0,0.4c-0.1,0.4-0.2,0.7-0.3,1.1C44,13.5,44,13.5,44,13.6l-0.2,0.1
		c0,0.1-0.1,0.1-0.1,0.1l-0.1,0.1l-0.4,0.4c-0.2,0.1-0.5,0.3-0.6,0.5c-0.3,0.2-0.5,0.4-0.8,0.6c-0.4,0.3-0.8,0.6-1.2,0.9l-0.1,0.1
		l-0.1,0.1L40,16.7l-0.1,0.1l-0.1,0.1L39.7,17l-0.1,0.1c-0.1,0.2-0.3,0.4-0.6,0.5h-0.2l-0.1-0.1l-0.1-0.1v-0.1h-0.1v-0.1l-0.1-0.1
		c-0.2,0-0.3-0.1-0.3-0.3l0,0L38,16.7l-0.6-0.4l-0.1-0.1c0-0.1-0.1-0.2-0.2-0.2L37,15.8c-0.2,0-0.3-0.2-0.4-0.3
		c-0.4-0.3-0.7-0.7-1-1l-1.2-1.3c-0.1-0.2-0.1-0.4-0.1-0.6c0.1-0.5,0.3-0.9,0.3-1.4C34.8,10.6,35,10,35,9.3c0.1-0.4,0-0.9-0.1-1.3
		c-0.1-0.3-0.2-0.6-0.3-0.9c-0.2-0.3-0.3-0.6-0.4-0.9c-0.1,0-0.1-0.1-0.1-0.2S34,5.9,34,5.8s-0.1-0.1-0.2-0.1
		c-0.1,0-0.1,0.1-0.1,0.2c0,0.3,0,0.7,0.1,1s0.2,0.6,0.3,1c0.1,0.5,0.1,0.9,0,1.4c-0.2,0.4-0.3,0.8-0.5,1.2c-0.1,0-0.1,0.1-0.1,0.2
		h-0.1c0-0.1,0-0.1,0-0.2v-0.1c0.2-0.2,0.1-0.4,0.1-0.7s0-0.6,0-0.9c0-0.2-0.1-0.4-0.3-0.5c-0.1-0.1-0.2,0-0.2,0.1
		c0,0.2,0,0.4,0,0.6c0,0.5,0,1.1,0,1.6c-0.2,0.4-0.3,0.9-0.2,1.4C32.5,12,32.5,12.1,32.5,12.2z"/>
	<path class="st0" d="M30.4,6.9l0.1-0.1l0.1-0.1c0.1,0,0.1,0,0.1-0.1c0.1,0,0.3-0.1,0.3-0.2c0.3-0.2,0.6-0.6,0.8-1
		C32,4.9,32.1,4.5,32,4c-0.1-0.2-0.1-0.3-0.4-0.2s-0.5,0.3-0.8,0.4l-0.1,0.1v0.1C30.3,5,30,5.7,30,6.4c0,0.1,0,0.3,0.1,0.4
		C30.2,7,30.2,7,30.4,6.9z"/>
	<path class="st0" d="M18.9,5.5c0,0.2,0,0.4,0.1,0.6c0.1,0.5,0.1,1.1,0,1.6c-0.1,0.6-0.1,1.2-0.2,1.8c0,0.1,0,0.1,0,0.1
		c0.1,0,0.1,0,0.1,0c0.2-0.2,0.4-0.4,0.5-0.6c0.2-0.7,0.2-1.5,0.1-2.2c-0.1-0.6-0.3-1.2-0.5-1.7c0-0.3-0.1-0.5-0.3-0.8
		C18.7,4.8,18.8,5.2,18.9,5.5L18.9,5.5z"/>
	<path class="st0" d="M40.2,9.3L40.2,9.3c0.2,0,0.2-0.1,0.2-0.1c0-0.3-0.1-0.7-0.1-1c-0.2-1.1-0.3-2.3-0.1-3.4l0.1-0.1
		c0-0.2,0.1-0.4,0.1-0.7c-0.2,0.1-0.3,0.3-0.3,0.5c0,0.1,0,0.2-0.1,0.2c-0.1,0.4-0.2,0.7-0.3,1.1c-0.2,0.7-0.3,1.5-0.2,2.2
		C39.6,8.5,39.9,9,40.2,9.3z"/>
	<path class="st0" d="M5.2,36.1c0-0.1,0.1-0.1,0-0.2c0,0,0,0,0.1,0c0-0.1,0-0.1,0-0.2c0.1-0.2,0.1-0.4,0-0.6V35c0-0.1,0-0.2,0.1-0.2
		l0,0c0.1,0,0.1,0.1,0.1,0.2l0.1,0.1l0.1,0.1l0.1,0.1c0.1,0,0.2,0,0.2,0.1c0.1,0,0.2,0,0.2,0.1l0.1,0.1h0.1v0.1l0,0l0.1,0.1l0.1,0.1
		c0.1,0.1,0,0.2,0.1,0.2l0,0l0.1,0.1c0.1,0.1,0,0.2,0.1,0.2l0,0L7,36.5l0,0c0.1,0,0.1,0.2,0.1,0.2c0.1,0.1,0,0.2,0.1,0.2
		c0.1,0.1,0,0.2,0.1,0.2l0,0l0.1,0.1c0.1,0.1,0.2,0.1,0.3,0C8,37.2,8,37.1,8,37.1c0.1-0.1,0-0.3,0.1-0.5v-1.2C8,35.1,8,34.8,8,34.5
		v-0.1c-0.1-0.1,0-0.3-0.1-0.3c0,0,0-0.1-0.1-0.1c0,0,0,0-0.1-0.1v-0.1c0,0,0,0-0.1,0l0,0v-0.1v-0.1H7.5c0-0.1,0-0.1,0-0.2l-0.1-0.1
		c0,0-0.1,0-0.1-0.1c-0.1-0.1-0.1-0.1,0-0.2l0,0c0.1,0,0.1,0,0.2,0l0,0c0.1,0,0.2-0.1,0.2-0.2c0.1-0.1,0-0.2,0.1-0.2v-0.1
		c0.1-0.1,0-0.3,0.1-0.4C8,32,8,31.9,8,31.9l0.1-0.1c0.1-0.1,0.3,0,0.4-0.1l0,0l0,0v0.1l0.1,0.1c0.1,0.1,0.1,0.2,0.1,0.3
		s0,0.2,0,0.3s0,0.2-0.1,0.3s0,0.3-0.1,0.5v0.1c0,0.2-0.1,0.4,0,0.5l0,0c0.1,0,0.1-0.1,0.1-0.1C9,33.5,9,33.4,9,33.4
		c0.1-0.1,0-0.2,0.1-0.3s0-0.2,0.1-0.3l0,0c0.1-0.1,0-0.2,0.1-0.3l0,0c0.1-0.1,0-0.2,0.1-0.3c0.1,0,0.1-0.1,0-0.2l0,0v-0.1
		c0-0.1,0-0.1,0-0.2c0,0,0-0.1-0.1-0.1l0,0l0,0v-0.1l0,0v-0.1l0,0l0,0c0,0,0-0.1-0.1-0.1l0,0c0-0.1,0-0.2,0-0.2l0,0
		c-0.1-0.1,0-0.2-0.1-0.2c-0.1-0.1,0-0.2-0.1-0.3c-0.1-0.1,0-0.2-0.1-0.4c0.1,0,0.1-0.1,0.2-0.1v0.1c0.1,0,0.2,0.1,0.2,0.1
		c0.1,0,0.1,0.1,0.1,0.1h0.1v0.1c0.1,0,0.1,0.1,0.1,0.1h0.1c0,0.1,0,0.1,0,0.2l0.1,0.1c0.1,0,0.1,0.1,0.1,0.2
		c0.1,0.1,0.1,0.2,0.1,0.3c0,0,0,0,0.1,0c-0.1,0.1,0,0.3-0.1,0.5V32c-0.1,0.1,0,0.2-0.1,0.3s0,0.2-0.1,0.3c-0.1,0-0.1,0.1,0,0.2l0,0
		l0,0H10l0.1-0.1v-0.1l0.1-0.1l0,0c0.1-0.1,0.1-0.2,0.1-0.2v-0.1c0.1-0.1,0-0.2,0.1-0.2c0.1-0.1,0-0.2,0.1-0.3
		c0.1-0.1,0.1-0.2,0-0.2c0.1-0.1,0-0.2,0.1-0.2l0,0c0.1-0.2,0-0.4,0.1-0.6v-0.1c0-0.3,0-0.5,0-0.8c-0.1-0.1-0.1-0.3-0.1-0.4
		l-0.1-0.1c0-0.1,0-0.1,0-0.2h-0.1V29h-0.1v-0.1h-0.1v-0.1l-0.1-0.1c-0.1,0-0.1-0.1-0.1-0.1c-0.1,0-0.1,0-0.1-0.1l-0.1-0.1
		c-0.1,0-0.1-0.1-0.1-0.1l-0.1-0.1c-0.1,0-0.1-0.1-0.1-0.2H9.4l0,0v-0.1c0,0,0,0,0-0.1s0-0.1-0.1-0.1v-0.1c0,0-0.1-0.1-0.1,0
		c0-0.1,0-0.2,0-0.3c0-0.1-0.1-0.2-0.1-0.2c0-0.6,0-1.2,0-1.8c0-0.1,0-0.3,0.1-0.3c0,0.1,0,0.2,0.1,0.2c0,0.1,0,0.2,0,0.3
		c0.1,0.1,0.1,0.2,0.1,0.2c0.1,0.1,0.1,0.2,0.2,0.2C9.7,26,9.8,26,9.9,26l0,0v0.1H10h0.1h0.1l0,0l0,0c0,0,0.1,0,0.1,0.1l0.1,0.1
		l0.1,0.1l0.1,0.1l0.1,0.1l0,0c0.1,0,0.1,0.1,0.1,0.2c0.1,0.1,0.1,0.2,0.1,0.3c0,0.2,0,0.4,0,0.5l0,0c0.1,0.1,0.2,0.1,0.3,0l0,0l0,0
		c0.2-0.1,0-0.3,0.1-0.4l0,0c0.1-0.2,0.1-0.4,0-0.5v-0.1c-0.1-0.1,0-0.3-0.1-0.5c0,0,0,0,0-0.1s0-0.2-0.1-0.3
		c-0.1-0.1,0-0.2-0.1-0.2l-0.1-0.1l0,0l0,0c0,0,0,0-0.1,0c0-0.1,0-0.1,0-0.2l0,0l-0.1-0.1c-0.1-0.1-0.1-0.2-0.2-0.3
		c-0.1-0.1,0-0.2-0.1-0.2l0,0c-0.1-0.1,0-0.2-0.1-0.2v-0.1c-0.1-0.2-0.1-0.3-0.1-0.5s0-0.5,0-0.7l0.1-0.1v-0.1
		c0.1-0.1,0.1-0.2,0-0.3v-0.1l0,0l0,0c0-0.2,0-0.3,0.1-0.4c0-0.1,0-0.2,0.1-0.3c0-0.1,0-0.2,0.1-0.3c0-0.1,0-0.2,0.1-0.3
		c0-0.1,0-0.2,0-0.3c0,0,0.1,0,0.1-0.1c0.1-0.1,0-0.2,0.1-0.3c0-0.1,0-0.3,0-0.4c0.1-0.2,0.1-0.3,0.1-0.5c0-0.6-0.1-1.1-0.2-1.6
		c0-0.3,0-0.5-0.2-0.7c0-0.2,0-0.5-0.1-0.7v-0.4c0-0.2,0-0.5,0-0.7c-0.1-0.7,0-1.4,0.2-2.1c0.1,0,0.1-0.1,0.1-0.2
		c0.2-0.3,0.5-0.6,0.8-0.8c0.1-0.1,0.2-0.2,0.4-0.3c0,0,0.1,0,0.1-0.1l0,0l0,0c0.4-0.3,0.8-0.8,1-1.3c0.1-0.2,0.2-0.3,0.1-0.5
		c0.1-0.1,0.1-0.3,0.1-0.5s0.1-0.4,0.1-0.6c0.1-0.4,0.4-0.8,0.7-1l0,0c0.1,0,0.1,0,0.1-0.1c0.3-0.2,0.7-0.3,1-0.6
		c0.1,0,0.1,0,0.1-0.1c0.2-0.1,0.4-0.2,0.5-0.3c0.5-0.3,0.9-0.6,1.3-1.1c0,0,0.1,0,0.1-0.1c0.1-0.1,0.1,0,0.2,0.1L17.3,6l-0.1,0.1
		l-0.1,0.1c-0.4,0.5-0.8,0.9-1.3,1.3c-0.1,0-0.2,0-0.2,0.1c-0.3,0.1-0.6,0.2-0.8,0.3c-0.1,0-0.2,0.1-0.3,0.2C14.2,8.3,14,8.7,14.1,9
		c0,0.2,0.1,0.3,0.2,0.5c0.2,0.6,0.5,1.2,0.8,1.7c0.1,0.1,0.2,0.2,0.3,0.3c0.1,0.2,0.4,0.2,0.6,0.1c0.4-0.2,0.8-0.5,0.9-0.9
		c0.2-0.2,0.3-0.4,0.4-0.7c0.2-0.4,0.4-0.8,0.5-1.3c0.2-0.6,0.3-1.3,0.4-1.9c0.1-0.4,0.1-0.9,0.1-1.3c0-0.1,0-0.2-0.1-0.3
		c-0.1,0-0.2,0.1-0.3,0.1l-0.1,0.1c-0.1,0.1-0.1,0-0.1-0.1s0.1-0.1,0.1-0.1c0.1,0,0.1-0.1,0.1-0.1V5c0.3-0.3,0.3-0.8,0-1.1h-0.1
		C17.6,3.6,17.3,3.3,17,3c0.1-0.7,0-0.8-0.1-1c-0.2-0.1-0.3-0.3-0.4-0.5l-0.1-0.1l-0.1-0.1c-0.1,0-0.1-0.1-0.1-0.1
		c-0.1,0-0.1,0-0.1-0.1l0,0C16,1,15.9,1,15.8,1l0,0l-0.1-0.1c-0.1,0-0.2,0-0.2-0.1c-0.1,0-0.2,0-0.3-0.1h-0.3l0,0V0.6h-0.1h-1v0.1
		h-0.4c-0.1,0.1-0.1,0.1-0.2,0.1c-0.1,0.1-0.3,0.1-0.4,0.2c0,0.1-0.1,0.1-0.1,0.1c0,0.1-0.1,0.1-0.2,0.1l-0.1,0.1l-0.1,0.1v0.1h-0.1
		v0.1h-0.1C12,1.7,12,1.7,11.9,1.8l-0.1,0.1c0,0.1,0,0.1-0.1,0.1c0,0.1,0,0.1-0.1,0.1l-0.1,0.1c0,0.1-0.1,0.2-0.1,0.2l-0.1,0.1
		c0,0-0.3,0.2-0.4,0.2c0,0.1-0.1,0.2-0.1,0.2V3c0,0,0,0,0,0.1h-0.1l-0.1,0.1c0,0.1,0,0.1,0,0.2h-0.1c-0.1,0.1-0.2,0.3-0.2,0.4
		c0,0.1,0,0.1,0,0.2h-0.1c0,0.1,0,0.2-0.1,0.2c0,0.1,0,0.2-0.1,0.2L9.9,4.5L9.8,4.9c-0.2,0-0.2,0.2-0.4,0.2L9.3,5.2
		c0,0.1-0.1,0.1-0.2,0.1L9,5.4C8.9,5.5,8.8,5.6,8.6,5.7v0.1H8.5v0.1H8.4L8.3,6L8.2,6.1C8.1,6.2,8,6.3,7.9,6.3v0.1H7.8L7.7,6.5
		L7.5,6.6c0,0.1-0.1,0.1-0.1,0.1L7.3,6.8C7.2,6.9,7.2,7,7.1,7.1L7,7.2c0,0.1-0.1,0.1-0.1,0.1c0,0.1-0.1,0.1-0.1,0.1
		c0,0.1-0.1,0.1-0.1,0.1c0,0.1-0.1,0.1-0.1,0.1c0,0.1-0.1,0.1-0.1,0.1C6.4,7.8,6.3,7.9,6.2,7.9C6.2,8,6.1,8.1,6,8.1
		C5.9,8.2,5.9,8.3,5.8,8.4c0,0.1-0.1,0.1-0.1,0.1v0.1H5.6v0.1H5.5v0.1H5.4c0,0.1-0.1,0.1-0.1,0.1C5.2,9,5.2,9,5.1,9v0.1H5
		c0,0.1,0,0.1-0.1,0.1c0,0.1-0.1,0.1-0.1,0.1v0.1H4.7c0,0.1,0,0.1-0.1,0.1c0,0.1,0,0.1-0.1,0.1v0.1H4.4v0.1l0,0H4.3
		c0,0.1-0.1,0.2-0.3,0.3c0,0.1-0.1,0.1-0.1,0.1l-0.1,0.1l-0.1,0.1l-0.1,0.1l-0.1,0.1l-0.1,0.1l-0.1,0.2V11H3.2v0.1H3.1
		c0,0.1,0,0.1,0,0.2H3v0.1H2.9c0,0.1-0.1,0.2-0.1,0.2L2.7,12c0,0.1,0,0.2-0.1,0.2c0,0.1,0,0.2-0.1,0.2c0,0.1,0,0.2-0.1,0.2v0.2H2.3
		c0,0.1,0,0.1,0,0.2H2.2c0,0.1,0,0.2-0.1,0.2c0,0.1,0,0.2-0.1,0.3c0,0.1,0,0.2-0.1,0.2c0,0.1,0,0.2-0.1,0.3c0,0.2,0,0.3-0.1,0.4
		c0,0.1,0,0.2,0,0.3v0.1H1.6c0,0.1,0,0.3,0,0.4l-0.1,0.2c0,0.2,0.1,0.5-0.1,0.6c0,0.1,0,0.2-0.1,0.2c0,0.1,0,0.2-0.1,0.2
		c0,0.2,0,0.5,0,0.7v0.1v0.1v0.1c0,0.1,0,0.2,0.1,0.2l0,0l0.1,0.1c0.1,0.1,0,0.2,0.1,0.2c0,0,0,0,0.1,0.1c0,0.1,0,0.1,0,0.2l0.1,0.1
		c0.1,0.1,0,0.2,0.1,0.2l0.1,0.1v0.1c0,0,0,0,0.1,0v0.1C2.1,18.9,2,19,2.1,19l0,0c0.1,0.1,0,0.2,0.1,0.2l0,0c0.1,0.1,0,0.2,0.1,0.2
		c0.1,0.1,0,0.2,0.1,0.3c0.1,0.1,0.1,0.3,0,0.5v0.1c0,0.1,0,0.1,0.1,0.1l0.1-0.1l0,0l0.1-0.1l0.1-0.1L2.9,20l0,0
		C3,19.9,3,19.8,3,19.8c0,0.4,0,0.3,0.1,0.3S3.2,20,3.2,20v0.1h0.1c0,0.1,0,0.2,0,0.3c0.2,0.5,0.2,1,0,1.4c0,0.1,0,0.3,0,0.4H3.2
		c0,0.1,0,0.2-0.1,0.3c0,0.1,0,0.2-0.1,0.2c0,0.1,0,0.2-0.1,0.2L2.8,23c0,0.1,0,0.2-0.1,0.2c0,0.1,0,0.2-0.1,0.2v0.1H2.5
		c0,0.1-0.1,0.3-0.2,0.3c0,0.1-0.1,0.3-0.2,0.3L2,24.2c0,0.1,0,0.2-0.1,0.2l-0.1,0.1v0.1H1.7c-0.1,0.1,0,0.2-0.1,0.2l-0.1,0.1
		L1.4,25v0.1l-0.1,0.1l-0.1,0.1v0.1l-0.1,0.1c-0.1,0.1,0,0.2-0.1,0.2l-0.1,0.1C0.8,25.9,0.8,26,0.8,26c-0.1,0.1,0,0.2-0.1,0.2
		c-0.1,0.1,0,0.2-0.1,0.2c-0.1,0.1,0,0.2-0.1,0.2c-0.1,0.1,0,0.2-0.1,0.3c-0.1,0.1,0,0.2-0.1,0.3v0.1c0,0.4,0,0.7,0,1.1
		c0.1,0.1,0,0.2,0.1,0.3c0.1,0.1,0,0.2,0.1,0.2L0.6,29c0.1,0.1,0.1,0.2,0.2,0.3l0.1,0.1c0.1,0.1,0.2,0,0.2,0.1l0.1,0.1
		c0.1,0,0.1,0,0.1-0.1v-0.1l-0.1-0.1v-0.1c-0.1-0.1,0-0.2-0.1-0.2c-0.1-0.1,0-0.3-0.1-0.4c0-0.2,0-0.4,0-0.5c0.1-0.1,0-0.3,0.1-0.4
		v-0.1C1,28,0.9,27.8,1,27.7c0.1-0.1,0-0.2,0.1-0.2v-0.1c0.1-0.1,0-0.2,0.1-0.2c0.1-0.1,0-0.2,0.1-0.2l0.1-0.1
		c0.1-0.1,0-0.2,0.1-0.2l0.1-0.1l0.1-0.1l0.1-0.1l0.1-0.1L2,26.2h0.1c0,0,0.1-0.1,0-0.1l0,0h0.1L2.3,26c0.1-0.1,0.2-0.1,0.3-0.1
		c0.1,0.1,0,0.2,0,0.2l0,0c0,0.1,0,0.2-0.1,0.2c0,0.1,0,0.2-0.1,0.3v0.1H2.3l0,0v0.1c-0.1,0.1,0,0.1,0,0.2l0,0l0,0H2.2v0.2l0,0H2.1
		C2,27.3,2,27.4,2,27.5c-0.1,0.1,0,0.2-0.1,0.2v0.1c-0.1,0.1,0,0.2-0.1,0.3c-0.1,0.2,0,0.5-0.1,0.8c0,0.2,0,0.4,0,0.5
		c0.1,0.3,0,0.6,0.1,0.9v0.1c0.1,0.1,0,0.3,0.1,0.4v0.1C2,31,1.9,31.1,2,31.1c0.1,0.1,0,0.2,0.1,0.3c0.1,0.1,0,0.2,0.1,0.3h0.1v0.1
		c0.1,0,0.1,0.1,0.1,0.2c0.1,0,0.1,0.1,0.1,0.2l0.1,0.1l0.1,0.1c0.2,0.1,0.4,0.3,0.5,0.5L3.3,33l0.1,0.1l0.1,0.1l0.1,0.1l0.1,0.1
		l0.1,0.1l0.1,0.1L4,34h0.1v0.1l0.1,0.1l0.1,0.1c0.1,0,0.1,0.1,0.1,0.2l0.1,0.1h0.1l0,0l0,0v0.1h0.1c0,0.1,0,0.1,0,0.2
		c0.1,0.1,0,0.2,0.1,0.3c0.1,0.2,0,0.3,0,0.5l0.1,0.1C5.1,36.2,5.1,36.2,5.2,36.1L5.2,36.1z"/>
</g>
</svg>
