<?xml version="1.0" encoding="utf-8"?>
<!-- Generator: Adobe Illustrator 22.1.0, SVG Export Plug-In . SVG Version: 6.00 Build 0)  -->
<svg version="1.1" id="Layer_1" xmlns="http://www.w3.org/2000/svg" xmlns:xlink="http://www.w3.org/1999/xlink" x="0px" y="0px"
	 viewBox="0 0 59.9 46.9" style="enable-background:new 0 0 59.9 46.9;" xml:space="preserve">
<style type="text/css">
	.st0{fill:#FFFFFF;}
</style>
<g>
	<path class="st0" d="M44.4,3.2L44.4,3.2c-0.3-0.1-0.7-0.1-1,0h0c-0.1,0.1-0.3,0-0.4,0.1l0,0c-0.1,0-0.2,0-0.2,0.1
		c-0.1,0.1-0.2,0-0.2,0.1c-0.1,0.1-0.2,0-0.2,0.1l0,0c-0.3,0.2-0.5,0.4-0.3,0.7c0,0.1,0.1,0.1,0.1,0.2c-0.1,0.1,0,0.3-0.1,0.4
		c0,0-0.1,0.1-0.1,0.1C41.9,5,41.8,5,41.7,5c0,0,0,0-0.1,0c-0.1,0-0.2,0-0.2,0.1l0,0c0,0,0-0.1,0-0.1c0,0,0,0-0.1,0c0,0,0,0.1,0,0.1
		l0,0c-0.1,0-0.1,0-0.2,0c0,0,0,0.1,0,0.1c0,0-0.1,0-0.1,0c0,0.2,0.1,0.3,0.1,0.5c0.1,0,0.1,0.1,0.1,0.2c0,0,0,0,0.1,0c0,0,0,0,0,0
		c0,0.1,0,0.2,0,0.2v0c0,0.1,0,0.2,0.1,0.2l0,0c0,0,0,0,0,0c0,0.1,0.1,0.1,0.1,0.1v0c0.1,0.1,0.1,0.2,0.2,0.3l0,0
		c0,0.1,0.1,0.1,0.1,0.1l0,0c0,0,0.1,0.1,0.1,0.1l0,0C42,7,42,7.1,42,7.1l0,0c0,0,0.1,0.1,0.1,0.1c0,0,0,0,0,0c0.1,0,0.1,0,0.1,0.1
		l0.1,0.1c0.1,0,0.1,0,0.1,0.1c0.2,0.2,0.4,0.3,0.6,0.4C43.2,8,43.3,8,43.5,8.1c0.2,0,0.4,0,0.6,0c0-0.1,0.1-0.1,0.1-0.1
		c0-0.1,0-0.1,0.1-0.1c0-0.1,0-0.2,0.1-0.2c0-0.1,0-0.2,0.1-0.3c0-0.1,0-0.2,0.1-0.3c0-0.1,0-0.2,0.1-0.2c0-0.1,0-0.2,0.1-0.3
		c0-0.1,0-0.2,0.1-0.2c0-0.1,0-0.2,0.1-0.2c0,0,0-0.1,0-0.1c0,0,0.1-0.1,0.1-0.1v0c0.1-0.1,0-0.2,0.1-0.3c0,0,0-0.1,0-0.1
		c0.1-0.3,0.1-0.6,0-0.8v0c-0.1-0.1,0-0.3-0.1-0.4C45,4.2,45.1,4.1,45,4c-0.1-0.1,0-0.2-0.1-0.3v0l0,0c0,0,0,0,0,0
		c0-0.1,0-0.2-0.1-0.2l0,0l0,0c0,0-0.1-0.1-0.1-0.1c0,0-0.1-0.1-0.1-0.1l0,0C44.5,3.2,44.4,3.2,44.4,3.2z"/>
	<path class="st0" d="M29.2,32.3c-0.1-0.2,0-0.4-0.1-0.5c0-0.2-0.1-0.5-0.4-0.5c-0.1-0.1-0.3,0-0.4-0.1c0,0-0.1,0-0.1,0
		c-0.3-0.1-0.7-0.1-1,0c0,0-0.1,0-0.1,0c-0.1,0.1-0.2,0-0.3,0.1c0,0-0.1,0.1-0.1,0.1c-0.1,0.1-0.1,0.1,0,0.2c0,0,0,0,0,0
		c-0.1,0.2-0.1,0.5-0.2,0.7c0,0-0.1,0-0.1,0c0,0.1,0,0.3-0.1,0.4c0,0.1,0,0.2,0,0.3c0,0-0.1,0-0.1,0c0,0,0,0.1,0,0.1
		c-0.1,0.1,0,0.3-0.1,0.4c0,0,0,0.1,0,0.1c-0.1,0.1,0,0.3-0.1,0.4c-0.1,0-0.1,0.1,0,0.2c0,0,0,0,0,0c0,0.1,0.1,0.1,0.2,0
		c0,0,0,0,0,0c0.1-0.1,0.2,0,0.3-0.1l0,0h0c0,0,0-0.1,0-0.1l0.2,0c0,0,0-0.1,0-0.1v0c0,0,0,0,0.1,0s0.1,0,0.1,0H27
		c0.2-0.1,0.4-0.1,0.6-0.2c0.1-0.1,0.1-0.1,0.2-0.1c0,0,0,0,0-0.1c0,0,0,0,0.1,0l0.1,0h0.1l0,0l0,0c0,0,0.1,0,0.1-0.1l0.1,0
		c0-0.1,0.1-0.1,0.2-0.1c0.1-0.1,0.2-0.1,0.3-0.1l0.1-0.1l0,0c0.1,0,0.2-0.1,0.2-0.2c0,0,0-0.1,0-0.1C29.3,32.6,29.3,32.4,29.2,32.3
		L29.2,32.3z"/>
	<path class="st0" d="M35.9,45c-0.1-0.2,0-0.5-0.1-0.8c0,0,0-0.1,0-0.1c-0.1-0.1,0-0.3-0.1-0.4c-0.1-0.1,0-0.2-0.1-0.3
		c0,0-0.1-0.1-0.1-0.1l0,0c0-0.1-0.1-0.1-0.2-0.1l0,0c-0.1-0.1-0.1-0.1-0.2-0.1h0l0,0c-0.1-0.1-0.2,0-0.3-0.1
		c-0.1-0.1-0.2,0-0.2-0.1c-0.1-0.1-0.2,0-0.3-0.1c-0.1-0.1-0.1-0.1-0.2-0.1l0,0c-0.1-0.1-0.2-0.1-0.3,0c0,0-0.1,0.1-0.1,0.1
		c-0.1,0.1,0,0.2-0.1,0.3c0,0,0,0,0,0c-0.1,0.1,0,0.3-0.1,0.4v0c-0.1,0.2,0,0.5-0.1,0.7c0,0,0,0.1,0,0.1c-0.1,0.1,0,0.3-0.1,0.4
		c0,0,0.1,0,0.1,0.1c0,0,0,0,0,0c0,0,0,0.1,0,0.1c0,0.1,0,0.1,0,0.2c0,0,0.1,0,0.1,0c0,0,0,0.1,0,0.1c0.1,0,0.2,0.1,0.2,0.2
		c0.1,0.1,0.2,0.1,0.3,0.2c0.1,0,0.1,0,0.2,0.1c0.1,0,0.1,0,0.1,0.1c0.1,0,0.2,0.1,0.3,0.1c0,0,0,0.1,0,0.1c0.1,0,0.2,0.1,0.3,0.2
		l0.2,0h0c0,0,0,0.1,0,0.1h0c0,0,0.1,0.1,0.1,0.1l0,0c0,0.1,0.1,0,0.2,0.1c0,0,0.1,0.1,0.1,0.1l0,0c0,0.1,0.1,0.1,0.2,0.1
		c0.2,0.1,0.3,0,0.3-0.2C36,46.1,36,45.6,35.9,45C35.9,45,35.9,45,35.9,45z"/>
	<path class="st0" d="M22.3,21.3c0,0-0.1-0.1-0.1-0.1c-0.1-0.1,0-0.2-0.1-0.2v0l0,0h0c0-0.1,0-0.2-0.1-0.2c-0.1-0.2,0-0.4-0.1-0.5
		c-0.1-0.1,0-0.2-0.1-0.2c0,0-0.1-0.1-0.1-0.1c0-0.1-0.1-0.1-0.2-0.1l0,0c-0.6-0.1-1.2-0.1-1.8,0c0,0,0,0-0.1,0c0,0,0,0,0,0
		c-0.1,0.1-0.3,0-0.4,0.1l0,0c0,0,0,0,0,0c-0.1,0-0.2,0-0.2,0.1l0,0c0,0-0.1,0.1-0.1,0.1c0,0-0.1,0.1-0.1,0.1c0,0,0,0,0,0
		c0,0,0,0,0,0c0,0-0.1,0.1-0.1,0.1v0c0,0-0.1,0.1-0.1,0.1l0,0c-0.1,0.1-0.2,0.2-0.2,0.3c0,0-0.1,0.1-0.1,0.1l0,0
		c-0.1,0.1-0.2,0.2-0.2,0.3v0c0,0-0.1,0.1-0.1,0.1c0,0,0,0,0,0l0,0c-0.1,0-0.1,0.1-0.1,0.2c0,0-0.1,0.1-0.1,0.1l0,0
		c-0.1,0.1-0.2,0.2-0.2,0.3l0,0c-0.1,0.1-0.2,0.2-0.2,0.3l0,0c-0.1,0-0.1,0.1-0.1,0.2l-0.1,0.1c0,0.1-0.1,0.2-0.2,0.3
		c0,0,0,0.1,0,0.1h0l-0.1,0c0,0.1,0,0.1-0.1,0.1c0,0.1-0.1,0.1-0.1,0.1l0,0c0,0,0,0,0,0c-0.1,0-0.2,0.1-0.3,0.2l0,0
		c-0.1,0-0.1,0-0.1,0.1l0,0l0,0c0,0-0.1,0.1-0.1,0.1c0,0.1-0.1,0-0.2,0.1l0,0c0,0,0,0,0,0c-0.1,0-0.1,0.1-0.1,0.1
		c-0.1,0-0.2,0.1-0.2,0.2c0,0,0,0,0,0l-0.2,0.1l-0.1,0.1c0,0,0,0.1,0,0.1c0,0,0,0,0,0c0,0,0,0-0.1,0v0.2c0,0,0,0,0,0v0.2
		c0,0,0,0,0,0c0,0,0,0,0,0.1c0,0.1,0,0.2,0,0.3c0,0,0,0,0,0.1c0,0,0,0,0,0c0,0,0,0,0,0.1c0,0,0,0.1,0,0.1c0,0,0,0.1,0,0.1v0h0
		c0,0,0,0,0,0.1c0,0.1,0,0.2,0.1,0.2v0c0.1,0.1,0,0.2,0.1,0.3c0.1,0.1,0,0.2,0.1,0.3c0.1,0.1,0,0.3,0.1,0.4l0,0
		c0.1,0.1,0,0.2,0.1,0.3v0c0.1,0.1,0,0.2,0.1,0.3c0.1,0.1,0,0.2,0.1,0.3c0.1,0.1,0,0.3,0.1,0.4l0,0c0.1,0.1,0,0.2,0.1,0.3v0
		c0.1,0.1,0,0.2,0.1,0.3c0.1,0.1,0,0.3,0.1,0.4c0.1,0.1,0,0.2,0.1,0.3v0c0,0,0,0,0.1,0c0,0.1,0,0.2,0,0.3c0,0,0,0,0,0.1
		c0.1,0.1,0,0.2,0.1,0.3c0,0,0,0,0,0.1c0,0,0,0,0,0c0.1,0.1,0,0.3,0.1,0.5v0.2c-0.1,0.1-0.1,0.2,0,0.3c0,0.1,0,0.1-0.1,0.2
		c-0.1,0.1,0,0.2-0.1,0.2c0,0-0.1,0.1-0.1,0.1l0,0l0,0c0,0-0.1,0.1-0.1,0.1h0l0,0v0c-0.1,0-0.1,0.1-0.1,0.1l0,0
		c-0.2,0.3,0.1,0.2,0.2,0.3l0,0l0,0c0.1,0.1,0.2,0,0.3,0.1c0.1,0.1,0.1,0,0.2,0.1c0,0.1,0.1,0,0.2,0.1c0,0,0.1,0.1,0.1,0.1
		c0,0,0,0,0,0l0,0c0,0.1,0.1,0.1,0.2,0.1c0,0,0.1,0.1,0.1,0.1c0,0,0,0,0,0l0,0c0,0.1,0.1,0.1,0.2,0.1c0,0,0.1,0.1,0.1,0.1v0
		c0.1,0.1,0.1,0.2,0.3,0.1c0.1-0.1,0.1-0.3,0-0.4l0,0c-0.1-0.3,0-0.6-0.1-0.9c0,0,0,0,0-0.1c0,0,0,0,0,0c-0.1-0.2,0-0.5-0.1-0.8v0
		c-0.1-0.2,0-0.5-0.1-0.7c0,0,0,0,0-0.1c0,0,0,0,0,0c0,0,0-0.1-0.1-0.1c0.1-0.2,0-0.4,0-0.6v0c-0.1-0.2,0-0.4-0.1-0.6
		c0,0,0-0.1,0-0.1c0,0,0,0,0,0c-0.1-0.2,0-0.4-0.1-0.6c0,0,0-0.1,0-0.1c0,0,0,0,0,0c0,0,0,0,0-0.1c0-0.2,0.1-0.4-0.1-0.5
		c0,0,0,0,0-0.1c0,0,0,0,0,0c-0.1-0.2,0-0.5-0.1-0.7c0,0,0,0,0-0.1c0,0,0,0,0,0c-0.1-0.2,0-0.4-0.1-0.6c0,0,0-0.1,0-0.1
		c-0.1-0.1-0.1-0.3,0-0.5l0,0c0.1,0,0.1-0.1,0.1-0.2c0.1-0.1,0.2,0,0.2-0.1h0c0.1-0.1,0.2,0,0.3-0.1l0,0c0,0,0,0,0,0
		c0.1,0,0.2,0,0.2-0.1l0,0c0.1,0,0.2,0,0.2-0.1h0c0,0,0-0.1,0-0.1l0.2,0c0.1-0.1,0.2-0.2,0.4-0.2c0.1,0,0.2-0.1,0.2-0.2l0.2,0
		c0-0.1,0.1-0.1,0.1-0.2c0.1,0,0.1,0,0.1-0.1c0,0,0.1,0,0.1,0c0.4-0.2,0.7-0.5,1.1-0.8c0-0.1,0.1-0.1,0.2-0.1c0-0.1,0.1-0.2,0.2-0.2
		c0-0.1,0.1-0.1,0.1-0.1l0.1-0.2c0,0,0,0,0,0c0.1,0,0.1,0,0.2-0.1l0,0c0.1,0,0.1-0.1,0.1-0.1l0,0c0,0,0.1-0.1,0.1-0.1l0,0
		c0,0,0.1-0.1,0.1-0.1c0,0,0.1-0.1,0.1-0.1c0,0,0.1-0.1,0.1-0.1c0,0,0.1-0.1,0.1-0.1h0c0,0,0.1-0.1,0.1-0.1
		C22.5,21.7,22.5,21.5,22.3,21.3L22.3,21.3z"/>
	<path class="st0" d="M18.3,33.3C18.3,33.3,18.3,33.3,18.3,33.3C18.3,33.3,18.3,33.3,18.3,33.3L18.3,33.3z"/>
	<path class="st0" d="M36.1,34.5c0,0-0.1-0.1-0.1-0.1l0,0c-0.1-0.1-0.1-0.1-0.2-0.1l0,0c-0.1-0.1-0.2,0-0.3-0.1l0,0
		c-0.1-0.1-0.2-0.1-0.3-0.1c0,0,0,0,0,0c0,0-0.1,0-0.1,0c-0.1-0.1-0.3,0-0.4-0.1c0,0-0.1,0-0.1,0c-0.2,0-0.3-0.1-0.5,0v0.8
		c0.1,0.6-0.1,1.3,0.1,1.9c0,0.1,0,0.1,0,0.2c0.1,0.2,0.1,0.4,0,0.6c0,0.9,0,1.8,0,2.7c0,0,0,0.1,0,0.1c0,0,0,0.1-0.1,0.1
		c0,0,0,0.1,0,0.1c-0.1,0.1,0,0.2-0.1,0.2v0C34,40.8,34,40.9,34,40.9c0,0-0.1,0.1-0.1,0.1c-0.1,0.1-0.2,0-0.2,0.1
		c0,0.1-0.1,0-0.2,0.1c0.2,0.3,0.2,0.3-0.1,0.5c-0.1,0.1-0.1,0.1-0.2,0.2c0,0-0.1,0.1-0.1,0.1l0,0c-0.1,0.1-0.1,0.1,0,0.2l0,0l0,0
		c0.1-0.1,0.2,0,0.3-0.1l0,0h0c0.1,0,0.2,0,0.2-0.1c0.1-0.1,0.3-0.1,0.4,0c0.1,0.1,0.2,0,0.2,0.1c0,0,0.1,0.1,0.1,0.1l0,0
		c0,0.1,0.1,0.1,0.2,0.1h0c0,0.1,0.2,0.1,0.2,0.1c0,0,0.1,0.1,0.1,0.1l0,0c0,0.1,0.1,0.1,0.2,0c0,0,0,0,0,0.1l0.1,0.1l0.2-0.1
		c0-0.2,0-0.3,0-0.5c0,0,0.1,0,0.1,0c0-0.1,0-0.1,0-0.2c0.1-0.5,0-1,0.1-1.6c0,0,0-0.1,0-0.1c0.1-0.2,0-0.4,0.1-0.5c0,0,0-0.1,0-0.1
		l0,0l0,0l0-0.7c0,0,0.1,0,0.1-0.1c0-0.1,0-0.1,0-0.2c0.1-0.2,0-0.5,0.1-0.7c0,0,0-0.1-0.1-0.1c0.1-0.1,0.1-0.1,0-0.2c0,0,0,0,0,0
		c0.1-0.1,0-0.3,0.1-0.4c0,0,0-0.1,0-0.1c0.1-0.4,0.1-0.9,0-1.3v0c0,0,0.1,0,0.1,0l0-0.2C36.2,35.3,36.2,34.9,36.1,34.5
		C36.1,34.5,36.1,34.5,36.1,34.5z"/>
	<path class="st0" d="M9.2,20.1L9.2,20.1L9.2,20.1C9.2,20.1,9.2,20.1,9.2,20.1z"/>
	<polygon class="st0" points="18.7,36.3 18.7,36.3 18.7,36.3 	"/>
	<path class="st0" d="M18.8,35.6C18.8,35.6,18.8,35.6,18.8,35.6c-0.1-0.2,0-0.4-0.1-0.6v0c-0.1-0.1,0-0.2-0.1-0.3c0,0,0,0,0-0.1
		c-0.1-0.1,0-0.2-0.1-0.3v0l0,0c-0.1-0.1,0-0.2-0.1-0.3v0c0,0-0.1,0-0.1,0c0-0.1,0-0.1,0-0.2c-0.1-0.1-0.1-0.2-0.1-0.3
		c-0.1-0.1-0.2-0.1-0.3-0.2c-0.1,0-0.2,0-0.2-0.1c-0.1,0-0.2,0-0.2-0.1c-0.1,0-0.2,0-0.3-0.1c-0.1,0-0.2,0-0.2-0.1l-0.3,0
		c0,0,0-0.1,0-0.1c-0.1,0-0.2,0-0.3,0.1c0,0.1,0,0.3-0.1,0.4c0,0.1,0,0.3,0,0.4c0,0-0.1,0.1-0.1,0.1c0,0.1,0,0.2-0.1,0.3
		c0,0.1-0.1,0.2,0,0.3c-0.1,0.2,0,0.4,0.3,0.5c0,0,0,0,0,0c0,0.1,0,0.1,0.1,0.2l0.2,0c0,0,0,0,0,0c0,0.1,0,0.1,0.1,0.2
		c0,0,0.1,0.1,0.1,0.1l0,0c0.1,0.1,0.3,0.2,0.4,0.3c0.1,0.1,0.2,0.2,0.3,0.3v0l0,0h0c0,0,0.1,0.1,0.1,0.1l0,0
		c0.1,0.1,0.2,0.1,0.3,0.2c0.2,0.3,0.4,0.5,0.7,0c0-0.1,0.1-0.1,0.2-0.1c0,0,0.1-0.1,0.1-0.1C18.9,36,18.9,35.8,18.8,35.6
		C18.8,35.7,18.8,35.6,18.8,35.6z"/>
	<polygon class="st0" points="34.3,29.8 34.3,29.8 34.3,29.8 	"/>
	<path class="st0" d="M33.7,29.6C33.7,29.6,33.7,29.6,33.7,29.6c-0.1,0.4-0.1,0.8,0,1.2c0,0,0,0.1,0,0.1c0.1,0.2,0,0.4,0.1,0.5
		c0.1,0.1,0.1,0.2,0.2,0.1c0.6-0.1,1.1-0.1,1.7-0.1c0.1,0,0.4,0.1,0.3-0.2l0,0c0,0-0.1-0.1-0.1-0.1l0,0c0,0-0.1-0.1-0.1-0.1l0,0
		c0,0-0.1-0.1-0.1-0.1c0,0-0.1-0.1-0.1-0.1l0,0c0,0-0.1-0.1-0.1-0.1l0,0c0,0-0.1-0.1-0.1-0.1l0,0c0,0-0.1-0.1-0.1-0.1l0,0
		c-0.1-0.1-0.3-0.2-0.4-0.3c0,0-0.1-0.1-0.1-0.1l0,0c0,0-0.1-0.1-0.1-0.1l0,0c0-0.1-0.1-0.1-0.2-0.1c0,0-0.1-0.1-0.1-0.1
		c-0.1-0.1-0.1-0.1-0.2-0.1c-0.1-0.1-0.2-0.1-0.2-0.1l0,0C33.8,29.5,33.7,29.5,33.7,29.6z"/>
	<path class="st0" d="M44.1,2C44.1,2,44.1,2,44.1,2L44.1,2C44.1,2,44.1,2,44.1,2z"/>
	<path class="st0" d="M43.2,1.2L43.2,1.2C43.2,1.2,43.2,1.2,43.2,1.2C43.2,1.2,43.2,1.2,43.2,1.2z"/>
	<path class="st0" d="M34.4,2.3c0.1,0.1,0.2,0,0.3,0.1c0.2,0.1,0.4,0,0.5,0.1l0,0l0,0c0.2,0.1,0.5,0,0.7,0.1h0l0,0
		c0.1,0.1,0.2,0,0.2,0.1c0,0,0.1,0,0.1,0c0,0,0,0,0,0c0,0,0,0.1,0,0.1c0.1,0,0.2,0,0.3,0c0,0,0.1,0.1,0.1,0.1
		c-0.1,0-0.1,0.1-0.2,0.1v0c-0.4,0.1-0.7,0.1-1.1,0h0c-0.1,0-0.1,0.1,0,0.2l0,0c0,0,0.1,0.1,0.1,0.1c0.1,0.2,0.3,0.1,0.5,0.2h0
		c0.3,0.1,0.6,0.1,0.9,0c0.3-0.1,0.7,0,1.1-0.1l0,0c0.1,0,0.2,0,0.3,0.1c0,0,0.1,0.1,0.1,0.1l0,0c0,0.1,0.1,0.1,0.1,0.1l0,0
		c0,0,0.1,0.1,0.1,0.1c0,0,0,0,0,0.1c0,0.1,0,0.2,0,0.2v0c-0.2,0.3-0.5,0-0.7,0.2c0,0-0.1,0-0.1,0c-0.1,0-0.2,0.1-0.2,0
		c-0.1,0-0.2,0-0.2,0.1c0,0.1,0.2,0.1,0.2,0.2c0.1,0.1,0.3,0,0.4,0.1c0.1,0.1,0.2,0,0.3,0.1l0,0l0,0c0.1,0.1,0.3,0,0.4,0.1h0
		c0.1,0.1,0.3,0,0.5,0.1c0,0,0,0,0,0c0,0,0,0,0,0h0l0,0c0.2,0.1,0.5,0.1,0.7,0c0,0,0.1-0.1,0.1-0.1v0c0,0,0.1-0.1,0.1-0.1v0
		c0,0,0.1-0.1,0.1-0.1l0,0c0,0,0.1-0.1,0.1-0.1c0.1-0.1,0.2,0,0.2-0.1c0-0.1,0.1,0,0.2-0.1c0,0,0-0.1,0-0.1c0,0,0.1,0,0.1,0
		c0,0,0,0,0,0c0,0,0,0,0,0c0.1,0,0.1-0.1,0-0.2c0,0,0,0,0,0c0-0.1,0-0.2,0-0.3c0.1-0.1,0.1-0.2,0-0.3c0,0,0,0,0,0c0,0,0,0,0.1,0
		c0,0,0.1-0.1,0.1-0.1l0,0c0.1-0.1,0.2-0.2,0.3-0.3l0,0C41.7,3,41.8,3,41.8,3l0,0c0.1-0.1,0.2,0,0.2-0.1l0,0l0,0
		c0.1,0,0.2,0,0.2-0.1l0,0c0.1,0,0.2,0,0.2-0.1c0.3-0.1,0.6-0.1,1,0c0,0,0.1,0,0.1-0.1c0.1,0.1,0.2,0.1,0.2,0.1l0,0l0,0
		c0.2,0.1,0.4,0.1,0.5,0c0.3-0.2,0-0.3-0.1-0.5l0,0c0-0.1,0-0.1-0.1-0.1l0,0c0,0-0.1-0.1-0.1-0.1l0,0c0,0-0.1-0.1-0.1-0.1l0,0
		c0,0-0.1-0.1-0.1-0.1l0,0c0,0-0.1-0.1-0.1-0.1c0,0-0.1-0.1-0.1-0.1c0,0-0.1-0.1-0.1-0.1c0,0-0.1-0.1-0.1-0.1l0,0
		c0,0-0.1-0.1-0.1-0.1l0,0c0,0-0.1-0.1-0.1-0.1l0,0C43.1,1,43,1,42.9,1c0,0,0,0,0,0c0,0,0-0.1,0-0.1c0,0-0.1-0.1-0.1-0.1l0,0
		c0-0.1-0.1-0.1-0.2-0.1c0,0-0.1-0.1-0.1-0.1c0,0,0,0,0,0l0,0c0-0.1-0.1-0.1-0.2-0.1c-0.1-0.1-0.2-0.1-0.2-0.1
		c-0.1-0.1-0.1-0.1-0.2-0.1l0,0c-0.1-0.1-0.2,0-0.3-0.1c0,0-0.1,0-0.1,0c0,0,0,0,0,0c-0.1-0.1-0.2,0-0.3-0.1c0,0-0.1,0-0.1,0
		C40.6,0,40.2,0,39.8,0c0,0-0.1,0.1-0.1,0.1c-0.1-0.1-0.3-0.1-0.4,0c-0.2,0.1-0.4,0-0.5,0.1h0c-0.2,0.1-0.4,0-0.5,0.1h0
		c-0.2,0.1-0.4,0-0.6,0.1h0c-0.1,0-0.1,0.1-0.2,0.1c-0.2-0.1-0.4,0-0.6,0c-0.1,0-0.1,0-0.2,0c-0.2,0.1-0.5,0-0.7,0.1
		c0,0-0.1,0-0.1,0c-0.1,0.1-0.3,0-0.5,0.1l0,0c-0.1-0.1-0.2-0.1-0.3,0c0,0-0.1,0-0.1,0c-0.1,0-0.1,0.1,0,0.2c0,0,0,0,0,0h0l0,0
		l0.2,0c0,0,0,0,0,0.1c0.3,0,0.5-0.1,0.8,0.1h0.2c0.2,0.1,0.5,0,0.7,0.1c0.1,0,0.2,0,0.3,0c0,0,0.1,0,0.1-0.1c0,0,0.1,0,0.1,0
		c0,0,0,0,0,0l0.1,0c0,0,0.1,0,0.1,0c0,0,0,0,0,0c0,0,0,0,0,0C38,1,38.1,1,38.2,1c0.1-0.1,0.2-0.1,0.3,0c0.1,0.1,0.1,0.2,0,0.3v0
		c0,0-0.1,0.1-0.1,0.1l0,0c0,0-0.1,0.1-0.1,0.1c0,0,0,0-0.1,0c-0.1,0-0.1,0-0.2,0.1c0,0,0,0,0,0l-0.1,0c0,0-0.1,0-0.1,0l0,0.1h0
		c-0.1,0-0.1,0-0.2,0c-0.1,0-0.1,0-0.2-0.1c0,0-0.1,0-0.1,0c-0.1-0.1-0.3-0.1-0.4,0c0,0,0,0,0,0c0,0,0-0.1,0-0.1c0,0-0.1,0-0.1,0
		c-0.3-0.1-0.7-0.1-1,0c0,0-0.1,0-0.1,0c-0.1,0.1-0.2,0-0.3,0.1c-0.1,0.1-0.2,0-0.2,0.1c-0.1,0.1-0.2,0-0.2,0.1
		c-0.1,0.1-0.1,0-0.2,0.1c0,0-0.1,0-0.1,0c-0.1,0-0.2,0-0.2,0.1c-0.1,0.1-0.2,0-0.2,0.1C34.2,2.2,34.3,2.3,34.4,2.3z"/>
	<path class="st0" d="M38.4,26.7L38.4,26.7c0-0.2,0-0.3,0.1-0.4c0-0.1,0-0.2,0-0.3h-0.3c0,0.1-0.1,0.1-0.2,0.1
		c0,0.1-0.1,0.1-0.2,0.1l0,0c-0.1,0-0.1,0-0.2,0.1h0c-0.1,0-0.2,0.1-0.2,0.1c0,0-0.1,0.1-0.1,0.1c0,0,0,0,0,0c0,0-0.1,0.1-0.1,0.1
		c0,0,0,0,0,0c-0.2,0.2-0.2,0.2-0.1,0.4c0,0,0,0,0,0.1c0,0,0,0.1,0,0.1c0,0.1,0,0.1,0.1,0.2c0,0,0,0.1,0,0.1c0,0.1,0,0.2,0.1,0.2
		c0.1,0.2,0.1,0.5,0.5,0.4v0c0.1-0.1,0.1-0.1,0.1-0.2v0c0.1-0.1,0.1-0.1,0.1-0.2v0c0.1-0.1,0.1-0.2,0.1-0.2c0,0,0-0.1,0-0.1
		c0.1-0.1,0-0.2,0.1-0.2c0.1-0.1,0.1-0.1,0.1-0.2v0C38.4,26.9,38.3,26.8,38.4,26.7z"/>
	<path class="st0" d="M38.3,27C38.3,27,38.3,27,38.3,27L38.3,27L38.3,27z"/>
	<path class="st0" d="M36.3,6.6C36.3,6.6,36.3,6.6,36.3,6.6c-0.1-0.1-0.2-0.1-0.2-0.1c0,0-0.1,0-0.1,0c-0.1-0.1-0.2,0-0.2-0.1
		c-0.1-0.1-0.2,0-0.2-0.1c-0.1-0.1-0.2,0-0.3-0.1c-0.1,0-0.3-0.1-0.4,0c0,0,0,0.1,0,0.1c0.4,0.4,0.9,0.7,1.3,1.1
		c0.2,0.2,0.3,0.3,0.5,0.5c0.2,0.3,0.5,0.5,0.8,0.7C37.8,8.7,38,8.8,38.2,9c0.1,0.1,0.2,0.1,0.2-0.1c0.1-0.1,0.1-0.3,0.1-0.4
		c0.2-0.1,0.3-0.3,0.5-0.3l0,0c0,0-0.1-0.1-0.1-0.1c0,0,0-0.1,0-0.1l-0.1-0.1c0,0-0.1-0.1-0.1-0.1c-0.1,0-0.1-0.1-0.1-0.1
		c0,0-0.1-0.1-0.1-0.1c0,0-0.1-0.1-0.1-0.1l-0.1-0.1c-0.1,0-0.1-0.1-0.2-0.1c-0.1,0-0.3,0-0.4-0.1c-0.1,0-0.2,0-0.3-0.1
		c-0.1,0-0.2,0-0.3-0.1l-0.3,0c0,0,0-0.1,0-0.1h-0.2h0c0,0,0,0,0,0c0,0,0-0.1,0-0.1c0,0-0.1,0-0.1,0C36.4,6.6,36.4,6.6,36.3,6.6
		C36.4,6.7,36.4,6.7,36.3,6.6l0,0.1h0C36.4,6.7,36.4,6.6,36.3,6.6C36.4,6.6,36.3,6.6,36.3,6.6z"/>
	<path class="st0" d="M59.9,19.8L59.9,19.8c0-0.5,0-1.1,0-1.6c-0.1-0.2-0.1-0.4-0.1-0.6c-0.1-0.1-0.1-0.3-0.1-0.4
		c-0.1-0.1-0.1-0.2-0.1-0.3c-0.1-0.1-0.1-0.1-0.1-0.2c-0.1,0-0.1-0.1-0.1-0.2c-0.1-0.1-0.2-0.2-0.2-0.3C59,16,59,15.9,58.9,15.8
		c0,0-0.1-0.1-0.1-0.1c-0.1,0-0.1-0.1-0.1-0.2c0,0-0.1-0.1-0.1-0.1c-0.1-0.1-0.2-0.2-0.2-0.3c-0.1,0-0.1-0.1-0.1-0.1
		c-0.1,0-0.1-0.1-0.1-0.2c0,0-0.1,0-0.1,0c0,0,0-0.1,0-0.1c0,0-0.1,0-0.1,0c0,0,0-0.1,0-0.1c-0.1-0.1-0.2-0.2-0.2-0.3
		c0,0-0.1-0.1-0.1-0.1c-0.1-0.1-0.2-0.2-0.2-0.3c0,0-0.1-0.1-0.1-0.1c0,0,0,0,0,0c0-0.1-0.1-0.2-0.2-0.3l0,0c0-0.1-0.1-0.1-0.1-0.1
		l0,0c0,0-0.1-0.1-0.1-0.1c-0.1-0.1-0.1-0.2-0.2-0.3l0,0c0,0-0.1-0.1-0.1-0.1c-0.1-0.1-0.1-0.2-0.2-0.3l0,0c0-0.1-0.1-0.1-0.1-0.1
		l0,0c0,0-0.1-0.1-0.1-0.1c-0.1-0.1-0.1-0.2-0.2-0.3l0,0c0,0-0.1-0.1-0.1-0.1h0c0,0-0.1-0.1-0.1-0.1c-0.1-0.1-0.1-0.2-0.2-0.3l0,0
		c0,0-0.1-0.1-0.1-0.1l0,0c0,0-0.1-0.1-0.1-0.1v0c-0.1,0,0-0.1-0.1-0.2l0,0c0,0,0,0,0,0c0,0-0.1-0.1-0.1-0.1c-0.1,0,0-0.1-0.1-0.2
		l0,0c0,0,0,0,0,0c0-0.1-0.1-0.1-0.1-0.1c-0.1,0,0-0.1-0.1-0.2c-0.1-0.1,0-0.2-0.1-0.2v0c-0.1-0.1,0-0.2-0.1-0.2
		c-0.1-0.1,0-0.2-0.1-0.3l0,0c0,0,0,0,0,0c0-0.1,0-0.2-0.1-0.2c-0.1-0.1,0-0.3-0.1-0.4v0c-0.1-0.2,0-0.4-0.1-0.6c0,0,0,0,0-0.1
		c0,0,0,0,0,0c-0.1-0.2-0.1-0.5,0-0.7c0,0,0-0.1,0-0.1c0,0,0,0,0,0c0.1-0.2,0-0.4,0.1-0.6v0c0.1-0.1,0-0.3,0.1-0.4
		c0-0.1,0.1-0.1,0.1-0.2c0,0,0,0,0,0l0,0c0-0.1,0-0.1,0-0.2c0,0,0-0.1,0-0.1c0,0,0,0,0,0c0,0,0,0,0.1,0c0-0.1,0-0.2,0.1-0.2
		c0-0.1,0-0.2,0.1-0.2c0-0.1,0-0.2,0.1-0.2c0-0.1,0-0.2,0.1-0.2c0,0,0-0.1,0.1-0.1c0-0.1,0.1-0.1,0.1-0.2c0,0,0.1-0.1,0.1-0.1
		c0-0.1,0.1-0.1,0.2-0.1c0,0,0,0,0-0.1c0,0,0,0,0,0l0.1,0c0,0,0,0,0,0l0.1,0l0,0l0.1,0c0,0,0,0,0,0h0c0,0,0.1,0,0.1,0
		c0.1,0,0.1,0,0.2,0l0,0l0,0c0,0,0,0,0,0c0.1,0,0.1,0,0.2,0h0c0,0,0.1,0.1,0.1,0.1v0c0,0,0,0,0,0c0,0,0,0.1,0,0.1
		c0,0-0.1,0.1-0.1,0.1l0,0c-0.1,0-0.1,0.1-0.1,0.1l0,0c0,0-0.1,0.1-0.1,0.1h0l0,0c-0.1,0-0.1,0.1-0.1,0.2c0,0,0,0.1,0,0.1
		c0,0.1,0,0.1,0.1,0.1c0,0,0.1,0.1,0.1,0.1c0,0,0.1,0.1,0.1,0.1c0,0,0,0,0,0c0.2,0.1,0.4,0.1,0.6,0c0.1-0.1,0.2,0,0.2-0.1h0
		c0.1-0.1,0.2-0.2,0.3-0.3c0.2-0.3,0.2-0.6,0.1-0.9c-0.1-0.1,0-0.2-0.1-0.2l0,0c0-0.1-0.1-0.1-0.1-0.1l0,0c0,0-0.1-0.1-0.1-0.1l0,0
		l0,0c0,0,0,0,0,0c0-0.1-0.1-0.1-0.2-0.1c-0.1-0.1-0.1-0.1-0.2-0.1h0c-0.3-0.1-0.7-0.1-1,0c-0.1,0.1-0.2,0-0.3,0.1h0
		c0,0-0.1,0-0.1,0.1l0,0l-0.1,0L55.4,4l-0.1,0.1c0,0,0,0.1,0,0.1l-0.2,0c0,0.1-0.1,0.1-0.1,0.2c-0.2-0.3-0.2-0.3-0.5-0.1
		c0,0.1,0,0.2-0.1,0.2c0,0.1,0,0.3,0,0.4c-0.2,0.1-0.2,0.2-0.2,0.4c-0.1,0.1-0.1,0.2-0.1,0.4c0,0-0.1,0-0.1,0c0,0.1-0.1,0.3-0.1,0.4
		c-0.5,1.1-0.6,2.4-0.3,3.6c0,0.2,0.1,0.3,0.2,0.5c0.1,0.4,0.3,0.7,0.5,1c0.2,0.3,0.4,0.7,0.6,0.9c0,0.1,0.1,0.2,0.1,0.3
		c0.3,0.5,0.6,1.1,0.9,1.6c0,0.1,0.1,0.1,0.2,0.2c0,0.2,0.1,0.3,0.2,0.4c0.1,0.2,0.2,0.4,0.3,0.6l0.5,1.1c0,0,0,0.1,0,0.1
		c0.1,0.4,0.2,0.8,0.3,1.2c0,0,0,0.1,0,0.1c0,0,0,0.1,0,0.1c-0.1,0.1-0.1,0.3-0.1,0.4c-0.1,0.2-0.2,0.5-0.3,0.7
		c-0.1,0.2-0.3,0.5-0.4,0.8c0.1,0,0.2,0,0.3,0c0.6,0.1,1.1,0.3,1.6,0.5c0.3,0.2,0.6,0.4,0.7,0.7c0.1,0.1,0.1,0.4,0.3,0.1
		c0.1-0.1,0-0.2,0.1-0.3c0.1-0.1,0-0.3,0.1-0.4v0C59.9,20.3,59.7,20,59.9,19.8z"/>
	<path class="st0" d="M56.4,4.9L56.4,4.9C56.4,4.9,56.4,4.9,56.4,4.9C56.4,4.9,56.4,4.9,56.4,4.9z"/>
	<path class="st0" d="M46.9,11c0.2-0.3,0.5-0.5,0.7-0.7c0.2-0.3,0.4-0.5,0.7-0.7c0.9-0.9,1.9-1.8,2.9-2.6c0.5-0.4,1.1-0.7,1.8-1
		c0.2,0,0.3-0.1,0.4-0.2c0.1,0,0.1-0.1,0.1-0.1c0.1,0,0.1-0.1,0.1-0.1l0.3-0.2c0,0,0,0,0,0c0.2-0.4,0.2-0.5-0.3-0.5c0,0,0,0-0.1,0
		c0,0,0,0,0,0c0,0-0.1,0-0.1,0.1l-0.2,0C53.2,5,53.1,5,53.1,5c0,0,0,0.1,0,0.1l-0.1,0c0,0-0.1,0-0.1,0c0,0,0,0.1,0,0.1l-0.2,0
		c0,0-0.1,0.1-0.1,0.1c0,0.1-0.1,0.1-0.2,0.1c0,0-0.1,0.1-0.1,0.1c-0.1,0.1-0.2,0.2-0.3,0.2c0,0.1-0.1,0.1-0.1,0.1
		C51.8,6,51.6,6,51.5,6.1c0,0-0.1,0.1-0.1,0.1c0,0.1-0.1,0.1-0.1,0.1c-0.1,0.1-0.2,0.2-0.3,0.2l-0.1,0.1c0,0.1-0.1,0.1-0.1,0.1
		c-0.1,0.1-0.1,0.1-0.2,0.2c-0.1,0.2-0.3,0.3-0.5,0.4c0,0.1-0.1,0.1-0.1,0.1l-0.1,0.1c-0.1,0.1-0.1,0.1-0.2,0.2
		c-0.1,0.1-0.1,0.1-0.2,0.2c-0.1,0.1-0.1,0.1-0.2,0.2C48.8,8.5,48.4,9,48,9.4c-0.2,0.2-0.5,0.5-0.7,0.7c0,0.1,0,0.1-0.1,0.1
		c0,0.1,0,0.1-0.1,0.1c0,0.1,0,0.1-0.1,0.1c-0.1,0.1-0.1,0.1-0.2,0.2c0,0.1,0,0.1-0.1,0.1c0,0.1,0,0.1-0.1,0.1l-0.1,0.1
		C46.7,11.2,46.7,11.2,46.9,11z"/>
	<path class="st0" d="M57.3,24.2c-0.1,0-0.2-0.1-0.2-0.2h0c-0.1-0.1-0.2-0.2-0.3-0.2c0,0-0.1-0.1-0.1-0.1l0,0c0,0-0.1-0.1-0.1-0.1
		c0,0-0.1-0.1-0.1-0.1l0,0c0,0-0.1-0.1-0.1-0.1l0,0l0,0c0,0-0.1-0.1-0.1-0.1c0,0-0.1-0.1-0.1-0.1c-0.1-0.1-0.1-0.2-0.2-0.3l0,0
		c0,0-0.1-0.1-0.1-0.1c-0.2-0.1-0.2-0.3-0.3-0.5c-0.1-0.1-0.1-0.3-0.2-0.3c-0.1,0-0.2,0.2-0.2,0.3c-0.2,0.3-0.4,0.5-0.5,0.8
		c-0.2,0.2-0.4,0.4-0.5,0.6c-0.2,0.1-0.3,0.3-0.4,0.4c-0.1,0-0.1,0-0.1,0.1l0,0c-0.1,0-0.1,0-0.1,0.1c-0.1,0-0.1,0-0.1,0.1
		c-0.1,0-0.1,0-0.1,0.1c-0.1,0-0.2,0-0.2,0.1c-0.1,0.1-0.2,0.1-0.3,0.2c-0.2,0-0.3,0-0.5-0.1c-0.2-0.1-0.5-0.1-0.7,0
		C51.3,24.9,51,25,50.7,25c-0.4-0.1-0.8-0.1-1.2-0.1c-1.2-0.1-2.3-0.2-3.5-0.4c-0.3-0.1-0.7-0.1-1,0c-1,0-1.9,0.4-2.7,1l-0.5,0.3
		c0,0-0.1,0.1-0.1,0.1c0,0-0.1,0.1-0.1,0.1l-0.1,0.1c0,0-0.1,0.1-0.1,0.1c0,0-0.1,0.1-0.1,0.1c0,0.1-0.1,0.2-0.2,0.3
		c0,0-0.1,0.1-0.1,0.1c0,0.1-0.1,0.1-0.1,0.2c0,0-0.1,0.1-0.1,0.1c0,0.1,0,0.2-0.1,0.2c0,0.1,0,0.2-0.1,0.2c0,0.1,0,0.2-0.1,0.2
		c0,0.1,0,0.1,0,0.2c0,0-0.1,0.1-0.1,0.1v0c-0.1,0.1,0,0.2-0.1,0.3v0c-0.2,0.2,0,0.4-0.1,0.6c0,0.1,0,0.2,0,0.3
		c0.1,0.1,0,0.3,0.1,0.4c0.1,0.1,0,0.2,0.1,0.3l0,0c0,0,0.1,0.1,0.1,0.1c0.1,0.1,0.2,0.2,0.3,0.3c0,0,0.1,0.1,0.1,0.1l0,0
		c0,0.1,0.1,0.1,0.2,0.1l0,0c0.2,0.1,0.5,0.1,0.7,0l0,0h0c0.1,0,0.1,0,0.1-0.1c0,0,0.1-0.1,0.1-0.1c0,0,0.1-0.1,0.1-0.1l0,0
		c0.1,0,0-0.2,0.1-0.2c0.1-0.1,0-0.2,0.1-0.3c0.1-0.1,0.1-0.2,0-0.3v0c-0.1-0.1,0-0.2-0.1-0.3l0,0c0,0-0.1-0.1-0.1-0.1
		c0,0-0.1-0.1-0.1-0.1l0,0c0-0.1-0.1-0.1-0.2,0c0,0,0,0,0,0c0,0,0-0.1-0.1-0.1c0,0,0,0,0,0c0-0.1-0.1-0.1-0.2-0.1l0,0.2
		c-0.1,0.1-0.1,0.2-0.2,0.3c0,0,0,0.1,0,0.1c0,0-0.1,0-0.1,0c0,0,0,0,0,0c0,0,0,0.1,0,0.1c-0.1,0.1-0.2,0-0.3,0l0-0.1
		c0,0-0.1,0-0.1,0c0-0.4,0-0.7,0-1.1c0,0,0.1,0,0.1,0c0-0.1,0-0.2,0.1-0.2c0,0,0.1-0.1,0.1-0.1c0-0.1,0.1-0.1,0.1-0.2
		c0,0,0.1-0.1,0.1-0.1c0-0.1,0.1-0.1,0.1-0.2c0,0,0.1-0.1,0.1-0.1l0.1-0.1c0,0,0.1-0.1,0.1-0.1c0.1-0.2,0.2-0.3,0.4-0.4l0.1-0.1
		c0,0,0.1-0.1,0.1-0.1l0.1-0.1c0,0,0-0.1,0-0.1c0,0,0.1,0,0.1,0c0,0,0.1,0,0.1,0c0,0,0-0.1,0-0.1c0,0,0.1,0,0.1,0
		c0-0.1,0.1-0.1,0.2-0.1c0,0,0-0.1,0-0.1c0.2-0.1,0.4-0.2,0.6-0.2c0.1-0.1,0.2-0.1,0.3-0.1c0,0,0-0.1,0-0.1h0l0,0l0.3,0
		c0,0,0.1,0,0.1-0.1c0.6-0.1,1.3-0.1,1.9,0c0,0,0.1,0,0.1,0.1c0.1,0.1,0.2,0.1,0.3,0c0,0,0,0,0,0c0,0.1,0.1,0.1,0.1,0.1l0,0l0,0
		c0.1,0.1,0.3,0,0.4,0.1c0.1,0.1,0.3,0.1,0.4,0v0c0,0,0,0.1,0,0.1h0c0.1,0.1,0.3,0,0.4,0.1h0l0,0c0.1,0.1,0.3,0,0.4,0.1
		c0.1,0.1,0.2,0.1,0.3,0c0,0,0,0,0-0.1l0,0c0,0.1,0.1,0.1,0.1,0.1l0,0l0,0c0.1,0.1,0.3,0,0.4,0.1h0c0.1,0.1,0.4,0,0.5,0.1
		c0.1,0.1,0.2,0,0.4,0.1h0c0,0,0,0,0.1,0l0,0l0,0c0.1,0.1,0.3,0,0.4,0.1l0,0l0,0c0.1,0.1,0.2,0.1,0.3,0c0,0,0,0,0,0l0.2,0.1
		c0.2,0,0.3,0,0.5,0h0v0c0,0,0,0.1,0,0.1h0l0,0c0.1,0.1,0.2,0,0.4,0c0,0,0,0,0.1,0c0.1,0.1,0.3,0,0.4,0.1h0.3c0,0,0.1,0,0-0.1h0l0,0
		c0,0,0.1,0,0.1,0h0.3c0,0,0-0.1,0-0.1c0.1,0,0.2,0,0.3,0c0.1-0.1,0.2-0.1,0.3-0.1c0.1-0.1,0.1-0.1,0.2-0.1c0.1-0.1,0.2-0.1,0.3-0.1
		c0,0,0.1,0,0.1-0.1c0-0.1,0.1-0.1,0.2-0.1c0,0,0,0,0-0.1c0.1,0,0.1,0,0.2,0l0.1-0.1c0,0,0-0.1,0-0.1l0.2,0l0.1-0.1l0.1-0.1
		c0,0,0-0.1,0-0.1l0.3-0.1c0,0,0-0.1,0-0.1c0,0,0.1,0,0.1,0c0,0,0,0,0-0.1c0,0,0,0,0,0h0h0v0c0,0,0.1,0,0.1-0.1c0,0,0.1-0.1,0.1-0.1
		c0,0,0.1-0.1,0.1-0.1c0,0,0.1-0.1,0.1-0.1l0,0c0,0,0.1-0.1,0.1-0.1h0c0-0.1,0.1-0.2,0.2-0.3C57.5,24.3,57.4,24.2,57.3,24.2z"/>
	<path class="st0" d="M41.3,25.6c0,0.1,0.1,0.1,0.2,0.1c0,0,0,0,0.1-0.1c0.3-0.4,0.5-0.8,0.5-1.3c0-0.1,0-0.2,0-0.3
		c0.1-0.4,0.1-0.7,0.2-1.1c0.1-0.5,0.2-1,0.3-1.5c0.1-0.3,0.2-0.6,0.2-0.9c0-0.1,0-0.1,0-0.2c0.1-0.1,0.1-0.2,0.1-0.3
		c0-0.2,0.1-0.5,0.2-0.7c0.2-0.9,0.4-1.9,0.6-2.8c0.1-0.5,0.2-1,0.4-1.4c0.1-0.1,0.1-0.2-0.1-0.2c-0.1,0-0.2,0-0.3,0.1
		c-0.1,0.1,0,0.3-0.1,0.4c0,0,0,0.1,0,0.1c-0.1,0.1,0,0.2-0.1,0.2c0,0,0,0.1,0,0.1c-0.1,0.1,0,0.2-0.1,0.2v0l0,0
		c-0.1,0.1,0,0.2-0.1,0.3c0,0,0,0,0,0l0,0c-0.1,0.1,0,0.2-0.1,0.3v0c-0.1,0.1,0,0.2-0.1,0.3v0C43,16.8,43,16.9,43,17
		c0,0,0,0.1,0,0.1c-0.1,0.1,0,0.2-0.1,0.2c0,0,0,0.1,0,0.1c-0.1,0.1,0,0.2-0.1,0.2c0,0,0,0.1,0,0.1c-0.1,0.1,0,0.2-0.1,0.3
		c-0.1,0.1,0,0.2-0.1,0.3v0c-0.1,0.1,0,0.2-0.1,0.3l0,0c-0.1,0.1,0,0.3-0.1,0.4c-0.1,0.1,0,0.2-0.1,0.3c0,0,0,0,0,0v0
		c-0.1,0.1,0,0.2-0.1,0.3c0,0,0,0.1,0,0.1c-0.1,0.1,0,0.2-0.1,0.3v0c-0.1,0.1,0,0.3-0.1,0.4c-0.1,0.1,0,0.2-0.1,0.3v0
		c-0.1,0.1-0.1,0.2,0,0.3c0,0-0.1,0.1-0.1,0.1c0,0.1,0,0.3-0.1,0.4c0,0.2,0,0.4-0.1,0.5c-0.1,0.1,0,0.3-0.1,0.4
		c-0.1,0.1,0,0.3-0.1,0.4c0,0,0,0,0,0l0,0c0,0,0,0.1,0,0.1v0.1c0,0.1,0,0.1,0,0.2c0,0.1,0,0.1,0,0.2c0,0,0,0,0,0c0,0,0,0.1,0,0.1
		c0,0.5,0,1.1,0,1.6h0C41.2,25.4,41.2,25.5,41.3,25.6z"/>
	<path class="st0" d="M30.6,7.1C30.6,7.1,30.6,7.1,30.6,7.1c0,0.1,0.1,0.2,0.1,0.2c0,0,0.1,0,0.1,0c0.1,0.1,0.1,0.2,0.1,0.3
		c0.1,0.1,0.2,0.2,0.3,0.3c0.1,0.1,0.1,0.2,0.2,0.3c0,0.1,0,0.1,0,0.2c0.1,0,0.1,0.1,0.1,0.1l1,0.9c0.1,0,0.2,0.1,0.3,0.2l0.2,0
		c0,0,0.1,0.1,0.1,0.1c0,0,0.1,0,0.1,0c0,0,0,0.1,0,0.1c0.1,0,0.2,0,0.2,0.1c0.1,0,0.1,0,0.2,0c0,0,0,0.1,0,0.1c0.1,0,0.2,0,0.2,0.1
		c0.1,0,0.2,0,0.2,0.1c0.1,0,0.2,0,0.3,0.1c0.1,0.1,0.3,0.1,0.4,0.2c0.1,0,0.1,0,0.2,0c0,0,0,0.1,0,0.1c0.2,0,0.4,0.1,0.5,0.2
		c0.1,0,0.2,0,0.2,0.1c0.1,0,0.2,0,0.2,0.1c0.1,0,0.2,0,0.3,0.1c0.1,0,0.2,0,0.2,0.1c0.1,0,0.1,0,0.2,0c0,0,0,0.1,0,0.1
		c0.1,0,0.2,0,0.3,0.1c0.1,0,0.2,0,0.2,0.1c0.1,0,0.2,0,0.3,0.1c0.1,0,0.2,0,0.2,0.1c0.1,0,0.2,0,0.3,0.1h0.2c0,0,0.1,0.1,0.1,0.1
		c0.1,0,0.2,0,0.2,0.1c0.1,0,0.3,0,0.4,0.1c0.1,0.1,0.3,0.1,0.4,0.2l0.1,0.1c0.1,0,0.1,0,0.2,0l0.1,0.2c0.1,0,0.1,0,0.1,0.1
		c0,0,0.1,0.1,0.1,0.1l0.1,0.1c0.1,0,0.1,0.1,0.1,0.1l0.1,0.1c0.1,0,0.1,0.1,0.1,0.2c0,0,0.1,0.1,0.1,0.1l0.1,0.1
		c0.2,0.1,0.3,0.2,0.3,0.4l0.1,0.1l0.1,0.1l0.1,0.1c0,0,0.1,0,0.1,0c0,0,0,0.1,0,0.1c0,0,0.1,0.1,0.1,0.1c0.1,0,0.1,0.1,0.1,0.1
		l0.4,0.3c0,0,0,0,0,0.1c0.2,0.4,0.6,0.3,1,0.2c0,0,0,0,0.1,0c0.1,0,0.1,0,0.1-0.1l0,0c0.1,0,0.1-0.1,0.2-0.1c0,0,0.1,0,0.1-0.1
		c0,0,0,0,0.1,0h0c0,0,0,0,0,0c0,0,0.1,0,0.1,0c0,0,0.1,0,0.1-0.1c0,0,0,0,0,0c0,0,0.1,0,0.1-0.1l0.1-0.1c0.1,0,0.1-0.1,0.1-0.1
		c0-0.1,0.1-0.1,0.1-0.2c0,0,0.1-0.1,0.1-0.1c0,0,0.1,0,0.1,0c0.2,0,0.2,0.1,0.2,0.2c0,0.2,0.1,0.4,0.3,0.4c0.2,0.1,0.3,0.1,0.5,0.2
		c0.7,0.3,1.3,0.6,2,0.9l0.8,0.5l0,0c0,0.1,0.1,0.1,0.2,0.1c0.5,0.7,1.2,1.3,2,1.7c0.3,0.2,0.6,0.3,0.9,0.5c1,0.6,1.9,1.3,2.8,2
		c0.2,0.2,0.5,0.4,0.8,0.5c0.2,0.1,0.3,0.1,0.4-0.1c0.1-0.1,0.1-0.2,0.2-0.3c0.1-0.3,0.3-0.6,0.5-0.8c0.2-0.2,0.2-0.2,0-0.4
		c-0.4-0.4-0.9-0.9-1.3-1.3c-0.4-0.4-0.8-0.7-1.3-1c-1-1-2.1-1.7-3.3-2.3c-0.5-0.4-0.9-0.8-1.3-1.2C48,13.3,47.5,12.7,47,12
		c-0.1-0.2-0.2-0.3-0.3-0.5c-0.2-0.1-0.3-0.3-0.4-0.5c-0.1,0-0.1-0.1-0.1-0.1c0,0-0.1-0.1-0.1-0.1c-0.1,0-0.1,0-0.1-0.1
		c-0.1,0-0.2-0.1-0.3-0.2l-0.3,0c0,0,0-0.1,0-0.1c0,0,0,0,0,0c0,0-0.1,0-0.1,0c-0.1-0.1-0.3,0-0.4,0c0,0-0.1,0-0.1,0l-0.1,0
		c0,0,0-0.1-0.1-0.1h0c-0.2-0.1-0.4,0-0.5-0.1c-0.1-0.1-0.2,0-0.2-0.1h0C43.7,10,43.6,10,43.6,10l0,0c0-0.1-0.1-0.1-0.2-0.1h0
		c0-0.1-0.1-0.1-0.2-0.1c-0.1-0.1-0.2-0.1-0.3-0.2l0,0h0c0-0.1-0.1-0.1-0.2-0.1v0c0,0-0.1,0.1-0.1,0.1c0.2,0.5,0.3,1.1,0.3,1.7
		c0,0.2,0.1,0.4,0.3,0.5c0.3,0.2,0.5,0.5,0.8,0.7c0.2,0.2,0.5,0.3,0.7,0.5c0.3,0.2,0.4,0.6,0.2,1l0,0c-0.1-0.1-0.1-0.1-0.1-0.2
		c0-0.1,0-0.2-0.1-0.2c-0.1-0.1-0.2-0.2-0.3-0.2c-0.5-0.5-1.1-0.8-1.8-1.1c-0.1-0.1-0.3-0.2-0.4-0.2c-0.3-0.1-0.6-0.2-0.9-0.2
		c-0.7-0.3-1.3-0.7-1.9-1.2c-0.4-0.3-0.9-0.6-1.3-0.9c-0.1-0.1-0.3-0.2-0.4-0.3c0,0-0.1-0.1-0.1-0.1c-0.4-0.3-0.8-0.7-1.2-1
		c0,0-0.1-0.1-0.1-0.1l0,0c0-0.1-0.1-0.1-0.2-0.1c0,0-0.1-0.1-0.1-0.1c0,0-0.1-0.1-0.1-0.1l-1.1-1.2c-0.1-0.2-0.3-0.3-0.4-0.4
		c0,0,0-0.1,0-0.1L34.2,6C34.1,6,34,5.9,34,5.8l-0.1-0.1c-0.1,0-0.2,0-0.2-0.1c-0.1,0-0.2,0-0.3-0.1h-1.1c0,0-0.1,0-0.1,0
		c-0.1,0.1-0.2,0-0.3,0.1c0,0,0,0-0.1,0c-0.1,0-0.2,0-0.2,0c0,0-0.1,0-0.1,0c-0.1,0.1-0.3,0.1-0.3,0.3c0,0.2-0.1,0.2-0.3,0.2
		c-0.1-0.1-0.2-0.1-0.2,0c-0.1,0.1-0.2,0.3-0.2,0.4c0,0.1,0,0.2,0.1,0.2L30.6,7.1z"/>
	<path class="st0" d="M40.4,17.6l0.1-0.1c0.1-0.1,0.1-0.1,0.2-0.2l0-0.1c0,0,0.1,0,0.1,0c0-0.1,0.1-0.1,0.1-0.1
		c0.1-0.2,0.2-0.3,0.4-0.3l0.1-0.1l0.1-0.1c0-0.1,0.1-0.1,0.1-0.1l0.2-0.2c0,0,0,0,0,0c0,0,0.1,0,0.1,0c0,0,0,0,0,0v0
		c0,0,0.1-0.1,0.1-0.1c0.1-0.1,0.1,0,0.2-0.1c0,0,0.1-0.1,0.1-0.1l0,0c0.1,0,0.1-0.1,0-0.2c0,0,0,0,0,0c0,0-0.1-0.1-0.1-0.1
		c-0.1-0.1-0.1-0.1-0.2-0.1h0c-0.1-0.1-0.2,0-0.3-0.1c-0.1-0.1-0.2-0.1-0.2-0.1c0,0-0.1,0-0.1,0c-0.1,0-0.1,0-0.2,0c0,0,0,0,0-0.1
		l-0.2,0c0,0,0-0.1,0-0.1c-0.1,0-0.2,0-0.3-0.1c0,0-0.1,0-0.1,0l0-0.1c-0.1,0-0.1,0-0.2,0c0,0,0-0.1,0-0.1c0,0-0.1,0-0.1,0
		c0,0,0-0.1,0-0.1c0,0-0.1,0-0.1,0c0,0,0-0.1,0-0.1c0,0-0.1,0-0.1,0l0-0.2c-0.1,0-0.1-0.1-0.1-0.2c0,0-0.1,0-0.1,0
		c0-0.1,0-0.1,0-0.2c-0.1,0-0.1-0.1-0.1-0.2c-0.1-0.1-0.1-0.2-0.1-0.3c-0.1,0-0.1-0.1-0.1-0.2l-0.1,0c0-0.1,0-0.1,0-0.2l0,0
		c0,0-0.1-0.1-0.1-0.1c-0.1-0.1-0.2,0-0.3-0.1c-0.1-0.1-0.2,0-0.3-0.1c-0.1-0.1-0.2,0-0.3-0.1c0,0-0.1,0-0.1,0c-0.1-0.1-0.2,0-0.3,0
		c0,0,0,0,0,0c0,0-0.1,0-0.1,0c-0.1-0.1-0.2,0-0.3-0.1c-0.1-0.1-0.2,0-0.3-0.1c0,0-0.1,0-0.1,0c-0.1-0.1-0.2,0-0.3-0.1
		c-0.1-0.1-0.2,0-0.3-0.1h0c-0.1-0.1-0.1-0.1-0.2,0c0,0,0,0,0,0c-0.1,0-0.1-0.1-0.2-0.1c-0.2-0.1-0.5,0-0.6,0.2c0,0.1,0,0.2-0.1,0.3
		c0,0.1,0,0.2-0.1,0.3c0,0.1,0,0.2-0.1,0.3c0,0.1,0,0.3-0.1,0.4c-0.1,0.3-0.1,0.6-0.2,0.8c0,0.1,0,0.2,0,0.3l-0.1,0.1
		c0,0.1,0,0.2-0.1,0.3c0,0.1,0,0.2-0.1,0.3c0,0.1,0,0.1-0.1,0.1c0,0,0,0.1,0,0.1v0l0,0c-0.1,0-0.1,0-0.2,0c0,0-0.1,0-0.1,0
		c-0.1,0.1-0.2,0.1-0.3,0.1c0,0-0.1,0-0.1-0.1c-0.4,0-0.8,0-1.2,0c-0.1,0-0.1,0-0.2,0c-0.2-0.1-0.4,0-0.5-0.1
		c-0.1-0.1-0.2,0-0.3-0.1c0,0-0.1,0-0.1,0c-0.1-0.1-0.2,0-0.2-0.1c0,0-0.1,0-0.1,0c-0.1-0.1-0.2,0-0.2-0.1c0,0-0.1-0.1-0.1-0.1
		c0,0-0.1-0.1-0.1-0.1l0,0c0-0.1-0.2,0-0.2-0.1c0,0-0.1-0.1-0.1-0.1l0,0c0-0.1-0.2,0-0.2-0.1c0,0-0.1-0.1-0.1-0.1l0,0
		c0-0.1-0.1-0.1-0.2-0.1c-0.1-0.1-0.2,0-0.2-0.1c0,0-0.1-0.1-0.1-0.1l0,0c-0.1-0.1-0.1-0.1-0.2,0l0,0l0-0.1c-0.1,0-0.2,0-0.2-0.1
		c-0.1,0-0.2,0-0.2-0.1c-0.1,0-0.2,0-0.2-0.1c-0.1,0-0.2,0-0.2-0.1l-0.1-0.1c-0.1,0-0.2,0-0.2-0.1c-0.1-0.1-0.3-0.2-0.4-0.2
		c0,0-0.1-0.1-0.1-0.1c-0.1,0-0.1,0-0.2,0c0,0,0-0.1,0-0.1c-0.1,0-0.2-0.1-0.3-0.2l-0.1-0.1c-0.1,0-0.1-0.1-0.2-0.1
		c-0.1,0-0.1,0-0.1-0.1l-0.2,0c0-0.1-0.1-0.1-0.1-0.1c0,0,0-0.1,0-0.1c-0.1,0-0.1,0-0.1-0.1c-0.3-0.2-0.6-0.5-0.9-0.8
		c0-0.1,0-0.1,0-0.2c-0.1,0-0.1-0.1-0.1-0.1c-0.1,0-0.1-0.1-0.1-0.1c-0.1,0-0.1-0.1-0.1-0.1c-0.2-0.2-0.4-0.4-0.6-0.5L24.2,10
		c-0.1,0-0.1,0-0.1-0.1L24,9.8c-0.1,0-0.1,0-0.1-0.1l-0.1-0.1c-0.1,0-0.2-0.1-0.3-0.2c0,0-0.1-0.1-0.1-0.1c0,0,0,0-0.1,0
		c0,0,0-0.1,0-0.1l0,0c0,0-0.1-0.1-0.1-0.1l0,0c0-0.1-0.1-0.1-0.2-0.1c0,0,0,0,0,0c0,0,0-0.1,0-0.1c-0.1,0-0.1,0-0.1-0.1
		c-0.1,0-0.1-0.1-0.2-0.1l-0.1-0.1c-0.1,0-0.2,0-0.2-0.1c0,0-0.1,0-0.1-0.1l-0.1,0c0,0,0-0.1,0-0.1h0c-0.1-0.1-0.2-0.1-0.2-0.1
		c0,0-0.1,0-0.1,0c-0.1,0-0.1,0-0.2,0c0,0,0,0,0,0c-0.1-0.1-0.2,0-0.3-0.1c0,0-0.1,0-0.1,0c-0.1-0.1-0.3,0-0.4-0.1h0
		c-0.2-0.1-0.5,0-0.7-0.1h0c-0.5-0.1-1-0.1-1.4,0c0,0-0.1,0-0.1,0c0,0,0,0,0,0.1h0l-0.2,0c-0.1,0-0.2,0-0.3,0.1c0,0-0.1,0-0.1,0
		l-0.1-0.3c0,0-0.1-0.1-0.1-0.1l-0.1-0.1l-0.1-0.1c0,0-0.1-0.1-0.1-0.1c0,0-0.1-0.1-0.1-0.1l-0.3-0.1c0,0,0-0.1,0-0.1
		c0,0-0.1,0-0.1,0c0,0,0-0.1,0-0.1c0,0-0.1,0-0.1,0c0,0,0-0.1,0-0.1c-0.1-0.1-0.2-0.2-0.4-0.2l-0.2,0c0,0,0-0.1,0-0.1
		c-0.7-0.1-1.4-0.1-2,0c0,0,0,0,0,0c0,0,0,0,0,0c-0.1,0-0.3,0-0.4,0.1c-0.1,0.1-0.3,0-0.4,0.1l0,0c-0.1,0-0.2,0-0.2,0.1
		c0,0,0,0-0.1,0c-0.1,0-0.2,0-0.2,0.1l0,0c-0.1,0-0.2,0-0.2,0.1l0,0c-0.1,0-0.2,0-0.2,0.1l0,0c0,0-0.1,0.1-0.1,0.1
		c0,0.1-0.1,0-0.2,0.1c0,0-0.1,0.1-0.1,0.1c-0.1,0-0.1,0.1-0.1,0.2l-0.1,0h0l-0.1,0l-0.1,0.1v0c0,0,0,0,0,0c0,0-0.1,0-0.1,0.1l0,0
		c-0.1,0-0.1,0.1-0.1,0.1l0,0C11.1,8,11,8.2,11,8.3v0c0,0-0.1,0.1-0.1,0.1c0,0-0.1,0.1-0.1,0.1h0l0,0c-0.1,0-0.1,0.1-0.1,0.2
		c-0.1,0.1-0.1,0.2-0.2,0.3l0,0c-0.1,0-0.1,0.1-0.1,0.2l0,0c-0.1,0.1-0.1,0.2-0.1,0.2c0,0,0,0,0,0.1c0,0,0,0,0,0
		c-0.1,0.1,0,0.1-0.1,0.2v0C10,9.8,10.1,10,10,10c-0.1,0.3,0,0.6-0.1,0.9l0,0c-0.1,0.2,0,0.4-0.1,0.6c0,0,0,0,0.1,0l0,0
		c-0.1,0.2,0,0.4-0.2,0.5c0,0.1,0,0.2-0.1,0.3c0,0.1,0,0.2-0.1,0.3c0,0.1,0,0.2-0.1,0.2c0,0.1,0,0.2-0.1,0.2c0,0.3-0.2,0.5-0.5,0.6
		L8.4,14c0,0.1-0.1,0.1-0.2,0.1c0,0.1-0.1,0.1-0.2,0.1l-0.2,0.1c0,0-0.1,0-0.1,0c0,0,0,0.1,0,0.1c0,0,0,0,0,0s0,0,0,0
		c-0.1,0-0.2,0-0.3,0c0,0,0,0-0.1,0c0,0,0,0,0,0c-0.1,0.1-0.2,0-0.3,0.1h0c-0.1,0.1-0.2,0-0.3,0.1c0,0,0,0-0.1,0c0,0,0,0,0,0
		c-0.1,0-0.2,0-0.2,0.1c0,0,0,0-0.1,0c-0.1,0-0.2,0-0.2,0.1c0,0,0,0-0.1,0c0,0,0,0,0,0c-0.1,0-0.2,0-0.2,0.1l0,0
		c-0.1,0-0.2,0-0.2,0.1c-0.1,0.1-0.2,0-0.2,0.1l0,0c0,0,0,0,0,0c-0.1,0.1-0.2,0.1-0.3,0.2l0,0c0,0-0.1,0.1-0.1,0.1l0,0
		c0,0-0.1,0.1-0.1,0.1l0,0c-0.1,0-0.1,0.1-0.1,0.1l0,0c-0.1,0-0.1,0.1-0.1,0.1l0,0c-0.1,0-0.1,0.1-0.1,0.1c0,0,0,0,0,0l0,0
		c0,0,0,0,0,0c0,0,0,0,0,0.1c0,0,0,0-0.1,0c0,0.1,0,0.1-0.1,0.1c0,0.1-0.1,0.1-0.1,0.2l-0.1,0.1c0,0.1,0,0.2-0.1,0.2
		c0,0.1,0,0.2-0.1,0.2c0,0.1,0,0.2,0.1,0.2C4,17,4.1,16.9,4.1,16.9c0.1-0.1,0.2-0.2,0.3-0.2c0,0,0,0,0-0.1c0,0,0,0,0.1,0h0.1
		c0,0,0,0,0,0l0.1,0l0,0l0.1,0l0,0l0,0c0.1,0,0.1,0,0.2-0.1l0,0l0,0c0.1-0.1,0.2-0.1,0.4,0l0,0c0,0.1,0.1,0.1,0.2,0.1c0,0,0,0,0,0
		l0,0c0.1,0,0.1,0.1,0.1,0.1c0.2,0.2,0.2,0.5,0,0.6c0,0.1,0,0.1-0.1,0.1c0,0.1-0.1,0.1-0.1,0.1c0,0.1-0.1,0.1-0.2,0.1
		c0,0,0,0.1,0,0.1c0,0,0,0,0,0c-0.1,0-0.3,0-0.4,0.1c-0.2,0.1-0.5,0-0.7,0.1c0,0,0,0-0.1,0c0,0,0,0,0,0c-0.1,0.1-0.3,0-0.4,0.1h0
		c-0.1,0.1-0.3,0-0.4,0.1h0l-0.1,0l0,0c-0.1-0.1-0.2,0-0.3,0h0c-0.1,0-0.2,0-0.2,0.1c0,0,0,0-0.1,0c0,0,0,0,0,0
		c-0.1,0-0.2,0-0.2,0.1l0,0c-0.1,0-0.2,0-0.2,0.1l0,0c-0.1,0.1-0.2,0.1-0.3,0.2c-0.1,0.1-0.1,0-0.2,0.1l0,0c0,0,0,0,0,0
		c0,0-0.1,0.1-0.1,0.1l0,0c0,0-0.1,0.1-0.1,0.1c-0.2,0.1-0.4,0.3-0.5,0.5c0,0-0.1,0.1-0.1,0.1h0l0,0c0,0-0.1,0.1-0.1,0.1
		c0,0,0,0,0,0l0,0c-0.1,0-0.1,0.1-0.1,0.2c0,0-0.1,0.1-0.1,0.1l0,0c-0.1,0-0.1,0.1-0.1,0.2v0c0,0-0.1,0.1-0.1,0.1l0,0
		c0,0-0.1,0.1-0.1,0.1l0,0h0c0,0,0,0,0,0c0,0,0,0.1-0.1,0.1c0,0,0,0,0,0.1c0,0,0,0,0,0c0,0.1,0,0.1,0,0.2c0,0-0.1,0-0.1,0l0.1,0.1
		c0,0,0-0.1,0-0.1h0.1c0,0,0-0.1,0-0.1c0,0,0.1,0,0.1,0c0,0,0,0,0.1,0h0v0c0,0,0,0,0.1,0c0.1,0,0.1,0,0.1-0.1l0,0
		c0.1,0,0.2,0,0.2-0.1l0,0c0.1,0,0.2,0,0.2-0.1c0.1-0.1,0.2,0,0.3-0.1l0,0l0,0c0.2-0.1,0.5-0.1,0.7,0l0,0l0,0c0.1,0.1,0.3,0,0.4,0.1
		l0,0c0.1,0.1,0.3,0,0.4,0.1h0c0.1,0.1,0.3,0,0.4,0.1l0,0l0,0c0.5,0.1,1,0.1,1.4,0l0,0l0,0c0,0,0,0,0,0l0.1,0c0.2,0,0.4,0.1,0.7-0.1
		l0,0l0,0c0.1,0,0.1,0,0-0.1c0,0,0,0,0,0c0,0,0,0.1,0,0.1c0.1,0,0.3,0.1,0.4-0.1l0,0c0.1-0.1,0.2,0,0.3-0.1l0,0h0
		c0.1,0,0.2,0,0.2-0.1C7,20,7.1,20,7.1,19.9l0,0c0,0,0.1-0.1,0.1-0.1c0.1-0.1,0.2-0.2,0.3-0.3c0,0,0.1-0.1,0.1-0.1c0,0,0,0,0,0l0,0
		c0.1,0,0.1-0.1,0.1-0.2v0l0,0c0.1-0.1,0-0.2,0.1-0.3c0.1-0.1,0.1-0.2,0.1-0.2l0,0c0.1-0.1,0-0.2,0.1-0.3c0.1-0.1,0.1-0.2,0.1-0.2
		c0,0,0-0.1,0-0.1c0.1-0.1,0-0.1,0.1-0.2c0,0,0.1-0.1,0.1-0.1l0,0c0,0,0,0,0,0c0,0,0.1-0.1,0.1-0.1h0c0,0,0-0.1,0-0.1
		c0.1,0.1,0.1,0,0.2,0.1h0c0,0,0.1,0.1,0.1,0.1c0.1,0.2,0.1,0.4,0,0.6v0c-0.1,0.1-0.1,0.1-0.1,0.2l0,0l0,0c-0.1,0-0.1,0.1-0.1,0.2
		l0,0c-0.1,0-0.1,0.1-0.1,0.2c0,0-0.1,0.1-0.1,0.1c0,0,0,0,0,0l0,0c-0.1,0-0.1,0.1-0.1,0.2c0,0-0.1,0.1-0.1,0.1c0,0-0.1,0.1-0.1,0.1
		l0,0c0,0-0.1,0.1-0.1,0.1l0,0c0,0-0.1,0.1-0.1,0.1l0,0c0,0-0.1,0.1-0.1,0.1l0,0c0,0-0.1,0.1-0.1,0.1l0,0c0,0-0.1,0.1-0.1,0.1
		c-0.1,0.1-0.3,0.2-0.4,0.3l0,0c-0.1,0.1-0.2,0-0.2,0.1l0,0c0,0,0,0,0,0c0,0-0.1,0.1-0.1,0.1h0c0.3,0.3,0.7,0.1,1,0.1l0,0l0,0
		c0.1-0.1,0.2,0,0.3-0.1c0.1-0.1,0.2,0,0.3-0.1h0l0,0c0.1,0,0.2,0,0.2-0.1l0,0c0,0,0.1-0.1,0.1-0.1C9,20.2,9.1,20.1,9.2,20
		c0.1-0.1,0.1-0.2,0.2-0.3c0,0,0.1-0.1,0.1-0.1l0,0c0.1,0,0.1-0.1,0.1-0.2v0c0.1-0.1,0.1-0.1,0.1-0.2c0,0,0,0,0,0l0,0
		c0.1-0.1,0-0.2,0.1-0.3c0.1-0.1,0-0.2,0.1-0.2c0.1-0.1,0.1-0.1,0-0.2c0,0,0.1-0.1,0.1-0.1c0,0,0.1,0,0.1,0v0c0,0,0.1-0.1,0.1-0.1
		c0,0,0.1-0.1,0.1-0.1c0-0.1,0.1,0,0.2-0.1l0,0c0,0,0,0,0,0c0,0,0.1-0.1,0.1-0.1l0,0c0,0,0.1-0.1,0.1-0.1c0.1-0.1,0.2-0.2,0.3-0.3
		c0,0,0,0,0-0.1l0.2-0.2c0-0.1,0-0.1,0.1-0.1c0-0.1,0-0.1,0.1-0.1l0.1-0.1c0-0.1,0.1-0.1,0.1-0.2c0-0.1,0-0.1,0.1-0.1
		c0-0.1,0.1-0.2,0.2-0.3c0-0.1,0.1-0.2,0.2-0.3c0-0.1,0-0.2,0.1-0.2c0-0.1,0-0.1,0-0.2c0,0,0.1,0,0.1,0c0-0.1,0-0.1,0-0.2v0
		c0,0,0.1,0,0.1,0v0c0.1-0.1,0-0.2,0.1-0.3v0c0.1-0.1,0-0.3,0.1-0.4c0,0,0-0.1,0-0.1c0.1-0.2,0.1-0.4,0-0.6c0-0.1,0-0.1,0-0.2
		c0,0,0-0.1-0.1-0.1c0,0,0,0,0,0c0,0,0-0.1,0-0.1l0,0c0,0,0.1,0,0.1,0c0-0.2,0.1-0.4-0.1-0.6c0-0.1,0-0.1,0-0.2
		c-0.1-0.3-0.1-0.5,0-0.8c0,0,0,0,0-0.1c0,0,0,0,0,0c0.1-0.2,0-0.4,0.1-0.5l0,0c0.1-0.1,0.1-0.2,0.1-0.3c0,0,0,0,0,0l0,0l0.1,0
		c0-0.1,0-0.2,0.1-0.2c0-0.1,0-0.2,0.1-0.2c0-0.1,0-0.2,0.1-0.2c0-0.1,0-0.1,0.1-0.1c0-0.1,0.1-0.2,0.2-0.3c0-0.1,0-0.1,0.1-0.1
		l0.1-0.3c0,0,0.1,0,0.1,0c0-0.1,0-0.1,0.1-0.1c0,0,0,0,0-0.1c0,0,0.1,0,0.1,0l0,0c0,0,0.1-0.1,0.1-0.1l0,0c0,0,0.1-0.1,0.1-0.1
		c0,0,0.1-0.1,0.1-0.1l0,0c0,0,0.1-0.1,0.1-0.1h0c0,0,0.1-0.1,0.1-0.1c0.1-0.1,0.2-0.1,0.3-0.2l0,0c0.2-0.1,0.4-0.2,0.6-0.3l0,0h0
		c0.1,0,0.1,0,0.1-0.1c0.2,0,0.4,0,0.5,0c0.1,0,0.3,0,0.4,0.1c0.1,0,0.1,0,0.2,0l-0.1,0.2l-0.4,0.3c-0.1,0.2-0.3,0.4-0.4,0.6
		c0,0.1,0,0.1-0.1,0.1L15.5,10l-0.1,0.1l0,0.2c0,0-0.1,0-0.1,0c0,0.1,0,0.2,0,0.3v0c0,0-0.1,0-0.1,0v0c-0.1,0.1,0,0.2-0.1,0.3l0,0
		c-0.1,0.1,0,0.3-0.1,0.4v0c-0.1,0.1,0,0.3-0.1,0.4l0,0c-0.2,0.2,0,0.4-0.1,0.6l0,0c-0.2,0.3,0,0.6-0.1,1c0,0,0,0,0,0.1c0,0,0,0,0,0
		c-0.2,0.3,0,0.6-0.1,0.9c-0.1,0.1,0,0.3-0.1,0.4c0,0,0,0,0,0.1c0,0,0,0-0.1,0c0,0.1,0,0.1,0,0.2c-0.1,0-0.1,0-0.1,0.1
		c0,0,0,0.1,0,0.1c-0.1,0.1,0,0.2-0.1,0.2c0,0-0.1,0.1-0.1,0.1c0,0,0,0,0,0l0,0c-0.1,0-0.1,0.1-0.1,0.2l0,0c-0.1,0-0.1,0.1-0.1,0.2
		c0,0-0.1,0.1-0.1,0.1c0,0,0,0,0,0l0,0c-0.1,0-0.1,0.1-0.1,0.2c0,0-0.1,0.1-0.1,0.1l0,0c0,0-0.1,0.1-0.1,0.1l0,0
		c-0.1,0-0.1,0.1-0.1,0.2c0,0,0,0-0.1,0c0,0.1,0,0.1-0.1,0.1c0,0.1,0,0.1-0.1,0.1c0,0.1,0,0.1-0.1,0.1c0,0.1,0,0.1-0.1,0.1
		c0,0,0,0.1,0,0.1l-0.1,0c0,0-0.1,0.1-0.1,0.1l-0.1,0.1l-0.1,0.1c0,0.1-0.1,0.1-0.1,0.1c0,0,0,0,0,0c0,0-0.1,0-0.1,0h0
		c0,0.1-0.1,0-0.2,0.1l0,0c0,0,0,0,0,0c0,0-0.1,0.1-0.1,0.1c0,0.1-0.1,0-0.2,0.1c-0.1,0.1-0.1,0-0.2,0.1c0,0,0,0-0.1,0c0,0,0,0,0,0
		c-0.4,0-0.3,0.4-0.3,0.6c0,0.1,0,0.1,0,0.2c0,0.1,0,0.3,0,0.4c0,1.1,0,2.3,0,3.4c0,0.5,0,1.1,0,1.6c-0.1,0.1,0,0.3-0.1,0.4
		c-0.1,0.1,0,0.2-0.1,0.3c0,0,0,0,0,0.1c0,0,0,0,0,0c-0.1,0.1,0,0.2-0.1,0.2l0,0c-0.1,0-0.1,0.1-0.1,0.2c0,0,0,0,0,0l0,0
		c0,0.1,0,0.2-0.1,0.2c0,0.1,0,0.2-0.1,0.2c0,0.1,0,0.1-0.1,0.1c0,0.1,0,0.1-0.1,0.2c0,0-0.1,0.1-0.1,0.1l-0.1,0
		c-0.1,0.1-0.2,0.2-0.3,0.3C10,26.8,9.9,26.9,9.7,27l-0.1,0.1c-0.1,0.2,0.1,0.2,0.2,0.3c0.2,0.1,0.4,0.2,0.6,0.3
		c0.1,0,0.2,0,0.2,0.1l0.2,0c0,0,0,0.1,0,0.1l0.2,0c0,0,0,0.1,0,0.1l0.2,0h0c0,0,0,0.1,0,0.1h0c0,0.1,0.1,0.1,0.2,0.1h0
		c0.4,0.2,0.2-0.2,0.3-0.3v0c0.1-0.2,0-0.4,0.1-0.5v0c0.1-0.1,0-0.3,0.1-0.5c0,0,0,0,0-0.1c0,0,0,0,0,0c0.1-0.1,0-0.3,0.1-0.4
		c0.1-0.1,0-0.3,0.1-0.4c0.1-0.1,0-0.2,0.1-0.4c0,0,0,0,0-0.1c0,0,0,0,0,0c0.1-0.1,0-0.2,0.1-0.3v0c0.1-0.1,0-0.2,0.1-0.3
		c0,0,0,0,0-0.1c0,0,0,0,0,0c0.1-0.1,0-0.2,0.1-0.3c0.1-0.1,0-0.2,0.1-0.3v0c0.1-0.1,0-0.2,0.1-0.3v0c0.1-0.1,0-0.2,0.1-0.3
		c0.1-0.1,0.1-0.1,0.1-0.2l0,0l0,0c0.1-0.1,0.1-0.2,0-0.3c0,0,0.1,0,0.1,0c0.1-0.1,0-0.1,0.1-0.2v0c0.1-0.1,0-0.2,0.1-0.2
		c0.1-0.1,0-0.1,0.1-0.2c0.1-0.1,0-0.2,0.1-0.3l0,0c0.1-0.2,0-0.4,0.1-0.5v0c0.1-0.2,0-0.4,0.1-0.6l0,0c0.1-0.2,0-0.4,0.1-0.5l0,0
		c0.1-0.2,0.1-0.4,0.2-0.5c0.1-0.1,0.1-0.1,0.2-0.2l0,0l0,0c0.4-0.1,0.7-0.1,1.1,0c0.6,0,1.2,0,1.9-0.1c0,0,0.1,0,0.2-0.1
		c0.1,0,0.2,0.1,0.2,0c0.2,0,0.4,0.1,0.6-0.1h0c0,0,0,0,0-0.1c0.2,0.1,0.4,0,0.6,0l0,0l0,0c0.1,0,0.1,0,0.1-0.1c0,0,0,0,0,0
		c0.1,0,0.2,0,0.3,0c0.1-0.1,0.2,0,0.3-0.1c0.1-0.1,0.2,0,0.3-0.1l0,0l0,0c0.5-0.1,1-0.1,1.5,0c0.1,0.1,0.2,0.1,0.2,0.1l0,0
		c0,0.1,0.1,0.1,0.2,0c0,0,0,0,0,0c0,0,0.1,0.1,0.1,0.1c0,0.2,0.2,0.3,0.2,0.5c0.1,0,0.1,0.1,0.1,0.2c0.1,0.1,0.2,0.2,0.2,0.3
		c0.1,0.1,0.2,0.2,0.2,0.3c0,0,0,0,0.1,0l0,0.2c0,0,0.1,0,0.1,0l0,0.1c0,0,0.1,0,0.1,0l0,0.2c0.1,0,0.1,0.1,0.1,0.1l0.1,0l0,0.2
		c0,0,0.1,0.1,0.1,0.1c0.1,0,0.1,0.1,0.1,0.2c0,0,0.1,0.1,0.1,0.1c0.1,0.1,0.2,0.2,0.2,0.3c0.1,0,0.1,0.1,0.1,0.1
		c0.1,0,0.1,0.1,0.1,0.2c0.1,0,0.1,0.1,0.1,0.1c0.1,0.1,0.2,0.2,0.2,0.3c0,0,0.1,0.1,0.1,0.1c0.1,0,0.1,0.1,0.1,0.1
		c0.1,0.1,0.2,0.2,0.2,0.3c0.1,0,0.1,0.1,0.1,0.1c0.1,0.1,0.2,0.2,0.2,0.3c0,0,0.1,0.1,0.1,0.1c0.1,0,0.1,0.1,0.1,0.1
		c0,0,0.1,0,0.1,0c0,0,0,0.1,0,0.1c0.1,0.1,0.3,0.2,0.3,0.4l0.1,0.1l0.1,0.1c0,0,0.1,0.1,0.1,0.1c0.1,0,0.1,0.1,0.1,0.1
		c0.1,0,0.1,0,0.1,0.1c0,0,0.1,0,0.1,0c0,0,0,0.1,0,0.1c0,0,0.1,0,0.1,0c0,0,0,0.1,0,0.1c0,0,0.1,0.1,0.1,0.1c0,0,0.1,0.1,0.1,0.1
		c0,0,0.1,0.1,0.1,0.1c0,0,0.1,0.1,0.1,0.1h0c0,0,0.1,0.1,0.1,0.1l0,0c0,0,0.1,0.1,0.1,0.1c0,0,0,0,0,0c0,0,0.1,0.1,0.1,0.1
		c0.1,0,0.1,0.1,0.2,0.1l0.1,0.1l0.1,0.1c0.1,0,0.1,0.1,0.2,0.1h0.1c0.1,0.1,0.1,0.2,0.2,0.2h0c0,0.1,0.2,0,0.2,0.1
		c0,0,0.1,0.1,0.1,0.1l0,0c0,0.1,0.2,0,0.2,0.1c0,0,0.1,0.1,0.1,0.1l0,0c0,0.1,0.1,0.1,0.2,0.1c0.1,0.1,0.2,0.1,0.3,0.2h0
		c0.1,0.1,0.1,0.1,0.2,0.1c0.1,0.1,0.1,0,0.2,0.1c0.1,0.1,0.2,0,0.2,0.1c0.1,0.1,0.2,0,0.2,0.1c0.1,0.1,0.2,0.1,0.2,0.1h0l0,0
		c0.1,0.1,0.2,0,0.3,0.1l0,0l0,0c0.3,0.1,0.7,0.1,1,0l0,0l0,0c0.1-0.1,0.3-0.1,0.4,0c0.1,0.1,0.1,0.1,0.2,0c0,0,0,0,0,0.1l0.1,0.1
		c0.1,0,0.2,0,0.2,0.1c0.1,0,0.2,0,0.2,0.1c0,0,0.1,0.1,0.1,0.1c0.1,0,0.2,0,0.2,0.1l0.1,0.1c0.1,0,0.1,0.1,0.2,0.1l0.1,0.1
		c0.1,0,0.2,0,0.2,0.1l0.1,0.1c0.1,0,0.2,0.1,0.3,0.2l0.1,0.1c0.1,0,0.2,0.1,0.3,0.2c0,0,0.1,0.1,0.1,0.1c0.1,0,0.1,0,0.2,0.1
		c0,0.1,0.1,0.1,0.1,0.2c0.1,0,0.1,0,0.1,0.1l0.1,0.1c0.1,0,0.2,0.1,0.3,0.2c0.1,0,0.1,0,0.1,0.1c0.1,0,0.1,0,0.1,0.1l0.1,0.1
		l0.1,0.1c0,0,0.1,0.1,0.1,0.1c0,0,0.1,0.1,0.1,0.1l0.1,0c0,0,0,0.1,0,0.1c0,0,0.1,0,0.1,0c-0.1,0.1-0.1,0.3-0.2,0.3
		c-0.1,0.1-0.2,0-0.3,0.1c-0.2,0.1-0.4,0-0.5,0.1c0,0-0.1,0-0.1,0c-0.1,0-0.1,0,0,0.1v0c0,0-0.1,0-0.1,0c-0.3,0-0.5,0-0.8,0l-0.3,0
		c-0.6,0.1-1.2,0.1-1.7,0c-0.1,0-0.1,0-0.2,0c-0.1-0.1-0.1,0-0.2-0.1c-0.1-0.1-0.2,0-0.3-0.1h0c-0.1-0.1-0.2,0-0.3-0.1
		c-0.1-0.1-0.2,0-0.2-0.1c0,0-0.1-0.1-0.1-0.1l0,0c0-0.1-0.1-0.1-0.2-0.1c0-0.1-0.1,0-0.2-0.1c0,0-0.1-0.1-0.1-0.1
		c0,0-0.1-0.1-0.1-0.1c0-0.1-0.1-0.1-0.2-0.1c0,0-0.1,0-0.1,0c0,0,0,0,0,0c0,0,0,0.1,0,0.1c0,0-0.1,0-0.1,0l0,0
		c-0.2,0.1,0.1,0.6-0.3,0.4c0,0-0.1,0-0.1,0c0,0-0.1-0.1-0.1-0.1c0,0-0.1,0-0.1,0c-0.3,0.2-0.1,0.4-0.1,0.6c0,0,0,0.1,0,0.1
		c0.1,0.2,0,0.4,0.1,0.6c0,0,0,0.1,0,0.1c0,0,0.1,0.1,0.1,0.1c0.4,0.1,0.8,0.1,1.1,0c0,0,0.1,0,0.1,0.1c0.3,0,0.7,0,1,0l0,0l0,0
		c0.1,0.1,0.3,0,0.4,0.1c0,0,0,0,0.1,0l0,0h0l0,0c0.1,0.1,0.2,0.1,0.3,0c0,0,0.1,0,0.1,0c0,0,0,0.1,0,0.1h0l0,0
		c0.1,0.1,0.2,0,0.3,0.1h0l0,0c0.1,0.1,0.3,0,0.4,0.1c0.1,0.1,0.2,0,0.3,0.1h0l0,0c0.1,0.1,0.2,0,0.3,0.1h0c0.1,0.1,0.3,0,0.4,0.1
		c0.1,0.1,0.2,0,0.3,0.1h0c0.1,0.1,0.2,0,0.3,0.1h0l0,0c0.1,0.1,0.2,0.1,0.3,0c0,0,0,0,0-0.1c0,0,0,0,0,0c0,0,0,0.1,0,0.1h0.1
		c0,0,0,0,0.1,0c0,0,0.1,0,0.1,0.1h0c0.1,0.1,0.3,0,0.4,0.1c0.1,0.1,0.2,0,0.3,0.1h0c0.1,0.1,0.1,0.1,0.2,0c0,0,0,0,0,0
		c0,0,0.1,0,0.1,0c0,0,0,0.1,0,0.1c0.1,0,0.2,0,0.3,0.1l0.2,0c0,0,0-0.1,0-0.1l0.2,0c0,0,0.1-0.1,0.1-0.1c0,0,0.1-0.1,0.1-0.1
		l0.1-0.1c0-0.1,0-0.1,0.1-0.1c0,0,0-0.1,0-0.1c0,0,0.1,0,0.1,0c0-0.1,0.1-0.2,0.2-0.3l0.1-0.1c0,0,0-0.1,0-0.1c0,0,0.1,0,0.1,0
		c0-0.1,0.1-0.1,0.1-0.2c0,0,0.1-0.1,0.1-0.1c0-0.1,0-0.1,0-0.2c0,0,0.1,0,0.1,0c0-0.2,0-0.3,0-0.5c-0.1-0.1-0.1-0.2-0.1-0.3
		c-0.1-0.1-0.1-0.2-0.1-0.3L39,31.6c0,0,0-0.1,0-0.1c0,0-0.1,0-0.1,0c0-0.1,0-0.2,0-0.3c-0.1-0.1-0.1-0.1-0.1-0.2
		c-0.1-0.1-0.1-0.1-0.1-0.2c-0.1-0.1-0.1-0.3-0.2-0.4c-0.1,0-0.1-0.1-0.1-0.2c-0.1,0-0.1-0.1-0.1-0.2c-0.1,0-0.1-0.1-0.1-0.2
		c-0.1-0.1-0.1-0.3-0.2-0.4c0,0-0.1,0-0.1,0c0-0.1,0-0.1,0-0.2c-0.1,0-0.1-0.1-0.1-0.2c-0.1,0-0.1-0.1-0.1-0.2
		c-0.1-0.1-0.1-0.1-0.1-0.2c-0.3-0.3-0.3-0.7-0.6-1c-0.1-0.2-0.2-0.4-0.3-0.6c-0.1-0.1-0.1-0.2-0.1-0.3c0.5,0,0.7-0.4,1-0.7l0,0
		c0,0,0.1-0.1,0.1-0.1l0,0c0,0,0.1-0.1,0.1-0.1l0,0c0,0,0.1-0.1,0.1-0.1l0,0c0,0,0.1-0.1,0.1-0.1h0c0,0,0.1-0.1,0.1-0.1h0l0.1-0.1
		l0.1-0.1l0.1-0.1l0.1-0.1l0.1-0.1c0,0,0,0,0,0c0,0,0.1,0,0.1-0.1l0,0c0.1,0,0.1-0.1,0.1-0.2v0c0,0,0.1-0.1,0.1-0.1c0,0,0,0,0-0.1
		c0.1-0.1,0.1-0.3,0-0.4c0,0,0.1,0,0.1,0c0,0,0-0.1,0-0.1c0.1-0.3,0-0.6,0.1-0.9c0-0.1,0-0.1,0-0.2c0.1-0.2,0-0.4,0.1-0.6
		c0-0.7,0-1.3,0-2c0-0.1,0-0.1,0-0.2c0.1-0.3,0.1-0.6,0.1-0.9l0-0.1l0.1,0c0-0.1,0-0.2,0.1-0.3c0-0.1,0-0.2,0.1-0.2l0.1-0.1
		c0-0.1,0.1-0.1,0.1-0.2l0.1-0.1c0,0,0.1-0.1,0.1-0.1c0-0.1,0.1-0.2,0.2-0.3c0-0.1,0-0.1,0.1-0.1C40.3,17.7,40.3,17.6,40.4,17.6z"/>
	<polygon class="st0" points="30.5,31 30.6,31 30.6,31 	"/>
	<polygon class="st0" points="42.2,15.7 42.2,15.7 42.2,15.7 	"/>
	<path class="st0" d="M42.4,8.6c0-0.1,0-0.2,0.1-0.2c0-0.1,0-0.3,0-0.4c-0.1,0-0.1-0.1-0.1-0.2c0,0-0.1,0-0.1,0v0c0,0,0-0.1,0-0.1
		c0,0-0.1,0-0.1,0c0,0,0-0.1,0-0.1l-0.1,0c0,0,0-0.1,0-0.1c-0.1,0-0.1,0-0.1-0.1c0,0-0.1-0.1-0.1-0.1c-0.1,0-0.2-0.1-0.3-0.2
		c0,0-0.1,0-0.1,0c0,0,0-0.1,0-0.1c0,0-0.1,0-0.1,0c0,0,0-0.1,0-0.1c0,0-0.1,0-0.1,0c0,0,0-0.1,0-0.1c-0.1,0-0.1,0-0.1-0.1
		c-0.1,0-0.1-0.1-0.1-0.1C41,6.5,41,6.4,41,6.4l-0.2-0.1l0,0.1l-0.1,0c0,0,0,0.1,0,0.1l-0.1,0c0,0.1,0,0.1,0,0.2c0,0-0.1,0-0.1,0
		c0,0,0,0.1,0,0.1l0,0.1c0,0-0.1,0-0.1,0c0,0,0,0.1,0,0.1c0,0,0,0.1,0,0.1l-0.1,0c0,0.1,0,0.2-0.1,0.2c0,0.1,0,0.2-0.1,0.2
		c0,0.1,0,0.1-0.1,0.1c0,0.1-0.1,0.2-0.1,0.2c-0.1,0.1-0.1,0.2-0.2,0.2c0,0.1-0.1,0.1-0.1,0.1c0,0,0,0,0,0.1c-0.1,0-0.1,0-0.2,0
		c0,0-0.1,0-0.1,0c-0.5,0.3-0.6,0.2-0.1,0.7c0.1,0.1,0.1,0.2,0.2,0.2l0,0c0.1,0.1,0.2,0.2,0.3,0.2l0.7,0.7c0,0.1,0,0.1,0.1,0.1
		c0.2,0.2,0.4,0.4,0.6,0.5c0.3,0.2,0.5,0.3,0.8,0.3c0.2,0.1,0.4-0.1,0.5-0.3c0,0,0-0.1,0-0.1c0-0.3,0-0.5-0.1-0.8
		c0-0.1,0-0.3-0.1-0.4c-0.1-0.2-0.1-0.4,0.1-0.6C42.3,8.8,42.4,8.7,42.4,8.6z"/>
	<path class="st0" d="M11.3,29.2c0-0.1,0-0.3,0-0.4l-0.1-0.1c0,0-0.1-0.1-0.1-0.1c-0.1,0-0.1,0-0.1-0.1c-0.1,0-0.1,0-0.1-0.1
		c0,0-0.1,0-0.1,0c0,0,0-0.1,0-0.1c-0.1,0-0.1-0.1-0.2-0.1c-0.1,0-0.1,0-0.1-0.1c-0.1,0-0.2-0.1-0.2-0.1c-0.1,0-0.1,0-0.1-0.1
		l-0.3-0.1c-0.1,0-0.2,0-0.2,0.1c0,0,0,0,0,0c0,0-0.1,0.1-0.1,0.1c0,0.1,0,0.2-0.1,0.2c-0.1,0.2-0.1,0.4-0.2,0.6
		c0,0.1,0,0.2-0.1,0.3c0,0.1,0,0.2-0.1,0.2C9,29.5,8.9,29.8,9,30l0.1,0.1c0,0,0.1,0.1,0.1,0.1c0,0,0.1,0,0.1,0
		c0.2,0.3,0.6,0.5,0.9,0.6c0,0.1,0.1,0.1,0.2,0.1c0,0,0,0.1,0,0.1c0,0,0.1,0.1,0.1,0.1c0.1,0,0.2,0.1,0.2,0.1c0.1,0,0.2,0,0.2,0.1
		l0,0l0,0l0.1-0.1c0-0.1,0-0.3,0.1-0.4c0-0.2,0-0.4,0-0.6v0c0,0,0.1,0,0.1,0c0-0.1,0-0.1,0-0.2c0-0.2,0-0.5,0-0.7
		C11.3,29.2,11.3,29.2,11.3,29.2z"/>
	<path class="st0" d="M59.4,21.5L59.4,21.5C59.3,21.5,59.3,21.5,59.4,21.5c-0.1-0.1-0.2-0.1-0.2-0.1c0,0,0,0-0.1,0l0,0
		c0,0,0,0,0-0.1c0,0-0.1,0-0.1,0c-0.2-0.2-0.5-0.3-0.8-0.4c-0.1-0.1-0.2-0.1-0.2-0.1c-0.4-0.2-0.9-0.3-1.3-0.3c-0.2,0-0.3,0-0.5,0.1
		c-0.3,0.1-0.4,0.4-0.4,0.6c0,0.3,0.1,0.6,0.3,0.9c0.1,0.1,0.2,0.2,0.2,0.3c0.2,0.3,0.4,0.5,0.7,0.7c0,0,0.1,0.1,0.1,0.1l0,0
		c0,0,0.1,0.1,0.1,0.1l0,0l0,0c0,0,0.1,0.1,0.1,0.1c0,0,0,0,0,0l0,0c0,0.1,0.1,0.1,0.2,0.1c0,0,0.1,0.1,0.1,0.1l0,0
		c0,0.1,0.1,0.1,0.2,0.1l0,0C57.9,24,58,24,58,24h0c0,0.1,0.1,0.1,0.2,0c0,0,0,0,0,0c0.1,0,0.2,0,0.3-0.1c0.1-0.1,0.2-0.1,0.3-0.2
		c0.2-0.2,0.3-0.3,0.5-0.5c0-0.1,0.1-0.2,0.2-0.3c0-0.1,0-0.2,0.1-0.2c0-0.1,0-0.2,0-0.3c0,0,0.1,0,0.1,0c0-0.2,0-0.3,0-0.5
		L59.4,21.5z"/>
</g>
</svg>
