<?xml version="1.0" encoding="utf-8"?>
<!-- Generator: Adobe Illustrator 22.1.0, SVG Export Plug-In . SVG Version: 6.00 Build 0)  -->
<svg version="1.1" id="Layer_1" xmlns="http://www.w3.org/2000/svg" xmlns:xlink="http://www.w3.org/1999/xlink" x="0px" y="0px"
	 viewBox="0 0 55.1 42.1" style="enable-background:new 0 0 55.1 42.1;" xml:space="preserve">
<style type="text/css">
	.st0{fill:#FFFFFF;}
</style>
<g>
	<path class="st0" d="M16.3,38.5c0-0.1,0-0.2-0.1-0.3c0,0,0-0.1-0.1-0.1c0,0,0-0.1-0.1-0.1l0,0c0,0-0.1,0-0.1-0.1h-0.1
		c-0.1,0-0.1,0-0.2-0.1h-0.1c-0.1,0-0.1,0-0.2-0.1h-0.1c-0.1,0-0.1,0-0.2-0.1h-0.1c-0.1,0-0.1,0-0.2-0.1h-0.1c-0.1,0-0.1,0-0.2-0.1
		h-0.1c-0.1,0-0.2,0-0.2,0c-0.1-0.1-0.2-0.1-0.2-0.2h-0.1c-0.1,0-0.1,0-0.2-0.1h-0.1c-0.1,0-0.1,0-0.2-0.1h-0.1
		c-0.1,0-0.1,0-0.2-0.1h-0.1c-0.1,0-0.2,0-0.2,0l0,0c-0.1-0.1-0.2,0-0.3-0.1s-0.2-0.2-0.3-0.2H12c-0.1,0-0.2,0.1-0.3,0l0,0
		c-0.1-0.1-0.3,0-0.4-0.1c-0.2-0.1-0.4,0-0.5-0.1l0,0l0,0c-0.2,0.2,0,0.2,0.1,0.3l0,0c0.1,0.1,0.1,0,0.2,0.1c0.1,0.1,0.1,0,0.2,0.1
		c0.1,0.1,0.2,0,0.2,0.1c0.1,0.1,0.1,0,0.2,0.1l0,0c0.1,0.1,0.1,0.1,0.2,0.1l0,0c0.1,0.1,0.2,0.1,0.2,0.1l0,0l0,0
		c0.1,0.1,0.1,0,0.2,0.1c0.1,0.1,0.1,0.1,0.2,0.1l0,0l0,0c0.1,0.1,0.2,0,0.3,0.1s0.1,0.1,0.2,0.1l0,0l0,0c0.1,0.1,0.2,0,0.3,0.1
		s0.1,0.1,0.2,0.1l0,0l0,0c0.1,0.1,0.2,0,0.3,0.1c0.2,0,0.3,0,0.4,0l0,0l0,0c0.1,0.1,0.1,0,0.2,0.1l0,0c0.1,0.1,0.2,0,0.3,0.1
		s0.2,0.1,0.2,0.1l0,0l0,0c0.1,0.1,0.1,0,0.2,0.1l0,0l0,0c0.1,0.1,0.2,0,0.3,0.1l0,0c0.1,0.1,0.2,0,0.3,0.1l0,0
		c0.1,0.1,0.3,0.1,0.4,0C16.3,38.6,16.3,38.5,16.3,38.5z"/>
	<path class="st0" d="M39.7,34.2L39.7,34.2L39.7,34.2z"/>
	<path class="st0" d="M43.1,36.7c-0.2-0.2-0.4-0.3-0.5-0.5l0,0l-0.1-0.1l0,0c-0.1-0.1-0.1-0.2-0.2-0.3c-0.1-0.1,0-0.2-0.1-0.2l0,0
		c-0.1-0.1,0-0.2-0.1-0.2l0,0c0-0.1,0-0.2-0.1-0.2c-0.1-0.1,0-0.2-0.1-0.3s0-0.2-0.1-0.3c0,0,0,0,0-0.1c0,0,0-0.1-0.1-0.1
		c0-0.1,0-0.2,0-0.3V34l-0.1-0.1c0,0,0,0,0-0.1s0-0.2,0-0.2c0-0.4,0-0.8,0-1.2c0-0.1,0-0.3,0.1-0.5v-0.1c0.1-0.2,0-0.4,0.1-0.6l0,0
		c0.1-0.1,0.1-0.3,0.2-0.4v-0.1c0-0.1,0-0.2,0.1-0.2v-0.1c0-0.1,0-0.1,0-0.2v-0.1c0-0.1,0-0.1,0.1-0.1c0,0,0-0.1,0.1-0.1v-0.1
		c0,0,0-0.1,0.1-0.1c0,0,0-0.1,0.1-0.1c0,0,0-0.1,0.1-0.1v-0.1v-0.1l0.1-0.1c0,0,0-0.1,0.1-0.1l0.1-0.1c0,0,0-0.1,0.1-0.1
		c0,0,0-0.1,0.1-0.1l0,0c0,0,0-0.1,0.1-0.1c0,0,0-0.1,0.1-0.1l0.1-0.1l0,0c0,0,0-0.1,0.1-0.1v-0.1c-0.1-0.2-0.3-0.1-0.5-0.1h-0.1
		c-0.1,0-0.1,0-0.2,0.1c0,0-0.1,0-0.1,0.1c0,0-0.1,0-0.1,0.1h-0.1h-0.1c0,0-0.1,0-0.1,0.1c0,0-0.1,0-0.1,0.1l0,0c0,0,0,0-0.1,0.1
		l0,0c0,0,0,0-0.1,0.1l0,0c0,0,0,0-0.1,0.1l0,0c0,0,0,0-0.1,0.1c0,0,0,0.1-0.1,0.1l-0.1,0.1c0,0,0,0.1-0.1,0.1c0,0.1,0,0.1,0,0.2
		v0.1c0,0.3,0,0.6-0.1,0.9v0.1c0.1,0.2,0.1,0.4,0,0.6l0,0c-0.1,0.1-0.1,0.3-0.2,0.4v0.1c0,0.1-0.1,0.2-0.1,0.3v0.1
		c0,0.1,0,0.2,0,0.2v0.1c0,0.1,0,0.1-0.1,0.2v0.1c0,0.1-0.1,0.1-0.1,0.2v0.1c0,0.1,0,0.1,0,0.2h-0.1c-0.1,0.1,0,0.2-0.1,0.2
		c-0.1,0.1,0,0.2-0.1,0.2c-0.1,0.1,0,0.2-0.1,0.2L40.3,34l0,0l0,0c-0.1,0-0.1,0.1-0.1,0.2l0,0c-0.1,0,0,0.1-0.1,0.2l0,0L40,34.5
		c-0.1,0.1-0.1,0.2-0.2,0.3l-0.1,0.1l0,0L39.6,35l0,0l-0.1,0.1l0,0l0,0c-0.1,0-0.1,0.1-0.1,0.2c-0.1,0.1,0,0.2-0.1,0.2l0,0
		c-0.1,0-0.1,0.1,0,0.2l0,0c0,0,0,0,0,0.1l0.4,0.4c0,0.1,0.1,0,0.2,0.1H40l0.1,0.1c0.1,0,0.1,0,0.2,0.1c0.2,0.1,0.4,0.2,0.6,0.3l0,0
		c0,0,0,0.1,0.1,0.1c0.3,0,0.5,0,0.7,0.1h0.1c0.1,0,0.3,0,0.4,0l0,0l0,0c0.2,0.1,0.4,0,0.6,0.1l0,0l0.1,0.1
		C42.9,36.9,43.1,37.1,43.1,36.7L43.1,36.7C43.1,36.8,43.1,36.7,43.1,36.7L43.1,36.7z"/>
	<path class="st0" d="M50.1,34.1L50.1,34.1L50.1,34.1L50.1,34.1c-0.1-0.1-0.2-0.2-0.2-0.2l0,0c0-0.1-0.1-0.1-0.1-0.1l0,0l-0.1-0.1
		l0,0l-0.1-0.1l-0.1-0.1c-0.1-0.1-0.1-0.2-0.2-0.3l0,0l-0.1-0.1l0,0L49.1,33c-0.1-0.1,0-0.3-0.2-0.2l0,0c-0.3-0.5-0.6-0.9-0.9-1.4
		c0-0.1,0-0.1-0.1-0.2v-0.1c0,0,0,0,0-0.1s0-0.2-0.1-0.2l0,0c0-0.1,0-0.2-0.1-0.2c-0.1-0.1,0-0.2-0.1-0.3c0,0,0,0-0.1,0l0,0
		c0-0.1,0-0.2-0.1-0.3l0,0c-0.1-0.1,0-0.3-0.1-0.4l0,0c-0.1-0.2,0-0.4-0.1-0.5V29l0,0c-0.1-0.2,0-0.4,0-0.5s0.1-0.3-0.1-0.3l0,0
		C47,28.3,47,28.3,47,28.4c-0.1,0.1,0,0.2-0.1,0.2l0,0c-0.1,0.1-0.1,0.1-0.1,0.2l0,0c-0.1,0.1,0,0.2-0.1,0.3v0.1
		c-0.1,0.1,0,0.2-0.1,0.3c0,0,0,0,0,0.1l0,0c-0.1,0.4-0.1,0.8,0,1.1l0,0c0.1,0.2,0,0.4,0.1,0.6l0,0l0,0c0,0,0,0,0,0.1s0,0.2,0.1,0.3
		c0,0,0,0,0,0.1l0,0c0.1,0.1,0,0.3,0.1,0.3l0,0c0,0.1,0.1,0.1,0.1,0.2c0,0,0,0.1,0,0.2l0,0c0,0.1,0,0.2,0.1,0.2c0,0,0,0,0,0.1
		s0,0.2,0.1,0.2l0,0c0.1,0.1,0,0.2,0.1,0.2l0,0c0.1,0.1,0,0.2,0.1,0.2c0,0.1,0,0.1,0.1,0.2l0,0l0,0l0.1,0.1c0.1,0,0,0.2,0.1,0.2l0,0
		l0.1,0.1c0,0.1,0.1,0.1,0.2,0.1l0,0c0,0.1,0,0.1,0,0.2l0.1,0.1l0.2,0.1v0.1l0.1,0.1h0.2v0.1c0.3,0.1,0.6,0.1,0.9,0l0,0l0,0
		c0.1-0.1,0.3,0,0.4-0.1l0,0c0.1,0,0.2-0.1,0.2-0.2l0,0c0-0.1,0-0.1-0.1-0.1C50.2,34.1,50.2,34.1,50.1,34.1z"/>
	<path class="st0" d="M50.2,34.2L50.2,34.2L50.2,34.2z"/>
	<path class="st0" d="M55.1,30.6c0-0.2,0-0.3,0-0.5C55,30,55,30,54.9,30.1c-0.1,0-0.2,0.1-0.3,0.1c-0.5,0.5-1.2,0.8-1.9,0.9
		c-0.1,0-0.2,0-0.2,0.1v0.1l0,0c-0.1,0-0.2,0-0.3,0s-0.3-0.1-0.3-0.3l0,0h0.2c0.5-0.1,1-0.2,1.5-0.4c0.1,0,0.2,0,0.2-0.1
		c0.1,0,0.3-0.1,0.4-0.2c0.2,0,0.3-0.3,0.5-0.4l0,0c0.1-0.1,0-0.2,0.1-0.2v-0.1c0.1-0.1,0.1-0.2,0-0.3c0-0.1,0-0.1,0-0.2
		c-0.1-0.1,0-0.3-0.1-0.4c0,0,0,0,0-0.1s0-0.2-0.1-0.2c0,0,0,0,0-0.1h-0.1l0,0c0-0.1,0-0.1,0-0.2c-0.1,0-0.1-0.1-0.1-0.2
		c-0.1,0-0.1-0.1-0.1-0.2c-0.1,0-0.1-0.1-0.1-0.2h-0.1c0-0.1,0-0.1,0-0.2L54,27.2c0,0,0-0.1,0-0.2h-0.1v-0.1c-0.1,0-0.1-0.1-0.1-0.1
		c-0.2-0.1-0.3-0.3-0.4-0.4h-0.1v-0.1c-0.1,0-0.2,0-0.2-0.1c-0.2,0-0.4,0-0.6,0.1c-0.5,0.2-1,0.5-1.4,0.8c-0.5,0.3-1,0.7-1.5,1.1
		l0,0l0,0c0,0,0-0.1,0.1-0.1l0.1-0.1v-0.1l0.1-0.1c0.1-0.1,0.2-0.2,0.2-0.3l0,0l1-0.8c0.2-0.1,0.5-0.2,0.7-0.4h0.1
		c0.3,0,0.6-0.2,0.9-0.4l0,0l0,0c0.1,0,0.2,0,0.1-0.2l0,0c0-0.1-0.1,0-0.2-0.1l0,0l-0.1-0.1c0-0.1-0.1,0-0.2-0.1l0,0l-0.1-0.1l0,0
		c0-0.1-0.1-0.1-0.2-0.1c-0.1,0-0.1-0.1-0.2,0c0,0,0,0,0-0.1c-0.1,0-0.2,0-0.2-0.1h-0.1v-0.1c0,0,0,0-0.1,0h-0.1h-0.1v-0.1H51v-0.1
		h-0.1l-0.2-0.1H50c-0.1,0.1-0.2,0.2-0.3,0.3c0,0.1,0,0.1-0.1,0.1c0,0.1-0.1,0.2-0.1,0.2l-0.1,0.1c0,0.1,0,0.2-0.1,0.2
		c0,0.1,0,0.2-0.1,0.2c0,0.1,0,0.2-0.1,0.2c0,0.1,0,0.2-0.1,0.2c0,0.1,0,0.1,0,0.2l0,0h-0.1l0,0c-0.1,0.1-0.1,0.2-0.1,0.2v0.1v0.1
		l0,0c0,0,0,0,0,0.1l0,0h-0.1v0.1V27c0,0.1,0,0.2-0.1,0.2v0.1c0.1,0.2,0,0.4,0.1,0.5l0,0c0.1,0.1,0,0.2,0.1,0.3l0,0
		c0,0.1,0,0.2,0.1,0.2l0,0v0.1H49l0,0l0,0l0,0v0.1c0.1,0,0.1,0.1,0.1,0.2v0.1c0,0.1,0,0.1,0,0.2c0.1,0.1,0.1,0.3,0.1,0.4h0.1
		c0,0.1,0,0.2,0.1,0.2c0,0.1,0,0.1,0,0.2c0.1,0,0.1,0.1,0.1,0.2l0.7,0.7c0.1,0,0.1,0,0.1,0.1c0.1,0,0.2,0,0.2,0.1h0.2
		c0,0.1-0.1,0.1-0.2,0.1c0,0.1,0,0.1,0,0.2c0.1,0,0.1,0.1,0.1,0.2l0.1,0.1l0,0c0,0,0,0.1,0.1,0.1s0,0.1,0.1,0.2l0,0l0,0l0,0l0.1,0.1
		l0.1,0.1l0.1,0.1l0.1,0.1l0.1,0.1c0,0.1,0.1,0.1,0.1,0.1s0,0,0.1,0l0.1,0.1l0,0l0,0c0.1,0,0.1,0.1,0.2,0l0,0H52v0.1l0,0l0,0
		c0.1,0.1,0.3,0,0.4,0.1l0,0l0,0h1.5l0,0l0,0c0.1,0,0.2,0,0.2-0.1l0,0l0.1-0.1l0,0l0.1-0.1c0.1-0.1,0-0.2,0.1-0.3c0-0.2,0-0.4,0-0.6
		l0,0l0,0c0.1,0,0.1,0,0.1-0.1s0.1-0.2,0-0.2C55.1,31.2,55.1,30.9,55.1,30.6z"/>
	<path class="st0" d="M51.5,32.6L51.5,32.6L51.5,32.6z"/>
	<path class="st0" d="M32.2,35.8H32l0,0c-0.1,0-0.1,0.1-0.1,0.2c0,0-0.1,0.1-0.1,0.2l0,0l0,0v0.1v0.1l0,0l0,0h-0.1
		c-0.1,0.1,0,0.2-0.1,0.2c0,0,0,0.1-0.1,0.1c0,0.1,0,0.2-0.1,0.2c-0.1,0.1-0.1,0.2,0,0.2c0,0,0,0,0,0.1l0,0l0,0
		c0,0.1-0.1,0.1-0.1,0.2v0.1c-0.1,0.1,0,0.2-0.1,0.2v0.1c-0.1,0.1,0,0.2-0.1,0.2v0.1c-0.1,0.1,0,0.2-0.1,0.3s0,0.2-0.1,0.3
		s-0.1,0.1,0,0.2l0,0L30.8,39v0.1c-0.1,0.1,0,0.3-0.1,0.4c0,0,0,0,0,0.1l0,0c0,0.1,0,0.2,0.1,0.2l0.1,0.1l0,0c0,0.1,0.1,0.1,0.2,0.1
		l0,0c0,0,0,0,0,0.1c0.1,0,0.2,0,0.2,0.1h0.2h0.1l0,0h0.1v-0.1c0-0.2,0-0.3,0-0.5l0,0h0.1c0-0.1,0-0.1,0-0.2c0.1-0.3,0-0.6,0.1-0.8
		v-0.1c0.1-0.2,0-0.5,0.1-0.7c0.1-0.1,0-0.3,0.1-0.5l0,0l0,0c0-0.1,0-0.1,0-0.2c0.1-0.2,0-0.4,0.1-0.5v-0.1c0-0.1,0.1-0.1,0-0.2l0,0
		c0.1,0,0.1-0.1,0.1-0.1l0,0l0.1-0.1C32.4,35.9,32.3,35.8,32.2,35.8z"/>
	<path class="st0" d="M28.9,22.6l-0.1-0.1l-0.1-0.1l0,0l-0.1-0.1l0,0l-0.1-0.1l0,0c-0.1-0.2-0.3-0.3-0.4-0.4s-0.2,0-0.2-0.1
		c-0.1-0.1-0.3,0-0.4-0.1h-0.1c0,0-0.1-0.1-0.2-0.1c0.1,0,0.1-0.1,0.2-0.1c0-0.1,0-0.3,0-0.4c-0.1-0.2,0-0.4-0.1-0.6v-0.1l0,0
		c0-0.1,0-0.1-0.1-0.2h-0.1c-0.3,0.1-0.6,0.1-0.9,0h-0.1C26,20,25.8,20,25.7,20h-0.1l-0.1,0.1c0,0,0,0,0,0.1
		c0.1,0.1,0.1,0.1,0.1,0.2l0,0l0,0c0,0.2,0,0.4,0.1,0.5V21l0.1,0.1l0.1,0.1l0.1,0.1l0.1,0.1h0.1c-0.1,0.1-0.4,0.1-0.5,0h-0.1l0,0
		c0-0.1-0.1-0.1-0.1-0.2l0,0l-0.1-0.1l0,0L25.3,21l0,0c-0.1-0.1-0.2,0-0.3-0.1h-0.5h-0.1V21c0,0,0,0-0.1,0h-0.1L24,21.1l0,0L23.8,21
		l-0.1-0.1v-0.1l-0.1-0.1l-0.1-0.1h-0.1c0,0,0,0,0-0.1l-0.1-0.1c-0.1,0-0.1-0.1-0.1-0.2h-0.1v-0.1c0,0,0,0-0.1,0V20v-0.1
		c0-0.1-0.1-0.1-0.1-0.1c-0.1-0.1,0-0.2-0.1-0.2l0,0l-0.1-0.1c-0.1-0.1,0-0.1-0.1-0.2s0-0.2-0.1-0.2c-0.1-0.1,0-0.2-0.1-0.2
		c-0.1-0.1,0-0.1-0.1-0.2v-0.1c-0.1-0.1,0-0.2-0.1-0.2v-0.1c-0.1-0.1,0-0.2-0.1-0.3v-0.1l-0.2-0.1l0,0c-0.1,0.2,0,0.4-0.1,0.5
		c0,0.2,0,0.3,0,0.5c0.1,0.1,0,0.3,0.1,0.4v0.1c0.1,0.1,0,0.2,0.1,0.3v0.1c0.1,0.1,0,0.2,0.1,0.2V20l0.1,0.1l0,0v0.1l0,0
		c0,0,0,0,0,0.1c0,0,0,0,0.1,0l0,0l0,0c0,0,0,0,0,0.1v0.1h0.1c0,0.1,0,0.1,0,0.2h0.1l0,0l-0.1,0.1c-0.1-0.1-0.2,0-0.2-0.1h-0.1
		c-0.1-0.1-0.2,0-0.3-0.1h-0.1h-0.3l-0.1,0.1c0,0.1,0,0.1,0,0.2V21c0,0.1,0,0.2,0.1,0.2c0.1,0.1,0,0.1,0.1,0.2c0,0,0,0,0,0.1
		s0,0.2,0.1,0.2c0.1,0.1,0,0.2,0.1,0.2c0.1,0.2,0.2,0.4,0.3,0.6l0,0c0,0.2,0.1,0.4,0.2,0.6c0.1,0.1,0,0.1,0.1,0.2v0.1v0.1l0,0l0,0
		h-0.1v0.2h-0.1C22,23.9,22,24,22,24v0.1c-0.1,0-0.1,0.1,0,0.2l0,0c0.1,0.1,0,0.2,0.1,0.3c0.1,0.1,0,0.1,0.1,0.2
		c0,0.1,0.1,0,0.2,0.1l0,0l0.1,0.1h0.1c0.1,0.1,0.3,0,0.4,0.1c0,0.1,0.1,0.2,0.1,0.4c-0.1-0.1-0.2-0.2-0.5-0.1c-0.2,0.1-0.4,0-0.6,0
		h-0.1c-0.2-0.1-0.4,0-0.5-0.1h-0.1c0,0-0.1-0.1-0.2,0l0,0l0,0c0,0,0,0,0,0.1l0,0c0.1,0.1,0,0.2,0.1,0.3l0,0l0.1,0.1c0,0,0,0,0,0.1
		s0.1,0.1,0.1,0.1h0.1v0.2h0.1v0.1c0.1,0.1,0.2,0.3,0.4,0.3v0.1l0,0l0,0l0,0c0.1,0.1,0.3,0,0.5,0c0,0,0,0,0.1-0.1l0,0
		c0.1,0.1,0.2,0.1,0.3,0l0,0l0,0v-0.1H23l0.1-0.1c0-0.2-0.1-0.4-0.1-0.6c0,0,0-0.1,0.1-0.1c0-0.1,0-0.1,0-0.2c0,0.1,0.1,0.2,0.2,0.2
		l0,0l0,0l0,0c0,0,0,0-0.1,0c-0.1,0.2,0,0.4,0.1,0.5s0,0.3,0.1,0.4l0,0c0.1,0.1,0,0.2,0.1,0.3V27l0,0c0,0.1,0,0.2,0.1,0.3
		c0.1,0.1,0,0.3,0.1,0.4c0,0,0,0,0,0.1s0.1,0.1,0.1,0.1l0.1,0.1H24c0,0,0,0,0,0.1l0.3,0.1l0.1,0.1c0.1,0.1,0.3,0.2,0.5,0.2v0.1l0,0
		l0,0c0.1,0.1,0.2,0,0.3,0.1l0,0c0.1,0.1,0.4,0,0.5,0.1l0,0c0.2,0.1,0.5,0,0.7,0.1l0,0c0.1,0.1,0.3,0.1,0.5,0L27,29
		c0.2,0,0.4,0,0.6,0h0.2c0.2-0.1,0.4,0,0.5-0.1l0,0l0,0c0.1-0.1,0.2,0,0.3-0.1l0,0c0.1-0.1,0.2,0,0.2-0.1l0,0l0.1-0.1l0,0
		c0-0.1,0.1,0,0.2-0.1l0.1-0.1l0.1-0.1l0,0l0.1-0.1l0,0c0.1,0,0.1-0.1,0-0.2c0,0,0,0,0.1,0l0.1-0.1c0-0.1,0-0.1,0-0.2h0.1l0,0
		c0.1-0.1,0-0.2,0.1-0.3c0.1-0.1,0.1-0.2,0-0.3l0,0l0,0c0,0,0,0,0.1,0c0-0.4,0-0.9,0-1.3l0,0c0-0.1,0-0.2,0-0.2v-0.1
		c-0.1-0.1,0-0.2-0.1-0.3v-0.1c0-0.1,0-0.2-0.1-0.2c-0.1-0.1,0-0.2-0.1-0.3c-0.1-0.1,0-0.2-0.1-0.2h-0.1c0-0.1,0-0.1,0-0.2h-0.1
		c0-0.1,0-0.1,0-0.2c-0.1,0-0.1-0.1-0.1-0.2h-0.1v-0.1H29l0,0l0,0l0,0v-0.1l-0.1-0.1l0,0c-0.1,0,0-0.1-0.1-0.2l0,0l-0.1-0.1
		l-0.1-0.1l0,0c-0.1,0,0-0.1-0.1-0.2l0,0l-0.1-0.1l0,0C28.9,22.6,28.9,22.6,28.9,22.6z"/>
	<path class="st0" d="M22.2,24.8L22.2,24.8L22.2,24.8z"/>
	<path class="st0" d="M17.8,8.7l0.1-0.1l0,0C18,8.6,18,8.5,18,8.4c0.1-0.1,0-0.2,0.1-0.2V8.1h0.1V8c0.1-0.1,0-0.1,0.1-0.2
		s0-0.2,0.1-0.2c0.1-0.1,0-0.2,0.1-0.2c0-0.1,0.2-0.3-0.1-0.3c-0.2,0.1-0.3,0-0.5,0.1l0,0l0,0h-0.6c-0.1-0.1-0.2,0-0.3-0.1h-0.1
		h-0.4c0,0,0,0,0-0.1h-0.3c-0.1-0.1-0.2-0.1-0.3-0.1l0,0l0,0l0,0V6.8h-0.1l-0.1-0.1c-0.1,0-0.2,0-0.3-0.1c-0.1,0-0.2,0-0.2-0.1
		c-0.1,0-0.2,0-0.2-0.1l-0.5-0.2L14.4,6c-0.1,0-0.1,0-0.1-0.1l-0.1-0.1c-0.1,0-0.2-0.1-0.3-0.2c-0.1,0-0.1,0-0.1-0.1
		c-0.1,0-0.1-0.1-0.2-0.1l-0.1-0.1c-0.1,0-0.2,0-0.2-0.1h-0.2l0,0V5.1C13,5,13,5,13,5h-0.4c0,0.2,0,0.3,0,0.5v0.1
		c0.1,0.2,0,0.4,0.1,0.6c0.1,0.1,0,0.2,0.1,0.3c0.1,0.1,0.1,0.2,0.1,0.3c0,0,0,0,0.1,0c0,0.1,0,0.1,0,0.2l0,0c0.1,0.1,0,0.2,0.1,0.2
		l0,0l0.1,0.1c0.1,0.1,0.1,0.2,0.2,0.3l0,0l0.1,0.1l0.1,0.1l0.1,0.1l0,0h0.1c0,0,0,0,0,0.1l0.1,0.1L14,8.2h0.1v0.1l0.1,0.1
		c0.1,0,0.1,0.1,0.2,0.1h0.1v0.1h0.1c0,0,0,0.1,0.1,0.1l0,0c0,0.1,0.1,0.1,0.2,0.1C14.9,9,15,8.9,15,9l0,0l0.1,0.1h0.1l0.1,0.1l0,0
		c0,0,0.1,0.1,0.2,0.1l0,0h0.1l0.1,0.1h0.1c0.1,0.1,0.1,0,0.2,0.1c0.1,0.1,0.2,0,0.2,0.1h0.1c0.1,0,0.2,0,0.2,0.1l0,0l0,0h0.1l0,0
		c0.1-0.1,0.2,0,0.2-0.1l0.1-0.1L17,9.4l0.1-0.1l0.1-0.1l0.1-0.1l0,0c0.1-0.1,0.1-0.2,0.2-0.3C17.7,8.8,17.8,8.7,17.8,8.7z"/>
	<path class="st0" d="M20.1,35.5L20.1,35.5c-0.1-0.1-0.2,0-0.3-0.1h-0.1c-0.1-0.1-0.2,0-0.3-0.1h-0.1c-0.1-0.1-0.2,0-0.3,0l0,0l0,0
		c0,0,0,0-0.1,0h-0.1c-0.1-0.1-0.2,0-0.3-0.1h-0.1c-0.1-0.1-0.2,0-0.3-0.1H18l0,0c-0.4-0.1-0.8-0.3-1.2,0c-0.1,0.2,0.1,0.3,0.2,0.4
		c0.1,0,0.2,0,0.2,0.1c0.1,0,0.2,0,0.2,0.1l0,0l0,0c0.1,0.1,0.1,0,0.2,0.1l0,0c0.1,0.1,0.2,0,0.3,0.1c0.1,0.1,0.2,0,0.3,0.1
		c0.1,0.1,0.2,0.1,0.2,0.1l0,0l0,0c0,0,0.1,0.1,0.2,0v0.1l0,0l0,0c0.1,0,0.2,0.1,0.2,0.1l0,0l0,0c0.1,0,0.2,0.1,0.2,0.1l0,0l0,0
		c0.1,0.1,0.2,0,0.3,0.1l0,0c0.1,0.1,0.3,0,0.4,0.1s0.2,0,0.3,0.1l0,0l0,0c0.1,0.1,0.2,0,0.3,0.1l0,0l0,0c0.1,0.1,0.3,0,0.4,0.1l0,0
		l0,0c0.2,0.1,0.3,0.1,0.5,0c0.1-0.1,0.1-0.3,0-0.4l0,0c0-0.3-0.2-0.5-0.5-0.6c-0.1,0-0.2,0-0.4,0c0,0,0,0-0.1,0l0,0
		c-0.1-0.1-0.2,0-0.3-0.1h-0.1c-0.1-0.1-0.2,0-0.3-0.1l0,0C20.4,35.5,20.3,35.6,20.1,35.5z"/>
	<path class="st0" d="M26.6,13.2c0.2,0.1,0.3,0,0.2-0.2l-0.1-0.1c-0.1-0.1-0.1,0-0.2-0.1l-0.1-0.1h-0.1c-0.1,0-0.1,0-0.2,0l0,0v-0.1
		H26c-0.5-0.1-1-0.1-1.5,0h-0.4c-0.6,0.1-1.2,0-1.7,0.1h-0.3c-0.2,0.1-0.5,0-0.7,0.1h-0.1c-0.1,0.1-0.2,0-0.3,0.1h-0.1
		c-0.1,0.1-0.1,0.1,0,0.2c0.1,0.1,0.2,0,0.3,0.1l0,0l0,0c0.5,0.1,1,0,1.5,0.1h0.8c0.4,0.1,0.9,0.1,1.3,0L26.6,13.2
		C26.6,13.3,26.6,13.2,26.6,13.2L26.6,13.2z"/>
	<path class="st0" d="M31,16.5c0-0.1,0-0.3,0-0.4h0.1V16v-0.1c0,0,0-0.1,0.1-0.1v-0.1c0.2-0.2,0.2-0.5,0.1-0.7l-0.1-0.1
		c-0.2-0.1-0.5-0.1-0.7,0c0,0,0,0-0.1,0s-0.2,0-0.2,0.1c0,0,0,0-0.1,0l0,0c0,0,0,0,0,0.1l0,0c0,0,0,0-0.1-0.1c-0.6,0-1.1,0-1.7-0.1
		h-0.1c-0.2-0.1-0.4,0-0.6-0.1h-0.2h-0.1l0,0h-0.1C27,15,27,15.1,27.1,15.3v0.1c0,0.1,0,0.2,0.1,0.2l0,0c0,0.1,0,0.2,0.1,0.2
		c0.1,0.1,0,0.2,0.1,0.2l0,0c0.1,0.1,0,0.2,0.1,0.2c0.1,0.1,0,0.2,0.1,0.2v0.1c0.1,0.1,0,0.2,0.1,0.3c0.1,0.3,0,0.6,0.1,0.9h0.1
		c0,0.2,0,0.5,0.1,0.7c0,0.1,0,0.2,0,0.3l0,0.3c0,0.3,0,0.7,0,1c0.1,0.1,0.1,0.2,0.1,0.3l0,0v0.1v0.1c0,0,0,0,0.1,0.1v0.1
		c0.1,0.1,0.2,0.1,0.3,0.2h1.1l0,0l0,0c0.2,0,0.3,0,0.5,0.1c0.1,0.1,0.2,0,0.3,0.1c0.2,0.1,0.4,0.1,0.5-0.1v-0.2
		c-0.1-0.2,0-0.5-0.1-0.7v-0.2c-0.1-0.4-0.1-0.8,0-1.2c0,0,0-0.1-0.1-0.1c0-0.2,0-0.3,0-0.5h0.1l0,0c0-0.2,0-0.3,0-0.5
		c0.1-0.2,0-0.4,0-0.5c0,0,0-0.1-0.1-0.1l0,0C30.9,16.7,30.9,16.6,31,16.5z"/>
	<path class="st0" d="M21.3,23.2C21.3,23.2,21.4,23.2,21.3,23.2L21.3,23.2l0.1,0.1c0.1,0.1,0.2,0,0.3,0.1c0.2,0.1,0.3,0,0.3-0.2
		c-0.1-0.4-0.1-0.7-0.6-0.9h-0.2h-0.6c0,0,0,0-0.1,0c-0.2,0-0.5,0-0.7-0.1c-0.1,0-0.2,0-0.2,0c-0.1,0.1-0.3,0.1-0.5,0.2H19
		c-0.1,0.1-0.2,0-0.3,0.1h-0.1c-0.1,0-0.1,0-0.2,0h-0.1c-0.1,0-0.1,0-0.2,0.1H18l-0.1,0.1l-0.1,0.1c0,0.1,0,0.2,0.1,0.2l0,0
		c0.1,0,0.3,0,0.4,0c0.3-0.2,0.7-0.1,1.1-0.1c0.1,0,0.1,0,0.2,0s0.2,0,0.2,0.1h0.4c0.2,0,0.4,0,0.6,0.1l0,0l0,0
		C21.1,23.2,21.2,23.1,21.3,23.2C21.4,23.1,21.4,23.1,21.3,23.2L21.3,23.2C21.4,23.1,21.4,23.1,21.3,23.2z"/>
	<path class="st0" d="M13.9,25.4c0,0.1,0,0.1,0,0.2c0.1,0.1,0,0.3,0.1,0.4v0.1c0.1,0.1,0,0.3,0.1,0.4v0.1l0,0c0,0.1,0,0.1,0.1,0.2
		l0,0c0.1,0.1,0,0.3,0.1,0.4s0,0.2,0.1,0.3c0,0,0,0,0,0.1s0,0.2,0.1,0.2c0,0,0,0,0,0.1c0.1,0.1,0,0.2,0.1,0.3l0,0
		c0,0.1,0,0.2,0.1,0.2c0,0,0,0,0,0.1s0,0.2,0.1,0.2c0,0,0,0,0,0.1v0.1c0,0.1,0,0.1,0.1,0.2l0,0c0,0.1,0,0.2,0.1,0.2
		c0.1,0.1,0,0.1,0.1,0.2s0,0.1,0.1,0.2l0,0c0.1,0,0,0.1,0.1,0.2c0.1,0.2,0.2,0.3,0.4,0.4c0.1,0.1,0.1,0,0.2,0.1s0.2,0.1,0.3,0
		c0.1-0.2,0.1-0.3,0-0.5l0,0c0-0.1,0-0.2-0.1-0.2c0,0,0,0,0-0.1s0-0.2-0.1-0.2l0,0c-0.1-0.1,0-0.2-0.1-0.2c-0.1-0.1,0-0.2-0.1-0.3
		l0,0l0,0c0-0.1,0-0.2-0.1-0.2l0,0c0-0.1,0-0.2-0.1-0.2l0,0c-0.1-0.1,0-0.2-0.1-0.2l-0.1-0.1l0,0c0,0,0,0,0-0.1c0,0,0,0,0-0.1
		s0-0.2-0.1-0.2l0,0l0,0c0-0.1,0-0.2-0.1-0.2l0,0c-0.1-0.1,0-0.2-0.1-0.2l0,0c-0.1-0.1,0-0.2-0.1-0.2c-0.1-0.1,0-0.2-0.1-0.2
		c-0.1-0.1,0-0.2-0.1-0.2c-0.1-0.1,0-0.2-0.1-0.2l0,0l-0.1-0.1l0,0v-0.1c-0.1,0-0.1-0.1-0.1-0.2h-0.1c0-0.1,0-0.1,0-0.2l0,0
		c-0.1-0.1,0-0.2-0.1-0.2l0,0l-0.1-0.1l0,0c-0.1,0,0-0.1-0.1-0.2C14,25.3,14,25.3,13.9,25.4z"/>
	<path class="st0" d="M14.1,25.4L14.1,25.4L14.1,25.4z"/>
	<path class="st0" d="M34.1,21.3c0-0.2,0-0.5,0-0.7c0-0.3,0-0.5,0-0.8v-0.1c0-0.3,0-0.6,0-0.9c0-0.5,0-1,0-1.4c0-0.2,0-0.5,0-0.7
		l0,0c0-0.1-0.1,0-0.2-0.1c-0.1-0.1-0.2,0-0.2-0.1c-0.1-0.1-0.2,0-0.2-0.1h-0.1c-0.1,0-0.1,0-0.2,0c-0.2,0-0.2,0-0.2,0.2v0.1l0,0
		c0,0,0,0-0.1,0c0,0.1,0,0.2,0,0.3c0,0.1,0,0.1,0,0.2c0.1,0.3,0,0.6,0.1,0.8v0.1c0.1,0.3,0,0.6,0.1,0.9c0,0.1,0,0.1,0,0.2
		c0.1,0.2,0,0.4,0.1,0.6v0.1c-0.1,0.1,0,0.2,0,0.3c0,0.1,0,0.1,0,0.2c0.1,0.3,0,0.6,0.1,0.8v0.2h0.1l0,0c0,0.2,0,0.5,0,0.7l0.1,0.1
		h0.1c0,0,0,0.1,0.1,0.1h0.2H34l0,0C34.1,21.9,34.1,21.6,34.1,21.3z"/>
	<path class="st0" d="M16.2,34.8h0.2c0.1,0.1,0.1,0.1,0.2,0l0,0c0.1,0,0.3-0.1,0.4,0h0.1c0.1,0,0.2,0,0.3,0h0.1
		c0.1-0.1,0.2-0.1,0.1-0.2l0.4-0.1v-0.1l0,0l0,0l0,0c0.1,0,0.1,0,0.2,0c0.2-0.1,0.4,0,0.5-0.1l0,0l0,0c0.2-0.1,0.5,0,0.6-0.3l0,0
		c0.1-0.2,0.2-0.4,0.2-0.6c0-0.4,0-0.7,0-1.1c0,0,0-0.1-0.1-0.1c0,0,0-0.1-0.1-0.1c0,0,0.1-0.1,0-0.1v-0.1c0,0,0-0.1-0.1-0.1
		c0,0,0-0.1-0.1-0.1c0,0-0.1,0-0.1-0.1h-0.1l0,0c0,0,0,0,0-0.1l0,0c0,0-0.1-0.1-0.2-0.1h-0.1l0,0l0,0c-0.1-0.1-0.3,0-0.4-0.1h-0.1
		c-0.1-0.1-0.3-0.1-0.4,0c-0.1,0-0.1,0-0.2-0.1c-0.2-0.1-0.4,0-0.6-0.1l0,0c-0.2-0.1-0.4,0-0.5-0.1h-0.1c-0.1-0.1-0.2,0-0.3-0.1l0,0
		c-0.1-0.1-0.2,0-0.2-0.1c0,0,0,0-0.1,0l0,0h-0.1h-0.1l0,0c0,0,0,0-0.1,0h-0.1c-0.1-0.1-0.1,0-0.2-0.1L15,30.6l0,0
		c0-0.1-0.1-0.1-0.2-0.1c0-0.1-0.1,0-0.2-0.1c-0.1-0.1-0.1-0.1-0.2,0l0,0c0.1,0.2,0,0.4,0.1,0.5c0,0.1,0,0.2,0,0.3l0,0
		c0,0,0,0,0,0.1c0,0.2,0,0.4,0,0.7c0,0,0,0,0,0.1l0,0c-0.1,0.2,0,0.4-0.1,0.5s0,0.2-0.1,0.3l0,0c-0.1,0.1,0,0.2-0.1,0.3
		s-0.1,0.1,0,0.2c0,0,0,0-0.1,0c0,0.1,0,0.2-0.1,0.2c0,0.1,0,0.2-0.1,0.2c0,0.1,0,0.2-0.1,0.2v0.1h-0.1l0,0c-0.1,0-0.1,0.1-0.1,0.2
		l0,0c-0.1,0-0.1,0.1-0.1,0.2c-0.1,0.1,0,0.1-0.1,0.2c-0.1,0.1,0,0.2-0.1,0.2c-0.1,0.1,0,0.2-0.1,0.3l0,0c0,0.1,0,0.1,0.1,0.1
		c0.1,0.1,0.2,0,0.2,0.1h0.3c0.1-0.1,0.2,0,0.3-0.1s0.2,0,0.3-0.1s0.2,0,0.3-0.1l0,0l0,0c0.1-0.1,0.2,0,0.3-0.1s0.3,0,0.4-0.1l0,0
		c0,0,0,0,0-0.1C16,34.8,16.1,34.8,16.2,34.8z"/>
	<path class="st0" d="M38.2,21.3L38.2,21.3c0.1-0.1,0-0.2,0.1-0.3c0.1-0.1,0-0.1,0.1-0.2l0,0c0.1-0.1,0-0.2,0.1-0.3
		c0.1-0.1,0-0.1,0.1-0.2l0,0c0.1-0.1,0-0.2,0.1-0.3c0.1-0.1,0.1-0.1,0.1-0.2l0,0c0.1-0.1,0.1-0.1,0.1-0.2l0,0l0,0
		c0.1,0,0.1-0.1,0.1-0.2c0.1,0,0.1-0.1,0.1-0.2l0,0l0.1-0.1l0,0c0.1,0,0.1-0.1,0-0.1l0,0c-0.1-0.1-0.2-0.1-0.2-0.1h-0.1h-0.1
		c0,0,0,0-0.1-0.1l0,0c0-0.1-0.1-0.1-0.2-0.1c-0.1-0.1-0.2,0-0.3-0.1l0,0l0,0c-0.1,0-0.2,0-0.2,0.1c-0.1,0.2,0,0.4-0.1,0.6
		c0,0,0,0,0,0.1l0,0c-0.1,0.1,0,0.3-0.1,0.4l0,0c-0.1,0.1,0,0.3-0.1,0.4l0,0c-0.1,0.1,0,0.3-0.1,0.4l0,0c-0.1,0.1,0,0.3-0.1,0.4l0,0
		c-0.1,0.1,0,0.3-0.1,0.4s0,0.2-0.1,0.3c-0.1,0.1,0,0.3-0.1,0.4s0,0.2-0.1,0.3l0,0l0,0v0.1c-0.1,0.1-0.1,0.2,0,0.2l0,0l0,0l0,0
		c0,0.1,0,0.3-0.1,0.4c0,0.1,0,0.2-0.1,0.3c0,0.1,0,0.3-0.1,0.4c0,0.1,0,0.1,0,0.2l0.1,0.1c0.1,0.1,0.1,0.1,0.2,0.2
		c0.1,0.1,0.2,0.1,0.2,0l0.1-0.1c0-0.1,0-0.2,0.1-0.3c0-0.1,0-0.2,0.1-0.3c0-0.1,0-0.2,0-0.3h0.1v-0.1l0,0v-0.1l0,0l0,0l0,0
		c0,0,0,0,0-0.1c0,0,0-0.1,0.1-0.2c0,0,0,0,0-0.1l0,0c0.1-0.1,0-0.1,0.1-0.2l0,0l0,0c0.1-0.1,0-0.2,0.1-0.3l0,0
		c0.1-0.1,0-0.2,0.1-0.3c0.1-0.1,0.1-0.1,0.1-0.2l0,0l0,0C38.2,21.5,38.2,21.3,38.2,21.3z"/>
	<path class="st0" d="M37.5,23.2L37.5,23.2L37.5,23.2z"/>
	<path class="st0" d="M36.2,13.4c0.1,0.1,0,0.2,0.1,0.2c0.1,0.1,0,0.2,0.1,0.3l0,0c0.1,0.1,0,0.2,0.1,0.2l0,0c0.1,0.1,0,0.2,0.1,0.2
		c0.1,0.1,0,0.2,0.1,0.2c0.1,0.1,0,0.1,0.1,0.2c0.1,0.1,0,0.1,0.1,0.2c0.1,0.1,0,0.1,0.1,0.2c0,0,0,0,0,0.1s0,0.2,0.1,0.2l0,0
		c0,0.1,0,0.2,0.1,0.2c0.1,0.1,0,0.2,0.1,0.2c0.1,0.1,0,0.2,0.1,0.2v0.1c0,0.1,0,0.2,0.1,0.2c0.1,0.1,0,0.2,0.1,0.2v0.1
		c0,0,0,0.1,0.1,0.1c0,0.1,0,0.1,0,0.2l0,0l0,0c0,0.1,0,0.2,0.1,0.2c0.1,0.1,0,0.2,0.1,0.3c0,0,0,0,0,0.1l0,0c0.1,0.1,0,0.2,0.1,0.3
		c0,0.1,0,0.1,0,0.2s0,0.1,0.1,0.1c0.1,0.1,0.2,0,0.2,0.1c0.1,0.1,0.2,0,0.2,0.1c0.1,0.1,0.3,0.1,0.5,0l0,0c0,0,0,0,0-0.1
		c-0.1-0.1,0-0.2-0.1-0.3l0,0l0,0c0-0.1,0-0.2-0.1-0.2l0,0c-0.1-0.1,0-0.2-0.1-0.2c-0.1-0.1,0-0.2-0.1-0.3l0,0l0,0
		c0-0.1,0-0.2-0.1-0.2l0,0c-0.1-0.1,0-0.2-0.1-0.2c-0.1-0.1,0-0.2-0.1-0.2c-0.1-0.1,0-0.1-0.1-0.2c0,0,0,0,0-0.1c0,0,0-0.1-0.1,0
		l0,0c0-0.1,0-0.1,0-0.2l0,0c0-0.1,0-0.2-0.1-0.2l0,0c0-0.1,0-0.2-0.1-0.2c-0.1-0.1,0-0.2-0.1-0.2c-0.1-0.1,0-0.2-0.1-0.2
		c-0.1-0.1,0-0.1-0.1-0.2c-0.1-0.1,0-0.1-0.1-0.2c0,0,0,0,0-0.1s0-0.2-0.1-0.2l0,0c-0.1,0-0.1-0.1-0.1-0.2c-0.1-0.1-0.1-0.1-0.1-0.2
		c-0.1-0.1,0-0.2-0.1-0.2c-0.1-0.1,0-0.2-0.1-0.2c-0.1-0.1,0-0.2-0.1-0.2c-0.1-0.1,0-0.1-0.1-0.2l-0.1-0.1
		C36.5,13.2,36.2,12.9,36.2,13.4z"/>
	<path class="st0" d="M40.7,18.2L40.7,18.2C40.7,18.3,40.7,18.3,40.7,18.2c0.1,0.3,0,0.6,0.1,0.8c0,0,0,0,0,0.1l0,0
		c0.1,0.2,0,0.4,0.1,0.7c0,0,0,0,0,0.1l0,0c0.1,0.2,0,0.4,0.1,0.6c0,0,0,0,0,0.1l0,0c0,0,0,0.1,0.1,0.1l0,0c-0.1,0.2-0.1,0.3,0,0.5
		v0.1c0,0.1,0.1,0.3,0.2,0.3l0,0l0.1,0.1l0.1,0.1l0,0l0,0c0,0.1,0.1,0.1,0.2,0.1c0.1,0,0.2,0,0.2-0.2s0-0.3,0-0.5c0,0,0,0,0-0.1l0,0
		c-0.1-0.1,0-0.3-0.1-0.4c0,0,0,0,0-0.1s0-0.1-0.1-0.1l0,0c0,0,0,0,0.1,0c0-0.1,0-0.2-0.1-0.3l0,0c-0.1-0.1,0-0.3-0.1-0.4
		s0-0.3-0.1-0.4v-0.1c-0.1-0.3-0.1-0.6-0.2-0.8c-0.1-0.1-0.1-0.2-0.1-0.3c0,0,0,0,0-0.1c-0.1-0.1,0-0.2-0.1-0.3L41,17.7
		c-0.1-0.1-0.2-0.2-0.3-0.1C40.6,17.7,40.6,18,40.7,18.2z"/>
	<path class="st0" d="M32.4,10.4C32.4,10.5,32.4,10.5,32.4,10.4c0.1,0.1,0.1,0.2,0.2,0.3l0,0c0,0,0,0,0.1,0c0,0.1,0,0.1,0,0.2l0,0
		l0.1,0.1c0,0,0,0,0,0.1s0.1,0.1,0.1,0.1c0.1,0.1,0,0.2,0.1,0.2l0.1,0.1c0.1,0,0,0.1,0.1,0.2c0.1,0.1,0,0.2,0.1,0.2l0,0l0.1,0.1
		c0.1,0.1,0,0.1,0.1,0.2c0.1,0.1,0,0.2,0.1,0.2l0,0l0.1,0.1c0.1,0,0,0.1,0.1,0.2c0.1,0.1,0,0.2,0.1,0.2l0,0L34,13l0.1,0.1l0,0
		c0,0,0,0,0,0.1c0.1,0.1,0,0.2,0.1,0.2l0,0l0.1,0.1v0.1l0.1,0.1l0,0l0,0c0,0.1,0,0.1,0,0.2c0,0.1,0,0.2,0.1,0.3c0,0.1,0,0.2,0,0.3
		c0.1,0.1,0,0.2,0.1,0.2c0,0.1,0.1,0.1,0.2,0c0,0,0,0,0,0.1c0.1,0.1,0.1,0.2,0.1,0.3c0.3,0.3,0.5,0.7,0.6,1.1c0,0,0,0,0.1,0
		c0,0,0,0.1,0.1,0.1l0,0l0,0c0.2,0.1,0.5,0.1,0.7,0c0.1-0.1,0.1-0.3,0-0.4l0,0c-0.1-0.1,0-0.2-0.1-0.2c-0.1-0.1,0-0.2-0.1-0.2l0,0
		c-0.1-0.1,0-0.2-0.1-0.2l0,0L36,15.2c-0.1,0,0-0.1-0.1-0.2s0-0.2-0.1-0.2l0,0l-0.1-0.1c-0.1,0,0-0.2-0.1-0.2l0,0
		c-0.1-0.1-0.1-0.2-0.2-0.3c-0.1-0.1,0-0.2-0.1-0.2l0,0l-0.1-0.1c-0.1-0.1,0-0.2-0.1-0.2l0,0c0,0,0,0-0.1,0c0-0.1,0-0.1,0-0.2
		l-0.1-0.1c-0.1-0.1,0-0.2-0.1-0.2l0,0l-0.1-0.1c0,0,0,0-0.1,0c0-0.1,0-0.1-0.1-0.2l-0.1-0.1c0,0,0,0,0-0.1s-0.1-0.1-0.1-0.1
		c-0.1-0.1,0-0.2-0.1-0.2l0,0l-0.1-0.1c-0.1,0,0-0.2-0.1-0.2l0,0L33.9,12l0,0c-0.1,0,0-0.1-0.1-0.2c-0.1-0.1,0-0.2-0.1-0.2l0,0
		l-0.1-0.1c-0.1-0.1,0-0.2-0.1-0.2c-0.1-0.1,0-0.2-0.1-0.2l0,0L33.3,11c-0.1-0.1,0-0.1-0.1-0.2c-0.1-0.1,0-0.2-0.1-0.2H33
		c0-0.1,0-0.1,0-0.2c-0.1-0.1,0-0.1-0.1-0.2c-0.1-0.1-0.2-0.1-0.2-0.1h-0.3C32.4,10.2,32.3,10.3,32.4,10.4z"/>
	<path class="st0" d="M26.5,39.5c-0.1,0-0.2-0.1-0.2-0.2l0,0c0-0.1-0.1-0.1-0.2-0.1H26l0,0c-0.1,0.1-0.2,0-0.2,0.1c0,0,0,0-0.1,0
		c-0.1,0.1-0.2,0-0.3,0.1c0,0,0,0-0.1,0c-0.1,0.1-0.3,0-0.4,0.1h-0.1c-0.2,0.1-0.5,0-0.7,0.1H24c-0.3,0.1-0.6,0-0.8,0.1H23
		c-0.3,0.1-0.7,0-1,0.1h-0.2c-0.3,0.1-0.6,0-0.8,0.1c-0.1,0.2,0,0.3,0.1,0.4l0,0l0.1,0.1l0,0H22h0.2c0.3-0.1,0.7-0.1,1-0.1h0.2
		c0.3-0.1,0.7-0.1,1-0.1l0,0l0,0c0.3-0.1,0.6-0.1,0.9-0.1l0,0l0,0c0.3-0.1,0.6-0.1,0.9-0.1c0.1,0,0.1-0.1,0.2-0.1s0.1-0.1,0.1-0.2
		l-0.1-0.1C26.5,39.6,26.5,39.5,26.5,39.5z"/>
	<path class="st0" d="M23.5,37.9L23.5,37.9L23.5,37.9L23.5,37.9z"/>
	<path class="st0" d="M16.9,38.6h1.8h1.1l0,0c0.2,0.1,0.4,0,0.6,0.1c0.2,0,0.3,0,0.5,0c0.9,0.1,1.8,0.1,2.7,0l0,0l0,0
		c0.1-0.1,0.2-0.1,0.1-0.3c-0.1-0.1,0-0.2-0.1-0.2c-0.1-0.1-0.1-0.2-0.2-0.3s-0.1-0.1-0.2-0.1l0,0c-0.1,0.1-0.2,0-0.3,0.1
		C22.7,38,22.6,38,22.4,38h-0.9c-0.7,0-1.5,0-2.3,0c-0.1,0-0.2,0-0.4,0h-2.4v0.1c-0.1,0.1,0,0.2,0,0.3h0.1c0,0.1,0,0.1,0.1,0.1l0,0
		C16.7,38.7,16.8,38.6,16.9,38.6z"/>
	<polygon class="st0" points="20.5,40 20.5,40 20.6,40 	"/>
	<path class="st0" d="M20.3,39.9L20.3,39.9c-0.2-0.1-0.4,0-0.6-0.1s-0.4,0-0.5-0.1c-0.2-0.1-0.4,0-0.5-0.1h-0.1
		c-0.1-0.1-0.3,0-0.4-0.1h-0.1c-0.2-0.1-0.4,0-0.5-0.1h-0.1c-0.1-0.1-0.3,0-0.4-0.1c-0.1,0-0.1,0-0.2,0c-0.2-0.1-0.4,0-0.6-0.1
		c0,0,0,0-0.1,0c0,0.1,0,0.1,0,0.2c0.1,0,0.2,0,0.2,0.1h0.1c0.1,0.1,0.2,0,0.2,0.1l0,0l0,0c0.1,0.1,0.2,0,0.3,0.1
		c0.1,0.1,0.2,0,0.3,0.1l0,0l0,0c0.1,0.1,0.2,0,0.3,0.1c0.1,0.1,0.2,0,0.3,0.1l0,0l0,0c0.1,0.1,0.3,0,0.4,0.1s0.3,0,0.4,0.1
		s0.3,0,0.4,0.1l0,0l0,0c0.2,0.1,0.4,0,0.5,0.1l0,0l0,0c0.1,0,0.2,0,0.4,0c0.1,0,0.2-0.1,0.2-0.2c-0.1-0.1,0-0.2-0.1-0.2
		C20.5,39.9,20.4,39.9,20.3,39.9z"/>
	<path class="st0" d="M48.1,35.3L48.1,35.3L48.1,35.3L48.1,35.3L48.1,35.3L48.1,35.3l-0.2-0.2c-0.1-0.1-0.1-0.2-0.2-0.3l0,0
		c0-0.1-0.1-0.1-0.1-0.1l-0.1-0.1h-0.1l0,0c0-0.1,0-0.1-0.1-0.1v-0.1v-0.1h-0.1v-0.1h-0.1v-0.1H47c0-0.1,0-0.1,0-0.2h-0.1v-0.1h-0.1
		c0-0.1,0-0.1,0-0.2l-0.1-0.1c-0.1,0-0.1-0.1-0.1-0.2c-0.1,0-0.1-0.1-0.1-0.2c-0.1,0-0.1-0.1-0.1-0.2c-0.1-0.1-0.1-0.3-0.2-0.4
		C46,32.3,46,32.2,46,32.1L45.9,32l0,0c0-0.1,0-0.1,0-0.2l0,0c-0.1-0.1,0-0.2-0.1-0.3c0,0,0,0,0-0.1c-0.1-0.2,0-0.4-0.1-0.5v-0.1
		c0,0,0-0.1-0.1,0l0,0c0-0.1,0-0.1,0-0.2s0-0.2,0-0.4l0,0c0.1-0.3,0-0.5,0.1-0.8c0,0,0,0,0-0.1l0,0c0.1-0.2,0-0.4,0.1-0.5l0,0
		c0.1-0.1,0-0.2,0.1-0.4l0,0H46l0,0l0,0c0-0.2,0-0.2-0.2-0.1c0,0,0,0,0,0.1c0,0-0.1,0-0.1,0.1c-0.1,0-0.1,0.1-0.1,0.2l0,0l-0.1,0.1
		l0,0l0,0c-0.1,0-0.1,0.1-0.1,0.2c-0.1,0.1,0,0.1-0.1,0.2s-0.1,0.1-0.1,0.2l0,0c-0.1,0.1,0,0.2-0.1,0.3c-0.1,0.1,0,0.2-0.1,0.3l0,0
		c0,0.1,0,0.3,0,0.4c0,0-0.1,0-0.1,0.1c0,0,0,0,0,0.1l0,0c0,0.5,0,1,0,1.5v0.1c0,0,0,0,0.1,0l0,0v0.1c0,0.2-0.1,0.4,0.1,0.5
		c0.1,0.2,0,0.4,0.1,0.5l0,0c0.1,0.1,0,0.3,0.1,0.4l0,0c0.1,0.1,0,0.3,0.1,0.4l0,0c0.1,0.1,0,0.2,0.1,0.3s0,0.2,0.1,0.3
		s0,0.2,0.1,0.3c0,0,0,0,0,0.1l0,0c0,0.1,0,0.2,0.1,0.2l0,0l0,0c0,0.1,0,0.1,0.1,0.1l0.1,0.1l0,0c0,0.1,0.1,0.1,0.2,0.1l0,0l0,0
		c0.1,0.1,0.2,0,0.3,0.1s0.2,0,0.3,0.1s0.2,0,0.3,0.1l0,0c0.1,0.1,0.3,0,0.4,0.1l0,0l0,0H48l0,0l0,0c0.1,0,0.1,0,0.1-0.1
		c0.1-0.1,0.1-0.3,0-0.4C48.1,35.4,48.1,35.3,48.1,35.3z"/>
	<path class="st0" d="M45.6,28.3L45.6,28.3C45.7,28.3,45.7,28.3,45.6,28.3L45.6,28.3z"/>
	<path class="st0" d="M31,40.4L31,40.4c0-0.1-0.1-0.1-0.2-0.1l0,0c-0.1-0.1-0.2,0-0.3-0.1c0,0,0,0-0.1,0l0,0c-0.1,0.1-0.2,0-0.3,0.1
		l0,0c-0.1,0-0.2,0-0.2,0.1c-0.1,0.1-0.2,0-0.3,0.1c-0.1,0.1-0.1,0-0.2,0.1c0,0,0,0-0.1,0s-0.2,0-0.2,0.1c-0.1,0.1-0.1,0-0.2,0.1
		c0,0,0,0-0.1,0s-0.2,0-0.2,0.1c-0.1,0.1-0.1,0-0.2,0.1h-0.1c-0.1,0-0.2,0-0.2,0.1L28,41.2h-0.1l0,0l0,0c0,0.1-0.1,0-0.2,0.1h-0.1
		v0.1h-0.2c0,0.1-0.1,0.1-0.2,0.1l-0.1,0.1c-0.1,0.1-0.1,0.2,0,0.3l0,0l0,0c0.1,0.1,0.2,0.1,0.3,0l0,0l0,0c0.1-0.1,0.2,0,0.3-0.1
		l0,0l0,0c0.1-0.1,0.2,0,0.2-0.1l0,0H28h0.1l0,0l0,0c0.1,0,0.1,0,0.2-0.1s0.3,0,0.4-0.1l0,0c0.1-0.1,0.2,0,0.3-0.1
		c0.1-0.1,0.2,0,0.3-0.1c0.1-0.1,0.3,0,0.4-0.1l0,0c0.1-0.1,0.2,0,0.3-0.1c0.1-0.1,0.2,0,0.3-0.1l0,0c0.1-0.1,0.2,0,0.2-0.1l0,0l0,0
		c0.1,0,0.2,0,0.2-0.1c0.1-0.1,0.2,0,0.2-0.1l0,0C31.2,40.6,31,40.5,31,40.4z"/>
	<path class="st0" d="M26.5,41.8l-0.1-0.1l-0.1-0.1c-0.1-0.1-0.3,0-0.4-0.1s-0.3,0-0.4-0.1h-0.1c-0.1-0.1-0.3,0-0.4-0.1l0,0
		c-0.2-0.1-0.4,0-0.5-0.1h-0.1c-0.1-0.1-0.3,0-0.4-0.1h-0.1c-0.3,0-0.5,0-0.7-0.1c0,0,0,0-0.1,0c-0.1,0.1-0.3,0-0.2,0.2l0.1,0.1l0,0
		c0.1,0,0.2,0,0.2,0.1c0.1,0,0.2,0,0.3,0.1c0.1,0.1,0.2,0,0.3,0.1c0.1,0.1,0.2,0,0.3,0.1l0,0l0,0c0.1,0.1,0.2,0,0.3,0.1
		c0.1,0.1,0.3,0,0.4,0.1l0,0l0,0c0.1,0.1,0.3,0,0.4,0.1l0,0l0,0c0.2,0.1,0.4,0,0.5,0.1h0.5C26.6,42,26.6,41.9,26.5,41.8L26.5,41.8z"
		/>
	<path class="st0" d="M45.3,35.8L45.3,35.8C45.3,35.7,45.3,35.7,45.3,35.8c-0.2-0.2-0.1-0.2-0.2-0.3c-0.1-0.1,0-0.1-0.1-0.2l0,0
		c-0.1-0.1,0-0.2-0.1-0.3l0,0l0,0c0-0.1,0-0.2-0.1-0.2l0,0c0-0.1,0-0.2-0.1-0.2c-0.1-0.1,0-0.2-0.1-0.3l0,0c0-0.1,0-0.2-0.1-0.2
		c0,0,0,0,0-0.1s0-0.2-0.1-0.2c0,0,0,0,0-0.1s0-0.2,0-0.3v-0.1c0-0.1-0.1-0.2-0.1-0.3v-0.1c0-0.1-0.1-0.2-0.1-0.4v-0.1
		c0-0.2,0-0.4-0.1-0.5c0,0,0-0.1-0.1-0.1h-0.1l0,0v-0.1c0-0.4,0-0.7,0-1.1c0-0.2,0-0.4,0.1-0.5V30c0.1-0.2,0-0.4,0.1-0.5
		s0-0.3,0.1-0.4s0-0.2,0.1-0.3c0,0,0.1-0.1,0.1-0.2c0,0,0,0,0.1,0v-0.1c0,0,0-0.1,0.1-0.1v-0.1l-0.1-0.1l-0.1,0.1l-0.1,0.1v0.1
		c0,0,0,0-0.1,0l-0.2,0c0,0.1-0.1,0.2-0.2,0.3l-0.1,0.1l0,0c-0.1,0-0.1,0.1-0.1,0.2l0,0l-0.1,0.1c-0.1,0,0,0.1-0.1,0.2
		s-0.1,0.2-0.2,0.3l0,0l0,0c-0.1,0.1-0.1,0.2-0.1,0.2V30l0,0c-0.1,0.1,0,0.1-0.1,0.2l0,0c-0.1,0.1,0,0.2-0.1,0.3l0,0
		c-0.1,0-0.1,0.1,0,0.2l0,0v0.1l0,0v0.1c0,0.1,0,0.2,0,0.3v0.1l0,0h-0.1l-0.1,0.1c0,0.2-0.1,0.4-0.1,0.6c0,0.1,0,0.1,0,0.2
		c0.1,0.3,0,0.7,0.1,1v0.2c0.1,0.2,0,0.4,0.1,0.5l0,0c0.1,0.1,0,0.3,0.1,0.4l0,0c0,0.1,0,0.2,0.1,0.2c0,0,0,0,0,0.1l0,0
		c0,0.1,0,0.2,0.1,0.2l0,0l0,0c0,0.1,0,0.2,0.1,0.2c0,0.1,0.1,0.1,0.1,0.1h0.1c0,0.1,0,0.1,0,0.2c0.1,0,0.1,0.1,0.1,0.1
		c0.1,0.1,0.3,0.2,0.3,0.4c0.1,0.1,0.3,0.1,0.4,0.2c0.1,0,0.1,0.2,0.2,0.1l0,0v0.1c0.3,0.1,0.7,0.2,1,0.1c0.1,0,0.2-0.1,0.2-0.2
		c-0.1,0-0.1-0.1-0.1-0.2C45.3,36,45.3,35.9,45.3,35.8z"/>
	<path class="st0" d="M2.9,15.6C3,15.8,2.9,16,3,16.1c0,0,0,0,0,0.1c0.1,0.1,0,0.2,0.1,0.3c0.1,0.1,0,0.2,0.1,0.3l0,0
		c0.1,0.1,0,0.2,0.1,0.2c0.1,0.1,0,0.1,0.1,0.2c0.1,0,0,0.1,0.1,0.2s0,0.2,0.1,0.2c0.1,0.1,0,0.2,0.1,0.2l0,0l0.1,0.1
		c0.1,0,0,0.1,0.1,0.2c0,0,0.1,0,0.1,0.1c0,0,0,0,0,0.1c0.1,0,0.1,0.1,0.1,0.2l0.1,0.1l0.1,0.1c0.1,0.1,0.2,0.2,0.2,0.3l0.1,0.1
		l0.1,0.1h0.1v0.1c0.1,0,0.1,0,0.1,0.1c0.1,0.1,0.2,0.2,0.3,0.3l0.1,0.1l0.1,0.1L5.6,20l0.1,0.1l0.2,0.1v0.1H6v0.1h0.1v0.1h0.1v0.1
		c0.1,0,0.1,0.1,0.2,0.1h0.1v0.1h0.1l0,0v0.1h0.2V21H7v0.1l0,0c0,0.1,0.1,0.1,0.2,0.1l0.1,0.1l0,0c0,0.1,0.1,0.1,0.2,0.1l0.1,0.1
		l0,0c0,0.1,0.1,0.1,0.2,0.1l0,0c0.1,0.1,0.1,0,0.2,0.1l0.1,0.1l0,0c0,0.1,0.1,0.1,0.2,0.1C8.3,22,8.4,22,8.5,22l0.1,0.1
		c0,0,0,0,0.1,0l0.1,0.1h0.1L9,22.3l0,0c0,0.1,0.1,0.1,0.1,0l0,0v0.1l0,0c0.1,0.1,0.2,0.1,0.2,0.1l0,0l0,0l0.1,0.1l0,0
		c0.1,0.1,0.2,0,0.3,0.1s0.1,0,0.2,0.1c0.1,0.1,0.2,0,0.2,0.1c0.1,0.1,0.2,0,0.2,0.1c0.1,0,0.2,0,0.2,0.1l0,0
		c0.1,0.1,0.2,0.1,0.2,0.1l0,0l0,0c0.1,0.1,0.1,0,0.2,0.1c0,0.1,0.1,0.1,0.2,0l0,0v0.1h0.1c0.1,0.1,0.1,0,0.2,0.1
		c0.1,0.1,0.2,0.1,0.2,0.1h0.1c0.1,0.1,0.1,0,0.2,0.1c0.1,0.1,0.2,0,0.3,0.1s0.2,0,0.3,0.1s0.2,0.1,0.2,0.1h0.1
		c0.1,0.1,0.2,0,0.2,0.1h0.1c0.1,0.1,0.2,0,0.2,0.1l0,0l0,0c0.1,0.1,0.2,0,0.3,0.1s0.2,0,0.3,0.1s0.2,0,0.3,0.1s0.2,0,0.3,0l0,0l0,0
		c0,0,0,0,0.1,0l0,0l0,0c0.1,0.1,0.2,0,0.3,0.1l0,0c0.1,0.1,0.2,0,0.3,0.1l0,0l0,0c0.1,0.1,0.2,0,0.3,0.1l0,0l0,0
		c0.1,0.1,0.2,0,0.3,0.1s0.3,0,0.4,0.1s0.3,0,0.4,0.1c0.2,0.1,0.4,0,0.5,0.1s0.3,0,0.4,0.1l0,0c0.1,0.1,0.3,0,0.4,0.1l0,0l0,0
		c0.1,0,0.1,0.1,0.2,0l0,0h0.1v0.1l0,0l0,0c0.1,0.1,0.2,0,0.3,0.1l0,0c0,0,0,0,0.1,0l0,0v0.1c0.1,0.1,0.3,0,0.4,0.1
		c0.2,0.1,0.4-0.1,0.6,0h0.2c0.1,0,0.2,0.1,0.2-0.1l-0.1-0.1l0,0c-0.1,0,0-0.1-0.1-0.2l0,0l-0.1-0.1l0,0c-0.1,0-0.2,0-0.3-0.1h-0.1
		c-0.1-0.1-0.2,0-0.4,0v0.1l0,0l0,0l0,0l0,0l0,0c-0.1-0.1-0.2-0.1-0.3-0.1l0,0l0,0v-0.1h-0.3c0,0,0,0,0-0.1c-0.1,0-0.2,0-0.3-0.1
		c-0.1,0.1-0.2,0-0.3-0.1c-0.2,0-0.4,0-0.6-0.1c-0.1,0-0.3,0-0.4-0.1c-0.1,0-0.2,0-0.2-0.1c-0.2,0-0.4-0.1-0.6-0.2
		c-0.1,0-0.2,0-0.3-0.1c-0.2,0-0.4-0.2-0.6-0.1h-0.1V24h-0.1h-0.1l0,0h-0.1l0,0v-0.1h-0.1c-0.1-0.1-0.2,0-0.2-0.1h-0.1
		c-0.1-0.1-0.2,0-0.2-0.1c-0.1-0.1-0.2,0-0.3-0.1s-0.2,0-0.3-0.1s-0.1,0-0.2-0.1l0,0c-0.1-0.1-0.2,0-0.3-0.1s-0.2-0.1-0.2-0.1h-0.1
		c-0.1-0.1-0.1,0-0.2-0.1C12.3,23,12.1,23,12,22.9h-0.1c-0.1-0.1-0.1,0-0.2-0.1c-0.1-0.1-0.2-0.1-0.2-0.1h-0.1
		c-0.1-0.1-0.1,0-0.2-0.1c-0.1,0-0.1-0.1-0.2,0l0,0l0,0c-0.1-0.1-0.1,0-0.2-0.1c-0.1,0-0.2,0-0.2-0.1h-0.2v-0.1l0,0
		c-0.1-0.1-0.2-0.1-0.2-0.1h-0.1L10,22.1H9.9H9.8l0,0l0,0c0,0,0,0,0-0.1H9.7l-0.1-0.1H9.5H9.4l0.6-0.2c-0.1,0-0.2,0-0.2-0.1H9.7
		c0,0,0-0.1-0.1-0.1s-0.1-0.1-0.2,0l0,0l0,0l-0.1-0.1c0,0,0,0-0.1,0l-0.1-0.1l0,0l0,0c0-0.1-0.1-0.1-0.2-0.1c0-0.1-0.1,0-0.2-0.1
		l0,0L8.6,21l0,0c0-0.1-0.1-0.1-0.2-0.1l-0.1-0.1l0,0c0-0.1-0.1-0.1-0.2-0.1c0-0.1-0.1,0-0.2-0.1l0,0l-0.1-0.1l0,0l-0.1-0.1l0,0l0,0
		c0-0.1-0.1-0.1-0.2-0.1l-0.1-0.1l0,0c0-0.1-0.1-0.1-0.2-0.1L7.1,20l0,0H7v-0.1H6.8v-0.1c-0.1,0-0.1,0-0.1-0.1l-0.1-0.1H6.5l0,0
		v-0.1c0,0,0,0-0.1,0c0,0,0,0-0.1,0v-0.1H6.2l0,0v-0.1H6.1v-0.1H6v-0.1H5.9V19H5.8v-0.1c-0.1-0.1-0.3-0.2-0.3-0.4l-0.1-0.1
		c-0.2,0-0.3-0.2-0.3-0.3C5,18.1,5,18,5,18c-0.1,0-0.1-0.1-0.1-0.2c-0.1,0-0.1-0.1-0.1-0.1c-0.1,0-0.1-0.1-0.1-0.1
		c-0.2-0.2-0.3-0.4-0.5-0.6C4,16.8,4,16.7,4,16.7s0,0-0.1,0l0,0c0-0.1,0-0.1-0.1-0.2l0,0l-0.1-0.1c-0.1-0.1,0-0.1-0.1-0.2
		s0-0.1-0.1-0.2c-0.1-0.1,0-0.3-0.1-0.4c0-0.1,0-0.2,0-0.3c0.1-0.1,0-0.3,0.1-0.4c0.1-0.1,0-0.1,0.1-0.2c0.1,0,0-0.1,0.1-0.2
		l0.1-0.1v-0.1h0.1l0,0L4,14.2C4.2,14,4.3,14,4.4,13.9s0.1,0,0.2-0.1l0,0l0,0c0.1-0.1,0.2-0.1,0.3-0.1c0.2,0,0.4,0,0.5,0v0.1
		c0.1,0,0.2,0,0.2,0.1c0.1,0.1,0.1,0,0.2,0.1l0.1,0.1l0,0L6,14.2l0,0l0.1,0.1l0,0l0.1,0.1c0.1,0.1,0,0.2,0.1,0.2c0,0,0,0,0,0.1
		s0.1,0.2,0,0.2c0,0.2-0.2,0.1-0.3,0.2C6,15,6,15,6,14.9H5.8l0,0l0,0v-0.1H5.7H5.6c-0.1-0.1-0.2-0.1-0.4-0.1c-0.1,0.2,0,0.5,0.1,0.7
		l0.1,0.1c0.1,0,0.1,0.1,0.1,0.1l0.1,0.1h0.2c0.1,0.2,0.3,0.1,0.4,0.1v-0.1h0.3l0.1-0.1l0.1-0.1L7,15.4c0-0.1,0-0.1,0.1-0.2
		c0-0.2,0-0.5,0-0.7c-0.1-0.1,0-0.2-0.1-0.3l0,0l-0.1-0.1c-0.1,0,0-0.2-0.1-0.2l0,0l-0.1-0.1l-0.1-0.1l-0.1-0.1l-0.1-0.1
		c-0.1,0-0.1-0.1-0.2-0.1L6,13.3c-0.1,0-0.1-0.1-0.2-0.1H5.7c0,0,0-0.1-0.1-0.1l0,0c-0.1-0.1-0.2,0-0.3-0.1H5.2
		c-0.2-0.1-0.3-0.1-0.5,0H4.6c-0.1,0.1-0.2,0.1-0.3,0.1c0,0.1-0.1,0.1-0.2,0.1l-0.2,0.2H3.8l0,0l-0.1,0.1l-0.1,0.1l0,0l-0.1,0.1l0,0
		l-0.1,0.1l0,0c-0.1,0-0.1,0.1-0.1,0.2l-0.1,0.1l0,0C3.1,14.3,3,14.5,3,14.6l0,0c-0.1,0.1,0,0.3-0.1,0.4v0.1c-0.1,0.1-0.1,0.2,0,0.3
		V15.6z"/>
	<path class="st0" d="M3.9,18.2L3.9,18.2L3.9,18.2z"/>
	<path class="st0" d="M10.9,34.8L10.9,34.8L10.9,34.8c0.4,0.1,0.8,0.1,1.1,0c0.1-0.1,0.2,0,0.3-0.1l0,0l0.1-0.1l0,0
		c0-0.1,0.2,0,0.2-0.1l0,0l0.1-0.1c0-0.1,0-0.1,0.1-0.1v-0.1h0.1c0-0.1,0-0.1,0-0.2c0.1,0,0.1-0.1,0.1-0.1h0.1v-0.1h0.1l0,0
		c0,0,0,0,0-0.1c0.1-0.1,0-0.1,0.1-0.2c0.1-0.1,0-0.2,0.1-0.2c0.1-0.1,0-0.1,0.1-0.2l0,0c0.1-0.1,0.1-0.2,0-0.3l0,0l0,0l0,0l0,0l0,0
		c0-0.1,0-0.2,0.1-0.3v-0.1c0-0.1,0.1-0.1,0-0.2l0,0v-0.1h0.1l0,0V32c0.1-0.2,0-0.3,0-0.5l0,0c0-0.1,0-0.1,0-0.2
		c0.1-0.2,0.1-0.3,0-0.5l0,0c0,0,0-0.1,0.1-0.1c0-0.3,0-0.7,0-1v-0.1c-0.1-0.1,0-0.3-0.1-0.4c0,0,0,0,0-0.1c-0.1-0.1,0-0.2-0.1-0.3
		l0,0c0-0.1,0-0.2-0.1-0.2c0,0,0,0,0-0.1c-0.1-0.1,0-0.2-0.2-0.3l0,0c0-0.1,0-0.1,0-0.2c0,0,0-0.1-0.1-0.1v-0.3h-0.1
		c-0.1-0.2-0.2-0.4-0.3-0.6c-0.4-0.5-0.8-1.1-1.2-1.5v-0.1c-0.1,0-0.1-0.1-0.1-0.1c-0.1-0.1-0.1-0.3-0.3-0.4c-0.2,0-0.2-0.2-0.3-0.4
		c-0.1,0-0.2-0.1-0.2-0.2l-0.2-0.1v-0.1l0,0L10.4,24h-0.1c-0.1-0.1-0.2,0-0.2,0l0,0c0,0,0,0-0.1,0v-0.1l0,0c0,0,0,0-0.1,0l0,0H9.7
		c-0.1,0-0.2,0-0.2,0.1c0,0-0.1,0-0.2,0v0.1c0,0,0,0-0.1,0l-0.1,0.1L9,24.3l0,0c-0.1,0,0,0.1-0.1,0.2l0,0l-0.1,0.1
		c-0.1,0,0,0.1-0.1,0.2l0,0l-0.1,0.1c-0.1,0,0,0.1-0.1,0.2l-0.1,0.1l0,0c-0.1,0-0.1,0.1-0.1,0.2c-0.1,0,0,0.1-0.1,0.2l-0.1,0.1
		L8,25.8l-0.1,0.1L7.8,26l-0.1,0.1c-0.1,0.1-0.2,0-0.2,0.1l0,0c-0.1,0.1-0.2,0-0.2,0.1H7.2v0.1l0,0l0,0l0,0h-1H6v-0.1H5.9
		c0,0,0,0-0.1,0H5.7c0,0,0,0-0.1,0H5.5H5.4l0,0l-0.1-0.1H5.2c-0.1-0.1-0.2,0-0.2-0.1C4.9,26,4.8,26,4.8,26c-0.1,0-0.1-0.1-0.2,0
		v-0.1H4.5l0,0v-0.1c-0.1,0-0.1,0-0.2-0.1H4.2c0,0,0,0-0.1,0v-0.1L4,25.5l-0.1-0.1c-0.1,0-0.1-0.1-0.2-0.1c-0.1,0-0.1,0-0.1-0.1H3.5
		v-0.1H3.4V25H3.3v-0.1l-0.1-0.1l0,0c-0.1,0,0-0.1-0.1-0.2l0,0L3,24.5l-0.1-0.1l0,0c-0.1,0,0-0.1-0.1-0.2l0,0l-0.1-0.1
		c-0.1-0.1,0-0.2-0.1-0.2l0,0l-0.1-0.1c-0.1-0.1,0-0.2-0.1-0.2l0,0H2.3l0,0l0,0l0,0c0-0.1,0-0.1,0-0.2l0,0l-0.1-0.1c0,0,0,0,0-0.1
		c0,0,0-0.1-0.1-0.1l0,0V23C2,22.9,2,22.7,1.9,22.6c-0.1,0-0.1-0.1-0.1-0.2H1.7c0-0.1,0-0.1,0-0.2c-0.1,0-0.1-0.1-0.1-0.2
		c-0.1,0-0.1-0.1-0.1-0.2c0,0,0,0-0.1,0c0-0.1,0-0.1,0-0.2c-0.1-0.1,0-0.1-0.1-0.2c-0.1,0,0-0.1-0.1-0.2c0,0,0,0,0-0.1
		C1,21,1,20.9,1,20.9l0,0H0.9c0-0.1,0-0.1,0-0.2l0,0l0,0c0-0.1,0-0.1-0.1-0.2c0,0,0,0,0-0.1s0-0.2-0.1-0.2l0,0c0-0.1,0-0.2-0.1-0.2
		c-0.1-0.1-0.1-0.2-0.1-0.3c-0.2-0.1-0.3,0-0.4,0.2V20c0,0.3,0,0.5,0,0.8H0c0,0.7,0,1.4,0,2.1h0.1c0,0.1,0,0.1,0,0.2s0,0.1,0,0.2
		s0,0.2,0,0.3c0,0.1,0,0.1,0,0.2c0,0,0,0,0.1,0l0,0c0,0,0,0,0,0.1c0,0,0,0,0,0.1s0,0.2,0,0.3v0.1c0,0,0,0,0.1,0c0,0,0,0,0,0.1
		s0,0.2,0,0.3v0.1c0.1,0.1,0,0.2,0.1,0.3c0,0,0,0,0,0.1c0.1,0.1,0,0.2,0.1,0.3l0,0c0.1,0.1,0,0.2,0.1,0.3l0,0c0.1,0.1,0,0.2,0.1,0.3
		l0,0c0,0.1,0,0.1,0.1,0.2c0,0,0,0,0,0.1s0,0.2,0.1,0.2l0,0c0.1,0.1,0,0.2,0.1,0.2h0.1l0,0V27v0.1h0.1c0,0.1,0,0.1,0,0.2
		c0.1,0,0.1,0.1,0.1,0.2c0.1,0,0.1,0.1,0.1,0.2c0.1,0,0.1,0.1,0.1,0.2c0.1,0,0.1,0.1,0.1,0.2l0.1,0.1c0.1,0,0.1,0.1,0.1,0.2
		c0.1,0,0.1,0.1,0.1,0.2L2,28.7h0.1L2.2,29l0.1,0.1c0.1,0,0.1,0.1,0.1,0.2l0.1,0.1c0.1,0,0.1,0.1,0.1,0.1c0.1,0.1,0.2,0.2,0.2,0.3
		l0.1,0.1L3,30c0.1,0,0.1,0.1,0.1,0.1c0.1,0,0.1,0.1,0.1,0.1c0.1,0,0.1,0.1,0.1,0.1c0.1,0,0.1,0,0.1,0.1c0.1,0.1,0.1,0.1,0.2,0.2
		c0.1,0,0.1,0,0.1,0.1c0.1,0,0.1,0,0.1,0.1c0.1,0,0.1,0,0.1,0.1C4,30.9,4,30.9,4,31c0,0,0.1,0,0.1,0.1l0.1,0.1c0.1,0,0.1,0,0.1,0.1
		l0.2,0.1l0.1,0.2c0.1,0.1,0.1,0.1,0.2,0.2c0.1,0,0.2,0.1,0.3,0.2h0.1l0,0v0.1l0,0l0.1,0.1l0,0l0,0c0,0.1,0.1,0.1,0.2,0.1l0.1,0.1
		l0,0c0,0.1,0.1,0.1,0.2,0.1l0.1,0.1l0,0c0,0.1,0.1,0.1,0.2,0.1l0.1,0.1l0,0l0,0c0,0.1,0.1,0.1,0.2,0.1l0,0c0.1,0.1,0.2,0.2,0.3,0.2
		l0,0l0,0c0,0.1,0.1,0.1,0.2,0.1l0,0C7,33.3,7,33.3,7.1,33.3c0.1,0.1,0.1,0,0.2,0.1s0.1,0,0.2,0.1s0.1,0.1,0.2,0.1
		c0.1,0.1,0.1,0,0.2,0.1s0.1,0.1,0.2,0.1C8.3,34,8.4,33.9,8.5,34s0.1,0.1,0.2,0.1l0,0l0,0c0.1,0.1,0.2,0.1,0.2,0.1l0,0l0,0H9
		l0.1,0.1l0,0c0.1,0.1,0.2,0,0.3,0.1c0.1,0,0.2,0.1,0.2,0.1l0,0l0,0c0.1,0,0.2,0.1,0.2,0.1l0,0l0,0c0.1,0.1,0.2,0,0.3,0.1l0,0
		C10.6,34.8,10.7,34.7,10.9,34.8z"/>
	<path class="st0" d="M5.7,32.4L5.7,32.4L5.7,32.4L5.7,32.4z"/>
	<path class="st0" d="M5.7,10.8c0,0.1,0,0.2,0.1,0.2l0,0c0.1,0.1,0,0.2,0.1,0.2l0,0L6,11.3h0.1v0.1l0.1,0.1l0,0l0,0l0,0v0.1h0.1
		l0.1,0.1l0,0l0,0l0,0c0,0,0,0,0.1,0.1c0,0,0,0,0.1,0c0,0,0,0,0,0.1h0.1l0,0L6.8,12l0,0c0.2,0.1,0.4,0,0.5,0c0.2,0.1,0.4,0,0.6,0.1
		l0,0l0,0C8,12,8.2,12.1,8.3,12c0,0,0,0,0.1,0c0.1-0.1,0.1-0.1,0.2-0.1l0.1-0.1l0.1-0.1l0,0c0.1-0.1,0.1-0.1,0.2-0.2
		c0.5-0.2,0.5-0.3,0.2-0.7c-0.1-0.1-0.1-0.1-0.2-0.2l0,0H8.9c-0.1-0.2-0.3-0.2-0.4-0.3c-0.1,0-0.2,0-0.3,0c-0.2-0.1-0.5,0-0.7,0.2
		c0,0.1,0,0.2,0,0.3l0,0l0,0v0.1L7.8,11l0.1,0.1L8,11.2h0.1c0.1,0.1,0.2,0,0.3,0.1l0,0c0,0.1-0.1,0.1-0.2,0.1v0.1
		c-0.2,0-0.5,0.1-0.7-0.1c-0.1,0-0.2,0-0.3-0.1c-0.1,0-0.2-0.1-0.3-0.2C6.8,11,6.8,11,6.7,10.9l0,0c0-0.1,0-0.1-0.1-0.2
		c-0.1-0.1,0-0.2-0.1-0.3l0,0c-0.1-0.2-0.1-0.5,0-0.7l0,0c0.1-0.1,0-0.3,0.1-0.4l0.1-0.1l0,0c0-0.1,0-0.2,0-0.2l0.1-0.1l0,0l0.1-0.1
		C7,8.8,7,8.7,7,8.7c0.1-0.1,0.1,0,0.2-0.1l0,0l0,0c0,0,0.1,0,0.1-0.1c0,0,0,0,0.1,0c0.1-0.1,0.3,0,0.4-0.1c0.3,0,0.5,0,0.8,0
		s0.6,0,0.8,0.1l0,0l0,0c0.1,0.1,0.2,0,0.4,0l0,0l0,0h0.1H10c0,0,0,0,0.1,0s0.1,0,0.2,0l0,0l0,0l0,0l0,0c0.1,0.1,0.2,0,0.3,0.1
		s0.2,0,0.3,0.1s0.2,0,0.3,0.1s0.2,0,0.3,0.1S11.7,9,11.7,9h0.1c0.1,0,0.1,0,0.2,0.1c0.1,0.1,0.2,0,0.2,0.1c0.1,0,0.2,0,0.2,0.1l0,0
		c0,0.1,0.1,0.1,0.2,0l0,0c0,0,0,0,0.1,0c0,0,0,0,0.1,0c0.1,0.1,0.1,0,0.2,0.1l0,0c0.1,0.1,0.2,0,0.2,0.1c0.1,0.1,0.1,0,0.2,0.1
		l0.1,0.1l0,0l0,0l0.1,0.1l0,0c0.1,0,0.2,0,0.2,0.1c0.1,0,0.2,0,0.2,0.1c0.1,0,0.2,0,0.2,0.1l0.1,0.1c0.1,0,0.1,0,0.2,0.1
		c0.1,0,0.2,0.1,0.2,0.1h0.1l0,0v0.1c0.1,0,0.2,0,0.2,0.1c0.1,0,0.2,0,0.2,0.1l0.1,0.1c0.1,0,0.2,0,0.2,0.1c0,0,0,0,0.1,0V11
		c0,0.1,0.2,0,0.2,0.1l0,0l0.1,0.1c0.1,0.1,0.1,0,0.2,0.1l0.1,0.1l0,0c0,0.1,0.1,0,0.2,0.1l0.1,0.1c0.1,0.1,0.2,0.1,0.3,0.2l0.1,0.1
		l0,0H17l0,0c0,0,0,0,0,0.1h0.1l0.1,0.1l0.1,0.1c0,0.1,0.1,0,0.2,0.1l0.1,0.1l0.1,0.1c0,0.1,0.1,0,0.2,0.1l0,0l0.1,0.1l0.1,0.1
		l0.1,0.1l0.1,0.1c0,0.1,0.1,0.1,0.2,0c0,0,0,0,0,0.1l0.1,0.1l0.1,0.1c0.1,0,0.2,0.1,0.3,0.2l0.1,0.1l0.1,0.1l0.1,0.1l0.1,0.1
		c0.1,0,0.1,0.1,0.2,0.1l0.1,0.1l0.1,0.1l0.1,0.1l0.1,0.1l0.1,0.1c0.2,0,0.3,0.2,0.4,0.3l0.1,0.1l0.1,0.1l0.1,0.1l0.1,0.1l0.1,0.1
		l0.1,0.1l0.1,0.1c0.2,0.1,0.4,0.2,0.5,0.4l0.1,0.1l0.1,0.1l0.1,0.1l0.1,0.1l0.1,0.1l0.1,0.1l0.1,0.1l0.1,0.1l0.1,0.1h0.1v0.1h0.1
		V17l0.1,0.1l0.1,0.1l0.1,0.1l0.1,0.1l0.1,0.1l0.1,0.1l0.1,0.1l0.1,0.1l0.1,0.1l0.1,0.1l0.1,0.1l0.1,0.1l0.1,0.1
		c0.2,0.1,0.3,0.2,0.3,0.4l0.1,0.1l0.1,0.1l0.1,0.1l0.1,0.1l0.1,0.1l0.1,0.1c0.2,0.1,0.4,0,0.6,0c0.1,0,0.1-0.1,0.1-0.2L25.6,19
		l-0.1-0.1l0.5,0.5l-0.1-0.1l-0.1-0.1L25.7,19c-0.1-0.1-0.2-0.2-0.2-0.3l-0.1-0.1l-0.1-0.1l-0.1-0.1L25,18.3l-0.1-0.1l-0.1-0.1
		L24.7,18c-0.2-0.1-0.3-0.3-0.4-0.5h-0.1v-0.1l-0.1-0.1L24,17.2h-0.1c0-0.1,0-0.1-0.1-0.1c-0.2-0.3-0.4-0.5-0.5-0.8l-0.1-0.1
		c-0.1,0-0.2-0.1-0.3-0.2c-0.1-0.1-0.2-0.2-0.3-0.3c0-0.1,0-0.1,0-0.2c-0.2-0.1-0.4-0.3-0.5-0.5c-0.1-0.1-0.3-0.1-0.3-0.3l-0.1-0.1
		h-0.2c-0.1-0.2-0.3-0.3-0.5-0.5L20.9,14c-0.1,0-0.1-0.1-0.1-0.1c-0.2-0.1-0.4-0.2-0.6-0.4c-0.1,0-0.1,0-0.1-0.1H20v-0.1l-0.3-0.1
		v-0.1L19.5,13h-0.1v-0.1l-0.1-0.1c-0.1,0-0.2,0-0.2-0.1L19,12.6l-0.1-0.1c-0.1,0-0.2,0-0.2-0.1l-0.1-0.1l-0.1-0.1
		c-0.1,0-0.3-0.1-0.3-0.2l-0.1-0.1L18,11.8h-0.1l-0.1-0.1l-0.1-0.1l-0.1-0.1h-0.1l-0.1-0.1l-0.1-0.1l0,0c0-0.1-0.1-0.1-0.2-0.1
		L17,11.1l0,0c0-0.1-0.1-0.1-0.2-0.1l-0.1-0.1l0,0c0-0.1-0.1,0-0.2-0.1h-0.1c0,0,0,0,0-0.1c-0.1,0-0.1-0.1-0.2-0.1s-0.2,0-0.2-0.1
		h-0.1v-0.1c-0.1,0-0.1,0-0.2-0.1c-0.1,0-0.2,0-0.2-0.1l-0.1-0.1c-0.1,0-0.2,0-0.2-0.1c-0.1,0-0.2,0-0.2-0.1
		c-0.1-0.1-0.3-0.1-0.4-0.2c-0.1,0-0.2,0-0.2-0.1c-0.1,0-0.2,0-0.2-0.1c-0.1,0-0.2,0-0.2-0.1c-0.1,0-0.2,0-0.2-0.1
		c-0.1,0-0.2,0-0.2-0.1h-0.2V9.1l0,0C13.2,8.9,13,9,13,8.9c-0.1-0.1-0.1,0-0.2-0.1l0,0c-0.1-0.1-0.2,0-0.3-0.1s-0.2-0.1-0.2-0.1
		h-0.1c-0.1,0-0.2,0-0.2-0.1h-0.1c-0.1-0.1-0.2,0-0.2-0.1h-0.1c-0.1,0-0.2,0-0.2-0.1h-0.1c-0.1-0.1-0.2,0-0.3-0.1h-0.1
		c-0.1-0.1-0.1-0.1-0.2,0c-0.1-0.1-0.2,0-0.2-0.1C10.2,8,10,8.1,9.9,8H9.8C9.5,8,9.3,8,9.1,7.9H9H8H7.8C7.6,8,7.4,8,7.2,8H7.1
		c0,0.1-0.2,0-0.3,0.1l0,0c-0.1,0.1-0.2,0-0.2,0.1l0,0L6.5,8.3l0,0L6.4,8.4L6.3,8.5L6.2,8.6l0,0L6.1,8.7l0,0C6,8.8,6.1,8.9,6,8.9
		C5.9,9,5.9,9.1,5.8,9.3c0,0,0,0,0,0.1c-0.1,0.1,0,0.2-0.1,0.2l0,0c0,0.2,0,0.4-0.1,0.5v0.3C5.7,10.5,5.7,10.7,5.7,10.8L5.7,10.8z"
		/>
	<path class="st0" d="M39.1,33.3L39.1,33.3c0-0.1,0.1-0.2,0.1-0.2c0.1-0.1,0-0.2,0.1-0.2l0.1-0.1c0.1-0.1,0-0.2,0.1-0.3l0,0
		c0,0,0.1-0.1,0.1-0.2c0,0,0,0,0-0.1l0,0c0-0.1,0.1-0.1,0.1-0.2l0,0v-0.1l0.1-0.1c0-0.1,0-0.2,0.1-0.2c0-0.1,0-0.2,0.1-0.3
		c0-0.1,0-0.1,0-0.2c0,0,0,0,0.1,0c0-0.1,0-0.2,0.1-0.3c0-0.1,0-0.3,0.1-0.4c0-0.1,0-0.3,0.1-0.4c0-0.3,0-0.5,0-0.8
		c-0.1-0.1-0.1-0.3-0.1-0.4c-0.1-0.1-0.1-0.2-0.1-0.3c-0.1-0.1-0.1-0.1-0.1-0.2c-0.1,0-0.1-0.1-0.1-0.2c0,0,0,0-0.1,0l0,0
		c0-0.1,0-0.1,0-0.2c-0.1,0-0.1-0.1-0.1-0.2l-0.1-0.1h-0.1c0-0.1,0-0.1,0-0.2l-0.1-0.1c-0.1,0-0.1-0.1-0.1-0.1
		c-0.1-0.1-0.2-0.2-0.2-0.3h-0.1v-0.1H39v-0.1h-0.1v-0.1c-0.1-0.1-0.1-0.1-0.2-0.2c-0.1-0.1-0.1-0.1-0.2-0.2c-0.1,0-0.1,0-0.1-0.1
		h-0.1L38.2,26v-0.1l0,0l-0.1-0.1L38,25.7l0,0l-0.1-0.1l0,0c-0.1-0.1-0.2-0.1-0.3-0.2l0,0l-0.1-0.1l-0.1-0.1l0,0l-0.1-0.1l0,0
		C37.2,25,37.1,25,37,24.9l-0.1-0.1l0,0l0,0l-0.1-0.1l0,0l0,0c0-0.1-0.1-0.1-0.2-0.1l-0.1-0.1l-0.1-0.1c0-0.1-0.1-0.1-0.2-0.1
		l-0.1-0.1l0,0l0,0l0,0c0-0.1-0.1-0.1-0.2-0.1L35.8,24l0,0c0-0.1-0.1-0.1-0.2-0.1c0-0.1-0.1,0-0.2-0.1l-0.1-0.1l0,0
		c-0.1,0-0.2,0-0.2-0.1c-0.1-0.1-0.3-0.1-0.4-0.2c-0.1,0-0.2,0-0.2-0.1c-0.1,0-0.2,0-0.2-0.1h-0.1c-0.1-0.1-0.1,0-0.2-0.1
		C33.9,23,33.9,23,33.8,23l0,0l0,0c-0.1-0.1-0.2,0-0.3-0.1c-0.1,0-0.1-0.1-0.2,0c0,0,0,0-0.1,0h-0.1c-0.1,0-0.1,0-0.2,0v-0.1
		c-0.1-0.1-0.2,0-0.3-0.1s-0.2,0-0.3-0.1s-0.2,0-0.3-0.1c-0.1-0.1-0.2,0-0.3-0.1c-0.1-0.1-0.2,0-0.3-0.1h-0.1c-0.1,0-0.1-0.1-0.2,0
		c0,0,0,0-0.1,0h-0.1c-0.1-0.1-0.2,0-0.3-0.1h-0.1c-0.1-0.1-0.2,0-0.3-0.1h-0.1c-0.1-0.1-0.2,0-0.3-0.1h-0.1c-0.1-0.1-0.3,0-0.4-0.1
		h-0.1c-0.1-0.1-0.3,0-0.4-0.1h-0.2c-0.1,0-0.1,0.1-0.1,0.1s0,0,0,0.1l0.1,0.1l0,0c0.1,0.1,0.2,0.3,0.3,0.4l0,0l0.1,0.1l0,0
		c0.4,0.3,0.7,0.7,1,1l0,0l0.1,0.1c0,0,0,0,0.1,0v0.1c0.1,0.1,0,0.2,0.1,0.2l0,0l0.1,0.1c0.1,0.1,0,0.2,0.1,0.2
		c0.1,0.1,0,0.2,0.1,0.2c0.1,0.1,0,0.2,0.1,0.2l0,0c0.1,0.1,0,0.2,0.1,0.2c0.1,0.1,0,0.2,0.1,0.3c0.1,0.1,0,0.2,0.1,0.3
		c0.1,0,0,0.1,0.1,0.2c0,0,0,0,0,0.1s0,0.2,0,0.3v0.1c0.1,0.3,0.1,0.6,0,0.9l0.1,0.1l0,0l0,0h-0.1l0,0v0.1c-0.1,0.1,0,0.3-0.1,0.4
		v0.1c-0.1,0.1,0,0.2-0.1,0.3c-0.1,0.1,0,0.2-0.1,0.2l0,0c-0.1,0.1-0.1,0.1,0,0.2h-0.1c0,0.1,0,0.2-0.1,0.2c0,0.1,0,0.1-0.1,0.1
		c0,0.1,0,0.1,0,0.2h-0.1l-0.1,0.1l-0.1,0.1c-0.1,0.2-0.2,0.3-0.4,0.4l-0.1,0.1c0,0.1-0.1,0.1-0.2,0.1l0,0c-0.1,0-0.1,0-0.2,0
		c-0.1,0.1-0.2,0-0.3,0.1l0,0c-0.1,0.1-0.3,0-0.4,0.1h-0.1c-0.4,0.1-0.8,0.1-1.2,0h-0.2c-0.2-0.1-0.4,0-0.6-0.1h-0.1
		c-0.1-0.1-0.2,0-0.3-0.1H26c-0.1-0.1-0.2,0-0.3,0l0,0h-0.1c-0.1-0.1-0.2,0-0.3-0.1c-0.1-0.1-0.2,0-0.3-0.1l0,0
		c-0.1-0.1-0.2,0-0.3-0.1c-0.1-0.1-0.3-0.1-0.4,0l0,0v0.1c0.1,0.1,0,0.1,0.1,0.2l0,0c0.1,0,0,0.1,0.1,0.2s0,0.1,0.1,0.2h0.1
		c0,0.1,0,0.1,0,0.2h0.1c0.1,0.2,0.3,0.4,0.4,0.6c0.1,0.1,0.2,0.4,0.4,0.5c0.1,0,0.1,0.1,0.1,0.2c0.1,0.1,0.1,0.2,0.2,0.3
		c0.5,0.5,1,1,1.7,1.3v0.1h0.2c0,0.1,0.1,0.1,0.2,0.1c0.1,0.2,0.2,0.2,0.4,0.2c0,0.1,0.1,0.2,0.2,0.2c0,0,0.1,0,0.1,0.1
		c0.1,0,0.1,0.1,0.2,0.1H29c0,0,0,0,0.1,0l0,0c0.1,0,0.2,0,0.2,0.1h0.1h0.1v0.1h0.2v0.1c0.1,0,0.2,0,0.2,0.1H30l0,0
		c0,0,0,0.1,0.1,0.1c0,0,0,0,0.1,0s0.2,0,0.2,0.1c0.1,0,0.2,0,0.2,0.1h0.2v0.1l0,0h0.1c0.1,0.1,0.1,0,0.2,0.1s0.2,0.1,0.2,0.1h0.1
		c0.1,0.1,0.1,0,0.2,0.1s0.2,0,0.3,0.1s0.2,0,0.3,0.1s0.2,0,0.3,0.1s0.2,0,0.3,0.1s0.2,0,0.3,0.1l0,0l0,0c0.1,0.1,0.2,0,0.3,0.1
		l0.1,0.1c0.1,0,0.3,0,0.4,0c0.1,0.1,0.3,0,0.4,0c0,0,0,0,0-0.1c0.3,0.1,0.6,0.1,0.9,0h0.1c0.1,0,0.3,0,0.4,0l0,0l0,0l0.1-0.1
		c0.1,0.1,0.3,0,0.4,0l0,0l0,0c0.1-0.1,0.2,0,0.3-0.1h0.1v-0.1h0.2c0-0.1,0.1-0.1,0.2-0.1c0-0.1,0.1-0.1,0.2-0.1
		c0-0.1,0.1-0.1,0.2-0.1l0.1-0.1c0-0.1,0.1-0.1,0.2-0.1l0.1-0.1c0-0.1,0.1-0.1,0.1-0.2c0-0.1,0-0.1,0.1-0.1c0-0.1,0.1-0.1,0.1-0.2
		c0-0.1,0-0.1,0.1-0.1c0-0.1,0.1-0.2,0.1-0.2l0.1-0.1c0-0.1,0-0.2,0.1-0.2C39,33.5,39,33.4,39.1,33.3z"/>
	<path class="st0" d="M34.1,15.7c-0.1,0,0-0.2-0.1-0.2l0,0l-0.1-0.1h-0.1c0,0,0,0,0-0.1h-0.1c0-0.1,0-0.1-0.1-0.1c0-0.1,0-0.1,0-0.2
		l-0.1-0.1l-0.1-0.1l-0.1-0.1l-0.1-0.1L33,14.5l-0.1-0.1h-0.1l0,0v-0.1l-0.1-0.1l-0.1-0.1h-0.1V14l-0.1-0.1l-0.1-0.1l-0.1-0.1l0,0
		c0-0.1-0.1,0-0.2-0.1l0,0l-0.1-0.1l0,0l-0.1-0.1l-0.1-0.1l-0.1-0.1l-0.1-0.1L31.4,13l0,0c0-0.1-0.1-0.1-0.2-0.1l-0.1-0.1L31,12.7
		l-0.1-0.1l-0.1-0.1h-0.1l-0.1-0.1l-0.1-0.1l0,0c0-0.1-0.1,0-0.2-0.1c-0.3,0-0.3,0-0.3,0.3c0.1,0,0.1,0.1,0.1,0.2
		c0.1,0,0.1,0.1,0.1,0.2l0.1,0.1c0.1,0,0.1,0.1,0.1,0.2l0.1,0.1l0.1,0.1l0.1,0.1l0.1,0.1l0.1,0.1l0.1,0.1l0.1,0.1l0.1,0.1l0.1,0.1
		l0.1,0.1l0.1,0.1l0.1,0.1l0.1,0.1h0.1v0.1h0.1v0.1l0.1,0.1c0.1,0,0.1,0.1,0.1,0.2l0,0l0,0l0.1,0.1h0.1c0,0.1,0,0.1,0,0.2h0.2
		c0.1,0.1,0.2,0.2,0.2,0.4l0.2,0.1v0.1H33h0.1c0,0,0,0,0,0.1H34l0,0l0,0C34.2,16,34.1,15.8,34.1,15.7z"/>
	<path class="st0" d="M35.7,16.9L35.7,16.9L35.7,16.9z"/>
	<path class="st0" d="M35.2,22.3c-0.1,0.1,0,0.3,0,0.4c0.2,0.2,0.2,0.2,0.4,0.1c0-0.1,0-0.2,0.1-0.2c0-0.1,0-0.3,0.1-0.4
		c0-0.1,0-0.3,0.1-0.4c0-0.1,0-0.3,0.1-0.4c0-0.2,0-0.3,0.1-0.5c0-0.2,0-0.4,0.1-0.5c0-0.2,0-0.4,0.1-0.5c0-0.2,0-0.3,0-0.5
		c0,0,0.1,0,0.1-0.1v-0.1c0.1-0.2,0-0.4,0.1-0.5s0-0.2,0.1-0.3l0,0l0,0v-0.1c0.1-0.1,0.1-0.3,0-0.4l0.1-0.1v-0.1
		c0.1-0.1,0-0.2,0.1-0.3v-0.1c0.1-0.1,0-0.2,0.1-0.3c0,0,0,0,0-0.1c-0.1-0.1-0.3-0.1-0.4,0h-0.1c-0.1,0-0.1,0-0.2,0.1
		c-0.1-0.1-0.3,0-0.4-0.1h-0.1c-0.1,0-0.1,0-0.1,0.1c-0.1,0.1-0.1,0.2,0,0.3c0.1,0.1,0.1,0.3,0.1,0.4s0,0.2,0,0.3v0.1
		c0,0.1-0.1,0.2-0.1,0.2c0,0.1,0,0.1,0,0.2c0,0.2,0,0.5,0,0.7l-0.1,0.1v0.1c0,0.3,0,0.5-0.1,0.7v0.1c0,0.3,0,0.5-0.1,0.7V21
		c-0.1,0.1-0.1,0.2,0,0.3l0,0c0,0.1,0,0.2-0.1,0.3C35.3,21.8,35.3,22,35.2,22.3z"/>
	<path class="st0" d="M51.3,33C51.3,33,51.2,33,51.3,33c-0.1-0.1-0.2-0.2-0.2-0.2L51,32.7l-0.1-0.1l-0.1-0.1l-0.1-0.1l-0.1-0.1
		l-0.1-0.1c-0.1,0-0.1-0.1-0.1-0.1c-0.1,0-0.1-0.1-0.1-0.1c-0.1,0-0.1-0.1-0.1-0.1c-0.1,0-0.1-0.1-0.1-0.2L50,31.6l-0.1-0.1
		l-0.1-0.1c-0.1,0-0.1-0.1-0.1-0.2l0,0c0,0,0-0.1-0.1-0.1l0,0L49.5,31l0,0c-0.1,0,0-0.1-0.1-0.2l0,0l0,0l-0.1-0.1
		c-0.1,0,0-0.1-0.1-0.2l0,0c0-0.1,0-0.2-0.1-0.2l0,0l0,0c0,0,0-0.1-0.1-0.1c-0.1-0.1,0-0.1-0.1-0.2s0-0.2-0.1-0.2
		c-0.1-0.1,0-0.2-0.1-0.2c-0.1-0.1,0-0.2-0.1-0.2c-0.1-0.1,0-0.2-0.1-0.3l0,0l0,0c0-0.1,0-0.2-0.1-0.2c-0.1-0.1,0-0.3-0.1-0.4l0,0
		l0,0c-0.1-0.1,0-0.2-0.1-0.3v-0.1c-0.1-0.2,0-0.4-0.1-0.5v-0.1c-0.1,0-0.1-0.1-0.2-0.1l0,0c-0.1,0.1,0,0.2-0.1,0.3
		c-0.1,0.1,0,0.2-0.1,0.3c-0.1,0.1,0,0.3-0.1,0.4c0,0,0,0,0,0.1l0,0c-0.1,0.2-0.1,0.4,0,0.6c0,0,0,0,0,0.1l0,0
		c0.1,0.1,0,0.3,0.1,0.4c0,0,0,0,0,0.1l0,0c0.1,0.1,0,0.2,0.1,0.3l0,0c0,0.1,0.1,0.1,0.1,0.2v0.1c0.1,0.1,0.1,0.2,0.1,0.3
		c0.1,0.1,0.1,0.1,0.1,0.2c0.1,0.1,0.1,0.2,0.2,0.3v0.1c0,0.1,0,0.1,0.1,0.1c0.1,0.3,0.2,0.5,0.4,0.7c0,0.1,0,0.1,0.1,0.1l0,0
		c0,0.1,0.1,0.2,0.2,0.3c0,0.1,0.1,0.2,0.1,0.3l0.1,0.1l0.1,0.1l0.1,0.1l0.1,0.1l0.1,0.1h0.1l0.1,0.1c0.1,0,0.2,0,0.2,0.1
		c0.2,0,0.4,0,0.6,0.1h0.2c0.1,0.1,0.3,0.1,0.4,0l0,0l0,0c0.1-0.1,0.1-0.1,0.1-0.3L51.3,33C51.4,33.1,51.3,33.1,51.3,33z"/>
	<path class="st0" d="M28.2,6.5c0.3,0.3,0.6,0.6,0.9,0.9c0.1,0.1,0.1,0.1,0.2,0.2c0.1,0,0.1,0,0.1,0.1h0.1v0.1l0.1,0.1L29.8,8
		l0.1,0.1l0.2,0.1l0.1,0.2l0.1,0.1c0.1,0,0.1,0,0.1,0.1h0.1v0.1h0.1v0.1c0.1,0,0.2,0.1,0.3,0.2c0,0,0.1,0,0.1,0.1l0.1,0.1l0.1,0.1
		c0.1,0,0.2,0.1,0.3,0.2c0.1,0,0.1,0,0.1,0.1c0.1,0,0.1,0,0.1,0.1c0.1,0,0.2,0.1,0.3,0.2c0.2,0,0.5,0,0.7,0c0-0.1,0-0.2,0-0.3
		c-0.1,0-0.2-0.1-0.3-0.2l-0.1-0.1c-0.1,0-0.1,0-0.1-0.1l-0.1-0.1C32.1,9.1,32,9,32,9c-0.1,0-0.2-0.1-0.3-0.2c-0.1,0-0.1,0-0.1-0.1
		c-0.1,0-0.1,0-0.1-0.1h-0.1V8.5h-0.1l0,0c0,0,0-0.1-0.1-0.1c0,0,0,0-0.1,0V8.3H31V8.2h-0.1V8.1h-0.1l0,0V8c-0.1,0-0.1-0.1-0.2-0.1
		h-0.1V7.8c-0.1,0-0.1,0-0.1-0.1c-0.1,0-0.2-0.1-0.3-0.2c-0.1,0-0.1,0-0.1-0.1l-0.1-0.1c-0.1,0-0.1-0.1-0.2-0.1s-0.1,0-0.1-0.1
		L29.4,7c-0.1,0-0.1-0.1-0.2-0.1l-0.1-0.1L29,6.7c-0.1,0-0.1-0.1-0.2-0.1s-0.1,0-0.1-0.1c-0.1,0-0.1-0.1-0.2-0.1l-0.1-0.1
		c-0.1,0-0.1,0-0.2-0.1c-0.1,0-0.2,0-0.2,0.2l0.1,0.1C28.2,6.4,28.2,6.5,28.2,6.5z"/>
	<path class="st0" d="M27,39.6L27,39.6l0.2,0.2h0.2c0-0.1,0.1-0.2,0.1-0.3l0.1-0.1c0-0.1,0-0.1,0-0.2h0.1c0-0.1,0-0.1,0.1-0.1
		c0-0.1,0.1-0.2,0.2-0.3c0-0.1,0-0.1,0.1-0.1v-0.1h0.1c0-0.1,0-0.1,0-0.2l0,0l0,0l0.1-0.1c0-0.1,0-0.1,0.1-0.1v-0.1h0.1
		c0-0.1,0.1-0.1,0.1-0.2c0-0.1,0-0.1,0.1-0.1l0.1-0.1l0.1-0.1c0-0.1,0.1-0.2,0.2-0.3l0.1-0.1l0.1-0.1l0.1-0.1c0-0.1,0.1-0.1,0.1-0.2
		l0.1-0.1v-0.1h0.1l0.1-0.1v-0.1h0.1l0.1-0.1c0-0.1,0.1-0.1,0.1-0.2l0,0l0.1-0.1l0.1-0.1l0.1-0.1l0.1-0.1l0.1-0.1l0.1-0.1l0.1-0.1
		c0-0.1,0-0.2-0.1-0.3h-0.1h-0.5L30,35.2l-0.1,0.1l0.1,0c-0.2,0.3-0.5,0.6-0.7,0.8l0,0l-0.1,0.1l0,0l-0.1,0.1l0,0L29,36.4l0,0v0.1
		l0,0l0,0l-0.1,0.1l0,0l-0.1,0.1l0,0l-0.1,0.1l0,0l-0.1,0.1l0,0L28.5,37l0,0l-0.1,0.1l-0.1,0.1l-0.1,0.1l-0.1,0.1L28,37.5l-0.1,0.1
		c-0.1,0.1-0.1,0.2-0.2,0.3L27.4,38l-0.1,0.1h-0.1l-0.1,0.1v0.1H27l0,0.1l-0.1,0.1l-0.1,0.1c0,0.1-0.1,0.1-0.1,0.1
		c0,0.1-0.1,0.1-0.2,0.1c0,0.1,0,0.2,0,0.3l0.3,0.3c0.1,0,0.2,0,0.2,0.1C27,39.5,27,39.5,27,39.6z"/>
	<path class="st0" d="M28.8,34.8L28.8,34.8c0.2-0.2,0.1-0.4,0-0.5h-0.3c0,0.1-0.1,0.1-0.2,0.1l-0.1,0.1l-0.1,0.1
		c-0.1,0.1-0.2,0.2-0.3,0.2L27.7,35l-0.1,0.1l0,0c0,0.1-0.1,0.1-0.2,0.1l-0.1,0.1l-0.1,0.1c0,0.1-0.1,0.1-0.2,0.1l-0.1,0.1
		c0,0.1-0.1,0.1-0.1,0.1c0,0.1-0.1,0.1-0.2,0.1l-0.1,0.1L26.4,36c0,0.1-0.1,0.1-0.2,0.1l-0.1,0.1L26,36.3c0,0.1-0.1,0.1-0.2,0.1
		l-0.1,0.1l-0.1,0.1v0.1h-0.2l-0.1,0.1l-0.1,0.1C25.1,37,25,37,25,37l-0.1,0.1c0,0.1-0.1,0.1-0.2,0.1l-0.1,0.1
		c0,0.1-0.1,0.1-0.2,0.1c-0.1,0.1-0.2,0.1-0.3,0.1l0,0c-0.1,0-0.1,0-0.2,0.1s-0.1,0.2,0,0.2l0,0l0.1,0.1l0,0l0.1,0.1
		c0.1,0,0,0.1,0.1,0.2c0,0,0,0,0,0.1c0.1,0.1,0,0.2,0.1,0.3l0.1,0.1l0,0h0.1l0.1-0.1l0.1-0.1l0.1-0.1v-0.1c0.1,0,0.2,0,0.2-0.1
		l0.3-0.1c0-0.1,0.1-0.2,0.2-0.2c0.1-0.1,0.2-0.2,0.2-0.3c0.1,0,0.2-0.2,0.3-0.3c0.1-0.1,0.2-0.2,0.4-0.3l0.1-0.1l0.1-0.1v-0.1h0.1
		c0.1-0.1,0.2-0.3,0.4-0.3l0.1-0.1l0.1-0.1l0.1-0.1l0.1-0.1l0.1-0.1l0,0c0.1-0.1,0.1-0.2,0.3-0.2l0.1-0.1l0.1-0.1l0.1-0.1l0.1-0.1
		l0.1-0.1l0.1-0.1l0.1-0.1l0.1-0.1l0,0L28.8,34.8L28.8,34.8z"/>
	<path class="st0" d="M33.5,9.9l0.1,0.1l0.1,0.1l0.1,0.1l0.1,0.2l0.1,0.1h0.1v0.1l0.1,0.1l0.1,0.1c0.1,0,0.1,0.1,0.1,0.2l0.1,0.1
		l0.1,0.1l0.1,0.1l0.1,0.1c0.1,0,0.1,0.1,0.1,0.2l0.1,0.1l0.1,0.1l0.1,0.1l0.1,0.1l0.1,0.1l0.1,0.1c0.1,0,0.1,0.1,0.1,0.2l0.1,0.1
		l0.1,0.1l0.1,0.1c0.1,0,0.2,0,0.3,0s0.2-0.1,0.2-0.2l-0.1-0.1c-0.1-0.1-0.2-0.2-0.2-0.3L36,12l-0.1-0.1l-0.1-0.1
		c-0.1,0-0.1-0.1-0.1-0.2c-0.1,0-0.2-0.1-0.2-0.2l-0.1-0.1l-0.1-0.1l-0.1-0.1L35.1,11L35,10.9l-0.1-0.1l-0.1-0.1l-0.1-0.1l-0.1-0.1
		l-0.1-0.1l-0.1-0.1h-0.1v-0.1l-0.1-0.1L34.1,10C34,10,34,10,34,9.9l-0.1-0.1l-0.1-0.1c-0.1,0-0.2-0.1-0.3-0.2l-0.1-0.1
		c-0.1,0-0.1,0.1-0.1,0.2l0.1,0.1C33.4,9.7,33.5,9.8,33.5,9.9z"/>
	<path class="st0" d="M10.4,2h0.4v0.1h0.3l0.1,0.1c0.1,0,0.3,0,0.4,0.1c0.1,0,0.3,0,0.4,0.1h0.2v0.1h0.2c0.1,0.1,0.2,0,0.3,0.1l0,0
		l0,0c0.1,0.1,0.2,0,0.3,0.1h0.1c0.1,0.1,0.2,0,0.2,0.1l0,0l0,0c0.1,0.1,0.2,0,0.3,0.1l0,0l0,0c0.1,0.1,0.2,0,0.3,0.1s0.2,0,0.2,0.1
		h0.2h0.1l0,0c0.1,0,0.1,0,0.2,0.1c0.3,0,0.6,0.1,0.9,0.3c0.2,0,0.3,0.1,0.4,0.2c0.1,0,0.2,0,0.2,0.1c0.3,0.1,0.6,0.3,0.8,0.5
		c0,0,0.1,0,0.2,0.1s0.1,0.2,0.3,0.2c0.1,0.1,0.2,0.2,0.4,0.3V5l0.1,0.1C18,5.1,18,5.2,18,5.3l0.1,0.1l0.1,0.1h0.1
		c0,0.1,0,0.1,0,0.2h0.1c0,0.1,0,0.1,0,0.2c0,0,0,0,0.1,0c0,0.1,0,0.1,0,0.2c0.1,0.1,0,0.1,0.1,0.2v0.1c0.1,0.1,0,0.2,0.1,0.2
		c0.1,0.3,0.1,0.6,0,0.8c-0.1,0.1-0.1,0.1,0,0.2l0,0c0,0,0,0-0.1,0v0.1l0,0c0,0,0,0,0,0.1h-0.1C19,8,19,8,18.9,8.1l-0.1,0.1
		c0,0.1,0,0.2-0.1,0.2v0.1h-0.1l-0.1,0.1l-0.1,0.1c0,0.1-0.1,0.1-0.1,0.2L18.2,9l-0.1,0.1c0,0.1,0,0.2-0.1,0.2l-0.1,0.1
		c0,0.1,0,0.2-0.1,0.2c0,0.2,0,0.4,0,0.6l0.1,0.1l0.1,0.1c0.1,0,0.2,0,0.2,0.1c0.1,0,0.2,0,0.3,0.1h0.2c0.1,0,0.2,0,0.2,0.1h0.5v0.1
		c0.7,0,1.4,0,2.1,0c0.1,0,0.2,0,0.3,0h0.6c0.1-0.1,0.2-0.1,0.4-0.1c0,0,0,0,0.1,0s0.3,0,0.4,0l0,0l0,0c0.1-0.1,0.2,0,0.3-0.1l0,0
		c0.1,0,0.2,0,0.2-0.1c0.1-0.1,0.2,0,0.2-0.1c0.1-0.1,0.2,0,0.2-0.1l0,0l0.1-0.1l0,0l0.1-0.1c0.1-0.1,0.2-0.1,0.3-0.2l0,0
		c0.1,0,0.1-0.1,0.1-0.1l0,0C25,9.8,25,9.7,25,9.7l0,0c0.1-0.1,0.1-0.2,0.2-0.3l0.1-0.1l0,0l0.1-0.1l0,0c0.1-0.1,0.2-0.2,0.2-0.3
		l0,0c0.1,0,0-0.1,0.1-0.2l0.1-0.1l0,0l0,0c0.1,0,0.1-0.1,0.1-0.2C26,8.3,26,8.2,26.1,8.2l0,0c0-0.1,0-0.2,0.1-0.2l0,0l0,0
		c0.1-0.1,0-0.2,0.1-0.3l0,0c0.1-0.1,0-0.3,0.1-0.4V7.2c0.1-0.1,0.1-0.3,0-0.4V6.7c-0.1-0.1,0-0.3-0.1-0.4c0,0,0,0,0-0.1l0,0
		c0-0.1,0-0.2-0.1-0.2l0,0h-0.1c0-0.1,0-0.1,0-0.2C26,5.7,26,5.6,26,5.5c-0.1,0-0.1-0.1-0.1-0.2l-0.1-0.1c-0.1,0-0.1-0.1-0.1-0.2
		l-0.1-0.1h-0.1V4.8c-0.1-0.1-0.2-0.2-0.2-0.3l-0.1-0.1l-0.1-0.1L25,4.2l-0.1-0.1L24.7,4c-0.2-0.1-0.3-0.2-0.4-0.3
		c-0.1,0-0.1,0-0.1-0.1c-0.1,0-0.1,0-0.1-0.1c-0.1,0-0.1,0-0.1-0.1c-0.1,0-0.1-0.1-0.2-0.1c-0.1-0.1-0.1-0.1-0.2-0.2h-0.1V3
		c-0.1,0-0.1,0-0.1-0.1l-0.1-0.1h-0.2V2.7c-0.1,0-0.1,0-0.1-0.1c-0.1,0-0.1-0.1-0.2-0.1s-0.2-0.1-0.3-0.2h-0.2V2.2h-0.1V2.1
		c-0.1,0-0.2,0-0.2-0.1c-0.1,0-0.2,0-0.2-0.1h-0.2V1.8c-0.1,0-0.2,0-0.2-0.1c-0.1,0-0.2,0-0.2-0.1L21,1.5c-0.1,0-0.2,0-0.2-0.1
		c-0.1-0.1-0.3-0.1-0.4-0.2h-0.2V1.1h-0.1c0,0-0.1,0-0.2,0c0,0,0,0,0-0.1c0,0-0.1-0.1-0.2-0.1l0,0l0,0h-0.2l0,0c0,0,0,0,0-0.1
		c0,0,0-0.1-0.1-0.1s-0.2-0.1-0.2-0.1h-0.1c-0.1,0-0.1,0-0.2-0.1h-0.1c-0.1,0-0.1,0-0.2-0.1h-0.1c-0.1,0-0.2,0-0.3-0.1h-0.1
		c-0.1,0-0.2,0-0.3-0.1h-0.1c-0.1,0-0.3,0.1-0.4,0h-0.1c-0.1-0.1-0.2,0-0.4-0.1v0.1l0,0c-0.1,0-0.2,0-0.3-0.1h-0.1H15c0,0,0,0-0.1,0
		c-0.2,0.1-0.4,0-0.6,0.1h-0.1v0.1h-0.5l0,0c-0.1,0.1-0.2,0-0.3,0.1h-0.1c-0.1,0.1-0.2,0-0.3,0.1s-0.2,0.1-0.3,0.1
		c-0.1,0.1-0.2,0.1-0.3,0.1c-0.1,0.1-0.1,0.1-0.2,0.1c0,0.1-0.1,0.1-0.2,0.1C12,1,11.9,1,11.8,1c0,0,0,0,0,0.1h-0.1h-0.1v0.1h-0.1
		h-0.1v0.1h-0.2l-0.1,0.2h-0.2c-0.1,0.1-0.2,0.2-0.3,0.2c0,0.1-0.1,0.1-0.1,0.1S10.5,1.9,10.4,2C10.2,2,10.4,1.9,10.4,2z"/>
	<path class="st0" d="M26.3,9.4c-0.1,0.1-0.1,0.1-0.2,0.2c0,0.1,0,0.1-0.1,0.1c0,0.1-0.1,0.1-0.1,0.1c-0.1,0.1-0.2,0.2-0.3,0.2
		l-0.1,0.1c-0.1,0.1-0.2,0.2-0.3,0.2c-0.1,0.1-0.2,0.2-0.3,0.2c0,0.1,0,0.2,0,0.3l0.1,0.1c0.1,0,0.1,0,0.1,0.1c0.1,0,0.1,0,0.1,0.1
		c0.1,0,0.2,0.1,0.3,0.2c0.1,0,0.1,0,0.1,0.1h0.2l0.1,0.2c0.1,0,0.1,0,0.1,0.1c0.4,0.3,0.7,0.6,1,1c0,0,0,0,0,0.1
		c0.1,0,0.1,0.1,0.1,0.1c0.1,0,0.1,0.1,0.1,0.2l0.2,0.1c0,0.1,0,0.1,0,0.2c0.1,0,0.1,0.1,0.1,0.2h0.1c0,0.1,0,0.1,0,0.2l0.1,0.1V14
		v0.1c0,0.1,0.1,0.1,0.1,0.1l0.1,0.1l0,0c0.1,0.1,0.1,0.1,0.2,0.1l0,0c0.1,0.1,0.3,0,0.4,0.1l0,0l0,0c0.3,0.1,0.6,0.1,0.9,0h0.2
		c0.1-0.1,0.2,0,0.3-0.1c0.1-0.1,0.1-0.2,0-0.3C30,14,30,13.9,30,13.9c-0.1-0.1,0-0.2-0.1-0.2c-0.1-0.1,0-0.2-0.1-0.3s0-0.1-0.1-0.2
		v-0.1c0-0.1,0-0.2-0.1-0.2c0,0,0,0,0-0.1c0,0,0-0.1-0.1-0.1l0,0c0-0.1,0-0.1,0-0.2c-0.1-0.1-0.1-0.2-0.1-0.3h-0.1l0,0
		c0,0,0,0,0.1,0c0-0.1,0-0.2,0-0.3c-0.1-0.1,0-0.2-0.1-0.3s0-0.2-0.1-0.3v-0.1c0,0,0,0-0.1,0c0-0.1,0-0.1,0-0.2c0,0,0,0,0-0.1
		s-0.1-0.1-0.1,0c0-0.1,0-0.1,0-0.2c-0.1-0.1-0.1-0.2-0.1-0.3c-0.1-0.1-0.1-0.2-0.1-0.3c-0.1-0.1-0.1-0.2-0.1-0.3
		c-0.1-0.1-0.1-0.2-0.1-0.3c-0.1-0.1-0.1-0.2-0.1-0.3c-0.1-0.1-0.1-0.2-0.1-0.3h-0.1c0-0.1,0-0.2,0-0.3C28.1,8.5,28,8.5,28,8.4
		c-0.1,0-0.1-0.1-0.1-0.2l-0.1-0.1L27.7,8l-0.2-0.1h-0.1c-0.1,0-0.2,0-0.2,0.1c0,0-0.1,0.1-0.1,0.2l0,0c0,0,0,0-0.1,0
		c0,0.1,0,0.2-0.1,0.3c0,0.1,0,0.2-0.1,0.2c0,0.1-0.1,0.3-0.2,0.3C26.6,9.1,26.5,9.2,26.3,9.4C26.4,9.3,26.4,9.4,26.3,9.4z"/>
	<path class="st0" d="M24.7,31.1C24.6,31.1,24.6,31,24.7,31.1l-0.1-0.2l-0.1-0.1c-0.1,0-0.1-0.1-0.1-0.2h-0.1v-0.1v-0.1l0,0l0,0l0,0
		c0,0,0,0,0-0.1c0,0,0,0,0-0.1v-0.1l0,0c0,0,0-0.1-0.1-0.1c-0.1-0.1-0.2-0.2-0.3,0l0,0l-0.1,0.1l0,0c0,0.1-0.1,0-0.2,0.1h-0.1
		c-0.1,0.1-0.2,0-0.3,0.1c-0.1,0.1-0.3,0-0.4,0.1h-0.1c0,0-0.1,0-0.1,0.1c-0.2-0.1-0.3-0.1-0.5,0H22c-0.2,0.1-0.5,0-0.7,0.1h-0.1
		c-0.2,0.1-0.5,0-0.7,0.1h-0.1c-0.1,0.1-0.2,0-0.3,0.1L20,30.9l0,0c-0.1,0-0.1,0.1,0,0.2l0,0l0,0c0.1,0.1,0,0.2,0.1,0.2
		c0.1,0.1,0,0.2,0.1,0.2c0.1,0.1,0,0.2,0.1,0.3h0.1c0,0.2,0,0.4,0,0.6c0,0.4,0,0.7,0,1.1c0,0.2,0,0.4,0.1,0.6l0.1,0.1H21
		c0.1-0.1,0.2-0.1,0.3-0.1c0.1-0.1,0.1-0.1,0.2-0.1c0.2-0.2,0.5-0.3,0.8-0.4c0-0.1,0.1-0.1,0.2-0.1c0.1-0.1,0.2-0.2,0.3-0.2
		c0-0.1,0.1-0.1,0.2-0.1c0.1-0.1,0.2-0.2,0.3-0.2v-0.1h0.2l0.1-0.1l0.1-0.2h0.2v-0.1H24c0.1-0.1,0.2-0.2,0.3-0.2
		c0.1-0.1,0.2-0.3,0.3-0.4l0,0c0,0,0,0,0,0.1c0.3-0.1,0.3-0.3,0.2-0.5c-0.1,0,0-0.2-0.1-0.2l0,0C24.7,31.2,24.7,31.1,24.7,31.1z"/>
	<path class="st0" d="M27.3,33.2h-0.4c0,0.1-0.1,0.1-0.2,0.1v0.1h-0.2v0.1L26,33.7c-0.1,0.1-0.1,0.1-0.2,0.1c0,0.1-0.1,0.1-0.2,0.1
		L25.5,34l-0.4,0.1v0.1h-0.2c-0.1,0.1-0.1,0.1-0.2,0.1v0.1h-0.2c-0.1,0.1-0.3,0.2-0.5,0.2c-0.1,0.1-0.1,0.1-0.2,0.1
		c-0.1,0.1-0.1,0.1-0.2,0.1c-0.1,0.1-0.1,0.1-0.2,0.1c0,0.1-0.1,0.1-0.2,0.1c0,0,0,0,0,0.1H23c-0.1,0.1-0.2,0.1-0.3,0.1v0.1h-0.2
		v0.1h-0.2v0.1c0,0,0,0-0.1,0H22v0.3l0.2,0.1l0,0c0,0.2,0.2,0.2,0.3,0.3l0.1,0.1c0.1,0,0.2,0,0.2,0.1H23c0-0.1,0.1-0.1,0.2-0.1
		l0.1-0.1c0-0.1,0.1-0.1,0.2-0.1V36h0.2c0.1-0.1,0.2-0.2,0.3-0.2c0-0.1,0.1-0.1,0.2-0.1c0-0.1,0.1-0.1,0.2-0.1l0.1-0.1
		c0-0.1,0.1-0.1,0.2-0.1v-0.1h0.2c0-0.1,0.1-0.1,0.2-0.1v-0.1h0.1c0-0.1,0.1-0.1,0.2-0.1v-0.1h0.2l0.1-0.1h0.1l0.1-0.1
		c0-0.1,0.1-0.1,0.2-0.1c0-0.1,0.1-0.1,0.2-0.1v-0.1h0.1c0.1-0.1,0.3-0.2,0.4-0.2c0,0,0,0,0-0.1H27l0.1-0.1v-0.1h0.2
		c0-0.1,0.1-0.1,0.2-0.1c0-0.1,0-0.2,0-0.3l0,0l-0.1-0.1C27.4,33.3,27.3,33.3,27.3,33.2z"/>
	<path class="st0" d="M6.7,25.8l0.1-0.1l0.1-0.1l0.1,0v-0.1h0.2v-0.1h0.1v-0.1h0.1l0.1-0.1l0.1-0.1L7.7,25l0.1-0.1L8,24.7l0.1-0.1
		l0.1-0.1c0-0.1,0.1-0.1,0.1-0.2v-0.1h0.1V24h0.1c0-0.2,0-0.3,0-0.5l-0.2-0.1c0-0.1,0-0.1,0-0.2l-0.1-0.1c-0.1,0-0.2-0.1-0.3-0.2
		l-0.1-0.1c-0.1,0-0.1-0.1-0.2-0.1l-0.1-0.1c-0.1,0-0.2,0-0.2-0.1l-0.1-0.1c-0.1,0-0.2,0-0.2-0.1c-0.1,0-0.2,0-0.2-0.1
		c-0.1,0-0.2,0-0.2-0.1c-0.1,0-0.2,0-0.2-0.1c-0.1,0-0.2,0-0.2-0.1c-0.1,0-0.2,0-0.2-0.1c0,0,0,0-0.1,0l0,0H5.8l0,0c0,0,0,0-0.1,0
		H5.6c-0.1-0.1-0.2,0-0.2-0.1H5.2l-0.1-0.1c-0.1,0-0.3,0-0.4-0.1s-0.3,0-0.4-0.1c0,0,0,0-0.1,0c-0.2-0.1-0.4-0.1-0.5,0l-0.1,0.2
		c0.1,0.1,0,0.2,0.1,0.3c0.1,0.1,0,0.1,0.1,0.2s0.2,0.2,0.3,0.3l0,0h0.1c0,0,0,0,0,0.1c0.1,0,0.2,0,0.2,0.1l0.1,0.1l0.1,0.1l0.1,0.1
		L4.8,23l0.1,0L5,23.1l0.1,0.1h0.1v0.1l0.1,0.1l0.1,0.1c0.1,0,0.1,0.1,0.1,0.2l0.1,0.1l0.1,0.1c0.1,0,0.1,0.1,0.1,0.2h0.1l0,0v0.1
		C6,24.3,6,24.4,6,24.4l0,0l0.1,0.1c0.1,0,0,0.1,0.1,0.2c0,0,0,0,0,0.1c0,0,0,0.1,0.1,0.1l0,0v0.2c0.1,0.1,0.1,0.2,0.1,0.3l0.1,0.1
		c0,0.1,0,0.2,0,0.2C6.5,25.8,6.6,25.9,6.7,25.8z"/>
	<path class="st0" d="M38.5,14.9l0.1,0.1l0.1,0.1c0.1,0.1,0.2,0.2,0.2,0.3H39v0.1c0.1,0.1,0.1,0.1,0.2,0.2l0.1,0.1
		c0.1,0.1,0.2,0.2,0.2,0.3l0.1,0.1l0.1,0.1l0.1,0.1l0.1,0.1c0.1,0.1,0.1,0.1,0.2,0.2c0.1,0.1,0.1,0.1,0.2,0.2l0.1,0.1h0.1
		c0.2,0,0.2,0,0.2-0.3l-0.1-0.1c-0.1,0-0.1-0.1-0.1-0.2l-0.1-0.1c-0.1,0-0.1-0.1-0.1-0.1c-0.1,0-0.1-0.1-0.1-0.1
		C40.1,16,40,15.9,40,15.8l0,0c-0.1,0-0.1-0.1-0.1-0.1l-0.1-0.1c-0.1-0.1-0.1-0.1-0.2-0.2l-0.1-0.1h-0.1v-0.1h-0.1v-0.1h-0.1V15
		h-0.1v-0.1H39v-0.1h-0.1v-0.1l-0.1-0.1l-0.2-0.1l-0.1-0.1c-0.1,0-0.2-0.1-0.3,0.1c0.1,0,0.1,0.1,0.1,0.2
		C38.4,14.7,38.5,14.8,38.5,14.9z"/>
	<path class="st0" d="M38.5,25.1c0-0.1,0-0.1,0-0.2h0.1v-0.1h0.1l0.1-0.1v-0.1h0.1l0,0l0,0v-0.1c0.2,0,0.3-0.1,0.4-0.3
		c0.2,0,0.3-0.1,0.5-0.2s0.4-0.3,0.5-0.6l0.1-0.1l0.1-0.1c0-0.1,0.1-0.1,0.1-0.1c0-0.1,0.1-0.1,0.2-0.1l0.1-0.1
		c0-0.1,0.1-0.1,0.1-0.1c0-0.1,0.1-0.1,0.2-0.1c0-0.1,0.1-0.1,0.1-0.1c0-0.1,0.1-0.1,0.2-0.1l0.1-0.1c0-0.1,0-0.2,0-0.3
		c-0.1,0-0.1,0-0.1-0.1c-0.1,0-0.1,0-0.1-0.1c-0.1,0-0.2,0-0.2-0.1c-0.1,0-0.2,0-0.2-0.1h-0.3l-0.1,0.1c0,0.1-0.1,0.1-0.1,0.1
		l-0.2,0.3L40,22.4v0.1h-0.1v0.1h-0.1c-0.1,0.1-0.1,0.1-0.2,0.2v0.1l0,0h-0.1V23h-0.1c0,0.1,0,0.1-0.1,0.2l-0.2,0.1
		c0,0.1,0,0.1-0.1,0.1c0,0.1,0,0.1-0.1,0.1c0,0.1,0,0.1-0.1,0.1c0,0.1,0,0.1-0.1,0.1v0.1l-0.3,0.3v0.1h-0.1c0,0.1-0.1,0.2-0.2,0.3
		v0.1H38v0.3l0.1,0.1L38.5,25.1z"/>
</g>
</svg>
