<?xml version="1.0" encoding="utf-8"?>
<!-- Generator: Adobe Illustrator 22.1.0, SVG Export Plug-In . SVG Version: 6.00 Build 0)  -->
<svg version="1.1" id="Layer_1" xmlns="http://www.w3.org/2000/svg" xmlns:xlink="http://www.w3.org/1999/xlink" x="0px" y="0px"
	 viewBox="0 0 50.5 44.8" style="enable-background:new 0 0 50.5 44.8;" xml:space="preserve">
<style type="text/css">
	.st0{fill:#FFFFFF;}
</style>
<g>
	<path id="Path_139" class="st0" d="M1.1,16.7L1.1,16.7c0.1,0.1,0.2,0.2,0.3,0.2c0.1,0.1,0.2,0,0.3,0.1l0,0c0.1,0.1,0.2,0,0.3,0.1
		c0.7,0.1,0.7,0.1,0.7-0.5c0-0.1,0-0.2,0.1-0.3c0.1-0.1,0.1-0.1,0.1-0.2c0,0,0,0,0,0l0,0c0-0.1,0-0.2,0.1-0.2c0-0.1,0.1-0.2,0.1-0.2
		c0-0.1,0-0.1,0.1-0.1c0-0.1,0.1-0.2,0.1-0.2c0.1-0.1,0.1-0.2,0.2-0.2c0-0.1,0.1-0.1,0.1-0.1C3.7,15,3.7,15,3.8,15
		c0-0.1,0-0.1,0-0.2c-0.3,0-0.4-0.2-0.6-0.2c0-0.1-0.1-0.2-0.1-0.2c-0.3-0.4-0.5-0.8-0.7-1.3C2.1,12.5,2,11.8,2,11.2
		C1.9,11.1,2,11,2,10.9c0.1-0.1,0-0.3-0.1-0.4c-0.1-0.2-0.3-0.1-0.4-0.1c0,0.1-0.1,0.1-0.1,0.1c-0.1,0.1-0.1,0.1-0.2,0.2
		c0,0.1,0,0.1-0.1,0.1c0,0.1-0.1,0.2-0.2,0.3c0,0.1,0,0.2-0.1,0.2c0,0.1,0,0.2-0.1,0.2c0,0.1,0,0.2,0,0.3c0,0-0.1,0-0.1,0
		c0,0.1,0,0.2-0.1,0.3c0,0.1,0,0.2-0.1,0.2c0,0,0,0.1,0,0.1c0,0.1,0,0.2-0.1,0.3l0,0.6c-0.1,0-0.1,0-0.1,0.1c0,0,0,0,0,0.1
		c0,0,0,0,0,0c0,0-0.1,0.1-0.1,0.2c0,0.3,0,0.6,0.1,0.9c0,0,0,0.1,0,0.1c0,0,0,0,0,0c0.1,0.2,0,0.4,0.1,0.6c0,0,0,0,0,0.1
		c0,0,0,0,0,0c0,0.1,0,0.2,0.1,0.3v0c0.1,0.1,0,0.2,0.1,0.2v0c0,0.1,0.1,0.1,0.1,0.2c0.1,0,0.1,0.1,0.1,0.2l0,0
		c0,0.1,0.1,0.1,0.1,0.1l0,0C0.8,16.6,0.9,16.7,1.1,16.7z"/>
	<path id="Path_151" class="st0" d="M11.3,6.8c0.1,0.1,0,0.3,0.1,0.5v0l0,0l0,0l0.1,0l0,0c0,0-0.1,0-0.1,0.1c0,0.1,0,0.3,0,0.4
		c0,0,0,0.1,0,0.1c0.1,0.2,0,0.4,0.1,0.6c0.1,0.1,0,0.2,0.1,0.2l0,0c0,0-0.1,0.1-0.1,0.1c0,0.2,0,0.3,0.1,0.5c0,0,0,0.1,0,0.1
		c0.1,0.3,0.1,0.6,0,0.9c0,0,0,0.1,0,0.1c-0.1,0.2,0,0.4-0.1,0.6h0c-0.1,0.1,0,0.3-0.1,0.4l0,0c-0.1,0.1,0,0.2-0.1,0.2l0,0
		c-0.1,0.1-0.1,0.2-0.1,0.2c-0.1,0.1-0.1,0.2-0.1,0.2l0,0c-0.1,0.1-0.1,0.2-0.1,0.2v0C11,12.2,11,12.3,11,12.3s0,0.2-0.1,0.2l0,0
		c-0.1,0.1-0.1,0.2-0.1,0.2S10.7,13,10.7,13c0,0,0,0.1,0,0.1c-0.1,0.1-0.1,0.2,0,0.3h0c0,0.2,0,0.4,0,0.5c0.1,0,0.1,0.1,0.1,0.2
		c0.1,0.1,0.1,0.2,0.2,0.2c0.1,0,0.1,0,0.1,0.1c0.2,0,0.5,0.1,0.7,0c0.1-0.1,0.3-0.2,0.4-0.2c0.1-0.1,0.2-0.2,0.3-0.2l0.1-0.1
		c0,0,0-0.1,0-0.1c0,0,0.1,0,0.1,0c0-0.1,0-0.1,0-0.2c0,0,0.1,0,0.1,0l0,0c0,0,0.1-0.1,0.1-0.1l0,0c0,0,0.1-0.1,0.1-0.1
		c0.1,0,0.1-0.1,0.1-0.2l0,0l0,0c0.1-0.1,0.1-0.2,0.1-0.3c0,0,0-0.1,0-0.1c0.1-0.2,0-0.4,0.1-0.6c0,0,0-0.1,0-0.1
		c0.1-0.3,0-0.7,0.1-1c0-0.2,0-0.3,0-0.5c-0.1-0.4,0-0.8-0.1-1.1v0c-0.1-0.2,0-0.4-0.1-0.6l0,0c-0.1-0.1,0-0.2-0.1-0.3
		s0-0.2-0.1-0.3c-0.1-0.1,0-0.2-0.1-0.2l0,0C13,8.1,13,8,12.9,7.9c0,0-0.1,0-0.1,0v0c0-0.1-0.1-0.2-0.1-0.3c-0.1,0-0.1-0.1-0.1-0.2
		l-0.2-0.2c-0.1,0-0.1-0.1-0.1-0.1c0,0-0.1,0-0.1,0c0-0.1-0.1-0.2-0.1-0.2c0-0.1-0.2-0.1-0.2-0.1s-0.2,0-0.2-0.1h0
		c-0.1-0.1-0.2,0-0.2-0.1l0,0C11.2,6.5,11.2,6.6,11.3,6.8C11.3,6.7,11.3,6.8,11.3,6.8z"/>
	<path id="Path_152" class="st0" d="M32.1,34.7c0.2-0.1,0.4-0.2,0.5-0.4c0.1-0.1,0.2-0.1,0.3-0.2c0.7-0.4,1.3-0.8,2-1.2
		c0.2-0.1,0.3-0.2,0.4-0.3c0.3-0.1,0.6-0.3,0.9-0.5c0.6-0.3,1.2-0.7,1.9-1c0.2-0.1,0.2-0.2,0.2-0.4c0-0.4,0-0.7,0.1-1.1
		c0.1-0.5,0.1-0.5-0.2-0.9c0,0,0-0.1-0.1-0.1c0-0.1-0.1-0.1-0.1-0.1l0,0c-0.2-0.3-0.5-0.6-0.7-0.9c-0.1-0.2-0.2-0.3-0.4-0.4
		c-0.1-0.3-0.3-0.5-0.5-0.8l0,0c-0.1-0.2-0.4-0.3-0.6-0.4c-0.3-0.1-0.6-0.3-0.8-0.4c-0.2-0.1-0.4-0.2-0.7-0.1
		c-0.1,0.1-0.1,0.1-0.2,0.1c0,0.1-0.1,0.1-0.1,0.2c0,0,0.1,0,0.1,0c0,0-0.1,0-0.1,0.1c0,0.3,0,0.6,0.1,0.9v0c0.1,0.1,0,0.2,0.1,0.2
		l0,0c0.1,0.1,0,0.2,0.1,0.2c0,0.1,0,0.2,0.1,0.2l0,0c0.1,0.1,0,0.2,0.1,0.2c0,0,0,0.1,0,0.1c-0.1,0-0.1,0.1,0,0.2c0,0,0,0,0,0v0
		c0,0,0.1,0,0.1,0c0.2,0.6,0.4,1.2,0.5,1.9c-0.1,0.1,0,0.3-0.1,0.4c0,0,0,0.1,0,0.1c0,0-0.1,0.1-0.1,0.1l0,0
		c-0.1,0.1-0.1,0.2-0.2,0.3l0,0c0,0-0.1,0.1-0.1,0.1v0c0,0-0.1,0.1-0.1,0.1h0c0,0-0.1,0.1-0.1,0.1h0c-0.1,0.1-0.3,0.2-0.4,0.4l0,0
		c0,0-0.1,0.1-0.1,0.1h0c0,0,0,0,0,0s0,0,0,0c0,0-0.1,0-0.1,0.1l0,0c-0.1,0-0.1,0.1-0.1,0.1l0,0c0,0-0.1,0.1-0.1,0.1l0,0
		c-0.1,0.1-0.2,0.1-0.3,0.2l0,0c0,0-0.1,0.1-0.1,0.1l0,0c-0.1,0.1-0.2,0-0.2,0.1c-0.1,0-0.1,0.1-0.1,0.1c0,0-0.1,0.1-0.1,0.1h0
		c0,0.1-0.2,0.1-0.2,0.1c-0.1,0.1-0.2,0-0.2,0.1c-0.1,0.1-0.2,0.1-0.3,0.2c0,0,0,0-0.1,0c-0.1,0-0.2,0-0.3,0.1l0,0
		c-0.1,0-0.2,0-0.2,0.1l0,0c-0.1,0.1-0.2,0-0.2,0.1s-0.2,0-0.2,0.1c-0.1,0-0.1,0.1-0.1,0.1l-0.1,0c-0.1,0.1-0.1,0.1-0.2,0.1
		c-0.1,0.1-0.3,0.2-0.4,0.2c0,0.1-0.1,0.1-0.2,0.1c-0.1,0.1-0.2,0.2-0.3,0.2l-0.1,0.1c0,0,0,0,0,0c-0.1,0-0.2,0.1-0.2,0.1l0,0
		c-0.1,0-0.1,0.1-0.1,0.1l0,0c-0.1,0-0.1,0.1-0.1,0.1l0,0c-0.1,0-0.1,0.1-0.1,0.2l0,0c-0.1,0.1-0.1,0.3,0,0.4l0,0
		c0,0.1,0,0.2,0.1,0.2c0.1,0.1,0,0.2,0.1,0.3l0,0c0.1,0.1,0,0.2,0.1,0.3v0c0.1,0.1,0,0.2,0.1,0.3c0.1,0.1,0,0.3,0.1,0.3v0
		c0,0,0,0,0.1,0c0,0.1,0,0.1,0,0.2c0,0,0,0,0,0.1c0,0.1,0.1,0.1,0.1,0l0,0.2c0.1,0,0.1,0.1,0.1,0.2l0.1,0.1c0.1,0,0.1,0.1,0.1,0.2
		c0.1,0,0.1,0.1,0.1,0.2c0.1,0,0.1,0.1,0.1,0.1c0,0,0.1,0,0.1,0c0,0.1,0,0.1,0,0.2c0.1,0,0.1,0.1,0.1,0.1c0.1,0,0.1,0.1,0.1,0.2
		c0.1,0.1,0.2,0.2,0.2,0.3c0,0,0.1,0,0.1,0c0,0.1,0,0.1,0.1,0.1c0,0.1,0,0.1,0,0.2c0.1,0,0.1,0.1,0.1,0.1c0.1,0,0.1,0.1,0.1,0.2
		c0.1,0.1,0.1,0.2,0.2,0.2c0.1,0,0.1,0.1,0.1,0.2c0.1,0,0.1,0.1,0.1,0.1c0.1,0,0.1,0.1,0.1,0.1c0.1,0,0.1,0.1,0.1,0.1l0,0
		c0,0,0.1,0.1,0.1,0.1l0,0l0.2,0.1c0,0.1,0.2,0.2,0.3,0.3c0.1,0,0.1-0.1,0.1-0.1c0.1-0.2,0.1-0.5,0.1-0.7l0.1,0c0-0.1,0-0.3,0-0.4
		c0.1-0.3,0.1-0.7,0.1-1c0.1-0.3,0.1-0.7,0.1-1.1c0-0.1-0.1-0.3-0.2-0.3c0,0,0,0,0,0c-0.5-0.2-0.9-0.5-1.2-0.9c0-0.1,0-0.2,0-0.3
		c0.1,0,0.1-0.1,0.1-0.2c0.1,0,0.1-0.1,0.1-0.1c0.1-0.1,0.1-0.2,0-0.2v0c0-0.1,0-0.1-0.1-0.2c-0.1-0.1-0.1-0.2,0-0.3
		C31.7,35,31.9,34.8,32.1,34.7z"/>
	<path id="Path_156" class="st0" d="M3.5,20.1c-0.1-0.1-0.1-0.1-0.1-0.2c-0.1-0.1-0.1-0.2-0.1-0.3c-0.1-0.1-0.1-0.1-0.1-0.2
		C3,19.3,3,19.2,3,19.1c-0.1-0.3-0.2-0.6-0.1-0.9c0,0,0-0.1,0-0.2c0-0.1-0.1-0.2-0.2-0.2C2.6,18,2.5,18,2.4,18.1
		c-0.1,0.1-0.2,0.1-0.2,0.2c0,0.1,0,0.1-0.1,0.1c0,0.1-0.1,0.2-0.2,0.3c0,0.1,0,0.1-0.1,0.1c0,0.1,0,0.1,0,0.2l-0.1,0
		c0,0.1,0,0.1,0,0.2c0,0-0.1,0-0.1,0c0,0,0,0.1,0,0.1c0,0.1,0,0.2-0.1,0.3c0,0.2,0,0.4-0.1,0.6c0,0.2,0,0.3-0.1,0.4
		c0,0.1,0,0.2,0,0.3v0c0,0-0.1,0-0.1,0l0,0C1,21.1,1,21.2,1,21.3c0,0,0,0,0,0.1c0,0,0,0,0,0c-0.1,0.1,0,0.2-0.1,0.3v0
		c-0.1,0.1-0.1,0.3,0,0.4c0,0,0.1,0.1,0.1,0.1c0.1,0.1,0.2,0.1,0.3,0h0c0.1-0.1,0.2,0,0.2-0.1l0,0l0,0c0,0,0.1-0.1,0.1-0.1l0,0
		c0.1-0.1,0.2,0,0.2-0.1l0,0c0,0,0.1-0.1,0.1-0.1l0,0c0.1-0.1,0.2-0.1,0.3-0.2l0,0c0,0,0.1-0.1,0.1-0.1h0.1c0-0.1,0.1-0.1,0.2-0.1
		c0-0.1,0.1-0.1,0.1-0.1c0,0,0-0.1,0-0.1l0.2,0C3,21.1,3,21,3.1,21.1c0.1-0.1,0.3-0.2,0.4-0.2c0-0.1,0-0.3,0-0.4
		C3.5,20.3,3.4,20.2,3.5,20.1z"/>
	<path class="st0" d="M50.4,30.2c0-0.1,0-0.2,0.1-0.2l0-0.2c0-0.6,0-1.3,0-1.9c0-0.1,0-0.2,0-0.3c-0.1-0.2-0.1-0.4-0.1-0.6
		c0,0,0-0.1,0-0.1c-0.1-0.1,0-0.2-0.1-0.2c0,0,0.1-0.1,0.1-0.2c0,0,0-0.1,0-0.1c0-0.1-0.1-0.2-0.1-0.3c0,0,0-0.1,0-0.1
		c0-0.1,0-0.2-0.1-0.3c0,0,0-0.1,0-0.1c0-0.1-0.1-0.2-0.1-0.3c0,0,0-0.1,0-0.1c0-0.1-0.1-0.2-0.1-0.3c0,0,0-0.1,0-0.1
		c0-0.1-0.1-0.2-0.1-0.3c0,0,0-0.1,0-0.1c0-0.1-0.1-0.3-0.1-0.4c0,0,0-0.1,0-0.1c0-0.1-0.1-0.2-0.1-0.3c0,0-0.1-0.1-0.1-0.1
		c0,0-0.1,0-0.1,0v0c0.1-0.1,0.1-0.3,0-0.4v0c-0.1-0.2,0-0.4-0.1-0.6c0,0,0,0,0-0.1c0-0.1,0-0.3,0-0.4c0-0.1,0-0.1,0-0.2
		c-0.1-0.2-0.1-0.4-0.1-0.6c0-0.1,0-0.1-0.1-0.2c-0.2-0.4,0-0.8-0.1-1.2c0,0,0-0.1,0-0.1c-0.1-0.1,0-0.3-0.1-0.5
		c-0.1-0.1,0-0.3-0.1-0.4v0c-0.1-0.1,0-0.2-0.1-0.3c0,0,0-0.1,0-0.1c-0.1-0.1,0-0.3-0.1-0.4c-0.1-0.1,0-0.2-0.1-0.3c0,0,0,0,0-0.1
		c0,0,0-0.1,0,0c0-0.1,0-0.1-0.1-0.2c-0.1-0.1,0-0.2-0.1-0.3c-0.1-0.1,0-0.2-0.1-0.3c-0.1-0.1,0-0.2-0.1-0.3c-0.1-0.1,0-0.2-0.1-0.3
		c-0.1-0.1,0-0.2-0.1-0.3c-0.1-0.1,0-0.2-0.1-0.3c0,0,0,0,0-0.1c0,0,0,0,0,0c-0.1-0.1,0-0.3-0.1-0.4c-0.1-0.1,0-0.2-0.1-0.3
		c0-0.1,0-0.2-0.1-0.2c-0.1-0.1,0-0.2-0.1-0.2C47.1,14,47,13.9,47,13.8c0,0,0,0,0,0c0-0.1,0-0.1,0-0.2c0.1-0.2,0-0.4,0.1-0.6v0
		c0.1,0,0.1-0.1,0-0.2c0,0,0,0,0,0v0c-0.1-0.1,0-0.2-0.1-0.3c0-0.1,0-0.2-0.1-0.2c0-0.1-0.1-0.1-0.1-0.1c0,0-0.1-0.1-0.1-0.1
		c0,0-0.1,0-0.1,0c0,0,0-0.1,0-0.1c0,0-0.1-0.1-0.1-0.1l-0.1-0.1l-0.1-0.1l-0.1-0.1c0,0-0.1,0-0.1,0c0,0,0-0.1,0-0.1
		c0,0-0.1-0.1-0.1-0.1L45.8,11l-0.1-0.1c-0.1,0-0.2-0.1-0.3-0.2l-0.1-0.1c-0.1,0-0.1,0-0.1-0.1L45,10.4c-0.1,0-0.2-0.1-0.2-0.1
		c0,0-0.1,0-0.1,0c0,0,0-0.1,0-0.1c-0.1,0-0.3-0.1-0.3-0.2l-0.1-0.1c-0.1-0.1-0.3-0.2-0.4-0.3l-0.1-0.1c-0.1,0-0.2,0-0.2-0.1
		c-0.1,0-0.2-0.1-0.3-0.1c-0.3-0.2-0.5-0.3-0.8-0.4c-0.2-0.2-0.4-0.3-0.6-0.3c-0.2,0-0.3-0.1-0.5-0.2C41.1,8.2,41,8.1,40.9,8l-0.2,0
		c0,0,0-0.1,0-0.1c-0.1,0-0.2,0-0.2-0.1c-0.1,0-0.2,0-0.2-0.1l-0.2,0c0,0,0-0.1,0-0.1c-0.1-0.1-0.2,0-0.2-0.1
		c-0.1-0.1-0.2,0-0.2-0.1c-0.1-0.1-0.2,0-0.2-0.1c-0.1-0.1-0.2-0.1-0.2-0.1h0C39,7.1,38.9,7.1,38.9,7h0c-0.1-0.1-0.2-0.1-0.2-0.1h0
		c-0.1-0.1-0.2-0.1-0.3-0.1c0,0-0.1,0-0.1,0c-0.1-0.1-0.2,0-0.2-0.1c-0.1-0.1-0.2,0-0.2-0.1c-0.1-0.1-0.2,0-0.2-0.1
		c-0.1-0.1-0.2-0.1-0.2-0.1h0c-0.1-0.1-0.2-0.1-0.2-0.1h0C37.1,6.2,37,6.2,37,6.1h0C36.9,6,36.8,6,36.7,6c0,0-0.1,0-0.1,0
		c-0.1,0-0.1,0-0.2,0c0,0,0,0,0-0.1c-0.1,0-0.2,0-0.2-0.1c-0.2,0-0.4-0.1-0.5-0.2c-0.1,0-0.2,0-0.2-0.1c-0.1,0-0.2,0-0.2-0.1
		c-0.1,0-0.2,0-0.2-0.1c-0.1,0-0.2,0-0.2-0.1l-0.2,0c0,0,0-0.1,0-0.1c-0.1,0-0.2,0-0.3-0.1c-0.1,0-0.2,0-0.2-0.1
		c-0.1,0-0.2,0-0.2-0.1c-0.1,0-0.2,0-0.2-0.1l-0.2,0l-0.1-0.1c-0.1-0.1-0.3-0.1-0.4-0.2c-0.1,0-0.2,0-0.2-0.1c-0.1,0-0.2,0-0.2-0.1
		c-0.1,0-0.2,0-0.2-0.1c-0.1,0-0.2,0-0.2-0.1c-0.1,0-0.2,0-0.2-0.1c-0.1,0-0.2,0-0.2-0.1c-0.1,0-0.1,0-0.1-0.1l-0.2,0
		c0,0,0-0.1,0-0.1c-0.1,0-0.1,0-0.1-0.1l-0.2,0c0,0,0-0.1,0-0.1c-0.1,0-0.1,0-0.1-0.1c-0.1,0-0.2-0.1-0.3-0.2c-0.1,0-0.1,0-0.1-0.1
		c-0.1,0-0.2-0.1-0.2-0.1c-0.1,0-0.1,0-0.1-0.1c-0.1,0-0.3-0.1-0.3-0.2c-0.1,0-0.1,0-0.1-0.1c-0.1,0-0.2-0.1-0.2-0.1
		c-0.1,0-0.1,0-0.1-0.1c-0.1,0-0.3-0.1-0.3-0.2c-0.1,0-0.1,0-0.1-0.1c-0.1,0-0.2-0.1-0.2-0.1c-0.1,0-0.1,0-0.1-0.1
		c-0.1,0-0.2-0.1-0.2-0.1c-0.1,0-0.1,0-0.1-0.1c-0.1,0-0.3-0.1-0.3-0.2l-0.2,0l-0.2-0.2l-0.2,0c0-0.1-0.1-0.1-0.1-0.1
		c-0.1-0.1-0.2-0.2-0.3-0.2l0,0h0c0,0,0,0,0-0.1c-0.1-0.1-0.2-0.1-0.3-0.2c0,0-0.1,0-0.1,0c-0.1,0-0.2,0-0.3,0c0,0-0.1,0-0.1,0
		C25.6,0,25.1,0,24.7,0c0,0,0,0-0.1,0c0,0,0,0,0,0c-0.1,0.1-0.3,0-0.5,0.1h0c-0.1,0.1-0.2,0-0.3,0.1c0,0,0,0-0.1,0c0,0,0,0,0,0
		c-0.1,0-0.2,0-0.3,0.1c-0.1,0.1-0.2,0-0.3,0.1h0c0,0,0,0.1,0,0.1l-0.2,0c-0.1,0.1-0.2,0.1-0.3,0.1c-0.1,0.1-0.1,0.1-0.2,0.1
		c-0.1,0.1-0.1,0.1-0.2,0.1C22.2,1,22.1,1.1,22,1.1l-0.1,0.1c0,0-0.1,0.1-0.1,0.1c0,0-0.1,0-0.1,0c0,0,0,0.1,0,0.1l-0.2,0
		c0,0.1-0.1,0.1-0.1,0.1c0,0.1-0.1,0.1-0.2,0.1L21,1.7l-0.1,0.1c0,0.1-0.1,0.1-0.2,0.1c0,0-0.1,0.1-0.1,0.1l-0.1,0.1
		c0,0.1-0.1,0.1-0.1,0.1c0,0,0,0.1,0,0.1c0,0-0.1,0-0.1,0l-0.1,0.1C20,2.5,20,2.6,19.9,2.7c0,0.1,0,0.1-0.1,0.1c0,0-0.1,0.1-0.1,0.1
		S19.6,3,19.6,3l-0.2,0.3l-0.1,0c0,0.1,0,0.1-0.1,0.1l-0.1,0.1c0,0.1-0.1,0.2-0.1,0.2c0,0.1,0,0.1-0.1,0.1c0,0.1-0.1,0.2-0.1,0.2
		c0,0.1,0,0.1-0.1,0.1c0,0.1-0.1,0.2-0.1,0.2c0,0.1,0,0.1-0.1,0.1c0,0.1,0,0.1,0,0.2l-0.1,0l-0.1,0.1C18.2,5,18.1,5.2,18,5.3
		l-0.1,0.1c0,0.1-0.1,0.2-0.1,0.2c0,0.1,0,0.2-0.1,0.2c0,0.1,0,0.2-0.1,0.2c0,0,0,0.1,0,0.1c0,0-0.1,0-0.1,0
		c-0.1,0.1-0.2,0.3-0.2,0.4c0,0.1,0,0.1-0.1,0.1c0,0-0.1,0.1-0.1,0.1C17,7,17,7.1,16.9,7.1l-0.1,0.1c0,0-0.1,0.1-0.1,0.1l-0.1,0.1
		l-0.1,0.1l-0.1,0.1l-0.1,0.1l-0.1,0.1L16.1,8c0,0,0,0,0,0.1c0,0-0.1,0-0.1,0c0,0,0,0,0,0l0,0c0,0-0.1,0.1-0.1,0.1
		c0,0-0.1,0.1-0.1,0.1c0,0.1-0.2,0-0.2,0.1c-0.1,0.1-0.2,0.1-0.3,0c0,0-0.1,0-0.1,0c-0.5-0.2-0.6,0.1-0.7,0.5c0,0,0,0.1,0,0.1
		c-0.1,0.6-0.1,1.2,0,1.8c0,0.1,0,0.2,0,0.3c0,0,0.1,0,0.1,0v0c0,0.1,0,0.1,0,0.2c0,0,0,0.1,0,0.1v0c0,0-0.1,0-0.1,0
		c0,0.1,0,0.1,0,0.2c-0.1,0.1-0.1,0.2,0,0.3c0,0,0,0,0,0.1l-0.1,0c0,0.1,0,0.2-0.1,0.3c0,0.1,0,0.2-0.1,0.2c0,0.1,0,0.2-0.1,0.3
		c0,0.1,0,0.2-0.1,0.2c0,0.1,0,0.2-0.1,0.2c0,0.1-0.1,0.3-0.2,0.3c0,0.1,0,0.1,0,0.2c0,0-0.1,0-0.1,0c0,0.1-0.1,0.3-0.2,0.3
		c0,0.1,0,0.1-0.1,0.1c0,0.1-0.1,0.2-0.1,0.2c0,0.1,0,0.1-0.1,0.1c0,0.1,0,0.1-0.1,0.1c0,0-0.1,0.1-0.1,0.1c0,0.1-0.1,0.1-0.1,0.1
		c0,0.1-0.1,0.1-0.1,0.1c0,0,0,0.1,0,0.1h-0.1c0,0.1-0.1,0.1-0.2,0.1c0,0.1-0.1,0.1-0.1,0.1c-0.3,0.2-0.6,0.2-0.9,0
		c-0.1,0-0.2,0-0.2-0.1c-0.1,0-0.2-0.1-0.2-0.1c-0.1,0-0.3-0.1-0.3-0.2c0,0-0.1,0-0.1,0c0,0,0-0.1,0-0.1l-0.2-0.1
		c0-0.1-0.1-0.2-0.1-0.3c-0.1-0.1,0-0.2-0.1-0.2c0-0.1,0-0.2-0.1-0.2c0,0,0,0,0-0.1c0,0,0,0,0,0c-0.1-0.2-0.1-0.3,0-0.5l0,0
		c0.1-0.1,0.1-0.2,0.1-0.2c0.1,0,0.1-0.2,0.1-0.2c0,0,0.1-0.1,0.1-0.1l0,0c0.1-0.1,0.2-0.2,0.2-0.3l0,0c0.1-0.1,0.2-0.2,0.2-0.3
		c0.1,0,0.1-0.2,0.1-0.2c0,0,0.1-0.1,0.1-0.1c0.1-0.1,0.1-0.2,0.1-0.2c0,0,0.1-0.1,0.1-0.1c0.1,0,0.1-0.1,0.1-0.2
		c0.1-0.1,0.1-0.2,0.1-0.2v0c0.1-0.1,0.1-0.2,0.1-0.2v0c0.1-0.1,0.1-0.2,0.1-0.2h0c0.1-0.1,0.1-0.2,0.1-0.2c0,0,0,0-0.1-0.1l0,0
		c-0.1-0.1-0.1-0.1-0.2,0l0,0c-0.1,0-0.1,0.1-0.1,0.1c-0.1,0.1-0.2,0-0.2,0.1c0,0-0.1,0.1-0.1,0.1c-0.1,0.1-0.2,0-0.2,0.1
		c-0.1,0-0.1,0.1-0.1,0.1c-0.1,0.1-0.2,0-0.2,0.1h0c-0.1,0.1-0.2,0-0.2,0.1h0c-0.1,0.1-0.2,0-0.2,0.1c-0.1,0.1-0.2,0-0.3,0.1
		c-0.1,0.1-0.2,0-0.3,0.1h0c-0.1,0.1-0.2,0-0.3,0.1c-0.1,0.1-0.2,0-0.3,0.1c-0.1,0-0.2,0-0.2,0.1l0,0c-0.1,0.1-0.2,0-0.2,0.1
		c-0.1,0-0.2,0-0.2,0.1c-0.1,0-0.1,0.1-0.1,0.1c0,0,0,0.1,0,0.1l-0.2,0c0,0,0,0.1,0,0.1l-0.2,0l-0.1,0.1c0,0,0,0.1,0,0.1l-0.3,0.1
		c0,0.1-0.1,0.1-0.1,0.1c0,0,0,0.1,0,0.1l-0.3,0.2c0,0.1-0.1,0.1-0.1,0.1c0,0.1-0.1,0.1-0.1,0.1l-1.3,1.3c0,0.1,0,0.1-0.1,0.1
		c0,0.1,0,0.1-0.1,0.1c0,0.1-0.1,0.2-0.2,0.3c0,0.1,0,0.1-0.1,0.1c0,0.1,0,0.1-0.1,0.1c0,0.1-0.1,0.2-0.1,0.2c0,0.1,0,0.1-0.1,0.1
		l0,0.2l-0.1,0c0,0.2-0.1,0.3-0.2,0.4c0,0.1,0,0.1,0,0.2c0,0-0.1,0-0.1,0c0,0.1,0,0.3,0,0.4c0,0-0.1,0-0.1,0c0,0,0,0,0,0
		c0,0.1,0,0.1,0,0.2c-0.1,0.1-0.1,0.2,0,0.3l0,0.2c0,0,0.1,0.1,0.1,0.1c0,0,0,0.1,0,0.1c0,0.1,0,0.3,0,0.4c0,0,0,0,0,0.1
		c0,0,0.1,0,0.1,0c0,0,0,0,0,0l0,0.3c0,0,0.1,0,0.1,0v0l0,0c0,0,0,0,0,0c-0.1,0.1-0.1,0.1,0,0.2c0,0,0,0,0,0.1c0,0.1,0,0.2,0.1,0.3
		c0.1,0.1,0,0.2,0.1,0.2l0,0C4,19.6,4,19.8,4,19.8l0,0c0.1,0.1,0,0.2,0.1,0.2c0,0,0.1,0.1,0.1,0v0.1c0.1,0,0.1,0.1,0.1,0.2
		c0.1,0.1,0.2,0.2,0.2,0.3c0.1,0,0.1,0.1,0.1,0.1c0.1,0,0.1,0.1,0.1,0.2c0.1,0,0.1,0.1,0.1,0.1c0.1,0.1,0.1,0.2,0.2,0.2
		c0.2,0.2,0.4,0.3,0.6,0.5L5.8,22C5.9,22,6,22.1,6,22.1c0.1,0,0.2,0,0.2,0.1c0.1,0,0.3,0.1,0.4,0.2c0.1,0,0.2,0,0.2,0.1
		c0.1,0,0.2,0,0.2,0.1c0.1,0,0.3,0.1,0.3,0.2c0.1,0,0.1,0,0.1,0.1c0.1,0,0.2,0.1,0.2,0.2c0.1,0,0.1,0.1,0.1,0.2c0,0,0.1,0.1,0.1,0.1
		L8,23.7c0,0,0,0.1,0,0.1c0.1,0,0.1,0.1,0.1,0.2c0,0,0.1,0,0.1,0c0,0.1,0,0.1,0.1,0.2c0,0,0,0.1,0,0.1c0,0,0,0,0,0c0,0,0,0.1,0,0.1
		l0.1,0c0,0.1,0,0.1,0,0.2c0.1,0,0.1,0.1,0.1,0.1c0.1,0,0.1,0.1,0.1,0.2c0.1,0.1,0.2,0.2,0.2,0.3C9,25.3,9,25.3,9,25.4
		c0.1,0,0.1,0.1,0.1,0.1c0.1,0,0.1,0.1,0.1,0.2c0.1,0,0.1,0.1,0.1,0.2c0,0,0.1,0.1,0.1,0.1l0.1,0c0,0,0,0.1,0,0.1c0,0,0,0.1,0,0.1
		c0,0,0.1,0,0.1,0v0.1c0.1,0,0.1,0.1,0.1,0.2C9.9,26.7,10,26.8,10,27c0.1,0,0.1,0.1,0.1,0.2l0.1,0c0,0.1,0.1,0.2,0.1,0.3
		c0.1,0,0.1,0.1,0.1,0.2c0.1,0.1,0.1,0.2,0.2,0.2l0,0.1c0.1,0,0.1,0.1,0.1,0.2l0.1,0.1l0.1,0.1l0.4,0c0.1-0.1,0.2-0.1,0.3-0.1
		c0.2-0.1,0.3-0.1,0.4-0.2c0-0.1,0.1-0.1,0.1-0.1c0-0.1,0.1-0.1,0.2-0.1l0.1-0.1l0.1-0.1c0,0,0-0.1,0-0.1l0.1,0
		c0.1-0.1,0.1-0.2,0.2-0.2c0-0.1,0-0.1,0.1-0.1c0-0.1,0.1-0.2,0.1-0.2c0-0.1,0.1-0.3,0.2-0.4c0-0.1,0-0.2,0-0.3c0,0,0.1,0,0.1,0
		c0-0.2,0-0.3,0.1-0.4c0-0.5,0-1,0-1.5c-0.1-0.1-0.1-0.3-0.1-0.4c-0.1-0.1-0.1-0.2-0.1-0.3c-0.1-0.1-0.1-0.2-0.1-0.3
		c-0.1-0.1-0.1-0.1-0.1-0.2c-0.1-0.1-0.1-0.1-0.1-0.2c-0.1-0.1-0.2-0.3-0.1-0.5c0.1-0.2,0.2-0.4,0.4-0.4c0-0.1,0.1-0.1,0.2-0.1
		c0-0.1,0.1-0.1,0.1-0.1c0-0.1,0.1-0.1,0.2-0.1c0-0.1,0.1-0.1,0.1-0.1l0.5-0.6c0,0,0-0.1,0-0.1l0.2-0.3c0-0.1,0-0.2,0.1-0.3
		c0-0.4,0-0.9,0-1.3c-0.1-0.1-0.1-0.3-0.1-0.5c-0.1-0.1-0.1-0.3-0.1-0.4c-0.1-0.1-0.1-0.3-0.1-0.4c0,0,0.1,0,0.1,0
		c0-0.1,0.1-0.2,0.2-0.1c0.1,0.1,0.2,0.1,0.3,0.2c0.1,0,0.1,0,0.1,0.1c0.1,0,0.1,0,0.1,0.1l0.1,0c0,0,0,0.1,0,0.1
		c0.1,0,0.1,0.1,0.1,0.1c0.1,0,0.1,0.1,0.1,0.1c0.1,0,0.1,0.1,0.1,0.2c0.1,0.1,0.1,0.2,0.1,0.3c0.1,0.1,0.1,0.3,0.1,0.4
		c0,0.2,0,0.3,0,0.5L16,19.8c0,0.1,0,0.2-0.1,0.3c0,0.1,0,0.1,0,0.2c0,0,0,0,0,0.1c0,0-0.1,0-0.1,0c0,0.1,0,0.1,0,0.2
		c0,0-0.1,0-0.1,0c0,0.1,0,0.2-0.1,0.2c0,0.1,0,0.1-0.1,0.1c0,0.1-0.1,0.2-0.1,0.2c0,0.1,0,0.1-0.1,0.1c0,0.1-0.1,0.2-0.1,0.2
		c0,0.1,0,0.1-0.1,0.1c0,0,0,0.1,0,0.1v0l-0.1,0L14.9,22l-0.4,0.4c0,0.1-0.1,0.1-0.1,0.1c0,0.1-0.1,0.1-0.1,0.1
		c-0.1,0.1-0.1,0.1-0.2,0.2c0,0.1,0,0.1-0.1,0.1l0.1,0.2c0.1,0,0.3,0.1,0.3,0.2c0.1,0,0.1,0,0.1,0.1c0.1,0,0.1,0,0.1,0.1
		c0.1,0,0.1,0,0.1,0.1c0.1,0.1,0.3,0.2,0.3,0.3c0.1,0,0.1,0.1,0.1,0.1c0,0,0.1,0,0.1,0c0,0,0,0.1,0,0.1c0,0,0.1,0,0.1,0
		c0,0.1,0,0.1,0.1,0.1l0,0c0,0.1,0,0.1,0,0.2c0,0,0.1,0.1,0.1,0.1c0,0,0,0.1,0,0.1l-0.1,0l0,0.2c0,0-0.1,0-0.1,0c0,0,0,0.1,0,0.1
		l0.1-0.1c0,0-0.1,0.1-0.1,0.1c0,0,0,0,0,0.1c-0.1,0-0.1,0.1-0.1,0.2c0,0-0.1,0-0.1,0c0,0.1,0,0.1,0,0.2c0,0-0.1,0-0.1,0
		c0,0.1,0,0.1-0.1,0.1c0,0.1-0.1,0.2-0.1,0.2c0,0.1,0,0.1-0.1,0.1c0,0.1-0.1,0.2-0.1,0.2c0,0.1,0,0.1-0.1,0.1c0,0.1-0.1,0.2-0.2,0.3
		c0,0.1,0,0.1-0.1,0.1c0,0.1-0.1,0.2-0.1,0.2L14,27.1c0,0.1,0,0.1-0.1,0.1c0,0.1-0.1,0.2-0.2,0.3c-0.1,0.1-0.1,0.2-0.2,0.2l-0.1,0.2
		l-0.1,0.1l-0.1,0c0,0.1,0,0.1-0.1,0.1c0,0.1,0,0.1-0.1,0.1c0,0.1,0,0.1-0.1,0.1l-0.1,0.1c-0.1,0.2-0.3,0.3-0.4,0.5l-0.2,0.2
		c0,0.1,0,0.1-0.1,0.1c0,0.1-0.1,0.2-0.1,0.2c0,0.1,0,0.2-0.1,0.2c0,0.1,0,0.2-0.1,0.2c0,0.1,0,0.2-0.1,0.2c0,0.1,0,0.2-0.1,0.2
		c0,0.1,0,0.2-0.1,0.2c0,0.1,0,0.2-0.1,0.2c0,0.1,0,0.1,0,0.2c0,0-0.1,0-0.1,0v0c-0.1,0.1-0.1,0.2-0.1,0.3c0,0,0,0.1,0,0.1
		c-0.1,0.1,0,0.2-0.1,0.2c-0.1,0.1-0.1,0.2-0.1,0.2l0,0c-0.1,0.1,0,0.2-0.1,0.3c0,0,0,0,0,0c0,0,0,0,0,0.1c0,0-0.1,0.1-0.1,0.1v0
		c-0.1,0.1,0,0.2-0.1,0.3c-0.1,0.1,0,0.2-0.1,0.3c-0.1,0.1,0,0.2-0.1,0.3c-0.1,0.1,0,0.2-0.1,0.4v0c0.1,0.1,0,0.3,0.1,0.4
		c0,0.1,0,0.2,0.1,0.2c0.1,0.1,0,0.2,0.1,0.2v0c0.1,0.1,0,0.2,0.1,0.2v0c0,0,0,0.1,0.1,0.1c0,0,0,0,0,0c0,0,0,0.1,0,0.1
		c0,0,0,0,0.1,0c0,0,0,0,0,0l0,0.2c0.1,0,0.1,0.1,0.1,0.1c0,0,0,0,0,0.1l0,0c0,0,0,0,0,0c0,0,0,0,0,0c0,0,0,0,0,0l0,0l0,0
		c0,0,0,0,0,0.1c0,0,0,0,0,0c0,0,0,0,0,0c0,0,0,0,0.1,0.1h0l0,0.1l0.1,0.1c0,0,0.1,0,0.1,0c0,0,0,0.1,0,0.1c0.1,0.1,0.2,0.1,0.2,0.2
		c0.1,0,0.3,0,0.4,0.1c0.1,0.1,0.2,0,0.3,0.1c0,0,0.1,0.1,0.1,0.1c0.1,0,0.2,0,0.2,0h0l0,0c0,0,0.1,0,0.2,0c0,0,0,0.1,0.1,0.1h0l0,0
		c0.1,0.1,0.2,0.1,0.2,0.1h0l0,0c0.1,0.1,0.2,0,0.2,0.1h0l0,0c0.1,0.1,0.2,0,0.2,0.1c0,0,0.1,0.1,0.1,0.1c0.1,0,0.2,0,0.2,0.1
		c0.1,0.1,0.2,0,0.3,0.1c0.1,0.1,0.2,0.1,0.2,0.1c0,0,0.1,0,0.1,0c0.1,0,0.1,0.1,0.2,0c0,0,0,0,0,0.1l0.1,0l0.1,0c0,0,0.1,0,0.1,0.1
		c0,0,0.1,0,0.1,0c0.1,0.1,0.2,0,0.2,0.1c0.1,0.1,0.2,0.1,0.2,0.1h0c0.1,0.1,0.2,0.1,0.3,0.1c0,0,0.1,0,0.1,0c0.1,0,0.1,0.1,0.2,0
		c0,0,0,0,0,0c0,0,0,0,0,0c0.1,0.1,0.2,0,0.2,0.1c0,0,0.1,0.1,0.1,0.1l0,0c0,0.1,0.1,0.1,0.2,0.1c0,0,0,0,0,0c0,0,0,0,0,0
		c0,0,0,0.1,0,0.1l0.1,0c0,0,0,0,0,0c0.1,0,0.1,0.1,0.2,0.1c0.1,0.1,0.3,0,0.4,0.1l0,0l0,0c0.4,0.1,0.8,0,1.2,0.1l0,0l0,0
		c0.1,0.1,0.2,0.1,0.3,0l0,0l0,0c0.2-0.1,0.4,0,0.6-0.1h0c0.2-0.1,0.4,0,0.6-0.1h0c0.1,0,0.1-0.1,0.2-0.1h0.3
		c0.3-0.1,0.6-0.2,0.9-0.2c0.1-0.1,0.2-0.1,0.3-0.1c0.1-0.1,0.3-0.1,0.4-0.1c0.1-0.1,0.2-0.1,0.3-0.1c0.1-0.1,0.2-0.1,0.3-0.1
		c0.1-0.1,0.3-0.1,0.4-0.2l0.2,0c0.1-0.1,0.1-0.1,0.2-0.1c0.1-0.1,0.1-0.1,0.2-0.1l0.1-0.1l0.1-0.1c0-0.1,0-0.1,0-0.2
		c0,0-0.1-0.1-0.1-0.1c0,0-0.1-0.1-0.1-0.1c-0.1,0-0.2,0-0.2-0.1c-0.1,0-0.2,0-0.2-0.1c-0.1,0-0.2,0-0.2-0.1l-0.3,0c0,0,0,0,0-0.1
		l-0.3,0c0,0,0-0.1,0-0.1l-0.2,0c0,0-0.1,0-0.1,0C23,36,22.9,35.9,22.8,36c0,0-0.1,0-0.1,0c0,0,0-0.1-0.1-0.1c0,0-0.1,0-0.1,0
		c-0.1,0-0.2,0-0.2,0c0,0,0,0,0,0c0,0,0-0.1,0-0.1c-0.1,0-0.3-0.1-0.4,0c0,0-0.1,0-0.1,0l-0.1-0.1c-0.2-0.2-0.3,0-0.5,0
		c0,0.1-0.1,0.1-0.2,0.1c0,0.1-0.1,0.1-0.2,0.1c0,0.1-0.1,0.1-0.2,0.1l-0.1,0.1c0,0.1-0.1,0.1-0.2,0.1c0,0.1-0.1,0.1-0.1,0.1
		c0,0.1-0.1,0.1-0.1,0.2c-0.1,0-0.1,0.1-0.1,0.1h0l-0.2,0.1c0,0.1,0,0.2-0.1,0.2c0,0.1,0,0.2-0.1,0.2c0,0.1-0.1,0.1-0.1,0.1
		c0,0.1-0.1,0.1-0.2,0.1l-0.1-0.1c0-0.1,0-0.1,0-0.2l0,0c0-0.1-0.1-0.1-0.1-0.1v0c0,0-0.1-0.1-0.1-0.1c0,0-0.1-0.1-0.1-0.1h0
		c-0.1,0-0.1,0.1-0.1,0.1C18.4,37,18.3,37,18.1,37c0,0-0.1,0-0.1,0v0l-0.1,0h0l0,0h0c0,0,0-0.1,0-0.1c0,0-0.1-0.1-0.1-0.1v0
		c-0.1-0.1-0.2-0.1-0.3-0.2h0c0,0-0.1-0.1-0.1-0.1c0,0-0.1-0.1-0.1-0.1c0,0-0.1-0.1-0.1-0.1h0c0,0-0.1-0.1-0.1-0.1l0,0
		c0,0-0.1-0.1-0.1-0.1l0,0c-0.1-0.1-0.2-0.1-0.3-0.2h0c0,0-0.1-0.1-0.1-0.1c0,0-0.1-0.1-0.1-0.1c0,0-0.1-0.1-0.1-0.1l0,0
		c0,0-0.1-0.1-0.1-0.1l0,0c0-0.1-0.2-0.1-0.2-0.1l0,0c0,0-0.1,0-0.1,0c0,0,0-0.1,0-0.1c0,0-0.1-0.1-0.1-0.1l0,0
		c-0.1-0.1-0.2-0.1-0.3-0.2c0,0-0.1-0.1-0.1-0.1c0,0-0.1-0.1-0.1-0.1l0,0c0-0.1-0.2-0.1-0.2-0.1c0,0-0.1-0.1-0.1-0.1l0,0
		c-0.1-0.1-0.2-0.1-0.2-0.1c-0.1-0.1-0.1-0.1-0.2,0c0,0,0,0,0,0c0,0,0,0,0-0.1c0,0-0.1-0.1-0.1-0.1c0,0-0.1,0-0.1,0
		c0,0-0.1-0.1-0.1-0.1c0,0-0.1,0-0.1,0c0,0-0.1,0-0.1,0c0,0,0,0,0,0c0,0,0,0,0,0c0,0,0-0.1,0-0.1h-0.2l-0.2-0.1
		c-0.1,0-0.2,0-0.3-0.1c-0.2,0-0.2-0.2-0.2-0.3c0,0,0.1,0,0.1-0.1c0,0,0.1-0.1,0.1-0.1c0,0,0.1-0.1,0.1-0.1c0.1-0.1,0.2,0,0.2-0.1
		l0,0c0,0,0.1-0.1,0.1-0.1c0,0,0.1-0.1,0.1-0.1l0.1-0.1l0.1-0.1c0-0.1,0.1-0.2,0.2-0.3c0-0.1,0-0.1,0.1-0.1l0.1-0.1
		c0-0.1,0-0.1,0-0.2c0,0,0.1,0,0.1,0l0-0.1v0v0c0,0,0.1,0,0.1,0c0,0,0,0,0,0c0,0,0-0.1,0-0.1c0.1-0.1,0.1-0.1,0-0.2l0,0v0
		c0,0,0,0,0.1,0.1c0,0,0,0,0-0.1c0,0,0-0.1,0-0.1c0.1-0.1,0.1-0.2,0-0.2c0,0,0,0,0.1,0c0-0.1,0-0.1,0-0.2l0.1-0.1
		c0-0.1,0-0.2,0.1-0.2c0-0.1,0-0.2,0.1-0.2l0-0.2c0,0,0.1,0,0.1,0v0c0,0,0.1-0.1,0.1-0.1l0,0c0.1,0,0.1-0.2,0.1-0.2
		c0.1-0.1,0.1-0.2,0.1-0.2c0.1-0.1,0.2-0.2,0.2-0.3v0c0,0,0.1-0.1,0.1-0.1l0.1,0c0.1,0.1,0.1,0.1,0.2,0c0.1,0.1,0,0.3-0.1,0.4
		c0,0.1,0,0.1,0,0.2l-0.1,0c0,0.1,0,0.2,0,0.3c0,0,0,0,0,0c0,0-0.1,0-0.1,0c-0.1,0.1,0,0.2-0.1,0.2c-0.1,0.1,0,0.2-0.1,0.3
		c-0.1,0.1,0,0.2-0.1,0.3c-0.1,0.1,0,0.2-0.1,0.3c-0.1,0.1,0,0.3-0.1,0.4c0,0,0,0.1,0,0.1c-0.1,0.1,0,0.2-0.1,0.3v0
		c-0.1,0.1,0,0.3-0.1,0.4c0,0,0,0-0.1,0c0,0,0,0.1,0,0.1c-0.1,0.1-0.1,0.2,0,0.3c0,0-0.1,0-0.1,0.1c0,0,0,0.1,0,0.1
		c-0.1,0.3-0.1,0.7,0,1c0,0,0.1,0.1,0.1,0.1l0,0c0.1,0.1,0.2,0.2,0.3,0.2c0,0,0.1,0.1,0.1,0.1l0,0c0,0.1,0.2,0.1,0.2,0.1
		c0,0,0.1,0.1,0.1,0.1l0,0c0.1,0.1,0.2,0.1,0.2,0.1c0,0,0.1,0.1,0.1,0.1l0,0c0,0,0.1,0.1,0.1,0c0,0,0,0,0.1,0.1
		c0.1,0.1,0.2,0,0.2,0.1h0c0,0,0.1,0,0.1,0.1l0,0l0.1,0l0.1,0c0,0,0,0,0,0c0,0,0,0,0,0.1c0.1,0.1,0.2,0,0.2,0.1c0,0,0.1,0.1,0.1,0.1
		l0,0c0.1,0.1,0.2,0.1,0.2,0.1h0c0.2,0.1,0.4,0.1,0.5,0l0,0h0c0,0,0,0,0,0c0.1,0,0.2,0,0.3,0l0,0h0c0.1-0.1,0.3,0,0.4-0.1
		c0,0,0,0,0-0.1c0.1,0,0.2,0,0.3,0l0,0h0c0.1-0.1,0.3,0,0.4-0.1c0.1-0.1,0.2,0,0.3-0.1l0,0h0c0,0,0.1,0,0.1-0.1c0.1,0.1,0.2,0,0.3,0
		c0.1-0.1,0.2,0,0.3-0.1l0,0l0,0c0.1-0.1,0.3,0,0.4-0.1c0.1-0.1,0.3,0,0.4-0.1l0,0l0,0c0.1-0.1,0.3,0,0.5-0.1l0,0l0,0
		c0.1,0,0.1,0,0.1-0.1l0,0c0,0,0,0,0,0c0.1,0,0.2,0,0.3,0l0,0l0,0c0.1-0.1,0.3,0,0.5-0.1l0,0l0,0c0.1-0.1,0.3,0,0.5-0.1h0
		c0.1-0.1,0.3,0,0.4-0.1h0c0.1-0.1,0.2,0,0.3-0.1l0,0l0,0c0,0,0.1,0,0.1-0.1c0,0,0,0,0,0l0.2,0l0.1-0.1l0.1-0.1
		c0-0.1,0.1-0.1,0.1-0.1l0.1-0.1l0-0.2c0,0,0.1,0,0.1,0V33c0,0,0.1,0,0.1-0.1c0.1-0.1,0.1-0.2,0.1-0.2c0,0,0.1-0.1,0.1-0.1l0,0
		c0.1,0,0.1-0.2,0.1-0.2c0,0,0.1-0.1,0.1-0.1l0,0c0.1-0.1,0.1-0.2,0.2-0.3l0.1,0l0.1-0.1l0.1-0.1c0.3-0.4,0.6-0.7,0.9-1
		c0-0.1,0.1-0.1,0.1-0.1c0-0.1,0.1-0.1,0.1-0.1c0,0,0-0.1,0-0.1l0.1,0c0,0,0-0.1,0-0.1v0c0,0,0.1,0,0.1,0c0,0,0.1-0.1,0.1-0.1
		c0,0,0.1-0.1,0.1-0.1c0,0,0.1-0.1,0.1-0.1c0,0,0.1-0.1,0.1-0.1l0,0c0,0,0.1-0.1,0.1-0.1l0,0c0,0,0.1-0.1,0.1-0.1l0,0
		c0.1-0.1,0.2-0.3,0.3-0.4c0,0,0.1-0.1,0.1-0.1c0,0,0.1-0.1,0.1-0.1l0,0c0.1-0.1,0.2-0.2,0.2-0.3c-0.2-0.3-0.4-0.1-0.6-0.1
		c0,0-0.1,0-0.1,0c-0.1,0.1-0.3,0-0.3,0.1c0,0-0.1,0-0.1,0c-0.1,0.1-0.3,0-0.4,0.1c0,0-0.1,0-0.1,0c-0.1,0-0.2,0-0.2,0.1
		c0,0-0.1,0-0.1,0c-0.1,0.1-0.2,0-0.3,0.1c0,0-0.1,0-0.1,0c-0.1,0-0.2,0-0.2,0.1c0,0-0.1,0-0.1,0c-0.1,0-0.2,0-0.2,0.1
		c0,0-0.1,0-0.1,0c0,0.1-0.1,0-0.1,0l-0.2,0c0,0-0.1,0-0.1,0c0,0,0,0,0,0l-0.2,0c-0.1,0.1-0.3,0-0.4,0.1h0l0,0l0,0
		c-0.1,0-0.1,0-0.2,0.1l0,0c0,0-0.1,0.1-0.1,0.1c-0.1,0.1,0,0.3-0.2,0.4c0,0.1,0,0.1,0,0.2c0,0.3,0,0.6,0,0.9l0,0
		c-0.1,0.1,0,0.2-0.1,0.3c0,0-0.1,0.1-0.1,0.1c0,0-0.1,0.1-0.1,0.1c0,0-0.1,0-0.1,0c0,0,0,0,0,0c0,0-0.1-0.1-0.1-0.1c0,0,0,0,0-0.1
		c0,0,0-0.1-0.1-0.1c0,0,0,0,0,0c0,0-0.1,0-0.1-0.1c0,0-0.1,0-0.1,0c-0.1,0.1-0.1,0.2,0,0.2c0,0,0,0,0,0c0.1,0.1,0,0.2,0.1,0.3
		c0.1,0.1,0,0.2,0.1,0.3v0c0,0,0,0,0,0c0,0,0,0,0,0.1l0,0c-0.1,0.1-0.2,0-0.3,0.1h0c-0.1,0-0.1,0.1-0.2,0.1c-0.2,0-0.3,0-0.5,0
		c-0.1,0-0.1,0-0.2,0l-0.2,0c-1,0.1-2.1,0.1-3.1,0c0,0-0.1,0-0.1,0c-0.2-0.1-0.3-0.1-0.5,0h0l-0.2-0.1c0,0-0.1,0-0.1,0
		c0,0-0.1-0.1-0.1-0.1c-0.1,0-0.1,0-0.2,0c0,0,0,0,0,0h0c-0.1-0.1-0.2-0.1-0.2-0.2c0,0,0-0.1,0-0.1c0,0,0-0.1,0-0.2c0,0,0-0.1,0-0.1
		c0.1-0.1,0.1-0.2,0.1-0.2l0,0c0.1,0,0.1-0.1,0-0.2l0.1,0c0-0.1,0.1-0.3,0.2-0.3c0,0,0.1-0.1,0.1-0.1c0,0,0.1-0.1,0.1-0.1
		c0,0,0.1-0.1,0.1-0.1c0,0,0.1-0.1,0.1-0.1c0,0,0-0.1,0-0.1l0.3-0.1c0.1-0.1,0.3-0.2,0.4-0.2c0.2,0,0.3-0.1,0.5-0.2
		c0-0.1,0.1-0.1,0.2-0.1l0.1-0.1c0.1-0.1,0.2-0.2,0.3-0.3l0.1-0.1l0-0.1c0,0,0.1,0,0.1,0c0,0,0-0.1,0-0.1l0.1,0
		c0-0.1,0.1-0.2,0.3-0.3l0.1-0.1l0.1-0.1c0.2-0.3,0.5-0.6,0.8-0.9c0,0,0.1-0.1,0.1-0.1c0-0.1,0-0.1,0.1-0.2l0.1-0.1c0,0,0.1,0,0.1,0
		c0,0,0-0.1,0-0.1c0,0,0.1,0,0.1,0l0.1-0.1c0-0.1,0.1-0.2,0.1-0.2l0.1-0.1c0,0,0-0.1,0-0.1l0.1-0.1l0.1-0.1c0-0.1,0.1-0.2,0.1-0.2
		l0.1-0.1c0-0.1,0.1-0.2,0.1-0.2c0-0.1,0-0.2,0.1-0.2c0-0.1,0-0.2,0.1-0.2c0-0.1,0-0.2,0.1-0.2c0-0.1,0-0.2,0.1-0.2
		c0-0.1,0-0.2,0.1-0.3c0-0.1,0-0.2,0.1-0.3c0-0.1,0-0.3,0-0.4c0.1-0.2,0.1-0.3,0.1-0.5c0-0.6,0-1.1-0.1-1.7
		c-0.1-0.1-0.1-0.1-0.1-0.2l-0.1,0c0-0.1,0-0.1,0-0.2c-0.2-0.3-0.3-0.6-0.5-0.9c-0.1-0.1-0.1-0.2-0.2-0.3c0.1-0.1,0.3-0.1,0.5,0
		l0.3,0c0,0,0,0,0.1,0c0,0,0,0.1,0,0.1c0.1,0.1,0.2,0.1,0.3,0.1h0l0,0c0.1,0.1,0.2,0,0.2,0.1c0.1,0.1,0.2,0,0.2,0.1h0
		c0,0,0.1,0.1,0.1,0.1l0,0c0,0,0.1,0.1,0.1,0.1l0,0c0,0.1,0.1,0.1,0.1,0v0l0.2,0.1c0.1,0.1,0.1,0.2,0.2,0.3c0.1,0.1,0.2,0.3,0.2,0.4
		l0.1,0.1c0,0,0,0,0,0c0,0-0.1,0-0.1,0c0,0.5,0,0.9-0.1,1.4l0,0c-0.1,0.1,0,0.3-0.1,0.4c-0.1,0.1-0.1,0.2-0.1,0.3c0,0,0,0.1,0,0.1
		c-0.1,0.1,0,0.2-0.1,0.2v0c-0.1,0.1-0.1,0.2-0.1,0.2v0c-0.1,0.1-0.1,0.1,0,0.2c0,0,0,0-0.1,0c-0.1,0.1-0.2,0.3-0.2,0.4
		c0,0.1,0,0.2-0.1,0.2c0,0.1,0,0.1-0.1,0.1c0,0.1-0.1,0.2-0.1,0.2c0,0.1,0,0.1-0.1,0.1c0,0.1-0.1,0.2-0.1,0.2c0,0.1,0,0.1-0.1,0.1
		l0,0.2c0,0-0.1,0-0.1,0c0,0,0,0.1,0,0.1c0,0-0.1,0-0.1,0c-0.1,0.1-0.2,0.2-0.2,0.3c0,0-0.1,0.1-0.1,0.1l0,0c0,0-0.1,0.1-0.1,0.1
		l0,0c-0.1,0.1-0.2,0.2-0.2,0.3c0,0-0.1,0.1-0.1,0.1c0,0-0.1,0.1-0.1,0.1l0,0c0,0-0.1,0.1-0.1,0.1l0,0c-0.3,0.5-0.9,0.7-1.1,1.2v0
		c0,0-0.1,0.1-0.1,0.1l0,0c0,0-0.1,0.1-0.1,0.1l0,0c-0.1,0.1-0.2,0.3-0.3,0.4c0,0-0.1,0.1-0.1,0.1l0,0.1c0,0,0,0.1-0.1,0.1
		c0,0-0.1,0.1-0.1,0.1l0,0c0,0.2,0.1,0.2,0.2,0.1l0,0l0,0c0.2-0.1,0.4,0,0.6-0.1l0,0l0,0c0.2-0.1,0.4,0,0.6-0.1l0,0h0
		c0.1,0,0.2,0,0.3-0.1h0c0.1-0.1,0.2,0,0.2-0.1h0c0.1-0.1,0.2,0,0.2-0.1c0.1-0.1,0.2,0,0.2-0.1h0c0.1-0.1,0.2,0,0.2-0.1l0,0
		c0,0,0.1-0.1,0.1-0.1c0.1-0.1,0.2,0,0.2-0.1c0.1-0.1,0.2,0,0.2-0.1l0,0c0,0,0.1-0.1,0.1-0.1h0c0-0.1,0.2-0.1,0.2-0.1
		c0.1-0.1,0.2,0,0.2-0.1l0,0c0.1,0,0.1-0.1,0.1-0.1c0,0,0-0.1,0-0.1h0l0.2,0c0.1-0.1,0.2-0.2,0.3-0.2c0.1-0.1,0.2-0.2,0.3-0.2
		c0-0.1,0.1-0.1,0.2-0.1l0.1-0.1c0-0.1,0.1-0.1,0.2-0.1l0.1-0.1c0-0.1,0.1-0.1,0.2-0.1l0.1-0.1c0.1-0.1,0.2-0.2,0.3-0.2
		c0.1-0.1,0.2-0.2,0.3-0.2c0-0.1,0.1-0.1,0.1-0.1c0-0.1,0.1-0.1,0.2-0.1c0-0.1,0.1-0.1,0.1-0.1c0-0.1,0.1-0.1,0.2-0.1c0,0,0,0,0-0.1
		c0,0,0.1,0,0.1,0c0.1-0.1,0.2,0,0.2-0.1l0,0c0,0,0.1-0.1,0.1-0.1c0.1-0.1,0.2,0,0.2-0.1l0,0c0.1-0.1,0.2,0,0.2-0.1h0
		c0.1-0.1,0.2,0,0.2-0.1l0,0h0c0.1,0,0.1,0,0.2-0.1c0,0,0.1,0,0.1,0c0,0,0,0,0,0l0,0h0c0.1-0.1,0.3,0,0.4-0.1l0,0h0.1
		c0.1-0.1,0.3,0,0.5-0.1c0.1-0.1,0.2-0.1,0.3,0l0.4,0c0,0,0.1,0,0.1-0.1c0,0,0,0,0.1,0l0,0.1c0.2,0,0.4,0,0.6,0.1l0.4,0
		c0.2,0.1,0.3,0.1,0.5,0c0,0,0,0,0,0c0.1,0.1,0.3,0,0.4,0.1l0,0l0,0c0.2,0.1,0.4,0,0.5,0.1c0.1,0,0.2,0,0.3,0c0,0,0,0,0,0
		c0.1,0,0.2,0,0.3,0.1c0.2,0,0.5,0,0.7,0.1c0.3,0.1,0.6,0.1,0.8,0.2l0.5,0.5l0.2,0.2c0.4,0.6,0.9,1.2,1.4,1.7l0.1,0.1
		c0,0.1,0.1,0.1,0.1,0.2c0.3,0.5,0.8,0.9,1.2,1.2c0.2,0.3,0.5,0.5,0.8,0.6c0.3,0.2,0.4,0.6,0.3,1c-0.1,0-0.1,0.1-0.1,0.2
		c-0.1,0-0.1,0.1-0.1,0.1l0,0c-0.1,0-0.1,0.1-0.1,0.2c-0.2,0.2-0.3,0.3-0.5,0.5c-0.5,0.3-0.9,0.6-1.4,1c-0.2,0.1-0.4,0.3-0.6,0.5
		c-0.6,0.4-1.2,0.9-1.6,1.5c-1.1,1.2-2.1,2.4-3,3.7c-0.1,0.1-0.1,0.2-0.2,0.3c-0.1,0.2-0.2,0.5-0.2,0.8c0,0.2,0,0.4,0,0.6
		c0,0.1,0.1,0.2,0.1,0.3c0,0,0,0,0,0.1c0,0.1,0,0.2,0,0.4c0.1,0.1,0,0.3,0.1,0.4v0c0.1,0.1,0.1,0.2,0.1,0.3l0,0c0,0,0,0,0,0
		c0,0.1,0.1,0.1,0.2,0.1c0,0,0,0,0,0c0,0.1,0,0.1,0,0.2c0.2,0.2,0.4,0.4,0.5,0.6c0.1,0.1,0.3,0.2,0.4,0.2c0.1,0,0.2,0,0.2,0.1
		c0.1,0,0.2,0,0.2,0.1c0.1,0,0.2,0,0.3,0.1c0.1,0.1,0.2,0,0.2,0.1c0.1,0,0.2,0,0.2,0.1c0.1,0,0.2,0,0.2,0.1h0l0,0
		c0.1,0.1,0.2,0,0.2,0.1c0.1,0,0.2,0,0.2,0.1c0.1,0,0.2,0,0.2,0.1c0.1,0,0.2,0,0.2,0.1c0.1,0,0.2,0.1,0.3,0.1c0.1,0.1,0.2,0,0.2,0.1
		h0c0,0.1,0.1,0.1,0.2,0c0,0,0,0,0,0c0,0,0,0,0,0.1c0.1,0,0.2,0.1,0.3,0.2c0.1,0,0.1,0.1,0.2,0.1c0.2,0.1,0.3,0,0.4-0.2
		c0-0.2,0-0.4,0.1-0.5c0-0.4,0-0.7,0-1.1v0c0,0,0.1,0,0.1,0v0c0,0,0,0,0,0c0,0,0,0,0-0.1c0,0,0-0.1,0-0.1c0.1-0.4,0.1-0.8,0-1.2
		c-0.1-0.1-0.3,0-0.5-0.1c0,0,0,0-0.1,0c0,0,0,0,0,0c-0.2-0.1-0.5,0-0.7-0.1l0,0l0,0c-0.3-0.1-0.6-0.1-0.9,0c0,0,0,0-0.1,0
		c0,0,0,0,0,0c-0.1,0.1-0.3,0-0.5,0.1h0c-0.1,0.1-0.3,0.1-0.5,0c0,0-0.1-0.1-0.1-0.1c-0.1-0.1,0-0.2-0.1-0.2c-0.1-0.1,0-0.3-0.1-0.3
		c0,0,0,0,0-0.1c0,0,0,0,0,0c0-0.1-0.1-0.2,0-0.3c0.1-0.1,0.2-0.2,0.3-0.1c0,0,0.1,0.1,0.1,0.1l0,0c0.6,0,0.3-0.4,0.3-0.6v0
		c-0.1-0.2,0-0.4-0.1-0.6c0-0.1,0-0.1,0-0.2c0.1-0.1,0-0.3,0.1-0.4c0.1-0.1,0.2-0.2,0.2-0.3c0,0,0.1-0.1,0.1-0.1l0,0
		c0.2-0.2,0.3-0.3,0.5-0.5c0,0,0.1-0.1,0.1-0.1c0,0,0.1-0.1,0.1-0.1l0.1-0.1c0,0,0.1-0.1,0.1-0.1l0.1-0.1c0,0,0.1-0.1,0.1-0.1
		c0,0,0.1-0.1,0.1-0.1c0,0,0.1-0.1,0.1-0.1c0.2-0.1,0.4-0.3,0.5-0.5l0,0c0.1,0,0.1-0.1,0.1-0.1c0,0,0.1-0.1,0.1-0.1l0,0
		c0,0,0.1-0.1,0.1-0.1c0.1-0.1,0.2-0.1,0.2-0.2l0,0l0.1,0c0.1-0.1,0.2-0.1,0.2-0.2c0-0.1,0.1-0.1,0.1-0.1c0.1-0.1,0.2-0.2,0.3-0.2
		c0-0.1,0.1-0.1,0.1-0.1c0-0.1,0.1-0.1,0.2-0.1c0-0.1,0.1-0.1,0.1-0.1c0.1-0.1,0.2-0.2,0.3-0.2c0-0.1,0.1-0.1,0.1-0.1
		c0,0,0-0.1,0-0.1l0.2,0c0-0.1,0.1-0.1,0.1-0.1c0,0,0-0.1,0-0.1l0.2,0c0.1-0.1,0.2-0.2,0.3-0.2c0-0.1,0.1-0.1,0.2-0.1
		c0-0.1,0.1-0.1,0.2-0.1c0-0.1,0.1-0.1,0.1-0.1c0-0.1,0.1-0.1,0.2-0.1c0-0.1,0.1-0.1,0.2-0.1c0,0,0-0.1,0-0.1l0.2,0
		c0-0.1,0.1-0.1,0.2-0.1c0,0,0.1-0.1,0.1-0.1l0.2,0c0,0,0,0,0-0.1l0,0c0.1,0,0.2,0,0.2,0l0,0c0.1-0.1,0.2,0,0.2-0.1l0,0l0,0
		c0.1-0.1,0.3,0,0.5-0.1l0,0l0,0c0.1-0.1,0.3,0,0.4-0.1l0,0l0,0c0.1,0,0.2-0.1,0.3-0.1c0.2-0.1,0.4-0.1,0.4-0.3v0
		c0.1-0.1,0.1-0.3,0-0.4v0c-0.1-0.2,0-0.5-0.1-0.8c0,0-0.1-0.1-0.1-0.1h0c0,0,0,0,0,0c0-0.6,0-1.2,0-1.8c0-0.1,0-0.1,0-0.2
		c-0.1-0.9-0.1-1.9,0-2.8c0.1-0.1,0-0.2,0.1-0.3l0,0c0.1,0,0.1-0.1,0.1-0.2c0,0,0,0,0-0.1c0,0,0-0.1,0-0.1c0-0.1,0.1-0.1,0-0.2
		l0.1,0c0-0.1,0-0.2,0.1-0.2c0-0.1,0-0.2,0.1-0.2c0-0.1,0-0.2,0.1-0.2c0-0.1,0-0.2,0.1-0.2l0.1-0.1c0-0.1,0-0.2,0.1-0.2l0-0.1
		c0,0,0.1-0.1,0.1-0.1c0.1-0.1,0-0.2,0.1-0.2c0.1-0.1,0-0.2,0.1-0.2c0.1-0.2,0.1-0.4,0.2-0.6c0.1-0.1,0.1-0.2,0.1-0.2
		c0,0,0-0.1,0-0.1c0.1-0.1,0-0.2,0.1-0.2c0,0,0-0.1,0-0.1c0.1-0.1,0.1-0.1,0-0.2c0,0,0,0,0,0c0,0,0-0.1,0-0.1c0,0,0.1,0,0.1,0
		c0,0,0-0.1,0-0.1c0.1-0.1,0.1-0.3,0-0.4c0,0,0.1,0,0.1-0.1c0,0,0-0.1,0-0.1c0.1-0.1,0-0.3,0.2-0.3c0,0.1,0,0.1,0,0.2l0.1,0.1
		c0.1,0,0.1,0.1,0.1,0.2c0.1,0.1,0.1,0.2,0.1,0.3l0,0c0,0,0,0.1,0,0.1c0,0.1,0.1,0.2,0.1,0.3c0,0,0,0,0,0c-0.1,0.1-0.1,0.2,0,0.2
		c0,0,0,0,0,0c-0.1,0.3,0.1,0.5,0.2,0.7c0,0,0,0.1,0,0.1c0.1,0.1,0,0.3,0.1,0.5c0,0,0,0.1,0,0.1c0,0.1,0,0.1,0.1,0l0,0
		c0,0-0.1,0-0.1,0c0,0.1,0,0.3,0.1,0.4c0,0,0,0.1,0,0.1c0.1,0.1,0,0.3,0.1,0.5c0,0,0,0.1,0,0.1c0.1,0.1,0,0.3,0.1,0.5
		c0,0.1,0,0.1,0,0.2c0.1,0.2,0,0.4,0.1,0.6c0,0,0,0.1,0,0.1c0.1,0.2,0,0.5,0.1,0.8c0,0.1,0,0.2,0,0.3c0,0,0.1,0,0.1,0
		c0,0.5,0,1.1,0,1.6c0,0.1,0,0.3,0,0.4c0,0.1,0,0.2,0,0.3c0,0.3,0,0.6-0.1,0.9v0c-0.2,0.2,0,0.5-0.1,0.7v0c-0.1,0.1,0,0.3-0.1,0.5
		c0,0,0,0.1,0,0.1c0,0,0,0,0,0c-0.1,0.1,0,0.2-0.1,0.3c-0.1,0.1,0,0.2-0.1,0.3c-0.1,0.1,0,0.2-0.1,0.3c-0.1,0.1,0,0.2-0.1,0.2
		c-0.1,0.1,0,0.2-0.1,0.2c0,0-0.1,0.1-0.1,0.1c-0.1,0-0.1,0.1-0.1,0.2c0,0,0,0,0,0l-0.1,0c0,0.1,0,0.1-0.1,0.1
		c0,0.1-0.1,0.2-0.1,0.2c0,0.1,0,0.1-0.1,0.1c0,0.1,0,0.1-0.1,0.1c0,0.1-0.1,0.1-0.1,0.1c0,0.1-0.1,0.1-0.1,0.1
		c0,0.1-0.1,0.1-0.1,0.1c-0.1,0.1-0.2,0.2-0.3,0.2v0c0,0-0.1,0-0.1,0.1c-0.1,0.1-0.2,0-0.2,0.1c-0.1,0-0.1,0.1-0.1,0.1
		c-0.1,0.1-0.2,0-0.2,0.1c-0.1,0-0.2,0-0.2,0.1c-0.1,0-0.2,0-0.2,0.1c-0.1,0-0.2,0-0.2,0.1c-0.1,0.1-0.2,0-0.2,0.1
		c-0.1,0.1-0.2,0-0.3,0.1c-0.1,0.1-0.2,0-0.3,0.1c-0.1,0.1-0.2,0-0.3,0.1h0c-0.1,0.1-0.2,0-0.3,0.1c0,0,0,0-0.1,0c0,0,0,0,0,0
		c-0.1,0.1-0.3,0-0.4,0.1c0,0,0,0-0.1,0c0,0,0,0,0,0c-0.1,0.1-0.3,0-0.5,0.1l0,0c-0.1,0.1-0.3,0-0.5,0.1h0c-0.2,0.1-0.4,0-0.6,0.1
		l0,0c-0.1,0.1-0.3,0-0.5,0.1c0,0,0,0,0,0c0,0,0,0,0,0c-0.1,0.1-0.3,0-0.4,0.1c-0.1,0.1-0.3,0-0.3,0.1c-0.1,0-0.2,0-0.2,0.1
		c-0.1,0-0.2,0-0.2,0.1c-0.1,0.1-0.2,0.1-0.3,0.2l0,0c0,0-0.1,0.1-0.1,0.1c-0.2,0.1-0.4,0.3-0.5,0.5c0,0-0.1,0.1-0.1,0.1
		c-0.1,0-0.1,0.2-0.1,0.2c0,0-0.1,0.1-0.1,0.1c-0.1,0.1,0,0.2-0.1,0.3c-0.1,0.1,0,0.2-0.1,0.3c-0.1,0.5-0.1,1,0,1.4c0,0,0.1,0,0.1,0
		v0c-0.1,0.2,0.1,0.3,0.1,0.4c0.1,0.1,0.2,0.3,0.3,0.3c0,0,0.1,0.1,0.1,0.1c0.1,0.1,0.2,0,0.3,0.1c0.1,0.1,0.3,0,0.4,0.1l0,0l0,0
		c0.2,0.1,0.4,0,0.6,0.1l0,0l0,0c0.6,0.1,1.2,0.1,1.8,0c0.1-0.1,0.3,0,0.4-0.1h0c0.1-0.1,0.3,0,0.3-0.1c0.1,0,0.2,0,0.2-0.1
		c0.1,0,0.2-0.1,0.3-0.2c0,0,0.1-0.1,0.1-0.1c0.2-0.1,0.3-0.3,0.4-0.4c0,0,0.1-0.1,0.1-0.1l0,0c0,0,0.1-0.1,0.1-0.1l0,0
		c0.1-0.1,0.2-0.2,0.2-0.3c0.1-0.1,0.2-0.2,0.2-0.3c0.1,0,0.1-0.2,0.1-0.2c0.1-0.1,0.1-0.1,0-0.2h0c0.1,0,0.1-0.1,0.2-0.1
		c0.1,0,0.1-0.2,0.1-0.2c0.1-0.1,0.2-0.2,0.2-0.3c0,0,0.1-0.1,0.1-0.1c0.1,0,0.1-0.1,0.1-0.1l0,0c0.1-0.1,0.2-0.2,0.3-0.3l0,0
		c0.1,0,0.1-0.1,0.1-0.1c0,0,0.1-0.1,0.1-0.1c0.1-0.1,0.2,0,0.2-0.1l0,0c0-0.1,0-0.1-0.1-0.1c-0.4,0-0.9,0-1.3,0.1c0,0,0,0-0.1,0
		c0,0,0,0,0,0c-0.2,0.1-0.5,0-0.7,0.1l0,0c-0.1,0.1-0.3,0-0.5,0.1h0c-0.1,0.1-0.2,0-0.3,0.1c0,0,0,0-0.1,0c0,0,0,0,0,0
		c-0.1,0.1-0.3,0-0.4,0.1c-0.5-0.1-1.1,0.1-1.4,0.6l0,0c-0.1,0-0.1,0.1-0.1,0.2c0,0,0,0,0,0c-0.1,0.1-0.2,0.3-0.4,0.3
		c0,0.1-0.1,0.1-0.1,0.1l-0.4,0.4c0,0.1-0.1,0.3-0.2,0.3c0,0.1,0,0.2-0.1,0.2c0,0.2-0.2,0.4-0.3,0.6c-0.1,0-0.2,0-0.2-0.1h0
		c0,0-0.1-0.1-0.1-0.1v0c-0.1-0.3-0.1-0.6,0-0.9l0,0c0.1-0.1,0.1-0.2,0.1-0.3c0,0,0-0.1,0-0.1l0,0c0-0.1,0-0.1,0-0.2
		c0,0,0.1,0,0.1,0l0,0c0.1-0.1,0.1-0.2,0.1-0.2c0.1,0,0.1-0.1,0.1-0.2c0.1,0,0.1-0.1,0.1-0.1c0.1,0,0.1-0.1,0.1-0.1
		c0.1,0,0.1-0.1,0.1-0.1c0,0,0.1-0.1,0.1-0.1c0.1-0.1,0.2,0,0.2-0.1c0.1,0,0.2,0,0.2-0.1c0.1,0,0.2,0,0.2-0.1c0.1,0,0.2,0,0.2-0.1
		l0,0c0.1,0,0.2,0,0.2-0.1c0.1-0.1,0.2,0,0.3-0.1c0.1-0.1,0.2,0,0.3-0.1c0.1-0.1,0.2,0,0.3-0.1c0.1-0.1,0.3,0,0.4-0.1
		c0.1-0.1,0.3,0,0.4-0.1l0,0l0,0c0.1-0.1,0.3,0,0.5-0.1c0.1-0.1,0.3,0,0.4-0.1h0c0.1-0.1,0.2,0,0.3-0.1c0.1-0.1,0.2,0,0.3-0.1
		c0.1-0.1,0.2,0,0.3-0.1c0.1-0.1,0.2,0,0.3-0.1c0.1,0,0.2,0,0.2-0.1l0,0c0.1,0,0.2,0,0.2-0.1c0.1-0.1,0.2,0,0.2-0.1h0
		c0.1-0.1,0.2,0,0.2-0.1l0,0c0.1-0.1,0.2,0,0.2-0.1c0.1-0.1,0.2-0.1,0.3-0.2h0c0.1-0.1,0.2,0,0.2-0.1c0.1,0,0.1-0.1,0.1-0.1
		c0,0,0.1-0.1,0.1-0.1c0,0,0.1-0.1,0.1-0.1l0.1,0c0-0.1,0.1-0.1,0.1-0.1c0-0.1,0.1-0.1,0.1-0.1c0.1-0.1,0.1-0.1,0.2-0.2
		c0-0.1,0.1-0.1,0.1-0.1c0-0.1,0-0.1,0.1-0.1c0-0.1,0.1-0.2,0.1-0.2c0-0.1,0-0.1,0.1-0.1c0-0.1,0.1-0.2,0.1-0.2c0-0.1,0-0.1,0.1-0.1
		c0-0.1,0-0.2,0.1-0.2c0-0.1,0-0.1,0-0.2c0,0,0.1,0,0.1-0.1c0.1,0,0.1-0.1,0.2-0.2c0,0,0-0.1,0-0.1c0-0.1,0-0.1,0.1-0.2
		c0,0,0-0.1,0-0.1c0-0.1,0-0.2,0.1-0.2c0,0,0-0.1,0-0.1c0-0.1,0.1-0.2,0.1-0.3c0,0,0-0.1,0-0.1c0-0.1,0-0.2,0.1-0.3c0,0,0-0.1,0-0.1
		c0-0.1,0-0.2,0-0.3c0-0.2,0-0.3,0-0.4C50.4,30.4,50.4,30.3,50.4,30.2C50.4,30.2,50.4,30.2,50.4,30.2z M9.5,20.9
		c-0.1,0-0.2-0.1-0.1-0.2c0.1-0.5,0.2-1,0.2-1.5c0-0.2,0-0.3,0-0.5c-0.1-0.3-0.1-0.6,0-0.9c0.1-0.1,0.2-0.1,0.2,0c0,0,0,0,0,0
		l0.1,0.2c0,0.1,0,0.2,0.1,0.2c0.1,0,0.2,0.1,0.3,0.1c0.1,0,0.3,0.1,0.4,0.1c0.4,0.2,0.5,0.3,0.4,0.7c0,0.1-0.1,0.2-0.1,0.3
		C10.5,19.9,9.9,20.3,9.5,20.9z M12.1,26.7c-0.1,0-0.2-0.1-0.3-0.1c-0.2-0.1-0.4,0-0.6,0.2c0,0-0.1,0-0.1,0.1
		c-0.1,0-0.2,0.1-0.2,0.1c-0.1-0.1,0-0.2,0-0.3c0.1-0.3,0.2-0.5,0.4-0.7c0.2-0.1,0.4,0,0.5,0.1c0.2,0.2,0.3,0.3,0.5,0.5
		C12.2,26.7,12.2,26.7,12.1,26.7z M13.8,15c0,0-0.1,0-0.1,0.1h-0.1c-0.1,0-0.1-0.1,0-0.2c0.1-0.2,0.2-0.4,0.4-0.6
		c0.4-0.3,0.8-0.6,1.2-0.7l0.9,0l0.2,0.2c-0.2,0-0.5,0-0.7,0.1c-0.4,0.1-0.7,0.3-1,0.5C14.4,14.8,14.1,14.8,13.8,15z M16.4,14.1
		c0,0.1-0.1,0.2-0.1,0.4c-0.2,0.5-0.6,0.9-1,1.2c-0.1,0-0.1,0.1-0.2,0.1c-0.1,0-0.2,0-0.3,0c-0.1,0-0.1-0.1-0.1-0.2
		c0,0,0-0.1,0.1-0.1c0.6-0.4,1.1-1,1.5-1.6C16.5,13.9,16.4,14,16.4,14.1z M36.1,25.1c0,0.1-0.1,0.1-0.2,0.1
		c-0.3-0.1-0.6-0.3-0.8-0.6c0,0-0.1-0.1-0.1-0.1v0c0,0-0.1-0.1-0.1-0.1l-0.1-0.1c0-0.1-0.1-0.2-0.1-0.2c0,0-0.1-0.1-0.1-0.1
		c-0.4-0.4-0.7-0.9-0.9-1.5c-0.2-0.5-0.3-1.1-0.3-1.6l0-0.7c0,0,0-0.1,0-0.1c-0.1-0.7,0-1.4,0.4-1.9c0.2-0.3,0.3-0.6,0.6-0.9
		c0,0,0.1-0.1,0.1-0.1c0,0,0,0,0.1-0.1c0.1-0.1,0.1-0.1,0.2-0.2c0,0,0.1-0.1,0.1-0.1s0.1-0.1,0.1-0.1l0,0c0,0,0.1-0.1,0.1-0.1
		s0,0,0,0c0,0,0.1-0.1,0.1-0.1c0,0,0,0,0.1,0c0,0,0.1,0,0.1,0c0,0,0.1,0.1,0.1,0.1c0,0.1,0,0.2,0,0.3c-0.1,0.5-0.3,0.9-0.5,1.4
		c-0.4,1.2-0.5,2.5-0.2,3.7c0.1,0.6,0.4,1.2,0.7,1.8c0.2,0.2,0.3,0.4,0.4,0.7c0.1,0.2,0.1,0.4,0.2,0.6C36.1,25,36.1,25,36.1,25.1
		C36.1,25.1,36.1,25.1,36.1,25.1z"/>
</g>
</svg>
