<?xml version="1.0" encoding="utf-8"?>
<!-- Generator: Adobe Illustrator 22.1.0, SVG Export Plug-In . SVG Version: 6.00 Build 0)  -->
<svg version="1.1" id="Layer_1" xmlns="http://www.w3.org/2000/svg" xmlns:xlink="http://www.w3.org/1999/xlink" x="0px" y="0px"
	 viewBox="0 0 46.8 43.6" style="enable-background:new 0 0 46.8 43.6;" xml:space="preserve">
<style type="text/css">
	.st0{fill:#FFFFFF;}
</style>
<g>
	<path class="st0" d="M0.3,9.5L0.3,9.5L0.3,9.5L0.3,9.5z"/>
	<path class="st0" d="M7.1,24.1L7.1,24.1L7.2,24l0,0l0,0c0.1,0,0.1-0.1,0.1-0.2c0.1-0.1,0-0.2,0.1-0.2c0.1-0.1,0.1-0.2,0-0.3
		c-0.2-0.1-0.5-0.1-0.7,0l0,0c-0.1,0.1-0.3,0-0.4,0.1c0,0,0,0-0.1,0s-0.1,0-0.2,0.1H5.4l0,0c-0.1-0.1-0.1-0.1-0.2-0.2
		s-0.1-0.2-0.3-0.1l0,0c0,0,0-0.1-0.1-0.1V23l-0.1-0.1c0-0.1,0-0.1,0-0.2c-0.1-0.1-0.1-0.2-0.1-0.3c-0.1-0.1-0.1-0.1-0.1-0.2
		c-0.1-0.1-0.1-0.2-0.1-0.3c-0.1-0.1-0.1-0.2-0.1-0.3c-0.1-0.1-0.1-0.2-0.1-0.3C4,21.2,4,21.1,4,21c-0.1-0.1-0.1-0.3-0.1-0.4
		c-0.2-0.4-0.3-0.8-0.3-1.2c0,0,0,0-0.1,0l0,0c0-0.1,0.1-0.3,0-0.4l0,0c-0.1-0.1,0-0.3-0.1-0.4l0,0l0,0c-0.1-0.1,0-0.3-0.1-0.5l0,0
		c-0.1-0.2,0.1-0.5-0.1-0.6l0,0C3,17.2,3.2,17,3,16.8l0,0c-0.1-0.2,0-0.5-0.1-0.7l0,0H2.8l0,0c0-0.1,0-0.1,0-0.2c0,0,0-0.1,0.1-0.1
		c0-0.6,0-1.1,0-1.7l0,0C3,14,2.9,13.9,3,13.8l0,0c0.1-0.1,0-0.3,0.1-0.4l0,0c0.2-0.4,0-0.7,0.1-1.1v-0.1c0,0,0,0,0-0.1V12
		c0-0.2,0.1-0.4-0.1-0.6l0,0l0,0c-0.1-0.1,0-0.3-0.1-0.3l0,0l0,0c0-0.1,0-0.2-0.1-0.2l0,0c0-0.1,0-0.2-0.1-0.2l0,0l0,0l-0.1-0.1H2.6
		c0-0.3-0.3-0.4-0.4-0.5L2.1,10l0,0l0,0l0,0c0-0.1-0.1-0.1-0.2-0.1l0,0C1.8,9.5,1.7,9.5,1.6,9.5c0-0.1-0.1-0.1-0.2-0.1l0,0l0,0
		C1.2,9.2,1.1,9.3,1,9.2c0,0,0,0-0.1,0l0,0c-0.1-0.1-0.2-0.1-0.3,0l0,0l0,0c-0.1,0-0.2,0.1-0.3,0.2c-0.1,0-0.1,0.1-0.1,0.2
		c-0.1,0.1,0,0.2-0.1,0.3c-0.1,0.3-0.1,0.6,0,0.8l0,0c0,0.1,0,0.2,0.1,0.2C0.2,11,0.3,11,0.4,11l0,0c0.1,0.1,0.2,0,0.3,0.1
		s0.2,0,0.3,0.1l0,0c0,0.1,0.1,0.1,0.2,0l0,0l0,0v0.1l0,0c0,0.1,0.1,0.1,0.2,0.1l0,0l0.1,0.1c0.1,0.1,0.1,0.2,0,0.3l0,0
		c0,0-0.1,0-0.1,0.1c-0.2,0-0.3,0-0.5,0c0,0,0,0-0.1,0v-0.1H0.7c-0.2-0.1-0.4-0.1-0.6,0C0,12.1,0,12.5,0,12.8c0,0.2,0.1,0.3,0.3,0.4
		h0.1l0,0h0.1h0.1c0.1,0,0.2,0,0.3,0s0.1,0.1,0.2,0.2H1c-0.3-0.1-0.5,0-0.7,0.1c0,0.1-0.1,0-0.2,0.1l0,0C0,13.7,0,13.8,0,13.8
		s0,0,0,0.1l0,0C-0.1,14-0.1,14,0,14.1l0,0c0,0.1,0.1,0.1,0.1,0.1c0,0.1,0.1,0.1,0.1,0.1l0,0l0,0c0.1,0.1,0.1,0.1,0.2,0l0,0l0,0l0,0
		c0.3-0.1,0.5-0.1,0.6,0.2l0,0c0,0,0,0,0.1,0v0.1c0,0.3,0,0.6,0.1,0.9l0,0l0,0c0,0,0,0.1,0.1,0.1l0,0c0,0.1,0,0.2,0,0.3v0.5v0.1l0,0
		l0.1,0.1c0,0.3,0,0.7,0,1c0,0-0.1,0-0.1,0.1v0.1c-0.1,0.1,0,0.3-0.1,0.4l0,0l0,0c-0.1,0.1,0,0.2-0.1,0.3l0,0C1,18.6,1,18.6,1,18.7
		l0,0c-0.1,0.1-0.1,0.1-0.1,0.2l0,0l0,0c-0.1,0.1,0,0.2-0.1,0.3l0,0c-0.1,0.1-0.1,0.1,0,0.2l0,0c0.2,0,0.4-0.1,0.4-0.3l0,0
		c0.1,0.3,0,0.6,0.2,0.8l0,0C1.5,20,1.5,20,1.6,20.1c0,0.1,0,0.2,0.1,0.2c0.1,0.1,0,0.3,0.1,0.4c0.1,0.2,0,0.5,0.1,0.7
		c0,0.1,0,0.1,0,0.2c0.1,0.2,0,0.5,0.1,0.7l0,0c-0.1,0.1-0.1,0.1-0.1,0.2c0,0.8,0,1.5,0.1,2.3c0,0,0,0,0,0.1l0,0
		c0.1,0.2,0,0.5,0.1,0.7l0,0l0,0c0,0.1,0,0.3,0.1,0.4l0,0l0,0c0,0.1,0,0.2,0.1,0.2c0.1,0.1,0,0.2,0.1,0.2l0.1,0.1l0.1,0.1l0,0
		c0.1,0.1,0.2,0,0.3,0.1H3c0.1,0,0.1-0.1,0.1-0.2c0.1-0.2,0.2-0.2,0.3,0l0,0C3.9,27,3.9,27.1,4,27.2l0,0c0.1,0.1,0,0.2,0.1,0.2l0,0
		l0,0c0,0.1,0.1,0.1,0.1,0.1l0,0c0,0,0.1,0.1,0.1,0c0,0,0,0,0-0.1c0,0,0,0,0-0.1l0,0c-0.1-0.1,0-0.3-0.1-0.4l0,0
		c-0.1-0.1,0-0.3-0.1-0.4v-0.1c0-0.2,0.1-0.2,0.2-0.1s0.1,0.1,0.2,0l0,0v0.1h0.1v0.1c0.2,0.1,0.3,0.3,0.5,0.3l0,0
		C5.3,27,5.5,27,5.8,27.1c0.4,0.3,0.3-0.1,0.4-0.2l0,0c0.2-0.5,0-1.1,0.1-1.6c0.1-0.1,0-0.2,0.1-0.3l0,0c0.1-0.1,0.1-0.2,0.1-0.2
		l0,0l0,0c0.1,0,0.1-0.1,0.1-0.2l0.1-0.1l0,0c0.1-0.1,0.2-0.2,0.2-0.3C7,24.2,7,24.2,7.1,24.1z"/>
	<path class="st0" d="M0.2,13.8L0.2,13.8L0.2,13.8L0.2,13.8z"/>
	<path class="st0" d="M25.4,42.9L25.4,42.9L25.4,42.9z"/>
	<path class="st0" d="M24.5,42.6L24.5,42.6C24.4,42.6,24.4,42.6,24.5,42.6L24.5,42.6z"/>
	<path class="st0" d="M25.4,42.9L25.4,42.9L25.4,42.9z"/>
	<path class="st0" d="M36.5,35c0.1-0.1,0.1-0.3,0-0.4l0,0c-0.1-0.1,0-0.2-0.1-0.3V34c-0.1-0.1-0.1-0.2-0.1-0.3
		c-0.1-0.1-0.1-0.1-0.1-0.2l-0.1-0.1c-0.1,0-0.2,0-0.2-0.1c-0.1,0-0.1,0-0.1-0.1l-0.1-0.1L35.5,33l-0.1-0.1c-0.1,0-0.1-0.1-0.1-0.1
		l-0.1-0.1h-0.1L35,32.5l0-0.1l-0.1-0.1c-0.1,0-0.1-0.1-0.1-0.2c-0.1-0.1-0.2-0.2-0.2-0.3c-0.1,0-0.1-0.1-0.1-0.2
		c-0.1,0-0.1-0.1-0.1-0.2c-0.1,0-0.1-0.1-0.1-0.2l0,0l0,0c0-0.1,0-0.2-0.1-0.2l0,0c0,0,0-0.1-0.1-0.1c0,0,0,0,0-0.1s0-0.2-0.1-0.2
		l0,0c0-0.1,0-0.2-0.1-0.2l0,0l0,0c0-0.1,0-0.2-0.1-0.2l0,0c-0.1-0.1,0-0.2-0.1-0.2c-0.1-0.1,0-0.2-0.1-0.3l0,0h-0.1
		c0-0.1,0-0.1,0-0.2h-0.1v-0.3c-0.1-0.2-0.2-0.4-0.2-0.6C33,28.3,33,28.2,33,28c-0.1-0.1-0.1-0.3-0.1-0.4c-0.1-0.2-0.1-0.5-0.1-0.7
		l-0.1-0.2c-0.2,0-0.3,0-0.5,0c0,0.1-0.1,0.1-0.2,0.1c-0.1,0.1-0.2,0.1-0.2,0.2s0,0.2-0.1,0.2c0,0.1,0,0.1,0,0.2h-0.1
		c0,0.1,0,0.2-0.1,0.2c0,0.1,0,0.3-0.1,0.4c0,0.4,0,0.8,0,1.2l0,0c0,0,0,0-0.1,0c0,0.1,0,0.3,0,0.4v0.1l0,0l0,0c0,0.1,0,0.3,0.1,0.4
		s0,0.2,0.1,0.3l0,0h0.1v0.1l0,0l0,0c0,0.1,0,0.1,0,0.2c0,0,0,0,0,0.1s0,0.2,0.1,0.2c0.1,0.1,0,0.2,0.1,0.3l0,0c0,0.1,0,0.2,0.1,0.2
		c0.1,0.1,0,0.2,0.1,0.3c0.1,0.1,0,0.2,0.1,0.2c0.1,0.1,0,0.2,0.1,0.2c0.1,0.1,0,0.2,0.1,0.3l0,0c0.1,0.1,0,0.2,0.1,0.2
		c0.1,0.1,0,0.2,0.1,0.3s0,0.2,0.1,0.3s0,0.2,0.1,0.3c0.1,0.3,0.1,0.7,0.1,1v0.1c-0.1,0.1,0,0.1-0.1,0.2l0,0
		c-0.1,0.2-0.2,0.4-0.2,0.5l0,0c-0.1,0.1-0.1,0.2-0.1,0.2l0,0c-0.1,0.1-0.1,0.1-0.1,0.2l0,0c-0.1,0.1-0.1,0.1-0.1,0.2l0,0
		c-0.1,0.1-0.1,0.1-0.1,0.2c0,0.1-0.1,0.1-0.1,0.2l0,0v0.1h-0.1c0,0.1,0,0.1,0,0.2h-0.1c0,0.1-0.1,0.2-0.2,0.3l-0.1,0.1
		c0,0.1-0.1,0.2-0.1,0.2v0.1h-0.1c-0.1,0.1-0.1,0.2-0.2,0.2c0,0.1-0.1,0.1-0.1,0.2v0.1h-0.1V38l0,0h-0.1c0,0.1-0.1,0.2-0.1,0.2
		c0,0.1,0,0.1,0,0.2h-0.1c0,0.1,0,0.1-0.1,0.1c0,0.1,0,0.2-0.1,0.2c0,0.1,0,0.2-0.1,0.2c0,0.1,0,0.2-0.1,0.2c0,0.1,0,0.1,0,0.2h-0.1
		c0,0.1,0,0.2-0.1,0.2c0,0.1-0.1,0.3-0.2,0.3c0,0.1-0.1,0.2-0.1,0.2c0,0.1,0,0.1-0.1,0.1c0,0.1,0,0.1-0.1,0.1c0,0.1-0.1,0.1-0.1,0.1
		c-0.1,0.1-0.2,0.1-0.3,0.1c-0.1,0-0.1,0-0.2,0s-0.2,0-0.3,0c-0.1,0-0.1-0.1-0.2-0.1c0,0,0,0-0.1,0l0,0c-0.1-0.1-0.2,0-0.3-0.1
		c-0.1-0.1-0.2,0-0.2-0.1c-0.1-0.1-0.2,0-0.2-0.1c-0.1-0.1-0.2-0.1-0.3-0.2l0,0l0,0c-0.1-0.1-0.2-0.1-0.3-0.1l0,0c0,0,0,0,0-0.1
		l-0.1-0.1l0,0l-0.1-0.1l0,0l0,0l0,0c0-0.1-0.1-0.1-0.2-0.1l0,0c-0.1-0.1-0.2-0.1-0.3-0.1c0,0,0,0-0.1,0l0,0c-0.1-0.1-0.3-0.1-0.4,0
		c0,0,0,0-0.1,0l0,0c-0.1,0-0.2,0-0.2,0.1l0,0c-0.1,0.1-0.2,0-0.2,0.1l0,0l0,0l-0.1,0.1l-0.1,0.1L25,39.7l0,0
		c-0.1,0.1-0.2,0.2-0.2,0.3l0,0c-0.1,0-0.1,0.1-0.1,0.2l0,0c-0.1,0.1-0.1,0.2-0.1,0.2c-0.1,0-0.1,0.1-0.1,0.2l0,0l0,0
		c0,0.1,0,0.2,0,0.3c-0.1,0-0.1,0-0.1,0s0,0,0,0.1l0,0c-0.1,0.2-0.1,0.5,0,0.7l0,0c0,0.1,0,0.2,0.1,0.2l0,0l0,0l0,0
		c0,0.1,0.1,0.1,0.1,0.1c0.1,0.1,0.2,0.2,0.3,0.2l0,0l0,0c0.1,0.1,0.1,0.1,0.2,0.1l0,0c0.1,0.1,0.3,0.1,0.4,0c0.1,0,0.1-0.1,0.1-0.2
		l0,0c0.1-0.1,0-0.2,0.1-0.3c0.1-0.2,0.2-0.4,0.3-0.6c0,0.5,0,1,0.1,1.5c0.3,0.2,0.5-0.1,0.6-0.3l0.1-0.1l0,0l0,0
		c0.1,0,0.1-0.1,0.1-0.2c0.1-0.1,0.2-0.3,0.3-0.4c0,0.2,0.2,0.4,0.4,0.5l0,0l0,0c0,0,0,0.1,0.1,0.1v0.1v0.1l0,0v0.1l0,0l0,0l0,0
		c0,0,0,0,0.1,0.1h0.1l0,0l0,0c0,0,0,0,0.1,0c0,0,0,0.1-0.1,0.1c0.1,0.1,0.4,0.1,0.5,0c0,0,0,0,0-0.1c0.1-0.1,0.2-0.1,0.3-0.1l0,0
		l0,0l0,0l0,0l0,0l0,0l0,0c0,0,0,0,0.1,0l0,0c0.1,0,0.1,0,0.2,0c0.1,0.1,0.1,0.1,0.2,0h0.1c0.2-0.1,0.4-0.1,0.4-0.3l0,0h0.8
		c0-0.1,0.1-0.1,0.2-0.1c0-0.1,0.1-0.1,0.1-0.2c0-0.3,0-0.6,0-0.9c0.1-0.1,0-0.2,0.1-0.3l0,0l0,0c0.1-0.1,0.1-0.1,0.1-0.2
		c0.1,0,0.2,0,0.2-0.1h0.1c0.1,0.1,0.2,0,0.3,0.1l0,0c0.2,0,0.1-0.1,0.1-0.2l0,0c0.1-0.1,0.1-0.2,0.1-0.3h0.1c0.1-0.1,0-0.3,0.1-0.4
		c0-0.1,0-0.3,0.1-0.4c0-0.2,0.1-0.4,0.2-0.5c0-0.1,0-0.2,0.1-0.2c0-0.1,0-0.2,0.1-0.2c0-0.1,0-0.1,0-0.2h0.1c0-0.1,0-0.2,0.1-0.2
		c0-0.1,0-0.2,0.1-0.2c0-0.1,0-0.2,0.1-0.2c0-0.1,0-0.2,0.1-0.2c0-0.1,0.1-0.3,0.2-0.3c0-0.1,0-0.2,0.1-0.2v-0.1h0.1v-0.1
		c0,0,0.1,0,0.1-0.1l0,0l0.1-0.1l0,0l0,0c0.1,0,0.1-0.1,0.1-0.2l0.1-0.1l0,0c0.1-0.1,0.1-0.2,0.2-0.3l0.1-0.1l0,0l0.1-0.1l0,0l0,0
		l0.1-0.1l0,0l0.1-0.1l0,0l0.1-0.1c0.1-0.1,0.2,0,0.2-0.1l0,0l0,0c0.1,0,0.2,0,0.2-0.1c0.1,0,0.2,0,0.3,0c0.1,0.1,0.2,0.1,0.3,0l0,0
		l0,0C36.3,35.4,36.5,35.2,36.5,35L36.5,35z"/>
	<path class="st0" d="M3.6,9.7c0.1,0.1,0.1,0.1,0.1,0.2c0.1,0,0.1,0.1,0.1,0.2h0.1c0,0.1,0,0.1,0,0.2C4,10.3,4,10.4,4,10.5
		c0.1,0,0.1,0.1,0.1,0.1c0.1,0,0.1,0.1,0.1,0.2h0.2v0.1C4.5,11,4.6,11,4.6,11l0,0l0,0c0.2,0.1,0.4,0,0.6,0.1c0.6,0,1.2,0,1.8,0.1
		l0,0c0.1,0.1,0.2,0.1,0.2,0.1l0,0l0.1,0.1l0,0c0.1,0,0.1,0.1,0.1,0.1h0.1v0.1c0.1,0,0.1,0.1,0.1,0.2c0.1,0,0.1,0.1,0.1,0.2h0.1
		c0,0.1,0,0.1,0,0.2c0,0,0,0,0,0.1l0,0c0,0.1,0.1,0.3-0.1,0.3H7.6c-0.4-0.1-0.8-0.1-1.2,0c-0.1,0-0.1,0-0.2,0s-0.1,0-0.1,0.1
		c-0.1-0.1-0.3-0.1-0.4,0s-0.2,0-0.2,0.1c-0.1,0-0.1,0.1-0.1,0.2l0,0l0,0c0,0,0,0,0,0.1l0,0c0.1,0.1,0,0.2,0.1,0.3l0,0l0,0
		c0,0.1,0.1,0.1,0.1,0.1l0,0C5.7,13.7,5.9,13.9,6,14l0.1,0.1l0,0c0.1,0.1,0.2,0.1,0.3,0l0,0l0,0l0,0c0.1,0,0.2,0,0.3-0.1l0,0v0.1
		c0.1,0,0.3,0,0.4-0.1l0,0l0,0c0.2-0.1,0.4,0,0.6-0.1l0,0l0,0c0.2-0.1,0.4,0,0.6-0.1l0,0l0,0c0.2-0.1,0.4,0,0.6-0.1
		c0.1-0.1,0.2,0,0.3-0.1l0,0c0.1,0,0.1-0.1,0.1-0.1l0.1-0.1l0,0c0.1-0.1,0.1-0.3,0.2-0.4c0.1-0.1,0-0.2,0.1-0.3l0,0l0,0
		c0.1-0.1,0-0.3,0.1-0.4l0,0l0,0v-0.1l0.1-0.1l0,0c0,0,0.1-0.1,0-0.1l0,0l0.1-0.2c0.1,0,0.1,0,0.2,0c0.1,0,0.1-0.1,0.1-0.1
		c0.1-0.1,0.2,0,0.2-0.1l0,0l0,0c0.1,0,0.2,0,0.2-0.1l0,0c0.1-0.1,0.2,0,0.2-0.1l0,0l0,0c0.1,0,0.2,0,0.3-0.1s0.2,0,0.3-0.1l0,0l0,0
		c0.1-0.1,0.3,0,0.4-0.1l0,0l0,0c0.1-0.1,0.3,0,0.4-0.1l0,0l0,0c0.1-0.1,0.3,0,0.5-0.1l0,0c0.1-0.1,0.3,0,0.4-0.1
		c0.1,0,0.2,0,0.2-0.1l0,0l0,0c0.1,0,0.1-0.1,0.1-0.1l0,0v-0.1h0.1l0.1-0.3h0.1l0,0c0.1-0.1,0.1-0.2,0.1-0.3c0,0,0,0,0-0.1l0,0
		c0.1-0.1,0-0.2,0.1-0.4c0,0,0,0,0-0.1l0,0c0.1-0.5,0.1-0.9,0-1.4V7.8c0,0,0,0-0.1,0l0,0L14,7.7V7.6l0.1-0.1l0,0l0.1-0.1
		c0.1-0.1,0.2,0,0.2-0.1l0,0l0,0l0,0c0.1,0,0.2,0,0.2-0.1l0,0c0.1-0.1,0.2,0,0.3-0.1l0,0l0,0C15,7,15.1,7.1,15.2,7l0,0l0,0
		c0.1,0,0.2,0,0.2-0.1l0,0l0,0c0.1,0,0.2,0,0.2-0.1l0,0c0.1-0.1,0.2,0,0.2-0.1c0.1-0.1,0.2,0,0.2-0.1c0.2-0.1,0.3-0.2,0.4-0.4l0,0
		c0.1-0.1,0-0.2,0.1-0.3c0.1-0.2,0.1-0.5,0-0.7l-0.1-0.1c0-0.1-0.1-0.1-0.2,0l0,0c-0.1,0-0.2,0-0.3,0c-0.1,0.1-0.3,0-0.5,0.1
		c-0.1,0.1-0.2,0-0.3,0.1l0,0c-0.1,0-0.2,0-0.2,0.1l0,0c-0.1,0.1-0.2,0-0.2,0.1l0,0l0,0c-0.1,0.1-0.2,0.1-0.3,0.2l0,0l-0.1,0.1
		c-0.1,0.1-0.2,0.1-0.1,0.2l0,0c-0.2,0.2-0.4,0.3-0.5,0.4c0,0-0.1,0.1-0.1,0.2c-0.1-0.1-0.3,0-0.4-0.1l0,0C13.1,6.4,13,6.4,13,6.4
		h-0.1h-0.1l-0.1-0.1c-0.1,0-0.2,0-0.3-0.1h-0.3c-0.4,0.1-0.8,0.1-1.2,0.1l-0.1-0.1c-0.1,0-0.2,0-0.2-0.1c-0.1,0-0.2,0-0.2-0.1h-0.1
		l0,0C10,5.6,9.5,5.4,9.1,5.4l0,0c-0.2-0.1-0.4-0.1-0.5,0l0,0c-0.1,0-0.1,0-0.1,0.1C9.1,5.4,9,5.4,9,5.4c-0.1,0.1-0.2,0-0.3,0.1l0,0
		c-0.1,0-0.2,0-0.2,0.1c0,0,0,0-0.1,0l0,0c-0.1,0-0.2,0-0.3,0.1c0,0,0,0-0.1,0l0,0c-0.1,0-0.2,0-0.3,0.1l0,0l0,0
		C7.6,5.9,7.5,5.9,7.4,6l0,0C7.3,6.1,7.1,5.9,7,6.1l0,0c-0.1,0-0.1,0.1-0.2,0.1H6.7c0,0.1,0,0.1-0.1,0.1c0,0.2,0,0.3,0,0.5
		c0.1,0.2,0,0.3-0.2,0.3v0.1H6.3v0.1L6,7.3c0,0.1-0.1,0.1-0.2,0.1c0,0.1-0.1,0.1-0.2,0.1C5.5,7.6,5.4,7.7,5.3,7.7
		c-0.1,0-0.1,0.1-0.2,0.1c0,0.1-0.1,0.1-0.2,0.1S4.7,8,4.6,8c0,0.1-0.1,0.1-0.2,0.1C4.3,8.2,4.2,8.2,4.1,8.2c0,0.1-0.1,0.1-0.2,0.1
		L3.8,8.4c0,0.1-0.1,0.1-0.2,0.1c0,0.1-0.1,0.1-0.1,0.1c0,0.2,0,0.5,0,0.7C3.6,9.4,3.6,9.5,3.6,9.7z"/>
	<path class="st0" d="M9.7,13.5L9.7,13.5L9.7,13.5z"/>
	<path class="st0" d="M5.7,12.7L5.7,12.7L5.7,12.7z"/>
	<path class="st0" d="M16.6,23.3L16.6,23.3L16.6,23.3L16.6,23.3z"/>
	<path class="st0" d="M42.7,42.9L42.7,42.9L42.7,42.9z"/>
	<polygon class="st0" points="31.5,15.5 31.4,15.5 31.4,15.5 	"/>
	<path class="st0" d="M44.2,13.1L44.2,13.1L44.2,13.1L44.2,13.1z"/>
	<path class="st0" d="M38.5,42.9L38.5,42.9L38.5,42.9L38.5,42.9z"/>
	<path class="st0" d="M46.7,15L46.7,15c-0.1-0.1,0-0.3-0.1-0.4l0,0c-0.1-0.1,0-0.3-0.1-0.4l0,0l0,0c0-0.1,0-0.2-0.1-0.2
		c0,0-0.1-0.1-0.1-0.2v-0.1c-0.1,0-0.1-0.1-0.1-0.2c-0.1,0-0.1-0.1-0.1-0.2l0,0l0,0c0-0.1,0-0.2-0.1-0.2l0,0c0-0.1-0.1-0.1-0.1-0.1
		c-0.1,0,0-0.1-0.1-0.2l0,0l0,0l-0.1-0.1c-0.1,0,0-0.2-0.1-0.2l0,0l0,0c0-0.1-0.1-0.1-0.1-0.1l0,0l0,0l-0.1-0.1l0,0l-0.1-0.1
		l-0.1-0.1L45.1,12l0,0L45,11.9l0,0l-0.1-0.1l0,0c0,0,0,0-0.1,0c0,0,0,0,0-0.1l0,0l0,0l0,0c-0.1-0.1-0.2-0.1-0.3-0.2l0,0
		c-0.1-0.1-0.2-0.2-0.3-0.2l0,0l0,0c0-0.1-0.2-0.1-0.2-0.1c-0.1-0.1-0.2-0.1-0.2-0.1C43.7,11,43.6,11,43.6,11l0,0
		c-0.1-0.1-0.1-0.1-0.2-0.1l0,0l0,0c-0.1-0.1-0.2,0-0.3-0.1l0,0c-0.1-0.1-0.2,0-0.3-0.1l0,0l0,0c-0.1-0.1-0.3,0-0.4-0.1
		c-0.1-0.1-0.3,0-0.4-0.1l0,0c-0.2-0.2-0.5,0-0.7-0.1h-0.1l0,0c-0.2-0.1-0.5-0.1-0.7,0c-0.1,0-0.1,0-0.2-0.1c-0.5,0-0.9,0-1.4,0.1
		c0,0,0,0-0.1,0l0,0c-0.2,0.1-0.5,0-0.7,0.1l0,0c-0.1,0.1-0.3,0-0.4,0.1c-0.1,0.1-0.3,0-0.4,0.1c-0.1,0.1-0.2,0-0.3,0.1l0,0l0,0
		c-0.1,0-0.2,0-0.3,0.1c0,0,0,0-0.1,0s-0.2,0-0.3,0.1s-0.2,0-0.3,0.1l0,0l0,0c-0.1,0-0.2,0-0.2,0.1l0,0c-0.1,0.1-0.2,0-0.2,0.1
		l-0.1,0.1h-0.1l0,0c0,0,0,0-0.1,0c0,0,0,0,0,0.1l0,0h-0.1c0,0.1-0.1,0-0.2,0.1c0,0,0,0-0.1,0s-0.1,0-0.1,0.1v0.1h-0.2v0.1h-0.1
		h-0.1V12h-0.1c0,0.1-0.1,0.1-0.2,0.1L34,12.2c0,0.1-0.1,0.1-0.2,0.1l-0.1,0.1c0,0.1-0.1,0.1-0.2,0.1l-0.1,0.1l-0.1,0.2l0,0h-0.2
		v0.1H33c0,0.1-0.1,0.1-0.1,0.1c-0.1,0.1-0.2,0.2-0.3,0.2l-0.1,0.1v0.1h-0.1c-0.1,0.1-0.1,0.1-0.2,0.2c0,0.1-0.1,0.1-0.1,0.1
		c0,0.1-0.1,0.1-0.1,0.1l-0.1,0.1l0,0h-0.1l0,0c-0.1,0-0.1,0.1-0.1,0.1l0,0l-0.1,0.1C31.1,14,31,14,31,14.1l0,0l-0.1,0.1
		c-0.1,0.1-0.2,0.1-0.3,0.2l0,0c-0.1,0.1-0.2,0.1-0.3,0.2c-0.1,0.1-0.2,0-0.2,0.1l0,0l0,0L30,14.8c-0.1,0.1-0.2,0-0.2,0.1l0,0
		c0,0,0,0-0.1,0.1c-0.1,0-0.1,0-0.2,0l0,0c-0.1,0.1-0.2,0-0.2,0.1l0,0l-0.1,0.1h-0.1l0,0c-0.1,0-0.1,0-0.2,0.1c-0.1,0-0.2,0-0.2,0.1
		l0,0c-0.1,0.1-0.2,0-0.2,0.1c0,0,0,0-0.1,0l0,0c-0.1,0-0.2,0-0.3,0.1c0,0,0,0-0.1,0c0,0-0.1,0-0.1,0.1l0,0c-0.1-0.1-0.3-0.1-0.4,0
		c0,0,0,0-0.1,0l0,0c-0.1,0.1-0.3,0.1-0.4,0h-0.1l0,0c-0.1-0.1-0.2,0-0.3-0.1l0,0c0-0.1-0.1-0.1-0.2-0.1l0,0l0,0h-0.1l0,0v-0.1
		c-0.1,0-0.1-0.1-0.1-0.2l-0.1-0.1H26c0-0.1,0-0.1-0.1-0.1c0-0.1,0-0.1,0-0.2h-0.1c0-0.1,0-0.1,0-0.2c-0.1,0-0.1-0.1-0.1-0.2
		c-0.1-0.1-0.1-0.2-0.1-0.3L25.5,14l0,0h0.1c0-0.3,0-0.5,0-0.8l0,0c0.1,0,0.1-0.1,0-0.2c0,0,0,0,0.1,0c0-0.1,0-0.1,0.1-0.1
		c0.1-0.2,0.3-0.3,0.4-0.3c0.1-0.1,0.2-0.1,0.3-0.2l0.5-0.1c0.1-0.1,0.2-0.1,0.3-0.1l0.1-0.1c0,0,0.1,0,0.1-0.1v0.1
		c0.2,0,0.3,0.1,0.5,0l0,0l0,0c0.1-0.1,0.3,0,0.4-0.1l0.1,0.1c0.6,0,1.1,0,1.7-0.1l0,0l0,0c0.1-0.1,0.3,0,0.5-0.1v-0.1H31
		c0,0,0,0,0-0.1c0.1,0,0.1,0,0.2,0c0.1-0.1,0.2,0,0.2-0.1l0,0l0.1-0.1l0.1-0.1l0.1-0.1l0.1-0.1c0.1,0,0.1-0.1,0.1-0.2l0,0
		c0.1-0.1,0-0.2,0.1-0.3c0.1-0.2,0-0.4,0.1-0.6c0-0.8-0.1-1.5,0.1-2.3c0,0,0.1-0.1,0.1-0.2c0,0,0,0,0.1,0c0.1-0.1,0-0.2,0.1-0.2l0,0
		c0-0.1,0-0.1-0.1-0.1h-0.1l-0.1,0.1l0,0l0,0l0,0c-0.1,0-0.1,0-0.2,0.1l0,0l-0.1,0.1l0,0c0,0.1-0.1,0.1-0.2,0.1l0,0l-0.1,0.1l0,0
		c0,0.1-0.2,0-0.2,0.1l0,0L31.3,8l-0.1,0.1l-0.1,0.1L31,8.3c-0.1,0-0.1,0.1-0.1,0.2l0,0c0.1,0,0,0.1,0,0.1c0-0.3-0.1-0.6,0-0.8l0,0
		C31,7.7,31,7.5,31,7.4l0,0l0,0c0.1,0,0.1-0.1,0.1-0.2l0,0l0.1-0.1c0.1-0.1,0.2,0,0.2-0.1l0,0l0,0l0.1-0.1l0.1-0.1l0,0l0,0l0,0l0,0
		h0.1l0.1-0.1l0.1-0.1l0,0c0-0.1,0-0.1-0.1-0.1h-0.1c-0.1,0.1-0.2,0-0.3,0.1c0,0,0,0-0.1,0l0,0h-0.1l0,0h-0.1H31l0,0l0,0
		c-0.1,0-0.1,0-0.2,0.1l0,0l0,0c-0.1,0-0.2,0-0.2,0.1c-0.1,0.1-0.2,0-0.2,0.1c-0.1,0.1-0.2,0-0.2,0.1l0,0c-0.1,0.1-0.2,0.1-0.3,0.2
		l0,0c-0.1,0.1-0.1,0.1-0.2,0.2l0,0l0,0c-0.1,0-0.1,0.1-0.1,0.2c-0.1,0.1-0.1,0.2-0.1,0.2l0,0c-0.1,0.1,0,0.2-0.1,0.3l0,0
		c-0.1,0.1,0,0.3-0.1,0.5v0.1c-0.1,0.1,0,0.2-0.1,0.2c0,0.1-0.1,0-0.2,0.1l0,0c-0.2,0.1-0.3,0-0.2-0.2l0,0c0.1-0.1,0.1-0.1,0.1-0.2
		l0,0C29,8.5,29,8.4,29,8.3l0,0l0,0c0.1-0.1,0.1-0.2,0.1-0.2V8c0.1-0.1,0-0.2,0.1-0.2l0,0V7.7c-0.1,0-0.1,0-0.2,0l0,0l-0.1,0.1
		c-0.1,0.1-0.2,0.1-0.3,0.2l0,0l-0.1,0.1l0,0l-0.1,0.1c0,0.1-0.1,0-0.2,0.1l0,0l0,0l-0.1,0.1l0,0L28,8.5l0,0c0,0.1-0.2,0-0.2,0.1
		l0,0c-0.1,0-0.2,0-0.2,0.1l0,0l0,0c-0.1,0-0.2,0-0.2,0.1l0,0v0.1h-0.2C27.2,9,27.1,9,27,9v0.1h-0.1c0,0.1-0.1,0.1-0.2,0.1
		c-0.1,0.1-0.2,0.2-0.3,0.2c0,0.1-0.1,0.1-0.1,0.1c0,0.1-0.1,0.1-0.2,0.1L26,9.7v0.1h-0.1c0,0.1-0.1,0.1-0.1,0.1
		c-0.1,0.1-0.2,0.2-0.3,0.3c0,0.1,0,0.1-0.1,0.1c0,0.1,0,0.1-0.1,0.1c0,0.1-0.1,0.2-0.1,0.2c0,0.1,0,0.1-0.1,0.1
		c0,0.1,0,0.2-0.1,0.3c0,0.1,0,0.1,0,0.2l-0.1,0.1c0,0.2,0,0.3,0,0.5l0,0h-0.1c-0.1,0.6-0.1,1.2,0,1.8c0.1,0.1,0,0.2,0.1,0.3
		c0.1,0.2,0,0.4,0.1,0.6v0.1c0,0,0,0.1,0.1,0l0,0c0,0.1,0,0.3,0,0.4c0.1,0.1,0.1,0.2,0.1,0.3h0.1c0,0.1,0,0.1,0,0.2
		c0.1,0,0.1,0.1,0.1,0.2c0.1,0,0.1,0.1,0.1,0.2c0.1,0,0.1,0.1,0.1,0.1h0.1l0,0c0,0.2,0.2,0.3,0.3,0.4l0,0c0.1,0.1,0.2,0.1,0.2,0.1
		l0,0c0.2,0.1,0.4,0,0.5,0.1l0,0l0,0c0.3,0.1,0.7,0.1,1.1,0l0,0l0,0c0.2-0.1,0.5,0,0.7-0.1c0,0,0,0,0-0.1l0,0c0.1,0,0.3,0,0.4-0.1
		s0.2,0,0.3-0.1l0,0l0,0c0.1,0,0.2,0,0.3-0.1c0.1-0.1,0.2,0,0.3-0.1l0,0l0,0c0.1,0,0.2,0,0.2-0.1c0.1-0.1,0.2,0,0.2-0.1l0,0l0.1-0.1
		h0.1c0-0.1,0.1-0.1,0.2-0.1l0.1-0.1c0,0,0,0,0-0.1l0,0h0.1h0.1l0,0l0,0c0,0,0.1,0,0.1-0.1c0.1-0.1,0.2-0.1,0.3-0.2l0.1-0.1l0,0
		c0-0.1,0.1-0.1,0.1-0.1c0.1-0.1,0.2-0.2,0.3-0.4c0,0,0,0,0.1,0c0.1-0.1,0.2-0.1,0.2-0.3c0.2-0.1,0.3-0.3,0.5-0.3
		c0-0.1,0.1-0.1,0.1-0.1c0-0.1,0.1-0.1,0.1-0.1c0-0.1,0.1-0.1,0.2-0.1l0.1-0.1v-0.1h0.1h0.1l0.1-0.1h0.1l0.1-0.1
		c0-0.1,0.1-0.1,0.2-0.1c0-0.1,0.1-0.1,0.2-0.1v-0.1h0.1v-0.1l0,0c0.1,0.1,0.1,0,0.2,0l0,0c0.1-0.1,0.2,0,0.2-0.1l0,0
		c0.1-0.1,0.2,0,0.2-0.1l0,0c0.1-0.1,0.2,0,0.2-0.1l0,0c0.1-0.1,0.2,0,0.2-0.1l0,0c0.1-0.1,0.2,0,0.2-0.1l0,0c0.1-0.1,0.2,0,0.2-0.1
		c0.1-0.1,0.2,0,0.2-0.1c0.1-0.1,0.2,0,0.3-0.1l0,0c0.1,0,0.2,0,0.2-0.1l0,0l0,0h0.1c0.1,0,0.1,0,0.2-0.1l0,0l0,0
		c0.1,0,0.2,0,0.2-0.1l0,0l0,0c0.1,0,0.2,0,0.3-0.1s0.2,0,0.3-0.1s0.2,0,0.3-0.1l0,0l0,0c0.1-0.1,0.3,0,0.4-0.1
		c0.1-0.1,0.3,0,0.4-0.1c0.2-0.1,0.4,0,0.5-0.1l0,0c0,0,0.1,0,0.1-0.1c0.2,0.1,0.5,0,0.7,0l0,0c0.4-0.1,0.8-0.1,1.2,0l0,0l0,0
		c0.2,0.1,0.4,0.1,0.6,0.2l0,0l0,0c0.1,0.1,0.2,0,0.3,0.1s0.2,0,0.2,0.1l0.1,0.1l0,0l0,0c0,0.1,0.1,0.1,0.2,0.1l0,0l0,0
		C42.8,12,43,12,43,12l0.1,0.1l0,0c0.1,0.1,0.2,0.1,0.3,0.2l0,0l0,0l0,0l0,0l0,0c0,0,0,0,0,0.1l0,0l0.1,0.1l0,0
		c0,0.1,0.1,0.1,0.1,0.1l0,0c0,0.1,0.1,0.1,0.1,0.1l0,0c0,0.1,0.1,0.1,0.1,0.1l0.1,0.1l0,0l0,0l0,0C43.9,13,44,13,44,13l0,0l0.1,0.1
		l0,0l0.1,0.1l0.1,0.1c0.1,0,0,0.1,0.1,0.2l0,0l0,0c0,0.1,0.1,0.1,0.1,0.1l0,0c0,0.1,0,0.2,0.1,0.2l0,0l0,0c0,0,0,0.1,0.1,0.1
		c0.1,0.1,0,0.2,0.1,0.2l0,0c0.1,0.1,0,0.2,0.1,0.2l0,0c0.1,0.1,0,0.2,0.1,0.2c0,0,0,0,0,0.1l0,0c0,0,0,0.1,0.1,0.1l0,0v0.2
		c0.1,0.1,0.1,0.3,0.1,0.4c0.1,0.5,0.1,0.9,0,1.4c0,0.1,0,0.2-0.1,0.3c0,0.1,0,0.2,0,0.3H45v0.1v0.1h-0.1c0,0.1,0,0.1-0.1,0.1
		c0,0.1-0.1,0.2-0.1,0.2c0,0.1,0,0.1-0.1,0.1c-0.2,0.3-0.4,0.6-0.7,0.8c0,0.1-0.1,0.1-0.1,0.1c0,0.1-0.1,0.1-0.1,0.1V19l-0.3,0.1
		c0,0.1-0.1,0.1-0.2,0.1c0,0.1-0.1,0.1-0.1,0.1c0,0.1-0.1,0.1-0.2,0.1c0,0.1-0.1,0.1-0.2,0.1c0,0.1-0.1,0.1-0.2,0.1
		c0,0.1-0.1,0.1-0.2,0.1c0,0.1-0.1,0.1-0.2,0.1c-0.1,0.1-0.2,0.1-0.3,0.1C41.7,20,41.7,20,41.6,20c-0.1,0.1-0.2,0.1-0.3,0.1
		c-0.1,0.1-0.2,0.1-0.3,0.1c-0.1,0.1-0.1,0.2-0.1,0.3C41,20.8,41,20.9,41,21c0.1,0.3,0.1,0.6,0,0.9c0,0.1,0,0.2-0.1,0.3
		c0,0.1-0.1,0.3-0.1,0.4c-0.1,0-0.1,0.1-0.1,0.2l0,0c0,0,0,0-0.1-0.1c0,0,0,0-0.1,0c0-0.1,0-0.2,0-0.3l0.1-0.1c0-0.1,0-0.3,0-0.4
		h-0.1c0-0.3-0.1-0.6-0.1-0.9l-0.2-0.3l-0.1-0.3c-0.1-0.1-0.2-0.2-0.2-0.3c-0.1,0-0.1-0.1-0.1-0.1c-0.1,0-0.1-0.1-0.1-0.1
		c-0.1,0-0.1,0-0.1-0.1c-0.1,0-0.2-0.1-0.3-0.2c-0.1,0-0.1,0-0.1-0.1c-0.1,0-0.1,0-0.1-0.1c-0.1,0-0.2-0.1-0.2-0.1
		c-0.1,0-0.1,0-0.1-0.1c-0.1-0.1-0.3-0.2-0.4-0.2c-0.1,0-0.2,0-0.2-0.1c-0.1,0-0.2,0-0.2-0.1h-0.2v-0.1h-0.3l0,0c0,0,0-0.1-0.1-0.1
		h-0.1c-0.8-0.1-1.6-0.1-2.4,0l0,0c-0.1,0.1-0.3,0-0.4,0.1l0,0c-0.1-0.1-0.3-0.1-0.4,0H34c-0.1,0.1-0.2,0-0.3,0.1l0,0
		c-0.1,0-0.2,0-0.3,0h-0.1c-0.1,0.1-0.3,0-0.4,0.1h-0.1c0,0,0,0,0,0.1c0,0,0,0-0.1,0h-0.1h-0.1h-0.1l0,0c-0.1,0-0.1,0-0.2,0.1
		c-0.1,0.1-0.2,0-0.3,0.1l0,0c-0.1,0.1-0.2,0-0.3,0.1l0,0c-0.1,0.1-0.2,0-0.3,0.1c0,0,0,0-0.1,0c-0.1,0.1-0.2,0-0.3,0.1
		c-0.1,0.1-0.3,0-0.4,0.1s-0.3,0-0.4,0.1H30c-0.1,0.1-0.3,0-0.4,0.1h-0.1c-0.2,0.1-0.4,0-0.6,0.1V20l0,0h-0.2v0.1V20
		c-0.1,0-0.2,0-0.3,0h-0.1c-0.2,0.1-0.5,0-0.7,0.1h-0.1c-0.2,0.1-0.5,0-0.8,0.1h-0.2c0,0,0,0,0,0.1c-0.5-0.1-0.9,0-1.4-0.1H25
		c-0.1,0-0.1-0.1-0.2,0l0,0l-0.2-0.1h-0.3V20c-0.1,0-0.2,0-0.2-0.1c-0.1,0-0.2,0-0.2-0.1c-0.1,0-0.1,0-0.1-0.1l-0.2,0.2
		c0,0.1,0,0.2-0.1,0.3c0,0.1,0,0.2-0.1,0.2c0,0.1,0,0.2-0.1,0.2c0,0.1,0,0.2-0.1,0.2v0.1h-0.1L23,21l0,0c-0.1,0.1-0.2,0.2-0.2,0.3
		l-0.1,0.1l-0.1,0.1l0,0l-0.1,0.1l0,0l-0.1,0.1l-0.1,0.1c0,0.1-0.1,0-0.2,0.1l0,0l0,0L22,22c-0.1,0.1-0.2,0-0.2,0.1
		c-0.1,0.1-0.2,0-0.2,0.1c0,0,0,0-0.1,0l0,0c-0.1,0.1-0.3,0-0.4,0.1c-0.2,0.1-0.4,0-0.5,0.1c0,0,0,0-0.1,0c0,0,0,0-0.1,0l0,0
		c-0.1,0-0.2,0-0.3,0.1c0,0,0,0-0.1,0c-0.1,0.1-0.3,0-0.4,0.1l-0.1,0.1c-0.1-0.1-0.2-0.1-0.3,0l0,0l0,0c-0.1,0.1-0.2,0-0.3,0.1
		c0,0,0,0-0.1,0l0,0c-0.1,0.1-0.3,0-0.4,0.1c-0.2,0.1-0.4,0-0.5,0.1l0,0c-0.2,0.1-0.4,0.1-0.6,0h-0.1c-0.2-0.1-0.4-0.1-0.5,0
		c-0.1,0-0.1,0.1-0.1,0.2l-0.1,0.1l0,0l0,0c-0.1,0-0.1,0.1-0.1,0.2l0,0l0,0c-0.1,0.1-0.1,0.2-0.1,0.3l0,0c0,0.1,0,0.2,0,0.3
		c0.1,0.1,0.1,0.2,0.1,0.3c0.1,0,0.1,0.1,0.1,0.2c0.1,0,0.1,0.1,0.1,0.2l0.1,0.1c0.1,0,0.1,0.1,0.1,0.2l0.1,0.1H17
		c0,0.1,0,0.1,0,0.2c0.2,0.2,0.3,0.4,0.3,0.7c0,0.2,0.1,0.3,0.1,0.5c0.1,0.1,0.1,0.1,0.1,0.2h-0.1c0,0.2,0,0.5-0.1,0.7
		c0,0.1,0,0.2-0.1,0.2c0,0.1,0,0.2-0.1,0.3c0,0.1,0,0.1,0,0.2H17c0,0.1,0,0.2-0.1,0.2c0,0.1,0,0.2-0.1,0.2c0,0.1,0,0.2-0.1,0.2
		c0,0.1,0,0.1,0,0.2h-0.1c0,0.1,0,0.2-0.1,0.2c0,0.1-0.1,0.3-0.2,0.3c0,0.1,0,0.2-0.1,0.2c0,0,0,0.1-0.1,0.1c0,0.1,0,0.1,0,0.2H16
		v0.1v0.1c0,0,0,0,0,0.1h-0.1c-0.1,0.1,0,0.2-0.1,0.3c-0.1,0.2,0,0.4-0.1,0.7c0,0,0,0,0,0.1c0.1,0.1,0.1,0.1,0.2,0l0,0
		c0.1-0.1,0.1-0.1,0.1-0.2l0,0c0.1-0.1,0.1-0.2,0.1-0.2l0.1-0.1l0,0l0.1-0.1l0,0c0.2-0.1,0.3-0.1,0.3,0.2h-0.1v0.2
		c0,0.1,0,0.1,0,0.2v0.2l0,0v0.1v0.1c0.1,0.1,0,0.2,0.1,0.2l0,0l0.1,0.1c0.4,0.2,0.2-0.2,0.3-0.3v-0.1c0.1-0.1,0-0.2,0.1-0.2
		c0.1-0.1,0.1-0.1,0-0.2l0,0l0.2-0.4h0.1v-0.1h0.1c0.1,0,0.1-0.1,0.1-0.1v0.1l0,0v0.1c0.1,0.1,0,0.2,0.1,0.3l0.1,0.1
		c0.1,0.1,0.3,0.1,0.4,0h0.4v-0.1l0,0h0.3h0.5h0.2v-0.1l0,0h0.3H20h0.1h0.2h0.2l0,0l0,0c0.1,0,0.3,0,0.4-0.1l0,0l0,0l0,0l0,0
		c0.1,0,0.3,0,0.4-0.1s0.2,0,0.2-0.1c0.1,0.1,0.1,0.1,0.2,0l0,0l0,0l0,0c0.1,0,0.2,0,0.3,0l0,0l0,0c0.1-0.1,0.3,0,0.3-0.1l0,0
		c0.1-0.1,0.2,0,0.3-0.1l0,0c0.1-0.1,0.2,0,0.3-0.1c0.1-0.1,0.2,0,0.3-0.1l0,0c0.1-0.1,0.2,0,0.2-0.1l0,0l0,0c0.1,0,0.2,0,0.2-0.1
		l0,0c0.1-0.1,0.2,0,0.2-0.1l0.1-0.1c0,0,0.1,0,0.1-0.1l0,0l0,0c0,0,0,0,0.1,0h0.1h0.1l0,0h0.1l0,0h0.1l0,0l0,0l0,0h0.2
		c0,0,0,0,0-0.1h0.4c0-0.1,0-0.1,0.1-0.2c0.2-0.1,0.5-0.3,0.7-0.4c0.1-0.1,0.2-0.2,0.3-0.4c0.1,0,0.1-0.1,0.2-0.1l0.1-0.1
		c0.2-0.3,0.4-0.5,0.7-0.7v-0.1h0.1l0,0l0.1-0.1l0.1-0.1v-0.1h0.1c0.1-0.1,0.1-0.1,0.2-0.2v-0.1l0,0l0,0l0.1-0.1L28,27l0.1-0.1
		l0.1-0.1l0.1-0.1l0.1-0.1l0.1-0.1l0,0c0,0,0.1,0,0.1-0.1l0,0l0.1-0.1c0.1-0.1,0.2-0.1,0.3-0.2l0,0c0.1,0,0.2,0,0.2-0.1l0,0l0,0
		c0.1,0,0.2,0,0.2-0.1c0.1-0.1,0.2,0,0.3-0.1l0,0l0,0c0.3-0.1,0.6-0.1,0.9,0l0,0c0.1,0.1,0.2,0,0.3,0.1l0,0l0,0C31,26,31,26,31.1,26
		l0,0l0,0c0,0.1,0.1,0.1,0.2,0.1l0,0c0,0.1,0.1,0.1,0.2,0.1l0.1,0.1l0,0c0,0.1,0.1,0.1,0.2,0.1c0,0,0,0,0,0.1c0.1,0,0.2,0.1,0.2,0.2
		c0.1,0.1,0.1,0.2,0.2,0.4v0.4c0,0.1,0.1,0.2,0.1,0.2c0,0.1,0,0.3,0,0.4c0.1,0.2,0.1,0.3,0.1,0.5c0.1,0.3,0.2,0.6,0.2,0.8
		c0.1,0.1,0.1,0.2,0.1,0.3c0.1,0.1,0.1,0.1,0.1,0.2h0.1c0,0.1,0,0.1,0,0.2c0.1,0.1,0.1,0.3,0.2,0.4c0.1,0,0.1,0.1,0.1,0.2
		c0.1,0.1,0.2,0.2,0.2,0.3c0.1,0,0.1,0.1,0.1,0.1h0.1v0.2l0.1,0.1c0.1,0,0.1,0.1,0.1,0.1l0.1,0.1c0.1,0.1,0.2,0.2,0.3,0.3
		c0.1,0,0.1,0,0.1,0.1c0.1,0,0.1,0,0.1,0.1l0.1,0.1c0.1,0,0.1,0.1,0.2,0.1c0.1,0,0.1,0,0.1,0.1c0.1,0,0.2,0,0.2,0.1l0.1,0.1
		c0.1,0,0.2,0,0.2,0.1c0.1,0,0.2,0,0.2,0.1l0.1,0.1h0.2V33h0.1v0.1c0.1,0,0.1,0.1,0.2,0.1h0.1v0.1h0.2v0.1l0.1,0.1l0.1,0.1h0.2v0.1
		l0.1,0.1l0.1,0.1h0.2V34l0.1,0.1l0.1,0.1l0.3,0.1v0.1h0.1v0.1l0.1,0.1c0.1,0,0.2,0.1,0.3,0.2l0.1,0.1l0.1,0.1l0.1,0.1l0.1,0.1
		l0.1,0.1c0.1,0.1,0.2,0.1,0.3,0.2l0.5,0.5l0.1,0.1l0.1,0.2l0.1,0.1c0.2,0.2,0.3,0.4,0.3,0.7s0,0.7,0,1v0.1H40c0,0.1,0,0.2-0.1,0.3
		c0,0.1,0,0.2,0,0.3l0,0h-0.1c0,0.1,0,0.2-0.1,0.3c0,0.1,0,0.1-0.1,0.1c0,0.1-0.1,0.2-0.2,0.2v0.1h-0.2l0,0l0,0
		c-0.1,0-0.2,0-0.3,0.1c0,0,0,0-0.1,0l0,0c-0.2,0.1-0.3,0-0.5,0.1h-0.1c-0.2,0-0.5,0-0.7,0c0,0,0,0-0.1,0l0,0c-0.3-0.1-0.6-0.1-1,0
		l0,0c-0.1,0.1-0.2,0-0.3,0.1c0,0,0,0-0.1,0l0,0c-0.1,0-0.1,0-0.2,0.1c-0.2,0.1-0.3,0.3-0.4,0.4l-0.1,0.1l0,0l0,0
		c-0.1,0-0.1,0.1-0.1,0.2l0,0c-0.1,0.1,0,0.2-0.1,0.2C35,40.9,35.1,41,35,41c-0.1,0.1,0,0.2-0.1,0.2l0,0c-0.1,0.2-0.1,0.4,0,0.6
		c0,0.1,0.1,0.1,0.1,0.2v0.1l0,0l0,0c0,0,0,0,0.1,0.1c0,0,0,0,0,0.1c0.1,0,0.1,0.1,0.1,0.1l0.1,0.1c0.1,0,0.1,0,0.1,0.1
		c0.1,0,0.2,0.1,0.2,0.1c0.1,0,0.2,0,0.2,0.1h0.3l0.1-0.1c0-0.4,0.1-0.8,0-1.3l0.1-0.1h0.1l0,0c0,0,0.1,0.1,0.2,0.1l0,0l0,0l0,0l0,0
		l0,0c0,0.1,0,0.1-0.1,0.2v0.1c0,0,0,0.1-0.1,0.1c0,0,0,0,0,0.1c-0.1,0.1-0.1,0.2,0,0.3l0,0c0,0.1,0,0.2,0.1,0.2l0,0l0,0
		c0,0.1,0.1,0.1,0.1,0.1l0,0c0.1,0.1,0.2,0.2,0.3,0.2l0,0c0.2,0.1,0.4,0.1,0.5,0l0.1-0.1c0.1-0.1,0-0.3,0.1-0.5c0,0,0,0,0-0.1l0,0
		c0.1-0.1,0.1-0.3,0-0.4l0.1-0.1l0,0c0,0,0,0,0.1,0l0,0l0,0l0.1,0.1l0,0l0,0l0.1,0.1c0.1,0.1,0,0.2,0.1,0.2c0.1,0.1,0,0.2,0.1,0.3
		s0,0.4,0.3,0.4l0,0l0,0l0,0v0.1c0.4,0.1,0.9,0.1,1.3,0l0,0l0,0c0.1-0.1,0.3,0,0.5-0.1l0,0c0.1-0.1,0.2,0,0.2-0.1l0,0l0,0l0.1-0.1
		l0.1-0.1l0,0c0.1,0,0.1-0.1,0.1-0.2l0,0l0,0c0-0.2,0-0.4,0.1-0.5v-0.1c0.1,0,0.2,0,0.2,0.1l0.1,0.1l0.1,0.1
		c0.1,0.1,0.2,0.3,0.4,0.2c0-0.3,0-0.6,0-0.8l0,0l0.1-0.1c0-0.4,0-0.7-0.1-1.1c0,0,0,0,0-0.1l0,0c-0.1-0.2,0-0.4-0.1-0.6
		c-0.1-0.1,0-0.2-0.1-0.2c0-0.1,0-0.1,0-0.2v-0.1c-0.1-0.1,0-0.2-0.1-0.3v-0.1c-0.1-0.1,0-0.2-0.1-0.3V38l0,0c0-0.1,0-0.2-0.1-0.3
		s0-0.3-0.1-0.4l0,0c-0.1-0.1,0-0.3-0.1-0.4v-0.1h-0.1v-0.4c-0.1-0.1-0.1-0.3-0.1-0.4c-0.1-0.1-0.1-0.3-0.1-0.4
		c-0.1-0.1-0.1-0.3-0.1-0.4c0,0,0,0-0.1,0v-0.1l0,0c0-0.1,0-0.2,0-0.3c0,0,0,0,0-0.1l0,0l0,0c0-0.1,0-0.3-0.1-0.4l0,0l0,0
		c-0.1-0.2,0-0.4-0.1-0.6l0,0c-0.1-0.1-0.1-0.2,0-0.3l0,0c0.1-0.1,0.1-0.2,0.1-0.2l0,0c0.1,0,0.1-0.1,0.1-0.2l0,0l0.1-0.1
		c-0.1-0.2-0.1-0.2,0.1-0.2c0-0.1,0.2-0.2,0-0.2c0,0,0,0-0.1-0.1c-0.1,0-0.1,0-0.1-0.1c-0.2-0.1-0.3-0.2-0.4-0.3
		C40,32,40,32,40,31.9c-0.1,0-0.1-0.1-0.1-0.1c-0.2-0.1-0.3-0.2-0.3-0.4c-0.1,0-0.1-0.1-0.1-0.1c-0.1,0-0.1-0.1-0.1-0.1
		c-0.1-0.1-0.2-0.2-0.2-0.3C41,31,41,31,41,30.9c-0.1,0-0.1-0.1-0.1-0.2c-0.1,0-0.1-0.1-0.1-0.1c-0.1-0.1-0.2-0.3-0.2-0.4
		c-0.1,0-0.1-0.1-0.1-0.2c-0.2-0.2-0.3-0.4-0.3-0.6C40,29.3,40,29.2,40,29.1h-0.1v-0.2h-0.1c0-0.1,0-0.2,0-0.3h-0.1
		c0.1-0.1,0.1-0.1,0-0.2c0,0,0,0,0-0.1l0,0h-0.1l0,0c0-0.1,0-0.2,0-0.3h-0.1v-0.1l0,0c0-0.2,0-0.5,0-0.7s0-0.4,0.1-0.6
		c0-0.1,0-0.1,0.1-0.1c0-0.1,0.1-0.2,0.2-0.3c0-0.1,0-0.1,0.1-0.1c0-0.1,0-0.1,0-0.2h0.1c0-0.1,0-0.2,0.1-0.3c0-0.1,0-0.3,0.1-0.4
		c0-0.1,0-0.2,0-0.3l0.1-0.2c0-0.3,0-0.5,0.1-0.8v-0.1l0,0h0.1v-0.1l0.1-0.1c0.2,0,0.4,0,0.6,0v-0.1h0.3c0-0.1,0.1-0.1,0.1-0.1
		c0.1-0.1,0.3-0.2,0.4-0.2c0,0,0,0,0-0.1h0.2c0-0.1,0.1-0.1,0.2-0.1c0-0.1,0.1-0.1,0.1-0.1c0-0.1,0.1-0.1,0.2-0.1l0.1-0.2h0.2
		l0.1-0.1v0.1l0.7-0.2c0.2-0.2,0.4-0.5,0.6-0.6l0.1-0.1c0-0.1,0-0.2,0-0.3c0.2-0.2,0.3-0.4,0.4-0.6c0.1,0,0.1-0.1,0.2-0.1
		c0-0.1,0-0.1,0.1-0.1c0-0.1,0.1-0.2,0.2-0.3c0-0.1,0.1-0.2,0.2-0.3c0.1-0.1,0.2-0.3,0.2-0.4s0-0.2,0.1-0.2c0-0.1,0-0.2,0.1-0.3
		c0-0.1,0-0.2,0.1-0.3c0-0.1,0-0.3,0.1-0.4c0-0.2,0-0.3,0-0.5l0.1-0.1c0-0.6,0-1.2,0-1.8c0-0.1,0-0.2,0-0.2l0,0l0.1-0.1
		C46.8,15.2,46.8,15.1,46.7,15z"/>
	<path class="st0" d="M13.7,42.3L13.7,42.3L13.7,42.3L13.7,42.3z"/>
	<path class="st0" d="M17.6,39.2c-0.1,0-0.1-0.1-0.1-0.1c-0.1,0-0.1-0.1-0.1-0.1h-0.1c0-0.1,0-0.1,0-0.2c-0.1,0-0.1-0.1-0.1-0.2
		c-0.2-0.2-0.4-0.5-0.4-0.8c-0.1,0-0.1-0.1-0.1-0.2c-0.1,0-0.1-0.1-0.1-0.2c-0.1-0.1-0.2-0.3-0.2-0.5c-0.1-0.2-0.2-0.3-0.2-0.5
		L16,36.1c0-0.1,0-0.1,0-0.2h-0.1l0,0l0,0c0-0.1,0-0.2-0.1-0.3l0,0l-0.1-0.1v-0.1c-0.1-0.1-0.1-0.2-0.1-0.3h-0.1l0,0c0,0,0,0,0-0.1
		v-0.1v-0.1l0,0l0,0c0-0.1,0-0.2-0.1-0.3l0,0l0,0c-0.1-0.1,0-0.2-0.1-0.3l0,0c-0.1-0.1,0-0.2-0.1-0.3l0,0c0-0.4-0.1-0.9-0.1-1.3
		c0,0,0,0-0.1,0v-0.3c0,0,0,0,0.1,0c0-0.2,0-0.4,0.1-0.5c0-0.3,0.1-0.5,0.2-0.7c0-0.2,0.1-0.4,0.2-0.5c0-0.2,0.1-0.3,0.1-0.5h0.1
		c0-0.1,0-0.1,0-0.2l0,0c0.1,0,0.1,0,0.2-0.1l0,0l0,0c0.1,0,0.1-0.1,0.1-0.2l0,0c0.1-0.1,0.1-0.2,0.1-0.2l0,0c0.1-0.1,0.1-0.2,0-0.3
		l0,0l0,0c-0.1-0.2-0.2-0.3-0.4-0.4l0,0c-0.1-0.1-0.3,0-0.4-0.1h-0.3c-0.1,0.1-0.2,0-0.3,0.1l0,0h-0.2l-0.1,0.1c0,0.1,0,0.2-0.1,0.2
		c0,0.1,0,0.3-0.1,0.4v0.3v0.1v0.1h-0.1c0,0.2,0,0.4-0.1,0.5c0,0.1,0,0.3-0.1,0.4c0,0.1,0,0.3-0.1,0.4c0,0.1,0,0.2-0.1,0.2
		c0,0.1-0.1,0.3-0.2,0.3c0,0.1,0,0.1-0.1,0.1L13.4,32c-0.1,0-0.1,0.1-0.2,0.2c0,0-0.1,0-0.1,0.1c-0.1,0-0.2,0.1-0.2,0.2l-0.1,0.1
		l-0.1,0.1l0,0c-0.1,0.1-0.1,0.1-0.2,0.2c-0.1,0.1,0,0.2,0,0.3l0,0c0,0.1,0,0.1,0,0.2c0.1,0.1,0,0.2,0.1,0.2c0,0,0,0,0,0.1v0.1v0.1
		c0,0,0,0,0,0.1l0,0c0,0.1,0,0.1,0.1,0.2c0.1,0.1,0,0.2,0.1,0.2c0.1,0.1,0,0.1,0.1,0.2c0.1,0.1,0,0.2,0.1,0.2
		c0.1,0.1,0.1,0.2,0.2,0.3l0,0l0.1,0.1c0.1,0.1,0.1,0.2,0.2,0.3l0,0c0,0.1,0.1,0.1,0.1,0.1l0,0l0.1,0.1l0,0l0.1,0.1l0.1,0.1l0,0
		c0.1,0,0,0.2,0.1,0.2l0,0l0.1,0.1c0.1,0.1,0,0.1,0.1,0.2l0,0l0,0l0.1,0.1c0.1,0.1,0,0.2,0.1,0.2l0,0l0,0c0.1,0.1,0.1,0.2,0.2,0.3
		c0.1,0.1,0,0.2,0.1,0.2c0.1,0.1,0,0.1,0.1,0.2c0,0,0,0,0,0.1c0,0,0,0.1,0.1,0.1c0,0.1,0,0.1,0,0.2c0,0.1,0,0.2,0.1,0.2
		c0,0,0,0,0,0.1l0,0c0.1,0.1,0,0.3,0.1,0.4l0,0c0.1,0.5,0,1.1,0.1,1.6l0,0l-0.1,0.1c0,0.1-0.1,0.2-0.2,0.2l-0.1,0.1h-0.2
		c0,0,0,0-0.1,0s-0.1,0-0.2,0c0,0-0.1-0.1-0.2-0.1c0,0,0,0-0.1,0l0,0c-0.1-0.1-0.2,0-0.3-0.1s-0.2,0-0.3-0.1l0,0
		c-0.1-0.1-0.2,0-0.3-0.1S12.9,40,12.9,40l0,0c-0.1-0.1-0.2,0-0.3-0.1c-0.1,0-0.1-0.1-0.2,0l0,0h-0.3c0,0,0-0.1-0.1-0.1l0,0h-0.1
		c-0.4-0.1-0.8-0.1-1.2,0c-0.1,0.1-0.2,0-0.2,0.1c-0.2,0.1-0.3,0.3-0.4,0.4C10,40.4,10,40.4,10,40.5c-0.1,0.1,0,0.3-0.1,0.4
		c0,0,0,0,0,0.1l0,0c-0.1,0.2-0.1,0.5,0,0.7v0.1c0.1,0.1,0,0.2,0.1,0.4l0,0c0,0,0,0.1,0,0.2l0,0c0.1,0.1,0,0.2,0.1,0.3l0,0
		c0,0.1,0.1,0.1,0.1,0.1c0.1,0.1,0.2,0,0.3,0.1l0,0c0.1-0.1,0.3,0,0.3-0.1l0,0l0.1-0.1l0.1-0.1c0.1-0.2,0-0.4,0.1-0.5s0.1-0.2,0-0.3
		l0,0l0,0c0,0.1,0.1,0.2,0.2,0.2l0.1,0.1v0.1c0.1,0.1,0.2,0.2,0.2,0.3l0.1,0.1c0.1,0,0.1,0.1,0.2,0.1c0.2,0,0.5,0,0.7,0
		c0-0.1,0-0.2,0-0.3h0.1v-0.1c0.1-0.1,0.1-0.1,0.2,0c0,0.1,0,0.2,0.1,0.2l0,0c0,0.1,0,0.2,0.1,0.2c0,0,0,0,0.1,0
		c0,0,0.1,0.1,0.2,0.1l0,0c0.1,0,0.2,0,0.2-0.1v-0.1h0.1v-0.1h0.1c0-0.1,0.1-0.1,0.1-0.1l0.1-0.1l0.1,0.1l0,0c0.1,0.1,0.2,0,0.2,0.1
		c0.2,0.1,0.4,0,0.6,0.1l0,0l0,0c0.2,0.1,0.5,0.1,0.7,0c0.2,0,0.3,0,0.5,0c0,0,0,0,0-0.1l0,0c0.1,0,0.2,0,0.3-0.1l0.2-0.2
		c0-0.1,0-0.2,0.1-0.2c0.1-0.1,0.1-0.3,0.2-0.4c0-0.1,0-0.3,0.1-0.4c0-0.3,0-0.7,0-1c-0.1-0.1-0.1-0.2-0.1-0.3
		C17.6,39.3,17.6,39.3,17.6,39.2z"/>
	<path class="st0" d="M10.5,30.5c0-0.3,0-0.6,0-0.8c-0.1-0.2-0.1-0.4-0.1-0.6h-0.1c0-0.2-0.1-0.4,0.1-0.5c0.1,0,0.2,0,0.3,0.1
		l0.1,0.1c0.1,0,0.1,0.1,0.1,0.1L11,29c0,0,0,0-0.1,0c0,0.1,0,0.2,0.1,0.3v0.1c0.1,0.1,0.1,0.3,0,0.4v0.1c0,0,0,0.1,0,0.2l0,0
		c0,0.1,0,0.2-0.1,0.3v0.1c-0.1,0.1,0,0.3-0.1,0.4s0,0.2-0.1,0.4v0.1c-0.1,0-0.1,0.1,0,0.2l0,0l0,0c0,0.1,0,0.2,0.1,0.2l0,0l0.1,0.1
		H11c0,0.1,0,0.1,0,0.2l0,0v0.1c0.1,0.2,0.1,0.4,0,0.6v0.1l0,0l0,0V33c0,0,0,0.1,0,0.2l0,0v0.1l0,0l0,0v0.1v0.1v0.1l0,0l0,0v0.1v0.1
		v0.1h-0.1c0,0.2,0,0.2,0.2,0.2c0,0,0,0,0-0.1l0,0c0,0,0,0,0.1,0c0,0,0,0,0-0.1l0,0l0,0h0.1c0,0,0,0,0-0.1l0,0l0,0l0,0l0,0l0,0l0,0
		l0,0v-0.1c0,0,0-0.1,0.1-0.1c0,0,0,0,0.1,0c0,0,0,0,0-0.1c0,0,0-0.1,0.1-0.1c0,0,0,0,0-0.1l0.1-0.1l0.1-0.1c0-0.1,0-0.1,0-0.2h0.1
		c0,0,0,0,0.1,0l0.1-0.1c0.1-0.1,0.1-0.1,0.2-0.2c0.1-0.1,0.1-0.2,0.1-0.2c0.1-0.1,0.1-0.2,0-0.3c0,0,0,0,0-0.1l0,0
		c-0.1-0.1,0-0.3-0.1-0.4c0,0,0,0,0-0.1l0,0c0-0.2-0.1-0.5,0-0.7l0,0l0,0l0.1-0.1h0.1l0,0l0,0l0,0v0.1l0,0c0,0,0,0,0,0.1l0,0l0,0
		l0,0c-0.1,0.1-0.1,0.3,0,0.4c0,0.1,0,0.2,0,0.3c0,0.1,0.1,0.2,0.2,0.1l0.1-0.1c0.2,0,0.1-0.2,0.2-0.3l0.1-0.1l0,0
		c0,0,0.1-0.1,0-0.2c0,0,0.1,0,0.1-0.1c0.1-0.1,0-0.2,0.1-0.2c0.1-0.1,0.1-0.2,0.1-0.2l0,0l0,0c0.1-0.1,0-0.2,0.1-0.3l0,0
		c0.1-0.1,0.1-0.2,0-0.3l0.1-0.1l0,0c0.1-0.2,0-0.4,0.1-0.5l0,0c0.2-0.3,0-0.6,0.1-0.9c0-0.2,0-0.3,0-0.5c-0.1-0.2,0-0.5-0.1-0.7
		l0,0c-0.1-0.1,0-0.2-0.1-0.3v-0.1c0-0.2-0.1-0.5,0-0.7h-0.1c0,0,0,0,0.1-0.1s0.1-0.2,0.1-0.2v-0.1c0.1-0.1,0-0.2,0.1-0.2l0,0
		l0.1-0.1l0,0c0,0,0,0,0-0.1c0.3-0.1,0.6-0.1,0.9,0l0,0l0,0l0.1,0.1l0,0c0.1,0.1,0.2,0.2,0.3,0.3l0,0c0,0.1,0,0.2,0.1,0.2l0,0l0,0
		c0,0.1,0,0.2,0.1,0.2c0.1,0.1,0,0.3,0.1,0.4v0.1c0.1,0.1,0,0.3,0.1,0.4c0,0.1,0,0.2,0.2,0.1l0,0l0.1-0.1l0,0
		c0.1-0.1,0.1-0.3,0.2-0.4c0.1-0.4,0.1-0.8,0-1.2c-0.1-0.1,0-0.3-0.1-0.4l0,0c-0.1-0.1,0-0.2-0.1-0.3c0,0,0,0,0-0.1
		c-0.1-0.1,0-0.3-0.1-0.4l0,0c-0.1-0.1,0-0.3-0.1-0.4l0,0l-0.1-0.1c0-0.1,0-0.2,0-0.4c0-0.1,0-0.3,0.1-0.4c0-0.1,0-0.2,0-0.3h0.1
		v-0.2h0.1c0-0.1,0-0.1,0.1-0.1c0-0.1,0-0.1,0-0.2h0.1V22h0.1l0.1-0.1c0-0.1,0.1-0.2,0.2-0.3c0.1-0.2,0.3-0.4,0.5-0.4v-0.1h0.1V21
		h0.1l0.1-0.1h0.1V21l0,0c0,0,0,0.1-0.1,0.1c0,0.1,0,0.1-0.1,0.2c0,0.1,0,0.2-0.1,0.2c-0.1,0.3-0.1,0.6,0,0.8c0.1,0.2,0.2,0.2,0.3,0
		l0,0l0.1-0.1l0,0l0,0c0.1,0,0.1-0.1,0.1-0.1l0,0c0.1,0,0.2,0,0.2-0.1l0,0c0.1-0.1,0.2,0,0.3-0.1l0,0l0,0c0.2-0.1,0.5,0,0.7-0.1l0,0
		l0,0c0.1-0.1,0.3,0,0.4-0.1l0,0l0,0l0,0c0.1,0,0.2,0,0.2-0.1l0,0l0,0c0.1,0,0.1-0.1,0.1-0.1v-0.1h0.2l0.1-0.1v-0.1h0.1
		c0.1-0.1,0.2-0.2,0.3-0.2c0-0.1,0.1-0.1,0.1-0.1C20.9,21,21,21,21,21c0.2-0.2,0.4-0.4,0.6-0.5l0.1-0.1c0-0.1,0.1-0.1,0.1-0.1
		c0-0.1,0.1-0.1,0.1-0.1c0.1-0.1,0.1-0.1,0.2-0.2s0.2-0.2,0.2-0.3l0,0c0.1,0,0.1,0,0.2,0v-0.1h0.1c0-0.1,0.1-0.1,0.1-0.1
		c0-0.1,0-0.1,0.1-0.1l0.1-0.1c0-0.1,0.1-0.1,0.1-0.2s0-0.2,0.1-0.2c0-0.1,0-0.2,0.1-0.2c0-0.1,0-0.2,0-0.3h0.1l0,0v-0.1
		c0.1-0.2,0-0.4,0-0.6l0,0l0,0c0.1-0.3,0.1-0.6,0-0.9v-0.1c-0.1-0.1,0-0.2-0.1-0.3c-0.1-0.1,0-0.2-0.1-0.3l0,0l0,0
		c0-0.1,0-0.2-0.1-0.2l0,0c-0.1-0.1,0-0.2-0.1-0.2c0,0,0,0,0-0.1s0-0.2-0.1-0.3l0,0l0,0c0-0.1,0-0.2-0.1-0.3c0-0.1,0-0.2-0.1-0.2
		c0,0,0,0,0-0.1v-0.1c0-0.1,0-0.1-0.1-0.2c-0.1-0.1,0-0.2-0.1-0.3c0,0,0,0,0-0.1l0,0c-0.1-0.1,0-0.3-0.1-0.3l0,0l0,0
		c-0.1-0.1,0-0.3-0.1-0.4l0,0c-0.1-0.2,0-0.4-0.1-0.5v-0.1l0,0c-0.1-0.3-0.1-0.7,0-1v-0.1c0,0,0,0,0-0.1v-0.1c0.1-0.1,0-0.3,0.1-0.4
		c0.1-0.1,0.1-0.2,0.1-0.2l0,0l0,0c0.1,0,0.1-0.1,0.1-0.2c0.1-0.1,0.2,0,0.2-0.1l0,0v-0.1c0.1,0,0.2,0,0.3,0.1c0.1,0,0.2,0,0.2,0.1
		c0.1,0,0.1,0,0.1,0.1c0.1,0,0.1,0.1,0.1,0.1h0.1c0,0.1,0,0.1,0,0.2c0.1,0.1,0.1,0.1,0.1,0.2c0.1,0.2,0.1,0.3,0.1,0.5h-0.1v0.1v0.1
		c0,0,0,0,0,0.1h-0.1c0,0.1,0,0.1,0,0.2l-0.1,0.1h-0.1v0.1h-0.1v0.1H23l-0.1,0.1c0,0.1,0.1,0.1,0.2,0.1s0.2,0,0.2,0v-0.1h0.1h0.1
		v-0.1h0.1v-0.1l0,0h0.1v-0.2h0.1c0-0.1,0-0.1,0-0.2l0.1-0.1c0-0.1,0-0.2,0.1-0.2c0-0.1,0-0.2,0.1-0.3c0-0.1,0-0.2,0-0.3
		c0,0,0,0,0.1,0v-0.4h0.1c0-0.2,0-0.5,0-0.7c0-0.1-0.1-0.1-0.1-0.2V9.7c0-0.1,0-0.1,0-0.2h-0.1V9.4c0-0.1,0-0.1,0-0.2
		C24,9.1,24,9.1,24,9c-0.1-0.1-0.1-0.1-0.1-0.2c-0.1,0-0.1-0.1-0.1-0.2c-0.1,0-0.1-0.1-0.1-0.2l-0.1-0.1c-0.1,0-0.1-0.1-0.1-0.2
		c-0.1,0-0.1-0.1-0.1-0.1c-0.1,0-0.1-0.1-0.1-0.2c-0.1,0-0.1-0.1-0.1-0.1C23.1,7.6,23,7.5,23,7.4l-0.1-0.1c-0.1,0-0.1-0.1-0.1-0.1
		c-0.1,0-0.1-0.1-0.1-0.1h-0.1L22.5,7l0,0V6.8c-0.1,0-0.1-0.1-0.1-0.2c-0.1-0.1-0.1-0.2-0.1-0.3h0.1c0-0.1,0-0.2,0.1-0.2
		c0-0.2,0.2-0.2,0.3-0.4h0.1c0.1,0,0.1,0,0.2,0.1s0,0.2,0.1,0.3c0,0,0,0,0,0.1l0,0c0.1,0.1,0,0.3,0.1,0.4s0,0.3,0.1,0.4l0,0l0,0
		c0,0.1,0,0.2,0.1,0.2l0,0c0.1,0.1,0,0.2,0.1,0.2C23.9,7,24,7.1,24.2,7.2s0.4,0.1,0.6,0c0.1-0.1,0-0.1-0.1-0.2l0,0l0,0
		c-0.1-0.1-0.2-0.2-0.3-0.3l0,0c0-0.1,0-0.2-0.1-0.2c-0.1-0.2,0-0.4-0.1-0.5c0,0,0,0,0-0.1l0,0c-0.1-0.3-0.1-0.5,0-0.8V4.9
		c-0.1-0.1,0-0.3-0.1-0.4l0,0C24,4.4,24,4.3,24,4.3l0,0l-0.1-0.1L23.7,4l-0.1-0.1l-0.1-0.1l-0.1-0.1l-0.1-0.1
		c-0.1,0-0.1-0.1-0.2-0.1L23,3.3c-0.1,0-0.2-0.1-0.3-0.2c-0.1,0-0.1,0-0.1-0.1c0,0,0,0-0.1,0V2.9l-0.1-0.1c-0.1-0.1-0.2-0.2-0.3-0.3
		L22,2.4c-0.1-0.1-0.2-0.1-0.2-0.1h-0.1c-0.4-0.1-0.7,0-1.1-0.1c0.1,0,0.1-0.2,0.2-0.2c0-0.2,0.1-0.3,0-0.5
		c-0.2,0.1-0.3,0.2-0.5,0.2c0,0,0,0,0,0.1c-0.2,0-0.4,0-0.6,0s-0.4,0-0.5-0.1h-0.4c0,0,0-0.1-0.1-0.1c0,0,0,0-0.1,0l0,0
		c-0.1-0.1-0.2,0-0.4-0.1c0,0,0,0-0.1,0l0,0c-0.1-0.1-0.2,0-0.3-0.1c-0.1-0.1-0.2,0-0.3-0.1c-0.1-0.1-0.2-0.1-0.2-0.1l0,0l0,0
		C17.2,1,17.1,1.1,17,1s-0.2-0.1-0.2-0.1l0,0c-0.1-0.1-0.1-0.1-0.2-0.1c-0.1-0.1-0.2-0.1-0.3-0.2l0,0l0,0c0-0.1-0.1-0.1-0.2-0.1l0,0
		c-0.1-0.1-0.2-0.1-0.2-0.1l0,0c-0.1-0.1-0.2-0.1-0.3-0.1c0,0,0,0-0.1,0l0,0c-0.1,0-0.2-0.1-0.3-0.1c0,0,0,0-0.1,0l0,0
		C15,0,14.9,0.1,14.7,0l0,0c-0.5-0.1-1-0.1-1.5,0c0,0,0,0,0,0.1c-0.2-0.1-0.4,0-0.6,0l0,0c-0.1,0.1-0.3,0-0.4,0.1c0,0,0,0-0.1,0l0,0
		c-0.1,0.1-0.3,0-0.4,0.1l0,0c-0.1,0.1-0.2,0-0.3,0.1l0,0c0,0,0,0,0,0.1h-0.3c-0.1,0.1-0.2,0.1-0.3,0.1c-0.1,0.1-0.1,0.1-0.2,0.1
		c-0.1,0.1-0.2,0.2-0.3,0.2C10.1,1,10.1,1.1,10,1.2c0,0.1,0,0.1-0.1,0.1c0,0.1-0.1,0.2-0.1,0.2c0,0.1,0,0.2-0.1,0.3
		c0,0.2,0,0.4-0.1,0.6c0,0.1,0,0.3-0.1,0.4c0,0.1,0,0.2-0.1,0.2c0,0.1,0,0.2-0.1,0.2c-0.1,0.3-0.1,0.6,0,0.9c0.1,0,0.1,0.1,0.1,0.2
		c0.1,0.1,0.1,0.2,0.2,0.2c0.1,0,0.1,0,0.1,0.1c0.1,0,0.1,0,0.1,0.1c0.1,0,0.1,0,0.1,0.1C10,5,10.1,5,10.1,5.1
		c0.4,0.3,0.9,0.5,1.5,0.5h1c0,0,0,0,0-0.1h0.2c0.1-0.1,0.3-0.1,0.4,0l0,0h0.2v0.1c0.1,0,0.1,0,0.1,0.1c0.1,0,0.1,0,0.1,0.1
		c0.1,0,0.1,0.1,0.2,0.1C13.9,6,14,6,14.1,5.9c0-0.1,0-0.2,0.1-0.2l0.1-0.3l0.3-0.2c0-0.1,0.1-0.1,0.2-0.1l0,0C15,5,15.1,5,15.2,5
		l0,0c0.1-0.1,0.2,0,0.3-0.1l0,0c0.1-0.1,0.3,0,0.4-0.1l0,0l0,0c0.2-0.1,0.4,0,0.6-0.1l0,0c0.2-0.1,0.4,0,0.5-0.1l0,0l0,0
		c0.2-0.1,0.5,0,0.7-0.1l0,0l0,0c0.2,0,0.5-0.2,0.5,0.2c0,0,0.1,0.1,0,0.1l0,0l0,0l0,0c-0.1,0.1-0.1,0.2-0.1,0.3l0,0l0,0l-0.2,0.2
		c0,0.1,0,0.1-0.1,0.1c0,0.1,0,0.2-0.1,0.2c0,0.1,0,0.2-0.1,0.2l-0.2,0.5h-0.1l0,0c-0.1,0-0.1,0.1-0.1,0.2l0,0l0,0
		c-0.1,0-0.1,0.1-0.1,0.2L17,6.8l0,0c-0.1,0.1-0.2,0-0.3,0.1l0,0c-0.1,0.1-0.2,0-0.3,0.1c0,0,0,0-0.1,0s-0.2,0-0.2,0.1l0,0
		c-0.1,0.1-0.2,0-0.2,0.1c-0.1,0.1-0.2,0-0.2,0.1c-0.1,0.1-0.1,0-0.2,0.1v0.1h-0.1c0,0.1-0.1,0.1-0.2,0.1c0,0.1,0,0.1,0,0.2
		c0.1,0,0.1,0.1,0.1,0.2c0.1,0.1,0.1,0.1,0.1,0.2c0.1,0.1,0.1,0.2,0.1,0.3c0.1,0.1,0.1,0.2,0.1,0.3c0,0.3,0,0.6,0,1l0,0l-0.1,0.1
		c-0.1,0.1,0,0.2-0.1,0.3s-0.1,0.2-0.2,0.3c-0.1,0.1-0.2,0-0.2,0.1l0,0l0,0c-0.1,0-0.2,0-0.2,0.1c0,0,0,0-0.1,0
		c-0.1,0.1-0.2,0-0.3,0.1h-0.1l0,0h-0.1c0,0,0,0-0.1,0H14c0,0,0,0-0.1,0l0,0c0,0,0,0-0.1,0s-0.2,0-0.3,0.1l0,0
		c-0.1,0.1-0.2,0-0.3,0.1c0,0,0,0-0.1,0c-0.1,0.1-0.3,0-0.3,0.1l0,0c-0.1,0.1-0.2,0-0.3,0.1s-0.2,0-0.3,0.1c0,0,0,0-0.1,0
		s-0.2,0-0.2,0.1c0,0,0,0-0.1,0l0,0c-0.1,0-0.2,0-0.3,0.1s-0.2,0-0.3,0.1l0,0l0,0c-0.1,0-0.2,0.1-0.3,0.2l0,0l-0.1,0.1L10.7,12
		c-0.1,0.2-0.1,0.5,0,0.7l0.1,0.1l0,0c0,0.1,0.1,0.1,0.1,0l0,0c0.1-0.1,0.2-0.2,0.3-0.3s0.2,0,0.2-0.1c0.1-0.1,0.2,0,0.3-0.1l0,0
		l0,0c0.2-0.1,0.4,0,0.6-0.1c-0.1,0.1,0,0.3-0.1,0.4l0,0c-0.1,0-0.1,0.1-0.1,0.2L12,12.9l0,0L11.9,13l-0.1,0.1l0,0
		c0,0.1-0.1,0-0.2,0.1c-0.1,0.1-0.2,0-0.2,0.1c-0.1,0.1-0.2,0-0.3,0.1c0,0,0,0-0.1,0c-0.2,0.1-0.4,0-0.6,0.1c0,0,0,0-0.1,0
		c-0.1,0.1-0.3,0-0.5,0.1l0,0c-0.1,0.1-0.3,0-0.4,0.1l0,0c-0.1,0.1-0.2,0-0.3,0.1l0,0L9,13.9H8.8C8.7,14,8.5,14,8.4,14.1
		c0,0.1-0.1,0.1-0.1,0.1l-0.4,0.4c0,0.1,0,0.1-0.1,0.1c0,0.1,0,0.1-0.1,0.1c0,0.1-0.1,0.2-0.1,0.2v0.1H7.5v0.1v0.1H7.4v0.1H7.3
		c0,0,0,0,0,0.1H7.2l0,0c-0.2,0.3-0.5,0.4-0.6,0.7l0,0c0,0-0.1,0-0.1,0.1l0,0c0,0-0.1,0-0.1,0.1c0,0,0,0-0.1,0.1l0,0
		c-0.1,0.1-0.1,0.2-0.1,0.2l0,0c-0.1,0.1,0,0.3-0.1,0.5c0,0.1,0,0.2,0,0.3c0.1,0.2,0,0.4,0.1,0.5s0,0.2,0.1,0.3l0,0
		c0.2,0.1,0.1-0.2,0.2-0.2l0,0c0.1-0.1,0-0.2,0.1-0.3c0.1-0.1,0-0.2,0.1-0.2l0,0C7,18.1,7,18,7.1,17.9l0,0c0.1-0.1,0.1-0.2,0.1-0.2
		l0,0c0.1,0,0.1-0.1,0-0.2l0,0l0,0h0.1l0,0l0.1-0.1c0.4-0.1,0.2,0.2,0.2,0.3v0.1c-0.1,0.1,0,0.2-0.1,0.3c-0.1,0.1,0,0.2-0.1,0.3l0,0
		l0,0c0,0.1,0,0.2-0.1,0.2c0,0.1,0,0.2-0.1,0.2L7.1,19L7,19.1v0.1l-0.1,0.1c0,0.1,0,0.2-0.1,0.2c0,0.4,0,0.8,0.1,1.1L7,20.9
		c0.1,0,0.1,0.1,0.2,0.2s0.2,0.1,0.3,0.2v0.1l0,0l0.1,0.1l0.1,0.1l0.1,0.1v0.1c0.1,0.1,0.1,0.3,0,0.4v0.1c0,0.2,0.1,0.2,0.2,0.1l0,0
		l0.1-0.1c0.1-0.1,0.1-0.2,0.1-0.2V22c0.1-0.1,0.1-0.3,0-0.4c0-0.1,0-0.1,0-0.2c-0.1-0.1,0-0.2-0.1-0.3l0,0c0-0.1,0-0.2,0-0.3
		c0-0.1,0-0.2,0.1-0.3c0-0.1,0-0.2,0.1-0.2v-0.1c0,0,0,0,0.1,0l0,0l0,0h0.4v0.1c0.1,0,0.2,0,0.2,0.1c0.1,0,0.1,0.1,0.1,0.1h0.1l0,0
		l0,0c0,0,0,0,0,0.1l0,0l0,0c0,0.1,0,0.1,0.1,0.2l0,0l0.1,0.1c0,0,0,0,0,0.1s0,0.1,0.1,0l0,0c-0.1,0.1,0,0.1,0,0.2l0,0
		c0.1,0.1,0,0.3,0.1,0.4c0,0,0,0-0.1,0c0,0.1,0,0.2-0.1,0.3c0,0.1,0,0.2-0.1,0.2c0,0.1,0,0.1,0,0.2H9.2c0,0.1,0,0.1-0.1,0.1
		c0,0.1-0.1,0.2-0.1,0.2c0,0.1,0,0.1-0.1,0.1c0,0.1-0.1,0.2-0.2,0.3l-0.1,0.1c0,0.1-0.1,0.1-0.1,0.2s0,0.1-0.1,0.1
		c0,0.1-0.1,0.2-0.2,0.3c0,0.1,0,0.1-0.1,0.1C8.1,23.9,8,24,8,24c0,0.1,0,0.1-0.1,0.1c0,0.1-0.1,0.2-0.1,0.2v0.1H7.7
		c0,0.1,0,0.2-0.1,0.2c0,0.1,0,0.2-0.1,0.2V25H7.4c0,0.1,0,0.2-0.1,0.2v0.3H7.2l0,0c-0.1,0.1,0,0.3-0.1,0.4l0,0
		c-0.1,0.5-0.1,0.9,0,1.4c0,0,0,0,0,0.1h0.1l0,0c0,0.1,0,0.2,0,0.3c0.1,0.1,0.1,0.1,0.1,0.2c0.1,0,0.1,0.1,0.1,0.2
		c0.1,0,0.1,0.1,0.1,0.2l0.1,0.1l0.2,0.1l0.1,0.2H8v0.1c0.1,0,0.1,0,0.1,0.1c0.2,0.1,0.3,0.2,0.4,0.4c0.1,0,0.1,0.1,0.1,0.1
		c0.1,0.1,0.1,0.2,0.1,0.3l0.1,0.1c0,0.1,0,0.1,0,0.2C9,30.3,9,30.4,9,30.5c0.1,0,0.1,0.1,0.1,0.1c0.1,0,0.1,0,0.1,0.1
		c0.1,0,0.2,0,0.2,0.1c0.2,0,0.4,0,0.6,0.1C10.5,30.9,10.5,30.8,10.5,30.5z"/>
	<path class="st0" d="M23.8,6.8L23.8,6.8L23.8,6.8z"/>
	<path class="st0" d="M15.6,7.5L15.6,7.5L15.6,7.5z"/>
</g>
</svg>
