<?xml version="1.0" encoding="utf-8"?>
<!-- Generator: Adobe Illustrator 22.1.0, SVG Export Plug-In . SVG Version: 6.00 Build 0)  -->
<svg version="1.1" id="Layer_1" xmlns="http://www.w3.org/2000/svg" xmlns:xlink="http://www.w3.org/1999/xlink" x="0px" y="0px"
	 viewBox="0 0 50.5 43.1" style="enable-background:new 0 0 50.5 43.1;" xml:space="preserve">
<style type="text/css">
	.st0{fill:#FFFFFF;}
</style>
<g>
	<path class="st0" d="M39.9,16.1C39.9,16.1,39.9,16.2,39.9,16.1c-0.1,0-0.1,0-0.2,0c0,0,0,0,0,0c-0.1,0-0.2,0-0.2,0
		c-0.1,0-0.3,0-0.4,0c-0.1,0.2-0.1,0.4,0,0.5c0.1,0.2,0.1,0.3,0.1,0.5c0,0.2,0.1,0.3,0.2,0.5c0.1,0.1,0.2,0.2,0.4,0.1
		c0,0,0.1,0,0.1-0.1c0.1-0.1,0.1-0.2,0.2-0.2c0.1-0.1,0.1-0.2,0.2-0.3c0.1-0.4,0.1-0.7,0-1.1C40,16.1,40,16.1,39.9,16.1z"/>
	<polygon class="st0" points="40.1,16.2 40.1,16.2 40.1,16.2 	"/>
	<path class="st0" d="M23.4,2.7L23.4,2.7c-0.1,0.1,0,0.2-0.1,0.3c-0.1,0.1-0.1,0.2-0.1,0.2c0,0,0,0,0,0l0,0c-0.1,0.1,0,0.2-0.1,0.4
		c0,0,0,0,0,0.1c0,0,0,0,0,0C23,3.8,23,4,22.9,4.1v0c-0.1,0.1,0,0.3-0.1,0.4v0c-0.1,0.2,0,0.4-0.1,0.6h0c0,0.2,0,0.5,0,0.7
		c0,0-0.1,0-0.1,0.1c0,0,0,0.1,0,0.1c0,0,0,0,0,0l0,2.1c0.1,0.2,0.1,0.4,0.1,0.6c0.1,0.1,0.1,0.1,0.1,0.2c0.1,0,0.2,0.1,0.2,0.1
		c0.1,0,0.2,0,0.3,0.1c0.2,0,0.4,0,0.5,0.1c0.6,0,1.2,0,1.8,0C25.9,9.1,26.1,9,26.3,9c0.1-0.1,0.2-0.1,0.3-0.1
		c0.1-0.1,0.2-0.1,0.3-0.1c0-0.1,0.1-0.1,0.1-0.1c0-0.1,0-0.2,0.1-0.3c0.1-0.8,0-1.5,0-2.3c0,0,0-0.1,0-0.1
		c-0.1-0.2-0.1-0.5-0.1-0.8C27,5.1,26.9,4.9,27,4.7c-0.1-0.1-0.1-0.3-0.1-0.4c-0.1-0.1-0.1-0.2-0.1-0.3c0,0-0.1,0-0.1,0
		c0-0.1,0-0.2,0-0.3c-0.1-0.1-0.1-0.2-0.1-0.3c-0.1-0.1-0.1-0.1-0.1-0.2c-0.1-0.1-0.1-0.2-0.1-0.3c0,0-0.1,0-0.1,0
		c0-0.1,0-0.1,0-0.2c-0.1-0.1-0.1-0.1-0.1-0.2C26,2.3,26,2.2,26,2.1c-0.1-0.1-0.2-0.2-0.2-0.3c-0.1,0-0.1-0.1-0.1-0.2
		c-0.1-0.1-0.2-0.2-0.2-0.3c-0.1-0.1-0.2-0.2-0.2-0.3c-0.1,0-0.1-0.1-0.1-0.1C25,0.7,25,0.7,25,0.6c-0.1,0-0.1-0.1-0.1-0.1
		c-0.1,0-0.2,0-0.2,0.1c-0.1,0-0.1,0.2-0.2,0.2c-0.1,0.1-0.1,0.3-0.3,0.4c0,0.2-0.1,0.3-0.2,0.4c0,0.1,0,0.2-0.1,0.2
		c0,0,0,0.1,0,0.1l-0.1,0c0,0.1,0,0.1,0,0.2c0,0,0,0,0,0.1c0,0,0,0,0,0c0,0-0.1,0-0.1,0v0c-0.1,0.1,0,0.2-0.1,0.2
		C23.4,2.6,23.4,2.7,23.4,2.7L23.4,2.7z"/>
	<path class="st0" d="M11.3,17c0.1,0.2,0.1,0.3,0.1,0.5c0,0.2,0.1,0.5,0.1,0.7c0,0.1,0.1,0.2,0.2,0.3c0.1,0,0.3,0,0.4-0.2
		c0.1-0.1,0.2-0.2,0.2-0.3l0,0c0.1-0.3,0.2-0.7,0.2-1.1c-0.1-0.1-0.2-0.1-0.3-0.1c-0.3,0-0.6,0-0.8,0v0C11.2,16.9,11.2,17,11.3,17z
		 M12.2,18L12.2,18C12.2,18,12.2,18,12.2,18L12.2,18z"/>
	<path class="st0" d="M26.6,0.9L26.6,0.9c0.1,0.1,0.1,0.2,0.2,0.3v0c0.1,0.1,0,0.2,0.1,0.2v0l0,0c0,0,0,0,0,0c0,0.1,0,0.1,0.1,0.1
		c0.1,0.1,0,0.2,0.1,0.2v0l0,0c0.1,0.1,0.1,0.2,0.2,0.3v0c0,0,0.1,0.1,0.1,0.1c0,0,0,0,0,0l0,0.1l0.1,0c0,0,0,0,0,0
		c0,0.1,0,0.1,0,0.2c0.1,0.1,0.2,0.2,0.2,0.4c0.1,0,0.1,0.1,0.1,0.2l0.1,0c0,0.1,0,0.1,0,0.2c0,0,0.1,0,0.1,0c0,0.1,0,0.2,0,0.3
		c0,0,0.1,0,0.1,0l0,0.2c0,0,0.1,0,0.1,0c0,0.1,0,0.1,0,0.2c0,0,0.1,0,0.1,0c0,0.1,0,0.2,0,0.3l0.2-0.1V3.9c0-0.1,0-0.1,0.1-0.1
		c0,0,0-0.1,0-0.1c0,0,0,0,0,0c0.1-0.1,0-0.3,0.1-0.4v0c0.1-0.1,0.1-0.2,0-0.3l-0.1,0c0,0,0,0,0,0L29,2.8c0-0.1,0-0.2,0.1-0.3
		c0-0.1,0-0.2,0-0.3c0,0,0.1,0,0.1,0c0-0.1,0-0.2,0.1-0.2c0-0.1,0-0.2,0.1-0.2c0-0.1,0-0.2,0.1-0.2c0.1-0.3,0.4-0.5,0.7-0.6
		c0,0,0,0,0,0c0.1,0,0.2,0,0.3-0.1l0,0l0,0c0.1,0,0.2,0,0.2,0c0,0,0,0,0,0l0.4,0c0-0.1,0-0.2,0.1-0.2c0-0.1,0-0.1,0-0.2l-0.2-0.2
		c-0.3,0-0.5,0-0.8-0.1l-1.7,0l-0.2,0l-0.1,0.1l-0.8,0c0,0,0,0-0.1,0c0,0,0,0,0,0c0,0,0,0-0.1,0c-0.1,0-0.3,0-0.4,0.1l0,0l0,0
		c-0.1,0.1-0.3,0-0.4,0.1l0,0c0,0,0,0,0,0c-0.1,0-0.1,0-0.1,0.1C26.3,0.6,26.5,0.7,26.6,0.9L26.6,0.9z"/>
	<path class="st0" d="M26.6,9.6C26.6,9.6,26.6,9.6,26.6,9.6L26.6,9.6C26.6,9.6,26.6,9.6,26.6,9.6z"/>
	<path class="st0" d="M31.2,15.2c0.5,0,1,0,1.4,0.1l1.3,0l0,0l0,0c0,0,0,0.1,0.1,0.1c0.4,0,0.8,0,1.1,0c0.2,0,0.4,0,0.5,0.1l0,0l0,0
		c0.2,0,0.4,0,0.5,0c1.2,0,2.4,0,3.6,0c0.3,0,0.5,0,0.8-0.1l0.9,0c0.2-0.1,0.4-0.1,0.7-0.1c0.1-0.1,0.3-0.1,0.4-0.1
		c0.1-0.1,0.3-0.1,0.4-0.1c0.1-0.1,0.2-0.1,0.3-0.1l0.1-0.1h0.2c0,0,0-0.1,0-0.1l0.3,0c0.1-0.1,0.1-0.1,0.2-0.1
		c0.1-0.1,0.2-0.1,0.3-0.1c0.1-0.1,0.1-0.1,0.2-0.1l0.5-0.3c0.2,0,0.4-0.1,0.6-0.3c0.2,0,0.3-0.2,0.4-0.3c0.1-0.1,0.1-0.1,0.2-0.2
		c0-0.1,0.1-0.1,0.1-0.1c0-0.1,0.1-0.1,0.1-0.1c0-0.1,0.1-0.1,0.1-0.1c0-0.1,0.1-0.1,0.1-0.1c0-0.1,0-0.1,0.1-0.1
		c0-0.1,0.1-0.2,0.2-0.3c0-0.2,0.2-0.3,0.3-0.4c0-0.1,0-0.2,0.1-0.2c0,0,0-0.1,0-0.1c0,0,0.1,0,0.1,0c0,0,0,0,0,0
		c0.1-0.1,0.1-0.2,0.1-0.2c0.1-0.1,0.1-0.2,0.1-0.2c0.1-0.1,0.1-0.2,0.1-0.2v0c0.1-0.1,0-0.2,0.1-0.3c0.1-0.1,0-0.2,0.1-0.3v0
		c0.1-0.1,0-0.3,0.1-0.5c0,0,0-0.1,0-0.1c0.1-0.3,0.1-0.6,0-0.9c-0.1-0.1,0-0.3-0.1-0.4c0,0,0,0,0-0.1l0.1,0c0-0.1,0-0.2,0.1-0.2
		L48.6,8c0-0.1,0-0.1,0-0.2c0,0,0.1,0,0.1,0c0,0,0.1-0.1,0.1-0.1c0,0,0.1-0.1,0.1-0.1c0.1-0.1,0.2,0,0.2-0.1h0
		c0.1-0.1,0.2,0,0.2-0.1l0,0h0c0.1-0.1,0.5,0.1,0.4-0.3c0,0,0-0.1,0-0.1c0-0.1-0.1-0.1-0.1-0.1c0,0-0.1-0.1-0.1-0.1l0,0
		c0,0-0.1-0.1-0.1-0.1c-0.1-0.1-0.2-0.1-0.2-0.1c0,0-0.1,0-0.1,0l-0.8,0c0,0-0.1,0-0.1,0c0,0,0,0.1,0,0.1l-0.2,0L48,6.8l-0.1,0.1
		L47.7,7c0,0.1-0.1,0.1-0.2,0.1c0-0.1-0.1-0.1-0.1-0.2v0h0l0,0c0,0,0-0.1-0.1-0.1v0l-0.1-0.1l-0.1-0.1c0,0-0.1-0.1-0.1-0.1
		c-0.1,0-0.2-0.1-0.3-0.2c0,0-0.1-0.1-0.1-0.1l0,0c0-0.1-0.1-0.1-0.2-0.1l0,0h0c-0.1-0.1-0.2,0-0.3-0.1c-0.1-0.1-0.2,0-0.4-0.1
		c0,0-0.1,0-0.1,0h-1.5c0,0-0.1,0-0.1,0c0,0-0.1,0.1-0.1,0.1l-0.2,0l-0.2,0c0,0-0.1,0-0.1,0c0,0,0,0.1,0,0.1l-0.3,0
		c-0.1,0.1-0.1,0.1-0.2,0.1c-0.1,0.1-0.1,0.1-0.2,0.1c0,0,0,0.1,0,0.1l-0.2,0c0,0.1-0.1,0.1-0.1,0.1c0,0.1-0.1,0.1-0.1,0.1
		c0,0.1,0,0.1-0.1,0.1c0,0.1,0,0.1-0.1,0.1C42.1,6.9,42,6.9,42,7c0,0.1,0,0.2-0.1,0.2c0,0.1,0,0.2-0.1,0.3c0,0.5,0,0.9,0,1.4
		c0.1,0.1,0,0.3,0.1,0.3v0C42,9.3,42,9.5,42.1,9.6c0.1,0.1,0.1,0.1,0.2,0.2c0.1,0,0.2,0.1,0.3,0.2c0.1,0,0.2,0,0.2,0.1
		c0.1,0,0.2,0,0.3,0.1h0c0.2,0.2,0.5,0,0.8,0.1c0.1,0,0.2,0,0.3,0c0.2-0.1,0.4,0,0.6-0.1h0c0.1-0.1,0.3-0.3,0.4-0.3c0,0,0-0.1,0-0.1
		h0l0,0c0-0.1,0.1-0.2,0.1-0.2v0c0.1-0.1,0-0.2,0.1-0.2c0-0.1,0.1-0.2,0.1-0.3c0,0,0-0.1,0-0.1c0.1-0.1,0.1-0.3,0-0.4l0,0
		c-0.1-0.1,0-0.2-0.1-0.2l0,0c0-0.1-0.1-0.1-0.1-0.1l0,0c0-0.1-0.2-0.1-0.2-0.1h0c-0.1-0.1-0.2,0-0.3-0.1h0c-0.1-0.1-0.3-0.1-0.4,0
		c0,0,0,0-0.1,0c-0.1,0-0.2,0-0.3,0.1c-0.1,0.1-0.3,0.1-0.2,0.4c0,0.1,0,0.3,0,0.4c0,0.3,0.2,0.5,0.5,0.6c0,0.1-0.1,0.2-0.2,0.2
		c-0.2,0-0.3-0.1-0.5-0.2c-0.1,0-0.1,0-0.1-0.1c-0.1,0-0.1-0.1-0.1-0.1c-0.1,0-0.1-0.1-0.1-0.1c-0.1-0.1-0.1-0.2-0.1-0.3l-0.1,0
		c0-0.2,0-0.5,0-0.7c0-0.1,0-0.3,0.1-0.4c0-0.1,0-0.1,0.1-0.1l0.1-0.1c0-0.1,0.1-0.1,0.1-0.1c0-0.1,0.1-0.1,0.2-0.1L44,7.2h0.2
		c0,0,0-0.1,0-0.1l0.2,0l0.3,0l0,0l0,0c0,0,0-0.1,0-0.1l0.2,0c0.1,0,0.2,0,0.3,0.1c0.1,0,0.2,0,0.2,0.1c0.1,0,0.2,0.1,0.2,0.1
		L46,7.4l0.1,0.1l0.1,0.1c0,0,0.1,0.1,0.1,0.1c0.1,0,0.1,0.1,0.1,0.2c0.1,0,0.1,0.1,0.1,0.2c0.1,0.1,0.1,0.2,0.1,0.3l0.1,0.1
		c0,0.4,0,0.8,0,1.2L46.6,10c0,0.1,0,0.2-0.1,0.3c0,0.1,0,0.1,0,0.2c0,0-0.1,0-0.1,0.1l0,0c-0.1,0-0.1,0.2-0.1,0.2l0,0
		c-0.1,0-0.1,0.2-0.1,0.2c0,0-0.1,0.1-0.1,0.1l0,0c0,0-0.1,0.1-0.1,0.1l0,0c-0.1,0-0.1,0.1-0.1,0.1c-0.1,0-0.1,0.1-0.1,0.1l0,0
		c-0.1,0-0.1,0.1-0.1,0.1l0,0c0,0-0.1,0.1-0.1,0.1c-0.1,0.1-0.2,0-0.2,0.1l0,0c0,0,0,0,0,0c0,0-0.1,0.1-0.1,0.1
		C45.2,12,45,11.9,45,12l0,0c-0.1,0-0.2,0-0.2,0.1l0,0c0,0,0,0,0,0c-0.1,0-0.1,0.1-0.1,0.1c0,0,0,0-0.1,0c-0.1,0.1-0.1,0.1-0.2,0.1
		c-0.1,0.1-0.1,0.1-0.2,0.1v0c-0.1,0.1-0.2,0-0.2,0.1c-0.1,0.1-0.2,0.1-0.3,0.1c0,0,0,0.1,0,0.1l-0.3,0v0c-0.1,0.1-0.3,0-0.3,0.1h0
		c-0.1,0.1-0.2,0-0.3,0.1c0,0-0.1,0-0.1,0c-0.1,0.1-0.3,0-0.5,0.1l0,0c-0.1,0.1-0.3,0-0.4,0.1c0,0-0.1,0-0.1,0
		c-0.2,0.1-0.4,0-0.6,0.1c0,0-0.1,0-0.1,0c0,0-0.1,0-0.1,0.1c0,0,0,0,0,0l-0.7,0c-0.4,0.1-0.8,0.1-1.2,0.1l-0.2,0
		c-0.2,0.1-0.4,0.1-0.6,0.1c-0.5,0-1,0-1.5,0l-0.4-0.1l-0.2,0c-0.5,0-1,0-1.4-0.1c-0.3,0-0.6,0-0.9-0.1c0,0-0.1,0-0.1,0c0,0,0,0,0,0
		c-0.2-0.1-0.4,0-0.6-0.1c-0.1-0.1-0.2-0.1-0.3,0c-0.1,0-0.1-0.1-0.2-0.1h0c-0.1-0.1-0.3,0-0.4-0.1c0,0,0,0-0.1,0c0,0,0,0,0,0
		c0,0-0.1,0-0.2,0c0,0-0.1-0.1-0.1-0.1c0,0,0,0-0.1,0c0,0,0,0,0,0c-0.1-0.1-0.2-0.1-0.2-0.1c0,0,0,0,0,0l0,0c-0.1-0.1-0.2,0-0.3-0.1
		c-0.1-0.1-0.2-0.1-0.2-0.1h0l0,0c-0.1-0.1-0.2-0.1-0.2-0.1v0c-0.1,0-0.2,0-0.2-0.1c-0.1,0-0.2,0-0.2-0.1c-0.1,0-0.2,0-0.2-0.1h0
		c0-0.1-0.2-0.1-0.2-0.1c-0.1-0.1-0.2-0.2-0.3-0.2c0,0-0.1-0.1-0.1,0c0,0,0,0-0.1-0.1c0,0-0.1-0.1-0.1-0.1l0,0
		c-0.1-0.1-0.2-0.2-0.3-0.2h0c0-0.1-0.1-0.1-0.1-0.1l0,0c-0.1-0.1-0.2-0.1-0.3-0.2c0,0-0.1-0.1-0.1-0.1h0c0,0-0.1-0.1-0.1-0.1
		c0,0-0.1-0.1-0.1-0.1l0,0c0,0,0,0,0,0c0-0.1-0.1-0.1-0.1-0.1l0,0c-0.1,0-0.1,0-0.1-0.1c-0.1-0.1-0.3-0.2-0.3-0.3
		c-0.1,0-0.1-0.1-0.1-0.1c-0.1,0-0.1-0.1-0.1-0.1h0c0-0.1-0.1-0.1-0.1-0.1l0,0c0,0-0.1-0.1-0.1-0.1v0c0,0-0.1-0.1-0.1-0.1
		c-0.1-0.2-0.2-0.3-0.4-0.1l0,0c-0.1,0-0.1,0.1-0.1,0.1l0,0c0,0-0.1,0.1-0.1,0.1l0,0c0,0-0.1,0.1-0.1,0.1c-0.1,0.1-0.2,0.1-0.3,0.2
		l0,0c-0.1,0-0.1,0.1-0.1,0.1c-0.1,0.1-0.2,0-0.2,0.1h0l0,0c0,0,0,0,0,0c-0.1,0-0.1,0.1-0.1,0.1l0,0c0,0,0,0,0,0s0,0,0,0.1
		c0.1,0.1,0,0.3,0.1,0.4l0,0c0.1,0.3-0.1,0.6,0.1,0.9c0,0.1,0,0.2,0,0.3c-0.2,0.3,0,0.6-0.1,0.9l0,0c-0.1,0.1,0,0.2-0.1,0.3
		c-0.1,0.1-0.1,0.2-0.1,0.3c0,0,0,0-0.1,0c0,0,0,0.1,0,0.1c0,0-0.1,0-0.1,0c0,0-0.1,0.1-0.1,0.1c-0.1,0.1-0.1,0.1-0.2,0
		c0-0.1-0.1-0.1-0.2-0.1c0,0,0,0,0,0c-0.1-0.1-0.1-0.2-0.1-0.4c-0.1-0.1-0.1-0.1-0.1-0.2c-0.1-0.1-0.1-0.1-0.1-0.2
		c-0.1-0.1-0.1-0.2-0.1-0.3c0-0.1,0-0.2,0-0.3c0,0,0-0.1,0-0.1c0,0,0,0,0,0c0,0-0.1,0-0.1,0c0-0.1,0-0.3,0-0.4c0-0.2,0-0.3,0.1-0.5
		c0-0.2,0-0.5,0.1-0.7c0,0,0-0.1,0-0.1l-0.1-0.1c-0.1,0-0.2,0-0.2-0.1c-0.1,0-0.2,0-0.2-0.1c-0.1,0-0.1,0-0.1-0.1
		c-0.1,0-0.2-0.1-0.2-0.1c-0.1,0-0.1,0-0.1-0.1c-0.1,0-0.1,0-0.1-0.1c-0.1,0-0.2-0.1-0.3-0.2c-0.1,0-0.1,0-0.1-0.1l-0.2,0
		c0,0.1-0.1,0.2-0.1,0.2c-0.1,0.1-0.1,0.2-0.2,0.2c0,0.1,0,0.1-0.1,0.1c0,0.1-0.1,0.2-0.3,0.3c0,0.1-0.1,0.1-0.1,0.1
		c0,0.1,0,0.1-0.1,0.1c0,0.1,0,0.1-0.1,0.1c0,0,0,0.1,0,0.1l-0.1,0c0,0.1-0.1,0.1-0.1,0.1c0,0.1-0.1,0.1-0.1,0.1
		c0,0.1-0.1,0.1-0.1,0.1c-0.1,0.1-0.2,0.2-0.3,0.3c0,0.1-0.1,0.1-0.1,0.1c-0.1,0.1-0.2,0.1-0.2,0.2c0,0.1-0.1,0.1-0.2,0.1
		c0,0.1-0.1,0.1-0.1,0.1c-0.1,0.1-0.2,0.2-0.3,0.2c-0.1,0.1-0.2,0.2-0.3,0.2c0,0,0,0,0,0.1c-0.1,0-0.2,0-0.2,0.1l0,0
		c-0.1,0-0.2,0-0.2,0.1h0l0,0c0,0,0,0,0,0c0,0-0.1,0-0.1,0.1h0c-0.1,0.1-0.2,0.1-0.2,0.1h0c-0.1,0.1-0.2,0-0.2,0.1h0
		c-0.1,0.1-0.2,0-0.3,0.1l0,0c0,0,0,0,0,0c-0.1,0-0.2,0-0.2,0.1h0c-0.1,0.1-0.3,0-0.3,0.1h0c0,0-0.1,0-0.1,0.1c-0.1,0-0.1,0-0.2,0
		c0,0,0,0-0.1,0c0,0,0,0,0,0.1l0,0c-0.1,0-0.2,0-0.3,0.1l0,0c-0.1,0.1-0.2,0-0.3,0c0,0-0.1,0-0.1,0c-0.1,0-0.3,0-0.4,0.1
		c0,0-0.1,0-0.1,0.1c-0.1,0.1-0.3,0.1-0.5,0.1c-0.1,0-0.1,0-0.2,0c-0.2,0.1-0.5,0.1-0.7,0.1c-0.1,0-0.1,0-0.2,0
		c-0.3,0.1-0.6,0.2-0.9,0.1c-0.1,0-0.1,0-0.2,0c-0.1,0-0.3,0.1-0.4,0.2c0,0,0,0,0,0l-0.4,0c-0.1,0-0.3,0-0.4,0c-0.8,0-1.6,0-2.4,0
		c-0.2,0-0.4,0-0.6-0.1c-0.3,0-0.6,0-0.9-0.1c0,0-0.1,0-0.1,0c-0.2-0.1-0.5,0-0.7-0.1c-0.1-0.1-0.3,0-0.5-0.1c0,0-0.1,0-0.1,0
		c-0.1-0.1-0.3,0-0.4-0.1c0,0-0.1,0-0.1,0c-0.1-0.1-0.3,0-0.4-0.1c0,0-0.1,0-0.1,0c-0.1,0-0.1-0.1-0.2,0c0,0,0,0,0,0s0,0-0.1,0
		c0,0-0.1,0-0.1,0c-0.1-0.1-0.2,0-0.2-0.1h0l0,0c-0.1-0.1-0.2,0-0.3-0.1h0C5.5,13,5.4,13,5.4,13v0c-0.1,0-0.2,0-0.2-0.1
		c-0.1,0-0.2,0-0.2-0.1h0c0,0,0,0-0.1-0.1c0,0,0,0,0-0.1c0,0-0.1,0-0.1,0c0,0-0.1-0.1-0.1-0.1c0,0-0.1,0-0.1,0c0,0-0.1-0.1-0.1-0.1
		c0,0-0.1-0.1-0.1-0.1c0,0-0.1-0.1-0.1-0.1v0c0-0.1-0.1-0.1-0.2,0c0,0,0-0.1,0-0.1c-0.1,0-0.1-0.1-0.1-0.1l-0.2-0.1
		c0-0.1,0-0.1,0-0.2c-0.1,0-0.1-0.1-0.1-0.1c-0.1,0-0.1-0.1-0.1-0.2c0,0,0,0-0.1,0c0-0.1,0-0.2,0-0.2c-0.1-0.1,0-0.2-0.1-0.3
		c0,0,0-0.1,0-0.1l-0.1-0.2c0-0.3,0-0.6,0-0.9c0-0.1,0-0.1,0-0.2c0,0,0.1,0,0.1,0c0,0,0-0.1,0-0.1c0.1-0.1,0-0.2,0.1-0.3
		c0.1-0.1,0.1-0.2,0.1-0.2c0.1-0.1,0-0.2,0.1-0.2c0,0,0.1-0.1,0.1-0.1c0,0,0.1-0.1,0.1-0.1v0c0,0,0.1-0.1,0.1-0.1l0,0
		c0,0,0.1-0.1,0.1-0.1C4,8,4,8,4.1,8c0,0,0.1,0,0.1,0c0,0,0.1,0,0.1-0.1c0.1,0,0.1,0,0.2,0l0.1,0h0.1c0,0,0-0.1,0-0.1h0.2h0
		c0,0,0,0.1,0,0.1l0.3,0c0.1,0.1,0.2,0,0.2,0c0.1,0,0.2,0,0.3,0.1c0.1,0,0.2,0,0.3,0.1c0.1,0,0.2,0,0.2,0.1c0.1,0,0.1,0,0.1,0.1
		c0.1,0,0.1,0.1,0.1,0.1c0,0,0.1,0,0.1,0c0,0.1,0,0.2,0,0.3c0.1,0,0.1,0.1,0.1,0.1c0,0-0.1,0-0.1,0c0,0.2,0,0.4,0,0.6
		c0,0.1,0,0.3-0.1,0.4c0,0.1,0,0.1,0,0.2l-0.1,0c0,0,0,0.1,0,0.1c0,0-0.1,0-0.1,0c0,0-0.1,0.1-0.1,0.1h0c-0.1,0.1-0.2,0-0.3,0.1
		l-0.2,0c0,0,0,0.1,0,0.1h0l-0.1-0.1c-0.1,0-0.1-0.1-0.1-0.2l0,0c0,0,0.1,0,0.1,0C5.5,10,5.7,9.8,5.8,9.7c0.1-0.2,0-0.5-0.2-0.7
		C5.6,9,5.5,9,5.4,8.9l-0.5,0c0,0-0.1,0-0.1,0C4.7,9,4.6,9,4.5,9.1c-0.1,0.1-0.2,0-0.2,0.1c0,0-0.1,0.1,0,0.1l-0.1,0
		c0,0.1,0,0.2-0.1,0.2c0,0.1,0,0.3,0,0.4L4.2,10l0,0.2c0,0,0.1,0,0.1,0c0,0.1,0,0.1,0,0.2l0.3,0.3l0.1,0.1c0.1,0,0.2,0,0.3,0.1
		c0.5,0,0.9,0,1.4,0c0.1-0.1,0.2-0.1,0.3-0.1c0.1-0.1,0.2-0.1,0.3-0.1l0.1-0.1h0c0.1,0,0.2,0,0.2-0.1l0,0c0,0,0.1-0.1,0.1-0.1
		c0,0,0.1-0.1,0.1-0.1c0,0,0.1-0.1,0.1-0.1l0,0c0,0,0.1-0.1,0.1-0.1l0,0C8,10.1,8,10,8,9.9v0c0.1-0.1,0-0.2,0.1-0.3
		c0-0.4,0-0.8,0-1.2c0,0,0-0.1,0-0.1c0,0,0-0.1-0.1,0c0,0,0,0,0,0C8,8.2,8,8.1,8,8C7.9,7.9,7.9,7.8,7.9,7.7c-0.1,0-0.1-0.1-0.1-0.2
		c-0.1,0-0.1-0.1-0.1-0.1c-0.1,0-0.1-0.1-0.1-0.1C7.5,7.2,7.4,7.1,7.4,7.1C7.3,7.1,7.3,7,7.2,7C7.2,7,7.1,6.9,7,6.9
		c-0.1,0-0.2,0-0.2-0.1l-0.3,0c0,0,0-0.1,0-0.1c0,0-0.1,0-0.1,0c-0.1-0.1-0.2-0.1-0.3,0L6,6.6c0,0,0,0-0.1,0v0c0,0,0-0.1,0-0.1
		c0,0-0.1,0-0.1,0l-1.5,0c0,0-0.1,0-0.1,0C3.8,6.6,3.5,6.8,3.1,7c0,0-0.1,0.1-0.1,0.1h0L2.9,7.2c0,0.1-0.1,0.1-0.2,0.1L2.6,7.4
		c0,0,0,0.1,0,0.1c0,0-0.1,0-0.1,0c0,0.1-0.1,0.2-0.1,0.2L2.2,7.8L2.1,8c0,0,0,0,0,0.1C2.1,8,2.1,8,2,7.9c0,0-0.1-0.1-0.1-0.1
		c0,0-0.1-0.1-0.1-0.1c0,0-0.1-0.1-0.1-0.1c0,0-0.1-0.1-0.1-0.1c0,0-0.1,0-0.1,0c0,0-0.1,0-0.1,0c0,0,0,0,0,0
		c-0.1-0.1-0.2,0-0.3-0.1H1c-0.1,0-0.1,0.1-0.1,0.1H0.4c0,0.1-0.1,0.1-0.2,0.1L0.1,7.7L0,7.8c0,0.3,0,0.3,0.4,0.5c0,0,0.1,0,0.1,0.1
		l0.2,0l0,0c0,0,0,0,0.1,0c0,0.1,0.1,0.1,0.1,0.2c0,0,0.1,0.1,0.1,0.1c0,0,0.1,0.1,0.1,0.1c0,0,0.1,0.1,0.1,0.1
		c0.1,0.1,0,0.2,0.1,0.2c0.1,0.1,0,0.2,0.1,0.2c0,0,0,0.1,0,0.1c0,0,0,0,0.1,0c0,0.1,0,0.1,0,0.2c0,0.1,0,0.1,0,0.2
		c-0.1,0.2-0.1,0.4,0,0.5c0,0.1,0,0.1,0,0.2c0,0,0.1,0,0.1,0v0c0,0.1,0,0.2,0,0.3c0.1,0.1,0.1,0.2,0.1,0.3c0.1,0.1,0.1,0.2,0.1,0.3
		C2,11.7,2,11.8,2,11.9c0.1,0.1,0.1,0.3,0.2,0.4c0.1,0,0.1,0.1,0.1,0.2l0.1,0.1l0.1,0.1l0,0.1L2.6,13l0.1,0.1
		C2.9,13.2,3,13.3,3,13.4c0,0,0.1,0.1,0.1,0.1s0.1,0.1,0.1,0.1l0.1,0.1l0.1,0c0,0,0,0.1,0,0.1l0.1,0.1L3.6,14h0h0l0.2,0.2l0.1,0.1
		c0.1,0,0.2,0.1,0.2,0.1l0.1,0.1c0.1,0,0.2,0.1,0.2,0.1h0.1c0,0,0,0.1,0,0.1l0.2,0c0,0,0,0.1,0,0.1c0.1,0,0.2,0,0.2,0.1
		c0.1,0,0.2,0,0.2,0.1c0.1,0,0.2,0,0.3,0.1c0.1,0,0.2,0,0.2,0.1l0.2,0l0.1,0.1c0.1,0,0.2,0,0.3,0.1l0.4,0c0,0,0,0.1,0,0.1
		c0.1,0.1,0.3,0,0.4,0.1h0c0.1,0.1,0.3,0,0.5,0.1l0.1,0c0,0,0,0,0,0l0,0l0,0c0.1,0.1,0.3,0.1,0.4,0c0,0,0,0,0,0c0.1,0,0.3,0,0.4,0.1
		l0,0l0,0h0.5h1.5h1.6l0,0l0,0c0,0,0-0.1,0.1-0.1l1.3,0c0.1,0,0.2,0,0.3,0c0.3-0.1,0.6-0.1,0.9,0c0.1,0,0.1,0,0.2,0
		c0.3-0.2,0.6-0.1,0.9-0.2l0,0c0.3-0.1,0.6,0,0.9-0.1l0,0l0,0c0.3-0.1,0.6,0.1,0.9-0.1h0c0.3-0.1,0.7,0.1,1-0.1l0,0
		c0.4-0.1,0.8,0.1,1.2-0.1h0c0.4-0.1,0.7-0.1,1.1,0c0,0,0-0.1,0.1-0.1l0,0l0.4,0.1l0,0l0,0c0.2,0.2,0.5,0,0.7,0.1h0
		c0.1,0.1,0.2,0,0.3,0.1l0,0c0,0.1,0.1,0.1,0.2,0v0c0.1,0.1,0.2,0.2,0.3,0.3c0.3,0.2,0.5,0.5,0.6,0.9c0.1,0,0.1,0,0.1,0.1
		c0,0.1,0.1,0.2,0.1,0.3c0,0.1,0.1,0.2,0.2,0.2l0,0.9c0.1,0.1,0.1,0.3,0.1,0.4l0.1,0.1c0,0,0,0.1,0,0.1c0.1,0,0.1,0.1,0.1,0.1
		c0.1,0,0.1,0.1,0.2,0.1c0.1,0.1,0.2,0.1,0.4,0.1c0-0.1,0.1-0.2,0.2-0.3c0-0.1,0-0.2,0.1-0.2c0-0.2,0-0.4,0.1-0.5c0-0.4,0-0.9,0-1.3
		c0,0,0.1,0,0.1,0c0.1-0.2,0.1-0.3,0.2-0.4c0-0.1,0-0.1,0.1-0.1c0.1-0.1,0.2-0.2,0.3-0.3c0-0.1,0.1-0.1,0.1-0.1
		c0-0.1,0.1-0.1,0.2-0.1c0.1-0.1,0.3-0.2,0.4-0.2c0.1-0.1,0.2-0.1,0.3-0.1c0.2-0.1,0.4-0.1,0.5-0.1c0,0,0,0,0-0.1l2.3,0
		C30.7,15.1,30.9,15.1,31.2,15.2z M47.7,9.5L47.7,9.5C47.7,9.5,47.7,9.5,47.7,9.5L47.7,9.5z M44,13.6C44,13.6,44,13.6,44,13.6
		C43.9,13.7,43.9,13.7,44,13.6C43.9,13.6,44,13.6,44,13.6z M31,13.8C31.1,13.8,31.1,13.8,31,13.8C31.1,13.9,31.1,13.9,31,13.8
		L31,13.8z M7.4,9.1C7.5,9.1,7.5,9.1,7.4,9.1C7.5,9.1,7.5,9.1,7.4,9.1L7.4,9.1z M1.5,9.3C1.5,9.3,1.5,9.3,1.5,9.3L1.5,9.3L1.5,9.3z
		 M1.9,8.4C1.9,8.4,1.9,8.4,1.9,8.4L1.9,8.4C2,8.4,1.9,8.4,1.9,8.4z M8.3,14.8L8.3,14.8L8.3,14.8C8.3,14.8,8.3,14.7,8.3,14.8
		C8.3,14.8,8.3,14.8,8.3,14.8z M13.7,15.6L13.7,15.6C13.7,15.5,13.7,15.5,13.7,15.6C13.7,15.5,13.7,15.5,13.7,15.6L13.7,15.6
		c0.1,0,0.1,0.1,0.1,0.2C13.7,15.7,13.7,15.7,13.7,15.6z M21.7,14.5L21.7,14.5L21.7,14.5L21.7,14.5z M23.5,13.8L23.5,13.8L23.5,13.8
		C23.5,13.8,23.5,13.8,23.5,13.8C23.5,13.8,23.5,13.8,23.5,13.8z M25,17.7L25,17.7L25,17.7c0,0,0.1-0.1,0.1,0
		C25.1,17.7,25.1,17.7,25,17.7z M28.6,14.2L28.6,14.2C28.6,14.2,28.6,14.1,28.6,14.2C28.7,14.1,28.6,14.2,28.6,14.2z"/>
	<polygon class="st0" points="28.3,10.8 28.4,10.8 28.4,10.8 	"/>
	<polygon class="st0" points="4.3,9.2 4.3,9.2 4.3,9.2 	"/>
	<path class="st0" d="M10.4,11.4c0,0.5,0.1,1,0.2,1.5c0,0,0,0,0.1,0c0,0,0,0,0,0c0,0,0,0.1,0,0.1c0,0,0.1,0.1,0.1,0.1
		c0,0,0.1,0.1,0.1,0.1v0c0.5,0,1,0,1.4,0c0.1,0,0.3,0,0.4-0.1v0c0.1-0.1,0-0.3,0.1-0.5c0,0,0-0.1,0-0.1c0,0,0,0,0,0
		c0.1-0.1,0-0.3,0.1-0.4l0,0c0.2-0.2,0-0.5,0.1-0.7h0c0-0.2,0-0.4,0-0.6c-0.1-0.1,0-0.2-0.1-0.2l0,0l0,0c0,0-0.1-0.1-0.1-0.1
		c0,0-0.1-0.1-0.1-0.1c0,0-0.1-0.1-0.1-0.1c0,0-0.1-0.1-0.1-0.1l0,0c-0.1-0.1-0.2,0-0.3-0.1l-1,0c-0.1,0.1-0.2,0-0.2,0.1
		c0,0,0,0-0.1,0c0,0,0,0,0,0c-0.1,0-0.1,0-0.2,0.1c-0.1,0.1-0.2,0-0.2,0.1l0,0l-0.1,0.1c0,0.1-0.1,0.2-0.2,0.3c0,0.1,0,0.3,0,0.4
		C10.3,11.3,10.3,11.3,10.4,11.4C10.3,11.4,10.3,11.4,10.4,11.4z"/>
	<path class="st0" d="M18.8,1c0.2,0,0.3,0,0.5,0c0.2,0,0.5,0.1,0.6,0.2h0c0.1,0.1,0.2,0.2,0.3,0.3l0,0c0,0.1,0,0.1,0.1,0.1l0,0l0,0
		c0.1,0.1,0.1,0.2,0.2,0.3c0.1,0.1,0,0.2,0.1,0.2l0,0c0.1,0.1,0,0.2,0.1,0.2c0.1,0.1,0,0.2,0.1,0.3l0,0c0,0,0,0,0,0
		C21,2.8,20.9,3,21,3.1v0l0,0v0c0.1,0.1,0,0.2,0.1,0.3v0c0.1,0.1,0.1,0.3,0.1,0.4c0.1,0.1,0.1,0.3,0.1,0.4h0c0.1,0.1,0,0.2,0.1,0.2
		c0.1,0,0.1-0.2,0.2-0.2v0c0.1-0.1,0.1-0.2,0.1-0.2c0,0,0,0,0,0l0,0c0.1-0.1,0-0.2,0.1-0.3v0c0.1-0.1,0.1-0.2,0.1-0.2c0,0,0,0,0,0
		l0,0c0.1-0.1,0-0.2,0.1-0.3c0.1-0.1,0-0.2,0.1-0.2c0.1-0.1,0.1-0.2,0.1-0.2v0c0.1-0.1,0.1-0.1,0.1-0.2l0,0c0-0.1,0-0.2,0.1-0.2
		c0-0.1,0-0.2,0.1-0.2c0-0.1,0.1-0.3,0.2-0.3c0-0.1,0-0.2,0.1-0.2c0-0.1,0-0.2,0.1-0.2L23.2,1c0,0,0.1-0.1,0.1-0.1l0,0
		c0.1,0,0.1-0.2,0.1-0.2c0.1-0.3-0.2-0.3-0.3-0.4l0,0c-0.2-0.2-0.4,0-0.6-0.1c0,0,0,0-0.1,0c0,0,0,0,0,0l-3,0c-0.1,0-0.1,0-0.2,0.1
		l-0.5,0.1l-0.2,0.2C18.5,0.9,18.5,0.9,18.8,1z"/>
	<path class="st0" d="M38,11.4C38.1,11.4,38.1,11.4,38,11.4C38,11.4,38,11.4,38,11.4c0.1,0.2,0.1,0.4,0.1,0.5c0,0,0.1,0,0.1,0
		c0,0.1,0,0.2,0,0.3c0,0,0.1,0,0.1,0c0,0.2,0.2,0.3,0.4,0.3c0.4,0,0.9,0,1.3,0c0.1,0,0.2,0,0.3-0.1c0-0.2,0-0.3,0.1-0.4
		c0-0.2,0-0.4,0.1-0.5c0-0.2,0-0.4,0.1-0.7c0-0.2,0-0.4,0-0.6c-0.1,0-0.1-0.1-0.1-0.2c-0.1,0-0.1-0.1-0.1-0.1
		c-0.1,0-0.1-0.1-0.1-0.1c-0.1,0-0.1,0-0.1-0.1c-0.1,0-0.2-0.1-0.2-0.1c-0.1,0-0.2,0-0.3-0.1l-0.8,0c-0.1,0.1-0.2,0.1-0.3,0.1
		c0,0.1-0.1,0.1-0.2,0.1c0,0.1-0.1,0.1-0.1,0.1L38,10l-0.1,0.1c0,0.2,0,0.3,0,0.5h0C38,10.9,37.9,11.2,38,11.4z"/>
	<path class="st0" d="M22.4,35.2c-0.2,0.1-0.3,0.2-0.5,0.3c-0.1,0.1-0.3,0.1-0.4,0.2c-0.6,0.1-1.2,0.3-1.8,0.4
		c-0.2,0.1-0.5,0-0.7,0.1c-0.6,0-1.2,0.1-1.8,0.2c0,0-0.1,0-0.1,0c-1,0.1-2,0.1-3,0.2c-0.1,0-0.1,0-0.2,0.1c-0.1,0-0.2,0-0.3,0
		c-1.4,0-2.8,0.1-4.2,0c-0.7,0-1.3,0-2,0c-0.5-0.1-1-0.1-1.5-0.1c0,0-0.1,0-0.1,0c-0.1,0-0.1-0.1-0.2-0.1c-0.4,0-0.8,0-1.2-0.1
		c-0.7-0.1-1.3-0.3-2-0.4c0-0.1-0.1-0.1-0.1-0.1l-0.3-0.2c-0.2,0-0.2,0-0.2,0.2c0,0,0,0.1,0,0.1c0.1,0.2,0.1,0.3,0.2,0.5
		c0.1,0,0.1,0.1,0.1,0.2c0.1,0,0.1,0.1,0.1,0.2c0.1,0,0.1,0.1,0.1,0.2l0.2,0.2c0,0.1,0,0.1,0,0.2c0.1,0,0.1,0.1,0.1,0.2
		c0.1,0.1,0.2,0.2,0.2,0.3C2.9,37.9,3,38,3,38.1c0.1,0,0.1,0.1,0.1,0.1c0.1,0,0.1,0.1,0.2,0.1c0,0.1,0,0.1,0.1,0.2
		c0.1,0,0.1,0.1,0.1,0.1c0.1,0.1,0.2,0.2,0.2,0.3c0.1,0,0.1,0.1,0.1,0.1c0.1,0.1,0.1,0.2,0.2,0.2c0.4,0.3,0.7,0.6,1,1
		c0.1,0,0.1,0,0.1,0.1c0.1,0,0.1,0,0.1,0.1c0.1,0,0.2,0.1,0.3,0.2c0.1,0.1,0.2,0.1,0.2,0.2c0.1,0,0.2,0.1,0.2,0.1
		c0.1,0,0.1,0,0.1,0.1c0.1,0,0.2,0.1,0.2,0.1c0.1,0,0.1,0,0.1,0.1c0.1,0,0.2,0.1,0.2,0.1c0.1,0,0.3,0.1,0.3,0.2c0.1,0,0.2,0,0.2,0.1
		c0.1,0,0.2,0,0.2,0.1c0.1,0,0.2,0,0.2,0.1c0.1,0,0.2,0,0.2,0.1c0.1,0,0.2,0,0.3,0.1c0.1,0,0.2,0,0.2,0.1c0.1,0,0.2,0,0.3,0.1
		c0.1,0,0.2,0,0.3,0.1c0.1,0,0.2,0,0.3,0.1c0.2,0,0.3,0,0.4,0.1l0.5,0c0,0,0,0,0,0.1c0.1,0,0.3,0,0.4,0c0,0,0,0,0,0.1
		c0.9,0.1,1.8,0.1,2.7,0c0,0,0.1-0.1,0.1-0.1c0,0,0-0.1,0-0.1c0,0.1,0,0.1,0,0.2c0.1,0,0.3,0,0.4-0.1l0,0l0,0c0.1-0.1,0.3,0,0.5-0.1
		l0,0c0.1-0.1,0.2,0,0.3-0.1l0,0l0,0c0.1-0.1,0.3,0,0.4-0.1l0,0c0,0,0-0.1,0-0.1l0.3,0c0.1-0.1,0.1-0.1,0.2-0.1
		c0.1-0.1,0.2-0.1,0.3-0.1c0.2-0.1,0.3-0.1,0.5-0.2c0.1-0.1,0.2-0.1,0.3-0.1c0.1-0.1,0.2-0.2,0.4-0.2c0.1-0.1,0.3-0.2,0.4-0.2
		c0.1-0.1,0.2-0.2,0.3-0.2c0.1-0.1,0.2-0.2,0.3-0.2c0-0.1,0.1-0.1,0.1-0.1c0-0.1,0.1-0.1,0.2-0.1c0-0.1,0.1-0.1,0.1-0.1
		c0-0.1,0.1-0.1,0.1-0.1c0.1-0.1,0.2-0.2,0.3-0.3c0-0.1,0.1-0.1,0.1-0.1c0.1-0.1,0.2-0.1,0.2-0.2c0.1-0.1,0.1-0.1,0.2-0.2
		c0.1-0.1,0.1-0.1,0.2-0.2c0-0.1,0.1-0.1,0.1-0.1c0-0.1,0-0.1,0.1-0.1c0-0.1,0-0.1,0.1-0.1l0.1-0.3c0.1,0,0.1-0.1,0.1-0.1l0.1,0
		c0-0.1,0-0.1,0.1-0.1c0-0.1,0.1-0.2,0.1-0.3c0,0,0.1,0,0.1,0c0,0,0-0.1,0-0.1l0.1,0c0-0.1,0.1-0.2,0.2-0.3c0-0.1,0.1-0.2,0.1-0.2
		c0,0,0.1-0.1,0.1-0.1c0-0.1,0.1-0.2,0.1-0.2c0-0.1,0.1-0.3,0.2-0.3c0-0.1,0-0.1,0-0.2c0,0,0.1,0,0.1,0c0.1-0.1,0.1-0.3,0.2-0.4
		c0-0.1,0-0.2,0.1-0.2c0-0.1,0.1-0.2,0.1-0.3c0-0.1,0-0.2,0.1-0.2c0-0.1,0-0.2,0.1-0.2C22.6,35.2,22.6,35.2,22.4,35.2z M8.4,37.6
		C8.4,37.6,8.5,37.6,8.4,37.6C8.5,37.6,8.4,37.6,8.4,37.6C8.4,37.6,8.4,37.6,8.4,37.6z M11.1,37.7L11.1,37.7
		C11.1,37.7,11.1,37.7,11.1,37.7L11.1,37.7C11.1,37.7,11.1,37.7,11.1,37.7z M18.4,37.8C18.4,37.8,18.4,37.8,18.4,37.8
		C18.4,37.8,18.5,37.8,18.4,37.8L18.4,37.8z"/>
	<path class="st0" d="M38,33.3c0.1,0,0.3,0,0.4-0.1c0.9,0,1.8,0,2.7,0c0.6,0,1.3,0,1.9,0c0.2,0,0.5,0,0.7,0c0,0,0,0.1,0,0.1
		c0.1,0.1,0.3,0.2,0.4,0.2c0.8,0,1.6,0.1,2.4,0.1c0.2,0,0.4,0,0.5,0c0.6,0,1.1,0.2,1.7,0.3l0.2,0c0.2,0.2,0.4,0.2,0.6,0.3
		s0.5,0.2,0.6,0s0-0.4-0.1-0.6c-0.1,0-0.2-0.1-0.3-0.2c-0.2,0-0.2-0.1-0.3-0.2c0,0,0-0.1,0-0.1c-0.1-0.1,0-0.2-0.1-0.3v0l0,0v0
		c0,0-0.1-0.1-0.1-0.1l0,0c-0.1,0-0.1-0.2-0.1-0.2c-0.1-0.2-0.2-0.3-0.2-0.5c-0.1-0.1-0.2-0.3-0.2-0.4c-0.1,0-0.1-0.1-0.1-0.2
		c-0.1-0.1-0.2-0.3-0.2-0.4c-0.2-0.1-0.2-0.3-0.3-0.5c0-0.1,0-0.1,0-0.2c0,0-0.1,0-0.1,0c0-0.1,0-0.1,0-0.2c-0.1,0-0.1-0.1-0.1-0.2
		c0,0-0.1,0-0.1,0c0-0.1,0-0.1,0-0.2l0,0c0-0.1,0-0.2-0.1-0.2v0c0-0.1,0-0.1,0,0c0-0.1,0-0.1-0.1-0.2l0,0c0,0,0,0,0,0
		c0-0.1,0-0.2-0.1-0.2v0l0,0c0-0.1,0-0.2-0.1-0.2l0,0c0-0.1,0-0.2-0.1-0.2l0,0c-0.1-0.1,0-0.2-0.1-0.2v0c-0.1-0.1,0-0.2-0.1-0.2l0,0
		c-0.1-0.1,0-0.2-0.1-0.2v0c-0.1-0.1,0-0.2-0.1-0.2v0c-0.1-0.1,0-0.2-0.1-0.2c-0.1-0.1,0-0.2-0.1-0.2c-0.1-0.1,0-0.2-0.1-0.2
		c-0.1-0.1,0-0.2-0.1-0.2c-0.1-0.1,0-0.2-0.1-0.2c-0.1-0.1,0-0.2-0.1-0.2c-0.1-0.1,0-0.2-0.1-0.2c-0.1-0.1,0-0.2-0.1-0.2
		c-0.1-0.1,0-0.2-0.1-0.2c-0.1-0.1,0-0.2-0.1-0.2c-0.1-0.1,0-0.2-0.1-0.2v0c-0.1-0.1-0.1-0.2-0.1-0.2v0c-0.1-0.1-0.1-0.3-0.2-0.4
		c-0.1-0.1-0.1-0.3-0.2-0.3c0,0,0-0.1,0-0.2c0,0,0,0,0,0c0,0-0.1-0.1-0.1-0.1c0,0,0-0.1-0.1-0.1h0c0,0,0,0,0,0c0-0.1,0-0.2,0-0.2
		l0,0c0,0-0.1-0.1-0.1-0.1c0,0,0,0,0-0.1c0-0.1,0-0.2-0.1-0.2l0,0c0-0.1,0-0.2-0.1-0.2l0,0c-0.1-0.1-0.1-0.3-0.2-0.4l0,0
		c0-0.1,0-0.2-0.1-0.2l0,0c0-0.1,0-0.2-0.1-0.2l0,0c0-0.1,0-0.2-0.1-0.2l0,0c0-0.1,0-0.2-0.1-0.2l0,0c0,0-0.1-0.1-0.1-0.1
		c0,0,0,0,0-0.1c0-0.1,0-0.1-0.1-0.1v0c-0.1,0-0.1-0.2-0.1-0.2c-0.1-0.1,0-0.2-0.1-0.2v0c-0.1-0.1,0-0.2-0.1-0.2
		c-0.1-0.1,0-0.2-0.1-0.2c-0.1-0.1,0-0.2-0.1-0.2v0c-0.1-0.1,0-0.2-0.1-0.2c0,0,0,0,0-0.1c0-0.1,0-0.1-0.1-0.2
		c-0.1-0.1,0-0.2-0.1-0.2c-0.1-0.1,0-0.2-0.1-0.2c0,0-0.1,0-0.1,0c0-0.1,0-0.1,0-0.2c-0.1-0.1,0-0.2-0.1-0.2c-0.1-0.1,0-0.2-0.1-0.2
		c0,0,0,0,0,0c0-0.1,0-0.1-0.1-0.2v0c-0.1-0.1,0-0.2-0.1-0.2v0c-0.1-0.1,0-0.2-0.1-0.2v0l0,0c0-0.1,0-0.2-0.1-0.2l0,0l0,0
		c0-0.1,0-0.2-0.1-0.2v0l0,0h0c-0.1-0.1-0.1-0.2-0.2-0.3c-0.1-0.1,0-0.2-0.1-0.2c-0.1-0.1,0-0.2-0.1-0.2l0,0
		c-0.1-0.1-0.2-0.3-0.3-0.3c-0.1-0.1-0.3-0.1-0.4,0c0,0-0.1,0.1-0.1,0.1c-0.1,0.1,0,0.2-0.1,0.2c0,0.2,0,0.4,0.1,0.6
		c0.2,0.5,0.5,1,0.8,1.5c0.1,0.3,0.2,0.5,0.4,0.8c0.1,0.1,0.1,0.3,0.2,0.4c0.4,0.7,0.8,1.5,1.2,2.2c0.2,0.3,0.4,0.7,0.6,1
		c0,0.1,0,0.1,0.1,0.2c0,0,0,0.1,0,0.1c0,0.1,0,0.1,0.1,0.1c0,0.1,0,0.2,0.1,0.2c0.1,0.3,0.3,0.7,0.5,1c0,0.1,0.1,0.2,0.1,0.2
		c0.4,0.7,0.8,1.4,1.2,2.2c0.4,0.6,0.7,1.3,1.1,1.9c0,0,0,0.1,0,0.1c0,0.1,0,0.1,0.1,0.1c0.1,0.3,0.2,0.6,0.4,0.9
		c0,0.1,0.1,0.1,0.2,0.1c0,0.1,0.1,0.1,0.1,0.1l0,0c0,0.3,0.2,0.7,0.4,0.9c0,0.2,0,0.3,0.1,0.5c0.2,0.4,0.4,0.8,0.6,1.1
		c-0.2,0-0.3,0-0.5,0c-0.5-0.1-1-0.2-1.5-0.3l-0.1-0.1c-0.5-0.1-1-0.2-1.5-0.2c-0.1,0-0.2,0-0.4,0c-0.1,0-0.1,0-0.2,0
		c-0.3,0-0.6,0-0.9,0c-1.3-0.1-2.6-0.1-3.9-0.1H40h-0.2h-0.1h-0.5c-0.1,0-0.3,0-0.4,0c-1,0-2,0.1-3,0.2l0,0c0,0,0-0.1,0-0.1
		c-0.2,0-0.3-0.1-0.5,0.1c0,0-0.1,0.1-0.1,0.1c-0.6,0.1-1.2,0.1-1.8,0.3c-0.3,0-0.5,0.1-0.8,0.2c0,0-0.1,0-0.1,0
		c-0.1,0-0.3,0-0.4,0.1c-0.2,0-0.3,0-0.5,0.1c-0.2,0.1-0.4,0.1-0.7,0.1c0-0.2,0.2-0.3,0.2-0.5c0.2-0.2,0.2-0.4,0.2-0.7
		c0.1,0,0.1-0.1,0.1-0.1c0.1-0.1,0.1-0.2,0.2-0.3c0.1-0.4,0.3-0.8,0.4-1.2c0.1,0,0.1-0.1,0.1-0.2c0-0.3,0.1-0.7,0.2-1
		c0.2-0.3,0.3-0.6,0.4-0.9c0.1,0,0.1-0.1,0.1-0.1c0.2-0.2,0.3-0.5,0.4-0.8h0c0.1,0,0.1-0.1,0.1-0.1c0.1-0.1,0.1-0.2,0.2-0.3
		c0.6-1.1,1.2-2.3,1.7-3.4c0.1-0.2,0.2-0.4,0.3-0.6c0.1-0.1,0.1-0.1,0.1-0.2c0.6-1.1,1.2-2.3,1.8-3.4c0-0.1,0.1-0.2,0.1-0.3
		c0.4-0.6,0.6-1.3,1-1.9c0.1-0.3,0.2-0.5,0.2-0.8c-0.1-0.1,0-0.2-0.1-0.2c0,0-0.1-0.1-0.1-0.1l0,0c0-0.1-0.1-0.1-0.2,0c0,0,0,0,0,0
		c0,0,0,0-0.1,0c-0.1,0-0.2,0-0.2,0.1c0,0-0.1,0.1-0.1,0.1c-0.1,0-0.1,0.2-0.1,0.2v0c-0.1,0.1-0.1,0.2-0.1,0.2
		c-0.1,0.1,0,0.2-0.1,0.2c-0.1,0.1,0,0.2-0.1,0.2c-0.1,0.1,0,0.2-0.1,0.2c-0.1,0.1-0.1,0.2-0.1,0.2v0C37,17.7,37,17.8,37,17.9v0
		c-0.1,0.1-0.1,0.2-0.1,0.2c0,0.1,0,0.2-0.1,0.2c0,0.1,0,0.2-0.1,0.2c0,0.1,0,0.2-0.1,0.2c0,0.1-0.1,0.2-0.1,0.3
		c-0.1,0.1-0.1,0.1,0,0.2v0c0,0-0.1,0-0.1,0c-0.1,0.1,0,0.2-0.1,0.2v0c-0.1,0.1-0.1,0.2-0.1,0.2l0,0C36,19.8,36,19.9,36,20l0,0l0,0
		c-0.1,0.1-0.1,0.2-0.1,0.3c0,0,0,0.1,0,0.1c-0.1,0.1,0,0.2-0.1,0.2c-0.1,0.1,0,0.2-0.1,0.2c-0.1,0.1-0.1,0.2-0.1,0.2v0
		c-0.1,0.1-0.1,0.2-0.1,0.2h0c0,0.1,0,0.2-0.1,0.2c0,0.1-0.1,0.2-0.1,0.3c-0.1,0.1,0,0.2-0.1,0.2v0C35,22,35.1,22.1,35,22.2l0,0
		c-0.1,0.1-0.1,0.2-0.1,0.2c0,0,0,0,0,0l0,0c-0.1,0-0.1,0.1-0.1,0.2c0,0,0,0,0,0.1c0,0,0,0.1,0,0.1c-0.1,0.1,0,0.2-0.1,0.2
		c-0.1,0.1,0,0.2-0.1,0.2c-0.1,0.1-0.1,0.2-0.1,0.2c0,0.1,0,0.2-0.1,0.2c0,0.1-0.1,0.2-0.1,0.3c-0.1,0.1,0,0.2-0.1,0.2
		c-0.1,0.1-0.1,0.2-0.1,0.2l0,0c-0.1,0.1-0.1,0.2-0.1,0.2c0,0,0,0,0,0l0,0c-0.1,0.1,0,0.2-0.1,0.3c-0.1,0.1,0,0.2-0.1,0.2
		c-0.1,0.1-0.1,0.2-0.1,0.2c-0.1,0.1-0.1,0.2-0.1,0.2l0,0c-0.1,0.1-0.1,0.2-0.1,0.3c0,0,0,0.1,0,0.1c-0.1,0.1,0,0.2-0.1,0.2
		c-0.1,0.1,0,0.2-0.1,0.2v0c-0.1,0.1-0.1,0.2-0.1,0.2h0c0,0.1,0,0.2-0.1,0.2v0c-0.1,0.1-0.1,0.2-0.1,0.3c0,0,0,0,0,0c0,0,0,0,0,0
		l0,0c0,0,0,0.1-0.1,0.1v0c0,0,0,0-0.1,0v0c-0.1,0.1-0.1,0.2-0.1,0.2l0,0c-0.1,0.1-0.1,0.2-0.1,0.2c0,0,0,0.1,0,0.1
		c-0.1,0.1,0,0.2-0.1,0.2c0,0-0.1,0.1-0.1,0.2c0,0,0,0,0,0l0,0c0,0,0,0,0,0c0,0,0,0,0,0.1c0,0,0,0,0,0c0,0,0,0,0,0
		c0,0-0.1,0-0.1,0.1v0c-0.1,0.1-0.1,0.2-0.1,0.2c0,0,0,0.1,0,0.1c-0.1,0.1,0,0.2-0.1,0.2c-0.1,0.1,0,0.2-0.1,0.2
		c-0.1,0.1,0,0.2-0.1,0.2h0c0,0.1,0,0.2-0.1,0.2c0,0.1,0,0.2-0.1,0.3c-0.1,0.1,0,0.2-0.1,0.2c-0.1,0.1-0.1,0.2-0.1,0.2v0
		c-0.1,0.1-0.1,0.2-0.1,0.2c0,0,0,0.1,0,0.1c-0.1,0.1,0,0.2-0.1,0.2c-0.1,0.1,0,0.2-0.1,0.2c0,0.1,0,0.1,0,0.2l0,0c0,0-0.1,0-0.1,0
		c0,0.1,0,0.2-0.1,0.3v0c-0.1,0.1,0,0.2-0.1,0.2c-0.1,0.1,0,0.2-0.1,0.2v0c-0.1,0.1-0.1,0.2-0.1,0.2c0,0,0,0.1,0,0.1c0,0,0,0,0,0
		c0,0,0,0,0,0c-0.1,0.1-0.1,0.2-0.2,0.2l0,0l0,0c-0.1,0.1-0.1,0.2-0.1,0.2h0l0,0c-0.1,0-0.1,0.1-0.1,0.2c0,0,0,0,0,0c0,0,0,0-0.1,0
		c0,0.1-0.2,0.3-0.1,0.4c0,0-0.1,0-0.1,0c0,0,0,0.1,0,0.1c0,0-0.1,0-0.1,0l0,0c0,0-0.1,0.1-0.1,0.1c0,0-0.1,0.1-0.1,0.1
		c-0.1,0.2-0.1,0.4,0,0.5v0c0.1,0.1,0.1,0.1,0.2,0.1l0,0c0,0,0,0.1,0.1,0.1c0,0.1,0,0.1,0,0.2l-0.1,0c-0.1,0-0.3-0.2-0.3,0.1
		c0.1,0.1,0,0.2,0.1,0.2c0,0,0,0.1,0,0.1c0.1,0.1,0.1,0.1,0.1,0.2c0.1,0.1,0.1,0.3,0.2,0.4c0.1,0.1,0.1,0.1,0.1,0.2c0,0,0.1,0,0.1,0
		l0.1,0.3c0.1,0,0.1,0.1,0.1,0.2c0.1,0,0.1,0.1,0.1,0.2l0.1,0.1c0.1,0,0.1,0.1,0.1,0.2c0.1,0,0.1,0.1,0.1,0.1c0.1,0,0.1,0.1,0.1,0.2
		c0.1,0,0.1,0.1,0.1,0.1c0.1,0.1,0.2,0.2,0.2,0.3l0.1,0.1l0.1,0.1c0.1,0.1,0.2,0.2,0.2,0.3l0.1,0.1c0,0,0.1,0.1,0.1,0.1
		c0,0,0.1,0.1,0.1,0.1l0.1,0.1c0,0,0.1,0.1,0.1,0.1c0,0,0.1,0.1,0.1,0.1l0.1,0.1c0,0,0.1,0.1,0.1,0.1l0.1,0.1
		c0.2,0.1,0.3,0.2,0.4,0.4c0.1,0,0.1,0,0.1,0.1c0.1,0,0.2,0.1,0.3,0.2c0.1,0,0.1,0,0.1,0.1c0.1,0,0.2,0.1,0.3,0.2
		c0.1,0,0.3,0.1,0.3,0.2c0.1,0,0.2,0,0.2,0.1l0.2,0c0,0,0,0.1,0,0.1l0.3,0.1l0,0.1l0.5,0.2c0,0,0,0.1,0,0.1l0.2,0c0,0,0,0.1,0,0.1
		l0.2,0c0,0,0,0.1,0,0.1c0.1,0,0.2,0,0.3,0.1c0.1,0,0.2,0,0.3,0.1c0.1,0,0.2,0,0.3,0.1c0.2,0,0.3,0,0.4,0.1c0.2,0,0.3,0,0.4,0.1
		c0.2,0,0.4,0,0.5,0.1l0.8,0c0,0,0,0.1,0,0.1l0.2,0h1l0,0l0,0c0,0,0.1,0,0.1-0.1c0.2,0.1,0.5,0.1,0.7,0h0c0.2-0.1,0.4,0,0.6-0.1l0,0
		l0,0c0,0,0.1-0.1,0-0.1h0l0.4,0c0,0,0-0.1,0-0.1l0.3,0c0.1-0.1,0.2-0.1,0.3-0.1c0.2-0.1,0.4-0.2,0.6-0.2c0.1-0.1,0.1-0.1,0.2-0.1
		c0,0,0-0.1,0-0.1l0.3-0.1c0.1-0.1,0.1-0.1,0.2-0.1c0.1-0.1,0.1-0.1,0.2-0.1c0.1-0.1,0.1-0.1,0.2-0.1c0-0.1,0.1-0.1,0.2-0.1
		c0,0,0.1-0.1,0.1-0.1c0-0.1,0.1-0.1,0.2-0.1c0-0.1,0.1-0.1,0.2-0.1c0,0,0.1-0.1,0.1-0.1c0-0.1,0.1-0.1,0.2-0.1c0,0,0-0.1,0-0.1
		l0.1,0c0.1-0.1,0.2-0.2,0.3-0.2c0-0.1,0.1-0.1,0.1-0.1c0-0.1,0.1-0.1,0.1-0.1c0.1-0.1,0.2-0.2,0.3-0.3c0-0.1,0.1-0.1,0.1-0.1
		c0.1-0.1,0.2-0.1,0.2-0.2c0.1-0.1,0.1-0.1,0.2-0.2l0-0.1c0,0,0.1,0,0.1,0c0-0.1,0-0.1,0.1-0.1c0,0,0-0.1,0-0.1l0,0l0.1,0
		c0,0,0-0.1,0-0.1l0,0c0,0,0.1,0,0.1,0c0,0,0-0.1,0-0.1l0,0c0,0,0.1,0,0.1,0l0.1-0.2l0.2-0.1c0.1-0.1,0.1-0.2,0.2-0.2
		c0-0.1,0.1-0.2,0.2-0.3c0-0.1,0-0.1,0.1-0.1c0-0.1,0.1-0.2,0.1-0.2c0-0.1,0-0.1,0.1-0.1c0-0.1,0.1-0.2,0.1-0.2c0-0.1,0-0.1,0.1-0.1
		c0-0.1,0.1-0.2,0.1-0.2c0-0.1,0-0.2,0.1-0.2c0-0.1,0-0.2,0.1-0.2c0,0,0-0.1,0-0.1c0.1-0.3,0.3-0.5,0.4-0.8c0-0.1,0-0.2,0.1-0.2
		c0-0.1,0-0.2,0.1-0.2c0-0.1,0-0.2,0.1-0.3c0-0.2,0-0.2-0.2-0.2c-0.3,0.2-0.6,0.3-0.9,0.4c-0.8,0.2-1.6,0.4-2.4,0.5
		c-0.3,0-0.5,0-0.8,0.1c-0.5,0-1,0.1-1.5,0.1c-0.6,0-1.3,0.1-1.9,0.1c-0.1,0-0.2,0-0.3,0.1c-0.8,0-1.6,0-2.4,0.1
		c-0.1,0-0.1,0-0.2,0.1c-0.3,0-0.6,0-0.8,0l-0.3,0h-0.1l-0.3,0c0-0.1-0.1-0.1-0.1,0c0,0-0.1,0-0.1,0c0,0-0.1,0-0.1,0
		c-0.1-0.1-0.1-0.1-0.1,0C37.4,36,37.1,36,36.8,36c-0.2,0-0.5,0-0.7,0c-0.3-0.1-0.6-0.1-0.9-0.1c-0.4-0.1-0.7-0.1-1.1-0.1
		c0,0,0,0,0,0c-0.1-0.1-0.3-0.1-0.5-0.1c-0.2,0-0.5,0-0.7-0.1c0,0-0.1,0-0.1,0c-0.3-0.2-0.6-0.2-0.9-0.1c-0.2,0.1-0.4,0.1-0.6,0
		c-0.2,0-0.4-0.1-0.5-0.1l-0.2-0.1L30.2,35c0-0.1-0.1-0.2-0.1-0.2c0,0-0.1-0.1-0.1-0.1c0,0,0.1,0,0.1,0c0.7-0.2,1.4-0.4,2.1-0.5
		c0.1,0,0.2-0.1,0.4-0.2l0,0c0.1,0,0.1,0.1,0.2,0.1c0.8,0,1.7-0.1,2.5-0.3c0,0,0-0.1,0-0.1h0l0.2,0c0,0,0.1,0.1,0.2,0.1
		c0.3,0.1,0.7,0.1,1-0.1c0,0,0-0.1,0-0.1h0C37.2,33.3,37.6,33.3,38,33.3z"/>
	<polygon class="st0" points="41.4,16.6 41.5,16.6 41.5,16.6 	"/>
	<polygon class="st0" points="37.8,16.4 37.8,16.4 37.8,16.4 	"/>
	<path class="st0" d="M22.5,34.1c-0.1,0-0.1,0-0.1-0.1c-0.1,0-0.1,0-0.2,0c-0.1-0.4-0.3-0.6-0.5-1c-0.2-0.1-0.1-0.3-0.1-0.4
		l-0.2-0.1c0-0.1,0-0.3,0-0.4c-0.1-0.1-0.2-0.3-0.2-0.4c-0.1-0.1-0.2-0.2-0.3-0.4c0-0.2-0.1-0.3-0.3-0.4c0-0.1,0-0.2-0.1-0.3
		c-0.3-0.4-0.6-0.8-0.7-1.2c-0.1-0.1-0.1-0.1-0.1-0.2c-0.1-0.1-0.1-0.3-0.2-0.4c-0.1-0.1-0.1-0.1-0.1-0.2c-0.1-0.1-0.1-0.1-0.1-0.2
		c-0.1-0.1-0.1-0.1-0.1-0.2c-0.1,0-0.1-0.1-0.1-0.2C19,27.7,19,27.6,19,27.5c-0.1-0.2-0.2-0.4-0.3-0.7c-0.1-0.1-0.1-0.1-0.1-0.2
		c-0.1-0.1-0.1-0.1-0.1-0.2c-0.1-0.1-0.1-0.3-0.2-0.4c-0.1,0-0.1-0.1-0.1-0.2c-0.1,0-0.1-0.1-0.1-0.2c-0.1,0-0.1-0.1-0.1-0.2
		c-0.1-0.1-0.1-0.1-0.1-0.2c-0.1-0.1-0.1-0.1-0.1-0.2c-0.1-0.1-0.1-0.3-0.2-0.4c-0.1,0-0.1-0.1-0.1-0.2c-0.1-0.1-0.1-0.1-0.1-0.2
		c0,0-0.1,0-0.1,0l0-0.2c-0.1,0-0.1-0.1-0.1-0.2c0,0-0.1,0-0.1,0c0-0.1,0-0.1,0-0.2c-0.1,0-0.1-0.1-0.1-0.2
		c-0.1-0.1-0.1-0.1-0.1-0.2c-0.1-0.1-0.1-0.1-0.1-0.2c-0.1-0.1-0.1-0.1-0.1-0.2c0,0-0.1,0-0.1,0c0,0,0-0.1,0-0.1c0,0,0-0.1,0-0.1
		c0,0-0.1,0-0.1,0c0-0.1,0-0.1,0-0.2c-0.1-0.1-0.1-0.1-0.1-0.2c-0.1,0-0.1-0.1-0.1-0.2c-0.1,0-0.1-0.1-0.1-0.2
		c-0.1,0-0.1-0.1-0.1-0.2c-0.1,0-0.1-0.1-0.1-0.2c-0.1-0.1-0.1-0.1-0.1-0.2c0,0-0.1-0.1-0.1-0.1c0,0,0-0.1,0-0.1
		c-0.1-0.1-0.1-0.3-0.2-0.4c-0.1,0-0.1-0.1-0.1-0.2c-0.1,0-0.1-0.1-0.1-0.2c-0.1,0-0.1-0.1-0.1-0.2c-0.1,0-0.1-0.1-0.1-0.2
		c-0.1-0.1-0.1-0.1-0.1-0.2c-0.1,0-0.1-0.1-0.1-0.2c-0.1-0.1-0.2-0.3-0.2-0.4c-0.1,0-0.1-0.1-0.1-0.2l0,0c0,0,0-0.1,0-0.1v0
		c-0.1-0.1,0-0.2-0.1-0.2c-0.1-0.1,0-0.2-0.1-0.2v0c0,0,0,0-0.1-0.1c0-0.1,0-0.1,0-0.2l0,0c-0.1-0.1-0.1-0.2-0.2-0.3
		c0-0.1-0.1-0.1-0.1-0.1c0,0,0,0-0.1,0c0,0,0,0,0,0c-0.1,0-0.3,0-0.4,0c0,0-0.1,0.1-0.1,0.1c0,0.1,0,0.3,0,0.4c0,0.1,0,0.2,0.1,0.3
		c0,0,0,0.1,0,0.1c0,0,0.1,0.1,0.1,0.1c0.1,0.3,0.3,0.6,0.4,0.8l0.2,0.2c0,0.1,0,0.1,0.1,0.1c0,0,0,0.1,0,0.1c0,0.1,0,0.1,0.1,0.1
		c0,0,0,0,0,0c0.3,0.6,0.6,1.2,1,1.8c0.1,0.4,0.3,0.7,0.6,1.1c0,0.1,0,0.1,0.1,0.1c0.2,0.5,0.5,1.1,0.9,1.5c0,0.2,0.1,0.3,0.2,0.5
		c1,1.8,2,3.6,3.1,5.4c0.2,0.4,0.5,0.9,0.8,1.3c0,0.1,0.1,0.3,0.2,0.4c0.1,0.2,0.1,0.4,0.2,0.6c0.2,0.4,0.4,0.9,0.6,1.3
		c0,0.1,0,0.2-0.2,0.2c-0.2,0-0.4-0.1-0.6-0.1c-0.6-0.2-1.2-0.3-1.9-0.3C18.6,33,18.4,33,18.2,33c-0.5-0.1-1-0.2-1.5-0.1
		c-0.1,0-0.1-0.1-0.2-0.1c-0.4,0-0.7-0.1-1.1,0l-0.2,0c-0.8-0.1-1.6-0.1-2.4-0.1c-0.1,0-0.3,0-0.4,0.1c-0.9,0-1.7,0-2.6,0.1
		c0,0-0.1,0-0.1,0c-0.4,0-0.8,0-1.2,0.1c-0.1,0-0.1,0-0.2,0c-0.5,0-0.9,0-1.3,0.1c-1.3,0.1-2.5,0.4-3.8,0.8C3,34,2.9,34,2.7,34
		c0,0,0-0.1,0-0.1l0,0l0,0c0.2-0.3,0.4-0.6,0.5-1c0.2-0.5,0.4-0.9,0.6-1.4c0.1-0.1,0.1-0.3,0.2-0.4c0.1-0.1,0.1-0.1,0.1-0.2
		c0.1-0.1,0.1-0.1,0.1-0.2c0,0,0.1,0,0.1,0c0.1-0.2,0.2-0.3,0.3-0.5c0,0,0,0,0-0.1c0-0.1,0-0.1,0-0.2c0,0,0,0,0-0.1c0,0,0,0,0.1,0
		c0-0.1,0-0.1,0-0.2C5,29.3,5,29.3,5,29.2c0,0,0.1-0.1,0.1-0.1c0.6-1.1,1.1-2.2,1.7-3.3c0.4-0.6,0.7-1.1,0.9-1.7
		c0.2-0.3,0.3-0.6,0.4-0.9c0,0,0.1,0,0.1-0.1c0.4-0.8,0.9-1.7,1.3-2.5c0-0.1,0-0.1,0-0.2c0.2-0.3,0.4-0.7,0.5-1.1l0.4-0.7
		c0.1-0.3,0.3-0.7,0.5-1c0.1-0.2,0.1-0.4,0-0.6c-0.1-0.1,0-0.2-0.1-0.2v0c-0.1,0-0.3,0-0.4,0c-0.1,0.1-0.2,0-0.2,0.1
		c0,0-0.1,0.1-0.1,0.1l0,0c-0.1,0-0.1,0.2-0.1,0.2l0,0c-0.1,0.1-0.1,0.1-0.1,0.2l0,0v0c-0.1,0.1-0.1,0.2-0.1,0.2l0,0
		c-0.1,0.1-0.1,0.2-0.1,0.2v0c-0.1,0.1-0.1,0.2-0.1,0.2v0c-0.1,0.1-0.1,0.2-0.1,0.2h0c0,0.1,0,0.2-0.1,0.2c0,0.1,0,0.2-0.1,0.2
		c0,0.1-0.1,0.2-0.1,0.3v0c-0.1,0.1,0,0.2-0.1,0.2s0,0.2-0.1,0.2c-0.1,0.1-0.1,0.1-0.1,0.2l0,0c0,0.1,0,0.2-0.1,0.2
		c0,0.1,0,0.2-0.1,0.2c0,0.1,0,0.1,0,0.2c0,0-0.1,0-0.1,0c0,0,0,0,0,0c0,0,0,0.1,0,0.1c-0.1,0.1,0,0.2-0.1,0.2
		c-0.1,0.1,0,0.2-0.1,0.2c-0.1,0.1,0,0.2-0.1,0.2C8,21.3,8,21.4,8,21.5h0c0,0.1,0,0.2-0.1,0.2c0,0.1,0,0.2-0.1,0.3
		c0,0.1,0,0.2-0.1,0.2c0,0.1,0,0.2-0.1,0.2c0,0.1,0,0.2-0.1,0.2c0,0.1,0,0.1,0,0.2L7.3,23c0,0.1,0,0.2-0.1,0.2c0,0.1,0,0.2-0.1,0.2
		c0,0.1,0,0.2-0.1,0.2c0,0.1,0,0.1,0,0.2c0,0-0.1,0-0.1,0v0c-0.1,0.1-0.1,0.2-0.1,0.3c0,0,0,0.1,0,0.1c-0.1,0.1,0,0.2-0.1,0.2
		c-0.1,0.1,0,0.2-0.1,0.2c-0.1,0.1-0.1,0.2-0.1,0.2c0,0,0,0,0,0l0,0c-0.1,0.1,0,0.2-0.1,0.3c-0.1,0.1,0,0.2-0.1,0.2
		c0,0.1-0.1,0.1-0.1,0.2c0,0,0,0,0,0c0,0.1,0,0.2-0.1,0.2c0,0.1,0,0.2-0.1,0.2c0,0.1,0,0.2-0.1,0.3c0,0.1,0,0.2-0.1,0.2
		c0,0.1,0,0.2-0.1,0.2c0,0.1,0,0.2-0.1,0.2c0,0.1,0,0.2-0.1,0.3c0,0.1,0,0.2-0.1,0.2c0,0.1,0,0.2-0.1,0.2c0,0.1,0,0.2-0.1,0.2
		c0,0.1,0,0.2-0.1,0.2c0,0,0,0.1,0,0.1c-0.1,0.1,0,0.2-0.1,0.2c-0.1,0.1,0,0.2-0.1,0.2c0,0-0.1,0.1-0.1,0.2c0,0,0,0,0,0
		c-0.1,0.1-0.1,0.2-0.1,0.2c0,0,0,0.1,0,0.1c0,0-0.1,0.1,0,0.2l0,0c0,0,0,0-0.1,0l0,0.1c0,0-0.1,0.1-0.1,0.1c0,0.1,0,0.2-0.1,0.2
		c0,0.1-0.1,0.2-0.1,0.3c0,0,0,0,0,0.1c0,0-0.1,0-0.1,0.1h0c0,0.1,0,0.1,0,0.2c-0.1,0-0.1,0.1-0.1,0.2C3.7,30.9,3.7,31,3.6,31
		c-0.2,0.5-0.6,1-0.7,1.6c-0.1,0.2-0.2,0.4-0.3,0.6c-0.2,0.3-0.3,0.7-0.3,1.1c0,0-0.1,0-0.1,0c0,0.1-0.1,0.1-0.1,0.1l-0.3,0.3
		c0,0.1,0,0.3,0,0.4L2,35.3l0.1,0c0.1,0,0.2,0,0.3-0.1c1-0.3,2-0.5,3-0.7c1.1-0.2,2.3-0.2,3.4-0.5c0.1,0,0.2-0.1,0.3-0.1
		c0.1,0,0.3,0,0.4,0c0.1,0,0.2,0,0.3,0c0.8-0.1,1.5-0.1,2.3-0.1c0.7,0,1.4,0,2.1,0c0.5,0,1,0,1.5,0c0.3,0,0.7,0,1,0
		c0.1,0,0.2,0.1,0.3,0.1c0.6,0,1.2,0.1,1.7,0.1c0.7,0.1,1.4,0.2,2.2,0.3c0.2,0,0.3,0.1,0.5,0c0.2,0.1,0.5,0.1,0.8,0.3
		c0.1,0,0.3,0,0.4,0.1c0.1,0,0.2,0,0.2-0.2c0-0.1,0-0.3-0.1-0.3L22.5,34.1z M15.5,32.9C15.5,32.9,15.5,32.9,15.5,32.9
		C15.5,32.9,15.5,32.9,15.5,32.9C15.5,32.9,15.5,32.9,15.5,32.9z"/>
	<polygon class="st0" points="13.6,17.1 13.6,17.1 13.6,17.1 	"/>
</g>
</svg>
