<?xml version="1.0" encoding="utf-8"?>
<!-- Generator: Adobe Illustrator 22.1.0, SVG Export Plug-In . SVG Version: 6.00 Build 0)  -->
<svg version="1.1" id="Layer_1" xmlns="http://www.w3.org/2000/svg" xmlns:xlink="http://www.w3.org/1999/xlink" x="0px" y="0px"
	 viewBox="0 0 54 48" style="enable-background:new 0 0 54 48;" xml:space="preserve">
<style type="text/css">
	.st0{fill:#FFFFFF;}
</style>
<g>
	<polygon class="st0" points="33.2,32.2 33.2,32.2 33.2,32.2 	"/>
	<path class="st0" d="M34.4,34.7C34.4,34.7,34.4,34.7,34.4,34.7c-0.1-0.1,0-0.2-0.1-0.2c0-0.1,0-0.2-0.1-0.2c0-0.1,0-0.2-0.1-0.2
		c0-0.1,0-0.2-0.1-0.2c0-0.1,0-0.2-0.1-0.2c0-0.1,0-0.2-0.1-0.2c0-0.1,0-0.2-0.1-0.2c0-0.1,0-0.2-0.1-0.2c0-0.1,0-0.2-0.1-0.2v0
		c-0.1-0.1,0-0.2-0.1-0.3v0c-0.1-0.1,0-0.2-0.1-0.2c-0.1-0.1-0.1-0.1-0.2-0.1h0c-0.1-0.1-0.3,0-0.5-0.1c0,0-0.1,0-0.1,0
		c-0.1,0-0.2,0-0.3-0.1c-0.2,0-0.3,0-0.5,0c0,0.1,0,0.1,0,0.2c0.1,0.1,0,0.2,0.1,0.2v0c0.1,0.1,0,0.2,0.1,0.2c0,0,0.1,0.1,0.1,0.1v0
		c0.1,0,0,0.2,0.1,0.2c0.1,0.1,0,0.2,0.1,0.2c0,0,0.1,0.1,0.1,0.1c0.1,0.1,0,0.2,0.1,0.2c0.1,0.1,0.1,0.2,0.2,0.3
		c0.1,0.1,0,0.2,0.1,0.2c0,0,0.1,0.1,0.1,0.1v0c0.1,0,0,0.2,0.1,0.2c0,0.1,0,0.2,0.1,0.2c0,0.1,0.1,0.1,0.1,0.1
		c0.1,0.1,0,0.2,0.1,0.2c0.1,0.1,0.1,0.2,0.2,0.3c0.1,0.1,0,0.2,0.1,0.2l0,0c0,0,0.1,0,0.1,0c0,0,0,0.1,0,0.1c0,0,0.1,0,0.1,0
		c0,0,0,0.1,0,0.1c0,0,0,0.1,0,0.1c0,0,0.1,0,0.1,0c0,0.1,0,0.1,0,0.2c0,0,0.1,0.1,0.1,0.1c0,0,0.1,0,0.1,0c0,0.1,0,0.1,0,0.2
		c0.1,0,0.1,0.1,0.1,0.2c0.1,0,0.1,0.1,0.1,0.1c0.1,0.2,0.2,0.4,0.3,0.6l0.2,0.1l0.1,0.2c0.1,0,0.1,0,0.1,0.1c0,0,0,0,0,0
		c0.2,0.1,0.4,0.1,0.6,0c0.1-0.1,0-0.3,0-0.4c-0.1-0.2-0.2-0.4-0.3-0.6c-0.1,0-0.1-0.1-0.1-0.2c-0.1,0-0.1-0.1-0.1-0.2
		c-0.1-0.1-0.2-0.2-0.3-0.4c0-0.1,0-0.1,0-0.2c-0.1,0-0.1-0.1-0.1-0.2l-0.1,0c0-0.1,0-0.1,0-0.2c-0.1,0-0.1-0.1-0.1-0.2
		c0,0-0.1,0-0.1,0l0,0c0,0,0,0,0,0C34.5,34.8,34.5,34.7,34.4,34.7z"/>
	<path class="st0" d="M36.7,43.5c-0.1-0.2,0-0.4-0.1-0.6l0,0c-0.1-0.2,0-0.4-0.1-0.5c0,0,0,0,0-0.1c0,0,0,0,0,0
		c-0.1-0.2,0-0.4-0.1-0.6l0,0c-0.1-0.2,0-0.5-0.1-0.6l0,0c-0.1-0.2,0-0.5-0.1-0.7l0,0c-0.1-0.2,0-0.4-0.1-0.5c0,0,0-0.1,0-0.1
		c-0.1-0.2,0-0.5-0.1-0.7v0c-0.1-0.2,0-0.5-0.1-0.7c0,0,0,0,0-0.1c0,0,0,0,0,0c-0.1-0.2,0-0.4-0.1-0.6v0c-0.2-0.1-0.4-0.2-0.6,0
		c-0.1,0.2-0.1,0.4,0,0.6c0,0,0,0.1,0,0.1c0.1,0.3,0,0.6,0.1,0.9v0c0.1,0.3,0,0.6,0.1,0.9c0.1,0.2,0.1,0.5,0.1,0.8c0,0,0,0,0,0.1
		c0,0,0,0,0,0c0.1,0.2,0,0.5,0.1,0.7c0,0,0,0,0,0.1c0,0,0,0,0,0c0.1,0.2,0,0.5,0.1,0.7l0,0c0.1,0.2,0,0.4,0.1,0.5c0,0,0,0,0,0.1
		c0,0,0,0,0,0c0,0.2,0.1,0.4,0.3,0.5c0,0,0.1,0.1,0.1,0.1c0,0.1,0.1,0.1,0.2,0.1c0.1,0.1,0.2,0,0.2,0.1c0.1,0,0.1-0.1,0.1-0.2
		C36.7,43.7,36.7,43.6,36.7,43.5C36.6,43.6,36.6,43.5,36.7,43.5C36.6,43.5,36.7,43.5,36.7,43.5z"/>
	<path class="st0" d="M40.3,29.3L40.3,29.3c-0.1-0.3,0-0.6-0.1-0.9c0,0,0-0.1,0-0.1c-0.1-0.2,0-0.4-0.1-0.6c0,0,0,0,0-0.1
		c0,0,0,0,0,0c-0.1-0.1,0-0.3-0.1-0.5l0,0c0-0.1,0-0.2-0.1-0.2c-0.1-0.1-0.1-0.2-0.2-0.2c-0.5,0-0.9,0-1.4,0
		C38.1,27,37.9,27,37.8,27c-0.1,0.1-0.3,0.1-0.4,0.1c-0.1,0.1-0.2,0.1-0.3,0.1c0,0.1,0.1,0.2,0.1,0.3c0.1,0,0.1,0.1,0.1,0.1
		c0.1,0,0.1,0.1,0.1,0.2c0.1,0,0.1,0.1,0.1,0.2c0.1,0.1,0.1,0.2,0.1,0.3l0,0c0,0,0,0,0,0c0,0.1,0,0.3,0.1,0.4c0.1,0.5,0.1,1,0,1.5
		l0,0c-0.1,0.2,0,0.4-0.1,0.6c0,0,0,0,0,0.1c0,0,0,0,0,0c-0.1,0.1,0,0.3-0.1,0.4c-0.1,0.1,0,0.2-0.1,0.3v0c-0.1,0.1,0,0.2-0.1,0.3
		c-0.1,0.1-0.1,0.2,0,0.3c0,0,0,0,0,0h0c0,0,0,0-0.1,0c0,0.1,0,0.2,0,0.3l0.2,0.1c0,0.1,0.1,0.1,0.1,0.1h0c0,0,0,0.1,0,0.1h0
		c0,0,0.1,0.1,0.1,0.1l0,0c0,0.1,0.2,0.1,0.2,0.1c0.1,0.1,0.2,0,0.2,0.1c0.1,0.1,0.2,0,0.3,0.1c0.1,0.1,0.3,0,0.5,0.1l0,0l0,0
		c0.2,0,0.4,0,0.5,0c0.1-0.1,0.3,0,0.4-0.1v0c0.1,0,0.1-0.1,0.1-0.1l0,0c0,0,0-0.1,0-0.1l0.2-0.1c0-0.1,0-0.2,0.1-0.2
		c0-0.1,0-0.2,0-0.3c0,0,0.1,0,0.1-0.1c0,0,0-0.1,0-0.1c0.1-0.7,0.1-1.4,0.1-2.2c0-0.1,0-0.2,0-0.3C40.4,29.8,40.4,29.5,40.3,29.3z"
		/>
	<path class="st0" d="M46.9,30.4C46.9,30.4,46.9,30.3,46.9,30.4c0-0.3,0-0.6-0.1-0.8l0,0l0,0c-0.1-0.2,0-0.4-0.1-0.6l0,0
		c-0.1-0.1,0-0.2-0.1-0.3l0,0l0,0c-0.1-0.1,0-0.3-0.1-0.4c0-0.1,0-0.2-0.1-0.2c-0.1-0.1-0.1-0.2-0.1-0.3c-0.1,0-0.1-0.1-0.1-0.2l0,0
		c0-0.1,0-0.1-0.1-0.1c-0.1-0.1,0-0.2-0.1-0.2v0c-0.1,0-0.1-0.1-0.1-0.1h-0.3c-0.2,0.1-0.4,0.1-0.6,0.2c-0.1,0.1-0.1,0.1-0.2,0.1
		c-0.1,0.1-0.1,0.1-0.2,0.1c-0.1,0.1-0.3,0.2-0.4,0.2c-0.1,0.2-0.3,0.3-0.2,0.5c0.1,0,0.1,0.1,0.1,0.2c0.1,0.1,0.1,0.2,0.1,0.3
		c0.1,0.1,0.1,0.1,0.1,0.2c0,0,0.1,0.1,0.1,0.1c0,0,0,0,0,0c0,0.1,0,0.2,0,0.2c0.1,0.1,0,0.3,0.1,0.4c0.1,0.3,0,0.6,0.1,0.9v0.2
		c-0.1,0.2-0.1,0.4,0,0.6v0c0,0.1-0.1,0.2-0.1,0.2c0,0,0,0,0,0.1c0,0,0,0,0,0c-0.1,0.1,0,0.2-0.1,0.3l0,0c-0.1,0.2-0.1,0.4,0.1,0.5
		c0.1,0.1,0.2,0.1,0.2,0.1c0.2,0.1,0.4,0.2,0.6,0.2h0c0.1,0.1,0.3,0,0.4,0.1l0,0c0.4,0.1,0.8,0.1,1.3,0c0.1-0.3,0.1-0.6,0.1-0.8
		C47,31.5,46.9,31,46.9,30.4z"/>
	<path class="st0" d="M18.8,38.7c-0.1-0.1,0-0.3-0.1-0.5v0c-0.1-0.1,0-0.2-0.1-0.3c-0.1-0.1,0-0.2-0.1-0.3c-0.1-0.1,0-0.2-0.1-0.3
		c-0.1-0.1,0-0.2-0.1-0.2c0,0,0,0,0-0.1c0-0.1-0.1-0.1-0.1-0.1h0c-0.1-0.1-0.2,0-0.2-0.1l0,0c0,0-0.1-0.1-0.1-0.1l0,0
		c-0.1-0.1-0.2-0.1-0.2-0.1c-0.1-0.1-0.2,0-0.2-0.1c0,0-0.1-0.1-0.1-0.1l0,0c0-0.1-0.1-0.1-0.2-0.1c-0.1-0.1-0.2-0.1-0.2-0.1
		c-0.1-0.1-0.2,0-0.2-0.1c0,0-0.1-0.1-0.1-0.1c-0.1-0.1-0.2-0.1-0.2-0.1c0,0-0.1-0.1-0.1-0.1c0,0-0.1,0-0.1,0L16,35.5
		c-0.1-0.1-0.2-0.1-0.2-0.1c0,0-0.1-0.1-0.1-0.1l0,0c0-0.1-0.2-0.1-0.2-0.1c-0.1-0.1-0.2,0-0.2-0.1c0,0-0.1-0.1-0.1-0.1l0,0
		c0-0.1-0.2-0.1-0.2-0.1c-0.1-0.1-0.2-0.2-0.3-0.2c-0.1-0.1-0.1-0.1-0.2-0.1c0,0,0,0,0,0l-0.1-0.1c-0.1,0-0.2-0.1-0.2-0.1
		c0,0-0.1-0.1-0.1-0.1s-0.1-0.1-0.1-0.1c-0.1,0-0.2-0.1-0.2-0.1h-0.1c0,0,0-0.1,0-0.1c0,0-0.1,0-0.1,0c0,0,0-0.1,0-0.1l-0.1-0.1
		c0,0-0.1,0-0.1,0c0,0,0-0.1,0-0.1l-0.2,0c0,0,0-0.1,0-0.1h-0.2c0,0,0,0.1,0,0.1c0,0-0.1,0-0.1,0c0,0,0,0.1,0,0.1h-0.1
		c0,0,0,0.1,0,0.1c0,0,0,0.1,0,0.1c0,0-0.1,0-0.1,0v0c-0.1,0.1,0,0.2-0.1,0.3c-0.1,0.1,0,0.3-0.1,0.4c-0.1,0.1,0,0.3-0.1,0.4
		c0,0,0,0.1,0,0.1c-0.1,0.1,0,0.2-0.1,0.3c0,0,0,0.1,0,0.1c-0.1,0.1,0,0.2-0.1,0.3c-0.1,0.1,0,0.2-0.1,0.2c-0.1,0.1,0,0.2-0.1,0.2
		c-0.1,0.1,0,0.2-0.1,0.2c0,0-0.1,0.1-0.1,0.1c-0.1,0.1-0.1,0.2-0.2,0.3c0,0-0.1,0.1-0.1,0.1c0,0,0,0.1,0,0.1h-0.1
		c0,0-0.1,0.1-0.1,0.1l-0.1,0.1l-0.1,0.1c0,0-0.1,0.1-0.1,0.1c0,0.1-0.1,0.1-0.2,0.1l-0.1,0.1L10.2,38l-0.1,0.1L10,38.2
		c0,0-0.1,0.1-0.1,0.1l-0.1,0.1c0,0.1,0,0.1,0,0.2l-0.2,0.2c0,0,0,0.1,0,0.1l0.3,0.3c0.5,0.2,1,0.3,1.5,0.5c0.2,0,0.3,0,0.4,0.1
		c0.1,0,0.2,0,0.3,0c0,0,0,0,0,0.1c0.1,0,0.3,0,0.4,0c0.3,0.1,0.7,0.2,1.1,0.2c0.1,0,0.2,0,0.3,0.1c0,0,0.1,0,0.1,0c0,0,0,0,0,0
		c0.1,0,0.3,0,0.4,0c0.1,0,0.3,0,0.4,0.1h0c0,0.1,0,0.1,0,0.1c0,0,0.1,0,0.1,0c0.1,0.1,0.2,0,0.3,0.1l0,0h0c0.2,0,0.4,0.1,0.6,0.1
		l0,0l0,0c0,0,0.1-0.1,0.1,0c0.2,0,0.4,0,0.6,0c0.2,0,0.3,0,0.3-0.2c0-0.1,0.1-0.1,0.2-0.1c0.3,0,0.5,0,0.8,0c0,0,0-0.1,0-0.1h0
		l0.3,0c0,0,0.1-0.1,0.1-0.1c0,0,0.1-0.1,0.1-0.1c0-0.1,0-0.1,0-0.2c0,0,0.1-0.1,0.1-0.1C18.9,39.4,18.9,39.1,18.8,38.7
		C18.8,38.7,18.8,38.7,18.8,38.7z"/>
	<polygon class="st0" points="16.5,35.8 16.5,35.8 16.5,35.8 	"/>
	<path class="st0" d="M9.8,37.2c0,0,0.1-0.1,0.1-0.1c0,0,0.1-0.1,0.1-0.1c0,0,0.1-0.1,0.1-0.1l0,0c0.1,0,0-0.2,0.1-0.2l0,0
		c0,0,0.1-0.1,0.1-0.1c0,0,0.1-0.1,0.1-0.1c0.1,0,0-0.2,0.1-0.2c0,0,0.1-0.1,0.1-0.1l0,0c0.1-0.1,0.1-0.2,0.1-0.2
		c0,0,0.1-0.1,0.1-0.1l0,0c0.1-0.1,0.1-0.2,0.1-0.2v0c0.1-0.1,0.1-0.2,0.1-0.2c0,0,0-0.1,0-0.1c0,0,0,0,0.1,0c0,0,0-0.1,0-0.1
		c0,0,0.1-0.1,0.1-0.1c0,0,0-0.1,0-0.1c0,0,0.1-0.1,0.1-0.1c0,0,0-0.1,0-0.1c0,0,0,0,0,0c0,0,0,0,0,0c0,0,0.1,0,0.1-0.1
		c0,0,0-0.1,0-0.1c0.1-0.1,0-0.2,0.1-0.2c0.1-0.1,0-0.2,0.1-0.2c0.1-0.1,0-0.2,0.1-0.2c0.1-0.1,0.1-0.2,0.1-0.2c0,0,0-0.1,0-0.1
		c0.1-0.1,0-0.2,0.1-0.2c0.1-0.1,0.1-0.2,0.1-0.2c0,0,0-0.1,0-0.1c0.1-0.1,0-0.2,0.1-0.2c0,0,0-0.1,0-0.1c0.1-0.1,0-0.2,0.1-0.3
		c0.1-0.2,0-0.5,0.1-0.7c0,0,0-0.1,0-0.1c0.1-0.2,0.1-0.4,0-0.6c0,0,0-0.1,0-0.1c-0.1-0.1,0-0.3-0.1-0.4c0,0,0-0.1,0-0.1
		c0-0.1,0-0.2-0.1-0.2c0,0,0-0.1,0-0.1c0,0-0.1,0-0.1,0c0-0.1,0-0.1,0-0.2l-0.1-0.1c0,0,0,0-0.1,0c0-0.1,0-0.2,0-0.2
		c0,0-0.1-0.1-0.1-0.1c-0.1-0.1-0.2-0.2-0.2-0.3L11.5,29l-0.1-0.1l-0.1-0.1l-0.1-0.1l-0.1-0.1l0,0c0-0.1-0.2-0.1-0.2-0.1
		c0,0-0.1-0.1-0.1-0.1c0,0-0.1-0.1-0.1-0.1l0,0c0-0.1-0.2-0.1-0.2-0.1c0,0-0.1-0.1-0.1-0.1l0,0c-0.1-0.1-0.2-0.1-0.2-0.1
		c0,0-0.1,0-0.1,0c0,0,0,0-0.1-0.1c0,0-0.1,0-0.1,0c0,0-0.1-0.1-0.1-0.1h0c-0.1-0.1-0.2-0.1-0.2-0.1c-0.1-0.1-0.2-0.1-0.2-0.1
		c-0.1-0.1-0.2-0.1-0.2-0.1c-0.1-0.1-0.2,0-0.2-0.1l-0.1-0.1c0,0-0.1-0.1-0.1,0c0,0,0,0,0-0.1c-0.1,0-0.2-0.1-0.2-0.1l-0.1,0l0-0.1
		l-0.1-0.1l-0.1-0.1l-0.1-0.1c-0.1,0-0.1-0.1-0.1-0.1l-0.1-0.1c-0.1-0.1-0.2-0.2-0.2-0.3l-0.1-0.1c0,0-0.1-0.1-0.1-0.1
		c-0.1-0.1-0.2-0.2-0.2-0.3c0,0-0.1-0.1-0.1-0.1c-0.1,0-0.1-0.1-0.1-0.2c0,0-0.1-0.1-0.1-0.1c-0.1,0-0.1-0.1-0.1-0.2
		c0,0-0.1-0.1-0.1-0.1c-0.1,0-0.1-0.1-0.1-0.2c0,0-0.1-0.1-0.1-0.1c-0.1,0-0.1-0.1-0.1-0.2c-0.1,0-0.1-0.1-0.1-0.2
		c0,0-0.1-0.1-0.1-0.1c-0.1,0-0.1-0.1-0.1-0.2c0,0-0.1-0.1-0.1-0.1c-0.1,0-0.1-0.1-0.1-0.2c-0.1-0.1-0.2-0.2-0.2-0.3
		c0,0-0.1-0.1-0.1-0.1c0,0-0.1-0.1-0.1-0.1H5.1c0,0-0.1,0.1-0.1,0.1c0,0.4,0,0.8,0,1.3c0,0,0.1,0,0.1,0c0,0.1,0,0.1,0,0.2
		c0.1,0.1,0.1,0.3,0.1,0.4c0.1,0.1,0.1,0.2,0.1,0.3c0.2,0.5,0.3,1,0.3,1.5c0,0.2,0,0.4,0,0.5c0.1,0.1,0.2,0.4,0.4,0.4c0,0,0,0,0,0
		c0,0,0,0,0,0c0,0.1,0,0.2,0,0.2c0,0.1,0,0.2,0,0.3c-0.1,0.1,0,0.2-0.1,0.3l0,0c0,0.1-0.1,0.1-0.2,0.1l0,0c-0.1,0-0.2,0-0.3-0.1
		c-0.1,0-0.2,0-0.2-0.1l-0.1-0.1c0,0-0.1,0-0.1,0c0,0,0-0.1,0-0.1L4.9,28l-0.1-0.1c0,0-0.1-0.1-0.1-0.1l-0.1,0c0,0,0-0.1,0-0.1
		c-0.1,0-0.1-0.1-0.1-0.2c0,0-0.1-0.1-0.1-0.1c-0.1,0-0.1-0.1-0.1-0.2c0,0,0,0-0.1,0c0,0,0,0,0,0s0,0,0-0.1s0,0,0,0h0l0,0
		c0-0.1,0-0.1-0.1-0.2h0c0,0-0.1-0.1-0.1-0.1c-0.1-0.1,0-0.2-0.1-0.2l0,0c0,0-0.1-0.1-0.1-0.1c0,0,0-0.1,0-0.1
		c0-0.1-0.1-0.1-0.1-0.1c-0.1-0.1,0-0.2-0.1-0.2c-0.1-0.1,0-0.2-0.1-0.2l0,0c0,0-0.1-0.1-0.1-0.1c-0.1-0.1,0-0.2-0.1-0.2
		c-0.1-0.1,0-0.2-0.1-0.2C3,25.2,3,25.1,3,25v0c-0.1,0-0.1-0.1-0.1-0.2c-0.1,0-0.1-0.1-0.1-0.2c-0.1-0.1-0.1-0.1-0.1-0.2
		c-0.1-0.1-0.1-0.1-0.1-0.2c-0.1-0.1-0.1-0.1-0.1-0.2l0,0c-0.1-0.1,0-0.2-0.1-0.2l0,0c0,0-0.1-0.1-0.1-0.1c-0.1-0.1,0-0.2-0.1-0.2
		c-0.1-0.1,0-0.2-0.1-0.2v0C2,23.2,2,23.1,1.9,23c-0.1-0.1,0-0.2-0.1-0.2c-0.1-0.1,0-0.2-0.1-0.2c0,0-0.1-0.1-0.1-0.1
		c0,0-0.1-0.1-0.1-0.1H1.3c-0.1,0-0.1,0.1-0.1,0.1c0,0-0.1,0.1-0.1,0.1c-0.1,0.1,0,0.2-0.1,0.2c-0.1,0.1,0,0.2-0.1,0.2
		c0,0.1,0,0.2-0.1,0.3v0c-0.1,0.1,0,0.2-0.1,0.3c-0.1,0.1,0,0.2-0.1,0.3c-0.1,0.1,0,0.2-0.1,0.3c-0.1,0.1,0,0.2-0.1,0.3
		c0,0,0,0.1,0,0.1c0,0.1-0.1,0.1,0,0.2c0,0,0,0,0,0c0,0,0,0-0.1,0c0,0.1,0,0.1,0,0.2c-0.1,0.3-0.2,0.7-0.1,1c0,0.2,0,0.4-0.1,0.6
		c0,0.1,0,0.2,0,0.3c0,0,0.1,0,0.1,0c0,0.2,0,0.4,0,0.6c0,0.2,0,0.4,0,0.6c0,0,0.1,0.1,0.1,0.1c0.2,0.8,0.4,1.7,0.7,2.5
		C0.9,31,0.9,31.1,1,31.2C1,31.3,1,31.3,1,31.4c0,0.1,0,0.2,0.1,0.3c0,0.2,0.1,0.3,0.1,0.4c0,0.1,0.1,0.2,0.1,0.3
		c0.1,0.1,0.2,0.2,0.2,0.3c0.1,0.1,0.1,0.1,0.1,0.2c0.1,0.1,0.1,0.2,0.1,0.3C1.9,33.4,2,33.5,2,33.6c0.1,0.1,0.1,0.1,0.1,0.2
		c0.1,0.1,0.2,0.2,0.3,0.4c0.3,0.4,0.6,0.8,1,1c0.2,0.1,0.4,0.3,0.6,0.5c0.1,0,0.1,0,0.2,0c0.1,0.1,0.2,0.1,0.2,0.3
		c0.1,0.1,0.1,0.1,0.2,0.2c0.2,0.1,0.5,0.1,0.5,0.4c0.1,0,0.2,0,0.2,0.1c0,0,0.1,0.1,0.1,0.1c0.2,0.1,0.4,0.2,0.6,0.3
		c0.1,0.1,0.3,0.2,0.5,0.2c0.2,0.1,0.5,0.1,0.7,0.3c0.1,0,0.1,0,0.2,0c0,0,0,0.1,0,0.1c0.1,0,0.2,0,0.3,0.1C7.8,38,7.9,37.9,8,38
		l0.6,0l0,0h0c0.1-0.1,0.2,0,0.2-0.1c0.1-0.1,0.2,0,0.2-0.1c0.1-0.1,0.2-0.1,0.3-0.2v0c0,0,0.1-0.1,0.1-0.1c0,0,0.1-0.1,0.1-0.1
		C9.8,37.3,9.8,37.3,9.8,37.2z"/>
	<path class="st0" d="M44.1,13.4c0,0,0.1,0.1,0.1,0.1v0c0.1,0,0,0.2,0.1,0.2c0,0.1,0,0.2,0.1,0.2c0,0.1,0.1,0.1,0.1,0.1l0,0h0
		c0,0.1,0,0.1,0,0.2v0c0.1,0,0,0.2,0.1,0.2c0,0.1,0.1,0.1,0.2,0.1c0.1,0.1,0.2,0,0.2,0.1c0.1,0.1,0.2,0,0.2,0.1
		c0.1,0.1,0.2,0,0.2,0.1h0c0.1,0.1,0.2,0.1,0.2,0.1h0l0,0c0.1,0.1,0.2,0,0.2,0.1c0.1,0.1,0.2,0.1,0.3,0.1c0,0,0,0,0,0.1
		c0.1,0,0.2,0,0.2,0.1l0.3,0c0,0,0,0.1,0,0.1c0.1,0,0.2,0,0.2,0.1h0.4l0.1-0.1l0.1-0.1c0,0,0-0.1,0-0.1c0,0,0.1,0,0.1,0
		c0-0.1,0-0.1,0.1-0.1c0-0.1,0.1-0.1,0.1-0.2c0-0.1,0-0.1,0.1-0.1c0-0.1,0-0.2,0.1-0.2c0-0.1,0-0.2,0.1-0.2c0-0.1,0-0.1,0-0.2
		c0,0,0.1,0,0.1,0c0-0.1,0.1-0.2,0.1-0.3v0c0-0.2-0.2-0.2-0.3-0.2c-0.1-0.1-0.2,0-0.3-0.1c-0.2,0-0.3,0-0.4-0.1
		c-0.2,0-0.4,0-0.5-0.1l-0.4,0c0-0.1,0-0.1-0.1-0.1c0,0-0.1,0-0.1,0c-0.2-0.1-0.4-0.1-0.6-0.2c0,0-0.1,0-0.1,0c-0.1,0-0.3,0-0.4,0
		c0,0,0,0,0,0v0L45.2,13c0,0-0.1,0-0.1,0c-0.2,0-0.5,0-0.7-0.1c0,0-0.1,0-0.1,0c-0.2-0.1-0.4-0.1-0.5,0v0c0.1,0.1,0,0.2,0.1,0.3
		C44,13.2,44,13.3,44.1,13.4z"/>
	<polygon class="st0" points="48.8,17.3 48.8,17.3 48.8,17.3 	"/>
	<path class="st0" d="M48.6,14.9c0,0-0.1,0.1-0.1,0.1c0,0-0.1,0.1-0.1,0.1l0,0c-0.1,0-0.1,0.1-0.1,0.1l0,0c-0.1,0-0.1,0.1-0.1,0.1
		l0,0c0,0-0.1,0.1-0.1,0.1v0h0c0,0.1-0.1,0.2-0.2,0.3c0,0.1,0,0.1,0,0.2c0,0-0.1,0-0.1,0c0,0.1,0,0.1,0,0.2l0,0c0,0,0,0.1,0.1,0.1
		c0,0,0,0,0,0c0,0,0,0,0,0c0,0,0.1,0.1,0.1,0.1c0.1,0,0.1,0.1,0.1,0.1h0c0,0,0,0.1,0.1,0.1h0c0,0,0.1,0.1,0.1,0.1
		c0,0,0.1,0.1,0.1,0.1h0c0,0,0.1,0.1,0.1,0.1c0,0,0.1,0.1,0.1,0.1c0,0,0.1,0.1,0.1,0.1c0,0,0.1,0.1,0.1,0.1c0,0,0.1,0.1,0.1,0.1l0,0
		c0.1,0.1,0.1,0,0.2-0.1c0,0,0.1-0.1,0.1-0.1l0,0c0,0,0.1-0.1,0.1-0.1l0,0c0.1,0,0.1-0.1,0.1-0.1c0.1,0,0.1-0.1,0.1-0.1l0,0
		c0,0,0.1-0.1,0.1-0.1c0.1-0.1,0.2,0,0.2-0.1c0.1-0.1,0.3-0.1,0.4-0.2h0c0.1-0.1,0.3,0,0.4-0.1h0c0.2-0.1,0.5-0.1,0.7-0.1
		c0.3,0,0.3,0,0.2-0.3c0,0,0-0.1,0-0.1c-0.1-0.1-0.2-0.2-0.2-0.3h0c0-0.1-0.1-0.1-0.1-0.1l0,0c0,0-0.1-0.1-0.1-0.1
		c0,0-0.1,0-0.1-0.1c0,0,0,0,0-0.1L51,15.1c-0.1,0-0.1-0.1-0.1-0.1c-0.1,0-0.1-0.1-0.1-0.1c-0.1-0.1-0.1-0.1-0.2-0.2l-0.1-0.1
		l-0.1,0c0,0,0-0.1-0.1-0.1c0,0-0.1-0.1-0.1-0.1c0-0.1-0.1-0.1-0.2-0.1c-0.1-0.1-0.2,0-0.3-0.1l0,0l0,0c-0.1,0-0.2,0-0.2,0.1
		c0,0-0.1,0.1-0.1,0.1l0,0c0,0-0.1,0.1-0.1,0.1c-0.1,0.1-0.3,0.2-0.4,0.3l0,0C48.6,14.8,48.6,14.8,48.6,14.9z"/>
	<polygon class="st0" points="48.4,15 48.4,15 48.5,15 	"/>
	<polygon class="st0" points="19.1,17.2 19.1,17.2 19.1,17.2 	"/>
	<path class="st0" d="M18.9,17.3C18.9,17.3,18.9,17.3,18.9,17.3c-0.1,0.2-0.1,0.4,0,0.5c0,0,0,0.1,0,0.1c0.1,0.1,0,0.2,0.1,0.3
		c0,0,0,0.1,0,0.1c0,0.1,0,0.2,0.1,0.2c0.1,0.1,0,0.2,0.1,0.2c0.1,0.1,0,0.2,0.1,0.2l0,0c0,0,0.1,0.1,0.1,0.1l0,0
		c0.1,0,0,0.2,0.1,0.2c0,0,0.1,0.1,0.1,0.1v0c0.1,0,0,0.2,0.1,0.2l0,0c0,0,0.1,0.1,0.1,0.1c0,0,0.1,0.1,0.1,0.1
		c0.1,0.1,0.3,0.1,0.4,0l0,0h0c0.1,0,0.2,0,0.2-0.1l0,0c0,0,0.1-0.1,0.1-0.1c0.1-0.1,0.2,0,0.2-0.1c0,0,0.1-0.1,0.2-0.1l0,0h0
		c0,0,0,0,0,0l0,0l0,0h0.1c0,0,0,0,0-0.1l0,0c0,0,0.1,0,0.1,0c0,0,0,0,0,0l0,0c0-0.1,0.1-0.2,0-0.2c0,0-0.1,0-0.1,0
		c-0.1-0.1-0.2,0-0.2-0.1l-0.1,0l-0.1-0.1c-0.1,0-0.2,0-0.2-0.1c-0.1-0.1-0.2,0-0.2-0.1c0,0-0.1-0.1-0.1-0.1l0,0
		c0-0.1-0.2-0.1-0.2-0.1c0,0-0.1-0.1-0.1-0.1l0,0c0-0.1-0.2,0-0.2-0.1l0,0c0,0-0.1-0.1-0.1-0.1c0,0-0.1-0.1-0.1-0.1
		c0,0-0.1-0.1-0.1-0.1c0,0-0.1-0.1-0.1-0.1c0,0-0.1-0.1-0.1-0.1c0,0-0.1-0.1-0.1-0.1c-0.1-0.1,0-0.2-0.1-0.2
		C19,17.2,19,17.2,18.9,17.3z"/>
	<polygon class="st0" points="35.5,18.2 35.5,18.2 35.5,18.2 	"/>
	<path class="st0" d="M31.5,11.4C31.5,11.4,31.5,11.4,31.5,11.4C31.6,11.4,31.6,11.4,31.5,11.4c0,0.1,0.1,0.2,0.1,0.2v0
		c0,0,0.1,0.1,0.1,0.1v0c0,0,0.1,0,0.1,0h0c0,0.1,0,0.1,0.1,0.1c0,0,0,0.1,0,0.1c0,0,0,0.1,0,0.1c0,0,0.1,0,0.1,0c0,0,0,0.1,0,0.1
		l0.1,0.1c0.1,0,0.1,0.1,0.1,0.1c0.1,0,0.1,0.1,0.1,0.1c0.1,0,0.1,0.1,0.1,0.1c0.1,0,0.1,0.1,0.1,0.1c0.1,0,0.1,0.1,0.1,0.1
		c0.1,0,0.1,0.1,0.1,0.1c0.1,0,0.1,0.1,0.1,0.1c0.2,0.1,0.3,0.2,0.4,0.4c0.2,0.2,0.4,0.4,0.6,0.6C34,14,34,14,34.1,14
		c0.1,0.1,0.2,0.3,0.3,0.3c0,0.2,0,0.4,0,0.5c0,0,0,0.1,0,0.1c0.1,0.1,0,0.2,0.1,0.3c0,0,0.1,0,0.1,0c0,0,0,0.1,0,0.1
		c0,0,0,0.1,0,0.1c0,0.1,0,0.1,0,0.2l0.1,0c0,0.1,0,0.2,0,0.3c0.1,0.1,0,0.2,0.1,0.3c0,0,0,0.1,0,0.1c0.1,0.1,0,0.3,0.1,0.3l0,0
		c0.1,0.1,0,0.2,0.1,0.3c0.1,0.1,0,0.2,0.1,0.3s0,0.2,0.1,0.3c0,0.1,0,0.2,0.1,0.2c0.1,0.1,0,0.2,0.1,0.2c0.1,0.1,0.1,0.1,0.2,0.1v0
		c0.1,0.1,0.3,0,0.4,0.1l0,0l0,0c0.1,0,0.1-0.1,0.1-0.1c0,0,0,0,0,0s0,0,0-0.1l0,0c-0.1-0.1,0-0.2-0.1-0.3c-0.1-0.1,0-0.2-0.1-0.3
		c-0.1-0.1,0-0.2-0.1-0.3c0-0.1,0-0.2-0.1-0.2c-0.1-0.1,0-0.2-0.1-0.3c-0.1-0.1,0-0.2-0.1-0.3l0,0c-0.1-0.1,0-0.2-0.1-0.3
		c0-0.1,0-0.2-0.1-0.2v0c0,0,0,0-0.1,0c0-0.1,0-0.2,0-0.3c-0.1-0.1-0.1-0.1-0.1-0.2l-0.1-0.1c0-0.1,0-0.1,0-0.2
		C35.1,15,35,14.9,35,14.8c-0.1-0.1-0.1-0.1-0.1-0.2h0c0,0-0.1-0.1-0.1-0.1c-0.1-0.1-0.2-0.1-0.3-0.1l0.1-0.1c0-0.1,0-0.1,0-0.2
		l-0.1-0.1c-0.1,0-0.1-0.1-0.1-0.2c0,0-0.1,0-0.1,0l0,0c0,0,0-0.1,0-0.1c0,0-0.1,0-0.1,0l0,0c0,0,0-0.1,0-0.1l-0.1,0
		c0,0,0-0.1,0-0.1c-0.1-0.1-0.3-0.3-0.4-0.4l-0.1-0.1l-0.1-0.1l-0.1-0.1l-0.1-0.1c0,0-0.1-0.1-0.1-0.1c0,0-0.1-0.1-0.1-0.1
		c-0.3-0.2-0.6-0.5-0.8-0.8c0,0-0.1,0-0.1,0c0,0,0-0.1,0-0.1l0,0c0,0-0.1-0.1-0.1-0.1c0,0-0.1-0.1-0.1-0.1c0,0-0.1-0.1-0.1-0.1v0
		c-0.1,0-0.1-0.2-0.2-0.1c0,0-0.1,0.1-0.1,0.1l0,0C31.5,11.2,31.5,11.3,31.5,11.4z"/>
	<path class="st0" d="M53.9,25.5c-0.1-0.1-0.1-0.2-0.1-0.3l-0.3-0.3c0,0-0.1-0.1-0.1-0.1c0-0.1-0.1-0.1-0.2-0.1
		c-0.1-0.1-0.2-0.1-0.2-0.1c-0.1-0.1-0.2-0.1-0.3-0.2c0-0.1-0.1-0.1-0.2-0.1h0l0,0c-0.1-0.1-0.3-0.1-0.4-0.2c-0.1,0-0.2,0-0.2-0.1
		c-0.1,0-0.2,0-0.2-0.1c-0.1,0-0.2,0-0.2-0.1c-0.1,0-0.2,0-0.2-0.1l-0.2,0c0,0-0.1-0.1-0.1-0.1h0c-0.1-0.1-0.2,0-0.2-0.1h0
		c-0.1-0.1-0.2,0-0.3-0.1c-0.1-0.1-0.2,0-0.4-0.1c0,0,0,0-0.1,0c0,0,0,0,0,0c-0.1-0.1-0.1-0.1-0.2,0l0,0c-0.1,0-0.1,0.1-0.1,0.1
		c0,0-0.1,0.1-0.1,0.1c-0.1,0.1,0,0.2-0.1,0.3c0,0,0,0,0,0.1c0,0,0,0,0,0c-0.1,0.6-0.1,1.2,0,1.8c0.1,0.1,0,0.2,0.1,0.2
		c0,0,0.1,0.1,0.1,0.1c0,0.1,0.1,0.1,0.1,0.1l0,0c0.2,0.2,0.4,0.4,0.5,0.5l0,0c0,0.1,0.1,0.1,0.1,0.1c0,0,0.1,0.1,0.1,0.1
		c0.1,0.1,0.1,0.2,0.2,0.3c0.1,0.1,0,0.2,0.1,0.2c0,0.1,0,0.2,0.1,0.2c0,0.1,0,0.2,0.1,0.2c0.1,0.1,0,0.2,0.1,0.3
		c0.1,0.1,0,0.3,0.1,0.4c0.1,0.2,0,0.4,0.1,0.6l0,0l0,0c0.1,0.2,0.2,0.1,0.3,0.1c0-0.1,0.2,0,0.2-0.1c0,0,0.1-0.1,0.1-0.1
		c0,0,0.1-0.1,0.1-0.1c0.1-0.1,0.2-0.2,0.3-0.2c0,0,0-0.1,0-0.1l0.2-0.2h0l0,0c0-0.1,0-0.1,0.1-0.2c0.1-0.1,0.2-0.2,0.3-0.2
		c0,0,0.1-0.1,0.1-0.1l0,0c0,0,0.1-0.1,0.1-0.1c0.1,0,0.1-0.1,0.1-0.2c0,0,0.1-0.1,0.1-0.1c0.1,0,0.1-0.1,0.1-0.2
		c0.1-0.1,0-0.2,0.1-0.2c0.1-0.1,0-0.2,0.1-0.2c0.1-0.1,0-0.2,0.1-0.2h0c0-0.2,0-0.3,0.1-0.4c0,0,0-0.1,0-0.1
		C54,25.9,54,25.7,53.9,25.5C53.9,25.6,53.9,25.5,53.9,25.5z"/>
	<polygon class="st0" points="49.4,25.8 49.4,25.8 49.4,25.8 	"/>
	<path class="st0" d="M51.2,30.7L51.2,30.7c-0.1-0.2,0-0.4-0.1-0.5v0c-0.1-0.1,0-0.3-0.1-0.4l0,0c-0.1-0.1,0-0.2-0.1-0.3
		c0-0.1,0-0.2-0.1-0.2c0,0,0,0,0-0.1c0,0,0,0,0,0c0-0.1,0-0.2-0.1-0.2c0-0.1,0-0.2-0.1-0.2c-0.1-0.1,0-0.2-0.1-0.3
		c0-0.1,0-0.2-0.1-0.2c0-0.1,0-0.2-0.1-0.2c0-0.1,0-0.2-0.1-0.2c0-0.1,0-0.2-0.1-0.2c0-0.1,0-0.1-0.1-0.1c-0.1-0.1,0-0.2-0.1-0.2
		c0,0-0.1-0.1-0.1-0.1c-0.1-0.1-0.1-0.2-0.2-0.3l0,0c0-0.1-0.1-0.1-0.1-0.1l0,0c0,0-0.1-0.1-0.1-0.1v0c0,0-0.1-0.1-0.1-0.1
		c0,0-0.1-0.1-0.1-0.1l0,0c0-0.1-0.1-0.1-0.1-0.1l0,0c-0.1,0-0.1,0-0.2-0.1c-0.1,0-0.2,0.1-0.3,0.2c-0.1,0.1-0.2,0.2-0.3,0.3
		c0,0.1-0.1,0.1-0.1,0.1l0,0c-0.1,0-0.1,0.1-0.1,0.1l0,0c-0.1,0-0.1,0.1-0.1,0.1l0,0c0,0-0.1,0.1-0.1,0.1c-0.1,0.1-0.2,0.1-0.3,0.2
		l0,0c-0.1,0-0.1,0.1-0.1,0.1c-0.1,0.1-0.2,0-0.2,0.1c0,0.1-0.2,0.1-0.1,0.2l0,0c0,0,0.1,0.1,0.1,0.1v0c0.1,0,0,0.1,0.1,0.2
		c0.1,0.1,0,0.2,0.1,0.2c0,0.1,0,0.2,0.1,0.2c0.1,0.1,0,0.2,0.1,0.3c0.1,0.1,0,0.3,0.1,0.4v0c0.1,0.6,0.1,1.2,0,1.8
		c0,0,0,0.1,0.1,0.1c0,0,0,0,0,0c-0.1,0.1,0,0.2-0.1,0.2v0c-0.1,0.1,0,0.3-0.1,0.4h0c0,0.1,0.2,0.2,0.3,0.2l1.3,0l0,0l0,0
		c0.2-0.1,0.5,0,0.7-0.1l0,0c0.1-0.1,0.3,0,0.4-0.1h0c0,0,0-0.1,0-0.1h0l0,0c0.1,0,0.2,0,0.3-0.1l0,0l0,0v0c0,0,0,0,0,0
		c0.1,0.1,0.2,0,0.3-0.1c0,0,0.1-0.1,0.1-0.1c0.1,0,0.1-0.1,0.1-0.1l0,0l0,0C51.3,31,51.3,30.8,51.2,30.7L51.2,30.7z"/>
	<polygon class="st0" points="51.1,31.2 51.1,31.2 51.1,31.3 	"/>
	<path class="st0" d="M18.6,26.8c0.1,0,0.1,0,0.2,0l0,0h0c0,0,0,0,0.1,0c0,0,0,0,0,0c0.1,0,0.2,0,0.3-0.1c0.2-0.1,0.4,0,0.5-0.1l0,0
		l0,0c0.3-0.1,0.5-0.1,0.8,0l0,0l0,0c0.1,0.1,0.2,0.1,0.3,0c0.1-0.1,0-0.2,0.1-0.2c0.1,0,0.1-0.1,0-0.2c0,0,0,0,0,0
		c-0.1-0.1,0-0.2-0.1-0.3h0c0,0-0.1-0.1-0.1-0.1c0,0-0.1-0.1-0.1-0.1c0,0-0.1-0.1-0.1-0.1c0,0-0.1-0.1-0.1-0.1c0,0-0.1-0.1-0.1-0.1
		l0,0c0-0.1-0.2-0.1-0.2-0.1c0,0-0.1-0.1-0.1-0.1c0,0,0,0-0.1,0C20,25,19.8,25,19.8,25l-0.2,0c0,0-0.1,0-0.1,0.1c-0.1,0-0.2,0-0.3,0
		c0,0-0.1,0-0.1,0c-0.1,0-0.2,0-0.2,0.1h0c-0.1,0.1-0.2,0.1-0.3,0.2c0,0,0,0,0,0c0,0,0,0,0,0.1c0,0,0,0,0,0h-0.1l0,0.1l0,0
		c0,0,0,0,0,0c0,0-0.1,0-0.1,0c0,0,0,0,0,0c0,0-0.1,0.1-0.1,0.1c0,0-0.1,0.1-0.1,0.1l0,0c-0.1,0.1-0.2,0.2-0.2,0.3v0
		c-0.1,0.1-0.1,0.2-0.1,0.2v0c-0.1,0.1-0.1,0.2-0.1,0.2c-0.1,0.1-0.1,0.2-0.1,0.2c0,0,0,0.1,0,0.1c0,0.1,0,0.2,0.1,0.2
		c0.1-0.1,0.2,0,0.2-0.1c0.1-0.1,0.2,0,0.2-0.1c0.1-0.1,0.2,0,0.3-0.1c0,0,0,0,0,0c0,0,0,0,0-0.1C18.5,26.8,18.5,26.8,18.6,26.8
		L18.6,26.8z"/>
	<polygon class="st0" points="18.6,25.5 18.6,25.5 18.6,25.5 	"/>
	<polygon class="st0" points="30.2,38.5 30.2,38.5 30.2,38.5 	"/>
	<polygon class="st0" points="5.4,8.9 5.4,8.9 5.4,8.9 	"/>
	<path class="st0" d="M5.3,8.7c0.1,0.1,0,0.2,0.1,0.2c0,0,0.1,0.1,0.1,0.1c0,0,0.1,0.1,0.1,0.1l0,0c0.1,0.1,0.2,0.1,0.3,0
		c0,0,0,0,0,0C6.1,9,6.2,9.1,6.3,9c0.1,0,0.2,0,0.2-0.1c0,0,0.1-0.1,0-0.1c0,0,0,0,0.1,0c0,0,0-0.1,0-0.1c0.1,0,0.3-0.1,0.4-0.2
		c0-0.1,0.1-0.1,0.2-0.1C7.6,8,8,7.7,8.4,7.5c0-0.1,0.1-0.1,0.1-0.1c0-0.1,0.1-0.1,0.2-0.1c0.1,0,0.2-0.1,0.2-0.2l0.2,0
		c0.1,0,0.2,0,0.2-0.1c0.3,0,0.5-0.1,0.7-0.2c0.1,0,0.2,0,0.2-0.1c0.4,0,0.9-0.1,1.3-0.2l1.6,0l0.1,0.1c0.2,0,0.3,0,0.4,0.1
		c0.1,0,0.2,0,0.3,0.1l0.2,0c0,0,0,0.1,0,0.1c0.2,0,0.4,0.2,0.4,0.4c0.1,0.1,0.1,0.3,0,0.4c0,0.1,0,0.2-0.1,0.3c0,0.1,0,0.1-0.1,0.1
		c0,0.1,0,0.1,0,0.2l-0.1,0c0,0.1,0,0.1-0.1,0.1c0,0.1,0,0.1-0.1,0.1c0,0.1-0.1,0.1-0.1,0.1c0,0.1-0.1,0.1-0.1,0.1c0,0,0,0.1,0,0.1
		l-0.1,0c0,0.1-0.1,0.1-0.1,0.1c0,0.1-0.1,0.1-0.1,0.1c0,0.1-0.1,0.1-0.2,0.1l-0.1,0.1c0,0-0.1,0.1-0.1,0.1c0,0.1-0.1,0.1-0.2,0.1
		c0,0,0,0.1,0,0.1h0c0,0-0.1,0-0.1,0c0,0,0,0.1,0,0.1l-0.3,0.1c-0.1,0.1-0.2,0.2-0.3,0.2c0,0,0,0.1,0,0.1l-0.2,0L12,10.3
		c0,0.1-0.1,0.1-0.2,0.1c0,0-0.1,0.1-0.1,0.1c0,0.1-0.1,0.1-0.2,0.1l-0.1,0.1c0,0-0.1,0.1-0.1,0.1c-0.1,0.2-0.1,0.5,0.1,0.6
		c0,0.1,0.1,0.1,0.1,0.1c0,0,0,0,0,0.1h0l0,0c0.1,0.1,0.2,0,0.4,0.1l0,0l0,0c0.1,0.1,0.2,0.1,0.3,0l0,0l0,0c0,0,0.1,0,0.1-0.1
		c0,0,0,0,0,0l0.5,0c0.1-0.1,0.3-0.1,0.4-0.1c0.1-0.1,0.2-0.1,0.3-0.1c0,0,0-0.1,0-0.1l0.2,0c0-0.1,0.1-0.1,0.2-0.1
		c0.1-0.1,0.1-0.1,0.2-0.1l0.1-0.1l0.1,0c0-0.1,0.1-0.1,0.2-0.1c0,0,0-0.1,0-0.1l0.2,0c0,0,0-0.1,0-0.1l0.2,0c0,0,0.1-0.1,0.1-0.1
		c0-0.1,0.1-0.1,0.2-0.1c0,0,0.1-0.1,0.1-0.1c0-0.1,0.1-0.1,0.2-0.1c0-0.1,0.1-0.1,0.1-0.1c0.1-0.1,0.2-0.2,0.3-0.2
		c0.1-0.1,0.2-0.1,0.2-0.2c0.1-0.2,0.2-0.3,0.4-0.4c0,0,0.1-0.1,0.1-0.1l0.1-0.1c0-0.1,0.1-0.1,0.1-0.1l0-0.1l0.1,0
		c0.1-0.2,0.3-0.4,0.4-0.5c0-0.1,0-0.1,0.1-0.1c0,0,0-0.1,0-0.1l0.1,0c0-0.1,0.1-0.2,0.1-0.2c0-0.1,0-0.1,0.1-0.1c0-0.1,0-0.1,0-0.2
		c0,0,0.1,0,0.1,0c0,0,0-0.1,0-0.1c0,0,0.1,0,0.1,0c0-0.1,0-0.1,0-0.2l0.1,0c0-0.1,0-0.1,0-0.2l0.1,0c0-0.1,0-0.2,0.1-0.2
		c0-0.1,0-0.2,0.1-0.3l0-0.2c0,0,0,0,0-0.1c0,0,0.1,0,0.1,0c0,0,0-0.1,0-0.1c0-0.1,0-0.1,0-0.2c0-0.1,0.1-0.2,0.1-0.3
		c0-0.3,0-0.7-0.1-1c0,0,0,0,0-0.1c0,0,0,0,0,0c-0.1-0.1,0-0.3-0.1-0.4c-0.1-0.1,0-0.2-0.1-0.3v0c-0.1-0.1,0-0.2-0.1-0.3
		c0-0.1,0-0.2-0.1-0.2l0,0c-0.1-0.1,0-0.2-0.1-0.2v0c-0.1-0.1,0-0.2-0.1-0.2v0c-0.1-0.1,0-0.2-0.1-0.2c0,0-0.1-0.1-0.1-0.1v0
		c0,0-0.1-0.1-0.1-0.1l0,0c0,0,0,0,0,0l0,0l0,0c0,0,0-0.1-0.1-0.1c0,0,0-0.1-0.1-0.1l0,0c0,0,0-0.1,0-0.1l0,0l0,0l0,0V2
		c-0.1,0-0.1-0.1-0.1-0.2l-0.1-0.1l-0.1,0c0,0,0,0,0,0c0,0,0-0.1,0-0.1c-0.1,0-0.1-0.1-0.1-0.1c-0.1-0.1-0.2-0.2-0.2-0.3l-0.1-0.1h0
		c0-0.1-0.1-0.1-0.1-0.1l0,0c0,0-0.1-0.1-0.1-0.1l0,0c0,0-0.1-0.1-0.1-0.1l0,0c0,0-0.1-0.1-0.1-0.1c0,0-0.1-0.1-0.1-0.1
		c0,0-0.1-0.1-0.1-0.1c0,0-0.1-0.1-0.1-0.1l0,0c0,0-0.1-0.1-0.1-0.1l0,0c0,0-0.1-0.1-0.1-0.1v0L15.9,0c-0.2-0.1-0.5,0-0.7,0
		c-0.2,0.1-0.4,0-0.5,0.1c0,0,0,0-0.1,0c0,0,0,0,0,0c-0.1,0.1-0.3,0-0.5,0.1c-0.1,0.1-0.3,0-0.4,0.1c0,0-0.1,0-0.1,0
		c-0.1,0.1-0.2,0-0.3,0.1c0,0-0.1,0-0.1,0c-0.1,0.1-0.2,0-0.3,0.1c0,0,0,0-0.1,0c-0.1,0.1-0.2,0.1-0.3,0.1c-0.1,0.1-0.2,0.1-0.3,0.1
		c-0.1,0.1-0.2,0.1-0.3,0.1C11.6,1,11.5,1,11.4,1c-0.1,0.1-0.2,0.1-0.3,0.1c-0.1,0.1-0.2,0.1-0.3,0.1c0,0,0,0,0,0
		c-0.1,0-0.2,0-0.2,0c-0.1,0.1-0.2,0-0.2,0.1c0,0,0,0-0.1,0c-0.1,0-0.2,0-0.2,0.1h0c-0.1,0-0.2,0-0.2,0.1c-0.1,0-0.2,0-0.2,0.1
		c-0.1,0.1-0.2,0-0.2,0.1h0C9.3,1.9,9.2,1.9,9.2,2h0C9.1,2,9,2.1,9,2.1C8.9,2.2,8.7,2.3,8.6,2.3c-0.1,0.1-0.2,0-0.2,0.1l0,0
		c0,0-0.1,0.1-0.1,0.1c-0.1,0.1-0.2,0-0.2,0.1C8,2.6,8,2.7,8,2.7C7.9,2.8,7.8,2.9,7.7,2.9l0,0C7.6,3,7.6,3,7.5,3
		c0,0-0.1,0.1-0.1,0.1l0,0C7.3,3.3,7.2,3.4,7,3.5L6.9,3.6c0,0,0,0.1,0,0.1c0,0-0.1,0-0.1,0L6.7,3.8c0,0.1-0.1,0.2-0.2,0.3l0,0
		c0,0-0.1,0.1-0.1,0.1c0,0-0.1,0.1-0.1,0.1l0,0C6.2,4.4,6.1,4.5,6,4.6v0C6,4.7,5.9,4.8,5.9,4.9l0,0l0,0c0,0,0,0,0,0.1
		c0,0,0,0.1,0,0.1c0,0,0,0-0.1,0c0,0.1,0,0.2-0.1,0.2c0,0.1,0,0.1,0,0.2l-0.1,0c0,0,0,0.1,0,0.1c0,0,0,0,0,0c0,0.1-0.1,0.1-0.1,0.2
		v0C5.3,6,5.4,6.2,5.3,6.3c0,0,0,0.1,0,0.1c-0.1,0.1,0,0.3-0.1,0.5c0,0,0,0.1,0,0.1c0,0.4,0,0.9,0,1.3c0,0,0,0.1,0,0.1
		C5.3,8.4,5.2,8.5,5.3,8.7z"/>
	<path class="st0" d="M36.4,24.8l-0.1,0c-0.1,0.1-0.1,0.1-0.2,0.1c-0.1,0.1-0.2,0.1-0.3,0.1c-0.1,0.1-0.1,0.1-0.2,0.1
		c-0.1,0.1-0.1,0.1-0.2,0.1c-0.1,0.1-0.3,0.1-0.2,0.3c0,0,0.1,0.1,0.1,0.1l0.1,0.1c0.1,0,0.1,0.1,0.2,0.1c0.1,0,0.2,0,0.3,0
		c0-0.1,0.1-0.1,0.2-0.1l0.1-0.1c0-0.1,0.1-0.1,0.2-0.1c0.1-0.1,0.2-0.1,0.3-0.1c0.1-0.1,0.1-0.1,0.2-0.1c0,0,0-0.1,0-0.1l0.2,0
		c0.1-0.1,0.2-0.1,0.3-0.1c0.1-0.1,0.2-0.1,0.3-0.1c0.1-0.1,0.2-0.1,0.3-0.1c0.1-0.1,0.2-0.1,0.3-0.1c0.1-0.1,0.3-0.1,0.4-0.1
		c0.1-0.1,0.2-0.1,0.3-0.1c0.1-0.1,0.1-0.1,0.2-0.1c0-0.1,0-0.1,0-0.2c-0.1,0-0.1-0.1-0.1-0.1c-0.1,0-0.1-0.1-0.1-0.1l-0.5-0.3l0,0
		c-0.1,0-0.2,0-0.2,0.1c-0.1,0.1-0.2,0-0.2,0.1c-0.1,0.1-0.2,0-0.2,0.1c-0.1,0.1-0.2,0-0.3,0.1c-0.1,0-0.2,0-0.2,0.1l0,0
		c-0.1,0.1-0.2,0-0.2,0.1c-0.1,0.1-0.2,0-0.2,0.1c-0.1,0.1-0.2,0-0.3,0.1h0c0,0.1-0.1,0.1-0.2,0.1C36.4,24.8,36.4,24.8,36.4,24.8z"
		/>
	<path class="st0" d="M41.2,20c-0.1,0.1-0.1,0.2,0,0.3c0,0,0,0,0,0v0c0.1,0.1,0.2,0.3,0.4,0.3c0.1-0.2,0-0.4,0.1-0.6
		c0,0,0-0.1,0-0.1c0-0.3,0-0.7,0.1-1c0,0,0-0.1,0-0.1c0-0.3,0-0.6,0.1-0.9c0,0,0-0.1,0-0.1c0.1-0.1,0.1-0.3,0-0.4
		c0,0-0.1-0.1-0.1-0.1c-0.1-0.1-0.1-0.1-0.2,0c-0.1,0.2,0,0.4-0.1,0.5l0,0c-0.1,0.2,0,0.4-0.1,0.6c0,0,0,0.1,0,0.1
		c-0.1,0.2,0,0.4-0.1,0.7h0C41.3,19.4,41.3,19.7,41.2,20C41.2,20,41.2,20,41.2,20z"/>
	<path class="st0" d="M39.9,42.3c-0.1-0.1,0-0.3-0.1-0.5c-0.1-0.1,0-0.3-0.1-0.4c0,0,0,0,0-0.1c0,0,0,0,0,0c-0.1-0.1,0-0.3-0.1-0.4
		c0,0,0,0,0-0.1c0,0,0,0,0,0c-0.1-0.1,0-0.3-0.1-0.4c0,0,0,0,0-0.1c0,0,0,0,0,0c-0.1-0.1,0-0.3-0.1-0.4c0,0,0,0,0-0.1c0,0,0,0,0,0
		c-0.1-0.1,0-0.3-0.1-0.4v0c-0.1-0.1,0-0.3-0.1-0.4c-0.1-0.1,0-0.3-0.1-0.4c0-0.1,0-0.1-0.1-0.2c0-0.1,0-0.1,0-0.2c0,0,0,0,0-0.1
		c0-0.1,0-0.1-0.1,0c0,0,0,0,0,0c0,0,0-0.1,0-0.1c0-0.1,0-0.1,0-0.2c0,0-0.1,0-0.1,0l0,0c0-0.1,0-0.2,0-0.3
		c-0.2-0.2-0.2-0.2-0.4-0.1c-0.1,0-0.2,0.1-0.2,0.1c-0.1,0.1-0.1,0.2-0.1,0.3c0,0.1,0,0.2,0,0.4h0c0.1,0.1,0,0.3,0.1,0.4
		c0,0,0,0,0,0.1c0,0,0,0,0,0c0.1,0.1,0.1,0.3,0.1,0.5c0.1,0.1,0.1,0.3,0.1,0.4c0.1,0.1,0,0.3,0.1,0.4c0,0,0,0,0,0.1c0,0,0,0,0,0
		c0.1,0.1,0,0.3,0.1,0.4c0,0,0,0,0,0.1c0.1,0.1,0.1,0.3,0.1,0.4c0.1,0.1,0.1,0.3,0.1,0.4c0.1,0.1,0.1,0.2,0.1,0.3c0,0,0,0,0,0.1
		c0,0,0,0,0,0c0.1,0.1,0,0.3,0.1,0.4v0c0.1,0.1,0,0.2,0.1,0.3c0.1,0.1,0,0.2,0.1,0.2v0c0.2,0,0.5,0,0.7,0L39.9,42.3
		C39.9,42.4,39.9,42.3,39.9,42.3C39.9,42.3,39.9,42.3,39.9,42.3z"/>
	<path class="st0" d="M35.8,18.5C35.8,18.6,35.7,18.6,35.8,18.5l-0.3,0l-0.1,0.1l-0.1,0.1c0,0.1-0.1,0.1-0.2,0.1
		c0,0.1-0.1,0.1-0.1,0.1c-0.1,0.1-0.2,0.2-0.3,0.2c0,0,0,0.1,0,0.1h-0.1c0,0.1-0.1,0.1-0.2,0.1c0,0.1-0.1,0.1-0.1,0.1
		c0,0.1-0.1,0.1-0.1,0.1c0,0.1-0.1,0.1-0.2,0.1c0,0.1-0.1,0.1-0.1,0.1c0,0.1-0.1,0.1-0.1,0.1c0,0.1-0.1,0.1-0.2,0.1
		c0,0.1-0.1,0.1-0.1,0.1c0,0.1-0.1,0.1-0.1,0.1c-0.1,0.1-0.2,0.2-0.3,0.2c0,0.1-0.1,0.1-0.1,0.1c-0.1,0.1-0.2,0.2-0.3,0.2
		c0,0.1-0.1,0.1-0.1,0.1c0,0.1-0.1,0.1-0.1,0.1c-0.1,0.1-0.2,0.2-0.3,0.2c0,0.1-0.1,0.1-0.1,0.1c0,0.1-0.1,0.1-0.1,0.1
		c0,0.1-0.1,0.1-0.1,0.1c0,0-0.1,0.1-0.1,0.1c0,0-0.1,0.1-0.1,0.1c0,0.1,0.1,0.1,0.1,0.2c0,0,0,0.1,0,0.1c0.1,0,0.1,0.1,0.1,0.1
		c0.1,0,0.1,0,0.1,0.1c0.1,0,0.2,0.1,0.2,0.1c0.1,0,0.2,0,0.3,0c0-0.1,0.1-0.1,0.1-0.1c0-0.1,0.1-0.1,0.1-0.1c0,0,0-0.1,0-0.1
		c0.1,0,0.1,0,0.1-0.1l0.1,0c0.1-0.1,0.2-0.1,0.2-0.2c0.1-0.1,0.2-0.2,0.3-0.2c0.1-0.1,0.2-0.1,0.2-0.2c0.1-0.1,0.2-0.2,0.3-0.2
		c0-0.1,0.1-0.1,0.1-0.1c0-0.1,0.1-0.1,0.1-0.1c0.1-0.1,0.2-0.2,0.3-0.2c0.1-0.1,0.2-0.1,0.2-0.2c0,0,0-0.1,0-0.1c0,0,0.1,0,0.1,0
		c0.1-0.1,0.2-0.2,0.3-0.2c0-0.1,0.1-0.1,0.1-0.1c0-0.1,0.1-0.1,0.1-0.1c0.1-0.1,0.2-0.2,0.3-0.2c0.1-0.1,0.2-0.1,0.2-0.2l0.1-0.1
		c0.1-0.1,0.2-0.2,0.3-0.2l0.1-0.1l0.1-0.1c0-0.1,0-0.1,0-0.2h0c0,0-0.1-0.1-0.1-0.1C36.2,18.5,36,18.7,35.8,18.5z"/>
	<path class="st0" d="M38.5,18.4c-0.1,0.1,0,0.2-0.1,0.3c-0.1,0.1,0,0.2-0.1,0.3c0,0.1-0.1,0.2-0.1,0.3c0,0,0,0.1,0,0.1
		c-0.1,0.1-0.1,0.2-0.1,0.2c0,0,0,0.1,0,0.1c0,0.1-0.1,0.2-0.1,0.3c0,0,0,0.1,0,0.1c-0.1,0.1,0,0.2-0.1,0.3c0,0.1,0,0.2,0,0.4
		c0,0.1,0,0.3,0.1,0.4c0.1,0.2,0.2,0.1,0.3,0v0c0.1-0.1,0.1-0.2,0.1-0.2l0,0c0-0.1,0-0.1,0-0.2c0,0,0.1,0,0.1,0c0,0,0-0.1,0-0.1
		l0.2-0.1c0-0.1,0-0.2,0.1-0.2c0-0.1,0-0.2,0-0.3c0,0,0,0,0,0l0.1,0v0c0.2-0.2,0-0.4,0.1-0.6l0,0c0.1-0.1,0-0.2,0.1-0.3
		c0.1-0.2,0-0.5-0.2-0.6l0,0l0,0c0.1,0,0.2,0,0.2-0.2c0-0.3,0-0.6,0-0.9c0,0,0-0.1,0-0.1c-0.1-0.2,0-0.5-0.1-0.7c0,0,0,0,0-0.1
		c0,0,0,0,0,0c-0.1-0.1,0-0.3-0.1-0.5c0,0,0,0,0-0.1c0,0,0,0,0,0c-0.1-0.1,0-0.3-0.1-0.5c-0.1-0.1,0-0.3-0.1-0.4c0,0,0-0.1,0-0.1
		c-0.1-0.1,0-0.3-0.1-0.4c-0.1-0.1,0-0.3-0.1-0.4v0c-0.1-0.1-0.1-0.2-0.1-0.3c-0.1,0-0.2-0.1-0.2,0s0,0.3,0,0.5c0,0,0,0.1,0,0.1
		c0.1,0.3,0.1,0.6,0.1,0.9c0.1,0.2,0.1,0.5,0.1,0.8c0,0,0,0,0,0.1c0.1,0.2,0.1,0.4,0.1,0.7c0.1,0.2,0.1,0.4,0.1,0.5c0,0,0,0.1,0,0.1
		c0.1,0.2,0.1,0.4,0.1,0.5c0.1,0.1,0,0.2,0.1,0.3c-0.1,0-0.2,0-0.2,0.1l0,0C38.6,18.3,38.5,18.4,38.5,18.4z M38.8,19.9
		C38.8,19.9,38.8,19.9,38.8,19.9L38.8,19.9L38.8,19.9z"/>
	<path class="st0" d="M27.1,42.9c0,0,0.1-0.1,0.1-0.1c-0.1-0.2-0.3-0.3-0.4-0.4c-0.1,0-0.2,0-0.3-0.1c-0.1,0-0.2,0-0.3-0.1
		c0,0-0.1,0-0.1,0c-0.1,0.1-0.1,0.1-0.2,0.1c0,0-0.1,0.1-0.1,0.1c0,0.1-0.1,0.1-0.2,0.1c0,0.1-0.1,0.1-0.2,0.1
		c-0.1,0.1-0.2,0.2-0.3,0.2c0,0.1-0.1,0.1-0.2,0.1c-0.1,0.1-0.2,0.2-0.3,0.2c0,0.1-0.1,0.1-0.2,0.1c0,0.1-0.1,0.1-0.2,0.1
		c0,0-0.1,0.1-0.1,0.1c0,0.1-0.1,0.1-0.2,0.1c0,0.1-0.1,0.1-0.2,0.1c-0.1,0.1-0.2,0.2-0.3,0.2c0,0.1-0.1,0.1-0.2,0.1
		c-0.1,0.1-0.2,0.2-0.3,0.2c0,0.1-0.1,0.1-0.2,0.1c0,0.1-0.1,0.1-0.2,0.1c0,0-0.1,0.1-0.1,0.1c0,0.1-0.1,0.1-0.2,0.1
		c-0.2,0.1-0.4,0.2-0.3,0.5h0c0,0,0.1,0.1,0.1,0.1c0.1,0.1,0.2,0.1,0.3,0c0,0,0,0,0,0l0,0l0,0c0.1-0.1,0.3,0,0.4-0.1h0
		c0.1-0.1,0.2,0,0.3-0.1c0.1-0.1,0.2,0,0.3-0.1c0.1,0,0.2,0,0.2-0.1c0.1,0,0.2,0,0.2-0.1c0.1-0.1,0.2-0.1,0.3-0.1
		c0.1-0.1,0.1-0.1,0.2-0.1c0.1-0.1,0.1-0.1,0.2-0.1c0.1-0.1,0.1-0.1,0.2-0.1c0-0.1,0.1-0.1,0.2-0.1c0-0.1,0.1-0.1,0.2-0.1
		C25,44,25,44,25.1,44c0-0.1,0.1-0.1,0.2-0.1c0-0.1,0.1-0.1,0.2-0.1c0-0.1,0.1-0.1,0.2-0.1c0-0.1,0.1-0.1,0.2-0.1
		c0-0.1,0.1-0.1,0.2-0.1c0-0.1,0.1-0.1,0.2-0.1c0-0.1,0.1-0.1,0.2-0.1l0.1-0.1c0-0.1,0.1-0.1,0.2-0.1C27,43,27.1,42.9,27.1,42.9z"/>
	<path class="st0" d="M54,21.6C54,21.6,54,21.6,54,21.6c0-0.1-0.1-0.1-0.1-0.1c0-0.2,0-0.4,0-0.6c0-0.1-0.1-0.2-0.2-0.2l-0.1-0.2
		c-0.2,0-0.4,0-0.5-0.1c-0.2,0-0.4,0-0.6-0.1l-0.8,0c0,0,0-0.1,0-0.1c0,0,0,0,0,0l-0.2,0c-0.3-0.1-0.6-0.1-1,0c0,0-0.1,0-0.1,0
		c-0.1,0.1-0.2,0.1-0.3,0.1c0,0-0.1,0.1-0.1,0.1c0,0.2,0,0.5,0,0.7c0,0,0,0,0,0.1c0,0,0,0,0,0c0,0.1,0,0.1,0.1,0.1
		c0,0.1,0,0.2,0,0.3c0.1,0.1,0.1,0.2,0.1,0.3c0.1,0.1,0.1,0.1,0.1,0.2c0,0,0,0,0.1,0v0c0,0.1,0,0.2,0.1,0.3c0,0.1,0,0.1,0.1,0.1
		c0.1,0,0,0.1,0.1,0.2c0,0,0,0,0,0c0,0,0.1,0.1,0.1,0.1l0,0c0.1,0.1,0.2,0.1,0.3,0l0,0l0,0c0.1,0,0.3-0.1,0.4,0c0,0,0,0,0,0
		c0,0,0,0,0,0l0,0l0,0c0.1,0.1,0.3,0,0.4,0.1c0.1,0.1,0.2,0,0.2,0.1c0.1,0,0.1,0.1,0.2,0.1l0,0.1c0.1,0,0.1,0,0.1,0.1
		c0.1,0,0.2,0.1,0.2,0.1c0.1,0,0.1,0,0.1,0.1c0.1,0,0.1,0,0.1,0.1c0.2,0.1,0.3,0.2,0.5,0.4c0.1,0.1,0.2,0,0.3,0c0-0.1,0-0.2,0.1-0.3
		c0,0,0-0.1,0-0.1c0.1-0.2,0-0.4,0.1-0.6c0,0,0,0,0-0.1c0,0,0,0,0,0C54,22.5,54,22.1,54,21.6z"/>
	<path class="st0" d="M37.3,37.5c0.1,0,0.1,0.1,0.1,0.1c0.1,0,0.2,0,0.3-0.1c0.1,0,0.2-0.1,0.3-0.2l0.3-0.1l0,0c0,0,0.1-0.1,0.1-0.1
		c0,0,0.1-0.1,0.1-0.1v0c0-0.1,0-0.1-0.1-0.2c-0.1-0.1-0.1-0.2-0.2-0.3h0c0-0.1-0.1-0.1-0.1-0.1c0,0-0.1-0.1-0.1-0.1l0,0
		c0,0-0.1-0.1-0.1-0.1v0c0,0-0.1-0.1-0.1-0.1c-0.1-0.1-0.2-0.3-0.3-0.4h0c0-0.1-0.1-0.1-0.1-0.1l0,0c0,0,0,0-0.1,0c0,0,0,0,0,0
		c0,0,0,0,0-0.1l0,0c0,0-0.1-0.1-0.1-0.1c0,0-0.1-0.1-0.1-0.1c-0.2-0.1-0.3-0.2-0.3-0.4c-0.1,0-0.1-0.1-0.1-0.1
		c-0.1,0-0.1-0.1-0.1-0.1c-0.1,0-0.1-0.1-0.1-0.1c-0.2-0.1-0.3-0.2-0.3-0.4c-0.1,0-0.1-0.1-0.1-0.1c-0.1,0-0.1-0.1-0.1-0.1
		c-0.1,0-0.1-0.1-0.1-0.1c-0.1,0-0.1-0.1-0.1-0.2c-0.1,0-0.1-0.1-0.1-0.1c-0.1,0-0.1-0.1-0.1-0.1c-0.1,0-0.1-0.1-0.1-0.1
		c-0.1-0.1-0.2-0.2-0.2-0.3c-0.1-0.2-0.3-0.3-0.5-0.4l-0.3,0c0,0.1,0,0.1,0,0.2c0.1,0.1,0.1,0.1,0.1,0.2c0.1,0.1,0.1,0.3,0.2,0.4
		c0.1,0.1,0.2,0.2,0.2,0.3c0.1,0,0.1,0.1,0.1,0.2c0.1,0,0.1,0.1,0.1,0.2c0,0,0.1,0.1,0.1,0.1c0.1,0,0.1,0.1,0.1,0.2
		c0.1,0,0.1,0.1,0.1,0.2c0,0,0.1,0.1,0.1,0.1c0.1,0,0.1,0.1,0.1,0.2c0.1,0.1,0.2,0.2,0.2,0.3c0.1,0,0.1,0.1,0.1,0.2
		c0.1,0,0.1,0.1,0.1,0.1c0.1,0,0.1,0.1,0.1,0.2c0.1,0,0.1,0.1,0.1,0.1c0.1,0,0.1,0.1,0.1,0.2c0.1,0,0.1,0.1,0.1,0.1
		c0.1,0,0.1,0.1,0.1,0.2c0.1,0,0.1,0.1,0.1,0.1c0.1,0,0.1,0.1,0.1,0.2c0.1,0,0.1,0.1,0.1,0.1c0.1,0,0.1,0.1,0.1,0.2
		c0.1,0,0.1,0.1,0.1,0.1C37.2,37.3,37.3,37.4,37.3,37.5z"/>
	<path class="st0" d="M18.4,1.3c0.1,0.1,0.1,0.3,0.2,0.4c0.1,0.1,0.1,0.3,0.2,0.4c0,0,0.1,0,0.1,0c0,0.1,0,0.2,0,0.3
		C19,2.5,19,2.6,19,2.7c0.1,0.2,0.2,0.4,0.2,0.6l0.1,0.1c0,0,0,0,0,0c0,0,0,0-0.1,0c0,0.1,0,0.2,0,0.3c0.1,0.1,0,0.3,0.1,0.4
		c0,0,0,0,0,0.1c0,0,0,0,0,0c0.1,0.2,0,0.5,0.1,0.7c0,0,0,0,0,0.1c0,0,0,0,0,0c0,0,0.1,0,0.1,0v0c0,0.1,0,0.2,0,0.3
		c0,0.2,0,0.5,0,0.7v0.3c0,0,0,0,0,0.1c0,0,0,0.1,0,0.1c0,0.1,0,0.2-0.1,0.3c0,0,0,0,0,0.1c0,0,0,0,0,0c-0.1,0.2,0,0.5-0.1,0.7h0
		c0,0.2,0,0.3,0,0.5h0c0,0,0.1,0.1,0.1,0.1c0,0,0.1,0.1,0.1,0.1c0,0,0.1,0.1,0.1,0.1c0,0.1,0.2,0.1,0.2,0.1c0.1,0.1,0.2,0.1,0.2,0.1
		c0.1,0.1,0.2,0,0.3,0.1c0.1,0.1,0.2,0,0.3,0.1c0.1,0,0.2,0,0.3,0.1c0.2,0,0.3,0,0.4,0.1h0c0.1,0.1,0.3,0,0.5,0.1l0,0l0,0
		c0.1,0.1,0.3,0,0.4,0.1c0.1,0.1,0.1,0.1,0.2,0.1c0,0,0,0,0,0c0,0,0,0,0,0l0.4,0c0,0,0,0.1,0,0.1h0.7c0.1-0.1,0.1-0.1,0.2-0.1
		c0,0,0-0.1,0-0.1l0.2,0c0,0,0-0.1,0-0.1l0,0h0h0c0,0,0-0.1,0-0.1l0,0c0,0,0.1,0,0.1,0c0,0,0-0.1,0-0.1c0.1,0,0.1-0.1,0.1-0.2
		c0,0,0,0,0,0l0,0c0,0,0,0,0.1,0c0,0,0,0,0,0l0,0c0,0,0.1,0,0.1-0.1v0c0,0,0.1-0.1,0.1-0.1c0.1,0,0.1-0.1,0.1-0.2v0
		c0.1-0.1,0.1-0.2,0.1-0.2l0,0c0.2-0.2,0-0.4,0.1-0.6c0,0,0-0.1,0-0.1c0-0.2,0-0.5,0-0.7h0c-0.1-0.1,0-0.2-0.1-0.3c0,0,0-0.1,0-0.1
		c0-0.1,0-0.1,0-0.2c0,0,0,0,0-0.1c0,0,0,0,0,0c0,0,0-0.1-0.1,0c0,0,0,0,0,0l0-0.1C25,5.9,25,5.8,25,5.7c-0.1,0-0.1-0.1-0.1-0.1
		c-0.1-0.1-0.2-0.2-0.2-0.3c-0.1,0-0.1-0.1-0.1-0.1c-0.1,0-0.1-0.1-0.1-0.1c-0.1-0.1-0.1-0.1-0.2-0.2l-0.2-0.1
		c0-0.1-0.1-0.1-0.1-0.1l0,0l-0.1-0.2l-0.1-0.1l-0.1-0.1c-0.1,0-0.1-0.1-0.1-0.1L23.5,4c-0.1,0-0.1-0.1-0.1-0.1
		c-0.1,0-0.1-0.1-0.1-0.1c-0.1-0.1-0.1-0.1-0.2-0.2C23,3.5,23,3.5,23,3.4c-0.1,0-0.1-0.1-0.1-0.1c-0.1,0-0.1-0.1-0.1-0.1
		c-0.1,0-0.1-0.1-0.1-0.1c-0.1,0-0.1-0.1-0.1-0.1c-0.1,0-0.1-0.1-0.1-0.1c-0.1,0-0.1-0.1-0.1-0.1c-0.1-0.1-0.2-0.2-0.3-0.3
		c-0.1,0-0.1-0.1-0.1-0.1c-0.1,0-0.1-0.1-0.1-0.1c-0.1,0-0.1,0-0.1-0.1C21.6,2.1,21.5,2,21.5,2c-0.1,0-0.1-0.1-0.1-0.1
		c0,0-0.1-0.1-0.1-0.1c-0.1,0-0.1-0.1-0.1-0.1L21,1.6c-0.2-0.1-0.3-0.2-0.4-0.4c-0.1,0-0.1,0-0.1-0.1c-0.1,0-0.1,0-0.1-0.1
		c-0.1,0-0.2-0.1-0.2-0.1c-0.1,0-0.1,0-0.1-0.1c-0.1-0.1-0.3-0.2-0.4-0.2c-0.1,0-0.2,0-0.3-0.1c-0.1,0-0.2-0.1-0.3-0.1
		c0,0-0.1,0-0.1,0c0,0,0,0,0,0c-0.2,0-0.4,0-0.5,0c-0.1,0-0.2,0.1-0.2,0.2c0,0.2,0,0.3,0,0.5C18.4,1.1,18.4,1.2,18.4,1.3z"/>
	<path class="st0" d="M37.5,21.1c-0.1,0.1-0.1,0.1-0.2,0.1l-0.1,0.1c0,0.1-0.1,0.1-0.2,0.1c-0.1,0.1-0.2,0.2-0.3,0.2
		c0,0.1-0.1,0.1-0.2,0.1l-0.1,0.1c0,0.1-0.1,0.1-0.2,0.1c0,0.1-0.1,0.1-0.1,0.1c0,0.1-0.1,0.1-0.2,0.1c0,0,0,0.1,0,0.1
		c-0.1,0-0.1,0-0.1,0.1l-0.2,0c0,0.1-0.1,0.1-0.2,0.1c0,0,0,0.1,0,0.1h-0.1c0,0.1-0.1,0.1-0.2,0.1c-0.1,0.1-0.2,0.2-0.3,0.2
		c0,0.1-0.1,0.1-0.2,0.1c0,0-0.1,0.1-0.1,0.1c0,0.1-0.1,0.1-0.2,0.1c0,0.1-0.1,0.1-0.1,0.1c0,0.1-0.1,0.1-0.2,0.1
		c-0.1,0.1-0.2,0.2-0.3,0.2c0,0.1,0,0.1,0,0.2c0.1,0.1,0.1,0.1,0.1,0.2c0.1,0.1,0.1,0.1,0.1,0.2c0.1,0,0.2,0,0.3,0
		c0-0.1,0.1-0.1,0.1-0.1c0-0.1,0.1-0.1,0.1-0.1c0-0.1,0.1-0.1,0.2-0.1c0-0.1,0.1-0.1,0.1-0.1c0-0.1,0.1-0.1,0.2-0.1
		c0-0.1,0.1-0.1,0.2-0.1c0.1-0.1,0.2-0.2,0.3-0.2c0-0.1,0.1-0.1,0.2-0.1c0-0.1,0.1-0.1,0.2-0.1c0-0.1,0.1-0.1,0.2-0.1
		C36,23,36,23,36.1,23c0.1-0.1,0.1-0.1,0.2-0.1c0,0,0-0.1,0-0.1c0.1,0,0.1,0,0.2,0c0-0.1,0.1-0.1,0.2-0.1c0-0.1,0.1-0.1,0.2-0.1
		c0.1-0.1,0.3-0.1,0.4-0.2c0.1-0.1,0.1-0.1,0.2-0.1c0-0.1,0.1-0.1,0.2-0.1l0.3-0.3c0-0.1,0-0.2,0-0.3C38,21.4,37.8,21.3,37.5,21.1
		C37.6,21.1,37.6,21.1,37.5,21.1z"/>
	<path class="st0" d="M36.3,44.1c-0.2,0-0.3,0-0.5,0c0,0.1-0.1,0.2-0.1,0.2c0,0.1,0,0.1-0.1,0.1c0,0.1,0,0.1-0.1,0.1l-0.1,0.1
		l-0.1,0.1c-0.2,0.2-0.3,0.4-0.6,0.6c0,0.1,0,0.1-0.1,0.1c0,0.1,0,0.1-0.1,0.1c0,0.1,0,0.1-0.1,0.1c0,0.1,0,0.1-0.1,0.1
		c0,0.1,0,0.1-0.1,0.1c0,0-0.1,0.1-0.1,0.1c0,0.1-0.1,0.1-0.1,0.1l-0.1,0.1c-0.1,0.1-0.1,0.2-0.3,0.3c0,0.1,0,0.1-0.1,0.1
		c-0.1,0.1-0.1,0.2-0.2,0.2c0,0.1,0,0.1-0.1,0.1c0,0.1-0.1,0.2-0.2,0.3c-0.1,0.2-0.1,0.4-0.1,0.6l0.1,0.1l0.2,0
		c0-0.1,0.1-0.1,0.1-0.1c0-0.1,0.1-0.1,0.1-0.1c0-0.1,0.1-0.1,0.1-0.1c0-0.1,0.1-0.1,0.1-0.1c0.3-0.3,0.6-0.6,0.9-0.9l0.1-0.1
		c0,0,0.1-0.1,0.1-0.1c0,0,0.1-0.1,0.1-0.1l0.1-0.1c0.2-0.2,0.3-0.4,0.6-0.6c0-0.1,0-0.1,0.1-0.1c0-0.1,0-0.1,0.1-0.1
		c0-0.1,0-0.1,0.1-0.1c0-0.1,0-0.1,0.1-0.1c0-0.1,0.1-0.2,0.2-0.3c0-0.1,0-0.1,0.1-0.1c0-0.1,0.1-0.2,0.1-0.2c0-0.1,0-0.3,0-0.4
		L36.3,44.1z"/>
	<path class="st0" d="M27.9,9.4C28,9.4,28,9.5,28,9.5c0.1,0.1,0.2,0.2,0.2,0.3c0.1,0,0.1,0.1,0.1,0.1c0.1,0,0.1,0.1,0.1,0.1
		c0.1,0.1,0.2,0.2,0.2,0.3c0.1,0,0.1,0.1,0.1,0.1c0.1,0.1,0.1,0.2,0.2,0.2c0.1,0.1,0.2,0.2,0.2,0.3c0.1,0,0.1,0.1,0.1,0.1
		c0.1,0,0.1,0.1,0.1,0.1c0.1,0,0.1,0.1,0.1,0.1c0.1,0,0.1,0.1,0.1,0.1c0.1,0,0.1,0.1,0.1,0.1l0.1,0.1c0,0,0,0.1,0,0.1l0.1,0.1
		l0.1,0.1c0.2,0.1,0.4,0.2,0.7,0.2l0.1-0.1c0,0,0-0.1,0-0.1c0-0.1-0.1-0.1-0.1-0.2l-0.1-0.1l-0.1-0.1l-0.1-0.1
		c-0.1,0-0.1-0.1-0.1-0.1l-0.1-0.1L30,11l-0.5-0.6l-0.1-0.1c-0.1,0-0.1-0.1-0.1-0.1c-0.1-0.1-0.1-0.1-0.2-0.2L29,9.9
		c0,0-0.1-0.1-0.1-0.1c-0.1-0.1-0.1-0.1-0.2-0.2c-0.1-0.1-0.2-0.2-0.3-0.3c-0.1,0-0.1-0.1-0.1-0.1c-0.1,0-0.1-0.1-0.1-0.1
		C28.1,9,28,9,28,8.9c-0.1,0-0.1,0-0.1-0.1h-0.2c0,0.1,0,0.2,0,0.3c0.1,0,0.1,0.1,0.1,0.2C27.9,9.3,27.9,9.4,27.9,9.4z"/>
	<path class="st0" d="M43.4,29.2c-0.1-0.2-0.1-0.3-0.1-0.5c0,0-0.1,0-0.1,0c0,0-0.1,0-0.1,0c0,0,0.1,0,0.1,0c0-0.1,0-0.3-0.1-0.4
		l0,0c-0.1-0.1,0-0.3-0.1-0.4l0,0c-0.1-0.1,0-0.2-0.1-0.3c-0.1-0.1,0-0.2-0.1-0.3c0,0-0.1-0.1-0.1-0.1c0,0-0.1-0.1-0.1-0.1l0,0
		c-0.1-0.1-0.1-0.1-0.2,0c0,0-0.1,0-0.1,0c-0.1,0.1-0.3,0-0.4,0.1l0,0c-0.1,0-0.2,0-0.2,0.1h0c0,0-0.1,0.1-0.1,0.1c0,0,0,0-0.1,0
		c-0.1,0.1-0.2,0-0.2,0.1c-0.1,0-0.1,0.1-0.1,0.1c0,0.1-0.2,0-0.2,0.1c0,0-0.1,0.1-0.1,0.1h0c0,0.1-0.1,0-0.2,0.1
		c-0.1,0.1-0.1,0.3,0,0.4c0.1,0.1,0,0.2,0.1,0.3c0,0,0,0,0,0.1c0.1,0.1,0,0.3,0.1,0.4c0,0,0,0,0,0.1c0,0,0,0,0,0c0,0,0,0.1,0,0.1
		c0,0,0,0,0,0c0,0.1,0,0.2,0.1,0.3c0,0,0,0,0,0.1c0,0,0,0,0,0c0.1,0.2,0,0.4,0.1,0.6c0,0,0,0,0,0.1c0,0,0,0,0,0
		c0.1,0.4,0.1,0.9,0,1.3c0,0,0,0.1,0,0.1c0,0,0,0,0,0c-0.1,0.1-0.1,0.2,0,0.3c0,0,0,0,0.1,0l0,0L41.1,32c0,0.1,0,0.2-0.1,0.2
		c0,0.1,0,0.2-0.1,0.2c-0.1,0.2,0,0.5,0.2,0.6c0.1,0,0.2,0,0.2,0.1c0.1,0,0.2,0,0.3,0.1c0.4,0,0.8,0,1.1,0c0.1-0.1,0.3-0.2,0.4-0.2
		c0.1-0.1,0.1-0.1,0.2-0.2c0,0,0.1-0.1,0.1-0.1c0-0.1,0-0.3,0.1-0.4c0-0.6,0-1.1,0-1.7c-0.1-0.2-0.1-0.5-0.1-0.8
		C43.4,29.7,43.4,29.5,43.4,29.2z"/>
	<path class="st0" d="M29.3,39.1c0,0.1-0.1,0.2-0.2,0.3c0,0.1-0.1,0.2-0.1,0.2c-0.1,0.1-0.1,0.2-0.2,0.2c0,0.1-0.1,0.1-0.1,0.1
		c-0.1,0.1-0.1,0.1-0.2,0.2c-0.1,0.1-0.1,0.1-0.2,0.2c-0.1,0.1-0.2,0.2-0.3,0.2c0,0-0.1,0.1-0.1,0.1l-0.1,0.1c0,0.1-0.1,0.1-0.1,0.1
		c0,0.1-0.1,0.1-0.1,0.1c0,0.1,0,0.1-0.1,0.1c0,0.1-0.1,0.1-0.1,0.1c-0.1,0.1-0.1,0.1-0.2,0.2c0,0.1,0,0.1-0.1,0.1
		c0,0.1-0.1,0.2-0.1,0.2c0,0.1,0,0.2,0,0.3c0.1,0,0.1,0.1,0.1,0.1c0.2,0.2,0.4,0.4,0.6,0.5l0.2,0l0.1-0.1c0-0.1,0-0.1,0.1-0.1
		c0-0.1,0-0.1,0-0.2c0,0,0.1,0,0.1,0c0-0.1,0.1-0.3,0.2-0.3c0-0.1,0.1-0.2,0.2-0.3c0,0,0-0.1,0-0.1c0,0,0.1,0,0.1,0
		c0-0.1,0.1-0.2,0.2-0.3c0-0.1,0-0.1,0.1-0.1c0-0.1,0.1-0.2,0.2-0.3c0-0.1,0-0.1,0.1-0.1c0-0.1,0.1-0.2,0.1-0.3c0,0,0.1,0,0.1,0
		l0.1-0.1l0.1-0.1c0-0.1,0.1-0.2,0.1-0.3c0,0,0.1,0,0.1,0c0-0.1,0-0.1,0.1-0.1c0-0.1,0-0.1,0.1-0.1c0.1-0.1,0.1-0.3,0-0.4
		C29.9,39,29.6,39,29.3,39.1z"/>
	<path class="st0" d="M25.2,8.8c0,0.1,0,0.1-0.1,0.1C25.1,9,25,9.1,24.9,9.1c0,0.1,0,0.1-0.1,0.1c-0.1,0.1-0.1,0.1-0.2,0.2
		c0,0.1,0,0.1-0.1,0.1c-0.1,0.2-0.2,0.3-0.3,0.4c0,0.1,0,0.1-0.1,0.1c0,0.1,0,0.2-0.1,0.2c0,0.3,0,0.6,0,0.8
		c0.1,0.2,0.1,0.3,0.1,0.5c0.1,0.1,0.1,0.2,0.1,0.3c0.1,0.1,0.1,0.3,0.1,0.4c-0.1,0.2,0,0.3,0.1,0.4c0,0,0,0,0.1,0
		c0,0.1,0,0.2,0,0.3c0.1,0.1,0.1,0.3,0.1,0.4l0.1,0.1l0,0c0,0.1,0,0.2,0,0.2v0c0.1,0.1,0,0.2,0.1,0.3c0,0,0,0.1,0,0.1
		c0.1,0.1,0,0.3,0.1,0.3c0.1,0.1,0,0.3,0.1,0.4l0,0c0.1,0.1,0,0.2,0.1,0.3c0,0.1,0.1,0.1,0.1,0.2c0,0.1,0,0.2,0,0.2l0.1,0.1l0,0
		c0,0,0,0,0,0c0,0.1,0,0.2,0,0.3c0,0,0,0.1,0,0.1c0.1,0.2,0,0.4,0.1,0.5c0,0.1,0,0.1,0,0.2l0.1,0c0,0.2,0,0.5,0,0.7h0
		c0.1,0.2,0.2,0.3,0.4,0.4l0,0c0.1,0.1,0.2,0,0.3,0.1h0.3c0.1-0.1,0.2,0,0.3-0.1c0,0,0.1-0.1,0.1-0.1c0.1-0.1,0.1-0.2,0.1-0.2
		c0.1-0.1,0-0.3,0.1-0.5c0,0,0-0.1,0-0.1c0.1-0.2,0-0.5,0.1-0.8c0,0,0-0.1,0-0.1c0.1-0.1,0-0.3,0-0.4c0,0,0,0-0.1-0.1
		c0-0.1,0-0.3,0-0.4c0-0.1,0-0.1,0-0.2c0-0.1,0-0.2,0-0.3c0,0,0.1,0,0.1,0c0-0.3,0-0.6,0-0.9c0-1,0-2.1,0-3.1l0,0c0,0,0,0,0,0
		c0-0.3,0-0.7-0.1-1l0,0l0,0c0-0.1,0-0.1-0.1-0.2c0,0,0,0,0,0c0-0.2,0.1-0.3,0-0.5c0,0,0,0,0,0c0,0,0,0,0,0c-0.1-0.1,0-0.3-0.1-0.5
		v0C27.1,8.8,27,8.6,27,8.5c0,0-0.1,0-0.1,0l0-0.3l-0.1,0c0-0.1,0-0.1,0-0.2c-0.1-0.1-0.1-0.2-0.1-0.3c-0.1-0.1-0.1-0.1-0.1-0.2
		c-0.1-0.1-0.2-0.2-0.3-0.1l-0.1,0.1c0,0.1,0,0.2-0.1,0.3c0,0.1,0,0.2-0.1,0.2c0,0.1,0,0.1-0.1,0.1c0,0.1-0.1,0.2-0.2,0.3
		c0,0,0,0.1,0,0.1l-0.1,0c0,0.1,0,0.1-0.1,0.1c0,0,0,0.1,0,0.1l-0.1,0c0,0,0,0.1,0,0.1C25.3,8.8,25.3,8.8,25.2,8.8z"/>
	<path class="st0" d="M30.9,44.1l-0.2,0c-0.1,0.1-0.2,0.2-0.3,0.2c0,0.1-0.1,0.1-0.2,0.1c0,0-0.1,0.1-0.1,0.1c0,0.1-0.1,0.1-0.2,0.1
		c0,0.1-0.1,0.1-0.1,0.1c0,0.1-0.1,0.1-0.2,0.1c-0.1,0.1-0.2,0.2-0.3,0.2c0,0.1-0.1,0.1-0.2,0.1c0,0-0.1,0.1-0.1,0.1
		c0,0.1-0.1,0.1-0.2,0.1c0,0.1-0.1,0.1-0.1,0.1c0,0.1-0.1,0.1-0.2,0.1c0,0-0.1,0.1-0.1,0.1c0,0-0.1,0.1-0.1,0.1c0,0-0.1,0-0.1,0
		c0,0,0,0.1,0,0.1h-0.1c0,0,0,0.1,0,0.1c-0.1,0-0.1,0-0.2,0l-0.1,0.1c0,0,0,0.1,0,0.1h-0.1c0,0,0,0,0,0.1c-0.1,0-0.1,0-0.2,0.1l0,0
		c-0.1,0-0.1,0.1-0.1,0.1l0,0c0,0-0.1,0.1-0.1,0.1c0,0-0.1,0.1-0.1,0.1v0c0,0-0.1,0.1-0.1,0.1c-0.1,0.1-0.1,0.2,0,0.2l0,0l0,0
		c0.1-0.1,0.2,0,0.3-0.1c0.1-0.1,0.2-0.1,0.3-0.1c0.1-0.1,0.1-0.1,0.2-0.1c0,0,0-0.1,0-0.1l0.2,0c0,0,0-0.1,0-0.1l0.2,0
		c0,0,0-0.1,0-0.1l0.2,0c0-0.1,0.1-0.1,0.2-0.1c0-0.1,0.1-0.1,0.2-0.1c0.1-0.1,0.2-0.2,0.3-0.2c0-0.1,0.1-0.1,0.2-0.1
		c0-0.1,0.1-0.1,0.2-0.1c0-0.1,0.1-0.1,0.2-0.1c0.1-0.1,0.2-0.2,0.3-0.2c0-0.1,0.1-0.1,0.2-0.1c0-0.1,0.1-0.1,0.2-0.1l0.1-0.1
		c0-0.1,0.1-0.1,0.2-0.1c0-0.1,0.1-0.1,0.1-0.1c0.2-0.2,0.1-0.4,0-0.6L30.9,44.1z"/>
	<path class="st0" d="M39.2,43.6l-0.1,0.1l-0.1,0.1c0,0.1-0.1,0.2-0.1,0.2c0,0.1,0,0.2-0.1,0.2c0,0.1-0.1,0.3-0.2,0.3
		c-0.1,0.1-0.2,0.3-0.2,0.4c0,0.1,0,0.2-0.1,0.2c0,0.1,0,0.2-0.1,0.2c0,0.1,0,0.2-0.1,0.2c0,0.1-0.1,0.3-0.2,0.3
		c0,0.1,0,0.2-0.1,0.2c0,0.1,0,0.2-0.1,0.2c0,0.1,0,0.2-0.1,0.2c0,0.1-0.1,0.2-0.1,0.3c-0.1,0.1-0.1,0.3-0.2,0.4c0,0.1,0,0.2,0,0.4
		c0,0.1,0.1,0.2,0.2,0.2l0.1-0.1c0-0.1,0-0.1,0.1-0.1c0-0.1,0.1-0.2,0.1-0.2c0-0.1,0-0.1,0.1-0.1c0-0.1,0.1-0.2,0.1-0.2
		c0-0.1,0-0.1,0.1-0.1c0-0.1,0.1-0.2,0.1-0.2c0-0.1,0.1-0.2,0.2-0.3c0-0.1,0-0.2,0.1-0.2c0-0.1,0-0.2,0.1-0.2c0-0.1,0-0.1,0.1-0.1
		c0-0.1,0-0.2,0.1-0.2c0-0.1,0-0.2,0.1-0.2c0-0.1,0-0.2,0.1-0.2c0-0.1,0-0.2,0.1-0.2l0.1-0.1c0-0.1,0-0.2,0.1-0.2
		c0-0.1,0-0.2,0.1-0.2c0-0.1,0.1-0.2,0.1-0.3c0-0.1,0-0.2,0.1-0.2c0-0.1,0-0.2,0.1-0.3c0-0.1-0.2-0.1-0.3-0.1L39.2,43.6z"/>
	<path class="st0" d="M21.8,38.7c0-0.1,0.1-0.2,0.1-0.2c0-0.1,0-0.2,0.1-0.2c0,0,0.1-0.1,0.1-0.1c0-0.1,0.1-0.2,0.1-0.2
		c0-0.1,0.1-0.2,0.1-0.2c0-0.1,0-0.2,0.1-0.2l0.1-0.1c0-0.1,0.1-0.2,0.1-0.2c0-0.1,0-0.2,0.1-0.2c0-0.1,0-0.2,0.1-0.2l0-0.1
		c0,0,0.1-0.1,0.1-0.1v0c0.1-0.1,0.1-0.2,0.1-0.2v0c0.1-0.1,0.1-0.2,0.1-0.2l0,0c0.1-0.1,0.1-0.2,0.1-0.2v0c0.1-0.1,0.1-0.2,0.1-0.2
		c0.1-0.1,0.1-0.1,0.1-0.2c0.1-0.1,0-0.2,0.1-0.3c0.1-0.1,0-0.2,0.1-0.2c0.1-0.1,0.1-0.2,0.1-0.3c0,0,0-0.1,0-0.1
		c0.1-0.1,0-0.2,0.1-0.2c0.1-0.1,0-0.2,0.1-0.3l0,0c0.1-0.1,0-0.2,0.1-0.4c0,0,0-0.1,0-0.1c0.1-0.1,0-0.2,0.1-0.3c0,0,0-0.1,0-0.1
		c0-0.1,0-0.3,0.1-0.4c0,0,0-0.1,0-0.1c0,0,0.1,0,0.1,0c0-0.1,0.1-0.1,0.1-0.1c0,0,0-0.1,0-0.1l0.1,0c0-0.1,0-0.1,0.1-0.1l0.1-0.1
		c0-0.1,0.1-0.2,0.1-0.2c0-0.1,0-0.2,0.1-0.2c0-0.1,0-0.2,0-0.3l-0.2-0.4c0,0-0.1-0.1-0.1-0.1c0,0-0.1-0.1-0.1-0.1
		c-0.1,0-0.2-0.1-0.3-0.2c-0.1,0-0.2,0-0.2-0.1L24,30.5c-0.1,0-0.2-0.1-0.3-0.1c-0.1,0-0.2,0-0.2-0.1c-0.1,0-0.2,0-0.2-0.1h-0.2
		L23,30.3c0,0.1,0,0.1,0,0.2l-0.1,0c0,0.1,0,0.1,0,0.2c0,0-0.1,0-0.1,0c0,0,0,0.1,0,0.1c-0.1,0.1,0,0.2-0.1,0.2
		c-0.1,0.1,0,0.2-0.1,0.2v0c0,0-0.1,0.1,0,0.2c0,0-0.1,0-0.1,0.1c0,0,0,0.1,0,0.1c-0.1,0.1,0,0.2-0.1,0.2c-0.1,0.1-0.1,0.2-0.1,0.2
		v0c-0.1,0.1-0.1,0.2-0.1,0.2h0c0,0.1,0,0.2-0.1,0.2c0,0.1,0,0.2-0.1,0.2c0,0.1,0,0.2-0.1,0.2c0,0.1,0,0.2-0.1,0.2
		c0,0.1,0,0.2-0.1,0.2l-0.1,0.1c0,0.1,0,0.1,0,0.2c0,0-0.1,0-0.1,0c0,0-0.1,0.1-0.1,0.1c0,0.1-0.1,0.2-0.2,0.2L21,34.1
		c0,0.1-0.1,0.1-0.1,0.1c0,0.1-0.1,0.1-0.2,0.1c0,0.1-0.1,0.1-0.2,0.1l-0.1,0.1c0,0,0,0,0,0.1c-0.1,0-0.1,0-0.2,0c0,0,0,0-0.1,0
		c-0.1,0-0.2,0-0.2,0.1c-0.1,0-0.2,0-0.2,0.1h0c0,0-0.1,0-0.1,0.1c0,0,0,0,0,0l-0.1,0c0,0,0,0,0,0.1c0,0,0,0,0,0l-0.2,0
		c0,0.1-0.1,0.1-0.2,0.1c0,0.1-0.1,0.1-0.2,0.1c0,0-0.1,0.1-0.1,0.1l-0.3,0.3c0,0.1,0,0.2,0,0.3c0.1,0,0.1,0.1,0.1,0.2
		c0.1,0,0.1,0.1,0.1,0.2c0,0,0.1,0.1,0.1,0.1c0.1,0,0.1,0.1,0.1,0.2c0,0,0.1,0.1,0.1,0.1c0.1,0,0.1,0.1,0.1,0.2l0,0
		c0,0.1,0,0.2,0.1,0.2v0c0.1,0.1,0,0.2,0.1,0.2c0.1,0.1,0,0.2,0.1,0.3c0.1,0.2,0,0.4,0.1,0.6v0.4c-0.2,0.3,0,0.7-0.1,1
		c0,0,0,0.1,0,0.1c-0.1,0.2,0,0.4-0.1,0.6c0,0,0,0.1,0,0.1c0,0-0.1,0-0.1,0c0,0.1,0,0.3,0,0.4c0.1,0.1,0.1,0.3,0.2,0.3
		c0,0,0.1,0,0.1,0c0,0,0,0,0,0l0,0h0c0.1,0,0.2,0,0.2-0.1l0,0c0,0,0.1-0.1,0.1-0.1c0.1-0.1,0.2-0.1,0.2-0.3c0,0,0.1-0.1,0.1-0.1
		l0.1-0.1c0,0,0.1-0.1,0.1-0.1c0,0,0.1-0.1,0.1-0.1l0,0c0,0,0.1-0.1,0.1-0.1c0.1,0,0-0.1,0.1-0.2l0,0c0,0,0.1-0.1,0.1-0.1
		c0,0,0-0.1,0-0.1l0,0c0-0.1,0.1-0.1,0.1-0.2c0-0.1,0-0.1,0.1-0.1c0-0.1,0.1-0.2,0.1-0.2c0,0,0.1-0.1,0.1-0.1c0-0.1,0.1-0.2,0.1-0.2
		l0.1-0.1c0-0.1,0-0.2,0.1-0.2C21.7,38.8,21.7,38.8,21.8,38.7z"/>
	<path class="st0" d="M30.4,12.3c0,0.1,0,0.1,0,0.2c0.1,0.1,0.1,0.2,0.1,0.3c0.1,0.1,0.1,0.1,0.1,0.2c0.1,0.1,0.1,0.2,0.1,0.3
		c0.1,0.1,0.1,0.1,0.1,0.2c0.1,0.1,0.1,0.2,0.1,0.3C31,14,31,14,31,14.1c0.1,0.1,0.1,0.1,0.1,0.2l0.1,0.1c0,0,0,0.1,0,0.1
		c0,0,0,0,0,0.1c0,0.1,0,0.2,0.1,0.2c0,0.1,0,0.2,0.1,0.2v0c0.1,0.1,0,0.2,0.1,0.2c0.1,0.1,0,0.2,0.1,0.2c0.1,0.1,0,0.2,0.1,0.2
		c0.1,0.1,0,0.2,0.1,0.2c0.1,0.1,0,0.2,0.1,0.2c0,0.1,0.1,0.1,0.2,0.1c0,0,0,0.1,0,0.1l0,0c0,0-0.1,0,0,0.1c0,0,0,0,0,0
		c0,0,0,0-0.1,0c-0.1,0.2-0.2,0.3-0.3,0.4c0,0.1,0,0.1-0.1,0.1c0,0.1,0,0.1-0.1,0.1c0,0.1,0,0.1-0.1,0.1c-0.1,0.2-0.3,0.4-0.4,0.5
		c0,0.1,0,0.1-0.1,0.1c0,0.1,0,0.1-0.1,0.1l0,0.2c-0.1,0-0.1,0.1-0.1,0.1c0,0-0.1,0-0.1,0c0,0.1,0,0.1-0.1,0.1c0,0.1,0,0.1-0.1,0.1
		c0,0-0.1,0.1-0.1,0.1c0,0.1-0.1,0.2-0.2,0.3c0,0.1,0,0.1-0.1,0.1c0,0,0,0.1,0,0.1l-0.3,0.4c0,0-0.1,0-0.1,0c0,0.1,0,0.2-0.1,0.2
		c0,0.1,0,0.2,0,0.3l0.1,0.1l0.1,0.1c0.1,0,0.2,0.1,0.2,0.1c0.1,0,0.2,0,0.3,0.1c0.1,0,0.2-0.1,0.3-0.2c0-0.1,0.1-0.2,0.1-0.2
		l0.1-0.1c0-0.1,0.1-0.2,0.1-0.2l0.1-0.1c0-0.1,0.1-0.2,0.1-0.2l0.1-0.1c0-0.1,0.1-0.2,0.1-0.2l0-0.1c0.1,0,0.1,0,0.1,0
		c0,0,0-0.1,0-0.1c0,0,0,0,0,0c0,0,0,0,0,0h0c0.1,0,0.2-0.1,0.2-0.2c0-0.1,0-0.1,0.1-0.1c0-0.1,0.1-0.2,0.1-0.2c0-0.1,0-0.1,0.1-0.1
		c0-0.1,0.1-0.2,0.1-0.2c0-0.1,0-0.1,0.1-0.1c0-0.1,0.1-0.2,0.1-0.2c0-0.1,0-0.1,0.1-0.1c0-0.1,0.1-0.2,0.1-0.2c0-0.1,0-0.1,0.1-0.1
		c0-0.1,0.1-0.2,0.1-0.2c0.1-0.2,0-0.4-0.2-0.5c0.1,0,0.1-0.1,0.2-0.2c0.1-0.1,0.1-0.2,0-0.3c-0.1-0.1,0-0.2-0.1-0.3
		c0-0.1,0-0.2-0.1-0.2c0,0,0,0,0-0.1c0-0.1,0-0.2-0.1-0.3v0c-0.1-0.1,0-0.2-0.1-0.3l0,0c0-0.1,0-0.2-0.1-0.2c-0.1-0.1,0-0.2-0.1-0.3
		v0c0,0-0.1-0.1-0.1-0.1c0-0.1,0-0.1,0-0.2c-0.1-0.1-0.1-0.2-0.1-0.3c-0.1-0.1-0.1-0.1-0.1-0.2c-0.1-0.1-0.1-0.1-0.1-0.2
		c-0.1-0.1-0.1-0.1-0.1-0.2c-0.1,0-0.1-0.1-0.1-0.2c-0.1,0-0.1-0.1-0.1-0.2c-0.1,0-0.1-0.1-0.1-0.2l-0.1-0.1c-0.1,0-0.2,0-0.2-0.1
		L30.4,12.3z"/>
	<path class="st0" d="M40.8,22.2l0.1-0.1c0-0.1,0.1-0.2,0.1-0.2c0-0.1,0-0.1,0.1-0.1c0-0.1,0.1-0.2,0.1-0.2c0,0,0-0.1,0.1-0.1
		c0-0.1,0.1-0.2,0.1-0.3c0-0.2-0.1-0.4-0.3-0.5L41,20.8c0,0.1,0,0.1-0.1,0.1c0,0.1-0.1,0.2-0.1,0.2c0,0.1,0,0.1-0.1,0.1l-0.1,0.1
		l-0.1,0.1c0,0.1-0.1,0.1-0.1,0.2l-0.1,0.1l-0.1,0.1L40,22c0,0.1,0,0.1-0.1,0.2l-0.1,0c0,0.1-0.1,0.1-0.2,0.1
		c-0.2,0-0.2,0.2-0.2,0.3c-0.1,0.1-0.2,0.2-0.2,0.3c0,0-0.1,0-0.1,0c0,0,0,0.1,0,0.1c0,0,0,0.1,0,0.1c0,0-0.1,0-0.1,0
		c0,0.1,0,0.1-0.1,0.1c0,0.1-0.1,0.2-0.1,0.2c0,0.1,0,0.1,0,0.2c0.2,0.1,0.3,0.3,0.6,0.2c0-0.1,0-0.1,0.1-0.1c0-0.1,0.1-0.2,0.2-0.3
		c0-0.1,0-0.1,0.1-0.1c0-0.1,0-0.1,0.1-0.1c0-0.1,0.1-0.1,0.1-0.2c0-0.1,0-0.1,0.1-0.1c0,0,0-0.1,0-0.1l0.1,0c0-0.1,0-0.1,0-0.2
		l0.2-0.1c0-0.1,0-0.1,0.1-0.1C40.7,22.3,40.8,22.2,40.8,22.2z"/>
	<path class="st0" d="M33.1,42.2c0,0,0-0.1,0-0.1c0,0,0.1,0,0.1,0c0-0.1,0-0.1,0.1-0.2c0.1,0,0.1-0.1,0.2-0.1c0-0.1,0-0.1,0.1-0.1
		c0-0.1,0.1-0.2,0.2-0.3c0-0.1,0-0.1,0.1-0.1c0-0.1,0-0.1,0.1-0.1c0-0.1,0.1-0.1,0.1-0.2c0.1-0.1,0.1-0.2,0.2-0.2
		c0-0.1,0-0.1,0.1-0.2c0,0,0.1,0,0.1,0c0-0.1,0-0.2-0.1-0.3c0-0.1,0-0.2,0-0.3v0v0c0,0,0.1,0,0.1,0l0,0c0.1-0.1,0.1-0.2,0-0.3
		c0,0,0,0,0-0.1c0,0,0,0,0,0c0-0.1,0-0.2-0.1-0.3v0c-0.1-0.1,0-0.2-0.1-0.2c-0.1-0.1,0-0.2-0.1-0.3c0-0.1,0-0.2-0.1-0.2
		c0-0.1,0-0.2-0.1-0.2c0-0.1,0-0.2-0.1-0.2c0-0.1,0-0.2-0.1-0.2c0-0.1,0-0.2-0.1-0.2c0-0.1,0-0.2-0.1-0.2c0-0.1,0-0.2-0.1-0.2
		c0-0.1,0-0.2-0.1-0.2c0-0.1,0-0.2-0.1-0.2c0-0.1,0-0.2-0.1-0.2l0,0c-0.1-0.1,0-0.2-0.1-0.2c0-0.1,0-0.2-0.1-0.2
		c0-0.1,0-0.2-0.1-0.2c0-0.1,0-0.2-0.1-0.2c0-0.1,0-0.2-0.1-0.2c0-0.1,0-0.2-0.1-0.2c0-0.1,0-0.2-0.1-0.2l0,0c0,0-0.1-0.1-0.1-0.1
		c0,0,0-0.1,0-0.1c-0.1,0-0.1-0.1-0.1-0.2c-0.1-0.1-0.1-0.1-0.1-0.2c-0.1,0-0.1-0.1-0.1-0.2c-0.1,0-0.1-0.1-0.1-0.2
		c-0.1-0.1-0.1-0.1-0.1-0.2c-0.1-0.1-0.1-0.1-0.1-0.2c-0.1,0-0.1-0.1-0.1-0.2c-0.1-0.1-0.1-0.1-0.1-0.2c-0.1,0-0.1-0.1-0.1-0.2
		c-0.1,0-0.1-0.1-0.1-0.2C31,32.6,31,32.5,31,32.4c-0.1-0.1-0.1-0.1-0.1-0.2c-0.1-0.2-0.2-0.3-0.4-0.4l-0.3,0c0,0,0-0.1,0-0.1
		c0,0-0.1,0-0.1,0c-0.2,0-0.4,0-0.6,0l-0.1,0.1V32c0.1,0.1,0.1,0.1,0.1,0.2c0.1,0,0.1,0.1,0.1,0.2c0.1,0,0.1,0.1,0.1,0.2
		c0,0,0.1,0,0.1,0c0,0.1,0,0.1,0,0.2c0,0,0.1,0.1,0.1,0.1c0.1,0,0.1,0.1,0.1,0.2c0.1,0,0.1,0.1,0.1,0.2c0.1,0,0.1,0.1,0.1,0.1
		c0.1,0,0.1,0.1,0.1,0.2c0.1,0.1,0.2,0.2,0.2,0.3c0.1,0,0.1,0.1,0.1,0.2c0.1,0,0.1,0.1,0.1,0.1c0.1,0,0.1,0.1,0.1,0.2
		c0,0,0.1,0.1,0.1,0.1c0.1,0,0.1,0.1,0.1,0.2c0.1,0.1,0.2,0.2,0.2,0.3c0.1,0,0.1,0.1,0.1,0.2l0,0c0,0,0,0.1,0.1,0.1
		c0.1,0.1,0,0.2,0.1,0.2c0,0,0.1,0.1,0.1,0.1v0c0.1,0,0,0.2,0.1,0.2c0,0.1,0,0.2,0.1,0.2c0,0.1,0,0.1,0.1,0.1c0.1,0.1,0,0.2,0.1,0.2
		c0,0.1,0.1,0.1,0.1,0.1c0.1,0.1,0,0.2,0.1,0.2c0,0.1,0,0.2,0.1,0.2c0,0,0,0.1,0.1,0.1c0.1,0.1,0,0.2,0.1,0.2v0
		c0.1,0.1,0.2,0.2,0.2,0.3c0,0.1,0.1,0.1,0.1,0.2c0.2,0.2,0.3,0.5,0.4,0.9c0.2,0.3,0.3,0.6,0.5,0.9c0,0.2,0.1,0.3,0.1,0.5l-0.2,0.1
		c0,0.1-0.1,0.2-0.2,0.3c0,0.1,0,0.1-0.1,0.1c0,0.1-0.1,0.2-0.2,0.3c0,0.1,0,0.1-0.1,0.1L33,41.1c0,0.1-0.1,0.2-0.2,0.3
		c0,0.1,0,0.1-0.1,0.1c0,0.1,0,0.1-0.1,0.1c0,0.1-0.1,0.1-0.1,0.2c0,0.1,0,0.1-0.1,0.1c0,0.1,0,0.1-0.1,0.1c0,0.1-0.1,0.2-0.2,0.3
		c0,0.1,0,0.1-0.1,0.1c0,0.1-0.1,0.2-0.2,0.3c0,0.1,0,0.1-0.1,0.1c0,0.1-0.1,0.2-0.1,0.2c0,0.1,0,0.1-0.1,0.1c0,0.1,0,0.2-0.1,0.2
		c0,0.2,0,0.4,0,0.7c0,0.1,0.1,0.2,0.2,0.3c0-0.1,0-0.1,0.1-0.1c0-0.1,0.1-0.2,0.2-0.3c0-0.1,0-0.1,0.1-0.1c0-0.1,0.1-0.2,0.2-0.3
		c0-0.1,0-0.1,0.1-0.1c0-0.1,0-0.1,0.1-0.1c0-0.1,0.1-0.1,0.1-0.2c0-0.1,0-0.1,0.1-0.1c0,0,0-0.1,0-0.1c0,0,0.1,0,0.1,0
		c0-0.1,0.1-0.1,0.1-0.2l0.1-0.1c0-0.1,0-0.1,0.1-0.1C33,42.3,33,42.2,33.1,42.2z"/>
	<path class="st0" d="M29.6,36.9c-0.1-0.1-0.1-0.2-0.1-0.3c-0.1-0.1-0.1-0.1-0.1-0.2c-0.1-0.1-0.1-0.2-0.1-0.3
		c-0.1-0.1-0.1-0.1-0.1-0.2c-0.1-0.1-0.1-0.2-0.1-0.3c0,0,0,0,0,0v0c0-0.1,0-0.2,0-0.2c-0.1-0.1,0-0.2-0.1-0.3v0c0,0-0.1,0-0.1,0
		c0-0.1,0-0.1,0-0.2c0,0,0,0,0,0c0,0,0,0,0,0c0-0.1,0-0.2-0.1-0.3c-0.1-0.1,0-0.2-0.1-0.3c0-0.1,0-0.2-0.1-0.2
		c-0.1-0.1,0-0.2-0.1-0.3v0c0,0-0.1-0.1-0.1-0.1c0,0,0,0,0,0c0-0.1,0-0.1,0-0.2c-0.1-0.1-0.1-0.1-0.1-0.2C28,33,28,32.9,28,32.8
		c-0.1-0.1-0.1-0.2-0.1-0.3c-0.1-0.1-0.1-0.2-0.1-0.3c-0.1-0.2-0.1-0.4-0.3-0.5c-0.1,0-0.2,0-0.2-0.1c-0.1,0-0.2,0-0.2-0.1
		c-0.1,0-0.2,0-0.3-0.1c-0.3,0-0.6,0-0.8,0c0,0,0,0.1,0,0.1l-0.1,0.1c0,0.2,0,0.4,0,0.6c0.1,0,0.1,0.1,0.1,0.2
		c0.1,0.1,0.2,0.2,0.2,0.3c0.1,0.1,0.2,0.2,0.2,0.3c0.1,0,0.1,0.1,0.1,0.2l0.1,0.1c0,0,0.1,0,0.1,0c0,0.1,0,0.1,0,0.2
		c0.1,0,0.1,0.1,0.1,0.2c0.1,0.1,0.2,0.2,0.2,0.3c0.1,0,0.1,0.1,0.1,0.2c0.1,0,0.1,0.1,0.1,0.2c0.1,0,0.1,0.1,0.1,0.2
		c0.1,0,0.1,0.1,0.1,0.2c0.1,0,0.1,0.1,0.1,0.2l0.1,0.1c0,0,0,0.1,0,0.1c0,0,0,0,0,0.1c0.1,0.1,0.1,0.1,0.1,0.2
		c0.1,0.1,0.1,0.1,0.1,0.2c0,0,0.1,0,0.1,0c0,0.1,0,0.1,0,0.2c0.1,0.1,0.1,0.3,0.2,0.4c0.1,0.1,0.1,0.2,0.1,0.3
		c0.1,0.1,0.1,0.1,0.1,0.2c0.1,0.1,0.1,0.1,0.1,0.2c0.1,0,0.1,0.1,0.1,0.2c0.1,0,0.1,0.1,0.1,0.2c0,0,0.1,0,0.1,0c0,0.1,0,0.1,0,0.2
		l0.4,0.4l0.3,0c0,0,0,0.1,0,0.1c0.1,0.1,0.3,0,0.4,0.1c0.1,0.1,0.2,0.1,0.3,0c0,0,0,0,0,0c0.1-0.1,0.1-0.2,0-0.2c0,0,0,0,0,0l0,0
		c0-0.1-0.1-0.1-0.1-0.1c-0.1-0.1,0-0.2-0.1-0.2c-0.1-0.1,0-0.1-0.1-0.2c0,0,0,0,0-0.1c0-0.1,0-0.2-0.1-0.3l0,0c0-0.1,0-0.2-0.1-0.2
		c0,0-0.1,0-0.1,0v0C29.6,37,29.6,37,29.6,36.9z"/>
	<path class="st0" d="M43.5,13.5C43.5,13.4,43.5,13.4,43.5,13.5L43.5,13.5c0-0.1,0-0.2,0-0.3c-0.1-0.1,0-0.2-0.1-0.3
		c-0.1-0.1,0-0.2-0.1-0.3c-0.1-0.1,0-0.2-0.1-0.3c0-0.1,0-0.2-0.1-0.2v0c-0.1-0.1,0-0.2-0.1-0.2c-0.1-0.1,0-0.2-0.1-0.2
		c-0.1-0.1-0.1-0.2-0.2-0.3l0,0c0,0-0.1-0.1-0.1-0.1v0c0,0-0.1-0.1-0.1-0.1c0,0-0.1-0.1-0.1-0.1c0,0-0.1-0.1-0.1-0.1l0,0
		c0,0-0.1-0.1-0.1-0.1c0,0-0.1-0.1-0.1-0.1c0,0-0.1-0.1-0.1-0.1l0,0c0,0-0.1-0.1-0.1-0.1l0,0c-0.1-0.1-0.2-0.2-0.3-0.2
		c0,0-0.1-0.1-0.1-0.1c0-0.1-0.1-0.1-0.2-0.1c0,0-0.1-0.1-0.1-0.1c0-0.1-0.1-0.1-0.2-0.1c-0.1-0.1-0.2-0.1-0.2-0.1h0
		c-0.1-0.1-0.2-0.1-0.2-0.1c-0.1-0.1-0.2-0.1-0.2-0.1C40.1,9.4,40,9.4,40,9.3l0,0c-0.1-0.1-0.2-0.1-0.3-0.1c0,0-0.1,0-0.1,0
		c-0.1-0.1-0.2,0-0.2-0.1c-0.1-0.1-0.2,0-0.3-0.1c-0.1-0.1-0.2,0-0.3-0.1c-0.1-0.1-0.2,0-0.3-0.1c-0.1-0.1-0.1-0.1-0.2,0
		c0,0,0,0,0,0c0,0-0.1-0.1-0.1-0.1c-0.1-0.1-0.2,0-0.4-0.1c0,0,0,0-0.1,0c0,0,0,0,0,0c-0.1-0.1-0.2,0-0.4-0.1c0,0,0,0-0.1,0
		c0,0,0,0,0,0c-0.1-0.1-0.3,0-0.4-0.1h0c-0.2-0.1-0.4,0-0.5-0.1h0c-0.1-0.1-0.3,0-0.5-0.1c0,0,0,0-0.1,0c0,0,0,0,0-0.1
		c0,0-0.1,0-0.1,0c-0.3,0-0.5,0-0.8-0.1c0,0-0.1,0-0.1,0c-0.3,0-0.6,0-0.9-0.1l-0.2,0h-2.2c0,0-0.1,0-0.1,0c-0.1,0-0.2,0.1-0.2,0.2
		l0,0c0,0,0,0,0,0c0,0,0,0,0,0.1l0,0c0.1,0.1,0.2,0.3,0.3,0.3c0.1,0.1,0.2,0.2,0.3,0.2v0c0.1,0.1,0.2,0,0.3,0.1h0.3
		c0.3,0,0.6,0,0.9,0.1l0,0l0,0c0.2,0.1,0.4,0,0.5,0.1h0c0.1,0.1,0.3,0,0.4,0.1c0.1,0.1,0.2,0,0.3,0.1c0.1,0.1,0.2,0.1,0.3,0
		c0,0,0,0.1,0,0.1h0c0.1,0.1,0.2,0,0.3,0.1c0.1,0.1,0.2,0.1,0.2,0.1c0.1,0.1,0.2,0.1,0.2,0.1l0,0c0.2,0,0.3,0.1,0.4,0.2l0,0
		c0,0.1,0.2,0.1,0.2,0.1l0,0c0,0.1,0.1,0.1,0.2,0.1h0c0,0,0,0,0,0.1c0.1,0,0.2,0.1,0.3,0.2l0.3,0.1c0,0,0,0.1,0,0.1
		c0.2,0.1,0.2,0.2,0.4,0.2c0,0.1,0.1,0.1,0.1,0.1c0,0.1,0.1,0.1,0.1,0.1c0,0.1,0.1,0.1,0.1,0.1c0,0.1,0.1,0.1,0.1,0.1
		c0.1,0.1,0.3,0.3,0.4,0.4c0.1,0.1,0.1,0.1,0.1,0.2c0.1,0,0.2,0.1,0.2,0.2c0.1,0.1,0.2,0.2,0.3,0.3l0.3,0.3c0.1,0.1,0.2,0.2,0.2,0.3
		c0.1,0,0.1,0.1,0.1,0.1c0.1,0.1,0.2,0.2,0.2,0.3c0.1,0.1,0.2,0.2,0.2,0.3c0.1,0,0.1,0.1,0.1,0.2c0.1,0.1,0.2,0.2,0.2,0.3
		c0,0,0.1,0,0.1,0h0c0,0.1,0,0.1,0,0.2c0,0,0.1,0,0.1,0c0,0.1,0,0.1,0,0.2c0,0,0.1,0,0.1,0h0c-0.1,0.1,0,0.1,0,0.2
		c0.1,0,0,0.1,0.1,0.2c0,0,0.1,0.1,0.1,0.1c0.1,0.1,0.3,0,0.4,0.1h0c0.2-0.1,0.4,0,0.6-0.1l0,0l0,0c0.1,0,0.2,0,0.3-0.1
		c0.1-0.1,0.2-0.1,0.3-0.1C42.9,15,43,15,43.1,15l0.1-0.1c0-0.1,0.1-0.1,0.2-0.1l0.1-0.2l0.2-0.1c0-0.2,0-0.3,0-0.5
		C43.6,13.8,43.6,13.7,43.5,13.5L43.5,13.5z"/>
	<path class="st0" d="M51.6,16.7l-0.2,0c0,0.1-0.1,0.1-0.2,0.1c0,0.1-0.1,0.1-0.2,0.1c0,0.1-0.1,0.1-0.2,0.1c0,0.1-0.1,0.1-0.2,0.1
		c0,0.1-0.1,0.1-0.2,0.1c0,0.1-0.1,0.1-0.2,0.1c0,0,0,0.1,0,0.1H50c0,0,0,0.1,0,0.1l-0.2,0c-0.1,0.1-0.2,0.2-0.3,0.2
		c-0.1,0.1-0.2,0.2-0.3,0.2l-0.1,0.1c0,0.1,0,0.3,0,0.4c0.1,0.1,0.1,0.1,0.1,0.2c0,0,0.1,0.1,0.1,0.1c0,0,0,0,0.1,0
		c0,0.1,0,0.1,0.1,0.2l0,0c0.1,0.1,0.1,0.2,0.2,0.3l0,0c0,0,0.1,0.1,0.1,0.1c0.1,0.1,0.2,0.2,0.3,0.3c0.1,0.1,0.2,0.1,0.3,0.1v0
		c0,0,0.1-0.1,0.1-0.1c0.1-0.1,0.2-0.1,0.3-0.2c0.1-0.1,0.2,0,0.3-0.1h0c0.3-0.1,0.6-0.1,0.9,0c0.1,0.1,0.2,0,0.3,0.1l0,0
		c0.1,0.1,0.2,0,0.3,0.1h0c0.1,0.1,0.2,0.1,0.2,0.1c0.1,0.1,0.2,0.1,0.2,0.1l0,0c0,0,0.1,0,0.1,0l0,0c0.1,0,0.1-0.1,0.1-0.1
		c0,0,0,0,0-0.1c0,0,0,0,0,0c0.1-0.1,0.1-0.3,0-0.4l0,0c-0.1-0.2,0-0.5-0.1-0.7c0,0,0,0,0-0.1c0,0,0,0,0,0c-0.1-0.1,0-0.3-0.1-0.5v0
		c-0.1-0.1-0.1-0.3-0.1-0.4c-0.1-0.1-0.1-0.2-0.1-0.3c-0.1-0.1-0.1-0.2-0.1-0.3c0,0-0.1,0-0.1,0c0-0.1,0-0.1,0-0.2c0,0-0.1,0-0.1,0
		c0-0.1,0-0.1,0-0.2c0,0-0.1,0-0.1,0c0,0,0-0.1,0-0.1c0,0-0.1,0-0.1,0c0,0,0-0.1,0-0.1l-0.2,0c0,0,0,0.1,0,0.1l-0.2,0
		c0,0,0,0.1,0,0.1c0,0-0.1,0-0.1,0L51.6,16.7C51.6,16.6,51.6,16.7,51.6,16.7z"/>
	<path class="st0" d="M27,19.2c-0.2,0-0.3,0-0.4-0.1l-0.6,0c0,0,0-0.1,0-0.1c-0.1,0-0.2,0-0.3,0H25c-0.1,0-0.1,0-0.2,0
		c-0.1,0.1-0.2,0.1-0.3,0.1h-0.4c0,0-0.1,0-0.1,0l0,0.1l-0.4,0c-0.1,0.1-0.2,0-0.3,0.1c0,0,0,0-0.1,0c0,0-0.1,0-0.1,0.1
		c0,0,0,0-0.1,0h-0.1c0,0,0,0.1,0,0.1c0,0,0,0,0,0c-0.1,0-0.2,0-0.3,0c-0.1,0.1-0.2,0-0.2,0.1c-0.1,0.1-0.2,0-0.2,0.1l0,0
		c-0.1,0.1-0.2,0-0.2,0.1l0,0c0,0-0.1,0.1-0.1,0.1c0,0-0.1,0.1-0.1,0.1h0c0,0,0,0.1-0.1,0.1c-0.1,0-0.2,0.1-0.2,0.1l0,0
		c0,0-0.1,0.1-0.1,0.1c-0.1,0.1-0.2,0-0.2,0.1l0,0c0,0-0.1,0.1-0.1,0.1c0,0.1-0.1,0-0.2,0.1c0,0-0.1,0-0.1,0c-0.1,0-0.2,0-0.2,0.1
		c-0.1,0.1-0.2,0-0.2,0.1c0,0-0.1,0-0.1,0c0,0,0,0,0,0c-0.1,0-0.1,0-0.2,0c0,0-0.1,0-0.1,0c-0.1,0.1-0.3,0-0.3,0.1
		c-0.1,0.1-0.3,0.1-0.4,0.1c-0.1,0.1-0.2,0.1-0.3,0.1c-0.1,0.1-0.1,0.1-0.2,0.1v0c0,0-0.1,0.1-0.1,0.1c0,0-0.1,0.1-0.1,0.1h0
		c0,0.1,0,0.3,0,0.4c0.1,0.1,0,0.2,0.1,0.2l0,0c0,0,0.1,0.1,0.1,0.1c0.2,0.2,0.4,0.5,0.6,0.6c0,0,0.1,0.1,0.1,0.1
		c0,0,0.1,0.1,0.1,0.1l0,0c0.1,0.1,0.2,0.1,0.3,0.2h0c0,0,0.1,0.1,0.1,0.1c0,0,0.1,0.1,0.1,0.1c0,0,0.1,0.1,0.1,0.1l0,0
		c0,0,0.1,0.1,0.1,0.1l0,0c0,0,0.1,0.1,0.1,0.1l0,0c0,0,0.1,0.1,0.1,0.1c0.1,0.1,0,0.2,0.1,0.2l0,0c0,0,0.1,0.1,0.1,0.1
		c0.1,0.1,0,0.2,0.1,0.2l0,0c0,0,0.1,0.1,0.1,0.1c0.1,0.1,0,0.2,0.1,0.2v0c0,0,0.1,0,0.1,0c0,0.1,0,0.1,0,0.2c0,0,0.1,0,0.1,0
		c0,0.1,0,0.1,0,0.2c0.1,0.1,0.1,0.1,0.1,0.2c0,0,0.1,0,0.1,0c0,0.1,0,0.1,0,0.2c0,0,0.1,0,0.1,0c0,0.2,0.1,0.3,0.2,0.4l0,0.2
		l0.2,0.1l0.2,0.6c0.1,0.1,0,0.2,0.1,0.2c0.1,0.1,0,0.2,0.1,0.2v0c0.1,0.1,0.1,0.2,0.1,0.2c0.1,0.1,0,0.2,0.1,0.2
		c0.1,0.1,0,0.2,0.1,0.2c0.1,0.1,0,0.2,0.1,0.2c0.1,0.1,0.1,0.2,0.2,0.3l0,0c0,0,0.1,0.1,0.1,0.1c0,0,0.1,0.1,0.1,0.1
		c0,0,0.1,0.1,0.1,0.1v0c0,0,0.1,0.1,0.1,0.1l0,0c0,0,0.1,0.1,0.1,0.1l0,0c0,0.1,0.2,0.1,0.2,0.1h0c0,0,0.1,0.1,0.1,0.1l0,0
		c0.1,0.1,0.2,0.1,0.2,0.1c0.1,0.1,0.2,0,0.2,0.1c0.1,0.1,0.2,0.1,0.2,0.1h0c0.1,0.1,0.2,0.1,0.2,0.1h0l0,0c0.1,0,0.1,0.1,0.2,0
		c0,0,0,0,0,0l0.1,0.1c0.1,0,0.2,0,0.3,0c0,0,0,0.1,0,0.1h0c0.2,0.1,0.4,0,0.5,0.1h0c0.2,0.1,0.4,0,0.6,0.1l0,0l0,0
		c0.3,0,0.6,0,0.9,0.1l0,0l0,0c0.2,0,0.4,0,0.6,0c0.4,0,0.8,0,1.1,0c0.1,0.1,0.3,0,0.4,0.1c0.4,0,0.8,0,1.2,0.1l0,0l0,0
		c0.3,0,0.5,0,0.8,0.1h0c0.2,0.1,0.5,0,0.7,0.1l0,0l0,0c0.2,0.1,0.4,0,0.5,0.1l0,0c0.1,0.1,0.2,0.1,0.3,0.1c0,0,0,0,0-0.1
		c0,0,0,0,0,0l0.2,0.1c0.1,0,0.2,0,0.3,0.1l0.3,0c0.1,0.1,0.2,0.1,0.3,0.1c0,0,0,0,0,0s0,0,0.1,0c0,0,0,0,0,0h0.1c0,0,0,0.1,0,0.1
		l0,0c0,0.1,0.2,0.1,0.2,0.1l0,0c0,0,0.1,0,0.1,0c0,0,0,0.1,0,0.1l0.1,0l0,0l0,0c0,0,0,0,0,0h0l0,0l0,0v0h0c0,0,0,0,0,0l0,0v0
		c0,0,0,0,0,0l0,0c0,0,0,0,0,0l0,0l0.1,0c0,0,0.1,0,0.1,0.1c0,0,0,0,0,0.1H36c0,0,0,0,0-0.1l0,0l0,0l0.1,0l0-0.1c0,0,0,0,0,0
		c0,0,0,0,0.1,0c0,0,0,0,0-0.1l0,0l0,0c0,0,0,0,0,0l0,0c0,0,0-0.1,0.1-0.1c0,0,0,0,0,0l0.1,0c0-0.1,0-0.2,0.1-0.2c0-0.1,0-0.2,0-0.2
		c0,0,0,0,0,0c0-0.1,0.1-0.1,0.1-0.2c0,0,0,0,0-0.1c0,0,0,0,0,0c0.1-0.3,0.1-0.6,0-0.9c0,0,0-0.1,0.1-0.2c0-0.4,0-0.8-0.1-1.1
		c0,0,0-0.1,0-0.1c-0.1-0.2,0-0.5-0.1-0.8c0,0,0,0,0-0.1c0,0,0,0,0,0c-0.1-0.2,0-0.4-0.1-0.6l0,0c-0.1-0.1,0-0.3-0.1-0.4
		c0-0.1,0-0.2-0.1-0.2c0,0,0,0,0,0c0,0-0.1-0.1-0.1-0.1c0,0-0.1-0.1-0.1-0.1c-0.1-0.1-0.2-0.1-0.2-0.1h-0.1c-0.1,0.1-0.2,0-0.3,0.1
		c0,0,0,0.1,0,0.1c-0.1,0-0.2,0-0.3-0.1c-0.1,0-0.1,0-0.1-0.1c-0.1,0-0.2-0.1-0.3-0.2c-0.1,0-0.1,0-0.1-0.1c-0.1,0-0.2-0.1-0.3-0.2
		c-0.1,0-0.1,0-0.1-0.1c-0.1,0-0.1,0-0.1-0.1c0,0-0.1,0-0.1,0l-0.1-0.1c0,0-0.1,0-0.1,0c0,0,0-0.1,0-0.1c-0.1,0-0.1,0-0.1-0.1
		c-0.1,0-0.1,0-0.1-0.1l-0.2-0.1c0-0.1-0.1-0.1-0.1-0.2c-0.1,0-0.1,0-0.1-0.1c-0.1,0-0.1,0-0.1-0.1l-0.3-0.2l-0.2-0.3
		c-0.1,0-0.1,0-0.1-0.1c-0.1-0.1-0.1-0.1-0.2-0.2c-0.1,0-0.1,0-0.1-0.1c-0.1,0-0.1,0-0.1-0.1c-0.2-0.1-0.3-0.2-0.5-0.4
		c-0.1-0.1-0.2-0.2-0.3-0.3c0-0.1,0-0.1-0.1-0.1c0-0.1-0.1-0.1-0.1-0.1c-0.1-0.2-0.3-0.3-0.4-0.5c-0.1,0-0.1-0.1-0.1-0.1l-0.2-0.1
		c-0.1-0.1-0.1-0.2-0.2-0.3c-0.1,0-0.1-0.1-0.1-0.1c-0.1,0-0.1-0.1-0.2-0.2c0,0,0-0.1,0-0.1c-0.1,0-0.1-0.1-0.1-0.1c0,0-0.1,0-0.1,0
		c0-0.1,0-0.1,0-0.2l-0.1-0.1c-0.1,0-0.1-0.1-0.1-0.2c-0.1,0-0.1-0.1-0.1-0.2l-0.1-0.1c-0.1-0.1-0.2-0.2-0.2-0.3l-0.1-0.1
		c0,0-0.1-0.1-0.1-0.1c-0.2-0.1-0.3-0.2-0.4-0.3l-0.1,0c0,0,0-0.1-0.1-0.1c0,0,0,0,0,0c0,0-0.1,0-0.1,0c0,0-0.1-0.1-0.1-0.1l0,0
		c0-0.1-0.1-0.1-0.2-0.1c0,0,0,0,0,0c0,0,0,0,0-0.1c-0.1,0-0.2,0-0.3-0.1C27.2,19.3,27.1,19.3,27,19.2z M22.3,25.5
		c-0.3,0.1-0.4,0-0.6-0.3c0,0,0-0.1,0-0.1c0,0,0-0.1,0.1-0.1l0.1-0.2l0-0.1h0l0.1-0.1c0.2,0,0.4,0,0.6,0.1l0,0c0,0.1,0,0.1,0,0.2
		C22.7,25.2,22.6,25.4,22.3,25.5z M23,21.2c-0.1,0.1-0.2,0.2-0.3,0.2h-0.3c-0.2-0.2-0.4-0.3-0.2-0.6c0,0,0,0,0,0c0,0,0,0,0.1,0
		c0,0,0.1-0.1,0.1-0.1c0,0,0,0,0,0h0.2h0.2c0.1,0,0.1,0.1,0.2,0.1C23.2,20.8,23.2,21,23,21.2z M28.6,24.2c0.1,0,0.1,0.1,0.2,0.1v0
		c0,0.1,0.1,0.1,0.1,0.1c0.2,0.2,0.5,0.4,0.7,0.6c0.1,0,0.1,0.1,0.2,0.1c1,1.2,2.2,2.2,3.5,3c0.1,0,0.2,0.1,0.2,0.1
		c0,0,0.1,0.1,0.1,0.1l0,0c0,0,0,0-0.1,0.1s0,0,0,0c0,0-0.1,0-0.1,0c0,0-0.1,0-0.1,0c0-0.1-0.1-0.1-0.2-0.1
		c-0.3-0.1-0.6-0.2-0.9-0.3c-0.1-0.1-0.3-0.2-0.5-0.2l-0.1-0.1c-0.5-0.3-1-0.6-1.5-0.9c-0.4-0.3-0.7-0.5-1.1-0.8
		c-0.3-0.3-0.7-0.7-1.1-1c-0.1-0.1-0.2-0.2-0.3-0.3c-0.3-0.3-0.5-0.6-0.8-0.8c-0.5-0.5-1.2-0.8-1.8-1c-0.3-0.2-0.5-0.3-0.8-0.3
		c-0.2-0.1-0.5-0.1-0.7-0.2c0.3-0.1,0.5-0.1,0.8,0c0.1,0,0.3,0,0.4,0.1l0.2,0l1.7,0.6h0l0.1,0.1c0,0,0.1,0,0.1,0
		c0.1,0,0.1,0.1,0.2,0.1C27.5,23.5,28,23.9,28.6,24.2z"/>
	<polygon class="st0" points="36.3,26.8 36.3,26.8 36.3,26.8 	"/>
</g>
</svg>
