<?xml version="1.0" encoding="utf-8"?>
<!-- Generator: Adobe Illustrator 22.1.0, SVG Export Plug-In . SVG Version: 6.00 Build 0)  -->
<svg version="1.1" id="Layer_1" xmlns="http://www.w3.org/2000/svg" xmlns:xlink="http://www.w3.org/1999/xlink" x="0px" y="0px"
	 viewBox="0 0 47.2 43.6" style="enable-background:new 0 0 47.2 43.6;" xml:space="preserve">
<style type="text/css">
	.st0{fill:#FFFFFF;}
</style>
<g>
	<path class="st0" d="M7.8,40.7c-0.3,0-0.7,0-1,0c0,0-0.1,0-0.1,0c-0.1-0.1-0.3,0-0.4-0.1c0,0-0.1,0-0.1,0c-0.1,0-0.1-0.1-0.2,0
		c0,0,0,0,0-0.1c-0.1,0-0.2,0-0.3-0.1l-0.2,0c0,0,0-0.1,0-0.1c-0.1,0-0.2,0-0.3-0.1c-0.1,0-0.2,0-0.2-0.1c-0.1,0-0.2,0-0.2-0.1
		c-0.1,0-0.2,0-0.2-0.1c-0.1,0-0.2,0-0.2-0.1c-0.1,0-0.1,0-0.1-0.1c-0.1,0-0.2-0.1-0.2-0.1c-0.1,0-0.1,0-0.1-0.1
		c0,0-0.1-0.1-0.1-0.1c-0.1-0.1,0-0.2,0-0.3h0c0,0,0.1,0,0.1,0l0.1,0l0,0c0,0,0,0,0,0c0.1,0,0.2,0,0.3-0.1l0,0l0,0
		c0.1,0,0.1-0.1,0.1-0.1l0,0c0.1-0.1,0-0.2-0.1-0.3c-0.1-0.1-0.1-0.2-0.2-0.3l0,0C4.1,38,4,37.9,4,37.9l0,0c0,0-0.1-0.1-0.1-0.1
		c0,0-0.1-0.1-0.1-0.1l0,0c0-0.1-0.1-0.1-0.1-0.1l0,0c0-0.1-0.1-0.1-0.1-0.1l0,0c0-0.1-0.1-0.1-0.1-0.1l0,0c0-0.1-0.1-0.1-0.1-0.1
		l0,0c0,0,0-0.1-0.1-0.1c0,0,0,0,0,0v0l0,0c0,0,0,0,0-0.1c0,0,0-0.1-0.1-0.1c0,0,0,0,0,0c0,0,0,0,0,0l0-0.1l0,0c0,0,0,0,0,0
		c0-0.1,0-0.1,0-0.2c-0.1-0.2-0.1-0.4-0.1-0.5c-0.1-0.3-0.1-0.5-0.1-0.8c0-0.4,0-0.9,0-1.3c0-0.1,0.1-0.2,0.1-0.2
		c0-0.2,0-0.4,0.1-0.6c0-0.5,0-1,0-1.5c-0.1-0.2-0.1-0.5,0-0.7c0-0.1,0-0.1,0-0.2c0.1,0,0.1,0,0.2,0l0,0h0c0.1-0.1,0.3,0,0.4-0.1
		l0,0l0,0c0.2-0.1,0.5,0,0.7-0.1l0.2,0c0.2-0.1,0.4-0.1,0.6,0c0,0,0-0.1,0.1-0.1v0l2.3,0l0.2,0h0c0,0,0.1,0.1,0.1,0.1l0,0l0,0
		c0.3,0.1,0.6,0.2,0.8-0.1c-0.1-0.1,0-0.2-0.1-0.3l0,0v0c-0.1-0.1,0-0.2-0.1-0.3c-0.1-0.5-0.1-1,0.1-1.5c0-0.1,0-0.1,0-0.2
		c0-0.2,0-0.3,0.1-0.5c0,0,0-0.1,0-0.1c0-0.1,0-0.2,0.1-0.2c0,0,0-0.1,0-0.1c0-0.1,0-0.1,0.1-0.2c0,0,0-0.1,0-0.1
		c0-0.1,0-0.1,0.1-0.2c0,0,0-0.1,0.1-0.1c0-0.1,0.1-0.1,0.1-0.2c0,0,0-0.1,0-0.1c-0.1-0.1-0.2-0.1-0.3-0.1c0,0-0.1,0-0.1,0.1
		c-0.1,0-0.2,0.1-0.2,0.1c0,0-0.1,0-0.1,0c-0.1,0-0.1,0-0.2,0.1c0,0-0.1,0-0.1,0c-0.1,0-0.1,0-0.2,0.1c0,0-0.1,0-0.1,0
		c-0.1,0-0.1,0.1-0.2,0.1c0,0-0.1,0-0.1,0c-0.1,0-0.1,0-0.2,0.1c0,0-0.1,0-0.1,0c-0.1,0-0.2,0.1-0.2,0.1c0,0-0.1,0-0.1,0
		c-0.1,0-0.2,0.1-0.2,0.1c0,0-0.1,0-0.1,0c-0.1,0-0.2,0.1-0.2,0.1c0,0-0.1,0-0.1,0c-0.1,0-0.2,0-0.3,0.1c0,0-0.1,0-0.1,0
		c-0.1,0-0.2,0.1-0.3,0.1c0,0-0.1,0-0.1,0c-0.1,0-0.2,0.1-0.3,0.1c0,0-0.1,0-0.1,0c-0.1,0-0.2,0.1-0.3,0.1c0,0-0.1,0-0.1,0
		c-0.2,0-0.3,0.1-0.5,0.1c0,0-0.1,0-0.1,0c-0.2,0.1-0.4,0.1-0.7,0.1c-0.1,0-0.2,0-0.2,0c-0.2,0.1-0.4,0.2-0.6,0.1c0,0-0.1,0-0.1,0
		C2.1,27.9,2,28,1.9,28c0,0-0.1,0-0.1,0c-0.1,0-0.2,0.1-0.2,0.1c0,0-0.1,0-0.1,0c-0.1,0-0.2,0.1-0.3,0.2c-0.1,0-0.2,0-0.2,0.1h0
		c0,0,0,0.1,0,0.1l-0.2,0l0,0c-0.1,0-0.1,0.1-0.1,0.1h0c-0.2,0.1-0.3,0.3-0.4,0.4c-0.1,0-0.1,0.1-0.1,0.2c0,0,0,0,0,0l0,0
		c0,0.1,0,0.2,0,0.3l0,0.2c0,0.4,0,0.8,0,1.2c0,0,0,0.1,0,0.1c0.1,0.2,0,0.4,0.1,0.6l0,0c0.1,0.1,0,0.2,0.1,0.3c0,0,0.1,0,0.1,0v0
		c0,0.1,0,0.1,0,0.2c0.1,0.1,0.1,0.2,0.1,0.3c0.1,0.1,0.1,0.2,0.1,0.3c0.1,0.2,0.1,0.4,0.1,0.5c0.1,0.1,0.1,0.3,0.1,0.4
		c0.1,0.1,0.1,0.3,0.1,0.4C1,34.5,1,34.6,1,34.8l0.1,0.1L1.2,35c0,0-0.1,0-0.1,0c0,0.1,0,0.2,0,0.3v0c0.1,0.2,0,0.4,0.1,0.6
		c0,0,0,0,0,0.1c0,0,0,0,0,0c0,0.1,0.1,0.1,0.1,0.2c-0.1,0.1-0.1,0.3,0,0.4v0c0.1,0.5,0.1,1,0.2,1.5l0,0.2c0.1,0.2,0,0.4,0.1,0.6v0
		c0.1,0.1,0,0.2,0.1,0.2l0,0c0,0,0.1,0.1,0.1,0.1l0,0c0,0,0.1,0.1,0.1,0.1c0,0,0.1,0.1,0.1,0.1l0,0c0,0.1,0.1,0.1,0.1,0.1l0,0
		c0.1,0.1,0.1,0.2,0.2,0.2l0,0c0.1,0.1,0.2,0.3,0.2,0.5c0,0,0,0,0,0.1c0.1,0.1,0,0.3,0.1,0.4c0,0,0,0.1,0,0.1c0,0,0.1,0,0.1,0
		c0,0.2,0,0.4,0,0.6c0,0,0.1,0,0.1,0c0,0.2,0.1,0.3,0.1,0.4c0.1,0,0.1,0.1,0.1,0.1h0h0L3.4,42l0.2,0h0c0,0,0,0.1,0,0.1l0,0l0,0
		c0.2,0.1,0.4,0,0.6,0.1c0.1,0.1,0.1,0.1,0.2,0c0,0,0,0,0,0c0,0,0,0,0.1,0.1h0c0,0.1,0.2,0.1,0.2,0.1c0,0,0.1,0.1,0.1,0.1
		c0,0,0.1,0.1,0.1,0.1l0,0c0,0,0.1,0.1,0.1,0.1l0,0c0,0,0.1,0.1,0.1,0.1c0,0,0.1,0.1,0.1,0.1l0,0c0.1,0,0,0.2,0.1,0.2l0,0
		c0,0.1,0.1,0.1,0.1,0.1c0,0.1,0.1,0.1,0.2,0.1c0,0,0,0,0,0c0,0.1,0,0.1,0,0.2c0.1,0,0.3,0,0.4,0c0-0.1,0.1-0.1,0.1-0.1
		c0-0.1,0.1-0.1,0.2-0.1c0-0.1,0.1-0.1,0.1-0.1c0,0,0,0,0-0.1c0,0,0.1,0,0.1-0.1c0,0,0,0,0.1-0.1c0,0,0,0,0,0h0V43l0,0c0,0,0,0,0,0
		h0H7c0,0,0-0.1,0-0.1c0,0,0,0,0,0c0.2,0.1,0.2-0.1,0.3-0.2c0,0,0-0.1,0.1-0.1c0-0.1,0.1-0.1,0.1-0.2c0,0,0-0.1,0-0.1
		c0-0.1,0-0.1,0-0.2c0,0,0-0.1,0-0.1c0,0-0.1-0.1-0.1-0.1c0,0-0.1,0-0.1-0.1l-0.2-0.1c0,0-0.1,0-0.1,0c0,0-0.1,0-0.1,0
		c0,0-0.1,0-0.1-0.1c0,0,0-0.1,0-0.1l0.1-0.1c0,0,0.1,0,0.1-0.1c0,0,0.1,0,0.1,0c0.1,0,0.1,0,0.2-0.1c0,0,0.1,0,0.1,0l0.2-0.1
		c0,0,0.1,0,0.1-0.1c0.1,0,0.1-0.1,0.2-0.1C7.9,41,8,41,8,40.9c0-0.1,0-0.2,0-0.2C7.9,40.7,7.8,40.7,7.8,40.7z"/>
	<polygon class="st0" points="0.1,29.1 0.1,29.1 0.1,29.1 	"/>
	<path class="st0" d="M7.2,9.6C7.3,9.6,7.3,9.6,7.2,9.6L7.2,9.6l0.1,0c0.1,0,0.1-0.1,0.2-0.1c0.1-0.1,0.3,0,0.4-0.1l0,0l0,0
		c0.2-0.1,0.4,0,0.6-0.1c0,0,0.1-0.1,0.1-0.1c0,0,0.1-0.1,0-0.1h0c0,0,0.1,0,0.1-0.1c0-0.1,0.1-0.2,0.1-0.2c0,0,0-0.1,0-0.1
		c0-0.1,0.1-0.1,0.1-0.1l0,0c0,0,0.1-0.1,0.1-0.1c0,0,0.1-0.1,0.1-0.1C9.4,8.1,9.4,8,9.5,7.9l0.1-0.1c0.1,0,0.2-0.1,0.2-0.1
		c0,0,0.1,0,0.1,0c0.1,0,0.1,0,0.2-0.1c0,0,0.1,0,0.1,0c0.1,0,0.2-0.1,0.2-0.1c0,0,0.1,0,0.1,0c0.1,0,0.2,0,0.2-0.1c0,0,0.1,0,0.1,0
		c0.1,0,0.2-0.1,0.2-0.1c0,0,0.1,0,0.1,0c0.1,0,0.2-0.1,0.2-0.1c0,0,0.1,0,0.1,0c0.1,0,0.1,0,0.2-0.1c0,0,0.1,0,0.1,0
		c0.1,0,0.1-0.1,0.2-0.1c0,0,0.1,0,0.1,0l0.2-0.1c0,0,0.1,0,0.1,0c0,0,0.1,0,0.1-0.1c0,0,0,0,0,0c0,0,0.1-0.1,0.1-0.1s0,0,0,0
		c0,0,0.1-0.1,0.1-0.1c0,0,0-0.1,0.1-0.1c0,0,0.1-0.1,0.1-0.1l0,0c0,0,0-0.1,0.1-0.1c0,0,0-0.1,0.1-0.1c0-0.1,0.1-0.1,0.1-0.2
		c0,0,0-0.1,0.1-0.1c0-0.1,0.1-0.1,0.1-0.2l0,0c0,0,0.1-0.1,0.1-0.1c0,0,0-0.1,0.1-0.1c0-0.1,0.1-0.1,0.1-0.1c0,0,0,0,0,0
		c0,0,0.1-0.1,0.1-0.1c0,0,0-0.1,0.1-0.1c0-0.1,0.1-0.1,0.1-0.2c0,0,0,0,0,0c0,0,0.1-0.1,0.1-0.1c0,0,0-0.1,0.1-0.1
		c0-0.1,0.1-0.1,0.1-0.2l0,0c0,0,0.1-0.1,0.1-0.1l0,0c0,0,0.1-0.1,0.1-0.1l0,0C14.9,4,14.9,4,15,4c0,0,0,0,0,0c0,0,0.1-0.1,0.1-0.1
		c0.1-0.1,0.1-0.2,0.2-0.3c0,0,0.1-0.1,0.1-0.1c0,0,0.1-0.1,0.1-0.1s0.1-0.1,0.1-0.1c0,0,0.1-0.1,0.1-0.1s0.1-0.1,0.1-0.1
		c0,0,0.1-0.1,0.1-0.1c0-0.1,0-0.1,0-0.2h0c0.1,0,0.2,0,0.3-0.1v0c0.1,0,0.1-0.1,0.1-0.1l0,0c0,0,0.1-0.1,0.1-0.1
		C16.8,2.1,16.9,2,17,1.9l0,0c0,0,0.1-0.1,0.1-0.1c0.1-0.1,0.2,0,0.2-0.1l0,0c0,0,0,0,0,0c0.1,0,0.1-0.1,0.1-0.1
		c0.1-0.1,0.2,0,0.2-0.1l0,0c0,0,0,0,0,0c0,0,0.1-0.1,0.1-0.1c0.1-0.1,0.2,0,0.2-0.1h0c0.1-0.1,0.2,0,0.2-0.1l0,0
		c0.1-0.1,0.2,0,0.2-0.1l0,0c0.1,0,0.2,0,0.2-0.1l0,0c0.1-0.1,0.2,0,0.2-0.1h0c0.1-0.1,0.2,0,0.2-0.1l0,0l0,0c0.1,0,0.2,0,0.3-0.1
		c0.1-0.1,0.2,0,0.3-0.1l0,0l0,0c0.1-0.1,0.3,0,0.4-0.1l0,0l0,0c0.2-0.1,0.4,0,0.6-0.1l0,0c0.1-0.2-0.2-0.1-0.2-0.2h0
		c-0.1-0.1-0.3,0-0.4-0.1l-1.9,0c-0.1,0.1-0.3,0-0.4,0.1c-0.1,0.1-0.2,0-0.3,0.1c0,0,0,0-0.1,0c-0.1,0-0.2,0-0.3,0.1
		c-0.1,0.1-0.2,0.1-0.3,0.1c-0.1,0.1-0.1,0.1-0.2,0.1c-0.1,0.1-0.1,0.1-0.2,0.1c-0.1,0.1-0.2,0.2-0.3,0.2C16.1,0.9,16,1,15.9,1
		c0,0.1-0.1,0.1-0.1,0.1c0,0.1-0.1,0.1-0.2,0.1l-0.1,0.1c0,0.1-0.1,0.1-0.2,0.1c0,0,0,0.1,0,0.1c0,0-0.1,0-0.1,0c0,0,0,0.1,0,0.1
		c0,0-0.1,0-0.1,0c-0.1,0.1-0.2,0.1-0.3,0.2l0,0c-0.1,0-0.1,0.1-0.1,0.1l0,0c-0.1,0-0.1,0.1-0.1,0.1l0,0c0,0-0.1,0.1-0.1,0.1h0
		c0,0-0.1,0.1-0.1,0.1l0,0c0,0-0.1,0.1-0.1,0.1l0,0c0,0-0.1,0.1-0.1,0.1l0,0l0,0c0,0-0.1,0.1-0.1,0.1l0,0c-0.1,0-0.1,0.1-0.1,0.1
		l0,0c-0.1,0.1-0.1,0.1-0.1,0.2c0,0-0.1,0-0.1,0c0,0.1,0,0.1-0.1,0.1c0,0.1-0.1,0.2-0.1,0.2c0,0-0.1,0.1-0.1,0.1c0,0.1,0,0.1,0,0.2
		c0,0-0.1,0-0.1,0c-0.1,0.1-0.1,0.2-0.1,0.2C13.1,3.9,13.1,4,13,4.1c-0.1,0.1-0.1,0.2-0.1,0.2l0,0c-0.1,0.1-0.1,0.2-0.1,0.2
		c0,0,0,0,0,0l0,0c-0.1,0.1,0,0.2-0.1,0.3c0,0-0.1,0.1-0.1,0.1l0,0c-0.1,0-0.1,0.2-0.1,0.2v0c-0.1,0,0,0.2-0.1,0.2
		c0,0-0.1,0.1-0.1,0.1l0,0c0,0-0.1,0.1-0.1,0.1c0,0-0.1,0.1-0.1,0.1c0,0-0.1,0.1-0.1,0.1l0,0c0,0.1-0.2,0.1-0.2,0.1h0
		C11.6,6,11.5,6,11.5,6c-0.1,0.1-0.2,0-0.3,0.1h0c-0.1,0.1-0.2,0-0.2,0.1c0,0,0,0-0.1,0c-0.1,0-0.2,0-0.3,0.1
		c-0.1,0.1-0.2,0-0.2,0.1c0,0-0.1,0-0.1,0c-0.1,0-0.2,0-0.2,0.1c-0.1,0.1-0.2,0-0.3,0.1l0,0c0,0,0,0,0,0c-0.1,0-0.2,0-0.2,0.1h0
		c-0.1,0.1-0.2,0-0.2,0.1C9.2,7,9.1,7,9,7C9,7.1,8.9,7.1,8.8,7.1c0,0,0,0-0.1,0c-0.1,0-0.2,0-0.3,0.1l0,0c0,0-0.1,0.1-0.1,0.1
		c-0.1,0.1-0.2,0-0.2,0.1l0,0c0,0-0.1,0.1-0.1,0.1l0,0c0,0.1-0.1,0.1-0.2,0.1l0,0c0,0,0,0,0,0c-0.1,0-0.1,0.1-0.1,0.1l0,0
		C7.6,7.9,7.7,8,7.6,8l0,0c0,0.1-0.1,0.1-0.2,0.1h0c-0.1,0.1-0.2,0-0.2,0.1L7.1,8.3c0,0,0,0,0,0L7,8.4c0,0,0,0,0,0c0,0,0,0-0.1,0.1
		H6.8L6.7,8.6v0c-0.1,0-0.1,0.2-0.1,0.2v0C6.5,9,6.5,9.2,6.6,9.4C6.7,9.6,7,9.7,7.2,9.6z"/>
	<path class="st0" d="M20.8,1L20.8,1c-0.1,0-0.2,0-0.3,0.1c-0.1,0-0.1,0.1-0.1,0.1l-0.2,0c-0.1,0.1-0.1,0.1-0.2,0.1c0,0,0,0.1,0,0.1
		l-0.2,0c-0.1,0.1-0.1,0.1-0.2,0.1c0,0.1-0.1,0.1-0.2,0.1l-0.1,0.1c0,0,0,0.1,0,0.1l-0.2,0C18.9,2,18.9,2,18.8,2l-0.1,0.1
		c-0.1,0.1-0.2,0.2-0.3,0.2c0,0,0,0.1,0,0.1h-0.1C18,2.6,17.7,2.7,17.6,3c-0.3,0.2-0.5,0.4-0.7,0.6c-0.3,0.4-0.7,0.8-1,1.2
		c-0.1,0.2-0.2,0.2-0.3,0.3c0,0.1-0.1,0.3-0.2,0.3c0,0.1,0,0.1-0.1,0.1C15.2,5.8,15,6,14.8,6.2c0,0.1,0,0.2-0.1,0.2
		c0,0.1,0,0.1-0.1,0.1c0,0.1-0.1,0.2-0.2,0.3c0,0.1,0,0.1-0.1,0.1c0,0.1-0.1,0.2-0.1,0.3l-0.2,0.1l-0.1,0.1l-0.1,0.1
		c-0.3,0.3-0.4,0.8-0.3,1.2c0,0.3,0,0.6,0,1l0,0.7c0,0,0,0.1,0,0.1c0,0-0.1,0-0.1,0c0,0,0,0.1,0,0.1c-0.1,0.1,0,0.2-0.1,0.3v0
		c-0.1,0.1,0,0.3-0.1,0.4v0c0,0.1,0.1,0.1,0.1,0.1l0,0l0,0c0.1,0.1,0.3,0,0.4,0.1h0l0,0c0.1,0.1,0.2,0,0.2,0.1h0
		c0,0.1,0.1,0.1,0.2,0.1l0,0c0,0,0,0,0,0c0,0,0,0,0,0c0,0,0.1,0,0.1,0.1c0,0,0,0,0.1,0c0,0,0,0,0,0.1l0.2,0c0,0,0,0.1,0,0.1h0
		c0.1,0.1,0.1,0.1,0.2,0.1c0,0,0,0,0,0l0.2,0c0,0,0,0.1,0,0.1c0.1,0,0.2,0,0.2,0.1c0,0,0.1,0.1,0.1,0.1c0.1,0,0.2,0,0.2,0.1l0.1,0.1
		l0.1,0.1c0,0,0.1,0,0.1,0c0,0,0,0.1,0,0.1l0.1,0.1l0.1,0.1l0.1,0.1c0,0,0.1,0.1,0.1,0.1l0.1,0.1l0.1,0.1c0.1,0,0.3,0,0.4-0.1
		c0-0.2,0-0.4,0-0.7c0,0,0-0.1,0-0.1c-0.1-0.1,0-0.3-0.1-0.4c0,0,0-0.1,0-0.1c-0.1-0.1-0.1-0.2-0.1-0.3c0-0.2,0-0.4,0-0.6l0.1-0.2
		c0-0.1,0-0.2,0.1-0.2c0-0.1,0-0.1,0.1-0.1c0-0.1,0.1-0.2,0.1-0.2l0.1-0.1c0-0.1,0-0.1,0.1-0.1l0.1-0.1c0-0.1,0.1-0.2,0.1-0.2
		l0.1-0.1c0-0.1,0.1-0.2,0.1-0.2L18,9.7c0-0.1,0.1-0.2,0.1-0.2c0-0.1,0.1-0.3,0.2-0.3L18.4,9l0-0.2c0,0,0.1,0,0.1,0
		c0-0.1,0-0.1,0.1-0.1c0-0.1,0.1-0.2,0.2-0.3c0-0.1,0-0.1,0.1-0.1c0.1-0.1,0.1-0.2,0.2-0.2l0.1-0.1l0.1-0.1l0.1-0.1l0.1-0.1l0.1-0.1
		l0.1-0.1c0-0.1,0.1-0.1,0.1-0.1c0-0.1,0.1-0.1,0.1-0.1c0,0,0,0,0-0.1c0.1,0,0.2,0,0.2-0.1l0,0c0.1,0,0.1-0.1,0.1-0.1h0
		c0.1-0.1,0.2-0.1,0.3-0.2c0.1-0.1,0.2,0,0.2-0.1h0c0-0.1,0.1-0.1,0.2-0.1c0.1-0.1,0.1-0.1,0.2-0.1c0.1-0.1,0.1-0.1,0.2-0.1v0
		c0.1-0.1,0.2,0,0.2-0.1c0.1-0.1,0.2,0,0.3-0.1h0c0.1-0.1,0.2,0,0.3-0.1h0c0.1-0.1,0.3,0,0.4-0.1l0,0c0.2-0.1,0.4,0,0.6-0.1l0,0l0,0
		c0.3-0.1,0.7-0.1,1-0.1c0.2,0,0.4,0,0.7,0c0.3,0.1,0.5,0.1,0.8,0c0,0,0.1,0,0.1-0.1l0.3,0h0c0,0,0,0.1,0,0.1l0,0l0,0
		c0.1,0.1,0.3,0,0.5,0.1l0,0c0.1,0.1,0.3,0,0.4,0.1l0,0l0,0c0.1,0.1,0.2,0,0.2,0.1h0c0.1,0.1,0.2,0.1,0.2,0.1
		c0.1,0.1,0.2,0.2,0.3,0.2l0,0h0c0,0.1,0.1,0.1,0.1,0.1l0,0C28.6,6.7,28.8,7,29,7.2l0,0c0,0,0,0,0.1,0.1c0,0,0,0,0,0.1
		c0.1,0.1,0,0.2,0.1,0.2l0,0c0,0,0,0,0,0c0,0.1,0.1,0.1,0.1,0.1c0.1,0.1,0,0.2,0.1,0.2c0.1,0.1,0,0.2,0.1,0.2c0.1,0.1,0,0.2,0.1,0.3
		c0.1,0.1,0,0.3,0.1,0.4v0c0.1,0.6,0.1,1.2,0,1.8c0,0,0,0.1,0,0.1c-0.1,0.1,0,0.2-0.1,0.3l0,0c-0.1,0.1,0,0.2-0.1,0.3
		c-0.1,0.1-0.1,0.2-0.1,0.2v0c-0.1,0.1-0.1,0.2-0.1,0.2c0,0.1-0.1,0.1,0,0.2h0v0l-0.2,0.1c0,0.1,0,0.1-0.1,0.1c0,0-0.1,0.1-0.1,0.1
		c-0.1,0.1-0.1,0.2-0.2,0.3c-0.1,0-0.2,0-0.2,0.1l0,0c-0.1,0-0.1,0.1-0.1,0.1l0,0c0,0-0.1,0.1-0.1,0.1c0,0-0.1,0.1-0.1,0.1h0
		c0,0.1-0.2,0-0.2,0.1h0c-0.1,0.1-0.2,0-0.2,0.1l0,0c-0.1,0-0.2,0-0.2,0.1l0,0c-0.1,0.1-0.2,0-0.2,0.1c-0.1,0.1-0.2,0-0.3,0.1
		c-0.1,0.1-0.3,0-0.4,0.1c0,0-0.1,0-0.1,0c-0.3,0.1-0.7,0.1-1,0c0,0-0.1,0-0.1,0c-0.1-0.1-0.2,0-0.3-0.1c0,0,0,0,0,0c0,0,0,0,0-0.1
		c-0.1,0-0.2,0-0.2-0.1c-0.1,0-0.2-0.1-0.2-0.1c0,0-0.1-0.1-0.1-0.1c0,0-0.1-0.1-0.1-0.1l-0.1,0c0,0,0-0.1,0-0.1L24.1,13
		c0,0-0.1-0.1-0.1-0.1c-0.1,0-0.1-0.1-0.1-0.2c0,0-0.1,0-0.1,0c0-0.2,0-0.4,0-0.7c0,0,0,0,0,0c0,0,0.1-0.1,0.1-0.1c0,0,0-0.1,0-0.1
		c0.1-0.1,0-0.2,0.1-0.2v0c0,0,0.1-0.1,0.1-0.1l0,0c0,0,0.1-0.1,0.1-0.1l0,0c0,0,0,0,0,0c0.1,0,0.1-0.1,0.1-0.1l0,0
		c0.1,0,0.1-0.1,0.1-0.1h0c0.1,0,0.2,0,0.2-0.1l0,0c0.2-0.1,0.5-0.1,0.7,0c0,0,0.1,0.1,0.1,0.1c0,0,0.1,0.1,0.1,0.1v0
		c0,0.1,0,0.2,0.1,0.2v0c0.1,0.1,0.1,0.2,0,0.2v0c-0.1,0.1-0.1,0.2-0.1,0.2c0,0-0.1,0.1-0.1,0.1h0c0,0,0,0,0,0c0,0,0,0,0,0.1h-0.1
		c0,0.1-0.1,0.1-0.2,0.1L25,12.3c0,0.1,0,0.2,0.1,0.3h0.8c0.1-0.1,0.2-0.1,0.3-0.1l0.1-0.1c0-0.1,0.1-0.1,0.2-0.1
		c0,0,0.1-0.1,0.1-0.1l0.1-0.1c0-0.1,0.1-0.2,0.1-0.2l0.1-0.1c0-0.1,0-0.1,0-0.2c0,0,0.1,0,0.1-0.1h0c0-0.3,0-0.6,0-1c0,0,0,0,0-0.1
		c0-0.1,0-0.2-0.1-0.3c-0.1-0.1,0-0.2-0.1-0.2c0,0-0.1,0-0.1,0c0,0,0-0.1,0-0.1c-0.1-0.1-0.3-0.3-0.4-0.4c-0.1,0-0.1,0-0.1-0.1
		c-0.1,0-0.2,0-0.2-0.1c-0.1,0-0.2,0-0.3-0.1c-0.1-0.1-0.3,0-0.4-0.1c0,0-0.1,0-0.1,0l-1.1,0c-0.1,0.1-0.3,0.1-0.4,0.1
		c-0.1,0.1-0.1,0.1-0.2,0.1c0,0-0.1,0.1-0.1,0.1c0,0-0.1,0-0.1,0c0,0,0,0.1,0,0.1l0,0c0,0,0,0,0,0c-0.1,0-0.1-0.1-0.2,0l0,0
		c0,0-0.1,0.1-0.1,0.1h0c0,0.1-0.1,0.1-0.1,0.1c-0.2,0.2-0.3,0.4-0.5,0.6c0,0.1,0,0.1-0.1,0.1c0,0-0.1,0.1-0.1,0.1
		c0,0.1-0.1,0.2-0.1,0.2c0,0.1,0,0.2-0.1,0.2c0,0.1,0,0.2-0.1,0.2c0,0.1,0,0.2-0.1,0.2c0,0.1,0,0.2-0.1,0.3c0,0.1,0,0.2,0,0.3
		c0,0-0.1,0-0.1,0c0,0,0,0.1,0,0.1c0,0.5,0,1.1,0,1.6c0.1,0.1,0,0.3,0.1,0.4c0.1,0.1,0,0.2,0.1,0.2v0c0.1,0.1,0,0.2,0.1,0.2
		c0,0,0.1,0,0.1,0v0c0,0.1,0,0.1,0,0.2c0,0,0.1,0,0.1,0c0,0.1,0,0.1,0,0.2c0,0,0.1,0,0.1,0l0,0.2c0.1,0,0.1,0.1,0.1,0.2
		c0,0,0.1,0,0.1,0c0,0.1,0,0.2,0.1,0.3c0.1,0.1,0.1,0.1,0.1,0.2c0.1,0,0.1,0,0.1,0.1l0.1,0.1c0.1,0,0.2,0,0.2,0.1
		c0.1,0,0.2,0,0.2,0.1c0.2,0,0.4,0,0.6,0l0,0h0c0.1,0.2,0.3,0.2,0.5,0.2c0.2,0,0.3,0,0.5,0c0.5,0.3,1,0.3,1.6,0.1l0.6,0
		c0.2-0.1,0.5,0,0.7-0.1l0,0h0c0.1-0.1,0.3,0,0.5-0.1c0.1-0.1,0.2,0,0.3-0.1l0,0h0c0.1,0,0.2,0,0.2-0.1c0,0,0.1,0,0.1,0
		c0,0,0-0.1,0-0.1h0.2c0,0,0-0.1,0-0.1h0.2c0,0,0-0.1,0-0.1h0.2c0,0,0-0.1,0-0.1l0.7-0.4c0-0.1,0.1-0.1,0.1-0.1c0,0,0-0.1,0-0.1
		c0,0,0.1,0,0.1,0c0,0,0.1,0,0.1,0l0.1-0.1c0,0,0-0.1,0-0.1c0,0,0.1,0,0.1,0c0,0,0-0.1,0-0.1c0,0,0.1,0,0.1,0c0-0.1,0.1-0.1,0.1-0.1
		c0.1-0.1,0.2-0.2,0.3-0.3l0.1-0.1l0.1-0.1c0-0.1,0-0.1,0.1-0.1c0-0.1,0.1-0.2,0.2-0.3c0,0,0.1-0.1,0.1-0.1c0-0.1,0.1-0.2,0.1-0.2
		c0-0.1,0-0.2,0.1-0.2l0.1-0.1c0-0.1,0-0.2,0.1-0.2c0-0.1,0.1-0.2,0.1-0.3c0-0.1,0-0.2,0.1-0.2c0-0.1,0-0.1,0-0.2c0,0,0-0.1,0-0.1
		c0,0,0.1,0,0.1,0c0,0,0-0.1,0-0.1c0.1-0.1,0-0.3,0.1-0.4c0.1-0.2,0-0.4,0.1-0.6c0,0,0-0.1,0-0.1c0-0.2,0-0.4,0-0.7
		c0.1-0.4,0.1-0.9,0.1-1.4c0-0.6,0-1.1-0.1-1.7c-0.1-0.5-0.2-1-0.5-1.4c0,0-0.1,0-0.1,0l0-0.2c0,0,0,0-0.1,0c0-0.1,0-0.1,0-0.2
		c0,0,0,0,0-0.1c-0.1-0.1-0.1-0.1-0.1-0.2c-0.1-0.1-0.1-0.1-0.1-0.2c-0.1,0-0.1-0.1-0.1-0.2c-0.1,0-0.1-0.1-0.1-0.2l0,0
		c0-0.1-0.1-0.1-0.1-0.1c-0.1-0.1,0-0.2-0.1-0.2l0,0c0,0-0.1-0.1-0.1-0.1c-0.1-0.1,0-0.2-0.1-0.2l0,0c0-0.1-0.1-0.1-0.1-0.1
		c0,0-0.1-0.1-0.1-0.1c-0.2-0.1-0.4-0.3-0.5-0.5L30.9,3l-0.4-0.3c0,0,0-0.1,0-0.1c-0.1-0.1-0.2-0.1-0.2-0.2c-0.1,0-0.2-0.1-0.2-0.1
		L30,2.2c-0.1,0-0.2,0-0.2-0.1c-0.1,0-0.2,0-0.2-0.1c-0.1,0-0.2,0-0.2-0.1c-0.1,0-0.2,0-0.2-0.1l-0.2,0c0,0,0-0.1-0.1-0.1
		c0,0,0,0,0,0c0,0-0.1,0-0.1,0c-0.1-0.1-0.2,0-0.2-0.1v0c-0.1,0-0.2,0-0.3-0.1c-0.1,0-0.2,0-0.3-0.1h0c-0.1-0.1-0.2,0-0.3-0.1v0
		l-0.4,0l0-0.1l-0.3,0c0,0,0,0,0-0.1c-0.1,0-0.2,0-0.3-0.1l-0.2,0c0,0,0-0.1,0-0.1l-0.1-0.1c-0.2,0.1-0.4,0-0.5-0.1l-0.1-0.1
		c0,0-0.1,0-0.1,0c0,0.1-0.1,0.1-0.1,0c-0.1,0-0.2,0-0.3-0.1l-1.1,0l-0.3,0h-0.3c-0.1,0.1-0.2,0.1-0.3,0.1c-0.1,0-0.3,0-0.4,0
		c-0.2,0-0.4,0.1-0.6,0.3c0,0-0.1,0-0.1,0c-0.1,0-0.2,0.1-0.3,0.2l0,0c-0.1,0.1-0.2,0-0.3,0.1c0,0,0,0-0.1,0c0,0,0,0,0,0
		C21,1,20.9,1,20.8,1C20.8,1.1,20.8,1.1,20.8,1z"/>
	<path class="st0" d="M41.5,19.4L41.5,19.4C41.5,19.4,41.5,19.4,41.5,19.4C41.5,19.4,41.5,19.4,41.5,19.4z"/>
	<polygon class="st0" points="36.9,4.1 36.9,4.1 36.9,4.1 	"/>
	<path class="st0" d="M46.9,0.8C46.9,0.8,46.9,0.8,46.9,0.8c-0.2,0.1-0.3,0-0.4,0.1c-0.1,0.1-0.2,0-0.3,0.1l0,0h0
		C46.1,1,46,1,46,1.1c-0.1,0.1-0.2,0-0.2,0.1c-0.1,0.1-0.2,0-0.2,0.1c-0.1,0.1-0.2,0-0.2,0.1h0c-0.1,0-0.2,0.1-0.2,0.2l-0.1,0
		c0,0-0.1,0-0.1,0c0,0,0,0.1,0,0.1c0,0-0.1,0-0.1,0c0,0.1-0.1,0.1-0.2,0.1c0,0,0,0.1,0,0.1c0,0-0.1,0-0.1,0c0,0.1-0.1,0.1-0.1,0.1
		c-0.2,0.3-0.5,0.5-0.8,0.8c-0.1,0.1-0.1,0.2-0.2,0.2c0,0.1-0.1,0.2-0.2,0.3c0,0.1,0,0.1-0.1,0.1c0,0.1-0.1,0.2-0.1,0.3
		c0,0-0.1,0-0.1,0c0,0.1,0,0.2-0.1,0.2l0,0.1l-0.1,0l0,0.2l-0.1,0c0,0.1,0,0.2-0.1,0.2c0,0.1,0,0.2-0.1,0.2c0,0.1,0,0.2-0.1,0.2
		c0,0.1,0,0.2-0.1,0.2c0,0.1,0,0.1,0,0.2c0,0-0.1,0-0.1,0c0,0.1,0,0.2-0.1,0.3l0,0.2c0,0-0.1,0-0.1,0.1c0,0,0,0,0,0.1c0,0,0,0,0,0
		c-0.1,0.1-0.1,0.2,0,0.2c0,0,0,0,0,0.1v0c0,0-0.1,0-0.1,0v0c-0.1,0.1,0,0.3-0.1,0.5c0,0,0,0.1,0,0.1c0,0,0,0,0,0
		c-0.1,0.1,0,0.2-0.1,0.3c-0.2,0.1-0.4,0-0.5,0.1c0,0-0.1,0-0.1,0.1l-0.2,0l-0.1,0.1c0,0.1-0.1,0.1-0.1,0l-0.1-0.1
		c-0.1,0-0.1-0.1-0.1-0.1C40,7.3,40,7.3,40,7.2c0,0,0,0,0,0c0,0,0-0.1-0.1-0.1l0-0.1c0,0-0.1-0.1-0.1-0.1c-0.1,0-0.1-0.1-0.1-0.2
		c0,0-0.1-0.1-0.1-0.1c-0.1,0-0.1-0.1-0.1-0.1c-0.1-0.1-0.2-0.2-0.2-0.3L39.1,6C39,6,39,5.9,39,5.9l-0.1-0.1c-0.1,0-0.1-0.1-0.1-0.1
		c-0.1-0.1-0.1-0.1-0.2-0.2c-0.1,0-0.1-0.1-0.1-0.1l-0.1,0c0,0,0-0.1,0-0.1l0,0c0,0-0.1-0.1-0.1-0.1v0L38.1,5
		c-0.1,0-0.2-0.1-0.3-0.3c0,0-0.1-0.1-0.1-0.1h0c0,0-0.1-0.1-0.1-0.1l0,0c0-0.1-0.2-0.1-0.2-0.1c0,0-0.1-0.1-0.1-0.1
		c0-0.1-0.2,0-0.2-0.1c0,0-0.1-0.1-0.1-0.1C36.9,4,36.8,4,36.7,4c-0.1-0.1-0.2,0-0.2-0.1c-0.1-0.1-0.2,0-0.2-0.1h0
		c0,0-0.1-0.1-0.2-0.1c0,0-0.1,0-0.1,0c-0.1-0.1-0.2,0-0.2-0.1c-0.1-0.1-0.2-0.1-0.2-0.1c-0.1-0.1-0.2,0-0.4-0.1c0,0-0.1,0-0.1,0
		c-0.1-0.1-0.2,0-0.3-0.1c-0.1-0.1-0.3,0-0.5-0.1c0,0-0.1,0-0.1,0c-0.5,0-0.9,0-1.4,0c-0.2,0,0,0.1,0,0.2h0c0,0.1,0.2,0.1,0.2,0.1h0
		c0.1,0.1,0.2,0,0.2,0.1c0,0,0.1,0.1,0.1,0.1c0,0,0.1,0.1,0.1,0.1l0,0c0.3,0.1,0.5,0.4,0.6,0.7c0.1,0,0.1,0.1,0.1,0.2
		c0,0,0.1,0,0.1,0c0,0.1,0,0.1,0,0.2c0.1,0.1,0.1,0.2,0.1,0.3c0.1,0.1,0.1,0.2,0.1,0.4c0,0.4,0,0.9,0,1.3c0,0,0,0,0,0.1c0,0,0,0,0,0
		c0.1,0.2,0,0.4,0.1,0.6c0,0,0,0,0,0.1c0,0.1,0,0.1,0.1,0.1c0,0.1,0,0.2,0,0.3C34.9,8,35,8.1,35,8.1c0.1,0.1,0.1,0.1,0.1,0.2
		c0.1,0.1,0.2,0.2,0.2,0.3c0.1,0,0.1,0.1,0.1,0.1c0.1,0,0.1,0.1,0.1,0.1L35.7,9l0.1,0.2c0.1,0,0.2,0,0.2,0.1c0.1,0,0.2,0,0.2,0.1
		c0.1,0,0.2,0,0.3,0.1c0.2,0,0.3,0,0.4,0.1l0.6,0l0,0c0.1,0,0.2,0,0.3,0.1l0,0l0,0c0.3,0,0.7,0,1,0c0.2,0,0.4,0,0.6,0.1
		c0.1,0.1,0.1,0.2,0.2,0.2c0,0,0,0,0,0.1c0,0,0,0,0,0c0.1,0.1,0.1,0.2,0.1,0.4c0.1,0.1,0.1,0.1,0.1,0.2c0.2,0.1,0.2,0.3,0.2,0.5
		c0.1,0.5,0,1,0,1.5l-0.1,0.2c0,0.2,0,0.4-0.1,0.5c0,0.1,0,0.2-0.1,0.3c0,0.1,0,0.2-0.1,0.3c0,0.1,0,0.2-0.1,0.2
		c0,0.1,0,0.2-0.1,0.3c0,0.1,0,0.2-0.1,0.2c0,0.1,0,0.2-0.1,0.2c0,0.1,0,0.2-0.1,0.2c0,0.1,0,0.1-0.1,0.1c0,0.1-0.1,0.2-0.1,0.2
		c0,0.1-0.1,0.3-0.2,0.3l-0.1,0.2c-0.1,0-0.1,0.1-0.2,0.1c0,0.1,0,0.1-0.1,0.1l0,0.2c0,0-0.1,0-0.1,0c0,0,0,0.1,0,0.1
		c0,0-0.1,0-0.1,0v0c0,0-0.1,0.1-0.1,0.1l0,0c0,0-0.1,0.1-0.1,0.1l0,0L38,17.2c0,0-0.1,0.1-0.1,0.1l0,0c0,0,0,0-0.1,0c0,0,0,0,0,0.1
		l0,0l0,0c0,0,0,0-0.1,0l0,0.1l0,0l-0.1,0c0,0,0,0.1,0,0.1l0,0l-0.1,0c0,0.1-0.1,0.1-0.1,0.1c-0.1,0.1-0.2,0.1-0.2,0.2
		c-0.1,0.1-0.2,0.2-0.3,0.2c0,0.1-0.1,0.1-0.1,0.1c0,0.1-0.1,0.1-0.1,0.1c0,0.1-0.1,0.1-0.2,0.1c0,0.1-0.1,0.1-0.1,0.1
		c0,0.1-0.1,0.1-0.2,0.1c0,0.1-0.1,0.1-0.1,0.1c0,0.1-0.1,0.1-0.2,0.1c0,0.1-0.1,0.1-0.1,0.1c-0.1,0.1-0.3,0.2-0.4,0.2
		c0,0.1-0.1,0.1-0.1,0.1c0,0.1-0.1,0.2,0.1,0.2c0.6,0,1.1,0,1.7,0l0.2,0.1h0c0.2,0.2,0.5,0,0.7,0.1l0,0l0,0c0.1,0.1,0.3,0,0.4,0.1
		c0.1,0.1,0.2,0,0.3,0.1c0,0,0,0,0,0l0,0c0.1,0.1,0.2,0,0.3,0.1l0,0c0.1,0.1,0.2,0.1,0.2,0.1l0,0l0,0h0c0,0.1,0.1,0.1,0.2,0.1
		c0,0,0,0,0,0l0,0c0.1,0.1,0.2,0,0.4,0.1h0c0.1-0.1,0.3,0,0.5-0.1h0c0.1,0,0.2,0,0.2-0.1l0,0h0c0.1-0.1,0.2-0.1,0.3-0.2l0,0
		c0,0,0.1-0.1,0.1-0.1c0,0,0.1-0.1,0.1-0.1c0,0,0.1-0.1,0.1-0.1c0,0,0.1-0.1,0.1-0.1c0,0,0.1-0.1,0.1-0.1c0,0,0.1-0.1,0.1-0.1l0,0
		c0,0,0.1-0.1,0.1-0.1c0,0,0,0,0,0l0,0v0c0.1,0,0.1-0.1,0.1-0.2c0,0,0.1-0.1,0.1-0.1c0,0,0,0,0,0l0,0v0c0.1,0,0.1-0.1,0.1-0.2l0,0
		c0.1-0.1,0.1-0.2,0.1-0.2v0c0.1-0.1,0.1-0.2,0.1-0.2v0c0.1-0.1,0.1-0.2,0.1-0.2c0,0,0,0,0,0l0,0c0.1-0.1,0-0.2,0.1-0.3
		c0-0.1,0-0.2,0.1-0.3c0-0.2,0-0.4,0.1-0.5c0-0.2,0-0.5,0.1-0.7c0-0.4,0-0.9,0.1-1.3c0-0.1,0-0.2,0-0.3c0-1,0-1.9,0-2.9
		c0-0.1,0-0.3,0-0.4c-0.1-0.6-0.1-1.2-0.1-1.8c0,0,0-0.1,0.1-0.1c0-0.1,0.1-0.2,0.2-0.2C43.1,9,43.2,9,43.3,9
		c0.1-0.1,0.2-0.1,0.3-0.1c0.1-0.1,0.2-0.1,0.3-0.1c0.1-0.1,0.2-0.1,0.3-0.1c0,0,0-0.1,0-0.1l0.3,0c0.1-0.1,0.1-0.1,0.2-0.1
		c0-0.1,0.1-0.1,0.2-0.1c0-0.1,0.1-0.1,0.2-0.1c0-0.1,0.1-0.1,0.2-0.1C45.4,8,45.5,8,45.6,8c0.1-0.1,0.2-0.2,0.3-0.2
		c0.1-0.1,0.2-0.1,0.2-0.2c0-0.1,0.1-0.2,0.2-0.3c0-0.1,0-0.1,0.1-0.1c0-0.1,0-0.2,0.1-0.2c0-0.1,0-0.2,0.1-0.3c0-0.5,0-1,0-1.5
		c-0.1-0.1-0.1-0.3-0.1-0.4c-0.1-0.1-0.1-0.3-0.1-0.4c-0.1-0.1-0.1-0.2-0.1-0.3c-0.1-0.1-0.1-0.2-0.1-0.3l-0.1-0.2
		c0-0.3,0-0.5,0.1-0.8c0-0.1,0-0.2,0.1-0.3c0-0.1,0-0.1,0-0.2l0.1,0c0-0.1,0-0.2,0.1-0.2v0c0.1-0.1,0.1-0.2,0.1-0.2
		c0,0,0.1-0.1,0.1-0.1l-0.1,0c0.1-0.1,0.1-0.2,0.2-0.3v0C47,1.1,47,1,47,1c0,0,0.1-0.1,0.1-0.1C47.2,0.7,47.1,0.7,46.9,0.8z"/>
	<path class="st0" d="M27.3,6.3c-0.1-0.1-0.2-0.1-0.2-0.1l0,0c-0.1-0.1-0.2,0-0.3-0.1C26.7,6,26.5,6,26.4,6c0,0,0,0-0.1,0
		c-0.2,0-0.5-0.2-0.6,0.1l0,0c0,0.1,0.2,0.1,0.2,0.1c0,0,0.1,0.1,0.1,0.1c0,0,0,0,0,0l0,0c0,0.1,0.1,0.1,0.2,0.1
		c0,0,0.1,0.1,0.1,0.1l0,0c0.1,0.1,0.2,0.1,0.3,0.2c0,0,0.1,0.1,0.1,0.1c0,0,0.1,0.1,0.1,0.1l0,0C26.9,7,27,7,27,7l0,0
		c0,0,0.1,0.1,0.1,0.1l0,0c0,0,0.1,0.1,0.1,0.1l0,0c0,0,0.1,0.1,0.1,0.1h0c0,0,0.1,0.1,0.1,0.1c0.1,0.1,0,0.2,0.1,0.2l0,0
		c0,0,0,0,0,0c0,0.1,0.1,0.1,0.1,0.1v0c0,0,0.1,0.1,0.1,0.1l0,0l0,0.1l0.1,0.1C28,8.2,28,8.3,28,8.4c0,0,0,0,0.1,0l0,0
		c0,0.1,0,0.2,0,0.3l0,0v0c0.1,0.1,0,0.2,0.1,0.3c0.1,0.2,0,0.5,0.1,0.7c0,0,0,0.1,0,0.1c0.1,0.1,0.1,0.3,0,0.5v0
		c-0.1,0.2,0,0.4-0.1,0.6c0,0,0,0,0,0.1c0,0-0.1,0-0.1,0c0,0,0,0.1,0,0.1c0,0.1,0,0.2-0.1,0.3c0,0.1,0,0.2-0.1,0.3
		c0,0.1,0,0.2-0.1,0.3c0,0.1,0,0.2-0.1,0.2c0,0.1,0,0.2-0.1,0.2l-0.1,0.1c0,0.1-0.1,0.2-0.1,0.2c0,0.2,0.1,0.2,0.2,0.2
		c0.1-0.1,0.1-0.1,0.2-0.1c0-0.1,0.1-0.1,0.2-0.1l0.1-0.1c0,0,0.1-0.1,0.1-0.1c0-0.1,0.1-0.1,0.1-0.1c0-0.1,0.1-0.1,0.1-0.1
		c0,0,0.1-0.1,0.1-0.1c0,0,0.1-0.1,0.1-0.1c0-0.1,0.1-0.2,0.1-0.2c0-0.1,0-0.2,0.1-0.2l0.1-0.1c0-0.1,0-0.1,0-0.2
		c0,0,0.1-0.1,0.1-0.1c0-0.1,0-0.2,0.1-0.2c0-0.1,0-0.2,0.1-0.3c0-0.5,0-0.9,0-1.4c-0.1-0.1-0.1-0.3-0.1-0.4
		c-0.1-0.1-0.1-0.3-0.1-0.4c-0.1-0.1-0.1-0.1-0.1-0.2c0,0,0,0,0,0C29,8.1,29,8,29,7.9c-0.1-0.1,0-0.2-0.1-0.2s0-0.2-0.1-0.2l0,0
		c0,0,0,0,0,0c0-0.1-0.1-0.1-0.1-0.1c-0.2-0.3-0.4-0.5-0.6-0.7h0c0,0-0.1-0.1-0.1-0.1h0c0,0-0.1-0.1-0.1-0.1c0,0,0,0,0,0l0,0
		c0-0.1-0.1-0.1-0.2-0.1h0C27.5,6.3,27.4,6.3,27.3,6.3z"/>
	<path class="st0" d="M5.2,22.3c-0.1-0.1-0.2-0.1-0.3,0c0,0,0,0,0,0c0,0-0.1,0.1-0.1,0.1c0,0-0.1,0.1-0.1,0.1c0,0,0,0,0,0.1
		c-0.1,0.1-0.1,0.2,0,0.3v0c0.1,0.1,0,0.2,0.1,0.2h0c0,0,0.1,0.1,0.1,0.1c0,0.1,0.1,0.1,0.1,0.1h0l0,0c0.1,0.1,0.2,0,0.4,0.1h0.2
		c0.1-0.1,0.2,0,0.3-0.1c0,0,0.1,0,0.1,0c0.1,0,0.1-0.1,0.1-0.1c0.1-0.1,0.2-0.2,0.3-0.3c0,0,0.1-0.1,0.1-0.1l0,0
		c0.1-0.1,0.1-0.2,0.1-0.2v0c0.1-0.1,0-0.2,0.1-0.3v0c0.1-0.1,0.1-0.3,0-0.4c-0.1-0.1,0-0.3-0.1-0.4h0c0-0.1,0-0.2-0.1-0.2
		c0,0,0,0,0,0c0,0-0.1,0-0.1,0V21c-0.1-0.1-0.2-0.2-0.3-0.3c0,0-0.1-0.1-0.1-0.1c-0.1,0-0.2-0.1-0.3-0.3c-0.1,0-0.1,0-0.1-0.1
		c-0.1-0.1-0.3,0-0.4,0.1c0,0.1-0.1,0.2-0.1,0.2l-0.1,0.1c0,0.1-0.1,0.2-0.1,0.2c-0.1,0.3-0.1,0.3,0.1,0.3c0.1,0,0.2,0,0.3,0.1
		l0.2,0c0,0,0,0,0,0c0,0,0,0.1,0,0.1c0,0,0.1,0.1,0.1,0.1v0c0.1,0.1,0.2,0.1,0.2,0.2h0c0,0,0.1,0.1,0.1,0.1c0.1,0.1,0,0.2,0.1,0.3
		c0,0.1,0,0.1,0,0.2c-0.1,0.1-0.1,0.2-0.1,0.2v0c-0.1,0.1-0.1,0.2-0.2,0.2l0,0c0,0-0.1,0.1-0.1,0.1c0,0-0.1,0-0.1,0
		c-0.1,0.1-0.2,0.1-0.3,0c0,0-0.1,0-0.1,0l-0.1-0.1c-0.1-0.1-0.1-0.2,0-0.3C5.3,22.5,5.3,22.4,5.2,22.3z"/>
	<polygon class="st0" points="4.9,23.2 4.9,23.2 4.9,23.2 	"/>
	<path class="st0" d="M28.9,29.3C28.9,29.3,28.9,29.3,28.9,29.3L28.9,29.3C28.9,29.3,28.9,29.3,28.9,29.3z"/>
	<polygon class="st0" points="4.2,16.2 4.2,16.2 4.2,16.2 	"/>
	<path class="st0" d="M10.1,29.6C10.1,29.6,10.1,29.6,10.1,29.6C10.1,29.6,10.1,29.6,10.1,29.6L10.1,29.6z"/>
	<path class="st0" d="M46.9,31.7C46.9,31.7,46.9,31.7,46.9,31.7C46.9,31.7,46.9,31.6,46.9,31.7l-0.1-0.2c0-0.3,0-0.5,0-0.8h0
		c-0.1-0.2,0-0.5-0.1-0.7l0,0c-0.1-0.1,0-0.3-0.1-0.5c0,0,0,0,0-0.1c0,0,0,0,0,0c0,0,0-0.1-0.1-0.1c0,0,0,0,0,0c0-0.1,0-0.2,0-0.3
		c-0.1-0.1-0.1-0.3-0.1-0.4c-0.1-0.1-0.1-0.2-0.1-0.3c-0.1-0.1-0.1-0.2-0.1-0.3l-0.1,0l0-0.3c-0.1-0.1-0.1-0.1-0.1-0.2
		c-0.1-0.1-0.1-0.1-0.1-0.2c-0.1-0.1-0.1-0.1-0.1-0.2c-0.1-0.1-0.2-0.3-0.2-0.4c-0.1,0-0.1-0.1-0.1-0.2c-0.1,0-0.1-0.1-0.1-0.2
		c-0.1,0-0.1-0.1-0.1-0.2c-0.1,0-0.1-0.1-0.1-0.1c-0.1,0-0.1-0.1-0.1-0.2c-0.1,0-0.1-0.1-0.1-0.1c-0.1,0-0.1-0.1-0.1-0.2
		c-0.1,0-0.1-0.1-0.1-0.1c-0.1,0-0.1-0.1-0.1-0.1c-0.1,0-0.1-0.1-0.1-0.2c-0.1,0-0.1-0.1-0.1-0.1c-0.1-0.1-0.1-0.2-0.2-0.2
		c-0.1,0-0.1-0.1-0.1-0.1l-0.2-0.1c-0.3-0.3-0.5-0.6-0.8-0.8c-0.1,0-0.1,0-0.1-0.1c-0.1,0-0.1,0-0.1-0.1c-0.1,0-0.2-0.1-0.3-0.2
		c-0.1,0-0.1,0-0.1-0.1c-0.1,0-0.2-0.1-0.3-0.2c-0.1,0-0.1,0-0.1-0.1c-0.1,0-0.2-0.1-0.2-0.1c-0.1,0-0.3-0.1-0.3-0.2
		c-0.1,0-0.2,0-0.2-0.1l-0.2,0l-0.2-0.2c-0.1,0-0.2,0-0.2-0.1l-0.2,0c0,0,0-0.1,0-0.1c-0.1,0-0.2,0-0.2-0.1c-0.1,0-0.2-0.1-0.3-0.1
		l-0.2,0c0,0,0-0.1-0.1-0.1h0c-0.1-0.1-0.2,0-0.3-0.1c-0.1-0.1-0.2-0.1-0.2-0.1c0,0,0,0,0,0l0,0c-0.1-0.1-0.2,0-0.3-0.1h0
		c-0.1-0.1-0.2,0-0.3-0.1l0,0c-0.1-0.1-0.3,0-0.4-0.1c-0.1-0.1-0.3,0-0.4-0.1c0,0,0,0-0.1,0c0,0,0,0,0,0c-0.1-0.1-0.3,0-0.5-0.1h0
		c-0.2-0.1-0.4,0-0.6-0.1c0,0-0.1,0-0.1,0c0,0,0,0,0,0c-0.2-0.1-0.5,0-0.7-0.1c-0.2,0-0.5,0-0.7-0.1c0,0-0.1,0-0.1,0l-0.7,0
		c0,0,0-0.1-0.1-0.1c0,0-0.1,0-0.1,0c-0.3,0-0.6,0-0.9,0c0,0,0-0.1,0-0.1l-1,0c0,0,0-0.1,0-0.1l-0.3,0c-0.4,0-0.8,0-1.2,0l-0.1-0.1
		l-0.3,0l-0.4,0l-0.9,0v0c0,0,0-0.1,0-0.1c0,0-0.1,0-0.1,0c-0.1-0.1-0.3-0.2-0.5-0.2c-0.3,0.1-0.5,0.1-0.8,0.1c-0.7,0-1.3-0.1-2,0
		c0,0-0.1,0.1-0.1,0.1l-0.6,0c-0.3-0.1-0.5-0.1-0.8-0.1c-0.5,0-1.1,0-1.6,0c0,0,0,0,0-0.1c-0.2,0-0.3,0-0.4-0.1
		c-0.2-0.1-0.4,0-0.5-0.1c-0.1-0.1-0.2-0.1-0.3-0.1c0,0-0.1,0-0.1,0c0,0,0,0,0,0c0,0-0.1-0.1-0.1-0.1v0c-0.3-0.1-0.5-0.2-0.7-0.4
		c0,0-0.1-0.1-0.1-0.1c0,0,0,0,0,0l0,0h0c0-0.1-0.1-0.1-0.2-0.1l0,0c-0.1-0.1-0.2-0.2-0.3-0.2c0,0,0,0,0-0.1c0,0-0.1,0-0.1,0
		c0,0,0-0.1,0-0.1l-0.1-0.1L19,18l-0.3-0.1c0,0-0.1-0.1-0.1-0.1c0,0-0.1-0.1-0.1-0.1l-0.1-0.1c0-0.1,0-0.1-0.1-0.2l-0.1-0.1
		l-0.1-0.1L18.1,17L18,16.8c-0.1,0-0.1-0.1-0.1-0.2l-0.1-0.1c0,0-0.1,0-0.1,0c0-0.1,0-0.1,0-0.2l-0.1-0.1c-0.1,0-0.1-0.1-0.1-0.2
		l-0.1-0.1c-0.1,0-0.1-0.1-0.1-0.2c0,0-0.1,0-0.1,0c0,0,0-0.1,0-0.1c-0.1,0-0.1-0.1-0.1-0.2l-0.1,0c0-0.1,0-0.1,0-0.2L16.7,15
		c-0.1,0-0.1-0.1-0.1-0.2l-0.1-0.1c-0.1,0-0.1-0.1-0.1-0.2c0,0-0.1,0-0.1,0c0,0,0-0.1,0-0.1l-0.1-0.1c-0.1-0.1-0.2-0.2-0.2-0.3
		c0,0-0.1-0.1-0.1-0.1c-0.1,0-0.2-0.1-0.3-0.2l-0.1-0.1l-0.1-0.1l-0.2,0c0,0,0-0.1,0-0.1h0c-0.1-0.1-0.2-0.1-0.2-0.1
		c0,0-0.1,0-0.1,0c0,0-0.1,0-0.1,0c0,0,0,0,0,0l-0.1,0v0c0,0,0-0.1-0.1-0.1h0c-0.1-0.1-0.2,0-0.3-0.1c-0.1-0.1-0.2,0-0.2-0.1
		c-0.1-0.1-0.2-0.1-0.2-0.1c-0.1,0-0.1-0.1-0.2-0.1c0,0,0,0,0,0c0,0,0-0.1,0-0.1c-0.1,0-0.3-0.1-0.3-0.2c-0.1,0-0.3-0.1-0.3-0.2
		L12.6,12l-0.1-0.1c-0.1,0-0.2-0.1-0.2-0.1c-0.1,0-0.1-0.1-0.1-0.1c0,0,0.1,0,0.1,0c0-0.1,0-0.2,0.1-0.2l0-0.2c0,0,0.1,0,0.1,0
		c0-0.1,0-0.1,0-0.2h0c0,0,0.1,0,0.1-0.1c0,0,0-0.1,0-0.1c0.1-0.1,0-0.3,0.1-0.4c0,0,0-0.1,0-0.1c0.1-0.2,0-0.4,0.1-0.7
		c0,0-0.1-0.1-0.1-0.1l0.1,0c0.1,0,0.1-0.1,0.1-0.1c0,0,0-0.1,0-0.1c0.1-0.2,0-0.3,0.1-0.5c0,0,0,0,0-0.1l0,0c0,0,0-0.1,0-0.1
		c0.1-0.1,0.1-0.3,0-0.4c0,0,0,0,0,0c0,0,0,0,0.1,0c0-0.3,0.1-0.6,0.3-0.8c0.1-0.2-0.1-0.2-0.2-0.2c-0.1,0.1-0.2,0.1-0.3,0.1
		c-0.1,0.1-0.2,0.1-0.3,0.1c0,0-0.1,0-0.1,0c-0.2,0.1-0.4,0.1-0.5,0.1c-0.1,0.1-0.3,0.1-0.4,0.1c-0.1,0.1-0.2,0.1-0.3,0.1
		c0,0.1-0.1,0.1-0.2,0.1l-0.2,0.3l-0.2,0.1l-0.1,0.1l0,0.2l-0.1,0.1c0,0.1,0,0.2-0.1,0.2c0,0.1,0,0.2-0.1,0.3c0,0.1,0,0.2-0.1,0.2
		c0,0,0,0,0,0.1c0,0-0.1,0-0.1,0c-0.3,0-0.6-0.1-0.9,0c0,0-0.1,0-0.1,0c-0.1,0.1-0.2,0-0.2,0.1c-0.1-0.1-0.2-0.1-0.3,0
		c0,0-0.1,0-0.1,0C8,10,7.9,9.9,7.7,10c-0.1,0.1-0.2,0-0.3,0.1c-0.2,0-0.3,0.1-0.4,0.2c-0.1,0.1-0.2,0-0.2,0.1h0
		c-0.1,0-0.1,0.1-0.1,0.1v0c-0.1,0-0.1,0.1-0.1,0.2c0,0,0,0-0.1,0c0,0.1,0,0.2-0.1,0.2c0,0.1,0,0.2-0.1,0.3c0,0.1,0,0.2-0.1,0.3
		c0,0.1,0,0.2,0,0.3c0,0-0.1,0-0.1,0c0,0.1,0,0.2-0.1,0.3c0,0.1,0,0.2-0.1,0.3c0,0.1,0,0.2-0.1,0.2c0,0.1,0,0.1,0,0.2l-0.1,0.1
		c0,0.1,0,0.1,0,0.2c0,0-0.1,0-0.1,0c0,0,0,0.1,0,0.1c0,0,0,0.1,0,0.1v0c0,0-0.1,0-0.1,0c0,0,0,0,0,0c0,0,0,0.1,0,0.1
		c-0.1,0.1,0,0.2-0.1,0.2c-0.1,0.1-0.1,0.2-0.1,0.2c0,0,0,0.1,0,0.1c-0.1,0.1,0,0.2-0.1,0.2C5,14.6,5,14.7,5,14.8
		c-0.1,0.1-0.1,0.2-0.1,0.2v0c-0.1,0.1-0.1,0.2-0.1,0.2v0c-0.1,0.1-0.1,0.2-0.1,0.2v0c-0.1,0.1-0.1,0.2-0.1,0.2v0
		c-0.1,0.1-0.1,0.2-0.1,0.2c-0.1,0.1,0,0.2-0.1,0.2l0,0c0,0-0.1,0.1-0.1,0.1c-0.1,0.1-0.1,0.2-0.1,0.2c0,0-0.1,0.1-0.1,0.1l0,0
		c-0.1,0,0,0.2-0.1,0.2l0,0c0,0,0,0.1,0,0.1c0,0,0,0-0.1,0L3.6,17c0,0.1-0.1,0.2-0.1,0.2c0,0,0,0.1,0,0.1l-0.1,0c0,0,0,0.1,0,0.1
		l-0.1,0c0,0,0,0.1,0,0.1c0,0,0,0,0,0.1c0,0-0.1,0-0.1,0l-0.1,0.1c0,0-0.1,0.1-0.1,0.1C3,18,2.9,18,2.8,18.1c0,0-0.1,0.1-0.1,0.1
		s-0.1,0.1-0.1,0.1c0,0.1,0,0.1,0,0.2c-0.2,0.1-0.2,0.2-0.2,0.4c0,0.2-0.1,0.3-0.3,0.4c-0.1,0.5,0,1,0.3,1.4
		c0.2,0.3,0.4,0.5,0.6,0.7c0,0,0,0.1,0,0.1c0.1,0,0.2,0,0.3,0.1c0.1,0,0.2,0,0.2,0.1H4c0.1-0.1,0.1-0.1,0.2-0.1c0,0,0.1-0.1,0.1-0.1
		l0.1-0.1c0-0.1,0-0.1,0-0.2c0,0,0.1,0,0.1,0c0-0.1,0-0.1,0-0.2l0.2-0.4l0-0.2c0,0,0.1,0,0.1,0c0-0.1,0-0.2,0.1-0.2c0,0,0-0.1,0-0.1
		c0,0,0.1,0,0.1,0c0-0.1,0.1-0.3,0.2-0.4c0.1-0.1,0.2-0.2,0.2-0.3c0.1,0,0.1,0,0.2,0l0,0c0,0,0.1-0.1,0.1-0.1l0,0
		c0,0,0.1-0.1,0.1-0.1c0.1-0.1,0.2,0,0.2-0.1h0c0.1-0.1,0.2,0,0.2-0.1l0,0c0,0,0.1-0.1,0.1-0.1c0,0,0.1,0,0.1,0
		c0.1,0,0.1-0.1,0.1-0.1c0,0,0.1,0,0.1,0c0.1,0,0.2,0,0.2-0.1c0,0,0-0.1,0-0.1c0.1,0,0.1,0,0.2,0l0,0h0c0,0,0.1,0,0.1-0.1l0.2,0
		c0.1-0.1,0.2-0.1,0.3-0.1c0.1-0.1,0.1-0.1,0.2-0.1c0.1-0.1,0.1-0.1,0.2-0.1C8.5,18,8.6,18,8.7,18c0-0.1,0.1-0.1,0.2-0.1
		c0-0.1,0.1-0.1,0.2-0.1c0,0,0-0.1,0-0.1l0.2,0c0-0.1,0.1-0.1,0.2-0.1c0-0.1,0.1-0.1,0.2-0.1c0,0,0-0.1,0-0.1h0.1c0,0,0-0.1,0-0.1
		l0.2,0l0.1-0.1c0-0.1,0.1-0.1,0.2-0.1c0,0,0-0.1,0-0.1l0.2,0c0,0,0-0.1,0-0.1l0,0h0.1h0.1c0,0,0.1-0.1,0.1-0.1
		c0-0.1,0.1-0.1,0.2-0.1c0,0,0.1-0.1,0.1-0.1l0.1-0.1l0.1-0.1c0-0.1,0-0.1,0-0.2l0.2-0.1c0-0.1,0-0.2,0.1-0.2c0-0.1,0-0.2,0.1-0.3
		c0-0.2,0-0.5,0-0.7c0-0.3-0.1-0.6-0.3-0.8l0,0l-0.1-0.1l0.1-0.1c0,0,0,0,0,0c0.2,0.1,0.3,0.4,0.6,0.6c0.1,0.1,0,0.3,0.1,0.4v0
		c0.1,0.2,0.1,0.5,0,0.7c0,0,0,0.1,0,0.1c-0.1,0.1,0,0.2-0.1,0.3c-0.1,0.1-0.1,0.2-0.1,0.2v0c-0.1,0.1-0.1,0.2-0.1,0.2
		c-0.2,0.3-0.4,0.5-0.7,0.7l0,0c0,0-0.1,0.1-0.1,0.1c-0.1,0.1-0.2,0-0.2,0.1l0,0c0,0-0.1,0.1-0.1,0.1c0,0,0,0.1,0,0.1l-0.3,0.1
		c0,0,0,0,0,0.1l-0.1,0c0,0,0,0.1,0,0.1l0.1-0.1c0,0,0,0,0,0c0,0-0.1,0.1-0.1,0.1v0c0,0-0.1,0-0.1,0c0,0-0.1,0.1-0.1,0.1
		c0,0-0.1,0.1-0.1,0.1c0,0-0.1,0.1-0.1,0.1h0c0,0.2,0,0.4,0,0.6c0,0,0.1,0.1,0.1,0.1l0.1,0h0.1c0,0.1,0.1,0.2,0.1,0.3
		c0.1,0,0.1,0.1,0.1,0.2c0.1,0,0.1,0.1,0.1,0.2c0.1,0.1,0.1,0.1,0.1,0.2c0.1,0.1,0.1,0.1,0.1,0.2c0.1,0.1,0.1,0.2,0.1,0.3
		c0.1,0.1,0.1,0.3,0.1,0.4c0.1,0.2,0.1,0.4,0.2,0.6c0,0,0,0,0,0.1c0,0,0,0,0,0c0,0.4,0,0.8,0,1.2c0,0,0,0.1,0,0.1
		C11,22.9,11,23,11,23.2c-0.1,0-0.1,0.1-0.2,0.2c0,0.1,0,0.2,0,0.3c0,0,0,0.1,0,0.1c0,0,0,0,0,0c0,0-0.1,0-0.1,0
		c0,0-0.1,0.1-0.1,0.2c0,0,0,0.1,0,0.1c0,0.1,0,0.1-0.1,0.2c0,0,0,0.1,0,0.1l-0.1,0.2c0,0,0,0.1,0,0.1c0,0.1-0.1,0.2-0.1,0.3
		c0,0,0,0.1,0,0.1c0,0.1,0,0.2-0.1,0.2c0,0,0,0.1,0,0.1c0,0.1,0,0.1-0.1,0.2c0,0,0,0.1,0,0.1c0,0.1,0,0.1-0.1,0.2c0,0,0,0.1,0,0.1
		c0,0.1-0.1,0.1-0.1,0.2c0,0,0,0.1-0.1,0.1c0,0.1-0.1,0.1-0.1,0.2c0,0,0,0.1,0,0.1c0,0.1,0,0.1-0.1,0.2c0,0,0,0.1,0,0.1
		c0,0.1,0,0.2-0.1,0.2c0,0,0,0.1,0,0.1c0,0.1,0,0.2-0.1,0.3c0,0,0,0.1,0,0.1c0,0.1-0.1,0.2-0.1,0.3c0,0,0,0.1,0,0.1
		c0,0.2,0,0.4-0.1,0.5c0,0.1,0,0.1,0,0.2c0.1,0.2,0,0.5,0.1,0.8c0,0,0,0.1,0,0.1c0,0,0,0.1,0.1,0.1c0,0,0,0,0,0
		c-0.1,0.1-0.1,0.3,0,0.4v0c0.1,0.1,0,0.2,0.1,0.2c0,0,0,0,0,0.1c0,0.1,0.1,0.1,0.1,0.1v0c0,0,0.1,0,0.1,0c0,0,0,0,0,0
		c0,0,0.1-0.1,0.1-0.1c0,0,0.1-0.1,0.1-0.1l0,0c0.1-0.1,0.1-0.2,0.2-0.3c0,0,0.1-0.1,0.1-0.1v0c0,0,0,0,0,0s0,0,0,0c0,0,0.1,0,0.1,0
		c0.1,0,0.1-0.1,0.1-0.2c0,0,0.1-0.1,0.1-0.1l0,0c0.1-0.1,0.1-0.2,0.2-0.3l0.1,0l0.1-0.1c0-0.1,0.1-0.2,0.1-0.2c0,0,0.1-0.1,0.1-0.1
		c0-0.1,0.1-0.2,0.1-0.2c0,0,0.1-0.1,0.1-0.1c0,0,0.1-0.1,0.1-0.1l0,0c0.1,0,0.1-0.2,0.1-0.2c0,0,0.1-0.1,0.1-0.1
		c0.1-0.1,0.1-0.2,0.1-0.2c0,0,0.1-0.1,0.1-0.1c0.1,0,0.1-0.1,0.1-0.2c0,0,0.1-0.1,0.1-0.1l0,0c0.1,0,0.1-0.1,0.1-0.2l0,0
		c0,0,0.1,0,0.1,0c0,0,0-0.1,0-0.1c0,0,0,0,0-0.1l0.1,0c0,0,0-0.1,0-0.1l0.2-0.2c0.1-0.1,0.2-0.3,0.2-0.4c0-0.1,0-0.1,0.1-0.1
		c0-0.1,0-0.2,0.1-0.2c0-0.1,0-0.1,0-0.2c0.2-0.1,0.1-0.4,0.4-0.4c0,0.3-0.1,0.6-0.3,0.9c0,0.1,0,0.2-0.1,0.3c0,0.1,0,0.2-0.1,0.3
		c0,0.1,0,0.2-0.1,0.2c0,0.1,0,0.2-0.1,0.3c0,0.1,0,0.2-0.1,0.2c0,0.1,0,0.2-0.1,0.2c0,0.1,0,0.1-0.1,0.1c0,0.1-0.1,0.2-0.1,0.2V28
		l-0.1,0c0,0.1-0.1,0.2-0.1,0.2c0,0.1,0,0.1-0.1,0.1c0,0.1,0,0.1-0.1,0.1c0,0.1-0.1,0.2-0.2,0.3l-0.1,0.1L11.2,29l-0.1,0.1
		c0,0.1,0,0.1-0.1,0.2l-0.1,0c-0.1,0.1-0.1,0.2-0.2,0.2c0,0.1,0,0.1-0.1,0.1l-0.1,0.1c0,0.1-0.1,0.2-0.3,0.3c0,0.1,0,0.1-0.1,0.1
		l-0.1,0.1c0,0-0.1,0.1-0.1,0.1c0,0.1-0.1,0.2-0.2,0.3l-0.1,0.1c0,0.1,0,0.1-0.1,0.1c0,0,0,0.1,0,0.1c0,0-0.1,0-0.1,0l-0.1,0.1
		c-0.1,0.2-0.2,0.3-0.4,0.4c0,0-0.1,0.1-0.1,0.1l-0.1,0.1c0,0.1-0.1,0.3-0.2,0.3c0,0.1-0.1,0.1-0.1,0.1c0,0,0,0.1,0,0.1
		c0,0-0.1,0-0.1,0c0,0.1,0,0.1-0.1,0.1c0,0.1-0.1,0.2-0.2,0.3c0,0.1,0,0.1-0.1,0.1c0,0.1,0,0.1-0.1,0.1c0,0-0.1,0.1-0.1,0.1
		c0,0.1-0.1,0.2-0.1,0.2c0,0.1,0,0.1-0.1,0.1l-0.1,0.2c-0.1,0-0.1,0.1-0.2,0.1c0,0.1,0,0.1-0.1,0.1c0,0,0,0.1,0,0.1c0,0-0.1,0-0.1,0
		c0,0,0,0.1,0,0.1l0,0v0c0,0-0.1,0-0.1,0l0,0c-0.1,0.1-0.2,0.2-0.2,0.3c0,0-0.1,0.1-0.1,0.1l0,0c-0.1,0-0.1,0.2-0.1,0.2
		c-0.1,0.1,0,0.2-0.1,0.2c-0.1,0.7-0.1,1.4,0,2.1c0,0,0,0,0,0.1c0,0,0,0,0,0c0.1,0.1,0,0.3,0.1,0.4v0c0.1,0.1,0,0.2,0.1,0.2
		c0,0,0.1,0,0.1,0c0,0.1,0,0.1,0.1,0.1C6.8,38,6.9,38,7,38c0,0,0,0.1,0.1,0.1l0.2,0c0.1,0.1,0.2,0,0.3,0.1c0.1,0.1,0.2,0,0.2,0.1h0
		c0.1,0.1,0.2,0.1,0.2,0.1h0c0.1,0.1,0.1,0.1,0.2,0.1l0,0c0.1,0,0.2,0,0.2,0.1c0.1,0,0.2,0,0.2,0.1l0.1,0.1c0.1,0,0.2,0.1,0.2,0.1
		c0.1,0,0.2,0,0.2,0.1c0.1,0,0.2,0,0.2,0.1l0.1,0.1l0.1,0l0,0c0,0,0.1,0.1,0.1,0.1l0,0c0.2,0.1,0.4,0.1,0.5,0.2h0
		c0.1,0.1,0.2,0.1,0.2,0.1c0,0,0,0,0,0l0,0c0.1,0.1,0.2,0.1,0.3,0c0,0,0,0.1,0,0.1c0.1,0.1,0.2,0.1,0.3,0.1h0l0,0
		c0.1,0.1,0.2,0,0.2,0.1c0.1,0.1,0.2,0.1,0.2,0.1l0,0c0.1,0.1,0.2,0,0.3,0.1h0c0.1,0.1,0.2,0.1,0.2,0.1h0l0,0c0.1,0.1,0.2,0,0.3,0.1
		c0.1,0.1,0.2,0,0.2,0.1c0.1,0.1,0.2,0.1,0.2,0.1l0,0c0.1,0.1,0.2,0.1,0.3,0.1h0l0,0c0.1,0.1,0.2,0,0.2,0.1h0
		c0.1,0.1,0.2,0.1,0.2,0.1c0.1,0.1,0.2,0.1,0.2,0.1h0c0.1,0.1,0.2,0.1,0.2,0.1l0,0l0,0c0.1,0.1,0.1,0.1,0.2,0.1l0,0l0,0
		c0,0.1,0.2,0.1,0.2,0.1h0l0,0c0.1,0.1,0.2,0.1,0.2,0.1l0,0c0.1,0.1,0.1,0.1,0.2,0.1c0,0,0,0,0,0.1h0c0,0,0,0,0,0c0,0,0.1,0,0.1,0.1
		h0c0,0,0.1,0.1,0.1,0.1l0,0c0,0,0.1,0.1,0.1,0.1v0h0l0.1,0c0,0,0,0,0,0c0,0,0,0,0,0.1l0,0c0,0,0.1,0.1,0.1,0.1l0,0
		c0,0.1,0.1,0.1,0.1,0.1l0,0c0,0.1,0.1,0.1,0.1,0.1v0c0.1,0.1,0.2,0.2,0.3,0.3l0.1,0c0,0,0.1,0.1,0.1,0.1c0,0,0.1,0.1,0.1,0.1
		c0.1,0,0.1,0.1,0.2,0.1c0,0,0.1,0,0.1,0.1c0.1,0,0.1,0.1,0.2,0.1c0.1,0,0.1,0,0.2,0c0.5,0,1-0.1,1.5-0.1l0,0l0,0c0,0,0,0,0-0.1h0.1
		c0.2,0,0.5,0.1,0.7-0.1l0,0l0,0c0.1-0.1,0.3,0,0.5-0.1l0,0l0,0c0.1-0.1,0.3,0,0.4-0.1h0c0.1-0.1,0.2,0,0.3-0.1
		c0.1-0.1,0.2,0,0.3-0.1l0,0c0.1,0,0.2,0,0.2-0.1l0,0c0.1,0,0.1-0.1,0.1-0.1c0.1-0.1,0.2,0,0.2-0.1l0,0c0,0,0.1-0.1,0.1-0.1h0
		c0,0,0.1-0.1,0.1-0.1c0.1-0.3,0.1-0.6,0-0.9c0,0,0,0,0-0.1c-0.1-0.1,0-0.3-0.1-0.4c0,0,0,0,0,0c0-0.1,0-0.2-0.1-0.3l0,0l0,0
		c0-0.1,0-0.2-0.1-0.2c-0.1-0.1-0.2-0.1-0.3,0c0,0,0,0,0,0h0c-0.1,0.1-0.2,0-0.2,0.1c-0.5,0.1-0.3-0.1-0.2-0.3v0
		c0.1-0.1,0.1-0.2,0.1-0.2c0,0,0,0,0,0l0,0c0.1-0.1,0-0.2,0.1-0.3c0.1-0.1,0.1-0.2,0.1-0.2v0c0.1-0.1,0.1-0.2-0.1-0.2l0,0
		c-0.1,0.1-0.2,0-0.3,0.1c0,0,0,0-0.1,0c0,0,0,0,0,0c-0.1,0-0.2,0-0.3,0.1l0,0c-0.1,0-0.2,0-0.2,0.1l0,0c0,0-0.1,0.1-0.1,0.1
		c-0.1,0.1-0.2,0-0.2,0.1l0,0c0,0,0,0,0,0c-0.1,0-0.1,0.1-0.1,0.1l0,0c-0.1,0-0.1,0.1-0.1,0.1l0,0c0,0-0.1,0.1-0.1,0.1l0,0
		c0,0-0.1,0.1-0.1,0.1l0,0c0,0-0.1,0.1-0.1,0.1l0,0c-0.1,0.1-0.2,0.2-0.2,0.3c0,0-0.1,0.1-0.1,0.1c0,0-0.1,0.1-0.1,0.1l0,0
		c-0.1,0-0.1,0.1-0.1,0.1c0,0,0,0,0,0c-0.2,0-0.2,0.2-0.3,0.3c0,0-0.1,0.1-0.1,0.1c0,0-0.1,0.1-0.1,0.1c0,0.1-0.2,0-0.2,0.1l0,0
		c0,0,0,0,0,0c0,0-0.1,0.1-0.1,0.1c0,0-0.1,0-0.1,0c0,0-0.1,0.1-0.1,0h0c0,0-0.1-0.1-0.1-0.1c0,0,0,0,0-0.1c-0.1-0.3,0-0.6-0.1-0.8
		c-0.1-0.1,0-0.2-0.1-0.3c-0.2-0.1-0.4-0.1-0.5,0h0c-0.1,0.1-0.2,0-0.2,0.1c0,0,0,0,0,0c0,0,0,0,0,0c-0.1,0-0.1,0-0.2,0.1l0,0
		c0,0-0.1,0.1-0.1,0.1c-0.1,0.1-0.2,0-0.2,0.1l0,0c0,0-0.1,0.1-0.1,0.1c-0.1,0.1-0.2,0.1-0.3,0h0c-0.1-0.1-0.2-0.2-0.3-0.3l0,0
		c0-0.1-0.1-0.1-0.1-0.1l0,0c0,0-0.1-0.1-0.1-0.1c0,0-0.1-0.1-0.1-0.1c0,0-0.1-0.1-0.1-0.1c-0.1-0.1-0.1-0.2-0.2-0.3l0,0
		c0-0.1-0.1-0.1-0.1-0.1c0,0-0.1-0.1-0.1-0.1c0-0.1-0.1-0.1-0.1-0.1l0,0c0,0-0.1-0.1-0.1-0.1c0,0-0.1-0.1-0.1-0.1l0,0
		c0,0-0.1-0.1-0.1-0.1l0,0c0,0-0.1-0.1-0.1-0.1v0c0,0-0.1-0.1-0.1-0.1l0,0c0,0-0.1-0.1-0.1-0.1l0,0c0,0-0.1,0-0.1,0c0,0,0,0,0-0.1
		c-0.1,0-0.1,0-0.1-0.1l-0.3-0.2c0-0.1-0.1-0.1-0.1-0.1h0c0,0,0-0.1,0-0.1c0,0-0.1-0.1-0.1-0.1l0,0c0-0.1-0.2-0.1-0.2-0.1
		c0,0-0.1-0.1-0.1-0.1l0,0c0-0.1-0.2-0.1-0.2-0.1l0,0c-0.1-0.1-0.2-0.1-0.2-0.1c-0.1-0.1-0.2,0-0.2-0.1c-0.1-0.1-0.2,0-0.2-0.1
		c0,0-0.1,0-0.1,0c0,0,0,0,0,0c-0.1,0-0.2,0-0.2-0.1c-0.1,0-0.1,0-0.2,0c0,0,0-0.1,0-0.1c0,0-0.1,0-0.1,0L11,36.9
		c-0.1,0-0.2,0-0.2-0.1c-0.1,0-0.1,0-0.1-0.1c-0.1,0-0.2,0-0.2-0.1l-0.2,0c0,0,0-0.1,0-0.1l-0.1-0.1l-0.1,0c0,0,0-0.1-0.1-0.1h0
		c0-0.1-0.2-0.1-0.2-0.1c0,0-0.1-0.1-0.1-0.1l0,0c-0.2-0.1-0.3-0.3-0.4-0.4c0-0.1,0-0.3,0.1-0.4c0-0.1,0-0.1,0.1-0.1
		c0.1-0.2,0.3-0.4,0.5-0.6l0.1-0.1l0.1-0.1c0-0.1,0.1-0.1,0.1-0.1c0-0.1,0.1-0.1,0.1-0.1c0-0.1,0.1-0.1,0.1-0.1
		c0.1-0.1,0.2-0.2,0.3-0.2c0-0.1,0.1-0.1,0.1-0.1l0.2-0.2h0.1h0.1c0-0.1,0.1-0.1,0.1-0.1c0-0.1,0.1-0.1,0.2-0.1l0.1-0.1
		c0.1-0.1,0.2-0.2,0.3-0.2l0.1-0.1c0-0.1,0.1-0.1,0.2-0.1l0.1-0.1c0-0.1,0.1-0.1,0.2-0.1c0-0.1,0.1-0.1,0.1-0.1
		c0-0.1,0.1-0.1,0.2-0.1l0.1-0.1c0-0.1,0.1-0.1,0.2-0.1c0,0,0.1-0.1,0.1-0.1c0-0.1,0.1-0.1,0.2-0.1l0.1-0.1c0-0.1,0.1-0.1,0.2-0.1
		c0-0.1,0.1-0.1,0.2-0.1l0.1-0.1c0-0.1,0.1-0.1,0.2-0.1c0.1-0.1,0.1-0.1,0.2-0.1c0.1-0.1,0.2-0.2,0.3-0.2c0,0,0-0.1,0-0.1
		c0.1,0,0.1,0,0.2,0c0-0.1,0.1-0.1,0.2-0.1l0.1-0.1c0,0,0-0.1,0-0.1c0.1,0,0.1,0,0.2,0c0,0,0.1-0.1,0.1-0.1c0-0.1,0.1-0.1,0.2-0.1
		c0-0.1,0.1-0.1,0.1-0.1c0-0.1,0.1-0.1,0.2-0.1c0-0.1,0.1-0.1,0.1-0.1c0.1-0.1,0.2-0.2,0.3-0.2c0-0.1,0.1-0.1,0.1-0.1
		c0,0,0-0.1,0-0.1l0,0h0.1c0.1-0.2,0.2-0.3,0.4-0.4c0-0.1,0.1-0.1,0.1-0.1c0.1-0.1,0.2-0.1,0.2-0.2c0-0.1,0.1-0.1,0.1-0.1
		c0.1-0.1,0.1-0.1,0.2-0.2c0-0.1,0-0.1,0.1-0.1c0.1-0.2,0.2-0.3,0.3-0.4c0-0.1,0-0.2,0.1-0.2c0.1-0.2,0.2-0.5,0.3-0.7
		c0.2-0.3,0.1-0.6-0.1-0.9c0,0,0,0,0,0c0,0,0-0.1,0-0.1c-0.1-0.1,0-0.2-0.1-0.2l0,0c0,0-0.1-0.1-0.1-0.1c0,0-0.1-0.1-0.1-0.1
		c0,0-0.1-0.1-0.1-0.1c0,0-0.1-0.1-0.1-0.1l0,0c-0.1-0.1-0.2-0.1-0.2-0.1h0c-0.4-0.1-0.7-0.1-1.1,0c0,0-0.1,0-0.1,0
		c0,0-0.1,0-0.1,0.1l-0.2,0c0,0.1-0.1,0.1-0.2,0.1c0,0,0,0.1,0,0.1c0,0-0.1,0-0.1,0c0,0.1-0.1,0.1-0.2,0.1l-0.1,0.1
		c0,0.1-0.1,0.2-0.2,0.3c0,0.1,0,0.2-0.1,0.2c0,0.1,0,0.1,0,0.2c0,0.1-0.1,0.2-0.2,0.2c-0.1,0-0.1-0.1-0.1-0.2
		c-0.1-0.2-0.1-0.5-0.1-0.8c0,0,0.1,0,0.1,0v0c0.1-0.1,0-0.2,0.1-0.3c0,0,0.1-0.1,0.1-0.1l0,0c0.1-0.2,0.3-0.3,0.4-0.5l0,0
		c0,0,0.1-0.1,0.1-0.1c0.1-0.1,0.2,0,0.2-0.1c0.1-0.1,0.2,0,0.2-0.1h0c0.1-0.1,0.2,0,0.2-0.1l0,0h0c0.3-0.1,0.6-0.1,0.9,0l0,0l0,0
		c0.1,0.1,0.3,0,0.4,0.1c0.1,0.1,0.1,0.1,0.2,0c0,0,0,0.1,0,0.1c0,0,0.1,0,0.1,0c0,0,0.1,0.1,0.1,0.1l0.1,0.1l0.1,0.1l0.1,0.1
		l0.1,0.1c0,0,0.1,0,0.1,0c0,0.1,0,0.2,0,0.2c0.1,0.1,0,0.2,0.1,0.3c0,0,0,0.1,0,0.1c0.1,0.2,0.1,0.5,0,0.7c0,0.1,0,0.1,0,0.2
		c-0.1,0.1,0,0.2,0,0.3c0,0,0,0,0,0l-0.1,0.1c0,0.1,0,0.2,0,0.3c0,0-0.1,0-0.1,0l0,0.3l-0.1,0c0,0.1,0,0.2-0.1,0.2
		c0,0.1,0,0.2-0.1,0.2c0,0.1-0.1,0.2-0.1,0.2c0,0-0.1,0.1-0.1,0.1c0,0.1-0.1,0.2-0.1,0.2c0,0.1,0,0.1-0.1,0.1c0,0,0,0.1,0,0.1
		l-0.1,0c0,0.1,0,0.1-0.1,0.1c0,0.1-0.1,0.1-0.1,0.1c-0.1,0.1-0.1,0.1-0.2,0.2c0,0.1-0.1,0.1-0.1,0.1c0,0-0.1,0.1-0.1,0.1
		c0,0.1-0.1,0.1-0.1,0.1c0,0.1-0.1,0.1-0.1,0.1c-0.1,0.1-0.2,0.2-0.3,0.2l-0.1,0.1c-0.1,0.1-0.2,0.2-0.3,0.2c0,0.1-0.1,0.1-0.1,0.1
		c0,0.1-0.1,0.1-0.2,0.1c0,0,0,0.1,0,0.1h-0.1c0,0,0,0.1,0,0.1l-0.2,0c0,0.1-0.1,0.1-0.2,0.1c0,0,0,0.1,0,0.1h-0.1
		c-0.1,0.1-0.3,0.2-0.4,0.2c0,0,0,0.1,0,0.1v0c0,0,0,0,0,0c-0.1,0-0.2,0-0.2,0.1l0,0c0,0-0.1,0.1-0.1,0.1c0,0,0,0-0.1,0
		c-0.1,0-0.2,0-0.3,0.1l0,0c-0.1,0-0.2,0-0.2,0.1h0c-0.1,0.1-0.2,0-0.3,0.1l0,0l0,0c-0.1,0.1-0.2,0-0.3,0.1h0
		c-0.1,0.1-0.2,0-0.2,0.1c-0.1,0.1-0.2,0-0.2,0.1l0,0c0,0-0.1,0.1-0.1,0.1c0,0-0.1,0.1-0.1,0.1c0,0-0.1,0.1-0.1,0.1
		c0,0-0.1,0.1-0.1,0.1l0,0c-0.1,0.2,0,0.2,0.1,0.3c0.1,0.1,0.2,0.1,0.2,0.1c0.1,0.1,0.2,0,0.4,0.1l0,0l0,0c0.1,0.1,0.3,0,0.4,0.1h0
		c0,0,0,0,0,0c0.8,0.1,1.6,0.1,2.4,0l0.2,0c0.3-0.1,0.6,0,0.8-0.1h0c0,0,0-0.1,0-0.1l0.5,0l0.2-0.1c0,0,0,0,0,0c0,0,0,0.1,0,0.1
		c0.1,0,0.2,0,0.3-0.1c0.1-0.1,0.3,0,0.4-0.1l0,0h0c0.1-0.1,0.3,0,0.4-0.1l0,0l0,0c0.1-0.1,0.3,0,0.4-0.1c0.1-0.1,0.3,0,0.4-0.1h0
		c0.1-0.1,0.2,0,0.3-0.1c0.1-0.1,0.2,0,0.3-0.1c0.1-0.1,0.2,0,0.3-0.1c0.1-0.1,0.2,0,0.3-0.1c0.1,0,0.1-0.1,0.2-0.1h0.1
		c0.1-0.1,0.2-0.1,0.3-0.1l0-0.1c0,0,0,0,0.1,0c0.1,0,0.2,0,0.3-0.1h0c0,0,0.1-0.1,0-0.1l0.2,0c0.2-0.1,0.3-0.1,0.5-0.2l0.1-0.1
		l0.2,0c0.1-0.1,0.1-0.1,0.2-0.1c0,0,0,0,0-0.1c0,0,0,0,0.1,0c0.1,0,0.1,0,0.2-0.1l0,0c0,0,0.1-0.1,0.1-0.1c0,0,0,0,0.1,0
		c0,0,0.1-0.1,0.1-0.1h0.1c0,0,0-0.1,0-0.1l0.2,0c0-0.1,0.1-0.1,0.2-0.1c0-0.1,0.1-0.1,0.1-0.1c0-0.1,0.1-0.1,0.2-0.1
		c0-0.1,0.1-0.1,0.1-0.1c0.1-0.1,0.2-0.2,0.3-0.2c0-0.1,0.1-0.1,0.1-0.1c0-0.1,0.1-0.1,0.1-0.1c0-0.1,0.1-0.1,0.2-0.1
		c0-0.1,0.1-0.1,0.1-0.1c0-0.1,0.1-0.1,0.2-0.1c0.1-0.1,0.2-0.2,0.3-0.2c0,0,0,0,0-0.1c0.1,0,0.2,0,0.2-0.1c0.1-0.1,0.2,0,0.2-0.1h0
		c0.1-0.1,0.2,0,0.2-0.1h0c0.1-0.1,0.2,0,0.2-0.1c0.1-0.1,0.2,0,0.2-0.1c0.1-0.1,0.2,0,0.2-0.1l0,0h0c0.1,0,0.2,0,0.3-0.1h0
		c0.1,0,0.2,0,0.2-0.1c0.1-0.1,0.2,0,0.3-0.1l0,0h0c0.1-0.1,0.2,0,0.2-0.1l0,0h0c0.1,0,0.2,0,0.3-0.1h0c0.1-0.1,0.2,0,0.3-0.1h0
		c0.1-0.1,0.2,0,0.3-0.1c0.1-0.1,0.3,0,0.3-0.1h0c0,0,0,0,0,0c0,0,0,0,0,0c0,0,0.1,0,0.1,0c0,0,0.1,0,0.1,0h0.1l0,0l0,0
		c0.1,0,0.2,0,0.3-0.1c0.1-0.1,0.3,0,0.4-0.1l0,0c0.1-0.1,0.2,0,0.3-0.1c0.1-0.1,0.3,0,0.4-0.1l0,0c0.1-0.1,0.3,0,0.4-0.1h0
		c0.1-0.1,0.3,0,0.5-0.1l0,0l0,0c0.3-0.1,0.7,0.1,1-0.1c0.1,0,0.3,0,0.4,0c0.3,0.2,0.7,0,1,0.1l0,0l0,0c0.1,0.1,0.3,0,0.4,0.1
		c0.1,0.1,0.1,0.1,0.2,0c0,0,0-0.1-0.1-0.1c0,0,0,0.1,0.1,0.1l0.1,0.1c0.1,0,0.2,0,0.3,0.1c0.1,0,0.2,0,0.2,0.1c0.1,0,0.2,0,0.2,0.1
		c0.1,0,0.1,0,0.1,0.1c0.1,0,0.2,0.1,0.2,0.1c0.1,0,0.1,0,0.1,0.1c0.1,0,0.2,0.1,0.3,0.3c0.1,0,0.1,0,0.1,0.1c0.1,0,0.1,0.1,0.1,0.1
		c0.1,0,0.1,0.1,0.1,0.1c0.1,0,0.1,0.1,0.1,0.1c0.1,0.1,0.2,0.2,0.2,0.3l0.1,0c0,0.1,0,0.1,0,0.2c0,0,0.1,0,0.1,0v0c0,0,0,0.1,0,0.1
		c0,0,0,0,0.1,0v0c0,0.1,0,0.2,0.1,0.3l0,0c0,0,0,0,0,0c0,0.1,0,0.2,0.1,0.2v0c0.1,0.1,0,0.2,0.1,0.3c0,0,0,0,0,0.1c0,0,0,0,0,0
		c0.1,0.2,0,0.5,0.1,0.7l0,0c0.1,0.1,0,0.3,0.1,0.4c0,0.1,0,0.3-0.1,0.4c0,0.3,0,0.5-0.1,0.8c0,0.2,0,0.3-0.1,0.4c0,0,0,0.1,0,0.1
		c0,0-0.1,0.1-0.1,0.1l0,0c-0.1,0.1-0.1,0.2-0.1,0.2c0,0,0,0,0,0l0,0c-0.1,0-0.1,0.1-0.1,0.2h0l0,0c-0.1,0-0.1,0.2-0.1,0.2
		c0,0-0.1,0.1-0.1,0.1l0,0c-0.1,0-0.1,0.1-0.1,0.1l0,0c-0.1,0.1-0.2,0.1-0.2,0.2l-0.1,0.1c-0.1,0-0.1,0.1-0.1,0.1c0,0,0,0,0,0l0,0v0
		c0,0-0.1,0.1-0.1,0.1c-0.1,0.1-0.2,0.1-0.3,0.2c-0.1,0.1-0.2,0-0.2,0.1h0c-0.1,0.1-0.2,0-0.2,0.1c-0.1,0.1-0.2,0-0.3,0.1
		c0,0,0,0,0,0c0,0,0,0,0,0c-0.1,0.1-0.3,0-0.5,0.1l0,0c-0.6,0.1-1.2,0.1-1.8,0l0,0c-0.1-0.1-0.2-0.1-0.2-0.1c0,0-0.1-0.1-0.1-0.1
		c0,0,0,0,0,0l0,0c0-0.1-0.1-0.1-0.2-0.1c0,0-0.1-0.1-0.1-0.1l0,0c0-0.1-0.1-0.1-0.1-0.1l0,0c-0.2-0.2-0.4-0.4-0.6-0.6l0,0
		c0-0.1-0.1-0.1-0.1-0.1v0c0,0-0.1-0.1-0.1-0.1l0-0.1c-0.1,0-0.1-0.1-0.1-0.1c-0.1,0-0.1-0.1-0.1-0.2l-0.1-0.1c0,0,0,0,0,0
		c0-0.1,0-0.2,0-0.2v0c-0.1-0.1,0-0.3-0.1-0.5c0,0,0,0,0-0.1c0,0,0,0,0,0c-0.1-0.4-0.1-0.8,0-1.2l0,0c0.2-0.2,0-0.4,0.1-0.6v0
		c0.1-0.1,0.1-0.2,0.1-0.3l0,0c0,0,0.1-0.1,0.1-0.1c0.1-0.1,0.1-0.2,0.1-0.2c0,0,0,0,0,0l0,0v0c0.1-0.1,0-0.2,0.1-0.3
		c0.1-0.1,0.1-0.2,0.1-0.2l0,0l0,0c0.1-0.1,0.1-0.2,0.1-0.2l0,0l0,0c0.1-0.1,0.1-0.1,0.1-0.2l0,0v0c0.1-0.1,0.1-0.2,0.1-0.2
		c0.1-0.1,0.1-0.2,0.1-0.2c0,0,0.1-0.1,0.1-0.1c0,0,0,0,0,0l0,0c0.1,0,0.1-0.1,0.1-0.2c0,0,0.1-0.1,0.1-0.1c0,0,0,0,0,0l0,0v0
		c0.1,0,0.1-0.1,0.1-0.2c0,0,0.1-0.1,0.1-0.1l0,0c0.1-0.2,0-0.3-0.2-0.3c-0.5,0-1,0-1.5,0.1c0,0,0,0-0.1,0c0,0,0,0,0,0
		c-0.1,0.1-0.3,0-0.5,0.1c0,0-0.1,0-0.1,0c-0.1,0.1-0.3,0-0.5,0.1h0l0,0c0,0-0.1,0-0.1,0.1c0,0,0,0,0,0c-0.1,0-0.1,0-0.2,0.1
		c-0.1,0.1-0.2,0-0.3,0.1c-0.1,0.1-0.2,0-0.3,0.1l0,0c0,0,0,0,0,0c-0.1,0-0.2,0-0.2,0.1c-0.1,0.1-0.2,0-0.2,0.1
		c-0.1,0.1-0.2,0-0.3,0.1h0l0,0c0,0,0,0,0,0c-0.1,0-0.2,0-0.2,0.1l0,0c0,0,0,0,0,0c-0.1,0-0.1,0.1-0.1,0.1c-0.1,0.1-0.2,0-0.2,0.1h0
		c-0.1,0.1-0.2,0-0.2,0.1l0,0c0,0,0,0,0,0c0,0-0.1,0.1-0.1,0.1c0,0.1-0.2,0-0.2,0.1l0,0c0,0-0.1,0.1-0.1,0.1l0,0
		c-0.1,0-0.1,0.2-0.1,0.2c0,0-0.1,0.1-0.1,0.1c0,0,0,0,0,0l0,0c-0.1,0-0.1,0.2-0.1,0.2c0,0-0.1,0.1-0.1,0.1c0,0,0,0,0,0l0,0
		c-0.1,0-0.1,0.2-0.1,0.2v0c-0.1,0.1-0.1,0.2-0.1,0.2C28,30.6,28,30.7,28,30.7v0c-0.1,0-0.1,0.1,0,0.2c0,0,0,0,0,0l-0.1,0
		c0,0,0,0.1,0,0.1c0,0,0,0,0,0.1c0,0,0,0,0,0l0,0c0,0,0,0.1,0,0.1c0,0,0,0.1,0,0.1c0,0,0,0.1-0.1,0.1v0c-0.1,0.1,0,0.2-0.1,0.3v0
		c-0.1,0.1,0,0.2-0.1,0.3c-0.1,0.1,0,0.3-0.1,0.5c0,0,0,0.1,0,0.1c0,0,0,0,0,0c-0.1,0.2,0,0.4-0.1,0.6v0c-0.1,0.8-0.1,1.6,0,2.4
		c0,0,0,0,0,0.1c0,0,0,0,0,0c0.1,0.2,0,0.4,0.1,0.6v0c0.1,0.1,0,0.3,0.1,0.4v0c0.1,0.1,0,0.3,0.1,0.4l0,0c0.1,0.1,0,0.2,0.1,0.3l0,0
		c0,0,0,0,0,0c0,0.1,0,0.2,0.1,0.2c0.1,0.1,0,0.2,0.1,0.3l0,0c0,0,0,0,0,0c0,0.1,0,0.2,0.1,0.2l0,0l0,0c0,0.1,0,0.2,0.1,0.2l0,0
		c0,0,0,0,0,0c0,0.1,0.1,0.1,0.1,0.1v0c0.1,0,0.1,0.2,0.1,0.2c0.1,0.1,0,0.2,0.1,0.2l0,0c0,0,0,0,0,0c0,0.1,0.1,0.1,0.1,0.1v0
		c0.1,0.1,0.1,0.2,0.2,0.3l0,0c0,0.1,0.1,0.1,0.1,0.1v0c0,0,0.1,0.1,0.1,0.1c0.1,0.1,0.1,0.1,0.1,0.2c0.2,0.1,0.3,0.5,0.6,0.4v0.1
		c0,0.1,0.1,0.1,0.1,0.1c0,0,0,0.1,0,0.1c0.1,0.1,0.2,0.2,0.4,0.3c0.1,0,0.2,0.1,0.3,0.2c0.1,0,0.1,0,0.1,0.1l0.2,0c0,0,0,0.1,0,0.1
		l0.1,0.1c0.1,0,0.3,0.1,0.3,0.2c0.1,0,0.2,0,0.2,0.1c0.1,0,0.2,0,0.2,0.1c0.1,0,0.1,0,0.1,0.1c0.1,0,0.2,0,0.2,0.1l0.2,0
		c0,0,0,0.1,0,0.1h0c0.1,0.1,0.2,0.1,0.3,0.1h0l0,0c0.1,0.1,0.2,0,0.2,0.1c0.1,0.1,0.2,0.1,0.2,0.1l0,0l0,0c0.1,0.1,0.2,0,0.3,0.1h0
		c0.1,0.1,0.2,0.1,0.3,0c0,0,0,0,0.1,0.1h0c0.1,0.1,0.3,0,0.4,0.1l0,0l0,0c0.1,0.1,0.3,0,0.4,0.1l0,0l0,0c0.1,0.1,0.3,0,0.5,0.1l0,0
		l0,0c0.1,0.1,0.3,0.1,0.5,0c0,0,0,0,0,0c0.1,0.1,0.3,0,0.4,0.1l0,0c0,0,0.1,0.1,0.1,0h1.5l0,0l0,0c0.3-0.1,0.6,0.1,0.9-0.1h0
		c0.2-0.1,0.4,0,0.6-0.1h0c0.1-0.1,0.3,0,0.5-0.1l0,0l0,0c0.1-0.1,0.3,0,0.4-0.1h0c0,0,0-0.1,0.1-0.1l0.3,0c0.1-0.1,0.2-0.1,0.3-0.1
		c0.1-0.1,0.2-0.1,0.3-0.1c0,0,0-0.1,0-0.1l0.2,0c0.1-0.1,0.2-0.1,0.3-0.1c0.1-0.1,0.1-0.1,0.2-0.1c0-0.1,0.1-0.1,0.2-0.1
		c0-0.1,0.1-0.1,0.1-0.1c0-0.1,0.1-0.1,0.2-0.1c0.1-0.1,0.2-0.2,0.3-0.2c0-0.1,0.1-0.1,0.1-0.1c0-0.1,0.1-0.1,0.2-0.1
		c0-0.1,0.1-0.1,0.1-0.1c0-0.1,0.1-0.1,0.1-0.1c0-0.1,0.1-0.1,0.1-0.1c0.1-0.1,0.2-0.1,0.2-0.2c0.1-0.1,0.1-0.1,0.2-0.2
		c0.1-0.1,0.1-0.2,0.2-0.2c0-0.1,0-0.1,0.1-0.1c0-0.1,0.1-0.2,0.2-0.3c0-0.1,0-0.1,0.1-0.1c0,0,0-0.1,0-0.1l0.1-0.1
		c0-0.1,0-0.1,0.1-0.1c0-0.1,0.1-0.2,0.1-0.2c0-0.1,0-0.1,0.1-0.1c0.1-0.1,0.2-0.3,0.2-0.4c0-0.1,0-0.2,0.1-0.2
		c0-0.2,0.1-0.3,0.2-0.4c0-0.1,0-0.2,0.1-0.2c0-0.1,0-0.2,0.1-0.2c0-0.1,0-0.2,0.1-0.3c0-0.1,0-0.2,0.1-0.2c0.1-0.2,0.2-0.4,0.2-0.7
		c0-0.1,0-0.3,0.1-0.4c0,0,0-0.1,0-0.1c0,0,0,0,0,0c0.1-0.1,0-0.2,0.1-0.3l0,0c0.1-0.1,0-0.3,0.1-0.5l0,0c0.2-0.2,0-0.4,0.1-0.6v0
		c0.2-0.2,0-0.5,0.1-0.7v0c0.1-0.2,0-0.5,0.1-0.7c0,0,0,0,0-0.1c0,0,0,0,0,0c0-0.4,0-0.8,0.1-1.1c0,0,0-0.1,0-0.1
		C47,32,47,31.8,46.9,31.7C46.9,31.7,46.9,31.7,46.9,31.7z"/>
</g>
</svg>
