<svg xmlns="http://www.w3.org/2000/svg" xmlns:xlink="http://www.w3.org/1999/xlink" style="display: none;">
        <defs>
          <symbol id="publisher" viewBox="0 0 24 24">
            <path d="m17.972 3.054-12.366 4.946h-3.356c-1.24 0-2.25 1.01-2.25 2.25v2.75c0 1.178.925 2 2.25 2h.85l.908 6.356c.053.37.369.644.742.644h3c.214 0 .417-.091.56-.25.142-.159.21-.371.186-.584l-.59-5.246 10.065 4.026c.091.036.185.054.279.054.147 0 .295-.044.421-.129.206-.14.329-.372.329-.621v-15.5c0-.249-.123-.481-.329-.621-.207-.14-.469-.168-.699-.075z"/><path d="m21.219 9.336 2.5-2c.323-.259.376-.731.117-1.055-.26-.322-.731-.374-1.055-.117l-2.5 2c-.323.259-.376.731-.117 1.055.148.184.366.281.586.281.165 0 .33-.054.469-.164z"/><path d="m21.219 14.664c-.322-.257-.794-.205-1.055.117-.259.323-.206.796.117 1.055l2.5 2c.139.11.304.164.469.164.22 0 .438-.097.586-.281.259-.323.206-.796-.117-1.055z"/><path d="m23.25 11.25h-2.5c-.414 0-.75.336-.75.75s.336.75.75.75h2.5c.414 0 .75-.336.75-.75s-.336-.75-.75-.75z"/>
          </symbol>
          <symbol id="home" viewBox="0 0 512 512">
           <path d="m498.195312 222.695312c-.011718-.011718-.023437-.023437-.035156-.035156l-208.855468-208.847656c-8.902344-8.90625-20.738282-13.8125-33.328126-13.8125-12.589843 0-24.425781 4.902344-33.332031 13.808594l-208.746093 208.742187c-.070313.070313-.140626.144531-.210938.214844-18.28125 18.386719-18.25 48.21875.089844 66.558594 8.378906 8.382812 19.445312 13.238281 31.277344 13.746093.480468.046876.964843.070313 1.453124.070313h8.324219v153.699219c0 30.414062 24.746094 55.160156 55.167969 55.160156h81.710938c8.28125 0 15-6.714844 15-15v-120.5c0-13.878906 11.289062-25.167969 25.167968-25.167969h48.195313c13.878906 0 25.167969 11.289063 25.167969 25.167969v120.5c0 8.285156 6.714843 15 15 15h81.710937c30.421875 0 55.167969-24.746094 55.167969-55.160156v-153.699219h7.71875c12.585937 0 24.421875-4.902344 33.332031-13.808594 18.359375-18.371093 18.367187-48.253906.023437-66.636719zm0 0"/>
          </symbol>
          <symbol id="search" viewBox="0 0 14.204 14.2">
           <g transform="translate(-606.585 -606.662)"><path d="M606.585,612.587a5.916,5.916,0,0,1,11.771-.862,5.788,5.788,0,0,1-.826,3.963.183.183,0,0,0,.032.276q1.43,1.419,2.85,2.848a1.182,1.182,0,1,1-1.662,1.681c-.557-.549-1.107-1.105-1.661-1.659-.4-.4-.8-.8-1.2-1.2a.174.174,0,0,0-.261-.035,5.727,5.727,0,0,1-6.367-.09,5.659,5.659,0,0,1-2.636-4.366C606.6,612.956,606.6,612.771,606.585,612.587Zm5.921,4.133a4.139,4.139,0,1,0-4.137-4.137A4.15,4.15,0,0,0,612.506,616.72Z" transform="translate(0 0)"/></g>
          </symbol>
          <symbol id="search" viewBox="0 0 14.204 14.2">
           <g transform="translate(-606.585 -606.662)"><path d="M606.585,612.587a5.916,5.916,0,0,1,11.771-.862,5.788,5.788,0,0,1-.826,3.963.183.183,0,0,0,.032.276q1.43,1.419,2.85,2.848a1.182,1.182,0,1,1-1.662,1.681c-.557-.549-1.107-1.105-1.661-1.659-.4-.4-.8-.8-1.2-1.2a.174.174,0,0,0-.261-.035,5.727,5.727,0,0,1-6.367-.09,5.659,5.659,0,0,1-2.636-4.366C606.6,612.956,606.6,612.771,606.585,612.587Zm5.921,4.133a4.139,4.139,0,1,0-4.137-4.137A4.15,4.15,0,0,0,612.506,616.72Z" transform="translate(0 0)"/></g>
          </symbol>
          <symbol id="sign-1" viewBox="0 0 49.627 44.305">
           <g id="Group_211" data-name="Group 211" transform="translate(0.021 0.018)">
    <path id="Path_75" data-name="Path 75" d="M17.528,27.095c-.006,0-.008-.008-.013-.012h0Z" fill=""/>
    <path id="Path_77" data-name="Path 77" d="M20.176,41.022a1.515,1.515,0,0,1,.371-.343h0a.319.319,0,0,1,.447.062.345.345,0,0,1,.032.052v-.005c.114.192.226.208.333,0,.139-.133.009-.333.116-.474l-.009.012c.187-.261-.011-.581.129-.849a.052.052,0,0,1,0-.073L21.6,39.4a8.077,8.077,0,0,0,.025-1.953,1.305,1.305,0,0,0,.085-.2,2.348,2.348,0,0,1,.006-.892c.116-.092.012-.261.123-.354h0c.068-.07.06-.17.1-.249.121-.084.033-.247.124-.342.116-.09.018-.256.124-.35h0c.111-.093.012-.258.122-.351h0c.1-.1.01-.258.116-.354h0c.1-.1.013-.258.114-.356h0c.109-.1.02-.258.116-.358s.027-.254.112-.358l-.008.011c.159-.123,0-.337.135-.467h0c.1-.1.019-.258.111-.362l0,.009c.152-.174.009-.256-.107-.346h0a.509.509,0,0,0-.129-.116l.008.008a.3.3,0,0,0-.126-.12.284.284,0,0,0-.118-.122l.009.009a.4.4,0,0,0-.116-.126,1.414,1.414,0,0,0-.252-.347l.012.011a.449.449,0,0,0-.1-.14h0c-.073-.057-.05-.17-.129-.224-.052-.07-.038-.176-.122-.228-.044-.075-.032-.18-.118-.233-.041-.077-.031-.179-.113-.237-.047-.076-.035-.181-.114-.243v.006c-.1-.091,0-.261-.132-.341-.038-.082-.029-.184-.1-.251h0c-.1-.1-.008-.26-.121-.351-.092-.1-.007-.257-.115-.353-.123-.133.029-.345-.133-.467l.008.011c-.083-.109,0-.265-.1-.369a.042.042,0,0,1-.022-.055l.009-.013c-.019-.1-.071-.2-.168-.172-.183.051-.057.266-.159.372l.007-.01a6.533,6.533,0,0,0-.006,2.107.047.047,0,0,1,.01.066l-.01.01c.152.552-.063,1.129.115,1.679a.055.055,0,0,1,0,.076l0,0c.116,1.08.019,2.163.051,3.244a.962.962,0,0,1-.008.151.07.07,0,0,0-.044.045V35.4c-.14.136-.01.338-.115.483l.01-.012c-.181.166,0,.414-.133.591l0-.009c-.191.578.04,1.184-.123,1.764l.008-.008c-.18.3.026.645-.124.946l.007-.008c-.084.059-.071.166-.118.243-.081.051-.062.162-.13.222a.506.506,0,0,0-.113.131l.009-.008a.314.314,0,0,0-.118.119.469.469,0,0,0-.129.114h0a1.944,1.944,0,0,0-.349.249l.01-.01a.4.4,0,0,0-.13.113h0a6.965,6.965,0,0,0-1.179,1.18h0c-.036.043-.078.08-.111.126h0a.369.369,0,0,0-.107.122.2.2,0,0,0-.114.133c-.089.042-.07.157-.135.215h0a.349.349,0,0,0-.1.133h0c-.078.052-.073.119-.026.193h0v.006c-.119.1-.075.231-.085.353l.056.008.056-.009.124.111a7.507,7.507,0,0,0,1.27-.107.8.8,0,0,1,.056.06c.138-.011.287.05.411-.06.177-.13.417.039.587-.124l-.009.005c.094-.092.256,0,.341-.12.207-.494-.027-1.026.128-1.524Z" />
    <path id="Path_78" data-name="Path 78" d="M21.357,40.781h0v0Z" />
    <path id="Path_79" data-name="Path 79" d="M20.068,42.529c0,.007-.01.007-.014.013v.007Z"  />
    <path id="Path_80" data-name="Path 80" d="M2.173,6.854Z" />
    <path id="Path_81" data-name="Path 81" d="M37.168,39.981"  />
    <path id="Path_82" data-name="Path 82" d="M39.145,40.2l-.006.009c.153-.126,0-.337.131-.469h0c.107-.1.019-.254.114-.354s.023-.257.116-.36l-.006.009a.183.183,0,0,0,.048-.224.2.2,0,0,0-.04-.017l.1-.127.035-.312h0a.077.077,0,0,0,.1-.047h0a.085.085,0,0,1,.021-.087.308.308,0,0,0,.047-.209.056.056,0,0,0,.049-.053.1.1,0,0,1,.022-.09.168.168,0,0,0,.014-.185l.018-.044a.251.251,0,0,0,.064-.013.4.4,0,0,1,.129-.34.265.265,0,0,1,.118-.234c0-.034-.007-.068-.01-.1h.016a1.156,1.156,0,0,0,.069-.117l.043-.016v-.044h0a.253.253,0,0,0,.1-.092l-.008.014c.083-.052.073-.137.075-.217v-.012l.049-.011a.848.848,0,0,0-.01-.113.063.063,0,0,0,.039-.071.654.654,0,0,0,.106-.034v-.117a.75.75,0,0,1,.094-.021.26.26,0,0,1,.137-.215.146.146,0,0,1,.1-.136.27.27,0,0,1,.14-.215.146.146,0,0,1,.1-.134.288.288,0,0,1,.137-.217.155.155,0,0,1,.093-.137.278.278,0,0,1,.129-.223v-.569a.286.286,0,0,1-.109-.24l-.241-.464a.26.26,0,0,1-.121-.231.266.266,0,0,1-.111-.238.416.416,0,0,1-.134-.334.807.807,0,0,1-.087-.029c-.006-.15-.013-.3-.018-.451a.95.95,0,0,1-.088-.05h0c0-.444,0-.888.007-1.332a.168.168,0,0,0,.086-.048c.174-.423-.034-.881.117-1.307a.056.056,0,0,1,0-.079l0,0c.053-.211.2-.436-.109-.579-.066.059-.17.043-.227.118-.073.055-.175.042-.243.108h0c-.131.131-.336-.012-.466.124-.176.131-.416-.035-.586.122H39.3c-.092.07-.21.044-.308.09a.736.736,0,0,0-.092.025l-.421.008a1.765,1.765,0,0,1-.769.1c-.108.01-.229-.01-.288.12a.078.078,0,0,0-.029.082h0c-.029.014-.06.027-.088.042,0,.386,0,.772.006,1.157a.725.725,0,0,1,.107.474.273.273,0,0,0,.089.015.116.116,0,0,0,.026.1v.235a.316.316,0,0,0,.1.023c.014.1.027.209.04.312a.279.279,0,0,1,.111.239.283.283,0,0,1,.116.235.278.278,0,0,1,.122.23.291.291,0,0,1,.128.226.6.6,0,0,1,.215.367.282.282,0,0,1,.135.218.157.157,0,0,1,.091.139.268.268,0,0,1,.138.217.574.574,0,0,1,.226.358.276.276,0,0,1,.135.217.16.16,0,0,1,.085.144.254.254,0,0,1,.12.232.973.973,0,0,0,.1.029c0,.177.008.355.013.533L39.4,35.5a.072.072,0,0,0-.089.05.07.07,0,0,0,0,.029.063.063,0,0,1-.021.073c-.066.062-.038.171-.114.228h0a.587.587,0,0,0-.1.133l.01-.009c-.09.049-.063.168-.135.227h0a.508.508,0,0,0-.109.131l.01-.009c-.089.05-.062.168-.135.226h0a.548.548,0,0,0-.108.132l.009-.009a.2.2,0,0,0-.062.216l-.071.012-.09.14a.3.3,0,0,1-.129.224.278.278,0,0,1-.123.228c-.006.069-.013.138-.019.207l-.1.028c0,.075-.006.15-.01.225h0v.008a.082.082,0,0,0-.1.031.073.073,0,0,1-.021.08c-.062.068-.044.17-.1.24-.112.09-.017.255-.123.347h0c-.108.094-.01.258-.12.351h0c-.068.077-.062.184-.1.271a.074.074,0,0,1-.018.082c-.064.079-.057.183-.1.27a.07.07,0,0,1-.016.08.164.164,0,0,0-.033.16c-.027.024-.053.048-.079.075a.4.4,0,0,0-.05.114l-.155.032c-.007.03-.012.06-.016.09l-.118.012a.153.153,0,0,1-.126.106.158.158,0,0,1-.122.113,1.536,1.536,0,0,1-.468.468.154.154,0,0,1-.112.121l-.111.122a.156.156,0,0,1-.108.125l-.106.126-.165.3a.837.837,0,0,0-.1.018l-.1.129a.319.319,0,0,1-.132.221l-.108.124a.293.293,0,0,1-.126.227l-.1.131-.029.22a.139.139,0,0,1-.075.029c-.023.193-.1.4.1.55l.345.008h0a.842.842,0,0,0,.02.1c.117-.025.262.073.351-.078h.053c.06.1.159.09.252.1a.567.567,0,0,0,.027-.1h.036l.035-.01a.467.467,0,0,0,.027.09,1.929,1.929,0,0,0,.715-.144c.081.023.157.034.179-.077h0l.027-.01c.116.049.18-.022.228-.126v.005c.451-.049.4-.423.471-.721a.074.074,0,0,1,.008-.086c.1-.1.018-.258.109-.362a.278.278,0,0,0,.033-.318.312.312,0,0,0,.1-.02.571.571,0,0,0-.007-.109.224.224,0,0,0,.11-.033l-.009.012a2.345,2.345,0,0,1,.248-.23.189.189,0,0,1,.245,0,.248.248,0,0,0,.161.112h.022a.248.248,0,0,0,.159-.118l-.01.01c.127-.085.019-.258.131-.349h0c.1-.1.013-.258.114-.357h0C39.142,40.463,39.055,40.3,39.145,40.2Z"  />
    <path id="Path_83" data-name="Path 83" d="M47.217,19.738Z"  />
    <path id="Path_84" data-name="Path 84" d="M40.329,18.337Z"  />
    <path id="Path_85" data-name="Path 85" d="M18.2,9.9v.007h0Z"  />
    <path id="Path_86" data-name="Path 86" d="M36.578,28.959Z"  />
    <path id="Path_87" data-name="Path 87" d="M40.782,30.836h0v0Z"  />
    <path id="Path_88" data-name="Path 88" d="M40.8,28.868Z"  />
    <path id="Path_89" data-name="Path 89" d="M45.836,15.662l.011-.011v-.008Z"  />
    <path id="Path_90" data-name="Path 90" d="M46.636,34.244h0v0Z"  />
    <path id="Path_91" data-name="Path 91" d="M1.827,11.2h0v0Z"  />
    <path id="Path_92" data-name="Path 92" d="M1.591,8.391A.666.666,0,0,0,1.7,8.247a.18.18,0,0,1,.018-.107c.053-.077.044-.177.094-.256a.119.119,0,0,1,.017-.092c.062-.075.05-.179.1-.26a.116.116,0,0,1,.014-.091c.065-.067.047-.17.105-.239.111-.09.018-.252.122-.345.068-.065.056-.167.111-.237a.231.231,0,0,0,.063-.2c.023,0,.043-.012.055-.048a.215.215,0,0,1,.022-.1c.054-.068.034-.169.1-.231h0c.07-.062.046-.172.119-.232.011,0,.021-.014.031-.043s-.012-.036-.028-.053a1.66,1.66,0,0,0,.112-.139c.069-.061.045-.172.121-.228h0a.129.129,0,0,0,.025-.1c.029.012.056.007.079-.032l-.008.012c.087-.053.064-.168.13-.233h0a.288.288,0,0,0,.11-.157.089.089,0,0,1,.033-.079c.009,0,.014-.018.015-.053s-.016-.035-.027-.052h.008c.029-.006.059-.011.088-.015a.273.273,0,0,1,.131-.222.152.152,0,0,1,.1-.127.631.631,0,0,0,0-.087c.112-.054.169-.165.248-.254h0a.913.913,0,0,0,.109-.131l-.008.008a.273.273,0,0,0,.12-.133L4.017,3.7A7.247,7.247,0,0,0,4.51,3.13h0c-.142-.306-.375-.161-.587-.118a.052.052,0,0,1-.072.016h0c-.092.036-.2.034-.278.106h0c-.066.066-.17.049-.238.111h0c-.049.048-.113.081-.158.133H3.112a.281.281,0,0,1-.214.137l-.133.1a.154.154,0,0,1-.131.1c-.01.035-.02.07-.029.1l-.289.166L2.2,4.092c-.008.037-.017.073-.027.109a.9.9,0,0,0-.091.01A.238.238,0,0,0,2.09,4.3l-.073.111-.09.1a.118.118,0,0,0-.108.025h0a.757.757,0,0,0-.111.129l.008-.008c-.085.051-.057.169-.135.224h0a1,1,0,0,0-.105.131L1.486,5a.216.216,0,0,0-.079.181.142.142,0,0,1-.012.04l-.041.01c0,.062-.009.124-.013.187a.47.47,0,0,0-.107.043h0c-.066.062-.042.171-.119.229h0c-.062.068-.043.173-.112.237H1a.27.27,0,0,0-.054.226H.881a.257.257,0,0,1-.113.236v.16c-.044.062-.068.135-.113.2h0C.541,6.834.641,7,.533,7.094h0c-.083.094-.051.21-.062.317a.064.064,0,0,0-.055.038h0c-.129.136,0,.336-.116.475h0a.434.434,0,0,0-.033.424.166.166,0,0,0-.081.076.081.081,0,0,1-.008.081c-.159.258.034.568-.118.827V9.327a1.915,1.915,0,0,0,0,1.051h0c-.05.027-.071.08-.068.166a7.147,7.147,0,0,0,.066,1.469h0c.151.3-.04.643.112.943a.164.164,0,0,1,.008.1c.13.185-.029.423.116.605a.127.127,0,0,1,0,.09.082.082,0,0,0,.1.052c0,.069.008.137.012.206a2.091,2.091,0,0,1,0,.235.494.494,0,0,0,.108.01H.547a.437.437,0,0,0-.068.027.556.556,0,0,0,.042.425h0c.128.135-.009.335.118.47.1.1.016.25.107.348a.273.273,0,0,1,.012.11.115.115,0,0,0,.093.055.255.255,0,0,0,.028.306h0c.1.1.007.262.12.356H1c.1.1.008.26.122.352.056.068.041.168.1.235a.192.192,0,0,1,.018.1c.038.075.07.158.17.17.137-.058.107-.182.112-.292a.419.419,0,0,0-.057-.326.15.15,0,0,1-.008-.1c-.114-.146.014-.347-.111-.49a.133.133,0,0,1-.007-.094c-.061-.075-.026-.192-.113-.256a.147.147,0,0,0,.057-.051c0-.1.026-.209-.05-.3a2.059,2.059,0,0,0-.008-.222c-.153-.383.038-.8-.107-1.182,0-.189-.009-.378-.014-.568-.015-.055-.045-.062-.09-.031l-.038.015h0c.025-.014.045-.033.07-.046a1.572,1.572,0,0,0,.006-.168,9.5,9.5,0,0,1,.054-1.564.133.133,0,0,1,0-.1c.157-.306-.031-.652.112-.96a.123.123,0,0,1,.006-.094c.137-.185-.014-.423.111-.609a.127.127,0,0,1,.007-.094.211.211,0,0,0,.03-.237.235.235,0,0,0-.053,0V9.434c.092-.044.074-.128.078-.206a.313.313,0,0,1,.06-.024l.019-.117-.018-.073c.017-.028.035-.056.049-.085a1.192,1.192,0,0,0,0-.169c.025,0,.047-.005.06-.047a.18.18,0,0,1,.01-.1A.158.158,0,0,0,1.591,8.391Z"  />
    <path id="Path_93" data-name="Path 93" d="M2.758,5.567"  />
    <path id="Path_94" data-name="Path 94" d="M.654,15.166"  />
    <path id="Path_95" data-name="Path 95" d="M13.144,9.525a.315.315,0,0,1,.133-.219.5.5,0,0,1,.247-.341l.1-.129.109-.125.11-.124.118-.113c.059-.134-.021-.22-.106-.3l-.446-.014a.566.566,0,0,1-.341.127c-.044.033-.09.064-.135.1a1.126,1.126,0,0,1-.351.353.151.151,0,0,1-.1.126l-.006.088a.075.075,0,0,0-.1.028L12.367,9l.008-.016c-.092.053-.075.162-.122.237-.083.054-.07.157-.117.23-.126.086-.024.257-.129.35h0c-.077.073-.066.182-.111.267a.084.084,0,0,1-.016.083c-.094.111-.021.265-.1.379a.09.09,0,0,1-.009.088.913.913,0,0,0,0,.7.093.093,0,0,1,.005.09c.11.147-.019.351.116.492v-.007c.1.1.012.258.111.36h0c.111.089.01.256.127.344.053.072.041.175.11.24h0c.067.065.049.17.109.238l.023-.019c-.006.042-.01.085-.016.127.068.067.046.176.116.242h0c.07.062.049.173.122.232v-.006c.207.016.185-.092.122-.222a.4.4,0,0,1-.011-.114c-.1-.1-.024-.243-.094-.351-.008-.115-.018-.23-.026-.345l-.062-.017a.229.229,0,0,1,.007-.036,7.937,7.937,0,0,1,.058-1.486h0c.13-.137,0-.336.116-.477v.007c.118-.094.025-.258.12-.359v.008a.2.2,0,0,0,.053-.224l-.036-.043c0-.013.016-.023.012-.039l.1-.041c-.005-.039-.01-.078-.013-.117l.129-.118Z"  />
    <path id="Path_96" data-name="Path 96" d="M49.485,15.643a.41.41,0,0,0-.14-.245c-.01-.068-.023-.138-.033-.208a.721.721,0,0,1-.091-.025c-.006-.072-.013-.144-.018-.217l-.094-.024-.039-.192a.311.311,0,0,1-.094-.029.711.711,0,0,0,0-.113l-.1-.014c0-.038-.006-.076-.009-.114h0c-.038-.038-.075-.077-.11-.118h0a1.206,1.206,0,0,1-.116-.11h-.1a.213.213,0,0,0-.021-.105h0a.346.346,0,0,0-.134-.112l.011.012c-.049-.094-.166-.07-.232-.134h0c-.062-.077-.17-.058-.241-.118h.007c-.073-.082-.184-.075-.276-.112a.056.056,0,0,1-.073-.018.156.156,0,0,0-.221,0l0,0a.341.341,0,0,0-.132-.1h0a.186.186,0,0,0-.168-.068c-.252.027-.515-.062-.76.059a.056.056,0,0,1-.079.01h0c-.116.077-.276,0-.385.109-.155.082-.343.1-.468.239h0a1.832,1.832,0,0,0-.592.583h0a.4.4,0,0,0-.109.135h0c-.077.054-.067.155-.115.224-.08.059-.071.159-.109.236-.116.085-.067.21-.077.321-.025,0-.043.016-.045.068a.043.043,0,0,1,0,.061l-.007.005a1.559,1.559,0,0,0-.005.939.059.059,0,0,1,.015.075c0,.055.03.068.068.055.008.022.022.042.031.064a1.112,1.112,0,0,0,.007.152.668.668,0,0,0,.075.016h0c.006,0,.014,0,.021.01a.14.14,0,0,0,.019.2l.015.01-.01-.01a.428.428,0,0,0,.116.131h0a.435.435,0,0,0,.109.076l.008.046h.072a.421.421,0,0,0,.051.029c.018.008.007.046.012.068a.3.3,0,0,1,.223.126l.334.018v-.01c.005,0,.012.006.017.01h-.02c-.012,0-.021.016-.025.048s.018.044.065.049l.044-.008.043.017a.415.415,0,0,0,.466-.008h-.009a.054.054,0,0,0,.039-.025c.012-.014,0-.034-.012-.053.01-.006.018-.014.029-.02l.191-.008.2-.153a.316.316,0,0,1,.148-.2.311.311,0,0,1,.1-.243v-.362a.69.69,0,0,0,0-.3v-.146l-.04-.016c-.018-.076-.016-.159-.079-.218h0a.639.639,0,0,0-.5-.345H46.1c-.086.039-.2.029-.259.117-.157.323-.157.6.254.766-.21-.016-.345-.145-.515-.188h0c-.111-.194-.034-.41-.069-.613a.584.584,0,0,1,.071-.1h0c.093-.107.147-.241.24-.348h0c.108-.09.237-.15.35-.234h0c.069-.079.172-.051.256-.084a.736.736,0,0,1,.494.022.158.158,0,0,1,.06.008l.016.044a.257.257,0,0,1,.243.105.252.252,0,0,1,.218.137.152.152,0,0,1,.13.1l.125.11a.159.159,0,0,1,.11.124,1.168,1.168,0,0,1,.128,1.321.418.418,0,0,1-.134.338.243.243,0,0,1-.125.228.16.16,0,0,1-.087.142.279.279,0,0,1-.137.216,1.171,1.171,0,0,1-.006.119.558.558,0,0,0-.1.012.5.5,0,0,1-.256.329l-.113.121a.15.15,0,0,1-.111.121l-.008.225.134.1.32.149a.5.5,0,0,0,.011.109c.038,0,.077.008.115.008a.563.563,0,0,1,.016.1.153.153,0,0,1,.118.114.16.16,0,0,1,.117.118.153.153,0,0,1,.112.122.156.156,0,0,1,.107.128.482.482,0,0,0,.1.014c.016.065.03.129.046.194a.159.159,0,0,1,.088.142.257.257,0,0,1,.117.235l.221.213a.3.3,0,0,1,.119-.225.3.3,0,0,1,.107-.243c0-.049.007-.1.011-.146h.009a.422.422,0,0,0,.063-.136c0-.011.01-.02.014-.031l.04-.018v-.081a.928.928,0,0,1,.059-.133,1.133,1.133,0,0,0,.162-.382c.119-.1.042-.266.116-.382a.051.051,0,0,1,.014-.071h0c.082-.1.05-.217.049-.33v-.012a.485.485,0,0,0,.063-.016l.027-.332c.131-.137.088-.314.111-.476A3.024,3.024,0,0,0,49.485,15.643Z"  />
    <path id="Path_99" data-name="Path 99" d="M15.614,16.539l-.09-.06a.074.074,0,0,0,.085.061Z"  />
    <path id="Path_831" data-name="Path 831" d="M19.018,24.645a.244.244,0,0,1-.133-.222l-.179-.222a.294.294,0,0,0,.012-.15c-.014-.045-.038-.082-.054-.125l.024-.9a.1.1,0,0,0,.1-.033.213.213,0,0,1,.008-.109c.113-.146,0-.341.1-.488a.143.143,0,0,1,.006-.1c.1-.106.022-.266.109-.376a.127.127,0,0,1,.01-.092c.125-.135-.012-.336.116-.472.106-.1.02-.262.114-.367a.189.189,0,0,1,.01-.1c.118-.139-.012-.335.111-.472v.005a1.637,1.637,0,0,0,.013-.933.228.228,0,0,1-.011-.11.1.1,0,0,0-.1-.029,1.939,1.939,0,0,0-.2-.746A.8.8,0,0,1,19,18.225a.153.153,0,0,1-.1-.133.282.282,0,0,1-.1-.2.348.348,0,0,0-.252-.287.286.286,0,0,0-.3-.127c-.4.01-.8.016-1.2.023-.013.03-.026.061-.037.092a.113.113,0,0,0-.088.012H15.873l-.126-.1a.375.375,0,0,1-.346-.124.27.27,0,0,1-.239-.11.279.279,0,0,1-.234-.118.241.241,0,0,1-.1,0,.3.3,0,0,1-.228.122.157.157,0,0,1-.127.1l-.121.111v.063a.333.333,0,0,0-.109.064l.005-.007a.346.346,0,0,0-.118.131l.011-.01a.9.9,0,0,0-.228.358c-.142.075-.033.253-.138.344v-.006c-.111.1-.022.258-.116.361V18.78c-.155.186,0,.431-.118.625a.044.044,0,0,1,.011.061l-.011.011a3.058,3.058,0,0,0,0,1.411.044.044,0,0,1,.008.062l-.008.008c.1.149-.023.355.12.493.045.08.03.188.118.247l-.006-.008c.053.07.037.178.122.229a.394.394,0,0,0,.1.136c.07.055.053.164.129.214a.377.377,0,0,0,.107.131c.092.109.133.257.258.341l-.014-.01a.236.236,0,0,0,.122.134l-.01-.01a.408.408,0,0,0,.117.131c.3.441.738.757,1.074,1.166l-.012-.012a.276.276,0,0,0,.111.132,2.521,2.521,0,0,0,.237.352c.055.066.041.172.126.221a.358.358,0,0,0,.1.137c.072.059.048.174.131.226.048.07.036.173.121.221a.347.347,0,0,0,.1.139c.074.059.051.171.127.228V25.8c.056.067.041.173.121.228.049.073.034.181.126.23a1.705,1.705,0,0,0,.214.364l-.008.01c.069.061.05.171.122.229s.044.167.12.22a1.007,1.007,0,0,0,.807.008h-.01c.072-.057.182-.039.243-.12h-.008a1.31,1.31,0,0,0,.347-.248c.146-.062.289-.126.28-.318a.331.331,0,0,0,.159-.193,1.775,1.775,0,0,0,.014-.967A1.205,1.205,0,0,1,19.018,24.645Zm-1.853-3.161c0,.079-.009.158-.013.237l-.265.68a.171.171,0,0,0-.071.008.311.311,0,0,1-.127-.106l-.271-.464c-.094-.212.079-.351.144-.517a.552.552,0,0,0-.117-.712,1.445,1.445,0,0,1-.12-.1.485.485,0,0,1-.093-.118c-.006-.025-.012-.049-.017-.075.041-.23.081-.46.122-.69.03-.051.061-.051.091,0a2.973,2.973,0,0,1,.607.806c.07.067.046.176.11.245a.23.23,0,0,0,.014.107A.751.751,0,0,1,17.165,21.484Z"  />
    <path id="Path_832" data-name="Path 832" d="M23.809,13.836h0s0,.011-.009.014Z"  />
    <path id="Path_833" data-name="Path 833" d="M24.988,9.291a1.509,1.509,0,0,0-.008-.19c-.021-.044-.048-.057-.078-.054l-.043-.793c-.1-.11-.073-.25-.094-.379a.328.328,0,0,0-.1-.252c-.016-.138-.031-.276-.046-.413a.459.459,0,0,1-.109-.357A7.249,7.249,0,0,0,23.466,4.62l-.185-.137a.55.55,0,0,0-.161-.293c-.093-.118-.174-.245-.261-.369a.147.147,0,0,1-.1-.127c-.073-.083-.146-.165-.221-.247a3.8,3.8,0,0,1-.7-.7.14.14,0,0,1-.124-.11.145.145,0,0,1-.125-.109.149.149,0,0,1-.127-.1.63.63,0,0,1-.328-.26.141.141,0,0,1-.133-.1.607.607,0,0,1-.343-.242.271.271,0,0,1-.217-.137A.143.143,0,0,1,20.3,1.6q-.218-.136-.446-.258l-.21-.029a.3.3,0,0,0-.021-.093c-.156-.079-.314-.154-.474-.227L18.973.98A.234.234,0,0,0,18.9.88l.012,0c-.081-.131-.256-.021-.343-.135C18.5.686,18.4.693,18.321.65c-.088-.122-.248-.037-.349-.118-.122-.148-.328,0-.458-.128-.1-.105-.257-.029-.367-.1l.011.008c-.165-.185-.414,0-.589-.134l.008.006c-.226-.159-.506,0-.739-.12a.044.044,0,0,1-.062.009.051.051,0,0,1-.013-.016A4.592,4.592,0,0,0,14.6-.006,1.033,1.033,0,0,0,14.486.1c0-.022-.011-.042-.013-.064A9.06,9.06,0,0,0,12.247.06l-.03.023L12.184.067a.741.741,0,0,0-.141.07.85.85,0,0,0-.609.044h.008c-.182.129-.419-.03-.6.115l-.029.023L10.777.305c-.125.067-.282.009-.4.1a.049.049,0,0,1-.064.022L10.3.421c-.118.077-.289-.008-.39.122h.015a.267.267,0,0,0-.086.1L9.578.672a.273.273,0,0,1-.25.1.474.474,0,0,1-.336.136.3.3,0,0,1-.238.108c-.008.031-.016.062-.025.093l-.208.026c-.008.032-.015.064-.022.1l-.2.038a.153.153,0,0,1-.146.082.273.273,0,0,1-.224.13.522.522,0,0,1-.355.228.592.592,0,0,1-.339.247.143.143,0,0,1-.133.1.508.508,0,0,1-.014.094.152.152,0,0,0-.129.117H6.951l-.181.045a.149.149,0,0,1-.129.1.153.153,0,0,1-.124.11l-.49.543a.185.185,0,0,0-.117.143L5.352,3.7a.153.153,0,0,1-.111.124l-.1.127a.53.53,0,0,1-.258.331l-.112.12a.538.538,0,0,1-.006.1.856.856,0,0,1-.1.024.372.372,0,0,0,.008.1l-.057.112-.194.128v.116a.868.868,0,0,1-.1.027.277.277,0,0,1-.14.21l-.094.137c-.016.062-.031.123-.046.185l-.1.023a.273.273,0,0,1-.118.233l-.094.136a.3.3,0,0,1-.131.222.259.259,0,0,1-.128.226v.067a.14.14,0,0,0-.1.1.068.068,0,0,1-.024.072,1.416,1.416,0,0,0-.1.131l.011-.01c-.144.262-.243.544-.37.814-.067.067-.052.172-.111.243V7.792c-.072.057-.064.143-.083.219v.011l-.032.008c-.012.124,0,.257-.117.349-.007.088-.014.176-.02.265a.469.469,0,0,0-.1.094V8.727c-.1.083-.063.2-.068.3a.228.228,0,0,1,.036.046.193.193,0,0,1-.07.027.474.474,0,0,1-.12.343A2.789,2.789,0,0,1,1.968,10.5c-.01.226-.018.452-.028.679a.1.1,0,0,0-.111.012c-.147.223.02.5-.112.72a.1.1,0,0,1,0,.088,9.466,9.466,0,0,0,0,2.46v-.006c.142.22-.033.491.115.71a.1.1,0,0,1,.008.088.426.426,0,0,0,.1.157.282.282,0,0,0,0,.34.165.165,0,0,1,.009.093c.053.077.037.184.1.256a.242.242,0,0,1,.012.1,1.2,1.2,0,0,0,.1.155c-.005.005-.01,0-.016.012s-.007.052.027.083a.171.171,0,0,1,.012.1c.054.079.038.187.113.256s.044.17.107.236a.227.227,0,0,1,.014.1c.059.075.04.183.113.25a.184.184,0,0,0,.113.039l.03.178a.336.336,0,0,1,.117.234.356.356,0,0,1,.118.231L3,18.2a.306.306,0,0,1,.14.215c.03.047.061.093.092.139a.307.307,0,0,1,.128.223.831.831,0,0,0,.1.015.23.23,0,0,1,.017.1.139.139,0,0,1,.1.131.638.638,0,0,1,.263.325.143.143,0,0,1,.107.124.143.143,0,0,1,.111.122c.074.082.15.163.228.241l.107.011a.967.967,0,0,0,.01.107l.239.229a.137.137,0,0,1,.12.111.767.767,0,0,1,.116.015.844.844,0,0,0,.009.1.139.139,0,0,1,.124.1.61.61,0,0,1,.325.264.141.141,0,0,1,.13.1.15.15,0,0,1,.131.1.278.278,0,0,1,.2.15.145.145,0,0,1,.133.1.589.589,0,0,1,.352.232.269.269,0,0,1,.218.136.144.144,0,0,1,.143.088.265.265,0,0,1,.219.133.261.261,0,0,1,.224.128.622.622,0,0,1,.375.206.279.279,0,0,1,.228.124l.2.029c.009.032.018.064.025.1a.263.263,0,0,1,.23.12.275.275,0,0,1,.243.105.459.459,0,0,1,.343.127c.111.008.224.013.335.019a.631.631,0,0,1,.028.087,1.091,1.091,0,0,1,.574.126,1.45,1.45,0,0,1,.7.117,1.339,1.339,0,0,1,.7.121l.436.024a.1.1,0,0,0,.038.092h-.011c.109.118.274.044.4.116l.038-.008.029.025c.07.068.173.053.252.1l-.012-.008c.722.171.866,0,.674-.793l.008.014c-.045-.079-.034-.183-.1-.251a3.509,3.509,0,0,0-.348-.706c-.072-.06-.05-.172-.123-.231s-.045-.176-.121-.237v0a.109.109,0,0,0-.1-.029v-.006a1.848,1.848,0,0,1,.1-1.032.413.413,0,0,1,.108-.358.408.408,0,0,1,.131-.34.254.254,0,0,1,.107-.241q.112-.236.236-.467a.254.254,0,0,1,.125-.227.553.553,0,0,1,.218-.366.261.261,0,0,1,.136-.217.144.144,0,0,1,.094-.137c.012-.059.024-.119.037-.178.036-.01.071-.021.106-.033l0-.109.1-.018a.337.337,0,0,1,.015-.1.71.71,0,0,0,.1-.018.241.241,0,0,0-.011-.1.166.166,0,0,0,.048-.1.668.668,0,0,0,.1-.014l.1-.136a.288.288,0,0,1,.129-.223.534.534,0,0,1,.114-.352c0-.07,0-.142-.007-.212l-.121-.224a.318.318,0,0,1-.215-.135l-1.6-.024a.947.947,0,0,1-.04-.1.4.4,0,0,1-.354-.113.266.266,0,0,1-.238-.111l-.2-.038-.243-.229a.211.211,0,0,1-.022-.092l-.2-.124c0-.008.006-.008.008-.023a.1.1,0,0,0-.039-.089.662.662,0,0,0-.129-.113.431.431,0,0,0-.113-.12,3.667,3.667,0,0,0-.234-.358c-.066-.066-.046-.175-.118-.238-.107-.094-.006-.263-.127-.351v.006c-.059-.071-.044-.175-.109-.244-.154-.214.032-.487-.12-.7a.117.117,0,0,1,0-.1c-.114-.252-.023-.52-.057-.78l-.1.011c.016-.023.029-.046.044-.07.161-.346-.033-.728.113-1.076a.089.089,0,0,1,0-.092c.114-.163.04-.347.059-.522a.466.466,0,0,0-.056-.09.141.141,0,0,0,.02-.066c.032-.012.064-.024.094-.038a.153.153,0,0,1,.013-.1c0-.078-.012-.156-.016-.234a1.249,1.249,0,0,1,.023-.209.123.123,0,0,0,.1-.035v.008c.113-.1.032-.267.114-.381a.1.1,0,0,1,.014-.086.081.081,0,0,0,.028-.111.078.078,0,0,0-.034-.031l.018-.088a.341.341,0,0,1,.083-.029c.005-.064.012-.127.018-.191.06.027.1.01.108-.062a.082.082,0,0,1,.024-.077c.061-.064.035-.171.111-.228a.624.624,0,0,0,.1-.134l-.011.009c.09-.052.07-.163.128-.232a.33.33,0,0,0,.117-.129l-.012.008c.111-.143.277-.25.291-.454v0a.152.152,0,0,0,.1-.1l.139-.111a.112.112,0,0,0,.079-.049h.088a.474.474,0,0,0,.013-.092,1.125,1.125,0,0,1,.114-.018.154.154,0,0,1,.132-.1.259.259,0,0,1,.215-.135c.007-.032.014-.064.02-.1h.12a.332.332,0,0,0,.009-.089l.217-.038c.155-.081.313-.157.472-.229a.41.41,0,0,1,.339-.133.424.424,0,0,1,.358-.109.9.9,0,0,1,.576-.124.781.781,0,0,1,.035-.084L16.094,5.8c.011.028.021.057.029.085a.86.86,0,0,1,.572.131.422.422,0,0,1,.353.116l.236.037v.005c.07.139.233.122.339.2a1.149,1.149,0,0,0,.37.209c.04.1.157.079.226.135l-.007-.006a.391.391,0,0,0,.219.12l.031.005.1.123a.139.139,0,0,1,.129.1.145.145,0,0,1,.127.107.143.143,0,0,1,.124.107.682.682,0,0,1,.353.356.149.149,0,0,1,.107.126.142.142,0,0,1,.1.129.494.494,0,0,1,.241.347,3.529,3.529,0,0,1,.233.469.413.413,0,0,1,.118.351l.1.2a.616.616,0,0,0-.057.115c-.008.33,0,.661,0,.992.012.036.027.066.04.1-.051-.018-.079,0-.085.057a.046.046,0,0,1-.008.065l-.007,0a.154.154,0,0,0-.015.2q-.083-.009-.087.078a.054.054,0,0,1-.021.071c-.066.064-.04.172-.113.232-.08.116-.154.236-.222.359a.246.246,0,0,0-.116.132l.013-.01c-.141.184-.348.318-.432.543l-.153.059a.154.154,0,0,1-.132.1.3.3,0,0,1-.01.052H18.78c-.079,0-.163-.005-.213.079l.01-.011a.517.517,0,0,0-.132.1.07.07,0,0,1-.077.025c-.09.04-.2.029-.274.116L18.1,12.7c-.1.094-.265,0-.359.118-.109.083-.246.029-.364.07l-.156.05h-.452a.391.391,0,0,1-.109-.061.886.886,0,0,0-.262.008.945.945,0,0,0-.067-.075c-.066-.068-.17-.056-.245-.107-.055-.079-.163-.062-.226-.124a.535.535,0,0,0-.125-.117l.006.007a.56.56,0,0,0-.117-.126c-.062-.064-.046-.172-.122-.227-.055-.072-.038-.176-.1-.243a.092.092,0,0,1-.01-.093.844.844,0,0,1-.054-.41c0-.026-.023-.044-.035-.065a.061.061,0,0,0,.079-.031.069.069,0,0,0,.005-.024.062.062,0,0,1,.009-.079c.079-.074.054-.172.061-.262a.137.137,0,0,0-.036-.081l.087-.017c.008-.074.018-.146.028-.22l.089-.014a.153.153,0,0,1,.094-.136.537.537,0,0,1,.368-.343c.168-.186.39-.105.593-.12l.315.26a.219.219,0,0,0,.044.228.047.047,0,0,1,.021.063l0,.007c.016.061.036.122.058.181a.283.283,0,0,1,0,.182v.023l-.165.032c-.052.085-.1.093-.146-.007a.482.482,0,0,1-.075-.01.143.143,0,0,0-.03-.016v-.107l-.127-.1-.226-.011c-.1.14-.277.239-.252.449a.369.369,0,0,0-.092.025c0,.189.008.378.012.567a.341.341,0,0,1,.1.245.421.421,0,0,0,.1.012c-.008,0-.015.012-.022.038a.071.071,0,0,0,.029.071c.048.031.079.083.135.1L16.34,12.2a.6.6,0,0,0,.58.024l.043-.021.047,0a.055.055,0,0,0,.051-.055h.072c.059-.022.119-.04.179-.06h.064l.006-.022.038-.013c.072-.014.152-.012.2-.088l-.012.012a.3.3,0,0,0,.131-.122l-.009.008a1.447,1.447,0,0,0,.232-.353c.085-.058.07-.165.12-.241.118-.089.028-.252.121-.35l0,.01A1.744,1.744,0,0,0,18.2,9.894a.1.1,0,0,0-.09-.038c-.005-.068-.012-.137-.017-.206a.849.849,0,0,0-.1-.036c-.011-.063-.02-.127-.031-.19A.767.767,0,0,1,17.7,9.1a.148.148,0,0,1-.112-.115.73.73,0,0,1-.324-.265.15.15,0,0,1-.137-.093A.321.321,0,0,1,16.9,8.5a5.485,5.485,0,0,0-1.16,0L15.416,8.5a.381.381,0,0,0-.022.1V8.59l-.341.014a.452.452,0,0,1-.337.135.323.323,0,0,1-.226.124l-.133.1a.743.743,0,0,1-.018.094.823.823,0,0,0-.363.347l-.206.143V9.66c-.032.008-.064.014-.1.021a.292.292,0,0,1-.126.222.285.285,0,0,1-.12.232c0,.041-.007.081-.01.122a.462.462,0,0,0-.1.124v-.017c-.134.1-.042.269-.125.383a.066.066,0,0,1-.015.08c-.081.1-.047.211-.054.318v.013a.063.063,0,0,0-.046.055.071.071,0,0,1-.008.08,4.754,4.754,0,0,0-.008,1.64.121.121,0,0,1,.009.1c.01.023.034.022.053.03v.01c.018.148-.044.308.06.444.134.129-.025.343.135.466l-.007-.01c.048.075.038.172.091.245a.075.075,0,0,1,.028.08.071.071,0,0,0,.075.067.075.075,0,0,0,.032-.01l.146.424a.156.156,0,0,1,.1.133.757.757,0,0,1,.349.472.539.539,0,0,1,.241.224.13.13,0,0,1,.11.124l.19.142.06.193.3.048a.232.232,0,0,0,.023.093c.1.025.181.113.288.124.016.008.028.023.046.028s.017-.007.027-.007l.114.117q.045.027.09.06l.146.047a.368.368,0,0,1-.02.093c.192.213.479.129.71.224a2.232,2.232,0,0,0,.337.017c.077,0,.16,0,.238-.008a1.845,1.845,0,0,0,.364.006l.246.1h.2a1.32,1.32,0,0,0,1.138.031,1.037,1.037,0,0,0,.1.062.4.4,0,0,0,.411-.094l-.006.007c.14-.117.343.021.477-.12h-.008c.071-.06.179-.042.242-.118s.178-.044.239-.12h0a.144.144,0,0,0,.048-.1l.185-.021a.277.277,0,0,1,.226-.126.3.3,0,0,1,.222-.13l.142-.087a.559.559,0,0,1,.015-.088l.207-.043a.157.157,0,0,1,.133-.1.281.281,0,0,1,.217-.137.156.156,0,0,1,.131-.1.277.277,0,0,1,.2-.148.7.7,0,0,0,.019-.091c.038-.006.076-.011.113-.014a.152.152,0,0,1,.127-.1.156.156,0,0,1,.124-.109c.047-.074.094-.146.139-.22l.672-.607a.157.157,0,0,1,.106-.128l.1-.127a.277.277,0,0,1,.15-.2v-.053a.261.261,0,0,0,.105-.087c.074-.052.06-.158.128-.212a.358.358,0,0,0,.1-.137c.084-.049.072-.154.122-.223.081-.057.063-.166.124-.235v.006c.079-.062.064-.17.118-.245l-.007.01c.088-.06.075-.167.116-.248.124-.083.036-.245.123-.343.116-.1.041-.268.115-.386a.047.047,0,0,1,.007-.066l.007-.005a.208.208,0,0,0,.029-.234.1.1,0,0,0-.029-.012.465.465,0,0,1,.031-.122,1.245,1.245,0,0,1,.081-.11v.008c.159-.269-.019-.582.115-.853a.05.05,0,0,1-.009-.07l.009-.009A1.871,1.871,0,0,0,24.988,9.291ZM6.513,11.415a4.3,4.3,0,0,1-1.482-.932.59.59,0,0,1-.192-.276c.055-.132.142-.167.263-.077a.126.126,0,0,0,.089.016c.083.046.187.033.262.1a1.4,1.4,0,0,0,.7.133,5.542,5.542,0,0,0,2.274-.5c.044-.029.09-.056.135-.083s.088-.054.133-.079c.066-.038.131-.076.194-.119.04-.033.081-.065.124-.094.488-.232.392.14.411.4a.279.279,0,0,1-.128.2,1.28,1.28,0,0,0-.108.719,2.608,2.608,0,0,0,.013.342.265.265,0,0,1-.2.3l-.271.09-1.4-.027C7.024,11.727,6.782,11.484,6.513,11.415Zm3.408,4.208c.185.152.491.088.613.347a.4.4,0,0,1,.021.242c-.072.2-.162.4-.229.6a4.022,4.022,0,0,1-.853,1.1c-.215.133-.4.3-.606.447a3.691,3.691,0,0,1-2.068.617c-.192-.152-.047-.268.054-.369.148-.146.318-.269.462-.417.035-.038.073-.073.11-.108.017-.018.037-.035.054-.053a1.24,1.24,0,0,0,.226-.288.878.878,0,0,1,.088-.122,2.821,2.821,0,0,0,.271-.362c.041-.064.086-.124.131-.185a2.964,2.964,0,0,0,.241-.473c.235-.328.235-.773.537-1.067a.643.643,0,0,0,.109-.49c-.031-.029-.04-.057-.027-.083s.021-.034.033-.034a.128.128,0,0,0,0-.105c.046-.081.09-.164.148-.268.115.051.086.187.14.268s.1.209.154.31a1.916,1.916,0,0,0,.154.243A.614.614,0,0,0,9.921,15.623Zm.8-8.644-.243.114a.383.383,0,0,1-.207-.12c-.14-.17-.262-.352-.4-.527a3.8,3.8,0,0,1-.561-2.9,1.817,1.817,0,0,1,.176-.49L9.56,3c.144.148.121.357.188.533a2.093,2.093,0,0,0,.263.626l.063.035a1.114,1.114,0,0,1,.143.164,2.683,2.683,0,0,0,.357.458c.039.033.075.069.111.1l.056.055a1.79,1.79,0,0,0,.976.564c.206.041.427.081.433.366C11.678,6.268,11.221,6.652,10.722,6.979Zm5.371-1.791a2.537,2.537,0,0,0-1.369-.17,5.752,5.752,0,0,1,.343-1.193A4.079,4.079,0,0,0,15.516,3l.223-.244c.209-.041.168.116.183.228a.724.724,0,0,1-.044.36,1.434,1.434,0,0,0,.008.71c.07.108,0,.252.091.354a.381.381,0,0,0,.125.345.473.473,0,0,0,.2.374A.187.187,0,0,1,16.093,5.188Zm-1.161,6.177c-.013.149-.121.163-.235.17a.7.7,0,0,0-.123-.1c-.081-.173-.252-.3-.26-.511.113-.116.2.037.313.027a.48.48,0,0,0,.319-.107l.066.011c0,.066,0,.134.005.2A.508.508,0,0,0,14.932,11.365Zm1.155,2.483a1.031,1.031,0,0,1-.827.442c-.09-.006-.257.028-.19-.172a1.767,1.767,0,0,0,.376-1.1c.333.032.459.4.772.391a.123.123,0,0,0,.079.021C16.384,13.649,16.174,13.717,16.087,13.848Zm2.688,1.31v-.01a.251.251,0,0,1-.1-.2,1.619,1.619,0,0,0-.926-1.453L18,13.306l.724-.185c.133.148.126.351.194.525C18.943,14.157,19.28,14.7,18.775,15.158Zm1.062-9.375a2.331,2.331,0,0,0-.277.788c-.251-.046-.23-.327-.423-.392-.049-.117-.161-.162-.256-.228-.074-.049-.225.008-.222-.125,0-.086.076-.17.119-.256a.614.614,0,0,1,.489-.565,8.761,8.761,0,0,1,1.032-.5c.132-.053.259-.1.25.128A2.645,2.645,0,0,0,19.837,5.783Zm1.878,7.964c-.139.035-.156-.085-.2-.155a3,3,0,0,0-.462-.662c-.1-.027-.073-.163-.162-.2l-.011-.013a.263.263,0,0,0-.1-.109l-.009-.009a.27.27,0,0,0-.109-.1l-.012-.009c-.038-.1-.173-.038-.21-.135-.07-.062-.179-.04-.244-.113-.084-.062-.237-.085-.134-.25s.2-.329.3-.5c.219-.044.336.174.523.2a1.226,1.226,0,0,0,.356.317A2.217,2.217,0,0,1,21.715,13.747Zm.122-4.417c-.313,0-.563.215-.87.26-.15-.186,0-.457-.177-.631l-.027-.116c-.04-.058-.034-.129-.064-.19a.58.58,0,0,1,.427-.153,3.783,3.783,0,0,1,1.441.176c.186.057.371.111.557.167a1.112,1.112,0,0,0,.468.243c.005.048.01.1.014.144A8.248,8.248,0,0,1,21.837,9.33Z"  />
    <path id="Path_834" data-name="Path 834" d="M21.5,41.732l0,0,0,0Z"  />
    <path id="Path_835" data-name="Path 835" d="M21.388,41.849l.008-.008h0Z"  />
    <path id="Path_836" data-name="Path 836" d="M24.187,41.948h0l0,.006Z"  />
    <path id="Path_837" data-name="Path 837" d="M47.336,19.853l0,0,.005.005Z"  />
    <path id="Path_838" data-name="Path 838" d="M24.294,41.818c0,.006-.009.008-.012.014l0,0Z"  />
    <path id="Path_839" data-name="Path 839" d="M48.532,22.31a.947.947,0,0,1-.12-.026l-.027-.434a.445.445,0,0,1-.1-.364.086.086,0,0,1-.031-.094.288.288,0,0,1-.092-.252.887.887,0,0,1-.224-.475.272.272,0,0,1-.134-.22L47.62,20.3c-.022-.063-.042-.126-.065-.19a.458.458,0,0,1-.073-.018.053.053,0,0,0,.018-.039c.006-.031-.012-.059-.052-.081l.012.007a8.009,8.009,0,0,0-.237-.238.254.254,0,0,0-.128-.118l.011.012a1.578,1.578,0,0,0-.344-.252.317.317,0,0,0-.135-.108c-.051-.081-.154-.07-.223-.118-.056-.081-.166-.064-.236-.122h.007c-.058-.081-.166-.064-.239-.119-.088-.116-.254-.018-.346-.125a.786.786,0,0,0-.28-.1.046.046,0,0,1-.065-.007l0-.007c-.094-.084-.211-.049-.319-.058a.061.061,0,0,0-.042-.054h.007c-.174-.15-.413.016-.59-.12-.227-.155-.5.014-.734-.114l-.2-.01a14.839,14.839,0,0,0-3.039.01.447.447,0,0,0-.122.094l-.469.018-2.334.006-.351-.024a.329.329,0,0,0-.032-.091.1.1,0,0,1-.088-.008c-.17-.117-.36-.044-.541-.056a.4.4,0,0,0-.005.091c-.013-.012-.027-.026-.04-.037l-.137-.013a.62.62,0,0,0-.122-.1.1.1,0,0,1-.094-.01c-.177-.135-.411.023-.588-.112-.093-.086-.2-.057-.313-.051a.191.191,0,0,0-.038.056c-.052-.094-.174-.051-.239-.12h.006c-.147-.133-.351-.014-.506-.114a.06.06,0,0,1-.076-.012c-.092-.084-.2-.053-.307-.051a.139.139,0,0,0-.031.023c.009-.043-.007-.07-.056-.076a.058.058,0,0,1-.073-.012c-.136-.129-.337.008-.474-.116-.1-.109-.256-.019-.357-.114s-.263-.031-.376-.113a.082.082,0,0,1-.086-.017.218.218,0,0,0-.243-.018.636.636,0,0,0,.084.139.506.506,0,0,1-.078-.122l-.116-.107a.244.244,0,0,1-.251-.1,7.968,7.968,0,0,1-1.307-.53.379.379,0,0,1-.217-.172c-.31-.045-.515-.293-.788-.411l-.254-.188a.15.15,0,0,1-.129-.1.613.613,0,0,1-.328-.262.15.15,0,0,1-.131-.1.153.153,0,0,1-.134-.1.292.292,0,0,1-.212-.144l-.139-.091a.293.293,0,0,1-.216-.137.268.268,0,0,1-.227-.125.261.261,0,0,1-.232-.12l-.193-.022a.125.125,0,0,0-.038-.1c-.068-.067-.173-.052-.244-.111h.008c-.073-.082-.183-.072-.273-.114a.068.068,0,0,1-.078-.021c-.07-.062-.172-.047-.245-.1-.126-.137-.329,0-.459-.124-.109-.1-.268-.031-.384-.108a.062.062,0,0,1-.079-.011c-.186-.136-.423.014-.61-.111a.085.085,0,0,1-.093-.007c-.289-.149-.445.009-.57.241-.085.051-.06.168-.134.225a.579.579,0,0,0-.107.134l.011-.01c-.089.051-.063.169-.135.228a.441.441,0,0,0-.109.134l.012-.01c-.091.044-.062.168-.142.217v.007a.211.211,0,0,0-.032.122l-.063.012-.1.129a.292.292,0,0,1-.15.2c-.073.083-.146.167-.217.252a.151.151,0,0,1-.11.124l-.107.124a1.092,1.092,0,0,1-.469.475l-.118.111-.125.109a.149.149,0,0,1-.126.107.561.561,0,0,1-.015.1h-.115a.284.284,0,0,1-.2.151c-.046.031-.091.064-.136.1a.3.3,0,0,1-.215.14l-.142.086a.257.257,0,0,1-.231.121l-.088.094h-.007a.118.118,0,0,0-.146.021c-.092.11-.265,0-.35.131l.007-.006c-.1.092-.261,0-.361.107a.1.1,0,0,1-.093.009c-.126.17-.6-.165-.5.343.137.128-.018.338.131.463v-.009c.025.046.042.1.1.118a.361.361,0,0,0-.03.025c-.016.117-.048.235.042.338a.156.156,0,0,1,0,.1,4.443,4.443,0,0,1,0,1.543c-.008,0-.016.012-.024.035a.069.069,0,0,0,.028.075c.064.068.044.177.119.239s.045.176.119.238.044.173.111.238a.152.152,0,0,1,.013.094c.053.079.038.187.109.258.132.131-.016.338.128.467v0c.1.1.008.259.11.359a.171.171,0,0,1,.006.1c.118.144-.014.345.115.486a.132.132,0,0,1,0,.092c.107.148-.006.342.1.489l.014.215a.121.121,0,0,0,.1.01v.025l.01-.013c.007.155.013.31.02.464l-.033.122c.008.069.015.139.023.209l.048.02v.036c.018.146-.048.3.062.438a.054.054,0,0,1,.009.077v0c.128.231-.046.511.117.736v-.008c.141.22-.045.5.122.711v-.011a.063.063,0,0,0,.045.044c.029.183-.055.381.072.552v-.008c.139.176-.042.422.131.59l-.008-.011c.086.107,0,.265.111.365s.01.26.116.357.011.256.124.345c.055.072.042.175.108.243.112.082.006.258.138.332.036.078.026.181.114.232a.393.393,0,0,0,.094.14c.077.056.051.169.125.227s.044.178.131.229a.973.973,0,0,0,.24.351l-.012-.012a.3.3,0,0,0,.111.133c.089.112.127.264.262.34l-.015-.012a.168.168,0,0,0,.116.129.265.265,0,0,0,.109.129c.091.1,0,.262.118.353V32c.12.138-.016.34.118.475.137.173-.046.419.134.583l-.01-.011c.129.224-.05.5.118.715l-.005-.009c.106.139,0,.319.09.462a.491.491,0,0,0-.083.032c0,.062,0,.124-.006.186a.591.591,0,0,1-.068.25,2.51,2.51,0,0,0-.282.611c-.114.1-.029.255-.115.359l.008-.012c-.17.183-.006.431-.125.624a.044.044,0,0,1,.005.063l-.011.01c-.16.313.023.665-.111.981a.041.041,0,0,1,.016.054.049.049,0,0,1-.016.016,5.133,5.133,0,0,0,0,1.874l-.006-.01a2.605,2.605,0,0,1,.008,1.084l.012-.008c-.1.043-.077.161-.137.228a.421.421,0,0,0-.118.127.363.363,0,0,0-.119.115l.006-.007a.8.8,0,0,0-.127.113,3.983,3.983,0,0,0-.345.245.933.933,0,0,0-.343.253l.013-.016a.2.2,0,0,0-.136.121.288.288,0,0,0-.12.112l.008-.009a.374.374,0,0,0-.125.122.434.434,0,0,0-.111.111.336.336,0,0,0-.122.129l.01-.01a.231.231,0,0,0-.122.133l.012-.012c-.122.086-.163.235-.257.343a.4.4,0,0,0-.1.131c-.085.051-.066.163-.131.224-.12.226-.333.416-.265.71h-.006a.194.194,0,0,1-.068.006c.023.174-.139.318-.071.523a4.8,4.8,0,0,0,2.05.035c.006,0,.011-.009.016-.014a.482.482,0,0,1,.018.075c.435.109.654-.283.983-.421a.063.063,0,0,0,.041-.021c.017-.018.008-.041-.026-.069l.007.005c-.144-.261.051-.572-.124-.827l.007.01a.666.666,0,0,1,.012-.589V42.2c.049-.077.165-.054.21-.136.225-.117.487,0,.713-.112a.252.252,0,0,0,.1-.117c.165-.121.01-.335.134-.468v.008c.148-.189,0-.433.114-.629a.04.04,0,0,1-.009-.056.033.033,0,0,1,.014-.012c.158-.219-.021-.493.118-.715l0,.008c.152-.232,0-.512.117-.749l-.018-.033.022-.031c.16-.219-.02-.494.118-.717l-.007.009c.172-.213-.019-.491.124-.71v.008c.155-.172-.008-.41.12-.588.108-.112.042-.274.111-.4a.039.039,0,0,1,0-.055l.014-.009a6.15,6.15,0,0,0,.219-.6c.123-.085.025-.253.128-.345.075-.068.066-.17.1-.254l-.008.016a5.315,5.315,0,0,0,.083-1.473,1.232,1.232,0,0,1,.012-.172c.01-.012.032-.01.036-.029a.042.042,0,0,1-.012-.058l.012-.012c.173-.314-.018-.67.118-.989l-.018-.034.022-.032c.149-.179-.01-.417.116-.6l-.008.01c.142-.15.044-.338.079-.5l.012-.068.036-.016a.226.226,0,0,1,.1-.25.7.7,0,0,1,.025-.1h.345a1.417,1.417,0,0,1,.7-.124.729.729,0,0,1,.468-.114c.006-.027.013-.054.021-.08a.022.022,0,0,0,.009.02.43.43,0,0,0,.333-.038l.038-.023.044.006c.116-.077.275,0,.383-.109.133-.126.345.027.468-.131l-.01.007c.107-.086.264,0,.364-.11.04-.038.081-.075.123-.11l.124-.029a1.009,1.009,0,0,0,.111.031l.04-.023h.046c.014-.032.028-.063.041-.1h.058l.053-.023.224.008c.012-.031.025-.061.038-.092l.317-.021.118-.11.34-.016c.008-.022.013-.044.019-.065l.009.006c.116.007.233.038.334-.049.132-.131.339.018.468-.127H31.92c.1-.1.261-.008.36-.109l.036-.023.042.008a.439.439,0,0,0,.114-.072.284.284,0,0,0,.277-.031l.036-.022.041.01c.119-.076.278-.006.391-.106l.037-.021.041.009c.119-.075.276-.007.389-.1l.04-.021.044.008c.152-.1.354.014.5-.108l.036-.021.042.01a.054.054,0,0,0,.057-.044h.042c.214-.032.443.07.647-.07l.035-.017.035.017c.472-.146.972.064,1.439-.121a.335.335,0,0,0,.136-.093l1.139-.01h.005c.2,0,.41,0,.614-.006h.442l.016-.036h.031c.179-.049.382.065.544-.085l-.009.005c.1-.087.263,0,.354-.116.075-.051.176-.036.244-.1l.03-.024.038.006c.094-.035.2-.031.281-.111h-.008a.918.918,0,0,0,.093-.094l.261-.027a.933.933,0,0,1,.693-.1l.014.009a1.083,1.083,0,0,1,.131.1h-.008a.381.381,0,0,0,.126.12.246.246,0,0,0,.1.118c.047-.02.084-.053.076-.1a.777.777,0,0,0-.055-.222,9.238,9.238,0,0,1-.53-2.247,3.107,3.107,0,0,1,.375-2.308,1,1,0,0,1,.092-.131c.044-.059.09-.118.132-.179a1.306,1.306,0,0,1,.078-.116,1.754,1.754,0,0,1,.134-.152c.044-.048.092-.093.14-.136a.682.682,0,0,1,.1-.077c.055-.031.112-.061.168-.1.035-.028.072-.053.109-.077a.368.368,0,0,1,.13-.053c.024,0,.047.007.072.009l.064.04c.016.019.031.039.049.058.1.236-.081.386-.167.568a2.352,2.352,0,0,0-.243.414,5.111,5.111,0,0,0-.428,1.493,11.5,11.5,0,0,0,.15,3.292.7.7,0,0,1-.02.177,1.511,1.511,0,0,1-.165.391l0,0,0,.031a.251.251,0,0,1,.1.245.447.447,0,0,1,.131.337c.031.009.062.017.094.024l.01.225a.432.432,0,0,1,.131.341.463.463,0,0,1,.13.34.3.3,0,0,1,.093.254.457.457,0,0,1,.132.339.292.292,0,0,1,.1.249.439.439,0,0,1,.139.334.29.29,0,0,1,.1.245c.074.16.147.32.222.479a.269.269,0,0,1,.118.232.278.278,0,0,1,.129.225.247.247,0,0,1,.12.233.441.441,0,0,1,.121.347.43.43,0,0,1,.1.362l.1.119c.006.444.018.888.017,1.331a.638.638,0,0,1-.1.442.466.466,0,0,1-.111.356c-.014.109-.027.217-.04.327a.69.69,0,0,0-.091.015.392.392,0,0,1-.126.343l-.01.2a.156.156,0,0,0-.1.046v-.009c-.122.09-.021.258-.125.354v0a.212.212,0,0,0-.052.209l.008.009c-.034-.01-.059,0-.068.047a.092.092,0,0,1-.025.085c.006.04.013.079.019.118L43.284,38a.431.431,0,0,1-.131.341.287.287,0,0,1-.1.247.431.431,0,0,1-.132.339.28.28,0,0,1-.1.248.455.455,0,0,1-.135.338.283.283,0,0,1-.1.245c-.012.1-.023.2-.034.3l-.1.04a.28.28,0,0,1-.1.248.3.3,0,0,1-.1.241.732.732,0,0,0,.012.094.116.116,0,0,0-.065.085l-.306.18-.127.1-.126.106a.994.994,0,0,1-.014.106h-.109a.532.532,0,0,1-.328.261l-.127.1a.152.152,0,0,1-.127.1l-.123.111c0,.031-.007.062-.01.093l-.312.174-.12.11-.122.112-.12.111c0,.035-.009.07-.012.106a.76.76,0,0,0-.107,0c0,.035-.009.068-.012.1-.034.007-.067.014-.1.018-.035.042-.07.082-.106.123a.6.6,0,0,1-.251.335c-.053.146-.107.293-.161.44-.183.049-.309.146-.3.357.107.12.191.271.384.278.026,0,.051.048.076.073a8.325,8.325,0,0,0,1.769-.136.453.453,0,0,0,.165-.062,1,1,0,0,1,.1.046c.175-.037.369.05.53-.079H42.1c.418,0,.6-.19.543-.63a1.533,1.533,0,0,1,.042-.792.1.1,0,0,1,0-.09.449.449,0,0,0,.04-.4c.026-.027.052-.053.077-.08v0a.62.62,0,0,0,.121-.119c.156-.1.332-.037.5-.055s.356-.032.312-.287l.007.006c-.072-.359-.278-.7-.119-1.089a.091.091,0,0,1,.006-.09c.107-.1.017-.26.111-.364v.007c.126-.085.019-.257.13-.349.069-.066.053-.173.113-.243v.007c.079-.061.06-.171.12-.241v.007c.081-.059.06-.17.124-.239v.005c.077-.058.054-.171.126-.232a.6.6,0,0,0,.109-.131l-.009.008c.087-.052.062-.169.133-.229a.607.607,0,0,0,.111-.131l-.01.008c.087-.049.057-.168.138-.222v0c.029-.045.071-.079.1-.123a.476.476,0,0,0,.117-.124l-.006.006a.4.4,0,0,0,.122-.126l-.012,0a.077.077,0,0,0,.048-.1.07.07,0,0,0-.013-.024l.07-.018c.076-.221.306-.326.4-.532a.162.162,0,0,0,.124-.121l.317-.256a.7.7,0,0,1,.011-.111.427.427,0,0,0,.1-.012.265.265,0,0,1,.129-.221l.1-.131a.291.291,0,0,1,.129-.224c0-.06.006-.121.01-.181a.136.136,0,0,0,.1-.067v.016c.178-.217-.014-.5.127-.721a.05.05,0,0,1,0-.07c-.137-.225.042-.5-.118-.723-.088-.1-.009-.255-.108-.354-.153-.133.06-.4-.188-.5a.159.159,0,0,0-.029.015v-.01c-.027-.152.008-.325-.133-.444a.817.817,0,0,0-.107-.608,6.594,6.594,0,0,1-.122-1.833l.086-.035c.009-.146.019-.293.03-.44l.089-.027c.009-.11.016-.221.025-.33a.439.439,0,0,1,.087-.027.425.425,0,0,1,.129-.338.3.3,0,0,1,.1-.25.454.454,0,0,1,.143-.33.257.257,0,0,1,.109-.241.273.273,0,0,1,.114-.237A.279.279,0,0,1,47.017,28q.116-.234.239-.464c.081-.153.162-.307.244-.46a.261.261,0,0,1,.123-.228,2.05,2.05,0,0,1,.351-.7.267.267,0,0,1,.1-.244.438.438,0,0,1,.129-.342.429.429,0,0,1,.116-.351.468.468,0,0,1,.1-.362,1.114,1.114,0,0,1,.112-.587.084.084,0,0,1,.018-.1V22.41A.085.085,0,0,1,48.532,22.31ZM21.61,20.545a1.253,1.253,0,0,0-.808-.233c-.191.012-.276-.1-.323-.259a1,1,0,0,1-.05-.223c-.009-.166-.2-.328-.07-.484.17-.2.345.041.523.05.25.049.393.26.59.389a4.823,4.823,0,0,0,.812.393c.1.039.293.029.213.241A3,3,0,0,1,21.61,20.545ZM22.866,29.5c-.034.1-.057.217-.211.173a.135.135,0,0,1-.025-.087c-.038-.083-.016-.189-.094-.259a11.71,11.71,0,0,1-.715-2.577c-.028-.621-.226-1.27.289-1.807.184-.127.364-.221.5.054.114.407-.209.773-.113,1.178.163.438,0,.909.137,1.349.053.39.1.782.155,1.173a1.922,1.922,0,0,0,.034.408,1.462,1.462,0,0,1,.038.155A.691.691,0,0,1,22.866,29.5Zm4.239-.3a4.309,4.309,0,0,0-.23.957l-.158.345a.446.446,0,0,1-.079.126v-.006l-.131-.131a.241.241,0,0,1,.016-.106c.1-.11.023-.258.089-.376.067-.379.136-.758.2-1.137.031-.189.049-.381.072-.572.167-.3-.215-.67.119-.95a4.543,4.543,0,0,0,.112-1.409c-.085-.331-.005-.682-.12-1.01-.057-.3-.031-.61-.114-.906a1.7,1.7,0,0,0-1.109-1.584,1.02,1.02,0,0,1-.144-.081c-.254-.278-.246-.317.071-.4l.468-.113a.169.169,0,0,1,.148-.047,2.2,2.2,0,0,1,1.208,1.38,1.356,1.356,0,0,1,.079.157c.134.317.113.667.222.99a3.107,3.107,0,0,1-.137,1.731C27.534,27.109,27.361,28.161,27.1,29.2ZM37.86,27.674a34.5,34.5,0,0,0-3.781.388,1,1,0,0,0-.211.08,1.5,1.5,0,0,0-.681.142,2.608,2.608,0,0,0-.952.218,5.988,5.988,0,0,0-1.286.311,2.741,2.741,0,0,0-.812.278c-.088.126-.232.146-.362.194a1.013,1.013,0,0,1-.267.048h-.066a7.673,7.673,0,0,0-1.762.678c-.349-.054-.248-.325-.239-.53.013-.276.221-.4.461-.452.7-.166,1.394-.323,2.088-.5.875-.191,1.734-.447,2.609-.637.715-.127,1.421-.306,2.147-.369a8.383,8.383,0,0,1,3.046,0C37.879,27.545,37.9,27.6,37.86,27.674Z"  />
  </g>
          </symbol>
          <symbol id="profile" viewBox="0 0 460.8 460.8">
           <g>
            <path d="M230.432,0c-65.829,0-119.641,53.812-119.641,119.641s53.812,119.641,119.641,119.641s119.641-53.812,119.641-119.641
              S296.261,0,230.432,0z"/>
          </g>
          <g>
            <path d="M435.755,334.89c-3.135-7.837-7.314-15.151-12.016-21.943c-24.033-35.527-61.126-59.037-102.922-64.784
              c-5.224-0.522-10.971,0.522-15.151,3.657c-21.943,16.196-48.065,24.555-75.233,24.555s-53.29-8.359-75.233-24.555
              c-4.18-3.135-9.927-4.702-15.151-3.657c-41.796,5.747-79.412,29.257-102.922,64.784c-4.702,6.792-8.882,14.629-12.016,21.943
              c-1.567,3.135-1.045,6.792,0.522,9.927c4.18,7.314,9.404,14.629,14.106,20.898c7.314,9.927,15.151,18.808,24.033,27.167
              c7.314,7.314,15.673,14.106,24.033,20.898c41.273,30.825,90.906,47.02,142.106,47.02s100.833-16.196,142.106-47.02
              c8.359-6.269,16.718-13.584,24.033-20.898c8.359-8.359,16.718-17.241,24.033-27.167c5.224-6.792,9.927-13.584,14.106-20.898
              C436.8,341.682,437.322,338.024,435.755,334.89z"/>
          </g>
          </symbol>
          <symbol id="facebook" viewBox="0 0 7.498 14">
            <path class="a" d="M3.258-4.375l.389-2.534H1.215V-8.553A1.267,1.267,0,0,1,2.644-9.922H3.749v-2.157a13.479,13.479,0,0,0-1.962-.171A3.093,3.093,0,0,0-1.524-8.84v1.931H-3.749v2.534h2.226V1.75H1.215V-4.375Z" transform="translate(3.749 12.25)"/>
          </symbol>
          <symbol id="twitter" viewBox="0 0 14 11.371">
            <path class="a" d="M5.561-8.1A6.168,6.168,0,0,0,7-9.585a5.752,5.752,0,0,1-1.652.444,2.862,2.862,0,0,0,1.261-1.581,5.649,5.649,0,0,1-1.821.693,2.862,2.862,0,0,0-2.1-.906A2.868,2.868,0,0,0-.178-8.066a3.239,3.239,0,0,0,.071.657,8.156,8.156,0,0,1-5.916-3,2.848,2.848,0,0,0-.391,1.448,2.867,2.867,0,0,0,1.279,2.39,2.889,2.889,0,0,1-1.3-.364V-6.9a2.87,2.87,0,0,0,2.3,2.816,3.034,3.034,0,0,1-.755.1,3.616,3.616,0,0,1-.542-.044,2.874,2.874,0,0,0,2.683,1.99A5.746,5.746,0,0,1-6.307-.817,5.938,5.938,0,0,1-7-.853,8.108,8.108,0,0,0-2.594.435,8.108,8.108,0,0,0,5.57-7.728C5.57-7.853,5.57-7.977,5.561-8.1Z" transform="translate(7 10.935)"/>
          </symbol>
          <symbol id="pintrest" viewBox="0 0 10.5 13.647">
            <path class="a" d="M.328-12.072c-2.805,0-5.578,1.87-5.578,4.9,0,1.925,1.083,3.019,1.739,3.019.271,0,.427-.755.427-.968,0-.254-.648-.8-.648-1.854A3.7,3.7,0,0,1,.107-10.735a2.921,2.921,0,0,1,3.24,3c0,1.452-.582,4.175-2.469,4.175a1.214,1.214,0,0,1-1.263-1.2c0-1.034.722-2.034.722-3.1,0-1.81-2.568-1.482-2.568.705a3.212,3.212,0,0,0,.262,1.386A29.932,29.932,0,0,0-3.117-.046c0,.517.074,1.025.123,1.542.093.1.046.093.189.041C-1.427-.35-1.477-.719-.853-3.188A2.218,2.218,0,0,0,1.042-2.2c2.9,0,4.208-2.83,4.208-5.381A4.653,4.653,0,0,0,.328-12.072Z" transform="translate(5.25 12.072)"/>
          </symbol>
          <symbol id="youtube" viewBox="0 0 14.933 10.5">
            <path class="a" d="M7.155-8.857a1.876,1.876,0,0,0-1.32-1.329A44.342,44.342,0,0,0,0-10.5a44.342,44.342,0,0,0-5.834.314,1.876,1.876,0,0,0-1.32,1.329,19.684,19.684,0,0,0-.312,3.618,19.684,19.684,0,0,0,.312,3.618A1.848,1.848,0,0,0-5.834-.314,44.342,44.342,0,0,0,0,0,44.342,44.342,0,0,0,5.834-.314a1.848,1.848,0,0,0,1.32-1.308,19.684,19.684,0,0,0,.312-3.618A19.684,19.684,0,0,0,7.155-8.857ZM-1.527-3.019V-7.46l3.9,2.22Z" transform="translate(7.467 10.5)"/>
          </symbol>
          <symbol id="email" viewBox="0 0 16 12">
            <path class="a" d="M15.7-8.038c-.7.544-1.625,1.238-4.812,3.553C10.25-4.022,9.116-2.987,8-3,6.891-2.991,5.778-4,5.119-4.484,1.931-6.8,1-7.491.3-8.034a.187.187,0,0,0-.3.147V-1.5A1.5,1.5,0,0,0,1.5,0h13A1.5,1.5,0,0,0,16-1.5V-7.891A.188.188,0,0,0,15.7-8.038ZM8-4c.725.013,1.769-.913,2.294-1.294,4.147-3.009,4.462-3.272,5.419-4.022A.748.748,0,0,0,16-9.906V-10.5A1.5,1.5,0,0,0,14.5-12H1.5A1.5,1.5,0,0,0,0-10.5v.594a.752.752,0,0,0,.288.591c.956.747,1.272,1.012,5.419,4.022C6.231-4.913,7.275-3.987,8-4Z" transform="translate(0 12)"/>
          </symbol>
          <symbol id="eye" viewBox="0 0 18 12">
            <path class="a" d="M17.891-6.456A10.023,10.023,0,0,0,9-12,10.025,10.025,0,0,0,.109-6.456,1.2,1.2,0,0,0,0-6a1.2,1.2,0,0,0,.109.456A10.023,10.023,0,0,0,9,0a10.025,10.025,0,0,0,8.891-5.544A1.2,1.2,0,0,0,18-6,1.2,1.2,0,0,0,17.891-6.456ZM9-1.5A4.5,4.5,0,0,1,4.5-6,4.5,4.5,0,0,1,9-10.5,4.5,4.5,0,0,1,13.5-6v0A4.5,4.5,0,0,1,9-1.5ZM9-9a3.576,3.576,0,0,0-.791.118A1.748,1.748,0,0,1,8.5-8,1.5,1.5,0,0,1,7-6.5a1.748,1.748,0,0,1-.886-.291,3.593,3.593,0,0,0-.1.784A2.994,2.994,0,0,0,9.007-3.014,2.994,2.994,0,0,0,12-6.007,2.994,2.994,0,0,0,9.007-9Z" transform="translate(0 12)"/>
          </symbol>
           <symbol id="eye-slash" viewBox="0 0 20 16">
            <path class="a" d="M10-1.5A4.483,4.483,0,0,1,5.534-5.66L2.256-8.193A10.414,10.414,0,0,0,1.109-6.456,1.2,1.2,0,0,0,1-6a1.2,1.2,0,0,0,.109.456A10.023,10.023,0,0,0,10,0a9.707,9.707,0,0,0,2.434-.327L10.813-1.582A5.424,5.424,0,0,1,10-1.5ZM19.807.316l-3.455-2.67a12.341,12.341,0,0,0,2.539-3.19A1.2,1.2,0,0,0,19-6a1.2,1.2,0,0,0-.109-.456A10.023,10.023,0,0,0,10-12a11.4,11.4,0,0,0-4.6,1.178L1.421-13.895A.583.583,0,0,0,1.114-14a.565.565,0,0,0-.395.193l-.613.79A.583.583,0,0,0,0-12.71a.565.565,0,0,0,.193.395L18.579,1.895A.583.583,0,0,0,18.886,2a.565.565,0,0,0,.395-.193l.614-.79A.583.583,0,0,0,20,.71.565.565,0,0,0,19.807.316ZM14.066-4.122l-1.228-.949A3.546,3.546,0,0,0,13-6c0-.011,0-.028,0-.039A2.962,2.962,0,0,0,10.039-9a3.552,3.552,0,0,0-.83.119A1.741,1.741,0,0,1,9.5-8a1.753,1.753,0,0,1-.048.313l-2.3-1.778A5.163,5.163,0,0,1,10-10.5h0A4.5,4.5,0,0,1,14.5-6v0a4.393,4.393,0,0,1-.434,1.878Z" transform="translate(0 14)"/>
          </symbol>
          <symbol id="google" viewBox="0 0 15.25 15.5">
            <path class="a" d="M7.625-5.819A6.792,6.792,0,0,0,7.5-7.112H.125v2.666h4.4a4.191,4.191,0,0,1-4.4,3.341A4.855,4.855,0,0,1-4.678-6c0-4.356,5.131-6.356,7.891-3.694l2.109-2.028a7.453,7.453,0,0,0-5.2-2.028A7.741,7.741,0,0,0-7.625-6,7.741,7.741,0,0,0,.125,1.75,7.2,7.2,0,0,0,7.625-5.819Z" transform="translate(7.625 13.75)"/>
          </symbol>
         
        
          
         
          <!--horoscope sign -->
         <symbol id="horoscope" viewBox="0 0 30.449 30.449">
            <g transform="translate(-558.75 -558.75)"><path d="M762.416,558.75c.64.118,1.284.214,1.918.358a15.348,15.348,0,0,1,3.56,1.329l-2.628,4.556L762,564.1V558.75Z" transform="translate(-187.134)"/><path d="M558.75,670.727c.1-.563.182-1.129.3-1.687a15.894,15.894,0,0,1,1.324-3.675.974.974,0,0,1,.074-.108l4.541,2.622-.886,3.265H558.75Z" transform="translate(0 -98.061)"/><path d="M558.75,762h5.417c.117.568.2,1.115.347,1.646s.34,1.03.53,1.59l-4.605,2.658a15.127,15.127,0,0,1-1.264-3.3c-.159-.662-.25-1.34-.373-2.011a1.382,1.382,0,0,0-.052-.165Z" transform="translate(0 -187.134)"/><path d="M670.653,870.229c-.562-.1-1.129-.182-1.686-.3a15.946,15.946,0,0,1-3.791-1.384l2.63-4.559,3.264.891v5.355Z" transform="translate(-97.987 -281.03)"/><path d="M762,870.34v-5.36l3.266-.876,2.628,4.548a14.491,14.491,0,0,1-3.073,1.2c-.746.187-1.512.294-2.269.438a.881.881,0,0,0-.135.049Z" transform="translate(-187.134 -281.141)"/><path d="M671.083,558.75v5.359l-3.264.88-2.628-4.549a14.949,14.949,0,0,1,3.3-1.264c.672-.162,1.36-.252,2.04-.377a.848.848,0,0,0,.136-.049Z" transform="translate(-98.001)"/><path d="M870.3,671.08h-5.358l-.882-3.265,4.552-2.627a15.489,15.489,0,0,1,1.322,3.53c.135.587.209,1.187.313,1.781a1.255,1.255,0,0,0,.052.165Z" transform="translate(-281.102 -97.998)"/><path d="M869.685,762.416c-.1.562-.182,1.129-.3,1.687A15.849,15.849,0,0,1,868,767.892l-4.606-2.659c.184-.544.385-1.059.529-1.59s.225-1.063.343-1.644h5.42Z" transform="translate(-280.487 -187.134)"/><path d="M665.559,657.535a8.028,8.028,0,1,1-8.009-8.032A8.038,8.038,0,0,1,665.559,657.535Zm-8.92,4.428c0,.257,0,.562,0,.867a.893.893,0,1,0,1.783-.011c0-.3,0-.609,0-.859l1.639-.683c.163.178.356.4.566.611a.893.893,0,1,0,1.269-1.25c-.214-.215-.453-.406-.626-.56l.687-1.655c.257,0,.553,0,.849,0a.894.894,0,1,0,.008-1.783c-.3,0-.609,0-.851,0L661.277,655c.19-.177.424-.377.637-.6a.891.891,0,1,0-1.261-1.257c-.219.214-.419.447-.592.633l-1.637-.682c0-.254,0-.54,0-.826a.9.9,0,1,0-1.784.012c0,.293,0,.587,0,.814l-1.627.681c-.179-.189-.376-.412-.588-.619a.892.892,0,1,0-1.269,1.249c.213.218.448.416.631.583l-.681,1.643c-.269,0-.566,0-.862,0a.893.893,0,1,0-.01,1.783c.305,0,.61,0,.866,0l.682,1.625c-.186.177-.4.37-.6.574a.895.895,0,1,0,1.26,1.26c.208-.208.4-.437.551-.61Z" transform="translate(-83.557 -83.557)"/><path d="M825.3,591.174a15.244,15.244,0,0,1,4.317,4.318l-4.563,2.636-2.388-2.391Z" transform="translate(-242.99 -29.853)"/><path d="M825.292,829.6l-2.635-4.564,2.39-2.39,4.563,2.635A15.276,15.276,0,0,1,825.292,829.6Z" transform="translate(-242.981 -242.97)"/><path d="M591.162,595.486a15.244,15.244,0,0,1,4.318-4.315l2.637,4.564-2.391,2.387Z" transform="translate(-29.842 -29.85)"/><path d="M595.511,829.609a15.222,15.222,0,0,1-4.316-4.315l4.563-2.635,2.388,2.388Z" transform="translate(-29.872 -242.983)"/><path d="M722.361,719.679a2.675,2.675,0,1,1-2.667-2.668A2.68,2.68,0,0,1,722.361,719.679Z" transform="translate(-145.712 -145.712)"/></g>
          </symbol>
          <!--setting -->
         <symbol id="setting" viewBox="0 0 18.772 19.47">
           <path d="M16.787,2.141a7.551,7.551,0,0,0,0-2.759l1.464-.73a1.039,1.039,0,0,0,.435-1.265,10.19,10.19,0,0,0-1.829-2.859A1.04,1.04,0,0,0,15.54-5.7l-1.265.73A7.546,7.546,0,0,0,11.89-6.351v-1.46a1.044,1.044,0,0,0-.869-1.026,9.912,9.912,0,0,0-3.3,0,1.035,1.035,0,0,0-.852,1.021v1.464A7.466,7.466,0,0,0,4.481-4.969L3.216-5.7a1.039,1.039,0,0,0-1.317.23A10.2,10.2,0,0,0,.065-2.609a1.036,1.036,0,0,0,.456,1.26l1.447.734a7.529,7.529,0,0,0,0,2.755l-1.447.73A1.049,1.049,0,0,0,.065,4.135,10.244,10.244,0,0,0,1.9,6.99a1.04,1.04,0,0,0,1.317.23L4.481,6.5A7.547,7.547,0,0,0,6.866,7.873v1.46a1.044,1.044,0,0,0,.869,1.026,9.773,9.773,0,0,0,3.3,0,1.04,1.04,0,0,0,.856-1.026V7.873A7.464,7.464,0,0,0,14.276,6.5l1.265.73a1.039,1.039,0,0,0,1.317-.23,10.259,10.259,0,0,0,1.851-2.859,1.045,1.045,0,0,0-.456-1.265Zm-5.11.917C8.331,5.63,4.511,1.81,7.084-1.536,10.43-4.108,14.25-.288,11.677,3.058Z" transform="translate(0 8.973)"/>
          </symbol>
          <!--security -->
         <symbol id="security" viewBox="0 0 17.5 20">
           <path class="a" d="M15.625-8.75h-.937v-2.812A5.945,5.945,0,0,0,8.75-17.5a5.945,5.945,0,0,0-5.937,5.938V-8.75H1.875A1.875,1.875,0,0,0,0-6.875v7.5A1.875,1.875,0,0,0,1.875,2.5h13.75A1.875,1.875,0,0,0,17.5.625v-7.5A1.875,1.875,0,0,0,15.625-8.75Zm-4.062,0H5.938v-2.812A2.816,2.816,0,0,1,8.75-14.375a2.816,2.816,0,0,1,2.813,2.813Z" transform="translate(0 17.5)"/>
          </symbol>
          <!--logout -->
         <symbol id="logout" viewBox="0 0 19.687 15.002">
           <path class="a" d="M19.414-6.836a.945.945,0,0,0,0-1.328l-6.562-6.562a.94.94,0,0,0-1.6.664v3.75H5.938A.935.935,0,0,0,5-9.375v3.75a.935.935,0,0,0,.938.938H11.25v3.75a.939.939,0,0,0,1.6.664ZM7.5-.469V-2.031A.47.47,0,0,0,7.031-2.5H3.75A1.249,1.249,0,0,1,2.5-3.75v-7.5A1.249,1.249,0,0,1,3.75-12.5H7.031a.47.47,0,0,0,.469-.469v-1.562A.47.47,0,0,0,7.031-15H3.75A3.751,3.751,0,0,0,0-11.25v7.5A3.751,3.751,0,0,0,3.75,0H7.031A.47.47,0,0,0,7.5-.469Z" transform="translate(0 15.001)"/>
          </symbol>
          <!--back -->
         <symbol id="back" viewBox="0 0 27.502 17.059">
           <path class="a" d="M12.663,2.838a.932.932,0,0,0-.016-1.34L5.336-5.937H26.563a.935.935,0,0,0,.938-.937v-1.25a.935.935,0,0,0-.937-.937H5.336L12.71-16.6a.939.939,0,0,0,.016-1.34l-.867-.867a.934.934,0,0,0-1.324,0L.273-8.16a.934.934,0,0,0,0,1.324L10.471,3.7a.934.934,0,0,0,1.324,0Z" transform="translate(0.002 19.081)"/>
          </symbol>
         
          
        </defs>
      </svg>


      