<svg xmlns="http://www.w3.org/2000/svg" xmlns:xlink="http://www.w3.org/1999/xlink" width="251" height="183" viewBox="0 0 251 183">
  <defs>
    <filter id="Rectangle_71" x="0" y="0" width="251" height="183" filterUnits="userSpaceOnUse">
      <feOffset dy="5" input="SourceAlpha"/>
      <feGaussianBlur stdDeviation="4" result="blur"/>
      <feFlood flood-opacity="0.161"/>
      <feComposite operator="in" in2="blur"/>
      <feComposite in="SourceGraphic"/>
    </filter>
  </defs>
  <g id="unicode-img" transform="translate(-1108 -868)">
    <g transform="matrix(1, 0, 0, 1, 1108, 868)" filter="url(#Rectangle_71)">
      <rect id="Rectangle_71-2" data-name="Rectangle 71" width="227" height="159" rx="10" transform="translate(12 7)" fill="#fff"/>
    </g>
    <path id="Rectangle_72" data-name="Rectangle 72" d="M10,0H217a10,10,0,0,1,10,10V33a0,0,0,0,1,0,0H0a0,0,0,0,1,0,0V10A10,10,0,0,1,10,0Z" transform="translate(1120 875)" fill="#121213"/>
    <g id="Group_38" data-name="Group 38" transform="translate(159.356 1)">
      <text id="क_ख_ग_घ_ङ_च_छ_ज_झ_ञ_ट_ठ_ड_ढ_ण" data-name="क ख ग घ ङ
च छ ज झ ञ
ट ठ ड ढ ण" transform="translate(1073.644 946)" fill="#ffa000" font-size="19" font-family="NirmalaUI, Nirmala UI" letter-spacing="0.25em"><tspan x="-65.146" y="0">क</tspan><tspan y="0" font-family="OpenSans-Regular, Open Sans"> </tspan><tspan y="0">ख</tspan><tspan y="0" font-family="OpenSans-Regular, Open Sans"> </tspan><tspan y="0">ग</tspan><tspan y="0" font-family="OpenSans-Regular, Open Sans"> </tspan><tspan y="0">घ</tspan><tspan y="0" font-family="OpenSans-Regular, Open Sans"> </tspan><tspan y="0">ङ</tspan><tspan y="0" font-family="OpenSans-Regular, Open Sans"></tspan><tspan x="-64.705" y="30">च</tspan><tspan y="30" font-family="OpenSans-Regular, Open Sans"> </tspan><tspan y="30">छ</tspan><tspan y="30" font-family="OpenSans-Regular, Open Sans"> </tspan><tspan y="30">ज</tspan><tspan y="30" font-family="OpenSans-Regular, Open Sans"> </tspan><tspan y="30">झ</tspan><tspan y="30" font-family="OpenSans-Regular, Open Sans"> </tspan><tspan y="30">ञ</tspan><tspan y="30" font-family="OpenSans-Regular, Open Sans"></tspan><tspan x="-60.864" y="60">ट</tspan><tspan y="60" font-family="OpenSans-Regular, Open Sans"> </tspan><tspan y="60">ठ</tspan><tspan y="60" font-family="OpenSans-Regular, Open Sans"> </tspan><tspan y="60">ड</tspan><tspan y="60" font-family="OpenSans-Regular, Open Sans"> </tspan><tspan y="60">ढ</tspan><tspan y="60" font-family="OpenSans-Regular, Open Sans"> </tspan><tspan y="60">ण</tspan></text>
    </g>
    <text id="Unicode_converter" data-name="Unicode converter" transform="translate(1234 897)" fill="#fff" font-size="14" font-family="Roboto-Regular, Roboto"><tspan x="-56.622" y="0">Unicode converter</tspan></text>
  </g>
</svg>
